%TF.GenerationSoftware,Altium Limited,Altium Designer,21.6.4 (81)*%
G04 Layer_Color=32768*
%FSLAX43Y43*%
%MOMM*%
%TF.SameCoordinates,C39744A4-4465-455E-AB15-BAA165A4C254*%
%TF.FilePolarity,Positive*%
%TF.FileFunction,Other,Top_Assembly*%
%TF.Part,Single*%
G01*
G75*
%TA.AperFunction,NonConductor*%
%ADD26C,0.254*%
%ADD49C,0.100*%
D26*
X30387Y18200D02*
G03*
X30387Y18200I-112J0D01*
G01*
Y48200D02*
G03*
X30387Y48200I-112J0D01*
G01*
Y33200D02*
G03*
X30387Y33200I-112J0D01*
G01*
D49*
X69912Y48059D02*
X71262D01*
X69912Y45209D02*
X71262D01*
Y48059D01*
X69912Y45209D02*
Y48059D01*
X69988Y40942D02*
X71338D01*
X69988Y43792D02*
X71338D01*
X69988Y40942D02*
Y43792D01*
X71338Y40942D02*
Y43792D01*
X71644Y42166D02*
Y48766D01*
X80044Y42166D02*
Y48766D01*
X71644D02*
X80044D01*
X71644Y42166D02*
X80044D01*
X26416Y5845D02*
Y10545D01*
X24066Y5845D02*
Y10545D01*
X26416D01*
X24066Y5845D02*
X26416D01*
X61908Y17374D02*
X64956D01*
X61908Y18898D02*
X64956D01*
Y17374D02*
Y18898D01*
X61908Y17374D02*
Y18898D01*
X58184Y17374D02*
X61232D01*
X58184Y18898D02*
X61232D01*
Y17374D02*
Y18898D01*
X58184Y17374D02*
Y18898D01*
X61857Y20625D02*
X64905D01*
X61857Y19101D02*
X64905D01*
X61857D02*
Y20625D01*
X64905Y19101D02*
Y20625D01*
X58149D02*
X61197D01*
X58149Y19101D02*
X61197D01*
X58149D02*
Y20625D01*
X61197Y19101D02*
Y20625D01*
X86987Y29784D02*
Y34484D01*
X89337Y29784D02*
Y34484D01*
X86987Y29784D02*
X89337D01*
X86987Y34484D02*
X89337D01*
X87146Y29497D02*
X89178D01*
X87146Y24925D02*
X89178D01*
Y29497D01*
X87146Y24925D02*
Y29497D01*
X58217Y33779D02*
X61265D01*
X58217Y32255D02*
X61265D01*
X58217D02*
Y33779D01*
X61265Y32255D02*
Y33779D01*
X58135Y23597D02*
Y25629D01*
X62707Y23597D02*
Y25629D01*
X58135D02*
X62707D01*
X58135Y23597D02*
X62707D01*
X14408Y10050D02*
Y13098D01*
X12884Y10050D02*
Y13098D01*
X14408D01*
X12884Y10050D02*
X14408D01*
X11029Y9964D02*
Y13012D01*
X12553Y9964D02*
Y13012D01*
X11029Y9964D02*
X12553D01*
X11029Y13012D02*
X12553D01*
X14974Y16533D02*
Y21105D01*
X12942Y16533D02*
Y21105D01*
X14974D01*
X12942Y16533D02*
X14974D01*
X12334Y7417D02*
Y9449D01*
X7762Y7417D02*
Y9449D01*
Y7417D02*
X12334D01*
X7762Y9449D02*
X12334D01*
X18338Y44359D02*
Y46709D01*
X13638Y44359D02*
Y46709D01*
Y44359D02*
X18338D01*
X13638Y46709D02*
X18338D01*
X11979Y40850D02*
Y43898D01*
X13503Y40850D02*
Y43898D01*
X11979Y40850D02*
X13503D01*
X11979Y43898D02*
X13503D01*
X15256Y40850D02*
Y43898D01*
X13732Y40850D02*
Y43898D01*
X15256D01*
X13732Y40850D02*
X15256D01*
X8804Y46591D02*
X13376D01*
X8804Y44559D02*
X13376D01*
X8804D02*
Y46591D01*
X13376Y44559D02*
Y46591D01*
X18266Y37846D02*
Y40196D01*
X13566Y37846D02*
Y40196D01*
Y37846D02*
X18266D01*
X13566Y40196D02*
X18266D01*
X26652Y36674D02*
Y41374D01*
X24302Y36674D02*
Y41374D01*
X26652D01*
X24302Y36674D02*
X26652D01*
X41685Y10146D02*
X43035D01*
X41685Y12996D02*
X43035D01*
X41685Y10146D02*
Y12996D01*
X43035Y10146D02*
Y12996D01*
X29175Y19100D02*
X40800D01*
X29175Y5850D02*
Y19100D01*
Y5850D02*
X40800D01*
Y19100D01*
X34973Y570D02*
Y1920D01*
X37823Y570D02*
Y1920D01*
X34973D02*
X37823D01*
X34973Y570D02*
X37823D01*
X19824Y5871D02*
X22174D01*
X19824Y10571D02*
X22174D01*
X19824Y5871D02*
Y10571D01*
X22174Y5871D02*
Y10571D01*
X26674Y6141D02*
X28024D01*
X26674Y8991D02*
X28024D01*
X26674Y6141D02*
Y8991D01*
X28024Y6141D02*
Y8991D01*
X22458Y6151D02*
X23808D01*
X22458Y9001D02*
X23808D01*
X22458Y6151D02*
Y9001D01*
X23808Y6151D02*
Y9001D01*
X29175Y49100D02*
X40800D01*
X29175Y35850D02*
Y49100D01*
Y35850D02*
X40800D01*
Y49100D01*
X43294Y2821D02*
X47994D01*
X43294D02*
Y10221D01*
Y17321D01*
X47994Y2821D02*
Y17321D01*
X43294D02*
X47994D01*
X41286Y16279D02*
X42636D01*
X41286Y19129D02*
X42636D01*
X41286Y16279D02*
Y19129D01*
X42636Y16279D02*
Y19129D01*
X41216Y31214D02*
X42566D01*
X41216Y34064D02*
X42566D01*
X41216Y31214D02*
Y34064D01*
X42566Y31214D02*
Y34064D01*
X41216Y46253D02*
X42566D01*
X41216Y49103D02*
X42566D01*
X41216Y46253D02*
Y49103D01*
X42566Y46253D02*
Y49103D01*
X28243Y36644D02*
Y39494D01*
X26893Y36644D02*
Y39494D01*
X28243D01*
X26893Y36644D02*
X28243D01*
X22444Y36697D02*
Y41397D01*
X20094Y36697D02*
Y41397D01*
X22444D01*
X20094Y36697D02*
X22444D01*
X24052Y36669D02*
Y39519D01*
X22702Y36669D02*
Y39519D01*
X24052D01*
X22702Y36669D02*
X24052D01*
X27591Y31338D02*
Y36038D01*
X25241Y31338D02*
Y36038D01*
X27591D01*
X25241Y31338D02*
X27591D01*
X28984Y31390D02*
Y34240D01*
X27634Y31390D02*
Y34240D01*
X28984D01*
X27634Y31390D02*
X28984D01*
X27297Y44378D02*
Y49078D01*
X24947Y44378D02*
Y49078D01*
X27297D01*
X24947Y44378D02*
X27297D01*
X28869Y46253D02*
Y49103D01*
X27519Y46253D02*
Y49103D01*
X28869D01*
X27519Y46253D02*
X28869D01*
X27574Y14236D02*
Y18936D01*
X25225Y14236D02*
Y18936D01*
X27574D01*
X25225Y14236D02*
X27574D01*
X28942Y16025D02*
Y18875D01*
X27592Y16025D02*
Y18875D01*
X28942D01*
X27592Y16025D02*
X28942D01*
X58026Y28074D02*
X62726D01*
X58026Y25724D02*
X62726D01*
X58026D02*
Y28074D01*
X62726Y25724D02*
Y28074D01*
X12963Y15838D02*
X17663D01*
X12963Y13488D02*
X17663D01*
X12963D02*
Y15838D01*
X17663Y13488D02*
Y15838D01*
X12861Y9462D02*
X17561D01*
X12861Y7112D02*
X17561D01*
X12861D02*
Y9462D01*
X17561Y7112D02*
Y9462D01*
X80612Y29657D02*
Y34357D01*
X82962Y29657D02*
Y34357D01*
X80612Y29657D02*
X82962D01*
X80612Y34357D02*
X82962D01*
X80771Y29388D02*
X82803D01*
X80771Y24816D02*
X82803D01*
Y29388D01*
X80771Y24816D02*
Y29388D01*
X86439Y29820D02*
Y31344D01*
X83391Y29820D02*
Y31344D01*
Y29820D02*
X86439D01*
X83391Y31344D02*
X86439D01*
X83477Y28049D02*
Y29573D01*
X86525Y28049D02*
Y29573D01*
X83477D02*
X86525D01*
X83477Y28049D02*
X86525D01*
X13547Y37574D02*
X15579D01*
X13547Y33002D02*
X15579D01*
Y37574D01*
X13547Y33002D02*
Y37574D01*
X40800Y20850D02*
Y34100D01*
X29175Y20850D02*
X40800D01*
X29175D02*
Y34100D01*
X40800D01*
X58217Y30452D02*
Y31976D01*
X61265Y30452D02*
Y31976D01*
X58217D02*
X61265D01*
X58217Y30452D02*
X61265D01*
X61866Y30451D02*
Y31975D01*
X64914Y30451D02*
Y31975D01*
X61866D02*
X64914D01*
X61866Y30451D02*
X64914D01*
Y32255D02*
Y33779D01*
X61866Y32255D02*
Y33779D01*
Y32255D02*
X64914D01*
X61866Y33779D02*
X64914D01*
X63769Y30199D02*
X65801D01*
X63769Y25627D02*
X65801D01*
Y30199D01*
X63769Y25627D02*
Y30199D01*
X68398Y25642D02*
Y30342D01*
X66048Y25642D02*
Y30342D01*
X68398D01*
X66048Y25642D02*
X68398D01*
X66017Y20678D02*
Y25378D01*
X68367Y20678D02*
Y25378D01*
X66017Y20678D02*
X68367D01*
X66017Y25378D02*
X68367D01*
X63737Y20844D02*
X65769D01*
X63737Y25416D02*
X65769D01*
X63737Y20844D02*
Y25416D01*
X65769Y20844D02*
Y25416D01*
X75717Y13716D02*
Y15748D01*
X80289Y13716D02*
Y15748D01*
X75717D02*
X80289D01*
X75717Y13716D02*
X80289D01*
X80580Y14335D02*
X82612D01*
X80580Y18907D02*
X82612D01*
X80580Y14335D02*
Y18907D01*
X82612Y14335D02*
Y18907D01*
X80605Y19103D02*
X82637D01*
X80605Y23675D02*
X82637D01*
X80605Y19103D02*
Y23675D01*
X82637Y19103D02*
Y23675D01*
X41685Y7376D02*
Y10226D01*
X43035Y7376D02*
Y10226D01*
X41685Y7376D02*
X43035D01*
X41685Y10226D02*
X43035D01*
X70820Y47118D02*
X70936Y47235D01*
Y47468D01*
X70820Y47584D01*
X70353D01*
X70237Y47468D01*
Y47235D01*
X70353Y47118D01*
X70237Y46535D02*
X70936D01*
X70586Y46885D01*
Y46418D01*
X70820Y46185D02*
X70936Y46068D01*
Y45835D01*
X70820Y45718D01*
X70353D01*
X70237Y45835D01*
Y46068D01*
X70353Y46185D01*
X70820D01*
X70430Y41884D02*
X70313Y41767D01*
Y41534D01*
X70430Y41417D01*
X70896D01*
X71013Y41534D01*
Y41767D01*
X70896Y41884D01*
X70430Y42117D02*
X70313Y42234D01*
Y42467D01*
X70430Y42583D01*
X70546D01*
X70663Y42467D01*
Y42350D01*
Y42467D01*
X70780Y42583D01*
X70896D01*
X71013Y42467D01*
Y42234D01*
X70896Y42117D01*
Y42817D02*
X71013Y42933D01*
Y43167D01*
X70896Y43283D01*
X70430D01*
X70313Y43167D01*
Y42933D01*
X70430Y42817D01*
X70546D01*
X70663Y42933D01*
Y43283D01*
X76544Y45466D02*
X75844D01*
Y45116D01*
X75961Y44999D01*
X76428D01*
X76544Y45116D01*
Y45466D01*
Y44766D02*
X75844D01*
Y44416D01*
X75961Y44300D01*
X76428D01*
X76544Y44416D01*
Y44766D01*
Y43600D02*
Y44066D01*
X76194D01*
X76311Y43833D01*
Y43717D01*
X76194Y43600D01*
X75961D01*
X75844Y43717D01*
Y43950D01*
X75961Y44066D01*
X24899Y7803D02*
X24766Y7670D01*
Y7404D01*
X24899Y7270D01*
X25432D01*
X25566Y7404D01*
Y7670D01*
X25432Y7803D01*
X25566Y8603D02*
Y8070D01*
X25033Y8603D01*
X24899D01*
X24766Y8470D01*
Y8203D01*
X24899Y8070D01*
X24766Y8870D02*
Y9403D01*
X24899D01*
X25432Y8870D01*
X25566D01*
X62457Y18585D02*
Y18052D01*
X62723Y17786D01*
X62990Y18052D01*
Y18585D01*
X63257D02*
Y17786D01*
X63656D01*
X63790Y17919D01*
Y18452D01*
X63656Y18585D01*
X63257D01*
X64589D02*
X64056D01*
Y18185D01*
X64323Y18319D01*
X64456D01*
X64589Y18185D01*
Y17919D01*
X64456Y17786D01*
X64190D01*
X64056Y17919D01*
X58733Y18585D02*
Y18052D01*
X59000Y17786D01*
X59266Y18052D01*
Y18585D01*
X59533D02*
Y17786D01*
X59933D01*
X60066Y17919D01*
Y18452D01*
X59933Y18585D01*
X59533D01*
X60866D02*
X60599Y18452D01*
X60333Y18185D01*
Y17919D01*
X60466Y17786D01*
X60733D01*
X60866Y17919D01*
Y18052D01*
X60733Y18185D01*
X60333D01*
X64356Y19413D02*
Y19946D01*
X64089Y20213D01*
X63823Y19946D01*
Y19413D01*
X63556D02*
Y20213D01*
X63156D01*
X63023Y20079D01*
Y19546D01*
X63156Y19413D01*
X63556D01*
X62757Y20213D02*
X62490D01*
X62623D01*
Y19413D01*
X62757Y19546D01*
X62090Y19413D02*
X61557D01*
Y19546D01*
X62090Y20079D01*
Y20213D01*
X60648Y19413D02*
Y19946D01*
X60381Y20213D01*
X60114Y19946D01*
Y19413D01*
X59848D02*
Y20213D01*
X59448D01*
X59315Y20079D01*
Y19546D01*
X59448Y19413D01*
X59848D01*
X59048Y20213D02*
X58782D01*
X58915D01*
Y19413D01*
X59048Y19546D01*
X58382D02*
X58248Y19413D01*
X57982D01*
X57848Y19546D01*
Y19679D01*
X57982Y19813D01*
X57848Y19946D01*
Y20079D01*
X57982Y20213D01*
X58248D01*
X58382Y20079D01*
Y19946D01*
X58248Y19813D01*
X58382Y19679D01*
Y19546D01*
X58248Y19813D02*
X57982D01*
X88504Y32525D02*
X88637Y32659D01*
Y32925D01*
X88504Y33059D01*
X87971D01*
X87837Y32925D01*
Y32659D01*
X87971Y32525D01*
X87837Y32259D02*
Y31992D01*
Y32126D01*
X88637D01*
X88504Y32259D01*
X87837Y31059D02*
Y31592D01*
X88370Y31059D01*
X88504D01*
X88637Y31193D01*
Y31459D01*
X88504Y31592D01*
X87812Y28186D02*
X88612D01*
Y27787D01*
X88479Y27653D01*
X88212D01*
X88079Y27787D01*
Y28186D01*
Y27920D02*
X87812Y27653D01*
X88479Y27387D02*
X88612Y27253D01*
Y26987D01*
X88479Y26853D01*
X88345D01*
X88212Y26987D01*
Y27120D01*
Y26987D01*
X88079Y26853D01*
X87946D01*
X87812Y26987D01*
Y27253D01*
X87946Y27387D01*
X88612Y26054D02*
X88479Y26320D01*
X88212Y26587D01*
X87946D01*
X87812Y26454D01*
Y26187D01*
X87946Y26054D01*
X88079D01*
X88212Y26187D01*
Y26587D01*
X60716Y32567D02*
Y33100D01*
X60449Y33367D01*
X60183Y33100D01*
Y32567D01*
X59916D02*
Y33367D01*
X59516D01*
X59383Y33233D01*
Y32700D01*
X59516Y32567D01*
X59916D01*
X59116D02*
X58583D01*
Y32700D01*
X59116Y33233D01*
Y33367D01*
X59446Y24263D02*
Y25062D01*
X59846D01*
X59979Y24929D01*
Y24662D01*
X59846Y24529D01*
X59446D01*
X59712D02*
X59979Y24263D01*
X60779D02*
X60246D01*
X60779Y24796D01*
Y24929D01*
X60645Y25062D01*
X60379D01*
X60246Y24929D01*
X61578Y25062D02*
X61312Y24929D01*
X61045Y24662D01*
Y24396D01*
X61179Y24263D01*
X61445D01*
X61578Y24396D01*
Y24529D01*
X61445Y24662D01*
X61045D01*
X13196Y10599D02*
X13729D01*
X13996Y10865D01*
X13729Y11132D01*
X13196D01*
Y11398D02*
X13996D01*
Y11798D01*
X13862Y11931D01*
X13329D01*
X13196Y11798D01*
Y11398D01*
X13996Y12731D02*
Y12198D01*
X13462Y12731D01*
X13329D01*
X13196Y12598D01*
Y12331D01*
X13329Y12198D01*
X13196Y13531D02*
X13329Y13264D01*
X13596Y12998D01*
X13862D01*
X13996Y13131D01*
Y13398D01*
X13862Y13531D01*
X13729D01*
X13596Y13398D01*
Y12998D01*
X12241Y12463D02*
X11708D01*
X11441Y12196D01*
X11708Y11930D01*
X12241D01*
Y11663D02*
X11441D01*
Y11263D01*
X11575Y11130D01*
X12108D01*
X12241Y11263D01*
Y11663D01*
X11441Y10330D02*
Y10863D01*
X11974Y10330D01*
X12108D01*
X12241Y10464D01*
Y10730D01*
X12108Y10863D01*
X11575Y10064D02*
X11441Y9930D01*
Y9664D01*
X11575Y9531D01*
X12108D01*
X12241Y9664D01*
Y9930D01*
X12108Y10064D01*
X11974D01*
X11841Y9930D01*
Y9531D01*
X14308Y17844D02*
X13508D01*
Y18244D01*
X13642Y18377D01*
X13908D01*
X14041Y18244D01*
Y17844D01*
Y18111D02*
X14308Y18377D01*
X13642Y18644D02*
X13508Y18777D01*
Y19044D01*
X13642Y19177D01*
X13775D01*
X13908Y19044D01*
Y18910D01*
Y19044D01*
X14041Y19177D01*
X14175D01*
X14308Y19044D01*
Y18777D01*
X14175Y18644D01*
Y19444D02*
X14308Y19577D01*
Y19843D01*
X14175Y19977D01*
X13642D01*
X13508Y19843D01*
Y19577D01*
X13642Y19444D01*
X13775D01*
X13908Y19577D01*
Y19977D01*
X11023Y8783D02*
Y7983D01*
X10623D01*
X10490Y8117D01*
Y8383D01*
X10623Y8516D01*
X11023D01*
X10756D02*
X10490Y8783D01*
X10223Y8117D02*
X10090Y7983D01*
X9823D01*
X9690Y8117D01*
Y8250D01*
X9823Y8383D01*
X9957D01*
X9823D01*
X9690Y8516D01*
Y8650D01*
X9823Y8783D01*
X10090D01*
X10223Y8650D01*
X9423Y8117D02*
X9290Y7983D01*
X9024D01*
X8890Y8117D01*
Y8250D01*
X9024Y8383D01*
X8890Y8516D01*
Y8650D01*
X9024Y8783D01*
X9290D01*
X9423Y8650D01*
Y8516D01*
X9290Y8383D01*
X9423Y8250D01*
Y8117D01*
X9290Y8383D02*
X9024D01*
X16379Y45193D02*
X16513Y45060D01*
X16779D01*
X16913Y45193D01*
Y45726D01*
X16779Y45859D01*
X16513D01*
X16379Y45726D01*
X16113Y45859D02*
X15846D01*
X15980D01*
Y45060D01*
X16113Y45193D01*
X15446D02*
X15313Y45060D01*
X15047D01*
X14913Y45193D01*
Y45726D01*
X15047Y45859D01*
X15313D01*
X15446Y45726D01*
Y45193D01*
X13191Y43349D02*
X12658D01*
X12391Y43083D01*
X12658Y42816D01*
X13191D01*
Y42550D02*
X12391D01*
Y42150D01*
X12524Y42016D01*
X13057D01*
X13191Y42150D01*
Y42550D01*
X12391Y41217D02*
Y41750D01*
X12924Y41217D01*
X13057D01*
X13191Y41350D01*
Y41616D01*
X13057Y41750D01*
X13191Y40950D02*
Y40417D01*
X13057D01*
X12524Y40950D01*
X12391D01*
X14044Y41399D02*
X14577D01*
X14844Y41666D01*
X14577Y41932D01*
X14044D01*
Y42199D02*
X14844D01*
Y42599D01*
X14710Y42732D01*
X14177D01*
X14044Y42599D01*
Y42199D01*
X14177Y42999D02*
X14044Y43132D01*
Y43399D01*
X14177Y43532D01*
X14310D01*
X14444Y43399D01*
Y43265D01*
Y43399D01*
X14577Y43532D01*
X14710D01*
X14844Y43399D01*
Y43132D01*
X14710Y42999D01*
X14177Y43798D02*
X14044Y43932D01*
Y44198D01*
X14177Y44332D01*
X14710D01*
X14844Y44198D01*
Y43932D01*
X14710Y43798D01*
X14177D01*
X12065Y45925D02*
Y45125D01*
X11665D01*
X11532Y45258D01*
Y45525D01*
X11665Y45658D01*
X12065D01*
X11798D02*
X11532Y45925D01*
X11265Y45258D02*
X11132Y45125D01*
X10865D01*
X10732Y45258D01*
Y45391D01*
X10865Y45525D01*
X10999D01*
X10865D01*
X10732Y45658D01*
Y45791D01*
X10865Y45925D01*
X11132D01*
X11265Y45791D01*
X10066Y45925D02*
Y45125D01*
X10466Y45525D01*
X9932D01*
X16308Y38680D02*
X16441Y38547D01*
X16708D01*
X16841Y38680D01*
Y39213D01*
X16708Y39346D01*
X16441D01*
X16308Y39213D01*
X16041Y39346D02*
X15775D01*
X15908D01*
Y38547D01*
X16041Y38680D01*
X15375Y39346D02*
X15108D01*
X15242D01*
Y38547D01*
X15375Y38680D01*
X25136Y38632D02*
X25003Y38499D01*
Y38232D01*
X25136Y38099D01*
X25669D01*
X25802Y38232D01*
Y38499D01*
X25669Y38632D01*
X25802Y39432D02*
Y38899D01*
X25269Y39432D01*
X25136D01*
X25003Y39298D01*
Y39032D01*
X25136Y38899D01*
X25003Y40231D02*
Y39698D01*
X25403D01*
X25269Y39965D01*
Y40098D01*
X25403Y40231D01*
X25669D01*
X25802Y40098D01*
Y39832D01*
X25669Y39698D01*
X42044Y11154D02*
X41911Y11021D01*
Y10754D01*
X42044Y10621D01*
X42577D01*
X42710Y10754D01*
Y11021D01*
X42577Y11154D01*
X42044Y11420D02*
X41911Y11554D01*
Y11820D01*
X42044Y11954D01*
X42177D01*
X42311Y11820D01*
Y11687D01*
Y11820D01*
X42444Y11954D01*
X42577D01*
X42710Y11820D01*
Y11554D01*
X42577Y11420D01*
X41911Y12753D02*
Y12220D01*
X42311D01*
X42177Y12487D01*
Y12620D01*
X42311Y12753D01*
X42577D01*
X42710Y12620D01*
Y12354D01*
X42577Y12220D01*
X35525Y13425D02*
X34725D01*
Y13025D01*
X34858Y12892D01*
X35391D01*
X35525Y13025D01*
Y13425D01*
Y12626D02*
X34725D01*
Y12226D01*
X34858Y12092D01*
X35391D01*
X35525Y12226D01*
Y12626D01*
X35391Y11826D02*
X35525Y11693D01*
Y11426D01*
X35391Y11293D01*
X35258D01*
X35125Y11426D01*
Y11559D01*
Y11426D01*
X34992Y11293D01*
X34858D01*
X34725Y11426D01*
Y11693D01*
X34858Y11826D01*
X35423Y895D02*
Y1694D01*
X35823D01*
X35956Y1561D01*
Y1294D01*
X35823Y1161D01*
X35423D01*
X35690D02*
X35956Y895D01*
X36623D02*
Y1694D01*
X36223Y1294D01*
X36756D01*
X37023Y1561D02*
X37156Y1694D01*
X37423D01*
X37556Y1561D01*
Y1028D01*
X37423Y895D01*
X37156D01*
X37023Y1028D01*
Y1561D01*
X20658Y7829D02*
X20524Y7696D01*
Y7429D01*
X20658Y7296D01*
X21191D01*
X21324Y7429D01*
Y7696D01*
X21191Y7829D01*
X21324Y8095D02*
Y8362D01*
Y8229D01*
X20524D01*
X20658Y8095D01*
Y8762D02*
X20524Y8895D01*
Y9162D01*
X20658Y9295D01*
X20791D01*
X20924Y9162D01*
X21057Y9295D01*
X21191D01*
X21324Y9162D01*
Y8895D01*
X21191Y8762D01*
X21057D01*
X20924Y8895D01*
X20791Y8762D01*
X20658D01*
X20924Y8895D02*
Y9162D01*
X27033Y7149D02*
X26899Y7016D01*
Y6749D01*
X27033Y6616D01*
X27566D01*
X27699Y6749D01*
Y7016D01*
X27566Y7149D01*
X27033Y7416D02*
X26899Y7549D01*
Y7816D01*
X27033Y7949D01*
X27166D01*
X27299Y7816D01*
Y7682D01*
Y7816D01*
X27432Y7949D01*
X27566D01*
X27699Y7816D01*
Y7549D01*
X27566Y7416D01*
X27033Y8215D02*
X26899Y8349D01*
Y8615D01*
X27033Y8749D01*
X27166D01*
X27299Y8615D01*
Y8482D01*
Y8615D01*
X27432Y8749D01*
X27566D01*
X27699Y8615D01*
Y8349D01*
X27566Y8215D01*
X22816Y7159D02*
X22683Y7026D01*
Y6759D01*
X22816Y6626D01*
X23349D01*
X23483Y6759D01*
Y7026D01*
X23349Y7159D01*
X23483Y7959D02*
Y7426D01*
X22949Y7959D01*
X22816D01*
X22683Y7826D01*
Y7559D01*
X22816Y7426D01*
X23483Y8225D02*
Y8492D01*
Y8359D01*
X22683D01*
X22816Y8225D01*
X35525Y43425D02*
X34725D01*
Y43025D01*
X34858Y42892D01*
X35391D01*
X35525Y43025D01*
Y43425D01*
Y42625D02*
X34725D01*
Y42225D01*
X34858Y42092D01*
X35391D01*
X35525Y42225D01*
Y42625D01*
X34725Y41826D02*
Y41559D01*
Y41692D01*
X35525D01*
X35391Y41826D01*
X45886Y9929D02*
X45352D01*
X45219Y9796D01*
Y9529D01*
X45352Y9396D01*
X45886D01*
X46019Y9529D01*
Y9796D01*
X45752Y9662D02*
X46019Y9929D01*
Y9796D02*
X45886Y9929D01*
X46019Y10196D02*
Y10462D01*
Y10329D01*
X45219D01*
X45352Y10196D01*
X41728Y17220D02*
X41611Y17104D01*
Y16870D01*
X41728Y16754D01*
X42194D01*
X42311Y16870D01*
Y17104D01*
X42194Y17220D01*
X41728Y17454D02*
X41611Y17570D01*
Y17803D01*
X41728Y17920D01*
X41844D01*
X41961Y17803D01*
Y17687D01*
Y17803D01*
X42078Y17920D01*
X42194D01*
X42311Y17803D01*
Y17570D01*
X42194Y17454D01*
X41728Y18153D02*
X41611Y18270D01*
Y18503D01*
X41728Y18620D01*
X41844D01*
X41961Y18503D01*
X42078Y18620D01*
X42194D01*
X42311Y18503D01*
Y18270D01*
X42194Y18153D01*
X42078D01*
X41961Y18270D01*
X41844Y18153D01*
X41728D01*
X41961Y18270D02*
Y18503D01*
X41658Y32156D02*
X41541Y32039D01*
Y31806D01*
X41658Y31689D01*
X42124D01*
X42241Y31806D01*
Y32039D01*
X42124Y32156D01*
X41658Y32389D02*
X41541Y32505D01*
Y32739D01*
X41658Y32855D01*
X41774D01*
X41891Y32739D01*
Y32622D01*
Y32739D01*
X42007Y32855D01*
X42124D01*
X42241Y32739D01*
Y32505D01*
X42124Y32389D01*
X41541Y33089D02*
Y33555D01*
X41658D01*
X42124Y33089D01*
X42241D01*
X41658Y47194D02*
X41541Y47078D01*
Y46844D01*
X41658Y46728D01*
X42124D01*
X42241Y46844D01*
Y47078D01*
X42124Y47194D01*
X41658Y47428D02*
X41541Y47544D01*
Y47777D01*
X41658Y47894D01*
X41774D01*
X41891Y47777D01*
Y47661D01*
Y47777D01*
X42007Y47894D01*
X42124D01*
X42241Y47777D01*
Y47544D01*
X42124Y47428D01*
X41541Y48594D02*
X41658Y48361D01*
X41891Y48127D01*
X42124D01*
X42241Y48244D01*
Y48477D01*
X42124Y48594D01*
X42007D01*
X41891Y48477D01*
Y48127D01*
X27252Y37652D02*
X27119Y37519D01*
Y37252D01*
X27252Y37119D01*
X27785D01*
X27918Y37252D01*
Y37519D01*
X27785Y37652D01*
X27918Y38452D02*
Y37919D01*
X27385Y38452D01*
X27252D01*
X27119Y38319D01*
Y38052D01*
X27252Y37919D01*
X27785Y38718D02*
X27918Y38852D01*
Y39118D01*
X27785Y39252D01*
X27252D01*
X27119Y39118D01*
Y38852D01*
X27252Y38718D01*
X27385D01*
X27518Y38852D01*
Y39252D01*
X20928Y38655D02*
X20794Y38521D01*
Y38255D01*
X20928Y38122D01*
X21461D01*
X21594Y38255D01*
Y38521D01*
X21461Y38655D01*
X21594Y38921D02*
Y39188D01*
Y39055D01*
X20794D01*
X20928Y38921D01*
X20794Y40121D02*
X20928Y39854D01*
X21194Y39588D01*
X21461D01*
X21594Y39721D01*
Y39988D01*
X21461Y40121D01*
X21328D01*
X21194Y39988D01*
Y39588D01*
X23061Y37678D02*
X22928Y37544D01*
Y37278D01*
X23061Y37144D01*
X23594D01*
X23727Y37278D01*
Y37544D01*
X23594Y37678D01*
X23727Y37944D02*
Y38211D01*
Y38077D01*
X22928D01*
X23061Y37944D01*
X23594Y38611D02*
X23727Y38744D01*
Y39010D01*
X23594Y39144D01*
X23061D01*
X22928Y39010D01*
Y38744D01*
X23061Y38611D01*
X23194D01*
X23327Y38744D01*
Y39144D01*
X26074Y33296D02*
X25941Y33162D01*
Y32896D01*
X26074Y32763D01*
X26607D01*
X26741Y32896D01*
Y33162D01*
X26607Y33296D01*
X26741Y34095D02*
Y33562D01*
X26208Y34095D01*
X26074D01*
X25941Y33962D01*
Y33696D01*
X26074Y33562D01*
X26741Y34895D02*
Y34362D01*
X26208Y34895D01*
X26074D01*
X25941Y34762D01*
Y34495D01*
X26074Y34362D01*
X27993Y32398D02*
X27860Y32265D01*
Y31998D01*
X27993Y31865D01*
X28526D01*
X28659Y31998D01*
Y32265D01*
X28526Y32398D01*
X27993Y32665D02*
X27860Y32798D01*
Y33065D01*
X27993Y33198D01*
X28126D01*
X28260Y33065D01*
Y32931D01*
Y33065D01*
X28393Y33198D01*
X28526D01*
X28659Y33065D01*
Y32798D01*
X28526Y32665D01*
X27993Y33464D02*
X27860Y33598D01*
Y33864D01*
X27993Y33998D01*
X28526D01*
X28659Y33864D01*
Y33598D01*
X28526Y33464D01*
X27993D01*
X25781Y46336D02*
X25648Y46203D01*
Y45936D01*
X25781Y45803D01*
X26314D01*
X26447Y45936D01*
Y46203D01*
X26314Y46336D01*
X26447Y47136D02*
Y46602D01*
X25914Y47136D01*
X25781D01*
X25648Y47002D01*
Y46736D01*
X25781Y46602D01*
X26447Y47802D02*
X25648D01*
X26048Y47402D01*
Y47935D01*
X27878Y47261D02*
X27744Y47128D01*
Y46861D01*
X27878Y46728D01*
X28411D01*
X28544Y46861D01*
Y47128D01*
X28411Y47261D01*
X28544Y48061D02*
Y47527D01*
X28011Y48061D01*
X27878D01*
X27744Y47927D01*
Y47661D01*
X27878Y47527D01*
Y48327D02*
X27744Y48460D01*
Y48727D01*
X27878Y48860D01*
X28011D01*
X28144Y48727D01*
X28277Y48860D01*
X28411D01*
X28544Y48727D01*
Y48460D01*
X28411Y48327D01*
X28277D01*
X28144Y48460D01*
X28011Y48327D01*
X27878D01*
X28144Y48460D02*
Y48727D01*
X26058Y16194D02*
X25925Y16061D01*
Y15794D01*
X26058Y15661D01*
X26591D01*
X26725Y15794D01*
Y16061D01*
X26591Y16194D01*
X26725Y16994D02*
Y16461D01*
X26191Y16994D01*
X26058D01*
X25925Y16861D01*
Y16594D01*
X26058Y16461D01*
Y17261D02*
X25925Y17394D01*
Y17661D01*
X26058Y17794D01*
X26191D01*
X26325Y17661D01*
Y17527D01*
Y17661D01*
X26458Y17794D01*
X26591D01*
X26725Y17661D01*
Y17394D01*
X26591Y17261D01*
X27951Y17033D02*
X27818Y16900D01*
Y16633D01*
X27951Y16500D01*
X28484D01*
X28617Y16633D01*
Y16900D01*
X28484Y17033D01*
X27951Y17300D02*
X27818Y17433D01*
Y17699D01*
X27951Y17833D01*
X28084D01*
X28218Y17699D01*
Y17566D01*
Y17699D01*
X28351Y17833D01*
X28484D01*
X28617Y17699D01*
Y17433D01*
X28484Y17300D01*
X28617Y18632D02*
Y18099D01*
X28084Y18632D01*
X27951D01*
X27818Y18499D01*
Y18233D01*
X27951Y18099D01*
X60768Y26557D02*
X60901Y26424D01*
X61168D01*
X61301Y26557D01*
Y27090D01*
X61168Y27224D01*
X60901D01*
X60768Y27090D01*
X60501Y26557D02*
X60368Y26424D01*
X60101D01*
X59968Y26557D01*
Y26690D01*
X60101Y26824D01*
X59968Y26957D01*
Y27090D01*
X60101Y27224D01*
X60368D01*
X60501Y27090D01*
Y26957D01*
X60368Y26824D01*
X60501Y26690D01*
Y26557D01*
X60368Y26824D02*
X60101D01*
X15705Y14321D02*
X15838Y14188D01*
X16105D01*
X16238Y14321D01*
Y14854D01*
X16105Y14988D01*
X15838D01*
X15705Y14854D01*
X15438Y14988D02*
X15172D01*
X15305D01*
Y14188D01*
X15438Y14321D01*
X14239Y14188D02*
X14772D01*
Y14588D01*
X14505Y14455D01*
X14372D01*
X14239Y14588D01*
Y14854D01*
X14372Y14988D01*
X14639D01*
X14772Y14854D01*
X15603Y7946D02*
X15737Y7813D01*
X16003D01*
X16136Y7946D01*
Y8479D01*
X16003Y8612D01*
X15737D01*
X15603Y8479D01*
X15337Y8612D02*
X15070D01*
X15203D01*
Y7813D01*
X15337Y7946D01*
X14270Y8612D02*
Y7813D01*
X14670Y8212D01*
X14137D01*
X82128Y32398D02*
X82262Y32532D01*
Y32798D01*
X82128Y32932D01*
X81595D01*
X81462Y32798D01*
Y32532D01*
X81595Y32398D01*
X81462Y32132D02*
Y31865D01*
Y31999D01*
X82262D01*
X82128Y32132D01*
Y31465D02*
X82262Y31332D01*
Y31066D01*
X82128Y30932D01*
X81995D01*
X81862Y31066D01*
Y31199D01*
Y31066D01*
X81728Y30932D01*
X81595D01*
X81462Y31066D01*
Y31332D01*
X81595Y31465D01*
X81437Y28077D02*
X82237D01*
Y27677D01*
X82103Y27544D01*
X81837D01*
X81703Y27677D01*
Y28077D01*
Y27810D02*
X81437Y27544D01*
X82103Y27277D02*
X82237Y27144D01*
Y26877D01*
X82103Y26744D01*
X81970D01*
X81837Y26877D01*
Y27010D01*
Y26877D01*
X81703Y26744D01*
X81570D01*
X81437Y26877D01*
Y27144D01*
X81570Y27277D01*
X82237Y26477D02*
Y25944D01*
X82103D01*
X81570Y26477D01*
X81437D01*
X85890Y30132D02*
Y30665D01*
X85624Y30932D01*
X85357Y30665D01*
Y30132D01*
X85091D02*
Y30932D01*
X84691D01*
X84558Y30798D01*
Y30265D01*
X84691Y30132D01*
X85091D01*
X83758Y30932D02*
X84291D01*
X83758Y30398D01*
Y30265D01*
X83891Y30132D01*
X84158D01*
X84291Y30265D01*
X82958Y30132D02*
X83491D01*
Y30532D01*
X83225Y30398D01*
X83091D01*
X82958Y30532D01*
Y30798D01*
X83091Y30932D01*
X83358D01*
X83491Y30798D01*
X84026Y29261D02*
Y28728D01*
X84293Y28461D01*
X84560Y28728D01*
Y29261D01*
X84826D02*
Y28461D01*
X85226D01*
X85359Y28594D01*
Y29128D01*
X85226Y29261D01*
X84826D01*
X86159Y28461D02*
X85626D01*
X86159Y28994D01*
Y29128D01*
X86026Y29261D01*
X85759D01*
X85626Y29128D01*
X86426D02*
X86559Y29261D01*
X86826D01*
X86959Y29128D01*
Y28994D01*
X86826Y28861D01*
X86959Y28728D01*
Y28594D01*
X86826Y28461D01*
X86559D01*
X86426Y28594D01*
Y28728D01*
X86559Y28861D01*
X86426Y28994D01*
Y29128D01*
X86559Y28861D02*
X86826D01*
X14213Y36263D02*
X15012D01*
Y35863D01*
X14879Y35729D01*
X14612D01*
X14479Y35863D01*
Y36263D01*
Y35996D02*
X14213Y35729D01*
X14879Y35463D02*
X15012Y35330D01*
Y35063D01*
X14879Y34930D01*
X14746D01*
X14612Y35063D01*
Y35196D01*
Y35063D01*
X14479Y34930D01*
X14346D01*
X14213Y35063D01*
Y35330D01*
X14346Y35463D01*
X15012Y34130D02*
Y34663D01*
X14612D01*
X14746Y34397D01*
Y34263D01*
X14612Y34130D01*
X14346D01*
X14213Y34263D01*
Y34530D01*
X14346Y34663D01*
X35525Y28425D02*
X34725D01*
Y28025D01*
X34858Y27892D01*
X35391D01*
X35525Y28025D01*
Y28425D01*
Y27625D02*
X34725D01*
Y27225D01*
X34858Y27092D01*
X35391D01*
X35525Y27225D01*
Y27625D01*
X34725Y26292D02*
Y26826D01*
X35258Y26292D01*
X35391D01*
X35525Y26426D01*
Y26692D01*
X35391Y26826D01*
X58766Y31664D02*
Y31131D01*
X59032Y30864D01*
X59299Y31131D01*
Y31664D01*
X59566D02*
Y30864D01*
X59965D01*
X60099Y30997D01*
Y31530D01*
X59965Y31664D01*
X59566D01*
X60365Y30864D02*
X60632D01*
X60499D01*
Y31664D01*
X60365Y31530D01*
X61032Y30997D02*
X61165Y30864D01*
X61432D01*
X61565Y30997D01*
Y31530D01*
X61432Y31664D01*
X61165D01*
X61032Y31530D01*
Y31397D01*
X61165Y31264D01*
X61565D01*
X62415Y31663D02*
Y31130D01*
X62681Y30863D01*
X62948Y31130D01*
Y31663D01*
X63214D02*
Y30863D01*
X63614D01*
X63748Y30997D01*
Y31530D01*
X63614Y31663D01*
X63214D01*
X64547Y30863D02*
X64014D01*
X64547Y31396D01*
Y31530D01*
X64414Y31663D01*
X64147D01*
X64014Y31530D01*
X64814D02*
X64947Y31663D01*
X65214D01*
X65347Y31530D01*
Y30997D01*
X65214Y30863D01*
X64947D01*
X64814Y30997D01*
Y31530D01*
X64365Y32567D02*
Y33100D01*
X64098Y33367D01*
X63831Y33100D01*
Y32567D01*
X63565D02*
Y33367D01*
X63165D01*
X63032Y33233D01*
Y32700D01*
X63165Y32567D01*
X63565D01*
X62765Y32700D02*
X62632Y32567D01*
X62365D01*
X62232Y32700D01*
Y32834D01*
X62365Y32967D01*
X62232Y33100D01*
Y33233D01*
X62365Y33367D01*
X62632D01*
X62765Y33233D01*
Y33100D01*
X62632Y32967D01*
X62765Y32834D01*
Y32700D01*
X62632Y32967D02*
X62365D01*
X64435Y28888D02*
X65235D01*
Y28488D01*
X65101Y28355D01*
X64835D01*
X64702Y28488D01*
Y28888D01*
Y28621D02*
X64435Y28355D01*
Y27555D02*
Y28088D01*
X64968Y27555D01*
X65101D01*
X65235Y27688D01*
Y27955D01*
X65101Y28088D01*
X64435Y26889D02*
X65235D01*
X64835Y27289D01*
Y26755D01*
X66882Y27600D02*
X66749Y27467D01*
Y27200D01*
X66882Y27067D01*
X67415D01*
X67548Y27200D01*
Y27467D01*
X67415Y27600D01*
X66749Y28400D02*
X66882Y28133D01*
X67149Y27867D01*
X67415D01*
X67548Y28000D01*
Y28266D01*
X67415Y28400D01*
X67282D01*
X67149Y28266D01*
Y27867D01*
X67533Y23420D02*
X67667Y23553D01*
Y23820D01*
X67533Y23953D01*
X67000D01*
X66867Y23820D01*
Y23553D01*
X67000Y23420D01*
X67667Y22620D02*
Y23153D01*
X67267D01*
X67400Y22887D01*
Y22753D01*
X67267Y22620D01*
X67000D01*
X66867Y22753D01*
Y23020D01*
X67000Y23153D01*
X65103Y22155D02*
X64304D01*
Y22555D01*
X64437Y22688D01*
X64704D01*
X64837Y22555D01*
Y22155D01*
Y22421D02*
X65103Y22688D01*
Y23488D02*
Y22955D01*
X64570Y23488D01*
X64437D01*
X64304Y23354D01*
Y23088D01*
X64437Y22955D01*
Y23754D02*
X64304Y23888D01*
Y24154D01*
X64437Y24287D01*
X64570D01*
X64704Y24154D01*
Y24021D01*
Y24154D01*
X64837Y24287D01*
X64970D01*
X65103Y24154D01*
Y23888D01*
X64970Y23754D01*
X77028Y14382D02*
Y15182D01*
X77428D01*
X77562Y15048D01*
Y14782D01*
X77428Y14649D01*
X77028D01*
X77295D02*
X77562Y14382D01*
X77828D02*
X78095D01*
X77961D01*
Y15182D01*
X77828Y15048D01*
X78495Y15182D02*
X79028D01*
Y15048D01*
X78495Y14515D01*
Y14382D01*
X81946Y15646D02*
X81146D01*
Y16046D01*
X81280Y16180D01*
X81546D01*
X81679Y16046D01*
Y15646D01*
Y15913D02*
X81946Y16180D01*
Y16446D02*
Y16713D01*
Y16579D01*
X81146D01*
X81280Y16446D01*
X81946Y17113D02*
Y17379D01*
Y17246D01*
X81146D01*
X81280Y17113D01*
X81971Y20414D02*
X81172D01*
Y20814D01*
X81305Y20947D01*
X81572D01*
X81705Y20814D01*
Y20414D01*
Y20680D02*
X81971Y20947D01*
X81172Y21747D02*
Y21214D01*
X81572D01*
X81438Y21480D01*
Y21613D01*
X81572Y21747D01*
X81838D01*
X81971Y21613D01*
Y21347D01*
X81838Y21214D01*
X42677Y9218D02*
X42810Y9351D01*
Y9618D01*
X42677Y9751D01*
X42144D01*
X42010Y9618D01*
Y9351D01*
X42144Y9218D01*
X42677Y8951D02*
X42810Y8818D01*
Y8551D01*
X42677Y8418D01*
X42544D01*
X42410Y8551D01*
Y8684D01*
Y8551D01*
X42277Y8418D01*
X42144D01*
X42010Y8551D01*
Y8818D01*
X42144Y8951D01*
X42010Y7751D02*
X42810D01*
X42410Y8151D01*
Y7618D01*
%TF.MD5,b445c5f96f772b6ede3a99018b77e0dd*%
M02*
