%TF.GenerationSoftware,Altium Limited,Altium Designer,21.6.4 (81)*%
G04 Layer_Color=32896*
%FSLAX43Y43*%
%MOMM*%
%TF.SameCoordinates,C39744A4-4465-455E-AB15-BAA165A4C254*%
%TF.FilePolarity,Positive*%
%TF.FileFunction,Legend,Bot*%
%TF.Part,Single*%
G01*
G75*
%TA.AperFunction,NonConductor*%
%ADD26C,0.254*%
%ADD31C,1.000*%
%ADD32C,0.200*%
D26*
X22987Y18789D02*
X22453Y17990D01*
Y18789D02*
X22987Y17990D01*
X21787D02*
Y18789D01*
X22187Y18390D01*
X21654D01*
X52621Y44199D02*
Y43399D01*
X52221D01*
X52088Y43532D01*
Y44065D01*
X52221Y44199D01*
X52621D01*
X51821D02*
Y43399D01*
X51422D01*
X51288Y43532D01*
Y44065D01*
X51422Y44199D01*
X51821D01*
X50622Y43399D02*
Y44199D01*
X51022Y43799D01*
X50489D01*
X75190Y18256D02*
X74657Y17456D01*
Y18256D02*
X75190Y17456D01*
X73857Y18256D02*
X74390D01*
Y17856D01*
X74124Y17989D01*
X73990D01*
X73857Y17856D01*
Y17590D01*
X73990Y17456D01*
X74257D01*
X74390Y17590D01*
X46640Y31743D02*
X46107Y30944D01*
Y31743D02*
X46640Y30944D01*
X45841Y31610D02*
X45707Y31743D01*
X45441D01*
X45308Y31610D01*
Y31477D01*
X45441Y31344D01*
X45574D01*
X45441D01*
X45308Y31210D01*
Y31077D01*
X45441Y30944D01*
X45707D01*
X45841Y31077D01*
X9417Y9898D02*
X8884D01*
X8617Y10164D01*
X8884Y10431D01*
X9417D01*
Y10697D02*
X8617D01*
Y11097D01*
X8750Y11230D01*
X9284D01*
X9417Y11097D01*
Y10697D01*
X8617Y12030D02*
Y11497D01*
X9150Y12030D01*
X9284D01*
X9417Y11897D01*
Y11630D01*
X9284Y11497D01*
X8617Y12697D02*
X9417D01*
X9017Y12297D01*
Y12830D01*
X11347Y1226D02*
X10814D01*
X10548Y1493D01*
X10814Y1759D01*
X11347D01*
Y2026D02*
X10548D01*
Y2426D01*
X10681Y2559D01*
X11214D01*
X11347Y2426D01*
Y2026D01*
X10548Y3359D02*
Y2826D01*
X11081Y3359D01*
X11214D01*
X11347Y3226D01*
Y2959D01*
X11214Y2826D01*
Y3625D02*
X11347Y3759D01*
Y4025D01*
X11214Y4159D01*
X11081D01*
X10947Y4025D01*
Y3892D01*
Y4025D01*
X10814Y4159D01*
X10681D01*
X10548Y4025D01*
Y3759D01*
X10681Y3625D01*
X19450Y2471D02*
X18917D01*
X18650Y2737D01*
X18917Y3004D01*
X19450D01*
Y3271D02*
X18650D01*
Y3670D01*
X18783Y3804D01*
X19317D01*
X19450Y3670D01*
Y3271D01*
X18650Y4603D02*
Y4070D01*
X19183Y4603D01*
X19317D01*
X19450Y4470D01*
Y4204D01*
X19317Y4070D01*
X18650Y5403D02*
Y4870D01*
X19183Y5403D01*
X19317D01*
X19450Y5270D01*
Y5003D01*
X19317Y4870D01*
X24370Y6082D02*
X23837D01*
X23570Y6349D01*
X23837Y6615D01*
X24370D01*
Y6882D02*
X23570D01*
Y7282D01*
X23703Y7415D01*
X24236D01*
X24370Y7282D01*
Y6882D01*
X23570Y8215D02*
Y7682D01*
X24103Y8215D01*
X24236D01*
X24370Y8082D01*
Y7815D01*
X24236Y7682D01*
X23570Y8481D02*
Y8748D01*
Y8615D01*
X24370D01*
X24236Y8481D01*
X26260Y40884D02*
X25727D01*
X25461Y41150D01*
X25727Y41417D01*
X26260D01*
Y41684D02*
X25461D01*
Y42083D01*
X25594Y42217D01*
X26127D01*
X26260Y42083D01*
Y41684D01*
X25461Y42483D02*
Y42750D01*
Y42617D01*
X26260D01*
X26127Y42483D01*
X26260Y43683D02*
X26127Y43416D01*
X25860Y43150D01*
X25594D01*
X25461Y43283D01*
Y43550D01*
X25594Y43683D01*
X25727D01*
X25860Y43550D01*
Y43150D01*
X26129Y44782D02*
X25596D01*
X25329Y45049D01*
X25596Y45315D01*
X26129D01*
Y45582D02*
X25329D01*
Y45982D01*
X25462Y46115D01*
X25996D01*
X26129Y45982D01*
Y45582D01*
X25329Y46382D02*
Y46648D01*
Y46515D01*
X26129D01*
X25996Y46382D01*
X26129Y47581D02*
Y47048D01*
X25729D01*
X25862Y47315D01*
Y47448D01*
X25729Y47581D01*
X25462D01*
X25329Y47448D01*
Y47181D01*
X25462Y47048D01*
X12643Y44930D02*
X12110D01*
X11843Y45197D01*
X12110Y45463D01*
X12643D01*
Y45730D02*
X11843D01*
Y46130D01*
X11976Y46263D01*
X12509D01*
X12643Y46130D01*
Y45730D01*
X11843Y46530D02*
Y46796D01*
Y46663D01*
X12643D01*
X12509Y46530D01*
X11843Y47596D02*
X12643D01*
X12243Y47196D01*
Y47729D01*
X7512Y41069D02*
X6979D01*
X6712Y41336D01*
X6979Y41602D01*
X7512D01*
Y41869D02*
X6712D01*
Y42269D01*
X6845Y42402D01*
X7379D01*
X7512Y42269D01*
Y41869D01*
X6712Y42669D02*
Y42935D01*
Y42802D01*
X7512D01*
X7379Y42669D01*
Y43335D02*
X7512Y43468D01*
Y43735D01*
X7379Y43868D01*
X7245D01*
X7112Y43735D01*
Y43602D01*
Y43735D01*
X6979Y43868D01*
X6845D01*
X6712Y43735D01*
Y43468D01*
X6845Y43335D01*
X6013Y6364D02*
X5480D01*
X5214Y6630D01*
X5480Y6897D01*
X6013D01*
Y7163D02*
X5214D01*
Y7563D01*
X5347Y7697D01*
X5880D01*
X6013Y7563D01*
Y7163D01*
X5214Y7963D02*
Y8230D01*
Y8096D01*
X6013D01*
X5880Y7963D01*
X5214Y9163D02*
Y8630D01*
X5747Y9163D01*
X5880D01*
X6013Y9030D01*
Y8763D01*
X5880Y8630D01*
X8581Y1746D02*
Y1213D01*
X8315Y946D01*
X8048Y1213D01*
Y1746D01*
X7782D02*
Y946D01*
X7382D01*
X7249Y1080D01*
Y1613D01*
X7382Y1746D01*
X7782D01*
X6982Y946D02*
X6715D01*
X6849D01*
Y1746D01*
X6982Y1613D01*
X6316Y946D02*
X6049D01*
X6182D01*
Y1746D01*
X6316Y1613D01*
X24370Y2377D02*
X23837D01*
X23570Y2644D01*
X23837Y2910D01*
X24370D01*
Y3177D02*
X23570D01*
Y3577D01*
X23703Y3710D01*
X24236D01*
X24370Y3577D01*
Y3177D01*
X23570Y3977D02*
Y4243D01*
Y4110D01*
X24370D01*
X24236Y3977D01*
Y4643D02*
X24370Y4777D01*
Y5043D01*
X24236Y5176D01*
X23703D01*
X23570Y5043D01*
Y4777D01*
X23703Y4643D01*
X24236D01*
X25681Y6214D02*
X25148D01*
X24881Y6481D01*
X25148Y6747D01*
X25681D01*
Y7014D02*
X24881D01*
Y7414D01*
X25015Y7547D01*
X25548D01*
X25681Y7414D01*
Y7014D01*
X25015Y7814D02*
X24881Y7947D01*
Y8214D01*
X25015Y8347D01*
X25548D01*
X25681Y8214D01*
Y7947D01*
X25548Y7814D01*
X25414D01*
X25281Y7947D01*
Y8347D01*
X27680Y41369D02*
X27147D01*
X26880Y41636D01*
X27147Y41903D01*
X27680D01*
Y42169D02*
X26880D01*
Y42569D01*
X27013Y42702D01*
X27547D01*
X27680Y42569D01*
Y42169D01*
X26880Y43369D02*
X27680D01*
X27280Y42969D01*
Y43502D01*
X27503Y45201D02*
X26970D01*
X26703Y45468D01*
X26970Y45734D01*
X27503D01*
Y46001D02*
X26703D01*
Y46401D01*
X26836Y46534D01*
X27370D01*
X27503Y46401D01*
Y46001D01*
X27370Y46801D02*
X27503Y46934D01*
Y47201D01*
X27370Y47334D01*
X27236D01*
X27103Y47201D01*
Y47067D01*
Y47201D01*
X26970Y47334D01*
X26836D01*
X26703Y47201D01*
Y46934D01*
X26836Y46801D01*
X7334Y45162D02*
X6801D01*
X6534Y45428D01*
X6801Y45695D01*
X7334D01*
Y45961D02*
X6534D01*
Y46361D01*
X6668Y46495D01*
X7201D01*
X7334Y46361D01*
Y45961D01*
X6534Y47294D02*
Y46761D01*
X7067Y47294D01*
X7201D01*
X7334Y47161D01*
Y46894D01*
X7201Y46761D01*
X5962Y41567D02*
X5429D01*
X5163Y41834D01*
X5429Y42100D01*
X5962D01*
Y42367D02*
X5163D01*
Y42767D01*
X5296Y42900D01*
X5829D01*
X5962Y42767D01*
Y42367D01*
X5163Y43166D02*
Y43433D01*
Y43300D01*
X5962D01*
X5829Y43166D01*
X13313Y30762D02*
Y31562D01*
X12913D01*
X12780Y31428D01*
Y31162D01*
X12913Y31029D01*
X13313D01*
X13046D02*
X12780Y30762D01*
X12513Y30895D02*
X12380Y30762D01*
X12113D01*
X11980Y30895D01*
Y31428D01*
X12113Y31562D01*
X12380D01*
X12513Y31428D01*
Y31295D01*
X12380Y31162D01*
X11980D01*
X75350Y40580D02*
X76150D01*
Y40980D01*
X76017Y41113D01*
X75750D01*
X75617Y40980D01*
Y40580D01*
Y40847D02*
X75350Y41113D01*
Y41380D02*
Y41646D01*
Y41513D01*
X76150D01*
X76017Y41380D01*
Y42046D02*
X76150Y42180D01*
Y42446D01*
X76017Y42579D01*
X75883D01*
X75750Y42446D01*
X75617Y42579D01*
X75483D01*
X75350Y42446D01*
Y42180D01*
X75483Y42046D01*
X75617D01*
X75750Y42180D01*
X75883Y42046D01*
X76017D01*
X75750Y42180D02*
Y42446D01*
X18786Y36227D02*
Y37026D01*
X18386D01*
X18253Y36893D01*
Y36627D01*
X18386Y36493D01*
X18786D01*
X18520D02*
X18253Y36227D01*
X17453D02*
X17986D01*
X17453Y36760D01*
Y36893D01*
X17587Y37026D01*
X17853D01*
X17986Y36893D01*
X16653Y36227D02*
X17187D01*
X16653Y36760D01*
Y36893D01*
X16787Y37026D01*
X17053D01*
X17187Y36893D01*
X15009Y36158D02*
Y36957D01*
X14609D01*
X14476Y36824D01*
Y36558D01*
X14609Y36424D01*
X15009D01*
X14743D02*
X14476Y36158D01*
X13676D02*
X14209D01*
X13676Y36691D01*
Y36824D01*
X13810Y36957D01*
X14076D01*
X14209Y36824D01*
X13410Y36158D02*
X13143D01*
X13276D01*
Y36957D01*
X13410Y36824D01*
X19108Y13129D02*
Y13929D01*
X18708D01*
X18575Y13796D01*
Y13529D01*
X18708Y13396D01*
X19108D01*
X18841D02*
X18575Y13129D01*
X18308D02*
X18042D01*
X18175D01*
Y13929D01*
X18308Y13796D01*
X17642Y13262D02*
X17508Y13129D01*
X17242D01*
X17109Y13262D01*
Y13796D01*
X17242Y13929D01*
X17508D01*
X17642Y13796D01*
Y13662D01*
X17508Y13529D01*
X17109D01*
X79051Y21940D02*
X79851D01*
Y22339D01*
X79718Y22473D01*
X79451D01*
X79318Y22339D01*
Y21940D01*
Y22206D02*
X79051Y22473D01*
X79718Y22739D02*
X79851Y22873D01*
Y23139D01*
X79718Y23272D01*
X79584D01*
X79451Y23139D01*
X79318Y23272D01*
X79185D01*
X79051Y23139D01*
Y22873D01*
X79185Y22739D01*
X79318D01*
X79451Y22873D01*
X79584Y22739D01*
X79718D01*
X79451Y22873D02*
Y23139D01*
X75292Y32975D02*
X76092D01*
Y33375D01*
X75959Y33508D01*
X75692D01*
X75559Y33375D01*
Y32975D01*
Y33242D02*
X75292Y33508D01*
X76092Y34308D02*
X75959Y34041D01*
X75692Y33775D01*
X75425D01*
X75292Y33908D01*
Y34175D01*
X75425Y34308D01*
X75559D01*
X75692Y34175D01*
Y33775D01*
X19576Y18803D02*
Y19602D01*
X19176D01*
X19043Y19469D01*
Y19202D01*
X19176Y19069D01*
X19576D01*
X19310D02*
X19043Y18803D01*
X18777Y19602D02*
X18243D01*
Y19469D01*
X18777Y18936D01*
Y18803D01*
X7989Y35595D02*
X8789D01*
Y35995D01*
X8656Y36128D01*
X8389D01*
X8256Y35995D01*
Y35595D01*
Y35862D02*
X7989Y36128D01*
Y36395D02*
Y36661D01*
Y36528D01*
X8789D01*
X8656Y36395D01*
X8789Y37594D02*
Y37061D01*
X8389D01*
X8522Y37328D01*
Y37461D01*
X8389Y37594D01*
X8123D01*
X7989Y37461D01*
Y37194D01*
X8123Y37061D01*
X17837Y28950D02*
X18637D01*
Y29350D01*
X18504Y29483D01*
X18237D01*
X18104Y29350D01*
Y28950D01*
Y29217D02*
X17837Y29483D01*
X18504Y29750D02*
X18637Y29883D01*
Y30150D01*
X18504Y30283D01*
X18370D01*
X18237Y30150D01*
Y30016D01*
Y30150D01*
X18104Y30283D01*
X17971D01*
X17837Y30150D01*
Y29883D01*
X17971Y29750D01*
X78848Y26482D02*
X79648D01*
Y26882D01*
X79515Y27015D01*
X79248D01*
X79115Y26882D01*
Y26482D01*
Y26749D02*
X78848Y27015D01*
Y27815D02*
Y27282D01*
X79381Y27815D01*
X79515D01*
X79648Y27682D01*
Y27415D01*
X79515Y27282D01*
X79113Y31725D02*
X79912D01*
Y32125D01*
X79779Y32258D01*
X79512D01*
X79379Y32125D01*
Y31725D01*
Y31992D02*
X79113Y32258D01*
Y32925D02*
X79912D01*
X79512Y32525D01*
Y33058D01*
X22418Y12707D02*
X23217D01*
Y13107D01*
X23084Y13240D01*
X22817D01*
X22684Y13107D01*
Y12707D01*
Y12974D02*
X22418Y13240D01*
Y13507D02*
Y13773D01*
Y13640D01*
X23217D01*
X23084Y13507D01*
Y14173D02*
X23217Y14307D01*
Y14573D01*
X23084Y14707D01*
X22951D01*
X22817Y14573D01*
Y14440D01*
Y14573D01*
X22684Y14707D01*
X22551D01*
X22418Y14573D01*
Y14307D01*
X22551Y14173D01*
X14681Y21495D02*
Y22295D01*
X14281D01*
X14148Y22161D01*
Y21895D01*
X14281Y21762D01*
X14681D01*
X14414D02*
X14148Y21495D01*
X13881D02*
X13615D01*
X13748D01*
Y22295D01*
X13881Y22161D01*
X79113Y16932D02*
X79912D01*
Y17332D01*
X79779Y17465D01*
X79512D01*
X79379Y17332D01*
Y16932D01*
Y17198D02*
X79113Y17465D01*
Y17732D02*
Y17998D01*
Y17865D01*
X79912D01*
X79779Y17732D01*
X79113Y18798D02*
X79912D01*
X79512Y18398D01*
Y18931D01*
X12860Y13046D02*
Y13846D01*
X12460D01*
X12327Y13713D01*
Y13446D01*
X12460Y13313D01*
X12860D01*
X12593D02*
X12327Y13046D01*
X11527D02*
X12060D01*
X11527Y13580D01*
Y13713D01*
X11660Y13846D01*
X11927D01*
X12060Y13713D01*
X11260D02*
X11127Y13846D01*
X10861D01*
X10727Y13713D01*
Y13180D01*
X10861Y13046D01*
X11127D01*
X11260Y13180D01*
Y13713D01*
X18892Y44488D02*
X19691D01*
Y44888D01*
X19558Y45021D01*
X19292D01*
X19158Y44888D01*
Y44488D01*
Y44755D02*
X18892Y45021D01*
Y45821D02*
Y45288D01*
X19425Y45821D01*
X19558D01*
X19691Y45688D01*
Y45421D01*
X19558Y45288D01*
X19691Y46621D02*
Y46088D01*
X19292D01*
X19425Y46354D01*
Y46488D01*
X19292Y46621D01*
X19025D01*
X18892Y46488D01*
Y46221D01*
X19025Y46088D01*
X75368Y36161D02*
X76168D01*
Y36560D01*
X76035Y36694D01*
X75768D01*
X75635Y36560D01*
Y36161D01*
Y36427D02*
X75368Y36694D01*
Y36960D02*
Y37227D01*
Y37094D01*
X76168D01*
X76035Y36960D01*
X75368Y38160D02*
Y37627D01*
X75901Y38160D01*
X76035D01*
X76168Y38027D01*
Y37760D01*
X76035Y37627D01*
X79113Y35983D02*
X79912D01*
Y36383D01*
X79779Y36516D01*
X79512D01*
X79379Y36383D01*
Y35983D01*
Y36249D02*
X79113Y36516D01*
Y36782D02*
Y37049D01*
Y36916D01*
X79912D01*
X79779Y36782D01*
Y37449D02*
X79912Y37582D01*
Y37849D01*
X79779Y37982D01*
X79246D01*
X79113Y37849D01*
Y37582D01*
X79246Y37449D01*
X79779D01*
X17225Y1977D02*
Y2777D01*
X16825D01*
X16691Y2644D01*
Y2377D01*
X16825Y2244D01*
X17225D01*
X16958D02*
X16691Y1977D01*
X15892D02*
X16425D01*
X15892Y2511D01*
Y2644D01*
X16025Y2777D01*
X16291D01*
X16425Y2644D01*
X15625Y2777D02*
X15092D01*
Y2644D01*
X15625Y2111D01*
Y1977D01*
X79102Y40453D02*
X79902D01*
Y40853D01*
X79769Y40986D01*
X79502D01*
X79369Y40853D01*
Y40453D01*
Y40720D02*
X79102Y40986D01*
Y41253D02*
Y41519D01*
Y41386D01*
X79902D01*
X79769Y41253D01*
X79902Y42452D02*
X79769Y42186D01*
X79502Y41919D01*
X79235D01*
X79102Y42053D01*
Y42319D01*
X79235Y42452D01*
X79369D01*
X79502Y42319D01*
Y41919D01*
X19961Y43580D02*
X20095Y43713D01*
X20361D01*
X20494Y43580D01*
Y43047D01*
X20361Y42913D01*
X20095D01*
X19961Y43047D01*
X19295Y42913D02*
Y43713D01*
X19695Y43313D01*
X19162D01*
X15018Y48383D02*
X15151Y48250D01*
Y47983D01*
X15018Y47850D01*
X14485D01*
X14351Y47983D01*
Y48250D01*
X14485Y48383D01*
X15151Y48650D02*
Y49183D01*
X15018D01*
X14485Y48650D01*
X14351D01*
X29906Y26124D02*
X30039Y26257D01*
X30305D01*
X30439Y26124D01*
Y25591D01*
X30305Y25457D01*
X30039D01*
X29906Y25591D01*
X29106Y25457D02*
X29639D01*
X29106Y25990D01*
Y26124D01*
X29239Y26257D01*
X29506D01*
X29639Y26124D01*
X28839D02*
X28706Y26257D01*
X28439D01*
X28306Y26124D01*
Y25591D01*
X28439Y25457D01*
X28706D01*
X28839Y25591D01*
Y26124D01*
X30102Y24435D02*
X30236Y24569D01*
X30502D01*
X30635Y24435D01*
Y23902D01*
X30502Y23769D01*
X30236D01*
X30102Y23902D01*
X29836Y24435D02*
X29702Y24569D01*
X29436D01*
X29303Y24435D01*
Y24302D01*
X29436Y24169D01*
X29569D01*
X29436D01*
X29303Y24035D01*
Y23902D01*
X29436Y23769D01*
X29702D01*
X29836Y23902D01*
X29036Y23769D02*
X28769D01*
X28903D01*
Y24569D01*
X29036Y24435D01*
X12694Y43460D02*
X12828Y43593D01*
X13094D01*
X13227Y43460D01*
Y42927D01*
X13094Y42793D01*
X12828D01*
X12694Y42927D01*
X12428Y43460D02*
X12294Y43593D01*
X12028D01*
X11895Y43460D01*
Y43327D01*
X12028Y43193D01*
X12161D01*
X12028D01*
X11895Y43060D01*
Y42927D01*
X12028Y42793D01*
X12294D01*
X12428Y42927D01*
X28211Y28236D02*
X28344Y28369D01*
X28610D01*
X28744Y28236D01*
Y27703D01*
X28610Y27570D01*
X28344D01*
X28211Y27703D01*
X27944Y27570D02*
X27677D01*
X27811D01*
Y28369D01*
X27944Y28236D01*
X27277Y28369D02*
X26744D01*
Y28236D01*
X27277Y27703D01*
Y27570D01*
X13595Y15370D02*
X13729Y15503D01*
X13995D01*
X14128Y15370D01*
Y14836D01*
X13995Y14703D01*
X13729D01*
X13595Y14836D01*
X12796Y14703D02*
X13329D01*
X12796Y15236D01*
Y15370D01*
X12929Y15503D01*
X13195D01*
X13329Y15370D01*
X13595Y2349D02*
X13729Y2483D01*
X13995D01*
X14128Y2349D01*
Y1816D01*
X13995Y1683D01*
X13729D01*
X13595Y1816D01*
X13329D02*
X13195Y1683D01*
X12929D01*
X12796Y1816D01*
Y2349D01*
X12929Y2483D01*
X13195D01*
X13329Y2349D01*
Y2216D01*
X13195Y2083D01*
X12796D01*
X18169Y15218D02*
X18302Y15351D01*
X18569D01*
X18702Y15218D01*
Y14685D01*
X18569Y14552D01*
X18302D01*
X18169Y14685D01*
X17903Y14552D02*
X17636D01*
X17769D01*
Y15351D01*
X17903Y15218D01*
X28168Y22085D02*
X28301Y22218D01*
X28567D01*
X28701Y22085D01*
Y21552D01*
X28567Y21419D01*
X28301D01*
X28168Y21552D01*
X27368Y21419D02*
X27901D01*
X27368Y21952D01*
Y22085D01*
X27501Y22218D01*
X27768D01*
X27901Y22085D01*
X26568Y22218D02*
X26835Y22085D01*
X27101Y21819D01*
Y21552D01*
X26968Y21419D01*
X26701D01*
X26568Y21552D01*
Y21685D01*
X26701Y21819D01*
X27101D01*
D31*
X96200Y48000D02*
G03*
X96200Y48000I-2200J0D01*
G01*
Y35500D02*
G03*
X96200Y35500I-2200J0D01*
G01*
Y15500D02*
G03*
X96200Y15500I-2200J0D01*
G01*
Y3000D02*
G03*
X96200Y3000I-2200J0D01*
G01*
X5200D02*
G03*
X5200Y3000I-2200J0D01*
G01*
Y15500D02*
G03*
X5200Y15500I-2200J0D01*
G01*
Y35500D02*
G03*
X5200Y35500I-2200J0D01*
G01*
Y48000D02*
G03*
X5200Y48000I-2200J0D01*
G01*
D32*
X21250Y31830D02*
X23750D01*
X21250Y19170D02*
X23750D01*
X21250D02*
Y31830D01*
X23750Y19170D02*
Y31830D01*
X19708Y10295D02*
Y12695D01*
X14958Y10295D02*
X19708D01*
X14958D02*
Y12695D01*
X19708D01*
X75750Y19170D02*
Y31830D01*
X73250Y19170D02*
Y31830D01*
Y19170D02*
X75750D01*
X73250Y31830D02*
X75750D01*
X78664Y39345D02*
Y43917D01*
X76632Y39345D02*
X78664D01*
X76632Y43917D02*
X78664D01*
X76632Y39345D02*
Y43917D01*
X78664Y34772D02*
Y39344D01*
X76632Y34772D02*
X78664D01*
X76632Y39344D02*
X78664D01*
X76632Y34772D02*
Y39344D01*
X78664Y30023D02*
Y34595D01*
X76632Y30023D02*
X78664D01*
X76632Y34595D02*
X78664D01*
X76632Y30023D02*
Y34595D01*
X29184Y20860D02*
Y23260D01*
X33934D01*
Y20860D02*
Y23260D01*
X29184Y20860D02*
X33934D01*
X33909Y25131D02*
Y26481D01*
X31059Y25131D02*
Y26481D01*
Y25131D02*
X33909D01*
X31059Y26481D02*
X33909D01*
X29238Y26761D02*
X33988D01*
Y29161D01*
X29238D02*
X33988D01*
X29238Y26761D02*
Y29161D01*
X33936Y23494D02*
Y24844D01*
X31086Y23494D02*
Y24844D01*
Y23494D02*
X33936D01*
X31086Y24844D02*
X33936D01*
X21532Y5970D02*
X21888D01*
X22650D02*
X23056D01*
X21888D02*
X22650D01*
X21532Y6221D02*
X23056D01*
X21532D02*
Y9269D01*
X23056D01*
Y6221D02*
Y9269D01*
X82347Y20269D02*
Y24841D01*
X80315Y20269D02*
X82347D01*
X80315Y24841D02*
X82347D01*
X80315Y20269D02*
Y24841D01*
X82321Y24867D02*
Y29439D01*
X80289Y24867D02*
X82321D01*
X80289Y29439D02*
X82321D01*
X80289Y24867D02*
Y29439D01*
Y30074D02*
Y34646D01*
X82321D01*
X80289Y30074D02*
X82321D01*
Y34646D01*
X15261Y27407D02*
Y31979D01*
X17293D01*
X15261Y27407D02*
X17293D01*
Y31979D01*
X12316Y3077D02*
X14716D01*
X12316D02*
Y7827D01*
X14716D01*
Y3077D02*
Y7827D01*
X15164Y16459D02*
Y21031D01*
X13132Y16459D02*
X15164D01*
X13132Y21031D02*
X15164D01*
X13132Y16459D02*
Y21031D01*
X20947Y9460D02*
X21303D01*
X19779D02*
X20185D01*
X20947D01*
X19779Y9209D02*
X21303D01*
Y6161D02*
Y9209D01*
X19779Y6161D02*
X21303D01*
X19779D02*
Y9209D01*
X80315Y15672D02*
Y20244D01*
X82347D01*
X80315Y15672D02*
X82347D01*
Y20244D01*
X15357Y18186D02*
X19929D01*
Y16154D02*
Y18186D01*
X15357Y16154D02*
Y18186D01*
Y16154D02*
X19929D01*
X22005Y11243D02*
Y15815D01*
X19973Y11243D02*
X22005D01*
X19973Y15815D02*
X22005D01*
X19973Y11243D02*
Y15815D01*
X7747Y9411D02*
X8103D01*
X6579D02*
X6985D01*
X7747D01*
X6579Y9160D02*
X8103D01*
Y6112D02*
Y9160D01*
X6579Y6112D02*
X8103D01*
X6579D02*
Y9160D01*
X8356Y5886D02*
X8712D01*
X9474D02*
X9880D01*
X8712D02*
X9474D01*
X8356Y6137D02*
X9880D01*
X8356D02*
Y9185D01*
X9880D01*
Y6137D02*
Y9185D01*
X8356Y2289D02*
X8712D01*
X9474D02*
X9880D01*
X8712D02*
X9474D01*
X8356Y2540D02*
X9880D01*
X8356D02*
Y5588D01*
X9880D01*
Y2540D02*
Y5588D01*
X7797Y5813D02*
X8153D01*
X6629D02*
X7035D01*
X7797D01*
X6629Y5562D02*
X8153D01*
Y2514D02*
Y5562D01*
X6629Y2514D02*
X8153D01*
X6629D02*
Y5562D01*
X16975Y3191D02*
Y7763D01*
X14943Y3191D02*
X16975D01*
X14943Y7763D02*
X16975D01*
X14943Y3191D02*
Y7763D01*
Y8068D02*
X19515D01*
X14943D02*
Y10100D01*
X19515Y8068D02*
Y10100D01*
X14943D02*
X19515D01*
X9966Y10295D02*
X14716D01*
Y12695D01*
X9966D02*
X14716D01*
X9966Y10295D02*
Y12695D01*
X10168Y10100D02*
X14740D01*
Y8068D02*
Y10100D01*
X10168Y8068D02*
Y10100D01*
Y8068D02*
X14740D01*
X20947Y5736D02*
X21303D01*
X19779D02*
X20185D01*
X20947D01*
X19779Y5485D02*
X21303D01*
Y2437D02*
Y5485D01*
X19779Y2437D02*
X21303D01*
X19779D02*
Y5485D01*
X21533Y2237D02*
X21889D01*
X22651D02*
X23057D01*
X21889D02*
X22651D01*
X21533Y2488D02*
X23057D01*
X21533D02*
Y5536D01*
X23057D01*
Y2488D02*
Y5536D01*
X9785Y40747D02*
X10141D01*
X10903D02*
X11309D01*
X10141D02*
X10903D01*
X9785Y40998D02*
X11309D01*
X9785D02*
Y44046D01*
X11309D01*
Y40998D02*
Y44046D01*
X9363Y34341D02*
Y38913D01*
X11395D01*
X9363Y34341D02*
X11395D01*
Y38913D01*
X10024Y32087D02*
X14596D01*
X10024D02*
Y34119D01*
X14596Y32087D02*
Y34119D01*
X10024D02*
X14596D01*
X11700Y37566D02*
X16272D01*
X11700D02*
Y39598D01*
X16272Y37566D02*
Y39598D01*
X11700D02*
X16272D01*
X23240Y40871D02*
X23596D01*
X24358D02*
X24764D01*
X23596D02*
X24358D01*
X23240Y41122D02*
X24764D01*
X23240D02*
Y44170D01*
X24764D01*
Y41122D02*
Y44170D01*
X16496Y42227D02*
X21246D01*
X16496Y39827D02*
Y42227D01*
Y39827D02*
X21246D01*
Y42227D01*
X9149Y47907D02*
X9505D01*
X7981D02*
X8387D01*
X9149D01*
X7981Y47656D02*
X9505D01*
Y44608D02*
Y47656D01*
X7981Y44608D02*
X9505D01*
X7981D02*
Y47656D01*
X80289Y34772D02*
Y39344D01*
X82321D01*
X80289Y34772D02*
X82321D01*
Y39344D01*
X16510Y37566D02*
X21082D01*
X16510D02*
Y39598D01*
X21082Y37566D02*
Y39598D01*
X16510D02*
X21082D01*
X80289Y39345D02*
Y43917D01*
X82321D01*
X80289Y39345D02*
X82321D01*
Y43917D01*
X23190Y44481D02*
X23546D01*
X24308D02*
X24714D01*
X23546D02*
X24308D01*
X23190Y44732D02*
X24714D01*
X23190D02*
Y47780D01*
X24714D01*
Y44732D02*
Y47780D01*
X22549Y48031D02*
X22905D01*
X21381D02*
X21787D01*
X22549D01*
X21381Y47780D02*
X22905D01*
Y44732D02*
Y47780D01*
X21381Y44732D02*
X22905D01*
X21381D02*
Y47780D01*
X22604Y44338D02*
X22960D01*
X21436D02*
X21842D01*
X22604D01*
X21436Y44087D02*
X22960D01*
Y41039D02*
Y44087D01*
X21436Y41039D02*
X22960D01*
X21436D02*
Y44087D01*
X18355Y42599D02*
Y47171D01*
X16323Y42599D02*
X18355D01*
X16323Y47171D02*
X18355D01*
X16323Y42599D02*
Y47171D01*
X13751Y42541D02*
Y47291D01*
Y42541D02*
X16151D01*
Y47291D01*
X13751D02*
X16151D01*
X11509Y39839D02*
Y42239D01*
X16259D01*
Y39839D02*
Y42239D01*
X11509Y39839D02*
X16259D01*
X9149Y44272D02*
X9505D01*
X7981D02*
X8387D01*
X9149D01*
X7981Y44021D02*
X9505D01*
Y40973D02*
Y44021D01*
X7981Y40973D02*
X9505D01*
X7981D02*
Y44021D01*
X9785Y44358D02*
X10141D01*
X10903D02*
X11309D01*
X10141D02*
X10903D01*
X9785Y44609D02*
X11309D01*
X9785D02*
Y47657D01*
X11309D01*
Y44609D02*
Y47657D01*
X50335Y8425D02*
X72935D01*
Y42525D01*
X50335Y8425D02*
Y42525D01*
X72935D01*
X47250Y31830D02*
X49750D01*
X47250Y19170D02*
X49750D01*
X47250D02*
Y31830D01*
X49750Y19170D02*
Y31830D01*
%TF.MD5,78a1cdaa1b68c98d447839363d0720ca*%
M02*
