%TF.GenerationSoftware,Altium Limited,Altium Designer,21.6.4 (81)*%
G04 Layer_Color=65535*
%FSLAX43Y43*%
%MOMM*%
%TF.SameCoordinates,C39744A4-4465-455E-AB15-BAA165A4C254*%
%TF.FilePolarity,Positive*%
%TF.FileFunction,Legend,Top*%
%TF.Part,Single*%
G01*
G75*
%TA.AperFunction,NonConductor*%
%ADD26C,0.254*%
%ADD31C,1.000*%
%ADD32C,0.200*%
D26*
X30137Y19775D02*
G03*
X30137Y19775I-112J0D01*
G01*
Y49775D02*
G03*
X30137Y49775I-112J0D01*
G01*
Y34775D02*
G03*
X30137Y34775I-112J0D01*
G01*
X63678Y49701D02*
X63144D01*
Y49301D01*
X63411Y49434D01*
X63544D01*
X63678Y49301D01*
Y49035D01*
X63544Y48901D01*
X63278D01*
X63144Y49035D01*
X63944Y49701D02*
Y49168D01*
X64211Y48901D01*
X64477Y49168D01*
Y49701D01*
X64744Y48768D02*
X65277D01*
X66077Y49568D02*
X65943Y49701D01*
X65677D01*
X65544Y49568D01*
Y49035D01*
X65677Y48901D01*
X65943D01*
X66077Y49035D01*
Y49301D01*
X65810D01*
X66343Y48901D02*
Y49701D01*
X66877Y48901D01*
Y49701D01*
X67143D02*
Y48901D01*
X67543D01*
X67676Y49035D01*
Y49568D01*
X67543Y49701D01*
X67143D01*
X44450Y44945D02*
X44316Y45078D01*
X44050D01*
X43917Y44945D01*
Y44412D01*
X44050Y44278D01*
X44316D01*
X44450Y44412D01*
Y44678D01*
X44183D01*
X44716Y44278D02*
Y45078D01*
X45250Y44278D01*
Y45078D01*
X45516D02*
Y44278D01*
X45916D01*
X46049Y44412D01*
Y44945D01*
X45916Y45078D01*
X45516D01*
X46316Y44145D02*
X46849D01*
X47649Y44945D02*
X47515Y45078D01*
X47249D01*
X47116Y44945D01*
Y44412D01*
X47249Y44278D01*
X47515D01*
X47649Y44412D01*
X47915Y45078D02*
Y44278D01*
X48448D01*
X48715Y45078D02*
Y44278D01*
Y44545D01*
X49248Y45078D01*
X48848Y44678D01*
X49248Y44278D01*
X49915Y45078D02*
X49648D01*
X49515Y44945D01*
Y44412D01*
X49648Y44278D01*
X49915D01*
X50048Y44412D01*
Y44945D01*
X49915Y45078D01*
X50315D02*
Y44412D01*
X50448Y44278D01*
X50714D01*
X50848Y44412D01*
Y45078D01*
X51114D02*
X51647D01*
X51381D01*
Y44278D01*
X51914Y44145D02*
X52447D01*
X53247Y44945D02*
X53114Y45078D01*
X52847D01*
X52714Y44945D01*
Y44412D01*
X52847Y44278D01*
X53114D01*
X53247Y44412D01*
X54047Y44945D02*
X53913Y45078D01*
X53647D01*
X53514Y44945D01*
Y44812D01*
X53647Y44678D01*
X53913D01*
X54047Y44545D01*
Y44412D01*
X53913Y44278D01*
X53647D01*
X53514Y44412D01*
X54313Y44278D02*
Y44812D01*
X54580Y45078D01*
X54846Y44812D01*
Y44278D01*
Y44678D01*
X54313D01*
X55113Y44145D02*
X55646D01*
X56446Y44945D02*
X56313Y45078D01*
X56046D01*
X55913Y44945D01*
Y44412D01*
X56046Y44278D01*
X56313D01*
X56446Y44412D01*
X57246Y44945D02*
X57112Y45078D01*
X56846D01*
X56712Y44945D01*
Y44812D01*
X56846Y44678D01*
X57112D01*
X57246Y44545D01*
Y44412D01*
X57112Y44278D01*
X56846D01*
X56712Y44412D01*
X58045Y44945D02*
X57912Y45078D01*
X57646D01*
X57512Y44945D01*
Y44412D01*
X57646Y44278D01*
X57912D01*
X58045Y44412D01*
X58312Y44145D02*
X58845D01*
X59645Y44945D02*
X59512Y45078D01*
X59245D01*
X59112Y44945D01*
Y44412D01*
X59245Y44278D01*
X59512D01*
X59645Y44412D01*
X60445Y44945D02*
X60311Y45078D01*
X60045D01*
X59911Y44945D01*
Y44812D01*
X60045Y44678D01*
X60311D01*
X60445Y44545D01*
Y44412D01*
X60311Y44278D01*
X60045D01*
X59911Y44412D01*
X60711Y45078D02*
Y44278D01*
X61111D01*
X61244Y44412D01*
Y44545D01*
X61111Y44678D01*
X60711D01*
X61111D01*
X61244Y44812D01*
Y44945D01*
X61111Y45078D01*
X60711D01*
X9601Y3873D02*
X9468Y4006D01*
X9201D01*
X9068Y3873D01*
Y3340D01*
X9201Y3207D01*
X9468D01*
X9601Y3340D01*
X9868Y4006D02*
Y3207D01*
X10401D01*
X10667Y4006D02*
Y3207D01*
Y3473D01*
X11200Y4006D01*
X10801Y3607D01*
X11200Y3207D01*
X11467Y3073D02*
X12000D01*
X12267Y3207D02*
Y4006D01*
X12533Y3740D01*
X12800Y4006D01*
Y3207D01*
X13067Y4006D02*
X13333D01*
X13200D01*
Y3207D01*
X13067D01*
X13333D01*
X14266Y3873D02*
X14133Y4006D01*
X13866D01*
X13733Y3873D01*
Y3740D01*
X13866Y3607D01*
X14133D01*
X14266Y3473D01*
Y3340D01*
X14133Y3207D01*
X13866D01*
X13733Y3340D01*
X14933Y4006D02*
X14666D01*
X14533Y3873D01*
Y3340D01*
X14666Y3207D01*
X14933D01*
X15066Y3340D01*
Y3873D01*
X14933Y4006D01*
X15332Y3073D02*
X15866D01*
X16132Y3207D02*
Y4006D01*
X16399Y3740D01*
X16665Y4006D01*
Y3207D01*
X17332Y4006D02*
X17065D01*
X16932Y3873D01*
Y3340D01*
X17065Y3207D01*
X17332D01*
X17465Y3340D01*
Y3873D01*
X17332Y4006D01*
X18265Y3873D02*
X18132Y4006D01*
X17865D01*
X17732Y3873D01*
Y3740D01*
X17865Y3607D01*
X18132D01*
X18265Y3473D01*
Y3340D01*
X18132Y3207D01*
X17865D01*
X17732Y3340D01*
X18531Y4006D02*
X18798D01*
X18665D01*
Y3207D01*
X18531D01*
X18798D01*
X19198Y3073D02*
X19731D01*
X19998Y3873D02*
X20131Y4006D01*
X20397D01*
X20531Y3873D01*
Y3740D01*
X20397Y3607D01*
X20264D01*
X20397D01*
X20531Y3473D01*
Y3340D01*
X20397Y3207D01*
X20131D01*
X19998Y3340D01*
X20797Y3207D02*
Y3340D01*
X20931D01*
Y3207D01*
X20797D01*
X21464Y3873D02*
X21597Y4006D01*
X21864D01*
X21997Y3873D01*
Y3740D01*
X21864Y3607D01*
X21730D01*
X21864D01*
X21997Y3473D01*
Y3340D01*
X21864Y3207D01*
X21597D01*
X21464Y3340D01*
X22264Y4006D02*
Y3473D01*
X22530Y3207D01*
X22797Y3473D01*
Y4006D01*
X23063Y3073D02*
X23596D01*
X24396Y3873D02*
X24263Y4006D01*
X23996D01*
X23863Y3873D01*
Y3340D01*
X23996Y3207D01*
X24263D01*
X24396Y3340D01*
Y3607D01*
X24130D01*
X24663Y3207D02*
Y4006D01*
X25196Y3207D01*
Y4006D01*
X25463D02*
Y3207D01*
X25862D01*
X25996Y3340D01*
Y3873D01*
X25862Y4006D01*
X25463D01*
X27062Y3607D02*
X27595D01*
X27862Y3207D02*
X28262Y3607D01*
X27862Y4006D01*
X9660Y23776D02*
X10193D01*
X9927D01*
Y22976D01*
X10460D02*
Y23776D01*
X10860D01*
X10993Y23642D01*
Y23376D01*
X10860Y23243D01*
X10460D01*
X11260Y23642D02*
X11393Y23776D01*
X11660D01*
X11793Y23642D01*
Y23509D01*
X11660Y23376D01*
X11526D01*
X11660D01*
X11793Y23243D01*
Y23109D01*
X11660Y22976D01*
X11393D01*
X11260Y23109D01*
X12593Y22976D02*
X12059D01*
X12593Y23509D01*
Y23642D01*
X12459Y23776D01*
X12193D01*
X12059Y23642D01*
X5119Y20339D02*
X5652D01*
X5385D01*
Y19539D01*
X5918D02*
Y20339D01*
X6318D01*
X6452Y20206D01*
Y19939D01*
X6318Y19806D01*
X5918D01*
X6718Y20206D02*
X6851Y20339D01*
X7118D01*
X7251Y20206D01*
Y20072D01*
X7118Y19939D01*
X6985D01*
X7118D01*
X7251Y19806D01*
Y19672D01*
X7118Y19539D01*
X6851D01*
X6718Y19672D01*
X7518Y19539D02*
X7785D01*
X7651D01*
Y20339D01*
X7518Y20206D01*
X75902Y27425D02*
X76435D01*
X76169D01*
Y26626D01*
X76702D02*
Y27425D01*
X77102D01*
X77235Y27292D01*
Y27026D01*
X77102Y26892D01*
X76702D01*
X77502Y27292D02*
X77635Y27425D01*
X77902D01*
X78035Y27292D01*
Y27159D01*
X77902Y27026D01*
X77768D01*
X77902D01*
X78035Y26892D01*
Y26759D01*
X77902Y26626D01*
X77635D01*
X77502Y26759D01*
X78301Y27292D02*
X78435Y27425D01*
X78701D01*
X78835Y27292D01*
Y26759D01*
X78701Y26626D01*
X78435D01*
X78301Y26759D01*
Y27292D01*
X87358Y23463D02*
X87891D01*
X87624D01*
Y22663D01*
X88157D02*
Y23463D01*
X88557D01*
X88691Y23330D01*
Y23063D01*
X88557Y22930D01*
X88157D01*
X89490Y22663D02*
X88957D01*
X89490Y23196D01*
Y23330D01*
X89357Y23463D01*
X89090D01*
X88957Y23330D01*
X89757Y22797D02*
X89890Y22663D01*
X90157D01*
X90290Y22797D01*
Y23330D01*
X90157Y23463D01*
X89890D01*
X89757Y23330D01*
Y23196D01*
X89890Y23063D01*
X90290D01*
X17990Y29635D02*
X18523D01*
X18257D01*
Y28836D01*
X18790D02*
Y29635D01*
X19190D01*
X19323Y29502D01*
Y29235D01*
X19190Y29102D01*
X18790D01*
X20123Y28836D02*
X19590D01*
X20123Y29369D01*
Y29502D01*
X19990Y29635D01*
X19723D01*
X19590Y29502D01*
X20389D02*
X20523Y29635D01*
X20789D01*
X20923Y29502D01*
Y29369D01*
X20789Y29235D01*
X20923Y29102D01*
Y28969D01*
X20789Y28836D01*
X20523D01*
X20389Y28969D01*
Y29102D01*
X20523Y29235D01*
X20389Y29369D01*
Y29502D01*
X20523Y29235D02*
X20789D01*
X9388Y29405D02*
X9921D01*
X9655D01*
Y28605D01*
X10188D02*
Y29405D01*
X10588D01*
X10721Y29272D01*
Y29005D01*
X10588Y28872D01*
X10188D01*
X11521Y28605D02*
X10987D01*
X11521Y29138D01*
Y29272D01*
X11387Y29405D01*
X11121D01*
X10987Y29272D01*
X11787Y29405D02*
X12320D01*
Y29272D01*
X11787Y28738D01*
Y28605D01*
X55287Y7490D02*
X55820D01*
X55554D01*
Y6690D01*
X56087D02*
Y7490D01*
X56487D01*
X56620Y7357D01*
Y7090D01*
X56487Y6957D01*
X56087D01*
X57420Y6690D02*
X56887D01*
X57420Y7224D01*
Y7357D01*
X57286Y7490D01*
X57020D01*
X56887Y7357D01*
X58220Y7490D02*
X57953Y7357D01*
X57686Y7090D01*
Y6824D01*
X57820Y6690D01*
X58086D01*
X58220Y6824D01*
Y6957D01*
X58086Y7090D01*
X57686D01*
X62817Y43664D02*
X63350D01*
X63084D01*
Y42864D01*
X63617D02*
Y43664D01*
X64017D01*
X64150Y43531D01*
Y43264D01*
X64017Y43131D01*
X63617D01*
X64950Y42864D02*
X64417D01*
X64950Y43398D01*
Y43531D01*
X64816Y43664D01*
X64550D01*
X64417Y43531D01*
X65749Y43664D02*
X65216D01*
Y43264D01*
X65483Y43398D01*
X65616D01*
X65749Y43264D01*
Y42998D01*
X65616Y42864D01*
X65350D01*
X65216Y42998D01*
X43695Y39900D02*
X44228D01*
X43962D01*
Y39100D01*
X44495D02*
Y39900D01*
X44895D01*
X45028Y39767D01*
Y39500D01*
X44895Y39367D01*
X44495D01*
X45828Y39100D02*
X45294D01*
X45828Y39633D01*
Y39767D01*
X45694Y39900D01*
X45428D01*
X45294Y39767D01*
X46494Y39100D02*
Y39900D01*
X46094Y39500D01*
X46627D01*
X44381Y49503D02*
X44914D01*
X44647D01*
Y48703D01*
X45181D02*
Y49503D01*
X45580D01*
X45714Y49369D01*
Y49103D01*
X45580Y48970D01*
X45181D01*
X46513Y48703D02*
X45980D01*
X46513Y49236D01*
Y49369D01*
X46380Y49503D01*
X46114D01*
X45980Y49369D01*
X46780D02*
X46913Y49503D01*
X47180D01*
X47313Y49369D01*
Y49236D01*
X47180Y49103D01*
X47047D01*
X47180D01*
X47313Y48970D01*
Y48836D01*
X47180Y48703D01*
X46913D01*
X46780Y48836D01*
X24933Y50438D02*
X25466D01*
X25200D01*
Y49638D01*
X25733D02*
Y50438D01*
X26133D01*
X26266Y50305D01*
Y50038D01*
X26133Y49905D01*
X25733D01*
X27066Y49638D02*
X26533D01*
X27066Y50171D01*
Y50305D01*
X26933Y50438D01*
X26666D01*
X26533Y50305D01*
X27866Y49638D02*
X27333D01*
X27866Y50171D01*
Y50305D01*
X27732Y50438D01*
X27466D01*
X27333Y50305D01*
X20987Y33502D02*
X21520D01*
X21254D01*
Y32703D01*
X21787D02*
Y33502D01*
X22187D01*
X22320Y33369D01*
Y33103D01*
X22187Y32969D01*
X21787D01*
X23120Y32703D02*
X22587D01*
X23120Y33236D01*
Y33369D01*
X22987Y33502D01*
X22720D01*
X22587Y33369D01*
X23386Y32703D02*
X23653D01*
X23520D01*
Y33502D01*
X23386Y33369D01*
X24336Y22066D02*
X24869D01*
X24603D01*
Y21266D01*
X25136D02*
Y22066D01*
X25536D01*
X25669Y21933D01*
Y21666D01*
X25536Y21533D01*
X25136D01*
X26469Y21266D02*
X25936D01*
X26469Y21799D01*
Y21933D01*
X26336Y22066D01*
X26069D01*
X25936Y21933D01*
X26735D02*
X26869Y22066D01*
X27135D01*
X27269Y21933D01*
Y21400D01*
X27135Y21266D01*
X26869D01*
X26735Y21400D01*
Y21933D01*
X23416Y5336D02*
X23949D01*
X23683D01*
Y4536D01*
X24216D02*
Y5336D01*
X24616D01*
X24749Y5202D01*
Y4936D01*
X24616Y4802D01*
X24216D01*
X25016Y4536D02*
X25282D01*
X25149D01*
Y5336D01*
X25016Y5202D01*
X25682Y4669D02*
X25815Y4536D01*
X26082D01*
X26215Y4669D01*
Y5202D01*
X26082Y5336D01*
X25815D01*
X25682Y5202D01*
Y5069D01*
X25815Y4936D01*
X26215D01*
X44121Y18862D02*
X44654D01*
X44388D01*
Y18062D01*
X44921D02*
Y18862D01*
X45321D01*
X45454Y18728D01*
Y18462D01*
X45321Y18329D01*
X44921D01*
X45721Y18062D02*
X45987D01*
X45854D01*
Y18862D01*
X45721Y18728D01*
X46387D02*
X46520Y18862D01*
X46787D01*
X46920Y18728D01*
Y18595D01*
X46787Y18462D01*
X46920Y18329D01*
Y18195D01*
X46787Y18062D01*
X46520D01*
X46387Y18195D01*
Y18329D01*
X46520Y18462D01*
X46387Y18595D01*
Y18728D01*
X46520Y18462D02*
X46787D01*
X19632Y49777D02*
X20165D01*
X19898D01*
Y48978D01*
X20431D02*
Y49777D01*
X20831D01*
X20965Y49644D01*
Y49378D01*
X20831Y49244D01*
X20431D01*
X21231Y48978D02*
X21498D01*
X21364D01*
Y49777D01*
X21231Y49644D01*
X21898Y49777D02*
X22431D01*
Y49644D01*
X21898Y49111D01*
Y48978D01*
X91895Y29854D02*
X92428D01*
X92161D01*
Y29054D01*
X92694D02*
Y29854D01*
X93094D01*
X93228Y29720D01*
Y29454D01*
X93094Y29321D01*
X92694D01*
X93494Y29054D02*
X93761D01*
X93627D01*
Y29854D01*
X93494Y29720D01*
X94694Y29854D02*
X94427Y29720D01*
X94161Y29454D01*
Y29187D01*
X94294Y29054D01*
X94560D01*
X94694Y29187D01*
Y29321D01*
X94560Y29454D01*
X94161D01*
X16263Y37294D02*
X16796D01*
X16530D01*
Y36495D01*
X17063D02*
Y37294D01*
X17463D01*
X17596Y37161D01*
Y36894D01*
X17463Y36761D01*
X17063D01*
X17863Y36495D02*
X18129D01*
X17996D01*
Y37294D01*
X17863Y37161D01*
X19062Y37294D02*
X18529D01*
Y36894D01*
X18796Y37028D01*
X18929D01*
X19062Y36894D01*
Y36628D01*
X18929Y36495D01*
X18662D01*
X18529Y36628D01*
X14478Y49947D02*
X15012D01*
X14745D01*
Y49147D01*
X15278D02*
Y49947D01*
X15678D01*
X15811Y49814D01*
Y49547D01*
X15678Y49414D01*
X15278D01*
X16078Y49147D02*
X16345D01*
X16211D01*
Y49947D01*
X16078Y49814D01*
X17144Y49147D02*
Y49947D01*
X16744Y49547D01*
X17278D01*
X7548Y15205D02*
X8082D01*
X7815D01*
Y14405D01*
X8348D02*
Y15205D01*
X8748D01*
X8881Y15072D01*
Y14805D01*
X8748Y14672D01*
X8348D01*
X9148Y14405D02*
X9414D01*
X9281D01*
Y15205D01*
X9148Y15072D01*
X9814D02*
X9948Y15205D01*
X10214D01*
X10347Y15072D01*
Y14939D01*
X10214Y14805D01*
X10081D01*
X10214D01*
X10347Y14672D01*
Y14539D01*
X10214Y14405D01*
X9948D01*
X9814Y14539D01*
X1629Y10915D02*
X2162D01*
X1896D01*
Y10116D01*
X2429D02*
Y10915D01*
X2829D01*
X2962Y10782D01*
Y10515D01*
X2829Y10382D01*
X2429D01*
X3229Y10116D02*
X3495D01*
X3362D01*
Y10915D01*
X3229Y10782D01*
X4428Y10116D02*
X3895D01*
X4428Y10649D01*
Y10782D01*
X4295Y10915D01*
X4028D01*
X3895Y10782D01*
X24972Y24403D02*
X25505D01*
X25239D01*
Y23603D01*
X25772D02*
Y24403D01*
X26172D01*
X26305Y24270D01*
Y24003D01*
X26172Y23870D01*
X25772D01*
X26571Y23603D02*
X26838D01*
X26705D01*
Y24403D01*
X26571Y24270D01*
X27238Y23603D02*
X27504D01*
X27371D01*
Y24403D01*
X27238Y24270D01*
X19708Y1695D02*
X20241D01*
X19974D01*
Y896D01*
X20508D02*
Y1695D01*
X20907D01*
X21041Y1562D01*
Y1295D01*
X20907Y1162D01*
X20508D01*
X21307Y896D02*
X21574D01*
X21441D01*
Y1695D01*
X21307Y1562D01*
X21974D02*
X22107Y1695D01*
X22374D01*
X22507Y1562D01*
Y1029D01*
X22374Y896D01*
X22107D01*
X21974Y1029D01*
Y1562D01*
X3480Y40296D02*
X4013D01*
X3747D01*
Y39497D01*
X4280D02*
Y40296D01*
X4680D01*
X4813Y40163D01*
Y39896D01*
X4680Y39763D01*
X4280D01*
X5080Y39630D02*
X5213Y39497D01*
X5480D01*
X5613Y39630D01*
Y40163D01*
X5480Y40296D01*
X5213D01*
X5080Y40163D01*
Y40030D01*
X5213Y39896D01*
X5613D01*
X55372Y29330D02*
X55906D01*
X55639D01*
Y28531D01*
X56172D02*
Y29330D01*
X56572D01*
X56705Y29197D01*
Y28931D01*
X56572Y28797D01*
X56172D01*
X56972Y29197D02*
X57105Y29330D01*
X57372D01*
X57505Y29197D01*
Y29064D01*
X57372Y28931D01*
X57505Y28797D01*
Y28664D01*
X57372Y28531D01*
X57105D01*
X56972Y28664D01*
Y28797D01*
X57105Y28931D01*
X56972Y29064D01*
Y29197D01*
X57105Y28931D02*
X57372D01*
X70816Y15843D02*
X71349D01*
X71082D01*
Y15043D01*
X71615D02*
Y15843D01*
X72015D01*
X72149Y15710D01*
Y15443D01*
X72015Y15310D01*
X71615D01*
X72415Y15843D02*
X72948D01*
Y15710D01*
X72415Y15177D01*
Y15043D01*
X83135Y12287D02*
X83668D01*
X83401D01*
Y11487D01*
X83934D02*
Y12287D01*
X84334D01*
X84468Y12154D01*
Y11887D01*
X84334Y11754D01*
X83934D01*
X85267Y12287D02*
X85001Y12154D01*
X84734Y11887D01*
Y11621D01*
X84867Y11487D01*
X85134D01*
X85267Y11621D01*
Y11754D01*
X85134Y11887D01*
X84734D01*
X25241Y13521D02*
X25774D01*
X25507D01*
Y12721D01*
X26040D02*
Y13521D01*
X26440D01*
X26574Y13387D01*
Y13121D01*
X26440Y12988D01*
X26040D01*
X27373Y13521D02*
X26840D01*
Y13121D01*
X27107Y13254D01*
X27240D01*
X27373Y13121D01*
Y12854D01*
X27240Y12721D01*
X26973D01*
X26840Y12854D01*
X25272Y28213D02*
X25805D01*
X25539D01*
Y27413D01*
X26072D02*
Y28213D01*
X26472D01*
X26605Y28080D01*
Y27813D01*
X26472Y27680D01*
X26072D01*
X27272Y27413D02*
Y28213D01*
X26872Y27813D01*
X27405D01*
X19910Y35919D02*
X20443D01*
X20177D01*
Y35119D01*
X20710D02*
Y35919D01*
X21110D01*
X21243Y35786D01*
Y35519D01*
X21110Y35386D01*
X20710D01*
X21510Y35786D02*
X21643Y35919D01*
X21910D01*
X22043Y35786D01*
Y35653D01*
X21910Y35519D01*
X21776D01*
X21910D01*
X22043Y35386D01*
Y35253D01*
X21910Y35119D01*
X21643D01*
X21510Y35253D01*
X6325Y49552D02*
X6858D01*
X6592D01*
Y48752D01*
X7125D02*
Y49552D01*
X7525D01*
X7658Y49419D01*
Y49152D01*
X7525Y49019D01*
X7125D01*
X8458Y48752D02*
X7925D01*
X8458Y49285D01*
Y49419D01*
X8324Y49552D01*
X8058D01*
X7925Y49419D01*
X71101Y7547D02*
X71635D01*
X71368D01*
Y6748D01*
X71901D02*
Y7547D01*
X72301D01*
X72434Y7414D01*
Y7147D01*
X72301Y7014D01*
X71901D01*
X72701Y6748D02*
X72967D01*
X72834D01*
Y7547D01*
X72701Y7414D01*
X64561Y45231D02*
X65094Y44431D01*
Y45231D02*
X64561Y44431D01*
X65894Y45231D02*
X65627Y45098D01*
X65360Y44831D01*
Y44564D01*
X65494Y44431D01*
X65760D01*
X65894Y44564D01*
Y44698D01*
X65760Y44831D01*
X65360D01*
X77724Y41446D02*
Y40647D01*
X78124D01*
X78258Y40780D01*
Y41313D01*
X78124Y41446D01*
X77724D01*
X78524D02*
Y40647D01*
X78924D01*
X79057Y40780D01*
Y41313D01*
X78924Y41446D01*
X78524D01*
X79857D02*
X79324D01*
Y41046D01*
X79591Y41180D01*
X79724D01*
X79857Y41046D01*
Y40780D01*
X79724Y40647D01*
X79457D01*
X79324Y40780D01*
X68745Y46127D02*
X68612Y45993D01*
Y45727D01*
X68745Y45593D01*
X69278D01*
X69412Y45727D01*
Y45993D01*
X69278Y46127D01*
X69412Y46793D02*
X68612D01*
X69012Y46393D01*
Y46926D01*
X68745Y47193D02*
X68612Y47326D01*
Y47593D01*
X68745Y47726D01*
X69278D01*
X69412Y47593D01*
Y47326D01*
X69278Y47193D01*
X68745D01*
Y41783D02*
X68612Y41650D01*
Y41383D01*
X68745Y41250D01*
X69278D01*
X69412Y41383D01*
Y41650D01*
X69278Y41783D01*
X68745Y42050D02*
X68612Y42183D01*
Y42450D01*
X68745Y42583D01*
X68879D01*
X69012Y42450D01*
Y42316D01*
Y42450D01*
X69145Y42583D01*
X69278D01*
X69412Y42450D01*
Y42183D01*
X69278Y42050D01*
Y42850D02*
X69412Y42983D01*
Y43249D01*
X69278Y43383D01*
X68745D01*
X68612Y43249D01*
Y42983D01*
X68745Y42850D01*
X68879D01*
X69012Y42983D01*
Y43383D01*
X41923Y20254D02*
X41790Y20121D01*
Y19854D01*
X41923Y19721D01*
X42456D01*
X42590Y19854D01*
Y20121D01*
X42456Y20254D01*
X41923Y20521D02*
X41790Y20654D01*
Y20921D01*
X41923Y21054D01*
X42056D01*
X42190Y20921D01*
Y20787D01*
Y20921D01*
X42323Y21054D01*
X42456D01*
X42590Y20921D01*
Y20654D01*
X42456Y20521D01*
X41923Y21321D02*
X41790Y21454D01*
Y21721D01*
X41923Y21854D01*
X42056D01*
X42190Y21721D01*
X42323Y21854D01*
X42456D01*
X42590Y21721D01*
Y21454D01*
X42456Y21321D01*
X42323D01*
X42190Y21454D01*
X42056Y21321D01*
X41923D01*
X42190Y21454D02*
Y21721D01*
X43148Y32088D02*
X43015Y31955D01*
Y31688D01*
X43148Y31555D01*
X43681D01*
X43815Y31688D01*
Y31955D01*
X43681Y32088D01*
X43148Y32355D02*
X43015Y32488D01*
Y32755D01*
X43148Y32888D01*
X43281D01*
X43415Y32755D01*
Y32621D01*
Y32755D01*
X43548Y32888D01*
X43681D01*
X43815Y32755D01*
Y32488D01*
X43681Y32355D01*
X43015Y33154D02*
Y33688D01*
X43148D01*
X43681Y33154D01*
X43815D01*
X43300Y47221D02*
X43167Y47088D01*
Y46821D01*
X43300Y46688D01*
X43834D01*
X43967Y46821D01*
Y47088D01*
X43834Y47221D01*
X43300Y47487D02*
X43167Y47621D01*
Y47887D01*
X43300Y48021D01*
X43434D01*
X43567Y47887D01*
Y47754D01*
Y47887D01*
X43700Y48021D01*
X43834D01*
X43967Y47887D01*
Y47621D01*
X43834Y47487D01*
X43167Y48820D02*
X43300Y48554D01*
X43567Y48287D01*
X43834D01*
X43967Y48420D01*
Y48687D01*
X43834Y48820D01*
X43700D01*
X43567Y48687D01*
Y48287D01*
X29359Y1669D02*
X29892Y869D01*
Y1669D02*
X29359Y869D01*
X30691D02*
X30158D01*
X30691Y1403D01*
Y1536D01*
X30558Y1669D01*
X30292D01*
X30158Y1536D01*
X54178Y49600D02*
X54712Y48800D01*
Y49600D02*
X54178Y48800D01*
X54978D02*
X55245D01*
X55111D01*
Y49600D01*
X54978Y49466D01*
X15908Y40908D02*
X16441D01*
X16708Y41175D01*
X16441Y41441D01*
X15908D01*
Y41708D02*
X16708D01*
Y42108D01*
X16575Y42241D01*
X16041D01*
X15908Y42108D01*
Y41708D01*
X16041Y42508D02*
X15908Y42641D01*
Y42907D01*
X16041Y43041D01*
X16175D01*
X16308Y42907D01*
Y42774D01*
Y42907D01*
X16441Y43041D01*
X16575D01*
X16708Y42907D01*
Y42641D01*
X16575Y42508D01*
X16041Y43307D02*
X15908Y43441D01*
Y43707D01*
X16041Y43840D01*
X16575D01*
X16708Y43707D01*
Y43441D01*
X16575Y43307D01*
X16041D01*
X9735Y10142D02*
X10268D01*
X10534Y10408D01*
X10268Y10675D01*
X9735D01*
Y10941D02*
X10534D01*
Y11341D01*
X10401Y11475D01*
X9868D01*
X9735Y11341D01*
Y10941D01*
X10534Y12274D02*
Y11741D01*
X10001Y12274D01*
X9868D01*
X9735Y12141D01*
Y11874D01*
X9868Y11741D01*
X10401Y12541D02*
X10534Y12674D01*
Y12941D01*
X10401Y13074D01*
X9868D01*
X9735Y12941D01*
Y12674D01*
X9868Y12541D01*
X10001D01*
X10135Y12674D01*
Y13074D01*
X83494Y27603D02*
Y27070D01*
X83761Y26804D01*
X84027Y27070D01*
Y27603D01*
X84294D02*
Y26804D01*
X84694D01*
X84827Y26937D01*
Y27470D01*
X84694Y27603D01*
X84294D01*
X85627Y26804D02*
X85094D01*
X85627Y27337D01*
Y27470D01*
X85493Y27603D01*
X85227D01*
X85094Y27470D01*
X85893D02*
X86027Y27603D01*
X86293D01*
X86426Y27470D01*
Y27337D01*
X86293Y27203D01*
X86426Y27070D01*
Y26937D01*
X86293Y26804D01*
X86027D01*
X85893Y26937D01*
Y27070D01*
X86027Y27203D01*
X85893Y27337D01*
Y27470D01*
X86027Y27203D02*
X86293D01*
X10667Y41024D02*
X11200D01*
X11466Y41291D01*
X11200Y41557D01*
X10667D01*
Y41824D02*
X11466D01*
Y42224D01*
X11333Y42357D01*
X10800D01*
X10667Y42224D01*
Y41824D01*
X11466Y43157D02*
Y42624D01*
X10933Y43157D01*
X10800D01*
X10667Y43023D01*
Y42757D01*
X10800Y42624D01*
X10667Y43423D02*
Y43957D01*
X10800D01*
X11333Y43423D01*
X11466D01*
X14913Y10022D02*
X15446D01*
X15713Y10288D01*
X15446Y10555D01*
X14913D01*
Y10822D02*
X15713D01*
Y11221D01*
X15580Y11355D01*
X15046D01*
X14913Y11221D01*
Y10822D01*
X15713Y12154D02*
Y11621D01*
X15180Y12154D01*
X15046D01*
X14913Y12021D01*
Y11755D01*
X15046Y11621D01*
X14913Y12954D02*
X15046Y12688D01*
X15313Y12421D01*
X15580D01*
X15713Y12554D01*
Y12821D01*
X15580Y12954D01*
X15446D01*
X15313Y12821D01*
Y12421D01*
X83494Y32582D02*
Y32049D01*
X83761Y31782D01*
X84027Y32049D01*
Y32582D01*
X84294D02*
Y31782D01*
X84694D01*
X84827Y31915D01*
Y32448D01*
X84694Y32582D01*
X84294D01*
X85627Y31782D02*
X85094D01*
X85627Y32315D01*
Y32448D01*
X85493Y32582D01*
X85227D01*
X85094Y32448D01*
X86426Y32582D02*
X85893D01*
Y32182D01*
X86160Y32315D01*
X86293D01*
X86426Y32182D01*
Y31915D01*
X86293Y31782D01*
X86027D01*
X85893Y31915D01*
X65412Y31693D02*
Y31160D01*
X65679Y30893D01*
X65945Y31160D01*
Y31693D01*
X66212D02*
Y30893D01*
X66612D01*
X66745Y31026D01*
Y31559D01*
X66612Y31693D01*
X66212D01*
X67545Y30893D02*
X67011D01*
X67545Y31426D01*
Y31559D01*
X67411Y31693D01*
X67145D01*
X67011Y31559D01*
X67811D02*
X67945Y31693D01*
X68211D01*
X68344Y31559D01*
Y31026D01*
X68211Y30893D01*
X67945D01*
X67811Y31026D01*
Y31559D01*
X54441Y31465D02*
Y30932D01*
X54707Y30665D01*
X54974Y30932D01*
Y31465D01*
X55241D02*
Y30665D01*
X55640D01*
X55774Y30798D01*
Y31332D01*
X55640Y31465D01*
X55241D01*
X56040Y30665D02*
X56307D01*
X56174D01*
Y31465D01*
X56040Y31332D01*
X56707Y30798D02*
X56840Y30665D01*
X57107D01*
X57240Y30798D01*
Y31332D01*
X57107Y31465D01*
X56840D01*
X56707Y31332D01*
Y31198D01*
X56840Y31065D01*
X57240D01*
X54836Y20313D02*
Y19780D01*
X55103Y19514D01*
X55369Y19780D01*
Y20313D01*
X55636D02*
Y19514D01*
X56036D01*
X56169Y19647D01*
Y20180D01*
X56036Y20313D01*
X55636D01*
X56436Y19514D02*
X56702D01*
X56569D01*
Y20313D01*
X56436Y20180D01*
X57102D02*
X57235Y20313D01*
X57502D01*
X57635Y20180D01*
Y20047D01*
X57502Y19914D01*
X57635Y19780D01*
Y19647D01*
X57502Y19514D01*
X57235D01*
X57102Y19647D01*
Y19780D01*
X57235Y19914D01*
X57102Y20047D01*
Y20180D01*
X57235Y19914D02*
X57502D01*
X65824Y20163D02*
Y19630D01*
X66090Y19363D01*
X66357Y19630D01*
Y20163D01*
X66624D02*
Y19363D01*
X67023D01*
X67157Y19497D01*
Y20030D01*
X67023Y20163D01*
X66624D01*
X67423Y19363D02*
X67690D01*
X67557D01*
Y20163D01*
X67423Y20030D01*
X68090Y20163D02*
X68623D01*
Y20030D01*
X68090Y19497D01*
Y19363D01*
X65685Y33445D02*
Y32912D01*
X65951Y32646D01*
X66218Y32912D01*
Y33445D01*
X66485D02*
Y32646D01*
X66884D01*
X67018Y32779D01*
Y33312D01*
X66884Y33445D01*
X66485D01*
X67284Y33312D02*
X67418Y33445D01*
X67684D01*
X67818Y33312D01*
Y33179D01*
X67684Y33045D01*
X67818Y32912D01*
Y32779D01*
X67684Y32646D01*
X67418D01*
X67284Y32779D01*
Y32912D01*
X67418Y33045D01*
X67284Y33179D01*
Y33312D01*
X67418Y33045D02*
X67684D01*
X55446Y33471D02*
Y32937D01*
X55712Y32671D01*
X55979Y32937D01*
Y33471D01*
X56245D02*
Y32671D01*
X56645D01*
X56779Y32804D01*
Y33337D01*
X56645Y33471D01*
X56245D01*
X57045D02*
X57578D01*
Y33337D01*
X57045Y32804D01*
Y32671D01*
X55017Y18596D02*
Y18063D01*
X55283Y17796D01*
X55550Y18063D01*
Y18596D01*
X55817D02*
Y17796D01*
X56216D01*
X56350Y17929D01*
Y18462D01*
X56216Y18596D01*
X55817D01*
X57150D02*
X56883Y18462D01*
X56616Y18196D01*
Y17929D01*
X56750Y17796D01*
X57016D01*
X57150Y17929D01*
Y18063D01*
X57016Y18196D01*
X56616D01*
X65634Y18561D02*
Y18028D01*
X65901Y17761D01*
X66167Y18028D01*
Y18561D01*
X66434D02*
Y17761D01*
X66834D01*
X66967Y17894D01*
Y18428D01*
X66834Y18561D01*
X66434D01*
X67767D02*
X67234D01*
Y18161D01*
X67500Y18294D01*
X67633D01*
X67767Y18161D01*
Y17894D01*
X67633Y17761D01*
X67367D01*
X67234Y17894D01*
X45644Y1403D02*
Y1936D01*
X45511Y2069D01*
X45244D01*
X45111Y1936D01*
Y1403D01*
X45244Y1269D01*
X45511D01*
X45377Y1536D02*
X45644Y1269D01*
X45511D02*
X45644Y1403D01*
X45910Y1269D02*
X46177D01*
X46044D01*
Y2069D01*
X45910Y1936D01*
X30938Y20466D02*
Y19666D01*
X31338D01*
X31471Y19799D01*
Y20333D01*
X31338Y20466D01*
X30938D01*
X31737D02*
Y19666D01*
X32137D01*
X32271Y19799D01*
Y20333D01*
X32137Y20466D01*
X31737D01*
X32537Y20333D02*
X32670Y20466D01*
X32937D01*
X33070Y20333D01*
Y20199D01*
X32937Y20066D01*
X32804D01*
X32937D01*
X33070Y19933D01*
Y19799D01*
X32937Y19666D01*
X32670D01*
X32537Y19799D01*
X30861Y35372D02*
Y34572D01*
X31261D01*
X31395Y34706D01*
Y35239D01*
X31261Y35372D01*
X30861D01*
X31661D02*
Y34572D01*
X32061D01*
X32194Y34706D01*
Y35239D01*
X32061Y35372D01*
X31661D01*
X32994Y34572D02*
X32461D01*
X32994Y35106D01*
Y35239D01*
X32861Y35372D01*
X32594D01*
X32461Y35239D01*
X30868Y50347D02*
Y49547D01*
X31268D01*
X31401Y49680D01*
Y50213D01*
X31268Y50347D01*
X30868D01*
X31668D02*
Y49547D01*
X32067D01*
X32201Y49680D01*
Y50213D01*
X32067Y50347D01*
X31668D01*
X32467Y49547D02*
X32734D01*
X32601D01*
Y50347D01*
X32467Y50213D01*
X12427Y17776D02*
X11628D01*
Y18176D01*
X11761Y18309D01*
X12028D01*
X12161Y18176D01*
Y17776D01*
Y18042D02*
X12427Y18309D01*
X11761Y18576D02*
X11628Y18709D01*
Y18976D01*
X11761Y19109D01*
X11894D01*
X12028Y18976D01*
Y18842D01*
Y18976D01*
X12161Y19109D01*
X12294D01*
X12427Y18976D01*
Y18709D01*
X12294Y18576D01*
Y19375D02*
X12427Y19509D01*
Y19775D01*
X12294Y19909D01*
X11761D01*
X11628Y19775D01*
Y19509D01*
X11761Y19375D01*
X11894D01*
X12028Y19509D01*
Y19909D01*
X90391Y26086D02*
X89591D01*
Y26486D01*
X89725Y26619D01*
X89991D01*
X90124Y26486D01*
Y26086D01*
Y26353D02*
X90391Y26619D01*
X89725Y26886D02*
X89591Y27019D01*
Y27286D01*
X89725Y27419D01*
X89858D01*
X89991Y27286D01*
Y27153D01*
Y27286D01*
X90124Y27419D01*
X90258D01*
X90391Y27286D01*
Y27019D01*
X90258Y26886D01*
X89591Y28219D02*
X89725Y27952D01*
X89991Y27686D01*
X90258D01*
X90391Y27819D01*
Y28086D01*
X90258Y28219D01*
X90124D01*
X89991Y28086D01*
Y27686D01*
X80231Y25883D02*
X79431D01*
Y26283D01*
X79565Y26416D01*
X79831D01*
X79964Y26283D01*
Y25883D01*
Y26150D02*
X80231Y26416D01*
X79565Y26683D02*
X79431Y26816D01*
Y27083D01*
X79565Y27216D01*
X79698D01*
X79831Y27083D01*
Y26949D01*
Y27083D01*
X79964Y27216D01*
X80098D01*
X80231Y27083D01*
Y26816D01*
X80098Y26683D01*
X79431Y27483D02*
Y28016D01*
X79565D01*
X80098Y27483D01*
X80231D01*
X83926Y22297D02*
X83127D01*
Y22697D01*
X83260Y22831D01*
X83526D01*
X83660Y22697D01*
Y22297D01*
Y22564D02*
X83926Y22831D01*
X83127Y23630D02*
Y23097D01*
X83526D01*
X83393Y23364D01*
Y23497D01*
X83526Y23630D01*
X83793D01*
X83926Y23497D01*
Y23230D01*
X83793Y23097D01*
X61037Y29039D02*
Y29838D01*
X61437D01*
X61570Y29705D01*
Y29439D01*
X61437Y29305D01*
X61037D01*
X61303D02*
X61570Y29039D01*
X62370D02*
X61836D01*
X62370Y29572D01*
Y29705D01*
X62236Y29838D01*
X61970D01*
X61836Y29705D01*
X63036Y29039D02*
Y29838D01*
X62636Y29439D01*
X63169D01*
X38456Y743D02*
Y1543D01*
X38856D01*
X38989Y1410D01*
Y1143D01*
X38856Y1010D01*
X38456D01*
X38723D02*
X38989Y743D01*
X39656D02*
Y1543D01*
X39256Y1143D01*
X39789D01*
X40056Y1410D02*
X40189Y1543D01*
X40455D01*
X40589Y1410D01*
Y876D01*
X40455Y743D01*
X40189D01*
X40056Y876D01*
Y1410D01*
X55424Y24137D02*
Y24936D01*
X55824D01*
X55957Y24803D01*
Y24536D01*
X55824Y24403D01*
X55424D01*
X55690D02*
X55957Y24137D01*
X56757D02*
X56224D01*
X56757Y24670D01*
Y24803D01*
X56624Y24936D01*
X56357D01*
X56224Y24803D01*
X57557Y24936D02*
X57290Y24803D01*
X57023Y24536D01*
Y24270D01*
X57157Y24137D01*
X57423D01*
X57557Y24270D01*
Y24403D01*
X57423Y24536D01*
X57023D01*
X61062Y21724D02*
Y22523D01*
X61462D01*
X61595Y22390D01*
Y22123D01*
X61462Y21990D01*
X61062D01*
X61329D02*
X61595Y21724D01*
X62395D02*
X61862D01*
X62395Y22257D01*
Y22390D01*
X62262Y22523D01*
X61995D01*
X61862Y22390D01*
X62662D02*
X62795Y22523D01*
X63061D01*
X63195Y22390D01*
Y22257D01*
X63061Y22123D01*
X62928D01*
X63061D01*
X63195Y21990D01*
Y21857D01*
X63061Y21724D01*
X62795D01*
X62662Y21857D01*
X8281Y6120D02*
Y6920D01*
X8681D01*
X8814Y6787D01*
Y6520D01*
X8681Y6387D01*
X8281D01*
X8547D02*
X8814Y6120D01*
X9081Y6787D02*
X9214Y6920D01*
X9480D01*
X9614Y6787D01*
Y6654D01*
X9480Y6520D01*
X9347D01*
X9480D01*
X9614Y6387D01*
Y6254D01*
X9480Y6120D01*
X9214D01*
X9081Y6254D01*
X9880Y6787D02*
X10014Y6920D01*
X10280D01*
X10414Y6787D01*
Y6654D01*
X10280Y6520D01*
X10414Y6387D01*
Y6254D01*
X10280Y6120D01*
X10014D01*
X9880Y6254D01*
Y6387D01*
X10014Y6520D01*
X9880Y6654D01*
Y6787D01*
X10014Y6520D02*
X10280D01*
X13046Y34360D02*
X12247D01*
Y34760D01*
X12380Y34893D01*
X12646D01*
X12780Y34760D01*
Y34360D01*
Y34626D02*
X13046Y34893D01*
X12380Y35160D02*
X12247Y35293D01*
Y35559D01*
X12380Y35693D01*
X12513D01*
X12646Y35559D01*
Y35426D01*
Y35559D01*
X12780Y35693D01*
X12913D01*
X13046Y35559D01*
Y35293D01*
X12913Y35160D01*
X12247Y36492D02*
Y35959D01*
X12646D01*
X12513Y36226D01*
Y36359D01*
X12646Y36492D01*
X12913D01*
X13046Y36359D01*
Y36093D01*
X12913Y35959D01*
X76699Y12300D02*
Y13100D01*
X77099D01*
X77232Y12967D01*
Y12700D01*
X77099Y12567D01*
X76699D01*
X76965D02*
X77232Y12300D01*
X77499D02*
X77765D01*
X77632D01*
Y13100D01*
X77499Y12967D01*
X78165Y13100D02*
X78698D01*
Y12967D01*
X78165Y12433D01*
Y12300D01*
X83875Y17094D02*
X83076D01*
Y17493D01*
X83209Y17627D01*
X83476D01*
X83609Y17493D01*
Y17094D01*
Y17360D02*
X83875Y17627D01*
Y17893D02*
Y18160D01*
Y18027D01*
X83076D01*
X83209Y17893D01*
X83875Y18560D02*
Y18826D01*
Y18693D01*
X83076D01*
X83209Y18560D01*
X10201Y47131D02*
Y47930D01*
X10601D01*
X10735Y47797D01*
Y47530D01*
X10601Y47397D01*
X10201D01*
X10468D02*
X10735Y47131D01*
X11001Y47797D02*
X11135Y47930D01*
X11401D01*
X11534Y47797D01*
Y47664D01*
X11401Y47530D01*
X11268D01*
X11401D01*
X11534Y47397D01*
Y47264D01*
X11401Y47131D01*
X11135D01*
X11001Y47264D01*
X12201Y47131D02*
Y47930D01*
X11801Y47530D01*
X12334D01*
X15939Y16987D02*
X15805Y17120D01*
X15539D01*
X15406Y16987D01*
Y16454D01*
X15539Y16320D01*
X15805D01*
X15939Y16454D01*
X16205Y16320D02*
X16472D01*
X16339D01*
Y17120D01*
X16205Y16987D01*
X17405Y17120D02*
X16872D01*
Y16720D01*
X17138Y16853D01*
X17272D01*
X17405Y16720D01*
Y16454D01*
X17272Y16320D01*
X17005D01*
X16872Y16454D01*
X23786Y46254D02*
X23652Y46120D01*
Y45854D01*
X23786Y45720D01*
X24319D01*
X24452Y45854D01*
Y46120D01*
X24319Y46254D01*
X24452Y47053D02*
Y46520D01*
X23919Y47053D01*
X23786D01*
X23652Y46920D01*
Y46654D01*
X23786Y46520D01*
X24452Y47720D02*
X23652D01*
X24052Y47320D01*
Y47853D01*
X27950Y19962D02*
X27817Y19829D01*
Y19562D01*
X27950Y19429D01*
X28483D01*
X28616Y19562D01*
Y19829D01*
X28483Y19962D01*
X27950Y20228D02*
X27817Y20362D01*
Y20628D01*
X27950Y20762D01*
X28083D01*
X28217Y20628D01*
Y20495D01*
Y20628D01*
X28350Y20762D01*
X28483D01*
X28616Y20628D01*
Y20362D01*
X28483Y20228D01*
X28616Y21561D02*
Y21028D01*
X28083Y21561D01*
X27950D01*
X27817Y21428D01*
Y21161D01*
X27950Y21028D01*
X23111Y40434D02*
X22977Y40301D01*
Y40034D01*
X23111Y39901D01*
X23644D01*
X23777Y40034D01*
Y40301D01*
X23644Y40434D01*
X23777Y40701D02*
Y40967D01*
Y40834D01*
X22977D01*
X23111Y40701D01*
X23644Y41367D02*
X23777Y41501D01*
Y41767D01*
X23644Y41900D01*
X23111D01*
X22977Y41767D01*
Y41501D01*
X23111Y41367D01*
X23244D01*
X23377Y41501D01*
Y41900D01*
X20532Y11732D02*
X20399Y11865D01*
X20133D01*
X19999Y11732D01*
Y11199D01*
X20133Y11065D01*
X20399D01*
X20532Y11199D01*
X20799Y11065D02*
X21066D01*
X20932D01*
Y11865D01*
X20799Y11732D01*
X21465D02*
X21599Y11865D01*
X21865D01*
X21999Y11732D01*
Y11599D01*
X21865Y11465D01*
X21999Y11332D01*
Y11199D01*
X21865Y11065D01*
X21599D01*
X21465Y11199D01*
Y11332D01*
X21599Y11465D01*
X21465Y11599D01*
Y11732D01*
X21599Y11465D02*
X21865D01*
X23914Y15904D02*
X23781Y15770D01*
Y15504D01*
X23914Y15370D01*
X24447D01*
X24581Y15504D01*
Y15770D01*
X24447Y15904D01*
X24581Y16703D02*
Y16170D01*
X24048Y16703D01*
X23914D01*
X23781Y16570D01*
Y16303D01*
X23914Y16170D01*
Y16970D02*
X23781Y17103D01*
Y17370D01*
X23914Y17503D01*
X24048D01*
X24181Y17370D01*
Y17236D01*
Y17370D01*
X24314Y17503D01*
X24447D01*
X24581Y17370D01*
Y17103D01*
X24447Y16970D01*
X69514Y28384D02*
X69380Y28518D01*
X69114D01*
X68980Y28384D01*
Y27851D01*
X69114Y27718D01*
X69380D01*
X69514Y27851D01*
X70313Y28518D02*
X70047Y28384D01*
X69780Y28118D01*
Y27851D01*
X69913Y27718D01*
X70180D01*
X70313Y27851D01*
Y27985D01*
X70180Y28118D01*
X69780D01*
X69437Y23381D02*
X69304Y23514D01*
X69037D01*
X68904Y23381D01*
Y22847D01*
X69037Y22714D01*
X69304D01*
X69437Y22847D01*
X70237Y23514D02*
X69704D01*
Y23114D01*
X69970Y23247D01*
X70104D01*
X70237Y23114D01*
Y22847D01*
X70104Y22714D01*
X69837D01*
X69704Y22847D01*
X56740Y27138D02*
X56607Y27271D01*
X56340D01*
X56207Y27138D01*
Y26605D01*
X56340Y26472D01*
X56607D01*
X56740Y26605D01*
X57006Y27138D02*
X57140Y27271D01*
X57406D01*
X57540Y27138D01*
Y27005D01*
X57406Y26871D01*
X57540Y26738D01*
Y26605D01*
X57406Y26472D01*
X57140D01*
X57006Y26605D01*
Y26738D01*
X57140Y26871D01*
X57006Y27005D01*
Y27138D01*
X57140Y26871D02*
X57406D01*
X42094Y13870D02*
X41961Y13736D01*
Y13470D01*
X42094Y13337D01*
X42627D01*
X42760Y13470D01*
Y13736D01*
X42627Y13870D01*
X42094Y14136D02*
X41961Y14270D01*
Y14536D01*
X42094Y14669D01*
X42227D01*
X42360Y14536D01*
Y14403D01*
Y14536D01*
X42494Y14669D01*
X42627D01*
X42760Y14536D01*
Y14270D01*
X42627Y14136D01*
X41961Y15469D02*
Y14936D01*
X42360D01*
X42227Y15203D01*
Y15336D01*
X42360Y15469D01*
X42627D01*
X42760Y15336D01*
Y15069D01*
X42627Y14936D01*
X20803Y42437D02*
X20669Y42571D01*
X20403D01*
X20269Y42437D01*
Y41904D01*
X20403Y41771D01*
X20669D01*
X20803Y41904D01*
X21069Y41771D02*
X21336D01*
X21202D01*
Y42571D01*
X21069Y42437D01*
X22269Y42571D02*
X22002Y42437D01*
X21736Y42171D01*
Y41904D01*
X21869Y41771D01*
X22135D01*
X22269Y41904D01*
Y42038D01*
X22135Y42171D01*
X21736D01*
X89928Y31741D02*
X89794Y31607D01*
Y31341D01*
X89928Y31208D01*
X90461D01*
X90594Y31341D01*
Y31607D01*
X90461Y31741D01*
X90594Y32007D02*
Y32274D01*
Y32141D01*
X89794D01*
X89928Y32007D01*
X90594Y33207D02*
Y32674D01*
X90061Y33207D01*
X89928D01*
X89794Y33074D01*
Y32807D01*
X89928Y32674D01*
X42170Y5437D02*
X42037Y5304D01*
Y5037D01*
X42170Y4904D01*
X42703D01*
X42836Y5037D01*
Y5304D01*
X42703Y5437D01*
X42170Y5704D02*
X42037Y5837D01*
Y6104D01*
X42170Y6237D01*
X42303D01*
X42437Y6104D01*
Y5970D01*
Y6104D01*
X42570Y6237D01*
X42703D01*
X42836Y6104D01*
Y5837D01*
X42703Y5704D01*
X42836Y6903D02*
X42037D01*
X42437Y6503D01*
Y7037D01*
X27908Y44120D02*
X27775Y43986D01*
Y43720D01*
X27908Y43586D01*
X28441D01*
X28574Y43720D01*
Y43986D01*
X28441Y44120D01*
X28574Y44919D02*
Y44386D01*
X28041Y44919D01*
X27908D01*
X27775Y44786D01*
Y44519D01*
X27908Y44386D01*
Y45186D02*
X27775Y45319D01*
Y45586D01*
X27908Y45719D01*
X28041D01*
X28174Y45586D01*
X28308Y45719D01*
X28441D01*
X28574Y45586D01*
Y45319D01*
X28441Y45186D01*
X28308D01*
X28174Y45319D01*
X28041Y45186D01*
X27908D01*
X28174Y45319D02*
Y45586D01*
X27117Y10012D02*
X26984Y9879D01*
Y9612D01*
X27117Y9479D01*
X27650D01*
X27783Y9612D01*
Y9879D01*
X27650Y10012D01*
X27117Y10279D02*
X26984Y10412D01*
Y10679D01*
X27117Y10812D01*
X27250D01*
X27384Y10679D01*
Y10545D01*
Y10679D01*
X27517Y10812D01*
X27650D01*
X27783Y10679D01*
Y10412D01*
X27650Y10279D01*
X27117Y11078D02*
X26984Y11212D01*
Y11478D01*
X27117Y11612D01*
X27250D01*
X27384Y11478D01*
Y11345D01*
Y11478D01*
X27517Y11612D01*
X27650D01*
X27783Y11478D01*
Y11212D01*
X27650Y11078D01*
X22898Y9938D02*
X22765Y9805D01*
Y9538D01*
X22898Y9405D01*
X23431D01*
X23565Y9538D01*
Y9805D01*
X23431Y9938D01*
X23565Y10738D02*
Y10205D01*
X23032Y10738D01*
X22898D01*
X22765Y10604D01*
Y10338D01*
X22898Y10205D01*
X23565Y11004D02*
Y11271D01*
Y11138D01*
X22765D01*
X22898Y11004D01*
X25295Y42374D02*
X25162Y42241D01*
Y41974D01*
X25295Y41841D01*
X25828D01*
X25962Y41974D01*
Y42241D01*
X25828Y42374D01*
X25962Y43174D02*
Y42641D01*
X25428Y43174D01*
X25295D01*
X25162Y43041D01*
Y42774D01*
X25295Y42641D01*
X25162Y43974D02*
Y43441D01*
X25562D01*
X25428Y43707D01*
Y43840D01*
X25562Y43974D01*
X25828D01*
X25962Y43840D01*
Y43574D01*
X25828Y43441D01*
X19025Y38714D02*
X18892Y38580D01*
Y38314D01*
X19025Y38180D01*
X19558D01*
X19691Y38314D01*
Y38580D01*
X19558Y38714D01*
X19691Y38980D02*
Y39247D01*
Y39114D01*
X18892D01*
X19025Y38980D01*
X19691Y39647D02*
Y39913D01*
Y39780D01*
X18892D01*
X19025Y39647D01*
X27302Y40444D02*
X27168Y40311D01*
Y40044D01*
X27302Y39911D01*
X27835D01*
X27968Y40044D01*
Y40311D01*
X27835Y40444D01*
X27968Y41244D02*
Y40710D01*
X27435Y41244D01*
X27302D01*
X27168Y41110D01*
Y40844D01*
X27302Y40710D01*
X27835Y41510D02*
X27968Y41643D01*
Y41910D01*
X27835Y42043D01*
X27302D01*
X27168Y41910D01*
Y41643D01*
X27302Y41510D01*
X27435D01*
X27568Y41643D01*
Y42043D01*
X15521Y47926D02*
X15388Y48059D01*
X15121D01*
X14988Y47926D01*
Y47393D01*
X15121Y47260D01*
X15388D01*
X15521Y47393D01*
X15788Y47260D02*
X16054D01*
X15921D01*
Y48059D01*
X15788Y47926D01*
X16454D02*
X16587Y48059D01*
X16854D01*
X16987Y47926D01*
Y47393D01*
X16854Y47260D01*
X16587D01*
X16454Y47393D01*
Y47926D01*
X28018Y29404D02*
X27885Y29271D01*
Y29004D01*
X28018Y28871D01*
X28551D01*
X28684Y29004D01*
Y29271D01*
X28551Y29404D01*
X28018Y29670D02*
X27885Y29804D01*
Y30070D01*
X28018Y30204D01*
X28151D01*
X28284Y30070D01*
Y29937D01*
Y30070D01*
X28418Y30204D01*
X28551D01*
X28684Y30070D01*
Y29804D01*
X28551Y29670D01*
X28018Y30470D02*
X27885Y30603D01*
Y30870D01*
X28018Y31003D01*
X28551D01*
X28684Y30870D01*
Y30603D01*
X28551Y30470D01*
X28018D01*
X79488Y31667D02*
X79355Y31534D01*
Y31267D01*
X79488Y31134D01*
X80021D01*
X80155Y31267D01*
Y31534D01*
X80021Y31667D01*
X80155Y31934D02*
Y32200D01*
Y32067D01*
X79355D01*
X79488Y31934D01*
Y32600D02*
X79355Y32733D01*
Y33000D01*
X79488Y33133D01*
X79622D01*
X79755Y33000D01*
Y32867D01*
Y33000D01*
X79888Y33133D01*
X80021D01*
X80155Y33000D01*
Y32733D01*
X80021Y32600D01*
X14939Y6408D02*
X14806Y6541D01*
X14539D01*
X14406Y6408D01*
Y5874D01*
X14539Y5741D01*
X14806D01*
X14939Y5874D01*
X15206Y5741D02*
X15472D01*
X15339D01*
Y6541D01*
X15206Y6408D01*
X16272Y5741D02*
Y6541D01*
X15872Y6141D01*
X16405D01*
X24867Y11797D02*
X24734Y11931D01*
X24467D01*
X24334Y11797D01*
Y11264D01*
X24467Y11131D01*
X24734D01*
X24867Y11264D01*
X25667Y11131D02*
X25133D01*
X25667Y11664D01*
Y11797D01*
X25533Y11931D01*
X25267D01*
X25133Y11797D01*
X25933Y11931D02*
X26466D01*
Y11797D01*
X25933Y11264D01*
Y11131D01*
X24186Y31156D02*
X24052Y31023D01*
Y30756D01*
X24186Y30623D01*
X24719D01*
X24852Y30756D01*
Y31023D01*
X24719Y31156D01*
X24852Y31956D02*
Y31422D01*
X24319Y31956D01*
X24186D01*
X24052Y31822D01*
Y31556D01*
X24186Y31422D01*
X24852Y32755D02*
Y32222D01*
X24319Y32755D01*
X24186D01*
X24052Y32622D01*
Y32355D01*
X24186Y32222D01*
D31*
X96200Y48000D02*
G03*
X96200Y48000I-2200J0D01*
G01*
Y35500D02*
G03*
X96200Y35500I-2200J0D01*
G01*
Y15500D02*
G03*
X96200Y15500I-2200J0D01*
G01*
Y3000D02*
G03*
X96200Y3000I-2200J0D01*
G01*
X5200Y48000D02*
G03*
X5200Y48000I-2200J0D01*
G01*
Y35500D02*
G03*
X5200Y35500I-2200J0D01*
G01*
Y15500D02*
G03*
X5200Y15500I-2200J0D01*
G01*
Y3000D02*
G03*
X5200Y3000I-2200J0D01*
G01*
D32*
X69912Y48059D02*
X71262D01*
X69912Y45209D02*
X71262D01*
X69912D02*
Y48059D01*
X71262Y45209D02*
Y48059D01*
X69988Y40942D02*
X71338D01*
X69988Y43792D02*
X71338D01*
Y40942D02*
Y43792D01*
X69988Y40942D02*
Y43792D01*
X48590Y45750D02*
Y48250D01*
X61250Y45750D02*
Y48250D01*
X48590D02*
X61250D01*
X48590Y45750D02*
X61250D01*
X71644Y42166D02*
Y48766D01*
X80044D01*
X71644Y42166D02*
X80044D01*
Y48766D01*
X67790Y45750D02*
Y48250D01*
X62750Y45750D02*
X67790D01*
X62750Y48250D02*
X67790D01*
X62750Y45750D02*
Y48250D01*
X28750Y4750D02*
X41410D01*
X28750Y2250D02*
X41410D01*
X28750D02*
Y4750D01*
X41410Y2250D02*
Y4750D01*
X1470Y25500D02*
X9627Y25478D01*
X91614Y25500D02*
X94935D01*
X24041Y10570D02*
X26441D01*
X24041Y5820D02*
Y10570D01*
Y5820D02*
X26441D01*
Y10570D01*
X48475Y31930D02*
X48475Y42563D01*
X49772Y25511D02*
X53093D01*
X61657Y17374D02*
Y17730D01*
Y18492D02*
Y18898D01*
Y17730D02*
Y18492D01*
X61908Y17374D02*
Y18898D01*
Y17374D02*
X64956D01*
Y18898D01*
X61908D02*
X64956D01*
X57933Y17374D02*
Y17730D01*
Y18492D02*
Y18898D01*
Y17730D02*
Y18492D01*
X58184Y17374D02*
Y18898D01*
Y17374D02*
X61232D01*
Y18898D01*
X58184D02*
X61232D01*
X65156Y20269D02*
Y20625D01*
Y19101D02*
Y19507D01*
Y20269D01*
X64905Y19101D02*
Y20625D01*
X61857D02*
X64905D01*
X61857Y19101D02*
Y20625D01*
Y19101D02*
X64905D01*
X61448Y20269D02*
Y20625D01*
Y19101D02*
Y19507D01*
Y20269D01*
X61197Y19101D02*
Y20625D01*
X58149D02*
X61197D01*
X58149Y19101D02*
Y20625D01*
Y19101D02*
X61197D01*
X86962Y29759D02*
X89362D01*
Y34509D01*
X86962D02*
X89362D01*
X86962Y29759D02*
Y34509D01*
X89178Y24925D02*
Y29497D01*
X87146D02*
X89178D01*
X87146Y24925D02*
X89178D01*
X87146D02*
Y29497D01*
X61516Y33423D02*
Y33779D01*
Y32255D02*
Y32661D01*
Y33423D01*
X61265Y32255D02*
Y33779D01*
X58217D02*
X61265D01*
X58217Y32255D02*
Y33779D01*
Y32255D02*
X61265D01*
X58135Y25629D02*
X62707D01*
X58135Y23597D02*
Y25629D01*
X62707Y23597D02*
Y25629D01*
X58135Y23597D02*
X62707D01*
X14052Y9799D02*
X14408D01*
X12884D02*
X13290D01*
X14052D01*
X12884Y10050D02*
X14408D01*
Y13098D01*
X12884D02*
X14408D01*
X12884Y10050D02*
Y13098D01*
X11029Y13263D02*
X11385D01*
X12147D02*
X12553D01*
X11385D02*
X12147D01*
X11029Y13012D02*
X12553D01*
X11029Y9964D02*
Y13012D01*
Y9964D02*
X12553D01*
Y13012D01*
X14974Y16533D02*
Y21105D01*
X12942D02*
X14974D01*
X12942Y16533D02*
X14974D01*
X12942D02*
Y21105D01*
X7762Y7417D02*
X12334D01*
Y9449D01*
X7762Y7417D02*
Y9449D01*
X12334D01*
X13613Y46734D02*
X18363D01*
Y44334D02*
Y46734D01*
X13613Y44334D02*
X18363D01*
X13613D02*
Y46734D01*
X11979Y44149D02*
X12335D01*
X13097D02*
X13503D01*
X12335D02*
X13097D01*
X11979Y43898D02*
X13503D01*
X11979Y40850D02*
Y43898D01*
Y40850D02*
X13503D01*
Y43898D01*
X14900Y40599D02*
X15256D01*
X13732D02*
X14138D01*
X14900D01*
X13732Y40850D02*
X15256D01*
Y43898D01*
X13732D02*
X15256D01*
X13732Y40850D02*
Y43898D01*
X8804Y46591D02*
X13376D01*
X8804Y44559D02*
Y46591D01*
X13376Y44559D02*
Y46591D01*
X8804Y44559D02*
X13376D01*
X13541Y40221D02*
X18291D01*
Y37821D02*
Y40221D01*
X13541Y37821D02*
X18291D01*
X13541D02*
Y40221D01*
X24277Y41399D02*
X26677D01*
X24277Y36649D02*
Y41399D01*
Y36649D02*
X26677D01*
Y41399D01*
X41685Y10146D02*
X43035D01*
X41685Y12996D02*
X43035D01*
Y10146D02*
Y12996D01*
X41685Y10146D02*
Y12996D01*
X40800Y5850D02*
Y19125D01*
X29200Y5850D02*
X40800D01*
X29200D02*
Y19125D01*
X40800D01*
X44000Y25500D02*
X47320D01*
X34973Y570D02*
Y1920D01*
X37823Y570D02*
Y1920D01*
X34973Y570D02*
X37823D01*
X34973Y1920D02*
X37823D01*
X22199Y5846D02*
Y10596D01*
X19799Y5846D02*
X22199D01*
X19799D02*
Y10596D01*
X22199D01*
X26674Y6141D02*
X28024D01*
X26674Y8991D02*
X28024D01*
Y6141D02*
Y8991D01*
X26674Y6141D02*
Y8991D01*
X22458Y6151D02*
X23808D01*
X22458Y9001D02*
X23808D01*
Y6151D02*
Y9001D01*
X22458Y6151D02*
Y9001D01*
X40800Y35850D02*
Y49125D01*
X29200Y35850D02*
X40800D01*
X29200D02*
Y49125D01*
X40800D01*
X47994Y2821D02*
Y17321D01*
X43294Y2821D02*
Y17321D01*
X47994D01*
X43294Y2821D02*
X47994D01*
X41286Y16279D02*
X42636D01*
X41286Y19129D02*
X42636D01*
Y16279D02*
Y19129D01*
X41286Y16279D02*
Y19129D01*
X41216Y31214D02*
X42566D01*
X41216Y34064D02*
X42566D01*
Y31214D02*
Y34064D01*
X41216Y31214D02*
Y34064D01*
Y46253D02*
X42566D01*
X41216Y49103D02*
X42566D01*
Y46253D02*
Y49103D01*
X41216Y46253D02*
Y49103D01*
X48500Y1829D02*
X48500Y18847D01*
X26893Y36644D02*
Y39494D01*
X28243Y36644D02*
Y39494D01*
X26893D02*
X28243D01*
X26893Y36644D02*
X28243D01*
X20069Y41422D02*
X22469D01*
X20069Y36672D02*
Y41422D01*
Y36672D02*
X22469D01*
Y41422D01*
X22702Y36669D02*
Y39519D01*
X24052Y36669D02*
Y39519D01*
X22702D02*
X24052D01*
X22702Y36669D02*
X24052D01*
X25216Y36063D02*
X27616D01*
X25216Y31313D02*
Y36063D01*
Y31313D02*
X27616D01*
Y36063D01*
X27634Y31390D02*
Y34240D01*
X28984Y31390D02*
Y34240D01*
X27634D02*
X28984D01*
X27634Y31390D02*
X28984D01*
X24922Y49103D02*
X27322D01*
X24922Y44353D02*
Y49103D01*
Y44353D02*
X27322D01*
Y49103D01*
X27519Y46253D02*
Y49103D01*
X28869Y46253D02*
Y49103D01*
X27519D02*
X28869D01*
X27519Y46253D02*
X28869D01*
X25199Y18961D02*
X27600D01*
X25199Y14211D02*
Y18961D01*
Y14211D02*
X27600D01*
Y18961D01*
X27592Y16025D02*
Y18875D01*
X28942Y16025D02*
Y18875D01*
X27592D02*
X28942D01*
X27592Y16025D02*
X28942D01*
X58001Y25699D02*
Y28099D01*
Y25699D02*
X62751D01*
Y28099D01*
X58001D02*
X62751D01*
X12938Y13463D02*
Y15863D01*
Y13463D02*
X17688D01*
Y15863D01*
X12938D02*
X17688D01*
X12836Y7087D02*
Y9487D01*
Y7087D02*
X17586D01*
Y9487D01*
X12836D02*
X17586D01*
X80587Y29632D02*
X82987D01*
Y34382D01*
X80587D02*
X82987D01*
X80587Y29632D02*
Y34382D01*
X82803Y24816D02*
Y29388D01*
X80771D02*
X82803D01*
X80771Y24816D02*
X82803D01*
X80771D02*
Y29388D01*
X83391Y29820D02*
X86439D01*
X83391D02*
Y31344D01*
X86439D01*
Y29820D02*
Y31344D01*
X86690Y30226D02*
Y30988D01*
Y29820D02*
Y30226D01*
Y30988D02*
Y31344D01*
X83477Y29573D02*
X86525D01*
Y28049D02*
Y29573D01*
X83477Y28049D02*
X86525D01*
X83477D02*
Y29573D01*
X83226Y28405D02*
Y29167D01*
Y29573D01*
Y28049D02*
Y28405D01*
X15579Y33002D02*
Y37574D01*
X13547D02*
X15579D01*
X13547Y33002D02*
X15579D01*
X13547D02*
Y37574D01*
X29200Y34125D02*
X40800D01*
X29200Y20850D02*
Y34125D01*
Y20850D02*
X40800D01*
Y34125D01*
X58217Y31976D02*
X61265D01*
Y30452D02*
Y31976D01*
X58217Y30452D02*
X61265D01*
X58217D02*
Y31976D01*
X57966Y30808D02*
Y31570D01*
Y31976D01*
Y30452D02*
Y30808D01*
X61866Y31975D02*
X64914D01*
Y30451D02*
Y31975D01*
X61866Y30451D02*
X64914D01*
X61866D02*
Y31975D01*
X61615Y30807D02*
Y31569D01*
Y31975D01*
Y30451D02*
Y30807D01*
X61866Y32255D02*
X64914D01*
X61866D02*
Y33779D01*
X64914D01*
Y32255D02*
Y33779D01*
X65165Y32661D02*
Y33423D01*
Y32255D02*
Y32661D01*
Y33423D02*
Y33779D01*
X65801Y25627D02*
Y30199D01*
X63769D02*
X65801D01*
X63769Y25627D02*
X65801D01*
X63769D02*
Y30199D01*
X66023Y30367D02*
X68423D01*
X66023Y25617D02*
Y30367D01*
Y25617D02*
X68423D01*
Y30367D01*
X65992Y20653D02*
X68392D01*
Y25403D01*
X65992D02*
X68392D01*
X65992Y20653D02*
Y25403D01*
X63737Y20844D02*
Y25416D01*
Y20844D02*
X65769D01*
X63737Y25416D02*
X65769D01*
Y20844D02*
Y25416D01*
X75717Y15748D02*
X80289D01*
X75717Y13716D02*
Y15748D01*
X80289Y13716D02*
Y15748D01*
X75717Y13716D02*
X80289D01*
X80580Y14335D02*
Y18907D01*
Y14335D02*
X82612D01*
X80580Y18907D02*
X82612D01*
Y14335D02*
Y18907D01*
X80605Y19103D02*
Y23675D01*
Y19103D02*
X82637D01*
X80605Y23675D02*
X82637D01*
Y19103D02*
Y23675D01*
X43035Y7376D02*
Y10226D01*
X41685Y7376D02*
Y10226D01*
Y7376D02*
X43035D01*
X41685Y10226D02*
X43035D01*
%TF.MD5,9086bf366da6ebf08f753297d79dfdbd*%
M02*
