%TF.GenerationSoftware,Altium Limited,Altium Designer,21.6.4 (81)*%
G04 Layer_Physical_Order=3*
G04 Layer_Color=16440176*
%FSLAX43Y43*%
%MOMM*%
%TF.SameCoordinates,C39744A4-4465-455E-AB15-BAA165A4C254*%
%TF.FilePolarity,Positive*%
%TF.FileFunction,Copper,L3,Inr,Signal*%
%TF.Part,Single*%
G01*
G75*
%TA.AperFunction,Conductor*%
%ADD23C,0.500*%
%TA.AperFunction,NonConductor*%
%ADD26C,0.254*%
%TA.AperFunction,ComponentPad*%
%ADD27C,1.500*%
%ADD28C,2.000*%
%TA.AperFunction,ViaPad*%
%ADD29C,0.800*%
D23*
X38202Y34798D02*
X84221D01*
X89362Y29657D01*
X70002Y14884D02*
X72949Y11938D01*
X40513Y14884D02*
X70002D01*
X72949Y11938D02*
X81331D01*
X26604Y25595D02*
X26663Y25654D01*
X30734D01*
X38659Y33579D01*
X10871Y11786D02*
X25197D01*
X27813Y14402D02*
X28869D01*
X25197Y11786D02*
X27813Y14402D01*
X10109Y12548D02*
X10871Y11786D01*
X10109Y12548D02*
Y15758D01*
X11699Y17348D02*
X38049D01*
X10109Y15758D02*
X11699Y17348D01*
X38049D02*
X40513Y14884D01*
X82003Y33579D02*
X83915Y31666D01*
X30251Y26848D02*
X38202Y34798D01*
X28550Y26848D02*
X30251D01*
X38659Y33579D02*
X82003D01*
X12423Y39688D02*
X18375Y45640D01*
X28653D01*
D26*
X61708Y3795D02*
X61962Y4049D01*
X62470D01*
X62724Y3795D01*
Y3541D01*
X62470Y3287D01*
X62216D01*
X62470D01*
X62724Y3033D01*
Y2779D01*
X62470Y2525D01*
X61962D01*
X61708Y2779D01*
D27*
X13665Y29108D02*
D03*
X17457Y35595D02*
D03*
X20045Y30714D02*
D03*
X86065Y23618D02*
D03*
X77470Y25552D02*
D03*
X9149Y19666D02*
D03*
X13986Y23343D02*
D03*
X54010Y7090D02*
D03*
X61657Y43231D02*
D03*
X13503Y49608D02*
D03*
X6756Y39822D02*
D03*
X9703Y49078D02*
D03*
X18466Y49327D02*
D03*
X24130Y34544D02*
D03*
X19916Y34064D02*
D03*
X90678Y29632D02*
D03*
X71984Y17094D02*
D03*
X22500Y25500D02*
D03*
Y30580D02*
D03*
Y28040D02*
D03*
Y22960D02*
D03*
Y20420D02*
D03*
X58741Y29253D02*
D03*
X26604Y25595D02*
D03*
X26441Y19990D02*
D03*
X45466D02*
D03*
X26619Y29405D02*
D03*
X23890Y49682D02*
D03*
X69164Y7071D02*
D03*
X3759Y7926D02*
D03*
X24302Y13558D02*
D03*
X18440Y1346D02*
D03*
X11862Y14667D02*
D03*
X27349Y5162D02*
D03*
X81331Y11968D02*
D03*
X45085Y41592D02*
D03*
X45796Y46952D02*
D03*
X60000Y47000D02*
D03*
X57460D02*
D03*
X54920D02*
D03*
X52380D02*
D03*
X49840D02*
D03*
X66540D02*
D03*
X64000D02*
D03*
X40160Y3500D02*
D03*
X37620D02*
D03*
X35080D02*
D03*
X32540D02*
D03*
X30000D02*
D03*
X74500Y30580D02*
D03*
Y28040D02*
D03*
Y25500D02*
D03*
Y22960D02*
D03*
Y20420D02*
D03*
X48500Y20420D02*
D03*
Y22960D02*
D03*
Y25500D02*
D03*
Y28040D02*
D03*
Y30580D02*
D03*
D28*
X69210Y11500D02*
D03*
X54010D02*
D03*
X69210Y39500D02*
D03*
X61610D02*
D03*
D29*
X89362Y29657D02*
D03*
X17780Y37744D02*
D03*
X17678Y7036D02*
D03*
X69367Y45859D02*
D03*
X82880Y44450D02*
D03*
X28869Y13132D02*
D03*
Y14402D02*
D03*
X31852Y11887D02*
D03*
X83915Y31666D02*
D03*
X41237Y7955D02*
D03*
X41250Y39345D02*
D03*
X41257Y24359D02*
D03*
X42360Y10146D02*
D03*
X10109Y12548D02*
D03*
X28550Y26848D02*
D03*
X28778Y10592D02*
D03*
X11582Y6807D02*
D03*
X28550Y28135D02*
D03*
X33020Y31945D02*
D03*
X65938Y21514D02*
D03*
X31648Y30675D02*
D03*
X63195Y24740D02*
D03*
X26746Y42951D02*
D03*
X12423Y39688D02*
D03*
X14567Y47955D02*
D03*
X31648Y41885D02*
D03*
X31547Y40595D02*
D03*
X44856Y38049D02*
D03*
X64390Y32073D02*
D03*
X28869Y15563D02*
D03*
X28653Y45640D02*
D03*
X33934Y21785D02*
D03*
X28442Y24325D02*
D03*
X28697Y23012D02*
D03*
X36673Y44378D02*
D03*
X36646Y29337D02*
D03*
X36627Y14275D02*
D03*
X37620Y43135D02*
D03*
Y28169D02*
D03*
Y13106D02*
D03*
X38583Y41885D02*
D03*
X38594Y26822D02*
D03*
X38583Y11887D02*
D03*
X28626Y43091D02*
D03*
X14783Y28042D02*
D03*
X42636Y16945D02*
D03*
X42621Y31905D02*
D03*
X42621Y46903D02*
D03*
%TF.MD5,f40cc02f29592bac24b2d9188f95eb55*%
M02*
