M48
;Layer_Color=9474304
;FILE_FORMAT=4:3
METRIC,LZ
;TYPE=PLATED
T1F00S00C0.300
T2F00S00C0.900
T3F00S00C1.000
%
T01
X0011582Y0006807
X0017678Y0007036
X0010109Y0012548
X0028869Y0013132
Y0014402
Y0015563
X0028778Y0010592
X0031852Y0011887
X0038583
X003762Y0013106
X0036627Y0014275
X0042636Y0016945
X004236Y0010146
X0041237Y0007955
X0041257Y0024359
X0038594Y0026822
X003762Y0028169
X0036646Y0029337
X0031648Y0030675
X002855Y0028135
Y0026848
X0028442Y0024325
X0028697Y0023012
X0033934Y0021785
X0014783Y0028042
X0063195Y002474
X0065938Y0021514
X0083915Y0031666
X0089362Y0029657
X008288Y004445
X0069367Y0045859
X006439Y0032073
X0042621Y0031905
X0044856Y0038049
X004125Y0039345
X0038583Y0041885
X003762Y0043135
X0036673Y0044378
X0031648Y0041885
X0031547Y0040595
X0028626Y0043091
X0026746Y0042951
X0028653Y004564
X0042621Y0046903
X003302Y0031945
X001778Y0037744
X0012423Y0039688
X0014567Y0047955
T02
X003Y00035
X003254
X003508
X003762
X004016
X00225Y002042
Y002296
Y00255
Y002804
Y003058
X00485Y003058
Y002804
Y00255
Y002296
Y002042
X00745Y002042
Y002296
Y00255
Y002804
Y003058
X006654Y0047
X0064
X006
X005746
X005492
X005238
X004984
T03
X0003759Y0007926
X0011862Y0014667
X0009149Y0019666
X0013986Y0023343
X0013665Y0029108
X0020045Y0030714
X0026619Y0029405
X0026604Y0025595
X0026441Y001999
X0024302Y0013558
X0027349Y0005162
X001844Y0001346
X0045466Y001999
X005401Y00115
Y000709
X0069164Y0007071
X006921Y00115
X0071984Y0017094
X007747Y0025552
X0081331Y0011968
X0058741Y0029253
X0090678Y0029632
X0086065Y0023618
X006921Y00395
X006161
X0061657Y0043231
X0045085Y0041592
X0045796Y0046952
X002389Y0049682
X0018466Y0049327
X0013503Y0049608
X0009703Y0049078
X0006756Y0039822
X0017457Y0035595
X0019916Y0034064
X002413Y0034544
M30
