%TF.GenerationSoftware,Altium Limited,Altium Designer,21.6.4 (81)*%
G04 Layer_Physical_Order=2*
G04 Layer_Color=36540*
%FSLAX43Y43*%
%MOMM*%
%TF.SameCoordinates,C39744A4-4465-455E-AB15-BAA165A4C254*%
%TF.FilePolarity,Positive*%
%TF.FileFunction,Copper,L2,Inr,Signal*%
%TF.Part,Single*%
G01*
G75*
%TA.AperFunction,Conductor*%
%ADD23C,0.500*%
%TA.AperFunction,NonConductor*%
%ADD26C,0.254*%
%TA.AperFunction,ComponentPad*%
%ADD27C,1.500*%
%ADD28C,2.000*%
%TA.AperFunction,ViaPad*%
%ADD29C,0.800*%
D23*
X18529Y36644D02*
X19843D01*
X17457Y35595D02*
X17480D01*
X18529Y36644D01*
X19843D02*
X23794Y40595D01*
X43710Y21785D02*
X47563Y17932D01*
X33934Y21785D02*
X43710D01*
X47563Y17932D02*
X56388D01*
X26562Y29439D02*
X26653D01*
X31580Y34366D01*
X62096D01*
X15951Y10592D02*
X28778D01*
X11684Y14859D02*
X15951Y10592D01*
X65938Y21514D02*
Y24587D01*
X32664Y33299D02*
X57226D01*
X65938Y24587D01*
X23794Y40595D02*
X31547D01*
X44755Y32207D02*
X55950D01*
X43383Y30836D02*
X44755Y32207D01*
X55950D02*
X58741Y29417D01*
X31648Y32283D02*
X32664Y33299D01*
X35001Y30836D02*
X43383D01*
X32301Y28135D02*
X35001Y30836D01*
X28550Y28135D02*
X32301D01*
X38456Y44450D02*
X82880D01*
X37338Y45568D02*
X38456Y44450D01*
X28829Y8865D02*
X31852Y11887D01*
X13640Y8865D02*
X28829D01*
X11582Y6807D02*
X13640Y8865D01*
X35890Y45568D02*
X37338D01*
X34798Y44475D02*
X35890Y45568D01*
X28245Y44475D02*
X34798D01*
X62096Y34366D02*
X64390Y32073D01*
X31648Y30675D02*
Y32283D01*
X56388Y17932D02*
X63195Y24740D01*
X26746Y42951D02*
Y42977D01*
X28245Y44475D01*
X20638Y41885D02*
X31648D01*
X14567Y47955D02*
X20638Y41885D01*
D26*
X60724Y2525D02*
X59708D01*
X60724Y3541D01*
Y3795D01*
X60470Y4049D01*
X59962D01*
X59708Y3795D01*
D27*
X13665Y29108D02*
D03*
X17457Y35595D02*
D03*
X20045Y30714D02*
D03*
X86065Y23618D02*
D03*
X77470Y25552D02*
D03*
X9149Y19666D02*
D03*
X13986Y23343D02*
D03*
X54010Y7090D02*
D03*
X61657Y43231D02*
D03*
X13503Y49608D02*
D03*
X6756Y39822D02*
D03*
X9703Y49078D02*
D03*
X18466Y49327D02*
D03*
X24130Y34544D02*
D03*
X19916Y34064D02*
D03*
X90678Y29632D02*
D03*
X71984Y17094D02*
D03*
X22500Y25500D02*
D03*
Y30580D02*
D03*
Y28040D02*
D03*
Y22960D02*
D03*
Y20420D02*
D03*
X58741Y29253D02*
D03*
X26604Y25595D02*
D03*
X26441Y19990D02*
D03*
X45466D02*
D03*
X26619Y29405D02*
D03*
X23890Y49682D02*
D03*
X69164Y7071D02*
D03*
X3759Y7926D02*
D03*
X24302Y13558D02*
D03*
X18440Y1346D02*
D03*
X11862Y14667D02*
D03*
X27349Y5162D02*
D03*
X81331Y11968D02*
D03*
X45085Y41592D02*
D03*
X45796Y46952D02*
D03*
X60000Y47000D02*
D03*
X57460D02*
D03*
X54920D02*
D03*
X52380D02*
D03*
X49840D02*
D03*
X66540D02*
D03*
X64000D02*
D03*
X40160Y3500D02*
D03*
X37620D02*
D03*
X35080D02*
D03*
X32540D02*
D03*
X30000D02*
D03*
X74500Y30580D02*
D03*
Y28040D02*
D03*
Y25500D02*
D03*
Y22960D02*
D03*
Y20420D02*
D03*
X48500Y20420D02*
D03*
Y22960D02*
D03*
Y25500D02*
D03*
Y28040D02*
D03*
Y30580D02*
D03*
D28*
X69210Y11500D02*
D03*
X54010D02*
D03*
X69210Y39500D02*
D03*
X61610D02*
D03*
D29*
X89362Y29657D02*
D03*
X17780Y37744D02*
D03*
X17678Y7036D02*
D03*
X69367Y45859D02*
D03*
X82880Y44450D02*
D03*
X28869Y13132D02*
D03*
Y14402D02*
D03*
X31852Y11887D02*
D03*
X83915Y31666D02*
D03*
X41237Y7955D02*
D03*
X41250Y39345D02*
D03*
X41257Y24359D02*
D03*
X42360Y10146D02*
D03*
X10109Y12548D02*
D03*
X28550Y26848D02*
D03*
X28778Y10592D02*
D03*
X11582Y6807D02*
D03*
X28550Y28135D02*
D03*
X33020Y31945D02*
D03*
X65938Y21514D02*
D03*
X31648Y30675D02*
D03*
X63195Y24740D02*
D03*
X26746Y42951D02*
D03*
X12423Y39688D02*
D03*
X14567Y47955D02*
D03*
X31648Y41885D02*
D03*
X31547Y40595D02*
D03*
X44856Y38049D02*
D03*
X64390Y32073D02*
D03*
X28869Y15563D02*
D03*
X28653Y45640D02*
D03*
X33934Y21785D02*
D03*
X28442Y24325D02*
D03*
X28697Y23012D02*
D03*
X36673Y44378D02*
D03*
X36646Y29337D02*
D03*
X36627Y14275D02*
D03*
X37620Y43135D02*
D03*
Y28169D02*
D03*
Y13106D02*
D03*
X38583Y41885D02*
D03*
X38594Y26822D02*
D03*
X38583Y11887D02*
D03*
X28626Y43091D02*
D03*
X14783Y28042D02*
D03*
X42636Y16945D02*
D03*
X42621Y31905D02*
D03*
X42621Y46903D02*
D03*
%TF.MD5,794a82831453e5b8711232c3ac8449de*%
M02*
