%TF.GenerationSoftware,Altium Limited,Altium Designer,21.6.4 (81)*%
G04 Layer_Color=0*
%FSLAX43Y43*%
%MOMM*%
%TF.SameCoordinates,C39744A4-4465-455E-AB15-BAA165A4C254*%
%TF.FilePolarity,Positive*%
%TF.FileFunction,Profile,NP*%
%TF.Part,Single*%
G01*
G75*
%TA.AperFunction,Profile*%
%ADD50C,0.025*%
G36*
X1500Y48000D02*
Y47852D01*
X1558Y47562D01*
X1671Y47289D01*
X1835Y47044D01*
X2044Y46835D01*
X2289Y46671D01*
X2562Y46558D01*
X2852Y46500D01*
X3000D01*
X3148D01*
X3438Y46558D01*
X3711Y46671D01*
X3956Y46835D01*
X4165Y47044D01*
X4329Y47289D01*
X4442Y47562D01*
X4500Y47852D01*
Y48000D01*
Y48148D01*
X4442Y48438D01*
X4329Y48711D01*
X4165Y48956D01*
X3956Y49165D01*
X3711Y49329D01*
X3438Y49442D01*
X3148Y49500D01*
X3000D01*
X2852D01*
X2562Y49442D01*
X2289Y49329D01*
X2044Y49165D01*
X1835Y48956D01*
X1671Y48711D01*
X1558Y48438D01*
X1500Y48148D01*
Y48000D01*
D01*
D02*
G37*
G36*
Y3000D02*
Y2852D01*
X1558Y2562D01*
X1671Y2289D01*
X1835Y2044D01*
X2044Y1835D01*
X2289Y1671D01*
X2562Y1558D01*
X2852Y1500D01*
X3000D01*
X3148D01*
X3438Y1558D01*
X3711Y1671D01*
X3956Y1835D01*
X4165Y2044D01*
X4329Y2289D01*
X4442Y2562D01*
X4500Y2852D01*
Y3000D01*
Y3148D01*
X4442Y3438D01*
X4329Y3711D01*
X4165Y3956D01*
X3956Y4165D01*
X3711Y4329D01*
X3438Y4442D01*
X3148Y4500D01*
X3000D01*
X2852D01*
X2562Y4442D01*
X2289Y4329D01*
X2044Y4165D01*
X1835Y3956D01*
X1671Y3711D01*
X1558Y3438D01*
X1500Y3148D01*
Y3000D01*
D01*
D02*
G37*
G36*
X92500D02*
Y2852D01*
X92558Y2562D01*
X92671Y2289D01*
X92835Y2044D01*
X93044Y1835D01*
X93289Y1671D01*
X93562Y1558D01*
X93852Y1500D01*
X94000D01*
X94148D01*
X94438Y1558D01*
X94711Y1671D01*
X94956Y1835D01*
X95165Y2044D01*
X95329Y2289D01*
X95442Y2562D01*
X95500Y2852D01*
Y3000D01*
Y3148D01*
X95442Y3438D01*
X95329Y3711D01*
X95165Y3956D01*
X94956Y4165D01*
X94711Y4329D01*
X94438Y4442D01*
X94148Y4500D01*
X94000D01*
X93852D01*
X93562Y4442D01*
X93289Y4329D01*
X93044Y4165D01*
X92835Y3956D01*
X92671Y3711D01*
X92558Y3438D01*
X92500Y3148D01*
Y3000D01*
D01*
D02*
G37*
G36*
Y48000D02*
Y47852D01*
X92558Y47562D01*
X92671Y47289D01*
X92835Y47044D01*
X93044Y46835D01*
X93289Y46671D01*
X93562Y46558D01*
X93852Y46500D01*
X94000D01*
X94148D01*
X94438Y46558D01*
X94711Y46671D01*
X94956Y46835D01*
X95165Y47044D01*
X95329Y47289D01*
X95442Y47562D01*
X95500Y47852D01*
Y48000D01*
Y48148D01*
X95442Y48438D01*
X95329Y48711D01*
X95165Y48956D01*
X94956Y49165D01*
X94711Y49329D01*
X94438Y49442D01*
X94148Y49500D01*
X94000D01*
X93852D01*
X93562Y49442D01*
X93289Y49329D01*
X93044Y49165D01*
X92835Y48956D01*
X92671Y48711D01*
X92558Y48438D01*
X92500Y48148D01*
Y48000D01*
D01*
D02*
G37*
G36*
Y15500D02*
Y15352D01*
X92558Y15062D01*
X92671Y14789D01*
X92835Y14544D01*
X93044Y14335D01*
X93289Y14171D01*
X93562Y14058D01*
X93852Y14000D01*
X94000D01*
X94148D01*
X94438Y14058D01*
X94711Y14171D01*
X94956Y14335D01*
X95165Y14544D01*
X95329Y14789D01*
X95442Y15062D01*
X95500Y15352D01*
Y15500D01*
Y15648D01*
X95442Y15938D01*
X95329Y16211D01*
X95165Y16456D01*
X94956Y16665D01*
X94711Y16829D01*
X94438Y16942D01*
X94148Y17000D01*
X94000D01*
X93852D01*
X93562Y16942D01*
X93289Y16829D01*
X93044Y16665D01*
X92835Y16456D01*
X92671Y16211D01*
X92558Y15938D01*
X92500Y15648D01*
Y15500D01*
D01*
D02*
G37*
G36*
Y35500D02*
Y35352D01*
X92558Y35062D01*
X92671Y34789D01*
X92835Y34544D01*
X93044Y34335D01*
X93289Y34171D01*
X93562Y34058D01*
X93852Y34000D01*
X94000D01*
X94148D01*
X94438Y34058D01*
X94711Y34171D01*
X94956Y34335D01*
X95165Y34544D01*
X95329Y34789D01*
X95442Y35062D01*
X95500Y35352D01*
Y35500D01*
Y35648D01*
X95442Y35938D01*
X95329Y36211D01*
X95165Y36456D01*
X94956Y36665D01*
X94711Y36829D01*
X94438Y36942D01*
X94148Y37000D01*
X94000D01*
X93852D01*
X93562Y36942D01*
X93289Y36829D01*
X93044Y36665D01*
X92835Y36456D01*
X92671Y36211D01*
X92558Y35938D01*
X92500Y35648D01*
Y35500D01*
D01*
D02*
G37*
G36*
X1500Y15500D02*
Y15352D01*
X1558Y15062D01*
X1671Y14789D01*
X1835Y14544D01*
X2044Y14335D01*
X2289Y14171D01*
X2562Y14058D01*
X2852Y14000D01*
X3000D01*
X3148D01*
X3438Y14058D01*
X3711Y14171D01*
X3956Y14335D01*
X4165Y14544D01*
X4329Y14789D01*
X4442Y15062D01*
X4500Y15352D01*
Y15500D01*
Y15648D01*
X4442Y15938D01*
X4329Y16211D01*
X4165Y16456D01*
X3956Y16665D01*
X3711Y16829D01*
X3438Y16942D01*
X3148Y17000D01*
X3000D01*
X2852D01*
X2562Y16942D01*
X2289Y16829D01*
X2044Y16665D01*
X1835Y16456D01*
X1671Y16211D01*
X1558Y15938D01*
X1500Y15648D01*
Y15500D01*
D01*
D02*
G37*
G36*
Y35500D02*
Y35352D01*
X1558Y35062D01*
X1671Y34789D01*
X1835Y34544D01*
X2044Y34335D01*
X2289Y34171D01*
X2562Y34058D01*
X2852Y34000D01*
X3000D01*
X3148D01*
X3438Y34058D01*
X3711Y34171D01*
X3956Y34335D01*
X4165Y34544D01*
X4329Y34789D01*
X4442Y35062D01*
X4500Y35352D01*
Y35500D01*
Y35648D01*
X4442Y35938D01*
X4329Y36211D01*
X4165Y36456D01*
X3956Y36665D01*
X3711Y36829D01*
X3438Y36942D01*
X3148Y37000D01*
X3000D01*
X2852D01*
X2562Y36942D01*
X2289Y36829D01*
X2044Y36665D01*
X1835Y36456D01*
X1671Y36211D01*
X1558Y35938D01*
X1500Y35648D01*
Y35500D01*
D01*
D02*
G37*
D50*
X0Y2500D02*
X-0Y48500D01*
D02*
G02*
X2500Y51000I2500J-0D01*
G01*
X94500Y51000D01*
D02*
G02*
X97000Y48500I0J-2500D01*
G01*
X97000Y2504D01*
D02*
G02*
X94500Y4I-2500J0D01*
G01*
Y-0D01*
X2515D01*
X2500Y0D01*
D02*
G02*
X0Y2500I0J2500D01*
G01*
%TF.MD5,12a070487de354ee9dd9fe799181f9db*%
M02*
