%TF.GenerationSoftware,Altium Limited,Altium Designer,21.6.4 (81)*%
G04 Layer_Color=128*
%FSLAX43Y43*%
%MOMM*%
%TF.SameCoordinates,C39744A4-4465-455E-AB15-BAA165A4C254*%
%TF.FilePolarity,Positive*%
%TF.FileFunction,Paste,Bot*%
%TF.Part,Single*%
G01*
G75*
%TA.AperFunction,SMDPad,CuDef*%
%ADD13R,1.800X1.300*%
%ADD15R,1.600X1.000*%
%ADD16R,1.000X1.600*%
%ADD17R,1.250X0.800*%
%ADD18R,1.300X1.800*%
%ADD20R,0.850X0.900*%
D13*
X13516Y4027D02*
D03*
Y6877D02*
D03*
X14951Y43491D02*
D03*
Y46341D02*
D03*
D15*
X77648Y40031D02*
D03*
Y43231D02*
D03*
Y35458D02*
D03*
Y38658D02*
D03*
Y30709D02*
D03*
Y33909D02*
D03*
X81331Y20955D02*
D03*
Y24155D02*
D03*
X81305Y25553D02*
D03*
Y28753D02*
D03*
Y33960D02*
D03*
Y30760D02*
D03*
X16277Y31293D02*
D03*
Y28093D02*
D03*
X14148Y17145D02*
D03*
Y20345D02*
D03*
X81331Y19558D02*
D03*
Y16358D02*
D03*
X20989Y11929D02*
D03*
Y15129D02*
D03*
X15959Y3877D02*
D03*
Y7077D02*
D03*
X10379Y38227D02*
D03*
Y35027D02*
D03*
X81305Y38658D02*
D03*
Y35458D02*
D03*
Y43231D02*
D03*
Y40031D02*
D03*
X17339Y43285D02*
D03*
Y46485D02*
D03*
D16*
X19243Y17170D02*
D03*
X16043D02*
D03*
X15629Y9084D02*
D03*
X18829D02*
D03*
X14054D02*
D03*
X10854D02*
D03*
X10710Y33103D02*
D03*
X13910D02*
D03*
X12386Y38582D02*
D03*
X15586D02*
D03*
X17196Y38582D02*
D03*
X20396D02*
D03*
D17*
X22294Y8745D02*
D03*
Y6745D02*
D03*
X20541Y6685D02*
D03*
Y8685D02*
D03*
X7341Y6636D02*
D03*
Y8636D02*
D03*
X9119Y8661D02*
D03*
Y6661D02*
D03*
X9118Y5064D02*
D03*
Y3064D02*
D03*
X7391Y3038D02*
D03*
Y5038D02*
D03*
X20541Y2961D02*
D03*
Y4961D02*
D03*
X22295Y5012D02*
D03*
Y3012D02*
D03*
X10547Y43522D02*
D03*
Y41522D02*
D03*
X24002Y43646D02*
D03*
Y41646D02*
D03*
X8743Y45132D02*
D03*
Y47132D02*
D03*
X23952Y47256D02*
D03*
Y45256D02*
D03*
X22143D02*
D03*
Y47256D02*
D03*
X22198Y41563D02*
D03*
Y43563D02*
D03*
X8743Y41497D02*
D03*
Y43497D02*
D03*
X10547Y47133D02*
D03*
Y45133D02*
D03*
D18*
X18758Y11495D02*
D03*
X15908D02*
D03*
X30134Y22060D02*
D03*
X32984D02*
D03*
X33038Y27961D02*
D03*
X30188D02*
D03*
X13766Y11495D02*
D03*
X10916D02*
D03*
X17446Y41027D02*
D03*
X20296D02*
D03*
X12459Y41039D02*
D03*
X15309D02*
D03*
D20*
X33259Y25806D02*
D03*
X31709D02*
D03*
X33286Y24169D02*
D03*
X31736D02*
D03*
%TF.MD5,12a7050a47561b8dd0e11b6089dd1a90*%
M02*
