%TF.GenerationSoftware,Altium Limited,Altium Designer,21.6.4 (81)*%
G04 Layer_Color=16711935*
%FSLAX43Y43*%
%MOMM*%
%TF.SameCoordinates,C39744A4-4465-455E-AB15-BAA165A4C254*%
%TF.FilePolarity,Negative*%
%TF.FileFunction,Soldermask,Bot*%
%TF.Part,Single*%
G01*
G75*
%TA.AperFunction,NonConductor*%
%ADD33R,8.204X2.515*%
%TA.AperFunction,SMDPad,CuDef*%
%ADD34R,1.320X1.820*%
%ADD35R,1.620X1.020*%
%ADD36R,0.870X0.920*%
%ADD37R,1.280X0.830*%
%ADD38R,1.820X1.320*%
%ADD39R,1.020X1.620*%
%TA.AperFunction,ComponentPad*%
%ADD40C,1.703*%
%ADD41C,1.520*%
%ADD42C,2.020*%
D33*
X61201Y3239D02*
D03*
D34*
X18758Y11495D02*
D03*
X15908D02*
D03*
X30134Y22060D02*
D03*
X32984D02*
D03*
X33038Y27961D02*
D03*
X30188D02*
D03*
X13766Y11495D02*
D03*
X10916D02*
D03*
X17446Y41027D02*
D03*
X20296D02*
D03*
X12459Y41039D02*
D03*
X15309D02*
D03*
D35*
X77648Y40031D02*
D03*
Y43231D02*
D03*
Y35458D02*
D03*
Y38658D02*
D03*
Y30709D02*
D03*
Y33909D02*
D03*
X81331Y20955D02*
D03*
Y24155D02*
D03*
X81305Y25553D02*
D03*
Y28753D02*
D03*
Y33960D02*
D03*
Y30760D02*
D03*
X16277Y31293D02*
D03*
Y28093D02*
D03*
X14148Y17145D02*
D03*
Y20345D02*
D03*
X81331Y19558D02*
D03*
Y16358D02*
D03*
X20989Y11929D02*
D03*
Y15129D02*
D03*
X15959Y3877D02*
D03*
Y7077D02*
D03*
X10379Y38227D02*
D03*
Y35027D02*
D03*
X81305Y38658D02*
D03*
Y35458D02*
D03*
Y43231D02*
D03*
Y40031D02*
D03*
X17339Y43285D02*
D03*
Y46485D02*
D03*
D36*
X33259Y25806D02*
D03*
X31709D02*
D03*
X33286Y24169D02*
D03*
X31736D02*
D03*
D37*
X22294Y8745D02*
D03*
Y6745D02*
D03*
X20541Y6685D02*
D03*
Y8685D02*
D03*
X7341Y6636D02*
D03*
Y8636D02*
D03*
X9119Y8661D02*
D03*
Y6661D02*
D03*
X9118Y5064D02*
D03*
Y3064D02*
D03*
X7391Y3038D02*
D03*
Y5038D02*
D03*
X20541Y2961D02*
D03*
Y4961D02*
D03*
X22295Y5012D02*
D03*
Y3012D02*
D03*
X10547Y43522D02*
D03*
Y41522D02*
D03*
X24002Y43646D02*
D03*
Y41646D02*
D03*
X8743Y45132D02*
D03*
Y47132D02*
D03*
X23952Y47256D02*
D03*
Y45256D02*
D03*
X22143D02*
D03*
Y47256D02*
D03*
X22198Y41563D02*
D03*
Y43563D02*
D03*
X8743Y41497D02*
D03*
Y43497D02*
D03*
X10547Y47133D02*
D03*
Y45133D02*
D03*
D38*
X13516Y4027D02*
D03*
Y6877D02*
D03*
X14951Y43491D02*
D03*
Y46341D02*
D03*
D39*
X19243Y17170D02*
D03*
X16043D02*
D03*
X15629Y9084D02*
D03*
X18829D02*
D03*
X14054D02*
D03*
X10854D02*
D03*
X10710Y33103D02*
D03*
X13910D02*
D03*
X12386Y38582D02*
D03*
X15586D02*
D03*
X17196Y38582D02*
D03*
X20396D02*
D03*
D40*
X13665Y29108D02*
D03*
X17457Y35595D02*
D03*
X20045Y30714D02*
D03*
X86065Y23618D02*
D03*
X77470Y25552D02*
D03*
X9149Y19666D02*
D03*
X13986Y23343D02*
D03*
X54010Y7090D02*
D03*
X61657Y43231D02*
D03*
X13503Y49608D02*
D03*
X6756Y39822D02*
D03*
X9703Y49078D02*
D03*
X18466Y49327D02*
D03*
X24130Y34544D02*
D03*
X19916Y34064D02*
D03*
X90678Y29632D02*
D03*
X71984Y17094D02*
D03*
X58741Y29253D02*
D03*
X26604Y25595D02*
D03*
X26441Y19990D02*
D03*
X45466D02*
D03*
X26619Y29405D02*
D03*
X23890Y49682D02*
D03*
X69164Y7071D02*
D03*
X3759Y7926D02*
D03*
X24302Y13558D02*
D03*
X18440Y1346D02*
D03*
X11862Y14667D02*
D03*
X27349Y5162D02*
D03*
X81331Y11968D02*
D03*
X45085Y41592D02*
D03*
X45796Y46952D02*
D03*
D41*
X22500Y25500D02*
D03*
Y30580D02*
D03*
Y28040D02*
D03*
Y22960D02*
D03*
Y20420D02*
D03*
X60000Y47000D02*
D03*
X57460D02*
D03*
X54920D02*
D03*
X52380D02*
D03*
X49840D02*
D03*
X66540D02*
D03*
X64000D02*
D03*
X40160Y3500D02*
D03*
X37620D02*
D03*
X35080D02*
D03*
X32540D02*
D03*
X30000D02*
D03*
X74500Y30580D02*
D03*
Y28040D02*
D03*
Y25500D02*
D03*
Y22960D02*
D03*
Y20420D02*
D03*
X48500Y20420D02*
D03*
Y22960D02*
D03*
Y25500D02*
D03*
Y28040D02*
D03*
Y30580D02*
D03*
D42*
X69210Y11500D02*
D03*
X54010D02*
D03*
X69210Y39500D02*
D03*
X61610D02*
D03*
%TF.MD5,5aec12ef08fac91412a840c417ad9e73*%
M02*
