%TF.GenerationSoftware,Altium Limited,Altium Designer,21.6.4 (81)*%
G04 Layer_Physical_Order=2*
G04 Layer_Color=16711680*
%FSLAX43Y43*%
%MOMM*%
%TF.SameCoordinates,9BCA014A-4D13-4940-A32C-4131998200A9*%
%TF.FilePolarity,Positive*%
%TF.FileFunction,Copper,L2,Bot,Signal*%
%TF.Part,Single*%
G01*
G75*
%TA.AperFunction,Conductor*%
%ADD13C,1.500*%
%ADD14C,0.800*%
%ADD15C,1.000*%
%ADD16C,2.000*%
%ADD17C,0.500*%
%ADD18C,0.600*%
%ADD19C,1.400*%
%TA.AperFunction,ComponentPad*%
%ADD21C,1.550*%
%ADD22R,1.550X1.550*%
%ADD23C,3.302*%
%ADD24C,4.572*%
%ADD25O,1.778X2.032*%
%ADD26C,1.524*%
%ADD27C,2.200*%
%ADD28O,6.858X4.826*%
%ADD29R,6.858X4.826*%
%ADD30C,3.500*%
%ADD31R,2.200X2.200*%
%ADD32O,1.778X2.286*%
%ADD33O,3.100X3.000*%
%ADD34C,3.810*%
%ADD35C,2.286*%
%ADD36C,1.950*%
G04:AMPARAMS|DCode=37|XSize=1.95mm|YSize=1.95mm|CornerRadius=0.488mm|HoleSize=0mm|Usage=FLASHONLY|Rotation=0.000|XOffset=0mm|YOffset=0mm|HoleType=Round|Shape=RoundedRectangle|*
%AMROUNDEDRECTD37*
21,1,1.950,0.975,0,0,0.0*
21,1,0.975,1.950,0,0,0.0*
1,1,0.975,0.488,-0.488*
1,1,0.975,-0.488,-0.488*
1,1,0.975,-0.488,0.488*
1,1,0.975,0.488,0.488*
%
%ADD37ROUNDEDRECTD37*%
%ADD38R,1.600X1.600*%
%ADD39C,1.600*%
%ADD40R,1.400X1.400*%
%ADD41C,1.400*%
%ADD42R,1.250X1.250*%
%ADD43C,1.250*%
%ADD44C,2.032*%
%ADD45C,2.000*%
%ADD46C,3.048*%
%ADD47R,1.200X1.200*%
%ADD48C,1.200*%
%ADD49R,1.400X1.400*%
%ADD50O,7.500X6.500*%
%ADD51C,4.064*%
%ADD52O,8.000X6.500*%
%ADD53O,5.588X5.080*%
%ADD54C,8.000*%
%ADD55O,6.000X6.600*%
%ADD56C,8.890*%
%ADD57O,2.159X1.778*%
%ADD58C,1.500*%
G04:AMPARAMS|DCode=59|XSize=1.5mm|YSize=1.5mm|CornerRadius=0.375mm|HoleSize=0mm|Usage=FLASHONLY|Rotation=180.000|XOffset=0mm|YOffset=0mm|HoleType=Round|Shape=RoundedRectangle|*
%AMROUNDEDRECTD59*
21,1,1.500,0.750,0,0,180.0*
21,1,0.750,1.500,0,0,180.0*
1,1,0.750,-0.375,0.375*
1,1,0.750,0.375,0.375*
1,1,0.750,0.375,-0.375*
1,1,0.750,-0.375,-0.375*
%
%ADD59ROUNDEDRECTD59*%
%ADD60C,2.800*%
%ADD61R,2.800X2.800*%
%ADD62R,1.300X1.300*%
%ADD63C,1.300*%
%TA.AperFunction,ViaPad*%
%ADD64C,1.800*%
%ADD65C,0.800*%
%ADD66C,1.000*%
%ADD67C,1.200*%
%TA.AperFunction,SMDPad,CuDef*%
%ADD68R,3.200X1.720*%
%ADD69R,1.659X0.627*%
G04:AMPARAMS|DCode=70|XSize=1.659mm|YSize=0.627mm|CornerRadius=0.313mm|HoleSize=0mm|Usage=FLASHONLY|Rotation=180.000|XOffset=0mm|YOffset=0mm|HoleType=Round|Shape=RoundedRectangle|*
%AMROUNDEDRECTD70*
21,1,1.659,0.000,0,0,180.0*
21,1,1.032,0.627,0,0,180.0*
1,1,0.627,-0.516,0.000*
1,1,0.627,0.516,0.000*
1,1,0.627,0.516,0.000*
1,1,0.627,-0.516,0.000*
%
%ADD70ROUNDEDRECTD70*%
%ADD71R,0.800X1.250*%
G04:AMPARAMS|DCode=72|XSize=1.55mm|YSize=0.6mm|CornerRadius=0.051mm|HoleSize=0mm|Usage=FLASHONLY|Rotation=90.000|XOffset=0mm|YOffset=0mm|HoleType=Round|Shape=RoundedRectangle|*
%AMROUNDEDRECTD72*
21,1,1.550,0.498,0,0,90.0*
21,1,1.448,0.600,0,0,90.0*
1,1,0.102,0.249,0.724*
1,1,0.102,0.249,-0.724*
1,1,0.102,-0.249,-0.724*
1,1,0.102,-0.249,0.724*
%
%ADD72ROUNDEDRECTD72*%
%ADD73R,0.543X1.874*%
G04:AMPARAMS|DCode=74|XSize=1.874mm|YSize=0.543mm|CornerRadius=0.272mm|HoleSize=0mm|Usage=FLASHONLY|Rotation=90.000|XOffset=0mm|YOffset=0mm|HoleType=Round|Shape=RoundedRectangle|*
%AMROUNDEDRECTD74*
21,1,1.874,0.000,0,0,90.0*
21,1,1.331,0.543,0,0,90.0*
1,1,0.543,0.000,0.665*
1,1,0.543,0.000,-0.665*
1,1,0.543,0.000,-0.665*
1,1,0.543,0.000,0.665*
%
%ADD74ROUNDEDRECTD74*%
%ADD75R,2.200X2.500*%
%ADD76R,1.250X0.800*%
%ADD77R,0.950X1.450*%
%ADD78R,1.016X3.050*%
%ADD79R,10.660X8.380*%
%ADD80R,1.405X2.806*%
%ADD81R,0.950X0.900*%
%ADD82R,0.900X0.950*%
%ADD83R,1.450X0.950*%
%TA.AperFunction,Conductor*%
%ADD84C,4.000*%
%ADD85C,1.200*%
%ADD86R,11.557X20.701*%
%ADD87R,15.225X2.800*%
G36*
X3195Y149978D02*
X2701Y149682D01*
X2020Y149177D01*
X1392Y148608D01*
X823Y147980D01*
X318Y147299D01*
X172Y147055D01*
X50Y147089D01*
Y150100D01*
X3161D01*
X3195Y149978D01*
D02*
G37*
G36*
X262975Y120475D02*
Y114500D01*
X255950Y107475D01*
X253375D01*
X232600Y86700D01*
X230686D01*
X230100Y87286D01*
Y104925D01*
X232650Y107475D01*
Y121600D01*
X238375D01*
X243025Y116950D01*
X257200Y116950D01*
X259200Y118950D01*
X259200Y120625D01*
X260175Y121600D01*
X261850D01*
X262975Y120475D01*
D02*
G37*
G36*
X138150Y116475D02*
Y104675D01*
X135900Y102425D01*
X110625Y102425D01*
X98100Y89900D01*
X91650Y89900D01*
X89525Y92025D01*
Y116725D01*
X95425Y122625D01*
X98500Y122625D01*
X104400Y116725D01*
X120825D01*
X127150Y123050D01*
X131575D01*
X138150Y116475D01*
D02*
G37*
G36*
X230825Y120600D02*
X230825Y109550D01*
X226825Y105550D01*
X221825Y100550D01*
X205875Y100550D01*
X195800Y90475D01*
Y78200D01*
X205950D01*
X207700Y76450D01*
Y69950D01*
X203350Y65600D01*
X177000D01*
X163425Y52025D01*
X148830D01*
X146730Y54125D01*
Y59845D01*
X145075Y61500D01*
X143750Y61500D01*
X142675Y62575D01*
X142675Y66475D01*
X154400Y78200D01*
X173275D01*
Y87500D01*
X161925Y98850D01*
Y120675D01*
X162925Y121675D01*
X164625D01*
X165800Y120500D01*
X165800Y119250D01*
X169650Y115400D01*
X223475D01*
X226825Y118750D01*
Y120400D01*
X228100Y121675D01*
X229750D01*
X230825Y120600D01*
D02*
G37*
G36*
X39318Y96836D02*
X15050D01*
Y103586D01*
X39318D01*
Y96836D01*
D02*
G37*
G36*
X228398Y86202D02*
X231118Y83482D01*
X231099Y79175D01*
X209650D01*
X208798Y80027D01*
X197998D01*
X197236Y80789D01*
Y88757D01*
X206152Y97673D01*
X228398D01*
X228398Y86202D01*
D02*
G37*
G36*
X268550Y95425D02*
X268550Y74425D01*
X261250Y67125D01*
X252350D01*
X251651Y67824D01*
X252626Y68799D01*
X252724Y68746D01*
X253149Y68618D01*
X253591Y68574D01*
X254091D01*
X254533Y68618D01*
X254958Y68746D01*
X255349Y68956D01*
X255693Y69237D01*
X255974Y69581D01*
X256184Y69972D01*
X256312Y70397D01*
X256356Y70839D01*
X256312Y71281D01*
X256184Y71706D01*
X255974Y72097D01*
X255693Y72441D01*
X255349Y72722D01*
X254958Y72932D01*
X254533Y73060D01*
X254091Y73104D01*
X253591D01*
X253149Y73060D01*
X252724Y72932D01*
X252333Y72722D01*
X251989Y72441D01*
X251708Y72097D01*
X251499Y71706D01*
X251370Y71281D01*
X251326Y70839D01*
X251370Y70397D01*
X251499Y69972D01*
X251551Y69874D01*
X250576Y68899D01*
X249650Y69825D01*
Y99325D01*
X255525Y105200D01*
X258775D01*
X268550Y95425D01*
D02*
G37*
G36*
X341675Y120150D02*
Y111275D01*
X324100Y93700D01*
Y69450D01*
X322125Y67475D01*
X312225D01*
X309225Y70475D01*
Y84150D01*
X309225Y96375D01*
X334750Y121900D01*
X339925D01*
X341675Y120150D01*
D02*
G37*
G36*
X28725Y117025D02*
X45125Y117025D01*
X50300Y122200D01*
X54543D01*
X59841Y117025D01*
X74425Y117025D01*
X85425Y106025D01*
X85425Y101475D01*
X85425D01*
Y92550D01*
X109600Y68375D01*
X128525D01*
X137300Y59600D01*
X137300Y53950D01*
X140425Y50825D01*
X143809D01*
X154894Y40263D01*
Y35694D01*
X153300Y34100D01*
X130625D01*
X121300Y43425D01*
X110071Y43425D01*
X71650Y81314D01*
Y99100D01*
X67175Y103575D01*
X43450D01*
X41025Y106000D01*
X24775Y106000D01*
X17999Y112776D01*
Y122824D01*
X22926D01*
X28725Y117025D01*
D02*
G37*
G36*
X419450Y91650D02*
Y85650D01*
X409650Y75850D01*
Y68200D01*
X423650Y54200D01*
Y41775D01*
X417825Y35950D01*
X411025D01*
X407575Y32500D01*
Y25700D01*
Y19075D01*
X404175Y15675D01*
X394050D01*
X390300Y19425D01*
Y68750D01*
X376800Y82250D01*
X358425D01*
X350825Y89850D01*
X350825Y92175D01*
X351975Y93325D01*
X417775Y93325D01*
X419450Y91650D01*
D02*
G37*
G36*
X372527Y121750D02*
X374225Y120052D01*
Y113150D01*
X362350Y101275D01*
X353050Y101275D01*
X349100Y97325D01*
X349100Y87600D01*
X356575Y80125D01*
X356575Y18150D01*
X345325Y6900D01*
X316375D01*
X309400Y13875D01*
Y16425D01*
X312550Y19575D01*
X322100Y19575D01*
X325975Y23450D01*
Y92425D01*
X348600Y115050D01*
X360975D01*
X367675Y121750D01*
X372527Y121750D01*
D02*
G37*
G36*
X7500Y148863D02*
X136250Y148863D01*
Y124125D01*
X16200D01*
X12775Y120700D01*
Y96525D01*
X14837Y94463D01*
X14850Y94475D01*
X54641D01*
Y87746D01*
X15971D01*
X13275Y85050D01*
X13275Y79575D01*
X34175Y58675D01*
Y5900D01*
X25975D01*
Y51100D01*
X13275Y63800D01*
Y72250D01*
X8000Y77525D01*
Y87450D01*
X1137Y94313D01*
X1137Y142500D01*
X1137Y142500D01*
X1137D01*
X1137Y142627D01*
X1170Y143213D01*
X1289Y143918D01*
X1487Y144604D01*
X1761Y145264D01*
X2106Y145889D01*
X2519Y146472D01*
X2996Y147005D01*
X3528Y147481D01*
X4111Y147894D01*
X4736Y148239D01*
X5396Y148513D01*
X6082Y148711D01*
X6787Y148830D01*
X7462Y148868D01*
X7500Y148863D01*
D02*
G37*
G36*
X39125Y74175D02*
X45400Y67900D01*
Y5924D01*
X45310Y5834D01*
X36400Y5863D01*
Y61375D01*
X17950Y79825D01*
Y84875D01*
X39125D01*
Y74175D01*
D02*
G37*
G36*
X5750Y85752D02*
Y68000D01*
X14438Y59312D01*
X23425Y50325D01*
X23425Y5650D01*
X14000D01*
Y41500D01*
X625Y54875D01*
Y68000D01*
Y90711D01*
X742Y90759D01*
X5750Y85752D01*
D02*
G37*
G36*
X289036Y111694D02*
X289169D01*
Y111584D01*
X289036D01*
Y111350D01*
X288917D01*
Y111584D01*
X288492D01*
Y111694D01*
X288939Y112326D01*
X289036D01*
Y111694D01*
D02*
G37*
G36*
X288064Y112325D02*
X288076D01*
X288106Y112323D01*
X288137Y112319D01*
X288171Y112315D01*
X288202Y112308D01*
X288217Y112303D01*
X288230Y112299D01*
X288232D01*
X288233Y112298D01*
X288241Y112294D01*
X288254Y112288D01*
X288270Y112278D01*
X288287Y112265D01*
X288305Y112248D01*
X288322Y112229D01*
X288339Y112206D01*
Y112205D01*
X288340Y112203D01*
X288346Y112195D01*
X288351Y112181D01*
X288360Y112162D01*
X288367Y112141D01*
X288374Y112116D01*
X288378Y112089D01*
X288380Y112059D01*
Y112058D01*
Y112055D01*
Y112050D01*
X288378Y112043D01*
Y112033D01*
X288377Y112023D01*
X288371Y111999D01*
X288363Y111971D01*
X288351Y111941D01*
X288334Y111911D01*
X288323Y111897D01*
X288312Y111883D01*
X288310Y111882D01*
X288309Y111880D01*
X288305Y111876D01*
X288299Y111872D01*
X288292Y111866D01*
X288284Y111861D01*
X288272Y111854D01*
X288261Y111845D01*
X288247Y111838D01*
X288232Y111831D01*
X288215Y111823D01*
X288196Y111816D01*
X288175Y111810D01*
X288154Y111803D01*
X288130Y111799D01*
X288105Y111794D01*
X288107Y111793D01*
X288113Y111790D01*
X288122Y111785D01*
X288133Y111779D01*
X288158Y111763D01*
X288171Y111754D01*
X288182Y111745D01*
X288185Y111742D01*
X288192Y111735D01*
X288203Y111724D01*
X288217Y111710D01*
X288233Y111690D01*
X288251Y111669D01*
X288270Y111644D01*
X288289Y111615D01*
X288457Y111350D01*
X288296D01*
X288168Y111553D01*
Y111555D01*
X288165Y111558D01*
X288162Y111562D01*
X288158Y111567D01*
X288148Y111583D01*
X288136Y111603D01*
X288120Y111624D01*
X288105Y111646D01*
X288089Y111668D01*
X288075Y111687D01*
X288074Y111689D01*
X288069Y111694D01*
X288062Y111703D01*
X288053Y111713D01*
X288031Y111734D01*
X288020Y111744D01*
X288009Y111752D01*
X288007Y111754D01*
X288005Y111755D01*
X287999Y111758D01*
X287990Y111762D01*
X287982Y111766D01*
X287972Y111771D01*
X287950Y111778D01*
X287948D01*
X287945Y111779D01*
X287940D01*
X287933Y111780D01*
X287923Y111782D01*
X287912D01*
X287896Y111783D01*
X287730D01*
Y111350D01*
X287600D01*
Y112326D01*
X288053D01*
X288064Y112325D01*
D02*
G37*
G36*
X289638Y112329D02*
X289657Y112326D01*
X289678Y112322D01*
X289700Y112316D01*
X289724Y112309D01*
X289747Y112298D01*
X289748D01*
X289750Y112296D01*
X289757Y112292D01*
X289768Y112285D01*
X289782Y112275D01*
X289798Y112261D01*
X289815Y112246D01*
X289830Y112227D01*
X289846Y112206D01*
X289847Y112203D01*
X289853Y112196D01*
X289858Y112184D01*
X289868Y112165D01*
X289877Y112144D01*
X289888Y112120D01*
X289898Y112092D01*
X289906Y112061D01*
Y112059D01*
X289908Y112057D01*
X289909Y112052D01*
X289910Y112045D01*
X289912Y112037D01*
X289913Y112027D01*
X289916Y112014D01*
X289918Y112000D01*
X289920Y111985D01*
X289922Y111968D01*
X289923Y111948D01*
X289926Y111928D01*
X289927Y111906D01*
Y111883D01*
X289929Y111858D01*
Y111831D01*
Y111830D01*
Y111824D01*
Y111814D01*
Y111803D01*
X289927Y111787D01*
Y111771D01*
X289926Y111752D01*
X289925Y111732D01*
X289920Y111687D01*
X289913Y111641D01*
X289905Y111596D01*
X289899Y111575D01*
X289892Y111553D01*
Y111552D01*
X289891Y111549D01*
X289888Y111544D01*
X289885Y111536D01*
X289882Y111527D01*
X289877Y111517D01*
X289865Y111493D01*
X289851Y111467D01*
X289833Y111439D01*
X289812Y111414D01*
X289786Y111390D01*
X289785D01*
X289784Y111387D01*
X289779Y111384D01*
X289774Y111381D01*
X289767Y111377D01*
X289760Y111372D01*
X289738Y111362D01*
X289713Y111352D01*
X289684Y111342D01*
X289648Y111336D01*
X289610Y111333D01*
X289596D01*
X289586Y111335D01*
X289575Y111336D01*
X289561Y111339D01*
X289545Y111342D01*
X289528Y111346D01*
X289512Y111352D01*
X289493Y111357D01*
X289475Y111366D01*
X289457Y111376D01*
X289438Y111387D01*
X289420Y111401D01*
X289403Y111417D01*
X289388Y111434D01*
X289386Y111435D01*
X289383Y111439D01*
X289379Y111446D01*
X289372Y111458D01*
X289365Y111470D01*
X289358Y111487D01*
X289348Y111507D01*
X289340Y111529D01*
X289331Y111555D01*
X289323Y111584D01*
X289314Y111617D01*
X289307Y111653D01*
X289300Y111693D01*
X289296Y111735D01*
X289293Y111782D01*
X289292Y111831D01*
Y111833D01*
Y111838D01*
Y111848D01*
Y111859D01*
X289293Y111875D01*
Y111892D01*
X289294Y111910D01*
X289296Y111931D01*
X289300Y111975D01*
X289307Y112021D01*
X289316Y112068D01*
X289321Y112089D01*
X289327Y112110D01*
Y112112D01*
X289328Y112114D01*
X289331Y112120D01*
X289334Y112127D01*
X289337Y112137D01*
X289342Y112147D01*
X289354Y112171D01*
X289368Y112196D01*
X289386Y112223D01*
X289407Y112250D01*
X289433Y112272D01*
X289434D01*
X289435Y112275D01*
X289440Y112278D01*
X289445Y112281D01*
X289452Y112286D01*
X289461Y112291D01*
X289482Y112302D01*
X289507Y112312D01*
X289537Y112322D01*
X289572Y112327D01*
X289610Y112330D01*
X289623D01*
X289638Y112329D01*
D02*
G37*
%LPC*%
G36*
X123625Y60906D02*
X116575D01*
Y54194D01*
X123625D01*
Y60906D01*
D02*
G37*
G36*
X333850Y80100D02*
X331500Y77750D01*
Y74000D01*
X333550Y71950D01*
X344200D01*
X346825Y74575D01*
Y77250D01*
X343975Y80100D01*
X333850Y80100D01*
D02*
G37*
G36*
Y69850D02*
X331500Y67500D01*
Y63750D01*
X333550Y61700D01*
X344200D01*
X346825Y64325D01*
Y67000D01*
X343975Y69850D01*
X333850Y69850D01*
D02*
G37*
G36*
X333854Y59844D02*
X331504Y57494D01*
Y53744D01*
X333554Y51694D01*
X344204D01*
X346829Y54319D01*
Y56994D01*
X343979Y59844D01*
X333854Y59844D01*
D02*
G37*
G36*
X333799Y44343D02*
X331449Y41993D01*
Y38243D01*
X333499Y36193D01*
X344149D01*
X346774Y38818D01*
Y41493D01*
X343924Y44343D01*
X333799Y44343D01*
D02*
G37*
G36*
X333850Y34350D02*
X331500Y32000D01*
Y28250D01*
X333550Y26200D01*
X344200D01*
X346825Y28825D01*
Y31500D01*
X343975Y34350D01*
X333850Y34350D01*
D02*
G37*
G36*
Y24100D02*
X331500Y21750D01*
Y18000D01*
X333550Y15950D01*
X344200D01*
X346825Y18575D01*
Y21250D01*
X343975Y24100D01*
X333850Y24100D01*
D02*
G37*
G36*
X7500Y145637D02*
X7009Y145598D01*
X6531Y145483D01*
X6076Y145295D01*
X5656Y145038D01*
X5282Y144718D01*
X4962Y144344D01*
X4705Y143924D01*
X4517Y143469D01*
X4402Y142991D01*
X4363Y142500D01*
X4402Y142009D01*
X4517Y141531D01*
X4705Y141076D01*
X4962Y140656D01*
X5282Y140282D01*
X5656Y139962D01*
X6076Y139705D01*
X6531Y139517D01*
X7009Y139402D01*
X7500Y139363D01*
X7991Y139402D01*
X8469Y139517D01*
X8924Y139705D01*
X9344Y139962D01*
X9718Y140282D01*
X10038Y140656D01*
X10295Y141076D01*
X10483Y141531D01*
X10598Y142009D01*
X10637Y142500D01*
X10598Y142991D01*
X10483Y143469D01*
X10295Y143924D01*
X10038Y144344D01*
X9718Y144718D01*
X9344Y145038D01*
X8924Y145295D01*
X8469Y145483D01*
X7991Y145598D01*
X7500Y145637D01*
D02*
G37*
G36*
X9074Y114362D02*
X8626D01*
X8185Y114292D01*
X7759Y114153D01*
X7361Y113950D01*
X6999Y113687D01*
X6683Y113371D01*
X6420Y113009D01*
X6217Y112611D01*
X6078Y112185D01*
X6009Y111744D01*
Y111296D01*
X6078Y110855D01*
X6217Y110429D01*
X6420Y110031D01*
X6683Y109669D01*
X6999Y109353D01*
X7361Y109090D01*
X7759Y108887D01*
X8185Y108748D01*
X8626Y108678D01*
X9074D01*
X9515Y108748D01*
X9941Y108887D01*
X10339Y109090D01*
X10701Y109353D01*
X11017Y109669D01*
X11280Y110031D01*
X11483Y110429D01*
X11622Y110855D01*
X11691Y111296D01*
Y111744D01*
X11622Y112185D01*
X11483Y112611D01*
X11280Y113009D01*
X11017Y113371D01*
X10701Y113687D01*
X10339Y113950D01*
X9941Y114153D01*
X9515Y114292D01*
X9074Y114362D01*
D02*
G37*
G36*
X288917Y112131D02*
X288609Y111694D01*
X288917D01*
Y112131D01*
D02*
G37*
G36*
X288037Y112217D02*
X287730D01*
Y111895D01*
X288020D01*
X288037Y111896D01*
X288057Y111897D01*
X288079Y111899D01*
X288102Y111902D01*
X288124Y111906D01*
X288144Y111911D01*
X288147Y111913D01*
X288153Y111916D01*
X288161Y111920D01*
X288172Y111926D01*
X288185Y111934D01*
X288198Y111944D01*
X288210Y111957D01*
X288220Y111971D01*
X288222Y111972D01*
X288224Y111978D01*
X288229Y111986D01*
X288234Y111997D01*
X288239Y112010D01*
X288243Y112024D01*
X288246Y112041D01*
X288247Y112058D01*
Y112059D01*
Y112061D01*
X288246Y112069D01*
X288244Y112082D01*
X288241Y112099D01*
X288234Y112116D01*
X288226Y112136D01*
X288213Y112154D01*
X288196Y112172D01*
X288193Y112174D01*
X288186Y112179D01*
X288175Y112186D01*
X288157Y112195D01*
X288136Y112203D01*
X288107Y112210D01*
X288075Y112216D01*
X288037Y112217D01*
D02*
G37*
G36*
X289609Y112231D02*
X289600D01*
X289595Y112230D01*
X289579Y112227D01*
X289561Y112223D01*
X289540Y112215D01*
X289517Y112202D01*
X289506Y112193D01*
X289495Y112185D01*
X289485Y112174D01*
X289475Y112161D01*
Y112160D01*
X289472Y112157D01*
X289469Y112151D01*
X289465Y112144D01*
X289461Y112133D01*
X289455Y112120D01*
X289451Y112105D01*
X289445Y112086D01*
X289440Y112065D01*
X289434Y112041D01*
X289428Y112014D01*
X289424Y111985D01*
X289420Y111951D01*
X289417Y111914D01*
X289416Y111875D01*
X289414Y111831D01*
Y111828D01*
Y111821D01*
Y111809D01*
X289416Y111792D01*
Y111773D01*
X289417Y111751D01*
X289419Y111727D01*
X289421Y111701D01*
X289428Y111646D01*
X289433Y111620D01*
X289438Y111594D01*
X289444Y111570D01*
X289452Y111548D01*
X289461Y111528D01*
X289471Y111511D01*
Y111510D01*
X289473Y111508D01*
X289481Y111498D01*
X289493Y111486D01*
X289509Y111472D01*
X289530Y111458D01*
X289554Y111445D01*
X289581Y111435D01*
X289595Y111434D01*
X289610Y111432D01*
X289619D01*
X289624Y111434D01*
X289638Y111436D01*
X289658Y111442D01*
X289679Y111452D01*
X289703Y111466D01*
X289715Y111474D01*
X289726Y111486D01*
X289737Y111497D01*
X289748Y111511D01*
Y111513D01*
X289751Y111515D01*
X289754Y111520D01*
X289757Y111527D01*
X289762Y111536D01*
X289767Y111549D01*
X289772Y111563D01*
X289778Y111580D01*
X289782Y111601D01*
X289788Y111624D01*
X289793Y111651D01*
X289798Y111679D01*
X289801Y111713D01*
X289803Y111748D01*
X289806Y111787D01*
Y111831D01*
Y111833D01*
Y111834D01*
Y111841D01*
Y111854D01*
X289805Y111871D01*
Y111889D01*
X289803Y111911D01*
X289802Y111935D01*
X289799Y111962D01*
X289792Y112016D01*
X289788Y112043D01*
X289782Y112068D01*
X289777Y112092D01*
X289768Y112114D01*
X289760Y112134D01*
X289750Y112151D01*
Y112153D01*
X289747Y112154D01*
X289744Y112158D01*
X289740Y112164D01*
X289727Y112176D01*
X289712Y112192D01*
X289691Y112206D01*
X289667Y112219D01*
X289654Y112224D01*
X289640Y112229D01*
X289624Y112230D01*
X289609Y112231D01*
D02*
G37*
%LPD*%
D13*
X108575Y5700D02*
X124575D01*
X99300D02*
X108575D01*
X108581Y5706D01*
Y8200D01*
X169675Y19650D02*
X176628D01*
X138525D02*
X169675D01*
X169821Y16334D02*
Y19504D01*
X169675Y19650D02*
X169821Y19504D01*
Y16334D02*
X169955Y16200D01*
X176628Y19650D02*
X179775Y22797D01*
X127125Y8250D02*
X138525Y19650D01*
X266300Y119785D02*
Y123425D01*
X201325Y119642D02*
Y123075D01*
X124575Y5700D02*
X127125Y8250D01*
X98421Y6579D02*
X99300Y5700D01*
X98421Y6579D02*
Y8200D01*
X111121Y5750D02*
Y8200D01*
X229500Y15100D02*
X233525D01*
X236375Y17950D02*
Y20425D01*
X233525Y15100D02*
X236375Y17950D01*
X94738Y8200D02*
X98421D01*
X179675Y8025D02*
X179767Y8117D01*
X177850Y7250D02*
X177950Y7350D01*
X179000D01*
X177850Y7225D02*
Y7250D01*
X261526Y126000D02*
X263725D01*
X266300Y123425D01*
X231540Y125660D02*
X234334Y122866D01*
Y119865D02*
Y122866D01*
X229526Y126000D02*
X229573Y125952D01*
Y125660D02*
Y125952D01*
Y125660D02*
X231540D01*
X234630Y119910D02*
X234675Y119865D01*
Y118774D02*
Y119865D01*
X196873Y125610D02*
Y125952D01*
Y125610D02*
X198790D01*
X196826Y126000D02*
X196873Y125952D01*
X198790Y125610D02*
X201325Y123075D01*
D14*
X84552Y8227D02*
Y10123D01*
Y8227D02*
X84578Y8200D01*
X84525Y10150D02*
X84552Y10123D01*
D15*
X166719Y32819D02*
X175360Y41460D01*
X163025Y28875D02*
X166719Y32569D01*
Y32819D01*
X205875Y27825D02*
Y36427D01*
Y38125D01*
X175360Y41460D02*
X199340D01*
X136175Y28875D02*
X163025D01*
X125875D02*
X136175D01*
X199340Y41460D02*
X201650Y39150D01*
X204850D01*
X205875Y38125D01*
X202225Y24175D02*
X205875Y27825D01*
X175575Y45675D02*
X198300D01*
X160950Y31050D02*
X175575Y45675D01*
X202212Y14163D02*
Y24163D01*
X198125Y33875D02*
X200677Y36427D01*
X176825Y33875D02*
X198125D01*
X200752Y36352D02*
Y36760D01*
X231475Y25157D02*
X231680Y25362D01*
X231475Y23575D02*
Y25157D01*
X231374Y28600D02*
X231446Y28528D01*
Y25921D02*
X231680Y25687D01*
X231446Y25921D02*
Y28528D01*
X231680Y25362D02*
Y25687D01*
X240350Y24700D02*
Y33689D01*
X232025Y34275D02*
X239764D01*
X218300Y48000D02*
X232025Y34275D01*
X239764D02*
X240350Y33689D01*
X200625Y48000D02*
X218300D01*
X158075Y138075D02*
X220075D01*
X229323Y126202D02*
Y128827D01*
X220075Y138075D02*
X229323Y128827D01*
Y126202D02*
X229526Y126000D01*
X226424D02*
Y126701D01*
X217625Y135500D02*
X226424Y126701D01*
X158500Y135500D02*
X217625D01*
X193724Y125700D02*
Y126701D01*
X193522Y126903D02*
X193724Y126701D01*
X187375Y132850D02*
X193322Y126903D01*
X159175Y132850D02*
X187375D01*
X193322Y126903D02*
X193522D01*
X326125Y1825D02*
X409025D01*
X324825Y3125D02*
X326125Y1825D01*
X409025D02*
X412300Y5100D01*
X77450Y11225D02*
Y19782D01*
X92800Y23750D02*
Y24750D01*
X97925Y29875D01*
Y36550D01*
X89450Y27521D02*
X91879Y29950D01*
X89450Y24975D02*
Y27521D01*
X91879Y29950D02*
X95325D01*
X246800Y64048D02*
X253591Y70839D01*
X246800Y52325D02*
Y64048D01*
X71100Y18596D02*
X72150Y19646D01*
X71100Y15100D02*
Y18596D01*
X72150Y19646D02*
Y19825D01*
X85550Y19300D02*
Y43775D01*
X84325Y45000D02*
X85550Y43775D01*
X71425Y45000D02*
X84325D01*
X85200Y46825D02*
X87625Y44400D01*
X70925Y46825D02*
X85200D01*
X87625Y20000D02*
Y44400D01*
X60765Y36665D02*
X70925Y46825D01*
X60550Y34125D02*
X71425Y45000D01*
X58978Y34125D02*
X60550D01*
X58978Y36665D02*
X60765D01*
X60855Y39205D02*
X62750Y41100D01*
X58978Y39205D02*
X60855D01*
X62750Y41100D02*
Y54750D01*
X58829Y39056D02*
X58978Y39205D01*
X90225Y20700D02*
X91300Y21775D01*
X92825D01*
X56175Y5700D02*
X79750D01*
X81788Y7738D01*
X67525Y11225D02*
X77375D01*
X66250Y10000D02*
X67500Y11250D01*
X88550Y12100D02*
X88550Y12100D01*
Y13000D01*
X84750Y12125D02*
X85725Y13100D01*
X85725D01*
X82038Y8200D02*
Y13547D01*
X83100Y14609D01*
X92825Y21775D02*
Y23500D01*
X80020Y18180D02*
X83100Y15100D01*
X79990Y19782D02*
X80020Y19752D01*
Y18180D02*
Y19752D01*
X77450Y19782D02*
Y39975D01*
X161550Y125900D02*
Y126683D01*
X74888Y19803D02*
X74910Y19782D01*
X72150Y19825D02*
X72172Y19803D01*
X74888D01*
X81788Y7950D02*
X82013Y8175D01*
X81788Y7738D02*
Y7950D01*
X118210Y36540D02*
X125875Y28875D01*
X61935Y7813D02*
X62410Y8288D01*
X122125Y8250D02*
Y27475D01*
X118175Y31425D02*
X122125Y27475D01*
X118158Y31442D02*
X118175Y31425D01*
X128050Y31050D02*
X160950D01*
X113550Y36540D02*
X118210D01*
X111121Y9996D02*
X113725Y12600D01*
X106850Y14267D02*
Y15925D01*
Y14267D02*
X111121Y9996D01*
Y8200D02*
Y9996D01*
X94975Y18250D02*
Y19950D01*
X224400Y15100D02*
X226963D01*
X224400D02*
X224400D01*
X94975Y17700D02*
Y18250D01*
X103345Y31406D02*
Y31460D01*
X108439D01*
X102900Y30961D02*
X103345Y31406D01*
X102900Y27300D02*
Y30961D01*
X183175Y6675D02*
Y8025D01*
X184725Y5125D02*
X186825D01*
X183175Y6675D02*
X184725Y5125D01*
X229600Y15200D02*
Y20425D01*
X229500Y15100D02*
X229600Y15200D01*
X226963Y15100D02*
X229500D01*
X226963Y15062D02*
Y15100D01*
X234500Y20425D02*
Y21025D01*
X235650Y22175D01*
X237825D01*
X240350Y24700D01*
X65817Y23933D02*
X65900Y23850D01*
X59011Y23933D02*
X65817D01*
X113725Y12600D02*
Y15775D01*
X58978Y54445D02*
X59127Y54594D01*
X59867D01*
X62600Y54600D02*
X62750Y54750D01*
X59867Y54594D02*
X59874Y54600D01*
X62600D01*
X62750Y54750D02*
Y62625D01*
X60770Y64605D02*
X62750Y62625D01*
X58978Y64605D02*
X60770D01*
X56531Y39056D02*
X58829D01*
X55231Y37756D02*
X56531Y39056D01*
X55200Y36500D02*
X55231Y36531D01*
Y37756D01*
X119525Y39575D02*
X128050Y31050D01*
X85550Y19300D02*
X92000Y12850D01*
X87625Y20000D02*
X92625Y15000D01*
X92198Y8200D02*
Y9527D01*
X88550Y10100D02*
X91625D01*
X92198Y9527D01*
X66935Y8275D02*
Y9389D01*
Y7813D02*
Y8275D01*
X179775Y12492D02*
Y22797D01*
X176371Y12492D02*
Y19393D01*
X179767Y8117D02*
Y12484D01*
X179000Y7350D02*
X179675Y8025D01*
X198300Y45675D02*
X200625Y48000D01*
X104616Y36591D02*
X107600Y39575D01*
X119525D01*
X103345Y36540D02*
X103396Y36591D01*
X104616D01*
X165680Y22730D02*
X176825Y33875D01*
X163620Y25270D02*
X175180Y36830D01*
X190250D01*
X154000Y22730D02*
X165680D01*
X154000Y25270D02*
X163620D01*
X231475Y20425D02*
X234500D01*
X93950Y16675D02*
X94975Y17700D01*
X92625Y15000D02*
X99355D01*
X99455Y15100D01*
X103475D01*
X92000Y12850D02*
X100975D01*
X94825Y20534D02*
X94850Y20509D01*
X94825Y20534D02*
Y21800D01*
X94850Y20075D02*
Y20509D01*
X234500Y23575D02*
Y28576D01*
Y23575D02*
X236375D01*
X171450Y9325D02*
Y11925D01*
X171440Y7200D02*
Y9325D01*
X177025D01*
X200250Y16275D02*
Y16400D01*
X200225Y16250D02*
X200250Y16275D01*
X199375Y16250D02*
X200225D01*
X181477Y12492D02*
Y15327D01*
X183175Y8025D02*
X183177Y8027D01*
Y12490D01*
X113550Y31460D02*
X113567Y31442D01*
X118158D01*
X108447Y36533D02*
X109967D01*
X109975Y36525D01*
X108439Y36540D02*
X108447Y36533D01*
X66250Y10000D02*
X66324D01*
X62410Y8288D02*
Y9389D01*
X63021Y10000D01*
X63100D01*
X66324Y10000D02*
X66935Y9389D01*
X97925Y36550D02*
X97930Y36545D01*
X103340D01*
X103345Y36540D01*
X51900Y28950D02*
Y62375D01*
Y28950D02*
X56885Y23965D01*
X51900Y62375D02*
X57825Y68300D01*
X72100D01*
X56885Y23965D02*
X58978D01*
X59011Y23933D01*
X72075Y70325D02*
X72100Y70300D01*
X72075Y70325D02*
Y71750D01*
X72100Y70300D02*
X72100Y70300D01*
X299350Y3125D02*
X324825D01*
X419600Y13525D02*
X422875Y16800D01*
X412300Y9225D02*
X416600Y13525D01*
X419600D01*
X412300Y5100D02*
Y9225D01*
X422875Y16800D02*
Y20152D01*
X422052Y20975D02*
X422875Y20152D01*
X420875Y20975D02*
X422052D01*
X417950Y16300D02*
X418025Y16375D01*
X419000D01*
X410025Y25325D02*
X411300D01*
X202813Y7512D02*
X207787D01*
X207800Y7500D01*
X202800Y7525D02*
X202813Y7512D01*
X202212Y24163D02*
X202225Y24175D01*
X202200Y14150D02*
X202212Y14163D01*
X202200Y14150D02*
X206150D01*
X212800Y7500D01*
X145575Y24845D02*
X148405D01*
X150520Y22730D02*
X154000D01*
X148405Y24845D02*
X150520Y22730D01*
X177025Y9325D02*
X178065Y10365D01*
Y12484D01*
X178073Y12492D01*
X173993Y7213D02*
X175837D01*
X175850Y7225D01*
X173980Y7200D02*
X173993Y7213D01*
X182350Y16200D02*
X190895D01*
X181477Y15327D02*
X182350Y16200D01*
X183177Y12490D02*
X183179Y12492D01*
X55200Y33050D02*
Y34500D01*
Y33050D02*
X56665Y31585D01*
X58978D01*
X190691Y122116D02*
X193522Y124947D01*
Y125798D02*
X193724Y126000D01*
X190650Y119232D02*
X190691Y119273D01*
Y122116D01*
X193522Y124947D02*
Y125798D01*
X161122Y125597D02*
X161247D01*
X158511Y119865D02*
Y122986D01*
X161247Y125597D02*
X161550Y125900D01*
X158511Y122986D02*
X161122Y125597D01*
X159486Y126986D02*
X161247D01*
X161550Y126683D01*
X153775Y108075D02*
Y121275D01*
X159486Y126986D01*
X164537Y126613D02*
X164689Y126461D01*
Y124411D02*
X169262Y119838D01*
X164537Y126613D02*
Y128713D01*
X159400Y129900D02*
X163350D01*
X164537Y128713D01*
X149875Y120375D02*
X159400Y129900D01*
X164689Y124411D02*
Y126461D01*
X223775Y123351D02*
X226424Y126000D01*
X223775Y119905D02*
Y123351D01*
X229230Y23945D02*
X229600Y23575D01*
X227981Y25194D02*
Y26469D01*
Y25194D02*
X229230Y23945D01*
X229600Y23575D02*
X231475D01*
X227981Y26469D02*
X227994Y26612D01*
X236375Y23575D02*
X237654Y24854D01*
Y26454D02*
X237900Y26700D01*
X237654Y24854D02*
Y26454D01*
X234476Y28600D02*
X234500Y28576D01*
X245390Y3725D02*
X245392Y3727D01*
X146075Y123075D02*
X158500Y135500D01*
X146075Y107950D02*
Y123075D01*
X143900Y123900D02*
X158075Y138075D01*
X143900Y110575D02*
Y123900D01*
X148000Y121675D02*
X159175Y132850D01*
X148000Y114100D02*
Y121675D01*
X149875Y107900D02*
Y120375D01*
X71220Y62095D02*
X71250Y62125D01*
X58978Y62065D02*
X59008Y62095D01*
D16*
X189850Y59430D02*
X198055Y51225D01*
X203325D01*
X203701Y56350D02*
X204873Y57522D01*
Y75047D01*
X203700Y56350D02*
X203701D01*
X196850Y62700D02*
X203325Y56225D01*
X181845Y62700D02*
X196850D01*
X178175Y59030D02*
X181845Y62700D01*
X245390Y3725D02*
X248800D01*
X220825Y10597D02*
X221997Y9425D01*
X220825Y19100D02*
X222425Y20700D01*
X220825Y10597D02*
Y19100D01*
X221997Y9425D02*
X224455D01*
X224300Y20700D02*
X224400Y20800D01*
X222425Y20700D02*
X224300D01*
X224400Y15100D02*
X227550Y11950D01*
X224542Y3763D02*
X227550Y6771D01*
Y11950D01*
X201600Y3725D02*
X217800D01*
Y7500D01*
Y3725D02*
X224450D01*
X197800Y7525D02*
X201600Y3725D01*
X245392Y4304D02*
Y9423D01*
Y3727D02*
Y4304D01*
Y9423D02*
X245395Y9425D01*
X249642D02*
X260256Y20039D01*
X245395Y9425D02*
X249642D01*
X260256Y20039D02*
X260789D01*
X250298Y30123D02*
X260891D01*
X245340Y25165D02*
X250298Y30123D01*
X245340Y20800D02*
Y25165D01*
Y15100D02*
Y20800D01*
D17*
X87118Y6232D02*
Y8347D01*
Y6232D02*
X90150Y3200D01*
X188300D01*
X104709Y32810D02*
X108439Y36540D01*
X102235Y32810D02*
X104709D01*
X106850Y15925D02*
Y17506D01*
X107982Y18638D02*
Y19113D01*
X106850Y17506D02*
X107982Y18638D01*
X109252Y17727D02*
Y19113D01*
X99175Y27600D02*
Y29750D01*
X102235Y32810D01*
X104642Y23055D02*
X107055D01*
X103582Y22082D02*
X103669D01*
X103525Y22025D02*
X103582Y22082D01*
X103669D02*
X104642Y23055D01*
X109252Y24513D02*
X109288Y24550D01*
Y26038D01*
X109325Y26075D01*
X113750Y21050D02*
X116992D01*
X188300Y3200D02*
X194950Y9850D01*
Y15375D01*
X197900Y18325D01*
X282675Y1125D02*
X284550Y3000D01*
X58050Y1125D02*
X282675D01*
X56075Y3100D02*
X58050Y1125D01*
X105600Y21000D02*
X105825D01*
X98525Y18075D02*
X103500D01*
X98525Y20175D02*
X102150D01*
X97125Y18075D02*
X98525D01*
X102150Y20175D02*
X103191D01*
X97100D02*
X98525D01*
X197900Y18325D02*
X200250D01*
X109398Y22054D02*
X110522Y23178D01*
X103191Y20175D02*
X105070Y22054D01*
X109398D01*
X111792Y24513D02*
Y36117D01*
X111975Y36300D02*
Y36525D01*
X111792Y36117D02*
X111975Y36300D01*
X110522Y23178D02*
Y24513D01*
X105875Y21050D02*
X109728D01*
X111742Y23063D01*
Y24463D01*
X111792Y24513D01*
X96975Y18225D02*
Y18250D01*
Y18225D02*
X97125Y18075D01*
X111792Y21442D02*
X113325Y22975D01*
Y27625D02*
X113325Y27625D01*
X113325Y22975D02*
Y27625D01*
X113738Y18500D02*
X114206Y18031D01*
X111792Y19113D02*
Y21442D01*
X96950Y20025D02*
X97100Y20175D01*
X96950Y19950D02*
Y20025D01*
X107932Y23932D02*
Y24463D01*
X107055Y23055D02*
X107932Y23932D01*
Y24463D02*
X107982Y24513D01*
X284550Y3000D02*
Y3025D01*
X117792Y20250D02*
X118275D01*
X116992Y21050D02*
X117792Y20250D01*
X116507Y17318D02*
X118280D01*
X116050Y17775D02*
X116507Y17318D01*
X113725Y17775D02*
X116050D01*
X113738Y18500D02*
Y19038D01*
X113750Y19050D01*
X111823Y19082D02*
X113719D01*
X113750Y19050D01*
X111792Y19113D02*
X111823Y19082D01*
X113550Y34000D02*
Y36540D01*
X111982Y36533D02*
X113543D01*
X111975Y36525D02*
X111982Y36533D01*
X113543D02*
X113550Y36540D01*
D18*
X104887Y25375D02*
Y27512D01*
X110575Y15925D02*
Y18585D01*
X110522Y18638D02*
X110575Y18585D01*
X110522Y18638D02*
Y19113D01*
X103775Y23325D02*
X104875Y24425D01*
Y25475D01*
X102150Y23325D02*
X103775D01*
X106500Y27625D02*
X110175D01*
X104900Y27300D02*
X104960Y27359D01*
X106234D02*
X106500Y27625D01*
X104960Y27359D02*
X106234D01*
X94813Y23613D02*
X96037D01*
X96050Y23600D01*
X94800Y23625D02*
X94813Y23613D01*
X97725Y23600D02*
X99600Y25475D01*
X102775D01*
X102775Y25475D02*
X102875D01*
X102775Y25475D02*
X102775Y25475D01*
X418263Y21512D02*
Y21962D01*
Y21512D02*
X418800Y20975D01*
X419250D01*
X419112Y24513D02*
Y27213D01*
X414275Y22650D02*
X417250D01*
X419112Y24513D01*
X409950Y9125D02*
X414650Y13825D01*
X409950Y6700D02*
Y9125D01*
X404950Y6675D02*
X409925D01*
X422052Y20975D02*
Y23602D01*
X422052Y20975D02*
X422052Y20975D01*
X410250Y27325D02*
X410350Y27425D01*
Y27650D02*
X410750Y28050D01*
Y30725D01*
Y30700D02*
X413950D01*
X410025Y27325D02*
X410250D01*
X410350Y27425D02*
Y27650D01*
X413950Y30700D02*
X413975Y30675D01*
X414175Y30475D01*
X414650Y13875D02*
X415950Y15175D01*
X414650Y13825D02*
Y13875D01*
X415950Y15175D02*
Y15325D01*
X414604Y20320D02*
X414614Y20309D01*
Y18736D02*
Y20309D01*
Y18736D02*
X414625Y18725D01*
X413305Y19683D02*
X413334Y19711D01*
X413258Y19683D02*
X413305D01*
X411697Y16360D02*
Y18122D01*
X413334Y19711D02*
Y20320D01*
X411697Y18122D02*
X413258Y19683D01*
X413334Y20320D02*
Y21709D01*
X413305Y20213D02*
X413334Y20242D01*
X402455Y20107D02*
X402561Y20213D01*
X413334Y20242D02*
Y20320D01*
X402561Y20213D02*
X413305D01*
X411205Y13000D02*
X413650Y15445D01*
X409300Y13000D02*
X411205D01*
X413334Y21709D02*
X414275Y22650D01*
X417172Y19683D02*
X417780Y19075D01*
X418925D01*
X419025Y18975D01*
X420875D01*
X422052Y23602D02*
X422375Y23925D01*
X419112Y27213D02*
X419200Y27300D01*
X419212Y27313D02*
X421263D01*
X419200Y27300D02*
X419212Y27313D01*
X421263D02*
X421275Y27325D01*
X420875Y30675D02*
X421275Y30275D01*
Y27325D02*
Y30275D01*
X417172Y27272D02*
X417200Y27300D01*
X417172Y24980D02*
Y27272D01*
X417144Y24952D02*
X417172Y24980D01*
X414187Y27313D02*
X417100D01*
X417144Y27269D01*
Y24952D02*
Y27269D01*
X414175Y27325D02*
X414187Y27313D01*
X414175Y27325D02*
Y30475D01*
X415874Y17276D02*
Y20320D01*
X413650Y15445D02*
Y17275D01*
X413650Y17275D02*
X415950D01*
X413650Y17275D02*
X413650Y17275D01*
X404925Y6650D02*
X404950Y6675D01*
X409925D02*
X409950Y6700D01*
X399845Y6650D02*
X402385D01*
X394875Y6600D02*
X394900Y6625D01*
X399820D01*
X399845Y6650D01*
X394829Y6646D02*
Y19934D01*
Y6646D02*
X394875Y6600D01*
X394784Y19980D02*
X394829Y19934D01*
D19*
X141675Y107300D02*
X143825Y105150D01*
X141675Y107300D02*
Y124650D01*
X157375Y140350D01*
X247300D02*
X258267Y129383D01*
X157375Y140350D02*
X247300D01*
X258267Y126200D02*
Y129383D01*
D21*
X189850Y59430D02*
D03*
X112000Y106555D02*
D03*
X124000D02*
D03*
X136000D02*
D03*
X178175Y59030D02*
D03*
D22*
X189850Y30320D02*
D03*
X112000Y77445D02*
D03*
X124000D02*
D03*
X136000D02*
D03*
X178175Y29920D02*
D03*
D23*
X165889Y51391D02*
D03*
X165762Y41485D02*
D03*
X203217Y42777D02*
D03*
X65540Y81925D02*
D03*
X60460D02*
D03*
Y99950D02*
D03*
X65540D02*
D03*
X52540Y82000D02*
D03*
X47460D02*
D03*
Y100000D02*
D03*
X52540D02*
D03*
Y91000D02*
D03*
X47460D02*
D03*
X36540D02*
D03*
X31460D02*
D03*
X36540Y100000D02*
D03*
X31460D02*
D03*
X36540Y82000D02*
D03*
X31460D02*
D03*
D24*
X141886Y55328D02*
D03*
X149760D02*
D03*
X151792Y37294D02*
D03*
X229139Y67408D02*
D03*
X236632Y67535D02*
D03*
X77450Y39975D02*
D03*
D25*
X200677Y36427D02*
D03*
X203217D02*
D03*
X205757D02*
D03*
D26*
X232695Y43913D02*
D03*
D27*
X231425Y25625D02*
D03*
X234473D02*
D03*
X169955Y16200D02*
D03*
X166445Y16050D02*
D03*
X245340Y20800D02*
D03*
X224400Y15100D02*
D03*
X245395Y9425D02*
D03*
X224450Y3725D02*
D03*
D28*
X18502Y100090D02*
D03*
Y91327D02*
D03*
D29*
Y82310D02*
D03*
D30*
X8850Y111520D02*
D03*
X8723Y71134D02*
D03*
D31*
X190895Y16200D02*
D03*
X145505Y16050D02*
D03*
X224400Y20800D02*
D03*
X245340Y15100D02*
D03*
X224455Y9425D02*
D03*
X245390Y3725D02*
D03*
D32*
X74910Y19782D02*
D03*
X77450D02*
D03*
X79990D02*
D03*
D33*
X83100Y15100D02*
D03*
X71100D02*
D03*
D34*
X145450Y64425D02*
D03*
X109450D02*
D03*
X120250Y57425D02*
D03*
X134650Y72025D02*
D03*
X288600Y92800D02*
D03*
X274000Y107200D02*
D03*
X281000Y118000D02*
D03*
Y82000D02*
D03*
D35*
X248800Y3725D02*
D03*
X95100Y34200D02*
D03*
X103475Y15100D02*
D03*
X422375Y23925D02*
D03*
X410750Y30725D02*
D03*
X409300Y13000D02*
D03*
X409950Y6700D02*
D03*
X190925Y11525D02*
D03*
X171475D02*
D03*
X163850Y7225D02*
D03*
X186825Y5125D02*
D03*
X202200Y14150D02*
D03*
X381925Y85475D02*
D03*
X394875Y6600D02*
D03*
X245300Y25075D02*
D03*
X97925Y36550D02*
D03*
X118175Y31425D02*
D03*
X124075Y109925D02*
D03*
X65900Y23850D02*
D03*
X138575Y24875D02*
D03*
X100975Y12850D02*
D03*
X71225Y56918D02*
D03*
X71250Y62125D02*
D03*
X71428Y51889D02*
D03*
X88200Y59150D02*
D03*
X74069Y59585D02*
D03*
X82925Y57350D02*
D03*
X99725Y60075D02*
D03*
X118254Y23084D02*
D03*
X103500Y18075D02*
D03*
X118280Y17318D02*
D03*
X118275Y20250D02*
D03*
X110575Y15925D02*
D03*
X227994Y26612D02*
D03*
X237625Y26750D02*
D03*
X246800Y52325D02*
D03*
X243350Y67250D02*
D03*
X320325Y8425D02*
D03*
X77375Y11225D02*
D03*
X72150Y19825D02*
D03*
X320500Y81975D02*
D03*
X336325Y4375D02*
D03*
D36*
X66935Y8275D02*
D03*
X202800Y7525D02*
D03*
X217800Y7500D02*
D03*
X212800D02*
D03*
X127125Y8250D02*
D03*
D37*
X61935Y8275D02*
D03*
X197800Y7525D02*
D03*
X207800Y7500D02*
D03*
X122125Y8250D02*
D03*
D38*
X414225Y27300D02*
D03*
X99050Y27475D02*
D03*
D39*
X421325Y27300D02*
D03*
X145575Y22305D02*
D03*
Y24845D02*
D03*
X154000Y22730D02*
D03*
Y25270D02*
D03*
X91950Y27475D02*
D03*
D40*
X404925Y6650D02*
D03*
X168900Y7200D02*
D03*
D41*
X402385Y6650D02*
D03*
X399845D02*
D03*
X108439Y31460D02*
D03*
Y34000D02*
D03*
X113550Y31460D02*
D03*
Y34000D02*
D03*
X171440Y7200D02*
D03*
X173980D02*
D03*
D42*
X179675Y8025D02*
D03*
X198725Y24175D02*
D03*
D43*
X183175Y8025D02*
D03*
X202225Y24175D02*
D03*
D44*
X231427Y87975D02*
D03*
X256573D02*
D03*
X231427Y103975D02*
D03*
X256573D02*
D03*
D45*
X352825Y99000D02*
D03*
Y91000D02*
D03*
X391150D02*
D03*
Y99000D02*
D03*
X371850Y91000D02*
D03*
Y99000D02*
D03*
X215417Y20500D02*
D03*
X210083D02*
D03*
D46*
X190666Y119865D02*
D03*
X196000D02*
D03*
X201334D02*
D03*
X158511D02*
D03*
X163845D02*
D03*
X169179D02*
D03*
X223666D02*
D03*
X229000D02*
D03*
X234334D02*
D03*
X255666D02*
D03*
X261000D02*
D03*
X266334D02*
D03*
X266310Y109692D02*
D03*
Y83530D02*
D03*
D47*
X103345Y36540D02*
D03*
D48*
Y34000D02*
D03*
Y31460D02*
D03*
D49*
X108439Y36540D02*
D03*
X113550D02*
D03*
D50*
X320258Y35355D02*
D03*
Y25271D02*
D03*
X320385Y14959D02*
D03*
X254091Y70839D02*
D03*
X254243Y60628D02*
D03*
X254066Y30123D02*
D03*
X253964Y20039D02*
D03*
X320233Y50671D02*
D03*
X320309Y60857D02*
D03*
Y70941D02*
D03*
D51*
X312587Y50646D02*
D03*
Y35381D02*
D03*
X261711Y20090D02*
D03*
X261660Y30250D02*
D03*
X261711Y60806D02*
D03*
X261762Y70966D02*
D03*
X312536Y15137D02*
D03*
X312486Y25271D02*
D03*
X312511Y60831D02*
D03*
X312562Y71017D02*
D03*
X343958Y40300D02*
D03*
Y55565D02*
D03*
X394835Y70856D02*
D03*
X394885Y60696D02*
D03*
X394835Y30140D02*
D03*
X394784Y19980D02*
D03*
X344009Y75809D02*
D03*
X344060Y65675D02*
D03*
X344035Y30115D02*
D03*
X343984Y19929D02*
D03*
X371629Y119325D02*
D03*
X360834D02*
D03*
X339129Y119333D02*
D03*
X328334D02*
D03*
X82507Y92555D02*
D03*
X92794D02*
D03*
X167873Y75047D02*
D03*
X167746Y85334D02*
D03*
X204746D02*
D03*
X204873Y75047D02*
D03*
D52*
X402582Y70907D02*
D03*
X402480Y60823D02*
D03*
X402302Y30318D02*
D03*
X402455Y20107D02*
D03*
X336161Y75987D02*
D03*
X336288Y65675D02*
D03*
Y55591D02*
D03*
X336313Y40275D02*
D03*
X336237Y30089D02*
D03*
Y20005D02*
D03*
D53*
X415000Y90000D02*
D03*
Y100000D02*
D03*
X405000D02*
D03*
Y90000D02*
D03*
D54*
X75000Y126200D02*
D03*
X112500D02*
D03*
X37500D02*
D03*
X212500D02*
D03*
X250000D02*
D03*
X175000D02*
D03*
X350000D02*
D03*
X387500D02*
D03*
X312500D02*
D03*
D55*
X40000Y9460D02*
D03*
Y19366D02*
D03*
X20000Y9460D02*
D03*
Y19366D02*
D03*
X30000Y9460D02*
D03*
Y19366D02*
D03*
D56*
X416300Y42450D02*
D03*
Y72295D02*
D03*
D57*
X58978Y23965D02*
D03*
Y26505D02*
D03*
Y29045D02*
D03*
Y31585D02*
D03*
Y21425D02*
D03*
Y34125D02*
D03*
Y36665D02*
D03*
Y39205D02*
D03*
Y41745D02*
D03*
Y44285D02*
D03*
Y46825D02*
D03*
Y49365D02*
D03*
Y51905D02*
D03*
Y54445D02*
D03*
Y59525D02*
D03*
Y62065D02*
D03*
Y56985D02*
D03*
Y64605D02*
D03*
D58*
X89658Y8200D02*
D03*
X84578D02*
D03*
X87118D02*
D03*
X92198D02*
D03*
X94738D02*
D03*
X106041D02*
D03*
X100961D02*
D03*
X103501D02*
D03*
X108581D02*
D03*
X111121D02*
D03*
D59*
X82038D02*
D03*
X98421D02*
D03*
D60*
X63880Y120272D02*
D03*
X96710D02*
D03*
X128954D02*
D03*
X31392D02*
D03*
D61*
X52960D02*
D03*
X85790D02*
D03*
X118034D02*
D03*
X20472D02*
D03*
D62*
X203325Y51225D02*
D03*
D63*
Y56225D02*
D03*
D64*
X170675Y36775D02*
D03*
X136175Y28875D02*
D03*
D65*
X89450Y24975D02*
D03*
X90225Y20700D02*
D03*
X88550Y13000D02*
D03*
X85725Y13100D02*
D03*
X109252Y17727D02*
D03*
X106850Y15925D02*
D03*
X56175Y5700D02*
D03*
X104875Y24425D02*
D03*
X109325Y26075D02*
D03*
X103525Y22025D02*
D03*
X95325Y29950D02*
D03*
X96050Y23600D02*
D03*
X97725D02*
D03*
X93950Y16675D02*
D03*
X56075Y3100D02*
D03*
X199375Y16250D02*
D03*
X110522Y23178D02*
D03*
X114725Y21025D02*
D03*
X284550Y3025D02*
D03*
X72075Y71750D02*
D03*
X418263Y21962D02*
D03*
X299350Y3125D02*
D03*
X419000Y16375D02*
D03*
X411300Y25325D02*
D03*
X414650Y13825D02*
D03*
X414625Y18725D02*
D03*
D66*
X129550Y130375D02*
D03*
X128475Y130400D02*
D03*
X130625Y130375D02*
D03*
X127419Y130378D02*
D03*
Y138453D02*
D03*
X127412Y137431D02*
D03*
Y133406D02*
D03*
Y134431D02*
D03*
Y135431D02*
D03*
Y136431D02*
D03*
Y131381D02*
D03*
Y132381D02*
D03*
X130619Y137428D02*
D03*
Y133403D02*
D03*
Y134428D02*
D03*
Y135428D02*
D03*
Y136428D02*
D03*
Y131378D02*
D03*
Y132378D02*
D03*
X129544D02*
D03*
Y131378D02*
D03*
Y136428D02*
D03*
Y135428D02*
D03*
Y134428D02*
D03*
Y133403D02*
D03*
Y137428D02*
D03*
X128469Y132403D02*
D03*
Y131403D02*
D03*
Y136453D02*
D03*
Y135453D02*
D03*
Y134453D02*
D03*
Y133428D02*
D03*
Y137453D02*
D03*
X128475Y138475D02*
D03*
X129550Y138450D02*
D03*
X130625D02*
D03*
X133825Y139450D02*
D03*
X132750Y139475D02*
D03*
X134900Y139450D02*
D03*
X131694Y139453D02*
D03*
Y147528D02*
D03*
X131687Y146506D02*
D03*
Y142481D02*
D03*
Y143506D02*
D03*
Y144506D02*
D03*
Y145506D02*
D03*
Y140456D02*
D03*
Y141456D02*
D03*
X134894Y146503D02*
D03*
Y142478D02*
D03*
Y143503D02*
D03*
Y144503D02*
D03*
Y145503D02*
D03*
Y140453D02*
D03*
Y141453D02*
D03*
X133819D02*
D03*
Y140453D02*
D03*
Y145503D02*
D03*
Y144503D02*
D03*
Y143503D02*
D03*
Y142478D02*
D03*
Y146503D02*
D03*
X132744Y141478D02*
D03*
Y140478D02*
D03*
Y145528D02*
D03*
Y144528D02*
D03*
Y143528D02*
D03*
Y142503D02*
D03*
Y146528D02*
D03*
X132750Y147550D02*
D03*
X133825Y147525D02*
D03*
X134900D02*
D03*
X4756Y85722D02*
D03*
X3681D02*
D03*
X2606Y85747D02*
D03*
X2600Y84725D02*
D03*
Y80700D02*
D03*
Y81725D02*
D03*
Y82725D02*
D03*
Y83725D02*
D03*
Y78675D02*
D03*
Y79675D02*
D03*
X3675Y84700D02*
D03*
Y80675D02*
D03*
Y81700D02*
D03*
Y82700D02*
D03*
Y83700D02*
D03*
Y78650D02*
D03*
Y79650D02*
D03*
X4750D02*
D03*
Y78650D02*
D03*
Y83700D02*
D03*
Y82700D02*
D03*
Y81700D02*
D03*
Y80675D02*
D03*
Y84700D02*
D03*
X1544Y79653D02*
D03*
Y78653D02*
D03*
Y83703D02*
D03*
Y82703D02*
D03*
Y81703D02*
D03*
Y80678D02*
D03*
Y84703D02*
D03*
X1550Y85725D02*
D03*
Y77650D02*
D03*
X4756Y77647D02*
D03*
X2606Y77672D02*
D03*
X3681Y77647D02*
D03*
X134881Y138422D02*
D03*
X133806D02*
D03*
X132731Y138447D02*
D03*
X132725Y137425D02*
D03*
Y133400D02*
D03*
Y134425D02*
D03*
Y135425D02*
D03*
Y136425D02*
D03*
Y131375D02*
D03*
Y132375D02*
D03*
X133800Y137400D02*
D03*
Y133375D02*
D03*
Y134400D02*
D03*
Y135400D02*
D03*
Y136400D02*
D03*
Y131350D02*
D03*
Y132350D02*
D03*
X134875D02*
D03*
Y131350D02*
D03*
Y136400D02*
D03*
Y135400D02*
D03*
Y134400D02*
D03*
Y133375D02*
D03*
Y137400D02*
D03*
X131669Y132353D02*
D03*
Y131353D02*
D03*
Y136403D02*
D03*
Y135403D02*
D03*
Y134403D02*
D03*
Y133378D02*
D03*
Y137403D02*
D03*
X131675Y138425D02*
D03*
Y130350D02*
D03*
X134881Y130347D02*
D03*
X132731Y130372D02*
D03*
X133806Y130347D02*
D03*
X130581Y147597D02*
D03*
X129506D02*
D03*
X128431Y147622D02*
D03*
X128425Y146600D02*
D03*
Y142575D02*
D03*
Y143600D02*
D03*
Y144600D02*
D03*
Y145600D02*
D03*
Y140550D02*
D03*
Y141550D02*
D03*
X129500Y146575D02*
D03*
Y142550D02*
D03*
Y143575D02*
D03*
Y144575D02*
D03*
Y145575D02*
D03*
Y140525D02*
D03*
Y141525D02*
D03*
X130575D02*
D03*
Y140525D02*
D03*
Y145575D02*
D03*
Y144575D02*
D03*
Y143575D02*
D03*
Y142550D02*
D03*
Y146575D02*
D03*
X127369Y141528D02*
D03*
Y140528D02*
D03*
Y145578D02*
D03*
Y144578D02*
D03*
Y143578D02*
D03*
Y142553D02*
D03*
Y146578D02*
D03*
X127375Y147600D02*
D03*
Y139525D02*
D03*
X130581Y139522D02*
D03*
X128431Y139547D02*
D03*
X129506Y139522D02*
D03*
X201056Y81247D02*
D03*
X199981Y81272D02*
D03*
X202131Y81247D02*
D03*
X198925Y81250D02*
D03*
Y89325D02*
D03*
X198919Y88303D02*
D03*
Y84278D02*
D03*
Y85303D02*
D03*
Y86303D02*
D03*
Y87303D02*
D03*
Y82253D02*
D03*
Y83253D02*
D03*
X202125Y88300D02*
D03*
Y84275D02*
D03*
Y85300D02*
D03*
Y86300D02*
D03*
Y87300D02*
D03*
Y82250D02*
D03*
Y83250D02*
D03*
X201050D02*
D03*
Y82250D02*
D03*
Y87300D02*
D03*
Y86300D02*
D03*
Y85300D02*
D03*
Y84275D02*
D03*
Y88300D02*
D03*
X199975Y83275D02*
D03*
Y82275D02*
D03*
Y87325D02*
D03*
Y86325D02*
D03*
Y85325D02*
D03*
Y84300D02*
D03*
Y88325D02*
D03*
X199981Y89347D02*
D03*
X201056Y89322D02*
D03*
X202131D02*
D03*
X229831Y80622D02*
D03*
X228756D02*
D03*
X227681D02*
D03*
X229822Y81669D02*
D03*
Y82744D02*
D03*
X229847Y83819D02*
D03*
X226569Y81669D02*
D03*
X227644D02*
D03*
X228690D02*
D03*
X228725Y84825D02*
D03*
Y83819D02*
D03*
X228700Y82744D02*
D03*
X227631Y96922D02*
D03*
X226556D02*
D03*
X225481Y96947D02*
D03*
X225475Y82744D02*
D03*
X226550D02*
D03*
X227625D02*
D03*
Y85800D02*
D03*
Y84825D02*
D03*
Y83819D02*
D03*
X226550D02*
D03*
Y84825D02*
D03*
Y85800D02*
D03*
X225475Y83819D02*
D03*
Y84825D02*
D03*
Y85825D02*
D03*
Y95925D02*
D03*
Y91900D02*
D03*
Y92925D02*
D03*
Y93925D02*
D03*
Y94925D02*
D03*
Y89875D02*
D03*
Y88875D02*
D03*
Y87875D02*
D03*
Y86850D02*
D03*
Y90875D02*
D03*
X226550Y95900D02*
D03*
Y91875D02*
D03*
Y92900D02*
D03*
Y93900D02*
D03*
Y94900D02*
D03*
Y89850D02*
D03*
Y88850D02*
D03*
Y87850D02*
D03*
Y86825D02*
D03*
Y90850D02*
D03*
X227625D02*
D03*
Y86825D02*
D03*
Y87850D02*
D03*
Y88850D02*
D03*
Y89850D02*
D03*
Y94900D02*
D03*
Y93900D02*
D03*
Y92900D02*
D03*
Y91875D02*
D03*
Y95900D02*
D03*
D67*
X143825Y105150D02*
D03*
X146075Y107950D02*
D03*
X153775Y108075D02*
D03*
X143900Y110575D02*
D03*
X148000Y114100D02*
D03*
X149875Y107900D02*
D03*
D68*
X190250Y30420D02*
D03*
Y36830D02*
D03*
D69*
X413650Y17275D02*
D03*
D70*
Y15445D02*
D03*
X411697Y16360D02*
D03*
D71*
X417200Y27300D02*
D03*
X419200D02*
D03*
X415875Y15325D02*
D03*
X417875D02*
D03*
X415875Y17275D02*
D03*
X417875D02*
D03*
X94950Y19950D02*
D03*
X96950D02*
D03*
X96975Y18250D02*
D03*
X94975D02*
D03*
X175850Y7225D02*
D03*
X177850D02*
D03*
X92800Y23625D02*
D03*
X94800D02*
D03*
X94825Y21800D02*
D03*
X92825D02*
D03*
X104900Y27300D02*
D03*
X102900D02*
D03*
X104875Y25475D02*
D03*
X102875D02*
D03*
X111975Y36525D02*
D03*
X109975D02*
D03*
D72*
X111792Y24513D02*
D03*
X110522D02*
D03*
X109252D02*
D03*
X107982D02*
D03*
Y19113D02*
D03*
X109252D02*
D03*
X110522D02*
D03*
X111792D02*
D03*
D73*
X417144Y20320D02*
D03*
D74*
X415874D02*
D03*
X414604D02*
D03*
X413334D02*
D03*
Y24952D02*
D03*
X414604D02*
D03*
X415874D02*
D03*
X417144D02*
D03*
D75*
X413975Y30675D02*
D03*
X420875D02*
D03*
D76*
X419025Y18975D02*
D03*
Y20975D02*
D03*
X420875D02*
D03*
Y18975D02*
D03*
X410025Y27325D02*
D03*
Y25325D02*
D03*
X55200Y34500D02*
D03*
Y36500D02*
D03*
X72100Y68300D02*
D03*
Y70300D02*
D03*
X98525Y18075D02*
D03*
Y20075D02*
D03*
X105875Y21050D02*
D03*
Y23050D02*
D03*
X113725Y17775D02*
D03*
Y15775D02*
D03*
X88550Y10100D02*
D03*
Y12100D02*
D03*
X113750Y21050D02*
D03*
Y19050D02*
D03*
D77*
X202200Y18325D02*
D03*
X200250D02*
D03*
X202200Y16400D02*
D03*
X200250D02*
D03*
D78*
X176371Y12492D02*
D03*
X178073D02*
D03*
X179775D02*
D03*
X181477D02*
D03*
X183179D02*
D03*
D79*
X179775Y22797D02*
D03*
D80*
X258424Y126000D02*
D03*
X261526D02*
D03*
X193724D02*
D03*
X196826D02*
D03*
X164551Y126500D02*
D03*
X161449D02*
D03*
X229526Y126000D02*
D03*
X226424D02*
D03*
X234476Y28600D02*
D03*
X231374D02*
D03*
D81*
X102150Y20175D02*
D03*
X102150Y23325D02*
D03*
X234500Y20425D02*
D03*
X234500Y23575D02*
D03*
X236375D02*
D03*
X236375Y20425D02*
D03*
X231475D02*
D03*
X231475Y23575D02*
D03*
X229600D02*
D03*
X229600Y20425D02*
D03*
D82*
X113325Y27625D02*
D03*
X110175Y27625D02*
D03*
X66250Y10000D02*
D03*
X63100Y10000D02*
D03*
D83*
X84525Y12100D02*
D03*
Y10150D02*
D03*
D84*
X253591Y70839D02*
X254091D01*
D85*
X255666Y123242D02*
X258424Y126000D01*
X255666Y119865D02*
Y123242D01*
D86*
X77513Y33435D02*
D03*
D87*
X184387Y30250D02*
D03*
%TF.MD5,5f7f461ab392ed90bd1ec1bb33b3e9c8*%
M02*
