%TF.GenerationSoftware,Altium Limited,Altium Designer,21.6.4 (81)*%
G04 Layer_Color=32768*
%FSLAX43Y43*%
%MOMM*%
%TF.SameCoordinates,D4C572C6-D0EE-4933-9396-1D80D03FA8BE*%
%TF.FilePolarity,Positive*%
%TF.FileFunction,Other,Bottom_Assembly*%
%TF.Part,Single*%
G01*
G75*
%TA.AperFunction,NonConductor*%
%ADD98C,0.200*%
%ADD144C,0.100*%
G36*
X411887Y16824D02*
X411912Y16819D01*
X411934Y16812D01*
X411952Y16804D01*
X411960Y16800D01*
X411967Y16796D01*
X411973Y16792D01*
X411978Y16788D01*
X411982Y16786D01*
X411984Y16784D01*
X411986Y16783D01*
X411987Y16782D01*
X412005Y16764D01*
X412019Y16745D01*
X412030Y16725D01*
X412039Y16704D01*
X412045Y16687D01*
X412047Y16679D01*
X412049Y16673D01*
X412050Y16667D01*
X412051Y16664D01*
X412052Y16661D01*
Y16660D01*
X411973Y16646D01*
X411970Y16666D01*
X411964Y16684D01*
X411958Y16699D01*
X411951Y16711D01*
X411945Y16720D01*
X411939Y16726D01*
X411935Y16731D01*
X411935Y16732D01*
X411923Y16741D01*
X411910Y16749D01*
X411898Y16753D01*
X411886Y16757D01*
X411874Y16759D01*
X411866Y16761D01*
X411859D01*
X411842Y16760D01*
X411827Y16756D01*
X411814Y16751D01*
X411803Y16747D01*
X411795Y16741D01*
X411788Y16737D01*
X411784Y16733D01*
X411783Y16732D01*
X411773Y16721D01*
X411765Y16709D01*
X411761Y16697D01*
X411757Y16686D01*
X411755Y16676D01*
X411753Y16668D01*
Y16663D01*
Y16662D01*
Y16661D01*
Y16651D01*
X411755Y16641D01*
X411760Y16626D01*
X411766Y16612D01*
X411774Y16600D01*
X411781Y16592D01*
X411788Y16585D01*
X411792Y16581D01*
X411793Y16580D01*
X411794D01*
X411810Y16572D01*
X411825Y16566D01*
X411840Y16561D01*
X411854Y16558D01*
X411866Y16556D01*
X411876Y16555D01*
X411888D01*
X411892Y16555D01*
X411897D01*
X411906Y16486D01*
X411894Y16489D01*
X411883Y16491D01*
X411874Y16493D01*
X411865Y16494D01*
X411859Y16494D01*
X411850D01*
X411831Y16493D01*
X411813Y16489D01*
X411798Y16483D01*
X411785Y16477D01*
X411775Y16470D01*
X411767Y16465D01*
X411763Y16461D01*
X411761Y16459D01*
X411749Y16445D01*
X411740Y16431D01*
X411733Y16416D01*
X411729Y16401D01*
X411727Y16389D01*
X411726Y16379D01*
X411725Y16375D01*
Y16372D01*
Y16371D01*
Y16370D01*
X411727Y16349D01*
X411731Y16331D01*
X411737Y16315D01*
X411744Y16301D01*
X411751Y16290D01*
X411757Y16282D01*
X411762Y16276D01*
X411764Y16274D01*
X411778Y16261D01*
X411794Y16252D01*
X411810Y16246D01*
X411825Y16241D01*
X411837Y16238D01*
X411848Y16237D01*
X411851Y16236D01*
X411857D01*
X411874Y16237D01*
X411889Y16241D01*
X411903Y16246D01*
X411914Y16251D01*
X411923Y16256D01*
X411931Y16261D01*
X411935Y16264D01*
X411936Y16265D01*
X411948Y16278D01*
X411957Y16293D01*
X411965Y16309D01*
X411972Y16325D01*
X411976Y16339D01*
X411978Y16346D01*
X411979Y16351D01*
X411980Y16356D01*
X411981Y16359D01*
X411982Y16361D01*
Y16362D01*
X412060Y16352D01*
X412058Y16337D01*
X412056Y16323D01*
X412047Y16298D01*
X412037Y16275D01*
X412032Y16266D01*
X412026Y16257D01*
X412021Y16249D01*
X412015Y16242D01*
X412010Y16236D01*
X412006Y16231D01*
X412003Y16227D01*
X412000Y16224D01*
X411998Y16223D01*
X411997Y16222D01*
X411986Y16213D01*
X411975Y16205D01*
X411964Y16199D01*
X411952Y16193D01*
X411929Y16184D01*
X411907Y16178D01*
X411897Y16176D01*
X411887Y16175D01*
X411879Y16174D01*
X411872Y16173D01*
X411866Y16172D01*
X411858D01*
X411840Y16173D01*
X411825Y16175D01*
X411809Y16177D01*
X411794Y16181D01*
X411780Y16186D01*
X411768Y16190D01*
X411756Y16196D01*
X411746Y16201D01*
X411736Y16206D01*
X411727Y16212D01*
X411720Y16216D01*
X411715Y16221D01*
X411710Y16224D01*
X411706Y16227D01*
X411704Y16229D01*
X411703Y16230D01*
X411692Y16241D01*
X411683Y16253D01*
X411675Y16265D01*
X411667Y16277D01*
X411662Y16288D01*
X411656Y16300D01*
X411649Y16322D01*
X411647Y16333D01*
X411645Y16342D01*
X411643Y16350D01*
X411642Y16358D01*
X411641Y16363D01*
Y16368D01*
Y16371D01*
Y16371D01*
X411642Y16394D01*
X411646Y16414D01*
X411652Y16432D01*
X411657Y16446D01*
X411663Y16458D01*
X411668Y16468D01*
X411672Y16473D01*
X411673Y16475D01*
X411686Y16489D01*
X411700Y16501D01*
X411715Y16510D01*
X411729Y16518D01*
X411742Y16523D01*
X411752Y16527D01*
X411756Y16528D01*
X411759Y16529D01*
X411761Y16530D01*
X411762D01*
X411746Y16538D01*
X411733Y16546D01*
X411722Y16555D01*
X411713Y16564D01*
X411705Y16571D01*
X411700Y16578D01*
X411697Y16581D01*
X411696Y16583D01*
X411689Y16596D01*
X411683Y16609D01*
X411678Y16622D01*
X411676Y16634D01*
X411674Y16644D01*
X411673Y16652D01*
Y16657D01*
Y16659D01*
X411674Y16675D01*
X411677Y16690D01*
X411680Y16704D01*
X411685Y16716D01*
X411690Y16726D01*
X411693Y16735D01*
X411696Y16739D01*
X411697Y16741D01*
X411706Y16755D01*
X411717Y16767D01*
X411728Y16777D01*
X411740Y16787D01*
X411749Y16793D01*
X411757Y16799D01*
X411763Y16801D01*
X411764Y16802D01*
X411764D01*
X411781Y16810D01*
X411798Y16815D01*
X411814Y16820D01*
X411829Y16823D01*
X411841Y16824D01*
X411851Y16825D01*
X411874D01*
X411887Y16824D01*
D02*
G37*
G36*
X412673Y16453D02*
Y16434D01*
X412672Y16417D01*
X412671Y16400D01*
X412670Y16384D01*
X412668Y16371D01*
X412666Y16358D01*
X412663Y16346D01*
X412661Y16334D01*
X412659Y16324D01*
X412657Y16316D01*
X412655Y16309D01*
X412653Y16303D01*
X412651Y16298D01*
X412650Y16295D01*
X412649Y16293D01*
Y16292D01*
X412639Y16272D01*
X412626Y16253D01*
X412613Y16238D01*
X412599Y16225D01*
X412587Y16215D01*
X412577Y16208D01*
X412573Y16206D01*
X412571Y16204D01*
X412569Y16202D01*
X412568D01*
X412545Y16192D01*
X412521Y16185D01*
X412496Y16179D01*
X412473Y16175D01*
X412462Y16175D01*
X412452Y16174D01*
X412443Y16173D01*
X412436D01*
X412429Y16172D01*
X412421D01*
X412388Y16174D01*
X412373Y16175D01*
X412359Y16177D01*
X412345Y16180D01*
X412333Y16183D01*
X412322Y16186D01*
X412312Y16189D01*
X412303Y16193D01*
X412295Y16196D01*
X412288Y16199D01*
X412282Y16201D01*
X412278Y16204D01*
X412275Y16205D01*
X412273Y16207D01*
X412272D01*
X412252Y16221D01*
X412235Y16236D01*
X412222Y16251D01*
X412211Y16266D01*
X412203Y16279D01*
X412197Y16289D01*
X412195Y16293D01*
X412193Y16296D01*
X412193Y16298D01*
Y16298D01*
X412189Y16310D01*
X412185Y16322D01*
X412180Y16347D01*
X412176Y16372D01*
X412173Y16397D01*
X412172Y16408D01*
X412171Y16420D01*
Y16429D01*
X412170Y16437D01*
Y16444D01*
Y16448D01*
Y16452D01*
Y16453D01*
Y16823D01*
X412255D01*
Y16453D01*
Y16432D01*
X412257Y16411D01*
X412259Y16394D01*
X412262Y16377D01*
X412265Y16362D01*
X412268Y16348D01*
X412271Y16336D01*
X412275Y16326D01*
X412279Y16318D01*
X412282Y16310D01*
X412286Y16304D01*
X412289Y16298D01*
X412291Y16295D01*
X412293Y16292D01*
X412294Y16291D01*
X412295Y16290D01*
X412303Y16283D01*
X412313Y16276D01*
X412333Y16266D01*
X412354Y16259D01*
X412376Y16254D01*
X412397Y16250D01*
X412405Y16249D01*
X412413D01*
X412419Y16249D01*
X412428D01*
X412448Y16249D01*
X412465Y16252D01*
X412482Y16255D01*
X412495Y16260D01*
X412506Y16263D01*
X412514Y16266D01*
X412519Y16269D01*
X412521Y16270D01*
X412534Y16278D01*
X412545Y16288D01*
X412554Y16298D01*
X412560Y16308D01*
X412566Y16317D01*
X412571Y16323D01*
X412573Y16328D01*
X412573Y16330D01*
X412576Y16338D01*
X412578Y16347D01*
X412582Y16366D01*
X412585Y16386D01*
X412586Y16407D01*
X412587Y16424D01*
Y16432D01*
X412588Y16439D01*
Y16444D01*
Y16449D01*
Y16452D01*
Y16453D01*
Y16823D01*
X412673D01*
Y16453D01*
D02*
G37*
G36*
X415326Y23346D02*
X415341Y23357D01*
X415348Y23363D01*
X415354Y23367D01*
X415360Y23372D01*
X415363Y23376D01*
X415366Y23378D01*
X415367Y23379D01*
X415372Y23384D01*
X415376Y23389D01*
X415388Y23402D01*
X415402Y23417D01*
X415416Y23433D01*
X415428Y23448D01*
X415434Y23454D01*
X415439Y23460D01*
X415443Y23464D01*
X415446Y23468D01*
X415448Y23470D01*
X415448Y23471D01*
X415461Y23486D01*
X415473Y23500D01*
X415485Y23513D01*
X415496Y23525D01*
X415506Y23537D01*
X415515Y23546D01*
X415523Y23555D01*
X415531Y23562D01*
X415538Y23570D01*
X415544Y23575D01*
X415548Y23580D01*
X415553Y23585D01*
X415559Y23589D01*
X415560Y23591D01*
X415576Y23604D01*
X415590Y23615D01*
X415604Y23624D01*
X415615Y23632D01*
X415625Y23637D01*
X415632Y23641D01*
X415637Y23643D01*
X415639Y23644D01*
X415653Y23649D01*
X415667Y23653D01*
X415680Y23657D01*
X415691Y23659D01*
X415701Y23659D01*
X415708Y23660D01*
X415713D01*
X415715D01*
X415729Y23659D01*
X415742Y23658D01*
X415754Y23656D01*
X415766Y23652D01*
X415788Y23643D01*
X415805Y23634D01*
X415814Y23628D01*
X415820Y23623D01*
X415827Y23619D01*
X415831Y23614D01*
X415835Y23610D01*
X415839Y23609D01*
X415840Y23607D01*
X415840Y23606D01*
X415850Y23596D01*
X415858Y23585D01*
X415865Y23573D01*
X415870Y23561D01*
X415879Y23537D01*
X415886Y23512D01*
X415888Y23502D01*
X415889Y23492D01*
X415890Y23483D01*
X415891Y23475D01*
X415892Y23469D01*
Y23460D01*
X415891Y23443D01*
X415890Y23427D01*
X415888Y23413D01*
X415885Y23399D01*
X415881Y23386D01*
X415877Y23374D01*
X415873Y23363D01*
X415868Y23353D01*
X415864Y23343D01*
X415859Y23336D01*
X415855Y23329D01*
X415852Y23324D01*
X415849Y23319D01*
X415846Y23316D01*
X415845Y23315D01*
X415844Y23314D01*
X415835Y23304D01*
X415825Y23296D01*
X415814Y23288D01*
X415803Y23281D01*
X415780Y23270D01*
X415758Y23263D01*
X415748Y23260D01*
X415738Y23257D01*
X415730Y23255D01*
X415722Y23254D01*
X415716Y23253D01*
X415711D01*
X415708Y23252D01*
X415707D01*
X415699Y23332D01*
X415720Y23334D01*
X415739Y23338D01*
X415755Y23343D01*
X415768Y23350D01*
X415779Y23355D01*
X415787Y23361D01*
X415791Y23365D01*
X415793Y23366D01*
X415804Y23380D01*
X415813Y23395D01*
X415819Y23411D01*
X415823Y23425D01*
X415826Y23438D01*
X415827Y23449D01*
X415828Y23452D01*
Y23458D01*
X415827Y23477D01*
X415823Y23495D01*
X415817Y23510D01*
X415812Y23523D01*
X415805Y23533D01*
X415801Y23539D01*
X415797Y23544D01*
X415795Y23546D01*
X415782Y23557D01*
X415769Y23565D01*
X415756Y23572D01*
X415743Y23575D01*
X415733Y23578D01*
X415724Y23579D01*
X415718Y23580D01*
X415717D01*
X415717D01*
X415700Y23578D01*
X415682Y23574D01*
X415667Y23568D01*
X415652Y23561D01*
X415640Y23554D01*
X415630Y23548D01*
X415626Y23546D01*
X415623Y23544D01*
X415622Y23542D01*
X415621D01*
X415611Y23535D01*
X415601Y23525D01*
X415590Y23515D01*
X415579Y23504D01*
X415557Y23481D01*
X415534Y23458D01*
X415524Y23446D01*
X415515Y23436D01*
X415507Y23426D01*
X415499Y23417D01*
X415494Y23411D01*
X415489Y23405D01*
X415486Y23402D01*
X415485Y23401D01*
X415466Y23377D01*
X415448Y23356D01*
X415431Y23339D01*
X415417Y23325D01*
X415405Y23313D01*
X415397Y23304D01*
X415391Y23300D01*
X415390Y23298D01*
X415389D01*
X415374Y23285D01*
X415359Y23275D01*
X415344Y23266D01*
X415331Y23258D01*
X415320Y23253D01*
X415312Y23249D01*
X415306Y23247D01*
X415305Y23246D01*
X415304D01*
X415294Y23243D01*
X415285Y23241D01*
X415276Y23239D01*
X415267Y23238D01*
X415260Y23237D01*
X415254D01*
X415251D01*
X415250D01*
Y23661D01*
X415326D01*
Y23346D01*
D02*
G37*
G36*
X415889Y23054D02*
X415520D01*
X415498D01*
X415478Y23052D01*
X415460Y23050D01*
X415444Y23047D01*
X415429Y23045D01*
X415415Y23041D01*
X415403Y23038D01*
X415393Y23034D01*
X415385Y23031D01*
X415376Y23027D01*
X415371Y23023D01*
X415365Y23021D01*
X415362Y23018D01*
X415359Y23016D01*
X415358Y23015D01*
X415357Y23014D01*
X415350Y23006D01*
X415343Y22997D01*
X415333Y22976D01*
X415326Y22955D01*
X415321Y22933D01*
X415317Y22912D01*
X415316Y22904D01*
Y22896D01*
X415315Y22890D01*
Y22881D01*
X415316Y22862D01*
X415319Y22844D01*
X415322Y22827D01*
X415326Y22814D01*
X415330Y22803D01*
X415333Y22795D01*
X415336Y22790D01*
X415337Y22789D01*
X415345Y22776D01*
X415355Y22764D01*
X415365Y22755D01*
X415375Y22749D01*
X415384Y22743D01*
X415390Y22739D01*
X415395Y22737D01*
X415397Y22736D01*
X415405Y22733D01*
X415413Y22731D01*
X415433Y22728D01*
X415453Y22725D01*
X415473Y22723D01*
X415491Y22722D01*
X415499D01*
X415506Y22721D01*
X415511D01*
X415516D01*
X415519D01*
X415520D01*
X415889D01*
Y22636D01*
X415520D01*
X415501D01*
X415484Y22637D01*
X415467Y22638D01*
X415451Y22640D01*
X415437Y22642D01*
X415424Y22643D01*
X415412Y22646D01*
X415401Y22648D01*
X415391Y22650D01*
X415383Y22653D01*
X415375Y22654D01*
X415370Y22656D01*
X415365Y22658D01*
X415362Y22659D01*
X415360Y22660D01*
X415359D01*
X415338Y22670D01*
X415320Y22683D01*
X415305Y22696D01*
X415292Y22710D01*
X415282Y22722D01*
X415275Y22732D01*
X415273Y22736D01*
X415271Y22739D01*
X415269Y22740D01*
Y22741D01*
X415259Y22764D01*
X415252Y22789D01*
X415246Y22813D01*
X415242Y22837D01*
X415241Y22847D01*
X415240Y22857D01*
X415240Y22866D01*
Y22874D01*
X415239Y22880D01*
Y22888D01*
X415240Y22922D01*
X415242Y22936D01*
X415244Y22950D01*
X415247Y22964D01*
X415250Y22976D01*
X415252Y22987D01*
X415256Y22997D01*
X415260Y23007D01*
X415263Y23014D01*
X415265Y23022D01*
X415268Y23027D01*
X415271Y23032D01*
X415272Y23034D01*
X415274Y23036D01*
Y23037D01*
X415288Y23058D01*
X415303Y23074D01*
X415318Y23087D01*
X415333Y23098D01*
X415346Y23107D01*
X415356Y23112D01*
X415360Y23114D01*
X415362Y23116D01*
X415364Y23117D01*
X415365D01*
X415376Y23120D01*
X415388Y23124D01*
X415413Y23130D01*
X415439Y23133D01*
X415464Y23136D01*
X415475Y23137D01*
X415486Y23138D01*
X415496D01*
X415504Y23139D01*
X415510D01*
X415515D01*
X415519D01*
X415520D01*
X415889D01*
Y23054D01*
D02*
G37*
G36*
X201677Y16215D02*
X201664Y16197D01*
X201652Y16180D01*
X201640Y16166D01*
X201630Y16153D01*
X201621Y16144D01*
X201613Y16137D01*
X201609Y16132D01*
X201607Y16130D01*
X201599Y16124D01*
X201591Y16118D01*
X201574Y16108D01*
X201567Y16104D01*
X201562Y16100D01*
X201558Y16099D01*
X201556Y16098D01*
X201573Y16095D01*
X201588Y16092D01*
X201602Y16088D01*
X201616Y16084D01*
X201628Y16079D01*
X201639Y16074D01*
X201649Y16069D01*
X201659Y16064D01*
X201666Y16059D01*
X201673Y16054D01*
X201679Y16051D01*
X201684Y16047D01*
X201687Y16044D01*
X201690Y16041D01*
X201691Y16040D01*
X201692Y16039D01*
X201699Y16030D01*
X201707Y16021D01*
X201718Y16002D01*
X201725Y15982D01*
X201731Y15964D01*
X201734Y15948D01*
X201735Y15941D01*
Y15935D01*
X201736Y15930D01*
Y15927D01*
Y15925D01*
Y15924D01*
X201735Y15904D01*
X201733Y15887D01*
X201728Y15870D01*
X201723Y15856D01*
X201718Y15844D01*
X201714Y15835D01*
X201710Y15830D01*
X201709Y15829D01*
Y15828D01*
X201698Y15813D01*
X201687Y15800D01*
X201675Y15789D01*
X201664Y15781D01*
X201654Y15774D01*
X201646Y15770D01*
X201640Y15768D01*
X201639Y15767D01*
X201638D01*
X201630Y15764D01*
X201620Y15761D01*
X201599Y15757D01*
X201577Y15754D01*
X201557Y15751D01*
X201537Y15750D01*
X201529D01*
X201522Y15749D01*
X201225D01*
Y16389D01*
X201310D01*
Y16105D01*
X201419D01*
X201429Y16106D01*
X201437D01*
X201443Y16107D01*
X201448Y16108D01*
X201452D01*
X201453Y16109D01*
X201454D01*
X201469Y16113D01*
X201476Y16116D01*
X201481Y16119D01*
X201487Y16122D01*
X201490Y16124D01*
X201492Y16124D01*
X201493Y16125D01*
X201501Y16131D01*
X201508Y16137D01*
X201522Y16151D01*
X201528Y16158D01*
X201533Y16163D01*
X201536Y16167D01*
X201537Y16168D01*
X201546Y16181D01*
X201556Y16195D01*
X201566Y16210D01*
X201576Y16223D01*
X201585Y16236D01*
X201591Y16247D01*
X201594Y16250D01*
X201596Y16253D01*
X201598Y16255D01*
Y16256D01*
X201682Y16389D01*
X201787D01*
X201677Y16215D01*
D02*
G37*
G36*
X202552Y16398D02*
X202575Y16394D01*
X202596Y16388D01*
X202614Y16381D01*
X202621Y16378D01*
X202628Y16374D01*
X202634Y16370D01*
X202640Y16368D01*
X202643Y16366D01*
X202646Y16364D01*
X202648Y16362D01*
X202649D01*
X202667Y16346D01*
X202684Y16329D01*
X202697Y16310D01*
X202708Y16293D01*
X202717Y16277D01*
X202721Y16270D01*
X202724Y16264D01*
X202726Y16259D01*
X202727Y16255D01*
X202728Y16253D01*
Y16252D01*
X202733Y16238D01*
X202738Y16222D01*
X202744Y16191D01*
X202749Y16158D01*
X202751Y16126D01*
X202753Y16112D01*
X202754Y16099D01*
Y16087D01*
X202755Y16076D01*
Y16068D01*
Y16062D01*
Y16057D01*
Y16056D01*
Y16035D01*
X202754Y16014D01*
X202752Y15996D01*
X202751Y15978D01*
X202749Y15963D01*
X202747Y15948D01*
X202744Y15934D01*
X202741Y15922D01*
X202738Y15912D01*
X202737Y15903D01*
X202734Y15894D01*
X202732Y15888D01*
X202730Y15883D01*
X202728Y15879D01*
X202727Y15878D01*
Y15877D01*
X202716Y15855D01*
X202704Y15835D01*
X202690Y15818D01*
X202678Y15805D01*
X202666Y15794D01*
X202657Y15787D01*
X202653Y15784D01*
X202651Y15782D01*
X202650Y15781D01*
X202649D01*
X202629Y15769D01*
X202610Y15761D01*
X202591Y15755D01*
X202573Y15751D01*
X202557Y15748D01*
X202551Y15747D01*
X202546D01*
X202542Y15746D01*
X202535D01*
X202519Y15747D01*
X202505Y15749D01*
X202490Y15752D01*
X202477Y15756D01*
X202452Y15766D01*
X202441Y15770D01*
X202432Y15776D01*
X202422Y15782D01*
X202415Y15787D01*
X202408Y15793D01*
X202402Y15797D01*
X202397Y15801D01*
X202395Y15804D01*
X202393Y15806D01*
X202392Y15806D01*
X202382Y15818D01*
X202373Y15830D01*
X202365Y15842D01*
X202359Y15855D01*
X202353Y15869D01*
X202348Y15882D01*
X202342Y15906D01*
X202339Y15918D01*
X202337Y15928D01*
X202336Y15939D01*
X202335Y15947D01*
X202334Y15953D01*
Y15958D01*
Y15962D01*
Y15963D01*
X202335Y15980D01*
X202337Y15996D01*
X202339Y16012D01*
X202343Y16026D01*
X202347Y16039D01*
X202352Y16052D01*
X202357Y16063D01*
X202362Y16074D01*
X202367Y16083D01*
X202371Y16091D01*
X202376Y16098D01*
X202381Y16104D01*
X202384Y16109D01*
X202386Y16112D01*
X202388Y16113D01*
X202389Y16114D01*
X202399Y16124D01*
X202410Y16133D01*
X202421Y16141D01*
X202433Y16148D01*
X202444Y16153D01*
X202456Y16158D01*
X202477Y16164D01*
X202486Y16167D01*
X202495Y16169D01*
X202503Y16170D01*
X202510Y16171D01*
X202516Y16172D01*
X202523D01*
X202541Y16171D01*
X202557Y16168D01*
X202572Y16164D01*
X202586Y16160D01*
X202596Y16156D01*
X202604Y16152D01*
X202610Y16149D01*
X202612Y16149D01*
X202627Y16139D01*
X202640Y16129D01*
X202651Y16119D01*
X202660Y16110D01*
X202666Y16100D01*
X202672Y16094D01*
X202676Y16089D01*
X202677Y16088D01*
Y16095D01*
Y16100D01*
Y16102D01*
Y16103D01*
X202676Y16122D01*
X202675Y16139D01*
X202673Y16155D01*
X202671Y16170D01*
X202668Y16182D01*
X202666Y16191D01*
X202665Y16195D01*
Y16198D01*
X202665Y16198D01*
Y16199D01*
X202660Y16216D01*
X202655Y16231D01*
X202651Y16244D01*
X202646Y16255D01*
X202642Y16263D01*
X202639Y16270D01*
X202637Y16274D01*
X202636Y16275D01*
X202628Y16285D01*
X202621Y16294D01*
X202614Y16301D01*
X202606Y16308D01*
X202601Y16313D01*
X202595Y16317D01*
X202591Y16319D01*
X202591Y16320D01*
X202580Y16325D01*
X202569Y16329D01*
X202559Y16332D01*
X202549Y16333D01*
X202541Y16334D01*
X202534Y16335D01*
X202528D01*
X202513Y16334D01*
X202499Y16332D01*
X202487Y16328D01*
X202477Y16323D01*
X202469Y16320D01*
X202463Y16316D01*
X202459Y16313D01*
X202458Y16312D01*
X202449Y16302D01*
X202442Y16290D01*
X202435Y16277D01*
X202431Y16264D01*
X202427Y16253D01*
X202424Y16243D01*
X202423Y16239D01*
Y16237D01*
X202422Y16235D01*
Y16235D01*
X202346Y16241D01*
X202352Y16268D01*
X202359Y16291D01*
X202369Y16311D01*
X202378Y16328D01*
X202387Y16341D01*
X202392Y16346D01*
X202395Y16351D01*
X202398Y16354D01*
X202401Y16357D01*
X202402Y16357D01*
X202403Y16358D01*
X202412Y16366D01*
X202422Y16372D01*
X202443Y16382D01*
X202463Y16390D01*
X202482Y16394D01*
X202500Y16398D01*
X202507Y16399D01*
X202514D01*
X202518Y16400D01*
X202526D01*
X202552Y16398D01*
D02*
G37*
G36*
X202250Y16313D02*
X201935D01*
X201946Y16297D01*
X201952Y16291D01*
X201956Y16284D01*
X201961Y16279D01*
X201965Y16275D01*
X201967Y16272D01*
X201968Y16271D01*
X201973Y16267D01*
X201979Y16262D01*
X201991Y16250D01*
X202006Y16236D01*
X202022Y16222D01*
X202037Y16210D01*
X202043Y16205D01*
X202049Y16199D01*
X202053Y16196D01*
X202057Y16193D01*
X202059Y16191D01*
X202060Y16190D01*
X202075Y16177D01*
X202089Y16165D01*
X202102Y16153D01*
X202114Y16143D01*
X202126Y16133D01*
X202135Y16124D01*
X202144Y16115D01*
X202151Y16108D01*
X202159Y16100D01*
X202164Y16095D01*
X202169Y16090D01*
X202174Y16086D01*
X202178Y16080D01*
X202180Y16078D01*
X202193Y16063D01*
X202204Y16049D01*
X202213Y16035D01*
X202221Y16024D01*
X202226Y16014D01*
X202230Y16006D01*
X202232Y16002D01*
X202233Y16000D01*
X202238Y15986D01*
X202242Y15972D01*
X202246Y15959D01*
X202248Y15948D01*
X202248Y15938D01*
X202249Y15930D01*
Y15926D01*
Y15924D01*
X202248Y15910D01*
X202247Y15897D01*
X202245Y15884D01*
X202241Y15873D01*
X202232Y15851D01*
X202223Y15833D01*
X202217Y15825D01*
X202212Y15818D01*
X202208Y15812D01*
X202203Y15807D01*
X202199Y15804D01*
X202198Y15800D01*
X202196Y15799D01*
X202195Y15798D01*
X202185Y15789D01*
X202174Y15781D01*
X202162Y15774D01*
X202150Y15769D01*
X202126Y15759D01*
X202101Y15753D01*
X202091Y15751D01*
X202081Y15749D01*
X202072Y15748D01*
X202064Y15747D01*
X202058Y15746D01*
X202049D01*
X202032Y15747D01*
X202016Y15748D01*
X202002Y15751D01*
X201988Y15754D01*
X201975Y15757D01*
X201963Y15761D01*
X201952Y15766D01*
X201942Y15770D01*
X201932Y15775D01*
X201925Y15780D01*
X201918Y15783D01*
X201913Y15787D01*
X201908Y15790D01*
X201905Y15793D01*
X201904Y15793D01*
X201903Y15794D01*
X201893Y15804D01*
X201885Y15814D01*
X201877Y15825D01*
X201870Y15836D01*
X201859Y15858D01*
X201852Y15880D01*
X201849Y15891D01*
X201846Y15901D01*
X201844Y15909D01*
X201843Y15916D01*
X201842Y15923D01*
Y15928D01*
X201841Y15930D01*
Y15931D01*
X201921Y15940D01*
X201923Y15918D01*
X201927Y15900D01*
X201932Y15883D01*
X201939Y15870D01*
X201944Y15859D01*
X201950Y15852D01*
X201954Y15847D01*
X201955Y15845D01*
X201969Y15834D01*
X201984Y15826D01*
X202000Y15819D01*
X202014Y15816D01*
X202027Y15813D01*
X202038Y15812D01*
X202041Y15811D01*
X202047D01*
X202066Y15812D01*
X202084Y15816D01*
X202099Y15821D01*
X202112Y15827D01*
X202122Y15833D01*
X202128Y15838D01*
X202133Y15842D01*
X202135Y15843D01*
X202146Y15856D01*
X202154Y15869D01*
X202161Y15882D01*
X202164Y15895D01*
X202167Y15905D01*
X202168Y15915D01*
X202169Y15920D01*
Y15921D01*
Y15922D01*
X202167Y15939D01*
X202163Y15956D01*
X202157Y15972D01*
X202150Y15987D01*
X202143Y15999D01*
X202137Y16009D01*
X202135Y16013D01*
X202133Y16015D01*
X202131Y16016D01*
Y16017D01*
X202124Y16027D01*
X202114Y16038D01*
X202104Y16049D01*
X202093Y16060D01*
X202070Y16082D01*
X202047Y16104D01*
X202035Y16114D01*
X202025Y16124D01*
X202015Y16132D01*
X202006Y16139D01*
X202000Y16145D01*
X201994Y16149D01*
X201991Y16152D01*
X201990Y16153D01*
X201966Y16173D01*
X201945Y16191D01*
X201928Y16208D01*
X201914Y16222D01*
X201902Y16234D01*
X201893Y16242D01*
X201889Y16247D01*
X201887Y16248D01*
Y16249D01*
X201874Y16265D01*
X201864Y16280D01*
X201855Y16295D01*
X201847Y16308D01*
X201842Y16319D01*
X201838Y16327D01*
X201836Y16333D01*
X201835Y16333D01*
Y16334D01*
X201831Y16345D01*
X201830Y16354D01*
X201828Y16363D01*
X201827Y16371D01*
X201826Y16379D01*
Y16384D01*
Y16388D01*
Y16389D01*
X202250D01*
Y16313D01*
D02*
G37*
G36*
X201677Y18140D02*
X201664Y18122D01*
X201652Y18105D01*
X201640Y18091D01*
X201630Y18078D01*
X201621Y18069D01*
X201613Y18062D01*
X201609Y18057D01*
X201607Y18055D01*
X201599Y18049D01*
X201591Y18043D01*
X201574Y18033D01*
X201567Y18029D01*
X201562Y18025D01*
X201558Y18024D01*
X201556Y18023D01*
X201573Y18020D01*
X201588Y18017D01*
X201602Y18013D01*
X201616Y18009D01*
X201628Y18004D01*
X201639Y17999D01*
X201649Y17994D01*
X201659Y17989D01*
X201666Y17984D01*
X201673Y17979D01*
X201679Y17976D01*
X201684Y17972D01*
X201687Y17969D01*
X201690Y17966D01*
X201691Y17965D01*
X201692Y17964D01*
X201699Y17955D01*
X201707Y17946D01*
X201718Y17927D01*
X201725Y17907D01*
X201731Y17889D01*
X201734Y17873D01*
X201735Y17866D01*
Y17860D01*
X201736Y17855D01*
Y17852D01*
Y17850D01*
Y17849D01*
X201735Y17829D01*
X201733Y17812D01*
X201728Y17795D01*
X201723Y17781D01*
X201718Y17769D01*
X201714Y17760D01*
X201710Y17755D01*
X201709Y17754D01*
Y17753D01*
X201698Y17738D01*
X201687Y17725D01*
X201675Y17714D01*
X201664Y17706D01*
X201654Y17699D01*
X201646Y17695D01*
X201640Y17693D01*
X201639Y17692D01*
X201638D01*
X201630Y17689D01*
X201620Y17686D01*
X201599Y17682D01*
X201577Y17679D01*
X201557Y17676D01*
X201537Y17675D01*
X201529D01*
X201522Y17674D01*
X201225D01*
Y18314D01*
X201310D01*
Y18030D01*
X201419D01*
X201429Y18031D01*
X201437D01*
X201443Y18032D01*
X201448Y18033D01*
X201452D01*
X201453Y18034D01*
X201454D01*
X201469Y18038D01*
X201476Y18041D01*
X201481Y18044D01*
X201487Y18047D01*
X201490Y18049D01*
X201492Y18049D01*
X201493Y18050D01*
X201501Y18056D01*
X201508Y18062D01*
X201522Y18076D01*
X201528Y18083D01*
X201533Y18088D01*
X201536Y18092D01*
X201537Y18093D01*
X201546Y18106D01*
X201556Y18120D01*
X201566Y18135D01*
X201576Y18148D01*
X201585Y18161D01*
X201591Y18172D01*
X201594Y18175D01*
X201596Y18178D01*
X201598Y18180D01*
Y18181D01*
X201682Y18314D01*
X201787D01*
X201677Y18140D01*
D02*
G37*
G36*
X202250Y18238D02*
X201935D01*
X201946Y18222D01*
X201952Y18216D01*
X201956Y18209D01*
X201961Y18204D01*
X201965Y18200D01*
X201967Y18197D01*
X201968Y18196D01*
X201973Y18192D01*
X201979Y18187D01*
X201991Y18175D01*
X202006Y18161D01*
X202022Y18147D01*
X202037Y18135D01*
X202043Y18130D01*
X202049Y18124D01*
X202053Y18121D01*
X202057Y18118D01*
X202059Y18116D01*
X202060Y18115D01*
X202075Y18102D01*
X202089Y18090D01*
X202102Y18078D01*
X202114Y18068D01*
X202126Y18058D01*
X202135Y18049D01*
X202144Y18040D01*
X202151Y18033D01*
X202159Y18025D01*
X202164Y18020D01*
X202169Y18015D01*
X202174Y18011D01*
X202178Y18005D01*
X202180Y18003D01*
X202193Y17988D01*
X202204Y17974D01*
X202213Y17960D01*
X202221Y17949D01*
X202226Y17939D01*
X202230Y17931D01*
X202232Y17927D01*
X202233Y17925D01*
X202238Y17911D01*
X202242Y17897D01*
X202246Y17884D01*
X202248Y17873D01*
X202248Y17863D01*
X202249Y17855D01*
Y17851D01*
Y17849D01*
X202248Y17835D01*
X202247Y17822D01*
X202245Y17809D01*
X202241Y17798D01*
X202232Y17776D01*
X202223Y17758D01*
X202217Y17750D01*
X202212Y17743D01*
X202208Y17737D01*
X202203Y17732D01*
X202199Y17729D01*
X202198Y17725D01*
X202196Y17724D01*
X202195Y17723D01*
X202185Y17714D01*
X202174Y17706D01*
X202162Y17699D01*
X202150Y17694D01*
X202126Y17684D01*
X202101Y17678D01*
X202091Y17676D01*
X202081Y17674D01*
X202072Y17673D01*
X202064Y17672D01*
X202058Y17671D01*
X202049D01*
X202032Y17672D01*
X202016Y17673D01*
X202002Y17676D01*
X201988Y17679D01*
X201975Y17682D01*
X201963Y17686D01*
X201952Y17691D01*
X201942Y17695D01*
X201932Y17700D01*
X201925Y17705D01*
X201918Y17708D01*
X201913Y17712D01*
X201908Y17715D01*
X201905Y17718D01*
X201904Y17719D01*
X201903Y17719D01*
X201893Y17729D01*
X201885Y17739D01*
X201877Y17750D01*
X201870Y17761D01*
X201859Y17783D01*
X201852Y17805D01*
X201849Y17816D01*
X201846Y17826D01*
X201844Y17834D01*
X201843Y17841D01*
X201842Y17848D01*
Y17853D01*
X201841Y17855D01*
Y17856D01*
X201921Y17865D01*
X201923Y17843D01*
X201927Y17825D01*
X201932Y17808D01*
X201939Y17795D01*
X201944Y17784D01*
X201950Y17777D01*
X201954Y17772D01*
X201955Y17770D01*
X201969Y17759D01*
X201984Y17751D01*
X202000Y17744D01*
X202014Y17741D01*
X202027Y17738D01*
X202038Y17737D01*
X202041Y17736D01*
X202047D01*
X202066Y17737D01*
X202084Y17741D01*
X202099Y17746D01*
X202112Y17752D01*
X202122Y17758D01*
X202128Y17763D01*
X202133Y17767D01*
X202135Y17768D01*
X202146Y17781D01*
X202154Y17794D01*
X202161Y17807D01*
X202164Y17820D01*
X202167Y17830D01*
X202168Y17840D01*
X202169Y17845D01*
Y17846D01*
Y17847D01*
X202167Y17864D01*
X202163Y17881D01*
X202157Y17897D01*
X202150Y17912D01*
X202143Y17924D01*
X202137Y17934D01*
X202135Y17938D01*
X202133Y17940D01*
X202131Y17941D01*
Y17942D01*
X202124Y17952D01*
X202114Y17963D01*
X202104Y17974D01*
X202093Y17985D01*
X202070Y18007D01*
X202047Y18029D01*
X202035Y18039D01*
X202025Y18049D01*
X202015Y18057D01*
X202006Y18064D01*
X202000Y18070D01*
X201994Y18074D01*
X201991Y18077D01*
X201990Y18078D01*
X201966Y18098D01*
X201945Y18116D01*
X201928Y18133D01*
X201914Y18147D01*
X201902Y18159D01*
X201893Y18167D01*
X201889Y18172D01*
X201887Y18173D01*
Y18174D01*
X201874Y18190D01*
X201864Y18205D01*
X201855Y18220D01*
X201847Y18233D01*
X201842Y18244D01*
X201838Y18252D01*
X201836Y18258D01*
X201835Y18258D01*
Y18259D01*
X201831Y18270D01*
X201830Y18279D01*
X201828Y18288D01*
X201827Y18296D01*
X201826Y18304D01*
Y18309D01*
Y18313D01*
Y18314D01*
X202250D01*
Y18238D01*
D02*
G37*
G36*
X202562Y18324D02*
X202578Y18322D01*
X202593Y18319D01*
X202608Y18317D01*
X202621Y18312D01*
X202634Y18307D01*
X202646Y18303D01*
X202656Y18297D01*
X202665Y18292D01*
X202674Y18287D01*
X202680Y18282D01*
X202687Y18278D01*
X202691Y18275D01*
X202694Y18272D01*
X202696Y18270D01*
X202697Y18270D01*
X202707Y18258D01*
X202716Y18247D01*
X202724Y18236D01*
X202730Y18224D01*
X202737Y18213D01*
X202741Y18201D01*
X202748Y18180D01*
X202751Y18170D01*
X202752Y18160D01*
X202753Y18152D01*
X202754Y18146D01*
X202755Y18140D01*
Y18135D01*
Y18133D01*
Y18132D01*
X202754Y18111D01*
X202751Y18091D01*
X202745Y18074D01*
X202739Y18059D01*
X202734Y18047D01*
X202728Y18037D01*
X202725Y18032D01*
X202724Y18031D01*
Y18030D01*
X202711Y18015D01*
X202697Y18002D01*
X202682Y17992D01*
X202668Y17983D01*
X202655Y17976D01*
X202644Y17972D01*
X202640Y17970D01*
X202638Y17969D01*
X202636Y17968D01*
X202635D01*
X202652Y17961D01*
X202665Y17952D01*
X202677Y17944D01*
X202688Y17936D01*
X202695Y17928D01*
X202701Y17923D01*
X202704Y17919D01*
X202705Y17917D01*
X202714Y17904D01*
X202719Y17891D01*
X202724Y17878D01*
X202726Y17865D01*
X202728Y17855D01*
X202729Y17847D01*
Y17841D01*
Y17841D01*
Y17840D01*
X202728Y17827D01*
X202727Y17815D01*
X202721Y17792D01*
X202713Y17771D01*
X202703Y17754D01*
X202694Y17740D01*
X202689Y17734D01*
X202686Y17729D01*
X202682Y17725D01*
X202679Y17722D01*
X202678Y17721D01*
X202677Y17720D01*
X202667Y17712D01*
X202657Y17704D01*
X202646Y17697D01*
X202635Y17692D01*
X202613Y17683D01*
X202591Y17678D01*
X202581Y17675D01*
X202572Y17674D01*
X202564Y17673D01*
X202556Y17672D01*
X202551Y17671D01*
X202542D01*
X202528Y17672D01*
X202513Y17673D01*
X202487Y17679D01*
X202475Y17682D01*
X202464Y17686D01*
X202454Y17691D01*
X202444Y17695D01*
X202437Y17700D01*
X202430Y17705D01*
X202423Y17708D01*
X202419Y17712D01*
X202415Y17715D01*
X202412Y17718D01*
X202410Y17719D01*
X202409Y17719D01*
X202401Y17729D01*
X202393Y17738D01*
X202386Y17748D01*
X202381Y17758D01*
X202371Y17778D01*
X202366Y17796D01*
X202362Y17812D01*
X202361Y17819D01*
X202360Y17825D01*
X202359Y17830D01*
Y17834D01*
Y17836D01*
Y17837D01*
X202360Y17853D01*
X202363Y17869D01*
X202367Y17883D01*
X202371Y17895D01*
X202375Y17904D01*
X202379Y17912D01*
X202382Y17915D01*
X202383Y17917D01*
X202393Y17928D01*
X202404Y17939D01*
X202416Y17948D01*
X202428Y17955D01*
X202439Y17961D01*
X202447Y17964D01*
X202451Y17966D01*
X202454Y17967D01*
X202455Y17968D01*
X202456D01*
X202434Y17975D01*
X202417Y17983D01*
X202401Y17993D01*
X202388Y18002D01*
X202378Y18012D01*
X202371Y18019D01*
X202367Y18024D01*
X202365Y18025D01*
Y18025D01*
X202355Y18042D01*
X202346Y18060D01*
X202341Y18076D01*
X202337Y18093D01*
X202335Y18108D01*
X202334Y18114D01*
Y18120D01*
X202334Y18123D01*
Y18127D01*
Y18129D01*
Y18130D01*
X202334Y18145D01*
X202336Y18160D01*
X202339Y18173D01*
X202343Y18187D01*
X202352Y18210D01*
X202357Y18221D01*
X202362Y18231D01*
X202368Y18240D01*
X202372Y18247D01*
X202378Y18254D01*
X202382Y18259D01*
X202385Y18264D01*
X202388Y18267D01*
X202390Y18269D01*
X202391Y18270D01*
X202402Y18280D01*
X202414Y18288D01*
X202427Y18295D01*
X202440Y18302D01*
X202452Y18307D01*
X202465Y18311D01*
X202490Y18318D01*
X202501Y18320D01*
X202511Y18322D01*
X202520Y18323D01*
X202529Y18324D01*
X202535Y18325D01*
X202544D01*
X202562Y18324D01*
D02*
G37*
G36*
X85168Y12240D02*
X85092D01*
Y12553D01*
X85065Y12531D01*
X85036Y12510D01*
X85009Y12491D01*
X84982Y12474D01*
X84970Y12467D01*
X84959Y12460D01*
X84948Y12454D01*
X84940Y12449D01*
X84933Y12445D01*
X84928Y12442D01*
X84924Y12441D01*
X84923Y12440D01*
X84886Y12421D01*
X84850Y12405D01*
X84814Y12391D01*
X84799Y12385D01*
X84783Y12380D01*
X84769Y12374D01*
X84756Y12370D01*
X84745Y12367D01*
X84736Y12364D01*
X84727Y12361D01*
X84722Y12359D01*
X84718Y12358D01*
X84717D01*
X84679Y12349D01*
X84661Y12345D01*
X84644Y12343D01*
X84629Y12340D01*
X84613Y12337D01*
X84600Y12335D01*
X84587Y12333D01*
X84576Y12332D01*
X84566Y12332D01*
X84556Y12331D01*
X84549D01*
X84543Y12330D01*
X84540D01*
X84537D01*
X84536D01*
Y12410D01*
X84571Y12413D01*
X84604Y12418D01*
X84633Y12422D01*
X84647Y12425D01*
X84660Y12428D01*
X84671Y12430D01*
X84681Y12432D01*
X84690Y12434D01*
X84698Y12436D01*
X84703Y12438D01*
X84708Y12439D01*
X84711Y12440D01*
X84712D01*
X84754Y12454D01*
X84794Y12468D01*
X84813Y12476D01*
X84832Y12483D01*
X84849Y12491D01*
X84865Y12499D01*
X84880Y12505D01*
X84893Y12512D01*
X84904Y12517D01*
X84914Y12522D01*
X84923Y12527D01*
X84928Y12529D01*
X84932Y12531D01*
X84933Y12532D01*
X84952Y12543D01*
X84972Y12554D01*
X84989Y12565D01*
X85006Y12577D01*
X85021Y12587D01*
X85035Y12597D01*
X85048Y12607D01*
X85059Y12615D01*
X85070Y12624D01*
X85080Y12631D01*
X85087Y12638D01*
X85094Y12644D01*
X85099Y12648D01*
X85103Y12651D01*
X85105Y12653D01*
X85106Y12654D01*
X85168D01*
Y12240D01*
D02*
G37*
G36*
X84747Y12156D02*
X84767Y12152D01*
X84785Y12147D01*
X84800Y12141D01*
X84812Y12136D01*
X84821Y12130D01*
X84826Y12126D01*
X84828Y12125D01*
X84842Y12112D01*
X84854Y12099D01*
X84863Y12084D01*
X84871Y12069D01*
X84876Y12056D01*
X84880Y12046D01*
X84881Y12042D01*
X84882Y12039D01*
X84883Y12038D01*
Y12037D01*
X84891Y12052D01*
X84899Y12065D01*
X84909Y12076D01*
X84917Y12086D01*
X84924Y12093D01*
X84931Y12099D01*
X84935Y12101D01*
X84936Y12102D01*
X84949Y12110D01*
X84962Y12115D01*
X84975Y12120D01*
X84987Y12123D01*
X84997Y12124D01*
X85005Y12125D01*
X85010D01*
X85012D01*
X85028Y12124D01*
X85044Y12122D01*
X85058Y12118D01*
X85070Y12113D01*
X85080Y12109D01*
X85088Y12105D01*
X85093Y12102D01*
X85095Y12101D01*
X85108Y12092D01*
X85120Y12081D01*
X85131Y12070D01*
X85140Y12059D01*
X85146Y12050D01*
X85152Y12041D01*
X85155Y12036D01*
X85156Y12035D01*
Y12034D01*
X85163Y12017D01*
X85168Y12001D01*
X85173Y11984D01*
X85176Y11969D01*
X85178Y11957D01*
X85179Y11947D01*
Y11924D01*
X85177Y11911D01*
X85172Y11886D01*
X85165Y11865D01*
X85157Y11846D01*
X85153Y11838D01*
X85149Y11831D01*
X85145Y11825D01*
X85142Y11820D01*
X85139Y11817D01*
X85137Y11814D01*
X85136Y11812D01*
X85135Y11811D01*
X85118Y11793D01*
X85098Y11780D01*
X85078Y11768D01*
X85058Y11759D01*
X85040Y11754D01*
X85033Y11751D01*
X85026Y11749D01*
X85021Y11748D01*
X85017Y11747D01*
X85014Y11746D01*
X85013D01*
X84999Y11825D01*
X85020Y11829D01*
X85037Y11834D01*
X85052Y11841D01*
X85064Y11847D01*
X85073Y11854D01*
X85080Y11859D01*
X85084Y11863D01*
X85085Y11864D01*
X85095Y11876D01*
X85102Y11889D01*
X85107Y11901D01*
X85110Y11913D01*
X85112Y11924D01*
X85114Y11932D01*
Y11940D01*
X85113Y11956D01*
X85109Y11971D01*
X85105Y11984D01*
X85100Y11995D01*
X85095Y12003D01*
X85090Y12010D01*
X85086Y12014D01*
X85085Y12015D01*
X85074Y12026D01*
X85062Y12033D01*
X85050Y12038D01*
X85039Y12041D01*
X85029Y12043D01*
X85021Y12045D01*
X85016D01*
X85015D01*
X85014D01*
X85004D01*
X84995Y12043D01*
X84979Y12038D01*
X84965Y12032D01*
X84953Y12025D01*
X84945Y12017D01*
X84938Y12011D01*
X84935Y12006D01*
X84934Y12005D01*
Y12004D01*
X84925Y11989D01*
X84919Y11974D01*
X84914Y11958D01*
X84911Y11944D01*
X84910Y11932D01*
X84908Y11922D01*
Y11910D01*
X84909Y11906D01*
Y11902D01*
X84839Y11892D01*
X84842Y11904D01*
X84844Y11915D01*
X84846Y11925D01*
X84847Y11933D01*
X84848Y11940D01*
Y11948D01*
X84846Y11967D01*
X84842Y11985D01*
X84837Y12001D01*
X84830Y12013D01*
X84824Y12024D01*
X84818Y12031D01*
X84814Y12036D01*
X84813Y12038D01*
X84799Y12050D01*
X84784Y12059D01*
X84769Y12065D01*
X84754Y12069D01*
X84742Y12072D01*
X84732Y12073D01*
X84728Y12074D01*
X84726D01*
X84724D01*
X84723D01*
X84702Y12072D01*
X84684Y12067D01*
X84668Y12062D01*
X84654Y12054D01*
X84643Y12047D01*
X84635Y12041D01*
X84629Y12037D01*
X84628Y12035D01*
X84615Y12020D01*
X84605Y12004D01*
X84599Y11989D01*
X84594Y11974D01*
X84592Y11961D01*
X84591Y11951D01*
X84590Y11947D01*
Y11941D01*
X84591Y11925D01*
X84594Y11909D01*
X84599Y11895D01*
X84604Y11884D01*
X84609Y11875D01*
X84614Y11867D01*
X84617Y11864D01*
X84618Y11862D01*
X84631Y11851D01*
X84646Y11842D01*
X84662Y11833D01*
X84678Y11827D01*
X84692Y11822D01*
X84699Y11820D01*
X84704Y11819D01*
X84709Y11818D01*
X84713Y11817D01*
X84715Y11817D01*
X84715D01*
X84705Y11738D01*
X84690Y11740D01*
X84677Y11743D01*
X84651Y11751D01*
X84629Y11761D01*
X84619Y11767D01*
X84610Y11772D01*
X84602Y11778D01*
X84595Y11783D01*
X84589Y11788D01*
X84584Y11793D01*
X84580Y11795D01*
X84578Y11798D01*
X84576Y11800D01*
X84575Y11801D01*
X84567Y11812D01*
X84558Y11823D01*
X84552Y11834D01*
X84546Y11846D01*
X84537Y11869D01*
X84531Y11891D01*
X84530Y11902D01*
X84528Y11911D01*
X84527Y11919D01*
X84526Y11927D01*
X84525Y11932D01*
Y11940D01*
X84526Y11958D01*
X84528Y11974D01*
X84531Y11989D01*
X84534Y12004D01*
X84539Y12018D01*
X84543Y12030D01*
X84549Y12042D01*
X84555Y12052D01*
X84559Y12062D01*
X84565Y12071D01*
X84569Y12078D01*
X84574Y12084D01*
X84578Y12088D01*
X84580Y12092D01*
X84582Y12094D01*
X84583Y12095D01*
X84594Y12106D01*
X84606Y12115D01*
X84618Y12124D01*
X84630Y12131D01*
X84641Y12136D01*
X84654Y12142D01*
X84676Y12149D01*
X84686Y12151D01*
X84695Y12153D01*
X84703Y12155D01*
X84711Y12156D01*
X84716Y12157D01*
X84721D01*
X84724D01*
X84725D01*
X84747Y12156D01*
D02*
G37*
G36*
X84710Y11577D02*
X84728Y11564D01*
X84745Y11552D01*
X84759Y11540D01*
X84772Y11530D01*
X84781Y11521D01*
X84788Y11513D01*
X84793Y11509D01*
X84795Y11507D01*
X84800Y11499D01*
X84807Y11491D01*
X84817Y11474D01*
X84821Y11467D01*
X84825Y11462D01*
X84826Y11458D01*
X84827Y11456D01*
X84830Y11473D01*
X84833Y11488D01*
X84837Y11502D01*
X84841Y11516D01*
X84846Y11528D01*
X84851Y11539D01*
X84856Y11549D01*
X84861Y11559D01*
X84866Y11566D01*
X84871Y11573D01*
X84874Y11579D01*
X84878Y11584D01*
X84881Y11587D01*
X84884Y11590D01*
X84885Y11591D01*
X84886Y11592D01*
X84895Y11599D01*
X84904Y11607D01*
X84923Y11618D01*
X84943Y11625D01*
X84961Y11631D01*
X84977Y11634D01*
X84984Y11635D01*
X84990D01*
X84995Y11636D01*
X84998D01*
X85000D01*
X85001D01*
X85021Y11635D01*
X85038Y11633D01*
X85055Y11628D01*
X85069Y11623D01*
X85081Y11618D01*
X85090Y11614D01*
X85095Y11610D01*
X85096Y11609D01*
X85097D01*
X85112Y11598D01*
X85125Y11587D01*
X85136Y11575D01*
X85144Y11564D01*
X85151Y11554D01*
X85155Y11546D01*
X85157Y11540D01*
X85158Y11539D01*
Y11538D01*
X85161Y11530D01*
X85164Y11520D01*
X85168Y11499D01*
X85171Y11477D01*
X85174Y11457D01*
X85175Y11437D01*
Y11429D01*
X85176Y11422D01*
Y11125D01*
X84536D01*
Y11210D01*
X84820D01*
Y11319D01*
X84819Y11329D01*
Y11337D01*
X84818Y11343D01*
X84817Y11348D01*
Y11351D01*
X84816Y11353D01*
Y11354D01*
X84812Y11369D01*
X84809Y11376D01*
X84806Y11381D01*
X84803Y11387D01*
X84801Y11390D01*
X84800Y11392D01*
X84800Y11393D01*
X84794Y11401D01*
X84788Y11408D01*
X84774Y11422D01*
X84767Y11428D01*
X84762Y11433D01*
X84758Y11436D01*
X84757Y11437D01*
X84744Y11446D01*
X84730Y11456D01*
X84715Y11466D01*
X84702Y11476D01*
X84689Y11485D01*
X84678Y11491D01*
X84675Y11494D01*
X84672Y11496D01*
X84670Y11498D01*
X84669D01*
X84536Y11582D01*
Y11687D01*
X84710Y11577D01*
D02*
G37*
G36*
X183764Y33245D02*
X183763Y33224D01*
X183762Y33204D01*
X183760Y33187D01*
X183758Y33172D01*
X183757Y33159D01*
X183756Y33150D01*
X183755Y33147D01*
X183754Y33144D01*
Y33142D01*
X183749Y33126D01*
X183744Y33111D01*
X183739Y33098D01*
X183733Y33087D01*
X183729Y33077D01*
X183725Y33071D01*
X183722Y33067D01*
X183721Y33065D01*
X183713Y33053D01*
X183703Y33043D01*
X183694Y33033D01*
X183684Y33025D01*
X183676Y33017D01*
X183670Y33012D01*
X183665Y33008D01*
X183663Y33007D01*
X183648Y32998D01*
X183633Y32989D01*
X183618Y32981D01*
X183603Y32976D01*
X183590Y32970D01*
X183580Y32966D01*
X183576Y32966D01*
X183573Y32965D01*
X183572Y32964D01*
X183571D01*
X183548Y32958D01*
X183526Y32954D01*
X183505Y32951D01*
X183485Y32948D01*
X183467Y32947D01*
X183460D01*
X183453Y32946D01*
X183449D01*
X183444D01*
X183442D01*
X183441D01*
X183410Y32947D01*
X183381Y32950D01*
X183355Y32954D01*
X183343Y32956D01*
X183333Y32959D01*
X183323Y32962D01*
X183315Y32964D01*
X183307Y32966D01*
X183301Y32968D01*
X183295Y32969D01*
X183291Y32971D01*
X183290Y32972D01*
X183289D01*
X183265Y32982D01*
X183243Y32994D01*
X183225Y33007D01*
X183209Y33019D01*
X183196Y33030D01*
X183187Y33040D01*
X183184Y33043D01*
X183181Y33046D01*
X183180Y33047D01*
X183180Y33048D01*
X183168Y33063D01*
X183158Y33078D01*
X183150Y33094D01*
X183144Y33109D01*
X183139Y33122D01*
X183136Y33132D01*
X183134Y33136D01*
Y33138D01*
X183133Y33140D01*
Y33141D01*
X183131Y33157D01*
X183128Y33175D01*
X183126Y33194D01*
X183125Y33212D01*
X183124Y33229D01*
Y33475D01*
X183764D01*
Y33245D01*
D02*
G37*
G36*
Y32449D02*
X183688D01*
Y32764D01*
X183672Y32753D01*
X183666Y32747D01*
X183659Y32743D01*
X183654Y32738D01*
X183650Y32734D01*
X183647Y32732D01*
X183646Y32731D01*
X183642Y32726D01*
X183637Y32721D01*
X183625Y32708D01*
X183611Y32693D01*
X183597Y32677D01*
X183585Y32662D01*
X183580Y32656D01*
X183574Y32650D01*
X183571Y32646D01*
X183568Y32642D01*
X183566Y32640D01*
X183565Y32639D01*
X183552Y32624D01*
X183540Y32610D01*
X183528Y32597D01*
X183518Y32585D01*
X183508Y32574D01*
X183499Y32564D01*
X183490Y32555D01*
X183483Y32548D01*
X183475Y32540D01*
X183470Y32535D01*
X183465Y32530D01*
X183461Y32525D01*
X183455Y32521D01*
X183453Y32519D01*
X183438Y32506D01*
X183424Y32495D01*
X183410Y32486D01*
X183399Y32478D01*
X183389Y32473D01*
X183381Y32469D01*
X183377Y32467D01*
X183375Y32466D01*
X183361Y32461D01*
X183347Y32457D01*
X183334Y32453D01*
X183323Y32452D01*
X183313Y32451D01*
X183305Y32450D01*
X183301D01*
X183299D01*
X183285Y32451D01*
X183272Y32452D01*
X183259Y32454D01*
X183248Y32458D01*
X183226Y32467D01*
X183208Y32476D01*
X183200Y32482D01*
X183193Y32487D01*
X183187Y32491D01*
X183182Y32496D01*
X183179Y32500D01*
X183175Y32501D01*
X183174Y32503D01*
X183173Y32504D01*
X183164Y32514D01*
X183156Y32525D01*
X183149Y32537D01*
X183144Y32550D01*
X183134Y32574D01*
X183128Y32598D01*
X183126Y32608D01*
X183124Y32618D01*
X183123Y32627D01*
X183122Y32635D01*
X183121Y32641D01*
Y32650D01*
X183122Y32667D01*
X183123Y32683D01*
X183126Y32697D01*
X183129Y32711D01*
X183132Y32724D01*
X183136Y32736D01*
X183141Y32747D01*
X183145Y32758D01*
X183150Y32767D01*
X183155Y32774D01*
X183158Y32781D01*
X183162Y32786D01*
X183165Y32791D01*
X183168Y32794D01*
X183168Y32795D01*
X183169Y32796D01*
X183179Y32806D01*
X183189Y32814D01*
X183200Y32822D01*
X183211Y32829D01*
X183233Y32840D01*
X183255Y32847D01*
X183266Y32850D01*
X183276Y32853D01*
X183284Y32855D01*
X183291Y32856D01*
X183298Y32857D01*
X183303D01*
X183305Y32858D01*
X183306D01*
X183315Y32778D01*
X183293Y32776D01*
X183275Y32772D01*
X183258Y32767D01*
X183245Y32760D01*
X183234Y32755D01*
X183227Y32749D01*
X183222Y32746D01*
X183220Y32744D01*
X183209Y32730D01*
X183201Y32715D01*
X183194Y32699D01*
X183191Y32685D01*
X183188Y32672D01*
X183187Y32661D01*
X183186Y32658D01*
Y32652D01*
X183187Y32633D01*
X183191Y32615D01*
X183196Y32600D01*
X183202Y32587D01*
X183208Y32577D01*
X183213Y32571D01*
X183217Y32566D01*
X183218Y32564D01*
X183231Y32553D01*
X183244Y32545D01*
X183257Y32538D01*
X183270Y32535D01*
X183280Y32532D01*
X183290Y32531D01*
X183295Y32530D01*
X183296D01*
X183297D01*
X183314Y32532D01*
X183331Y32536D01*
X183347Y32542D01*
X183362Y32549D01*
X183374Y32556D01*
X183384Y32562D01*
X183388Y32564D01*
X183390Y32566D01*
X183391Y32568D01*
X183392D01*
X183402Y32575D01*
X183413Y32585D01*
X183424Y32595D01*
X183435Y32606D01*
X183457Y32629D01*
X183479Y32652D01*
X183489Y32664D01*
X183499Y32674D01*
X183507Y32685D01*
X183514Y32693D01*
X183520Y32699D01*
X183524Y32705D01*
X183527Y32709D01*
X183528Y32709D01*
X183548Y32733D01*
X183566Y32754D01*
X183583Y32771D01*
X183597Y32785D01*
X183609Y32797D01*
X183617Y32806D01*
X183622Y32810D01*
X183623Y32812D01*
X183624D01*
X183640Y32825D01*
X183655Y32835D01*
X183670Y32844D01*
X183683Y32852D01*
X183694Y32857D01*
X183702Y32861D01*
X183708Y32863D01*
X183708Y32864D01*
X183709D01*
X183720Y32868D01*
X183729Y32869D01*
X183738Y32871D01*
X183746Y32872D01*
X183754Y32873D01*
X183759D01*
X183763D01*
X183764D01*
Y32449D01*
D02*
G37*
G36*
X183481Y32364D02*
X183512Y32362D01*
X183539Y32359D01*
X183565Y32354D01*
X183589Y32350D01*
X183610Y32344D01*
X183630Y32339D01*
X183646Y32333D01*
X183661Y32328D01*
X183674Y32321D01*
X183685Y32317D01*
X183694Y32312D01*
X183701Y32307D01*
X183706Y32305D01*
X183708Y32303D01*
X183709Y32302D01*
X183720Y32292D01*
X183731Y32280D01*
X183740Y32268D01*
X183747Y32256D01*
X183754Y32244D01*
X183759Y32232D01*
X183763Y32220D01*
X183767Y32209D01*
X183769Y32198D01*
X183771Y32188D01*
X183773Y32179D01*
X183774Y32171D01*
X183775Y32165D01*
Y32156D01*
X183773Y32131D01*
X183769Y32108D01*
X183763Y32088D01*
X183757Y32072D01*
X183750Y32058D01*
X183746Y32053D01*
X183744Y32048D01*
X183742Y32045D01*
X183740Y32042D01*
X183738Y32041D01*
Y32040D01*
X183722Y32023D01*
X183706Y32010D01*
X183687Y31998D01*
X183671Y31988D01*
X183655Y31981D01*
X183648Y31977D01*
X183642Y31975D01*
X183637Y31974D01*
X183634Y31972D01*
X183632Y31971D01*
X183631D01*
X183617Y31966D01*
X183603Y31962D01*
X183573Y31957D01*
X183543Y31952D01*
X183513Y31949D01*
X183500Y31949D01*
X183488Y31948D01*
X183477D01*
X183467Y31947D01*
X183460D01*
X183453D01*
X183450D01*
X183449D01*
X183431D01*
X183414Y31948D01*
X183400D01*
X183385Y31949D01*
X183372Y31950D01*
X183359Y31951D01*
X183348Y31952D01*
X183338Y31954D01*
X183328Y31955D01*
X183320Y31957D01*
X183314Y31958D01*
X183308Y31959D01*
X183303Y31960D01*
X183301Y31961D01*
X183299Y31962D01*
X183298D01*
X183278Y31967D01*
X183259Y31974D01*
X183243Y31981D01*
X183230Y31986D01*
X183217Y31993D01*
X183209Y31997D01*
X183205Y32000D01*
X183203Y32001D01*
X183189Y32011D01*
X183177Y32022D01*
X183167Y32033D01*
X183157Y32043D01*
X183151Y32052D01*
X183146Y32060D01*
X183144Y32064D01*
X183143Y32065D01*
Y32066D01*
X183135Y32081D01*
X183131Y32096D01*
X183127Y32111D01*
X183124Y32125D01*
X183122Y32137D01*
X183121Y32147D01*
Y32156D01*
X183123Y32181D01*
X183127Y32204D01*
X183133Y32223D01*
X183140Y32240D01*
X183147Y32254D01*
X183150Y32259D01*
X183154Y32264D01*
X183156Y32268D01*
X183157Y32270D01*
X183159Y32271D01*
Y32272D01*
X183174Y32289D01*
X183192Y32303D01*
X183209Y32315D01*
X183226Y32324D01*
X183242Y32331D01*
X183248Y32335D01*
X183254Y32337D01*
X183259Y32339D01*
X183263Y32341D01*
X183265Y32341D01*
X183266D01*
X183279Y32345D01*
X183293Y32349D01*
X183324Y32354D01*
X183354Y32359D01*
X183383Y32362D01*
X183397Y32363D01*
X183409Y32364D01*
X183420D01*
X183430Y32365D01*
X183438D01*
X183444D01*
X183448D01*
X183449D01*
X183481Y32364D01*
D02*
G37*
G36*
X110540Y22670D02*
X110525Y22661D01*
X110510Y22651D01*
X110495Y22639D01*
X110482Y22628D01*
X110471Y22617D01*
X110462Y22608D01*
X110459Y22605D01*
X110456Y22602D01*
X110455Y22601D01*
X110454Y22600D01*
X110439Y22581D01*
X110424Y22561D01*
X110411Y22543D01*
X110401Y22524D01*
X110392Y22508D01*
X110388Y22502D01*
X110385Y22496D01*
X110382Y22492D01*
X110381Y22488D01*
X110380Y22486D01*
Y22485D01*
X110304D01*
X110309Y22499D01*
X110316Y22513D01*
X110322Y22527D01*
X110329Y22540D01*
X110334Y22551D01*
X110339Y22560D01*
X110343Y22566D01*
X110344Y22567D01*
Y22568D01*
X110354Y22584D01*
X110364Y22599D01*
X110373Y22612D01*
X110381Y22622D01*
X110388Y22631D01*
X110393Y22637D01*
X110397Y22642D01*
X110398Y22643D01*
X109898D01*
Y22721D01*
X110540D01*
Y22670D01*
D02*
G37*
G36*
X110538Y22231D02*
X110168D01*
X110147D01*
X110126Y22229D01*
X110109Y22227D01*
X110092Y22225D01*
X110077Y22222D01*
X110063Y22218D01*
X110051Y22215D01*
X110041Y22212D01*
X110033Y22208D01*
X110025Y22204D01*
X110019Y22201D01*
X110013Y22198D01*
X110010Y22195D01*
X110007Y22193D01*
X110006Y22192D01*
X110005Y22191D01*
X109998Y22183D01*
X109991Y22174D01*
X109981Y22153D01*
X109974Y22132D01*
X109969Y22110D01*
X109965Y22090D01*
X109964Y22081D01*
Y22073D01*
X109964Y22067D01*
Y22058D01*
X109964Y22039D01*
X109967Y22021D01*
X109970Y22005D01*
X109975Y21992D01*
X109978Y21981D01*
X109981Y21972D01*
X109984Y21968D01*
X109985Y21966D01*
X109993Y21953D01*
X110003Y21942D01*
X110013Y21932D01*
X110023Y21926D01*
X110032Y21920D01*
X110038Y21916D01*
X110043Y21914D01*
X110045Y21913D01*
X110053Y21910D01*
X110062Y21908D01*
X110081Y21905D01*
X110101Y21902D01*
X110122Y21900D01*
X110139Y21899D01*
X110148D01*
X110154Y21898D01*
X110160D01*
X110164D01*
X110167D01*
X110168D01*
X110538D01*
Y21813D01*
X110168D01*
X110149D01*
X110132Y21814D01*
X110115Y21815D01*
X110099Y21817D01*
X110086Y21819D01*
X110073Y21821D01*
X110061Y21823D01*
X110050Y21825D01*
X110039Y21827D01*
X110031Y21830D01*
X110024Y21832D01*
X110018Y21834D01*
X110013Y21835D01*
X110010Y21836D01*
X110008Y21837D01*
X110007D01*
X109987Y21847D01*
X109968Y21860D01*
X109953Y21873D01*
X109940Y21887D01*
X109930Y21899D01*
X109923Y21909D01*
X109921Y21913D01*
X109919Y21916D01*
X109917Y21918D01*
Y21919D01*
X109907Y21942D01*
X109900Y21966D01*
X109894Y21991D01*
X109890Y22014D01*
X109890Y22024D01*
X109889Y22034D01*
X109888Y22043D01*
Y22051D01*
X109887Y22057D01*
Y22066D01*
X109889Y22099D01*
X109890Y22114D01*
X109892Y22128D01*
X109895Y22141D01*
X109898Y22153D01*
X109901Y22165D01*
X109904Y22175D01*
X109908Y22184D01*
X109911Y22191D01*
X109914Y22199D01*
X109916Y22204D01*
X109919Y22209D01*
X109920Y22212D01*
X109922Y22214D01*
Y22214D01*
X109936Y22235D01*
X109952Y22251D01*
X109966Y22264D01*
X109981Y22275D01*
X109994Y22284D01*
X110004Y22289D01*
X110008Y22291D01*
X110011Y22293D01*
X110013Y22294D01*
X110013D01*
X110025Y22298D01*
X110037Y22301D01*
X110062Y22307D01*
X110087Y22311D01*
X110112Y22313D01*
X110123Y22314D01*
X110135Y22315D01*
X110144D01*
X110152Y22316D01*
X110159D01*
X110163D01*
X110167D01*
X110168D01*
X110538D01*
Y22231D01*
D02*
G37*
G36*
X193475Y126576D02*
X193486Y126561D01*
X193498Y126546D01*
X193509Y126533D01*
X193520Y126522D01*
X193528Y126513D01*
X193532Y126510D01*
X193535Y126507D01*
X193535Y126506D01*
X193536Y126505D01*
X193556Y126490D01*
X193575Y126475D01*
X193594Y126462D01*
X193612Y126452D01*
X193628Y126442D01*
X193634Y126439D01*
X193640Y126436D01*
X193645Y126433D01*
X193648Y126432D01*
X193650Y126430D01*
X193651D01*
Y126355D01*
X193637Y126360D01*
X193623Y126367D01*
X193609Y126373D01*
X193596Y126380D01*
X193585Y126385D01*
X193576Y126390D01*
X193571Y126393D01*
X193570Y126394D01*
X193569D01*
X193552Y126405D01*
X193537Y126415D01*
X193524Y126424D01*
X193514Y126432D01*
X193505Y126439D01*
X193499Y126444D01*
X193495Y126448D01*
X193494Y126449D01*
Y125949D01*
X193415D01*
Y126591D01*
X193466D01*
X193475Y126576D01*
D02*
G37*
G36*
X194323Y125949D02*
X194238D01*
Y126233D01*
X194129D01*
X194119Y126232D01*
X194111D01*
X194105Y126231D01*
X194100Y126230D01*
X194097D01*
X194095Y126229D01*
X194094D01*
X194079Y126224D01*
X194073Y126221D01*
X194067Y126219D01*
X194062Y126216D01*
X194058Y126214D01*
X194056Y126213D01*
X194055Y126212D01*
X194048Y126207D01*
X194040Y126200D01*
X194026Y126186D01*
X194020Y126180D01*
X194015Y126174D01*
X194013Y126171D01*
X194012Y126170D01*
X194002Y126157D01*
X193992Y126143D01*
X193982Y126128D01*
X193972Y126114D01*
X193964Y126101D01*
X193957Y126091D01*
X193954Y126087D01*
X193952Y126085D01*
X193951Y126083D01*
Y126082D01*
X193866Y125949D01*
X193761D01*
X193871Y126123D01*
X193884Y126141D01*
X193896Y126158D01*
X193908Y126172D01*
X193918Y126184D01*
X193927Y126194D01*
X193935Y126201D01*
X193940Y126206D01*
X193941Y126208D01*
X193949Y126213D01*
X193957Y126220D01*
X193974Y126230D01*
X193981Y126233D01*
X193987Y126237D01*
X193990Y126239D01*
X193992Y126240D01*
X193976Y126243D01*
X193960Y126245D01*
X193946Y126250D01*
X193932Y126254D01*
X193920Y126258D01*
X193909Y126264D01*
X193899Y126269D01*
X193890Y126273D01*
X193882Y126279D01*
X193875Y126283D01*
X193869Y126287D01*
X193865Y126291D01*
X193861Y126294D01*
X193858Y126296D01*
X193857Y126297D01*
X193856Y126298D01*
X193849Y126307D01*
X193842Y126317D01*
X193830Y126336D01*
X193823Y126355D01*
X193817Y126374D01*
X193814Y126390D01*
X193813Y126396D01*
Y126403D01*
X193812Y126407D01*
Y126411D01*
Y126413D01*
Y126414D01*
X193813Y126433D01*
X193816Y126451D01*
X193820Y126467D01*
X193825Y126481D01*
X193830Y126493D01*
X193834Y126503D01*
X193838Y126508D01*
X193839Y126509D01*
Y126510D01*
X193850Y126525D01*
X193861Y126538D01*
X193873Y126549D01*
X193884Y126557D01*
X193894Y126564D01*
X193903Y126567D01*
X193908Y126570D01*
X193909Y126571D01*
X193910D01*
X193918Y126574D01*
X193928Y126576D01*
X193949Y126581D01*
X193971Y126584D01*
X193991Y126587D01*
X194011Y126588D01*
X194019D01*
X194026Y126588D01*
X194323D01*
Y125949D01*
D02*
G37*
G36*
X193030Y126589D02*
X193053Y126586D01*
X193072Y126579D01*
X193089Y126573D01*
X193103Y126565D01*
X193108Y126563D01*
X193113Y126559D01*
X193117Y126557D01*
X193119Y126555D01*
X193120Y126553D01*
X193121D01*
X193138Y126539D01*
X193152Y126521D01*
X193164Y126503D01*
X193173Y126487D01*
X193180Y126471D01*
X193184Y126465D01*
X193186Y126458D01*
X193188Y126453D01*
X193190Y126450D01*
X193191Y126448D01*
Y126447D01*
X193194Y126433D01*
X193198Y126419D01*
X193204Y126389D01*
X193208Y126358D01*
X193211Y126330D01*
X193212Y126316D01*
X193213Y126304D01*
Y126293D01*
X193214Y126282D01*
Y126275D01*
Y126269D01*
Y126265D01*
Y126264D01*
X193213Y126232D01*
X193211Y126201D01*
X193208Y126173D01*
X193204Y126147D01*
X193199Y126123D01*
X193193Y126102D01*
X193188Y126083D01*
X193182Y126066D01*
X193177Y126051D01*
X193170Y126038D01*
X193166Y126027D01*
X193161Y126019D01*
X193156Y126012D01*
X193154Y126007D01*
X193152Y126004D01*
X193151Y126003D01*
X193141Y125992D01*
X193130Y125982D01*
X193118Y125973D01*
X193106Y125965D01*
X193094Y125959D01*
X193082Y125953D01*
X193070Y125950D01*
X193058Y125946D01*
X193047Y125943D01*
X193037Y125941D01*
X193028Y125939D01*
X193020Y125939D01*
X193014Y125938D01*
X193005D01*
X192980Y125939D01*
X192957Y125943D01*
X192937Y125950D01*
X192921Y125956D01*
X192907Y125963D01*
X192902Y125966D01*
X192898Y125969D01*
X192894Y125971D01*
X192891Y125973D01*
X192890Y125975D01*
X192889D01*
X192873Y125990D01*
X192859Y126007D01*
X192847Y126025D01*
X192837Y126042D01*
X192830Y126058D01*
X192826Y126064D01*
X192824Y126071D01*
X192823Y126075D01*
X192821Y126079D01*
X192820Y126081D01*
Y126082D01*
X192815Y126096D01*
X192812Y126110D01*
X192806Y126139D01*
X192801Y126170D01*
X192799Y126199D01*
X192798Y126212D01*
X192797Y126224D01*
Y126235D01*
X192796Y126245D01*
Y126253D01*
Y126259D01*
Y126263D01*
Y126264D01*
Y126282D01*
X192797Y126298D01*
Y126313D01*
X192798Y126328D01*
X192800Y126341D01*
X192800Y126354D01*
X192801Y126365D01*
X192803Y126375D01*
X192804Y126384D01*
X192806Y126392D01*
X192807Y126399D01*
X192808Y126405D01*
X192809Y126409D01*
X192810Y126412D01*
X192811Y126414D01*
Y126415D01*
X192816Y126435D01*
X192823Y126453D01*
X192830Y126469D01*
X192836Y126483D01*
X192842Y126495D01*
X192846Y126503D01*
X192849Y126508D01*
X192850Y126510D01*
X192861Y126524D01*
X192871Y126536D01*
X192882Y126546D01*
X192892Y126555D01*
X192901Y126562D01*
X192909Y126566D01*
X192913Y126569D01*
X192914Y126570D01*
X192915D01*
X192930Y126577D01*
X192946Y126582D01*
X192960Y126586D01*
X192974Y126588D01*
X192986Y126590D01*
X192996Y126591D01*
X193005D01*
X193030Y126589D01*
D02*
G37*
G36*
X162203Y127153D02*
X162218Y127151D01*
X162233Y127148D01*
X162246Y127144D01*
X162271Y127134D01*
X162282Y127130D01*
X162291Y127124D01*
X162300Y127118D01*
X162308Y127113D01*
X162315Y127107D01*
X162320Y127103D01*
X162325Y127099D01*
X162328Y127096D01*
X162330Y127094D01*
X162331Y127094D01*
X162341Y127082D01*
X162349Y127070D01*
X162357Y127058D01*
X162364Y127045D01*
X162369Y127031D01*
X162374Y127018D01*
X162381Y126994D01*
X162383Y126982D01*
X162385Y126972D01*
X162386Y126961D01*
X162387Y126953D01*
X162388Y126947D01*
Y126942D01*
Y126938D01*
Y126937D01*
X162387Y126920D01*
X162385Y126904D01*
X162383Y126888D01*
X162380Y126874D01*
X162375Y126861D01*
X162370Y126848D01*
X162366Y126837D01*
X162360Y126826D01*
X162356Y126817D01*
X162351Y126809D01*
X162346Y126802D01*
X162342Y126796D01*
X162338Y126791D01*
X162336Y126788D01*
X162334Y126787D01*
X162333Y126786D01*
X162323Y126776D01*
X162312Y126767D01*
X162301Y126759D01*
X162289Y126752D01*
X162278Y126747D01*
X162267Y126742D01*
X162246Y126736D01*
X162236Y126733D01*
X162227Y126731D01*
X162220Y126730D01*
X162212Y126729D01*
X162207Y126728D01*
X162199D01*
X162182Y126729D01*
X162165Y126732D01*
X162150Y126736D01*
X162136Y126740D01*
X162126Y126744D01*
X162118Y126748D01*
X162112Y126751D01*
X162111Y126751D01*
X162096Y126761D01*
X162083Y126771D01*
X162072Y126781D01*
X162063Y126790D01*
X162056Y126800D01*
X162050Y126806D01*
X162047Y126811D01*
X162046Y126812D01*
Y126805D01*
Y126800D01*
Y126798D01*
Y126797D01*
X162047Y126778D01*
X162048Y126761D01*
X162050Y126745D01*
X162051Y126730D01*
X162054Y126718D01*
X162056Y126709D01*
X162057Y126705D01*
Y126702D01*
X162058Y126702D01*
Y126701D01*
X162063Y126684D01*
X162067Y126669D01*
X162072Y126656D01*
X162076Y126645D01*
X162080Y126637D01*
X162084Y126630D01*
X162086Y126626D01*
X162087Y126625D01*
X162094Y126615D01*
X162101Y126606D01*
X162109Y126599D01*
X162116Y126592D01*
X162122Y126587D01*
X162127Y126583D01*
X162131Y126581D01*
X162132Y126580D01*
X162142Y126575D01*
X162153Y126571D01*
X162163Y126568D01*
X162173Y126567D01*
X162182Y126566D01*
X162188Y126565D01*
X162195D01*
X162210Y126566D01*
X162223Y126568D01*
X162235Y126572D01*
X162246Y126577D01*
X162253Y126580D01*
X162259Y126584D01*
X162263Y126587D01*
X162264Y126588D01*
X162273Y126598D01*
X162281Y126610D01*
X162287Y126623D01*
X162292Y126636D01*
X162296Y126647D01*
X162298Y126657D01*
X162299Y126661D01*
Y126663D01*
X162300Y126665D01*
Y126665D01*
X162376Y126659D01*
X162370Y126632D01*
X162363Y126609D01*
X162354Y126589D01*
X162344Y126572D01*
X162335Y126559D01*
X162331Y126554D01*
X162327Y126549D01*
X162324Y126546D01*
X162321Y126543D01*
X162320Y126543D01*
X162320Y126542D01*
X162310Y126534D01*
X162300Y126528D01*
X162280Y126518D01*
X162259Y126510D01*
X162240Y126506D01*
X162222Y126502D01*
X162215Y126501D01*
X162209D01*
X162204Y126500D01*
X162197D01*
X162171Y126502D01*
X162148Y126506D01*
X162126Y126512D01*
X162109Y126519D01*
X162101Y126522D01*
X162094Y126526D01*
X162088Y126530D01*
X162083Y126532D01*
X162079Y126534D01*
X162076Y126536D01*
X162075Y126538D01*
X162074D01*
X162055Y126554D01*
X162038Y126571D01*
X162026Y126590D01*
X162014Y126607D01*
X162005Y126623D01*
X162001Y126630D01*
X161999Y126636D01*
X161997Y126641D01*
X161995Y126645D01*
X161994Y126647D01*
Y126648D01*
X161989Y126662D01*
X161985Y126677D01*
X161978Y126709D01*
X161974Y126742D01*
X161971Y126774D01*
X161969Y126788D01*
X161968Y126801D01*
Y126813D01*
X161967Y126824D01*
Y126832D01*
Y126838D01*
Y126843D01*
Y126844D01*
Y126865D01*
X161968Y126886D01*
X161970Y126904D01*
X161972Y126922D01*
X161974Y126937D01*
X161976Y126952D01*
X161978Y126966D01*
X161981Y126978D01*
X161984Y126988D01*
X161986Y126997D01*
X161989Y127006D01*
X161990Y127012D01*
X161992Y127017D01*
X161994Y127021D01*
X161995Y127022D01*
Y127023D01*
X162006Y127045D01*
X162018Y127065D01*
X162032Y127082D01*
X162044Y127095D01*
X162056Y127106D01*
X162065Y127113D01*
X162069Y127116D01*
X162072Y127118D01*
X162073Y127119D01*
X162074D01*
X162093Y127131D01*
X162112Y127139D01*
X162132Y127145D01*
X162149Y127149D01*
X162165Y127152D01*
X162172Y127153D01*
X162176D01*
X162181Y127154D01*
X162187D01*
X162203Y127153D01*
D02*
G37*
G36*
X163000Y126511D02*
X162915D01*
Y126795D01*
X162806D01*
X162796Y126794D01*
X162788D01*
X162782Y126793D01*
X162777Y126792D01*
X162773D01*
X162772Y126791D01*
X162771D01*
X162756Y126787D01*
X162749Y126784D01*
X162744Y126781D01*
X162738Y126778D01*
X162735Y126776D01*
X162733Y126776D01*
X162732Y126775D01*
X162724Y126769D01*
X162717Y126763D01*
X162703Y126749D01*
X162697Y126742D01*
X162692Y126737D01*
X162689Y126733D01*
X162688Y126732D01*
X162679Y126719D01*
X162669Y126705D01*
X162659Y126690D01*
X162649Y126677D01*
X162640Y126664D01*
X162634Y126653D01*
X162631Y126650D01*
X162629Y126647D01*
X162627Y126645D01*
Y126644D01*
X162543Y126511D01*
X162438D01*
X162548Y126685D01*
X162561Y126703D01*
X162573Y126720D01*
X162585Y126734D01*
X162595Y126747D01*
X162604Y126756D01*
X162612Y126763D01*
X162616Y126768D01*
X162618Y126770D01*
X162626Y126776D01*
X162634Y126782D01*
X162651Y126792D01*
X162658Y126796D01*
X162663Y126800D01*
X162667Y126801D01*
X162669Y126802D01*
X162652Y126805D01*
X162637Y126808D01*
X162623Y126812D01*
X162609Y126816D01*
X162597Y126821D01*
X162586Y126826D01*
X162576Y126831D01*
X162566Y126836D01*
X162559Y126841D01*
X162552Y126846D01*
X162546Y126849D01*
X162541Y126853D01*
X162538Y126856D01*
X162535Y126859D01*
X162534Y126860D01*
X162533Y126861D01*
X162526Y126870D01*
X162518Y126879D01*
X162507Y126898D01*
X162500Y126918D01*
X162494Y126936D01*
X162491Y126952D01*
X162490Y126959D01*
Y126965D01*
X162489Y126970D01*
Y126973D01*
Y126975D01*
Y126976D01*
X162490Y126996D01*
X162492Y127013D01*
X162497Y127030D01*
X162502Y127044D01*
X162507Y127056D01*
X162511Y127065D01*
X162515Y127070D01*
X162516Y127071D01*
Y127072D01*
X162527Y127087D01*
X162538Y127100D01*
X162550Y127111D01*
X162561Y127119D01*
X162571Y127126D01*
X162579Y127130D01*
X162585Y127132D01*
X162586Y127133D01*
X162587D01*
X162595Y127136D01*
X162605Y127139D01*
X162626Y127143D01*
X162648Y127146D01*
X162668Y127149D01*
X162688Y127150D01*
X162696D01*
X162703Y127151D01*
X163000D01*
Y126511D01*
D02*
G37*
G36*
X259975Y126000D02*
X259890D01*
Y126284D01*
X259781D01*
X259771Y126283D01*
X259763D01*
X259757Y126282D01*
X259752Y126281D01*
X259749D01*
X259747Y126280D01*
X259746D01*
X259731Y126276D01*
X259724Y126273D01*
X259719Y126270D01*
X259713Y126267D01*
X259710Y126265D01*
X259708Y126264D01*
X259707Y126263D01*
X259699Y126258D01*
X259692Y126251D01*
X259678Y126238D01*
X259672Y126231D01*
X259667Y126226D01*
X259664Y126222D01*
X259663Y126221D01*
X259654Y126208D01*
X259644Y126194D01*
X259634Y126179D01*
X259624Y126165D01*
X259615Y126153D01*
X259609Y126142D01*
X259606Y126139D01*
X259604Y126136D01*
X259602Y126134D01*
Y126133D01*
X259518Y126000D01*
X259413D01*
X259523Y126174D01*
X259536Y126192D01*
X259548Y126209D01*
X259560Y126223D01*
X259570Y126236D01*
X259579Y126245D01*
X259587Y126252D01*
X259591Y126257D01*
X259593Y126259D01*
X259601Y126264D01*
X259609Y126271D01*
X259626Y126281D01*
X259633Y126285D01*
X259638Y126288D01*
X259642Y126290D01*
X259644Y126291D01*
X259627Y126294D01*
X259612Y126297D01*
X259598Y126301D01*
X259584Y126305D01*
X259572Y126310D01*
X259561Y126315D01*
X259551Y126320D01*
X259541Y126325D01*
X259534Y126330D01*
X259527Y126335D01*
X259521Y126338D01*
X259516Y126342D01*
X259513Y126345D01*
X259510Y126348D01*
X259509Y126349D01*
X259508Y126349D01*
X259501Y126359D01*
X259493Y126368D01*
X259482Y126387D01*
X259475Y126407D01*
X259469Y126425D01*
X259466Y126441D01*
X259465Y126447D01*
Y126454D01*
X259464Y126459D01*
Y126462D01*
Y126464D01*
Y126465D01*
X259465Y126484D01*
X259467Y126502D01*
X259472Y126519D01*
X259477Y126533D01*
X259482Y126545D01*
X259486Y126554D01*
X259490Y126559D01*
X259491Y126560D01*
Y126561D01*
X259502Y126576D01*
X259513Y126589D01*
X259525Y126600D01*
X259536Y126608D01*
X259546Y126615D01*
X259554Y126619D01*
X259560Y126621D01*
X259561Y126622D01*
X259562D01*
X259570Y126625D01*
X259580Y126628D01*
X259601Y126632D01*
X259623Y126635D01*
X259643Y126638D01*
X259663Y126639D01*
X259671D01*
X259678Y126640D01*
X259975D01*
Y126000D01*
D02*
G37*
G36*
X259357Y126556D02*
X259044D01*
X259066Y126529D01*
X259087Y126500D01*
X259106Y126472D01*
X259124Y126446D01*
X259131Y126434D01*
X259137Y126423D01*
X259144Y126412D01*
X259148Y126404D01*
X259152Y126397D01*
X259155Y126392D01*
X259157Y126388D01*
X259158Y126387D01*
X259176Y126350D01*
X259193Y126313D01*
X259207Y126278D01*
X259212Y126263D01*
X259218Y126247D01*
X259223Y126233D01*
X259227Y126220D01*
X259231Y126209D01*
X259234Y126200D01*
X259236Y126191D01*
X259238Y126186D01*
X259239Y126182D01*
Y126181D01*
X259248Y126143D01*
X259252Y126125D01*
X259255Y126108D01*
X259258Y126092D01*
X259260Y126077D01*
X259262Y126064D01*
X259264Y126051D01*
X259265Y126040D01*
X259266Y126030D01*
X259267Y126020D01*
Y126013D01*
X259268Y126007D01*
Y126004D01*
Y126001D01*
Y126000D01*
X259187D01*
X259185Y126035D01*
X259180Y126067D01*
X259175Y126097D01*
X259172Y126111D01*
X259170Y126124D01*
X259168Y126135D01*
X259165Y126145D01*
X259163Y126154D01*
X259161Y126162D01*
X259160Y126167D01*
X259159Y126172D01*
X259158Y126175D01*
Y126176D01*
X259144Y126218D01*
X259129Y126258D01*
X259122Y126277D01*
X259114Y126296D01*
X259106Y126312D01*
X259099Y126329D01*
X259092Y126344D01*
X259086Y126357D01*
X259080Y126368D01*
X259075Y126378D01*
X259071Y126386D01*
X259068Y126392D01*
X259066Y126396D01*
X259065Y126397D01*
X259054Y126416D01*
X259043Y126435D01*
X259032Y126453D01*
X259021Y126470D01*
X259011Y126484D01*
X259001Y126499D01*
X258990Y126512D01*
X258982Y126523D01*
X258974Y126534D01*
X258966Y126544D01*
X258959Y126551D01*
X258953Y126558D01*
X258950Y126563D01*
X258946Y126567D01*
X258944Y126569D01*
X258943Y126570D01*
Y126631D01*
X259357D01*
Y126556D01*
D02*
G37*
G36*
X227975Y126000D02*
X227890D01*
Y126284D01*
X227781D01*
X227771Y126283D01*
X227763D01*
X227757Y126282D01*
X227752Y126281D01*
X227749D01*
X227747Y126280D01*
X227746D01*
X227731Y126276D01*
X227724Y126273D01*
X227719Y126270D01*
X227713Y126267D01*
X227710Y126265D01*
X227708Y126264D01*
X227707Y126263D01*
X227699Y126258D01*
X227692Y126251D01*
X227678Y126238D01*
X227672Y126231D01*
X227667Y126226D01*
X227664Y126222D01*
X227663Y126221D01*
X227654Y126208D01*
X227644Y126194D01*
X227634Y126179D01*
X227624Y126165D01*
X227615Y126153D01*
X227609Y126142D01*
X227606Y126139D01*
X227604Y126136D01*
X227602Y126134D01*
Y126133D01*
X227518Y126000D01*
X227413D01*
X227523Y126174D01*
X227536Y126192D01*
X227548Y126209D01*
X227560Y126223D01*
X227570Y126236D01*
X227579Y126245D01*
X227587Y126252D01*
X227591Y126257D01*
X227593Y126259D01*
X227601Y126264D01*
X227609Y126271D01*
X227626Y126281D01*
X227633Y126285D01*
X227638Y126288D01*
X227642Y126290D01*
X227644Y126291D01*
X227627Y126294D01*
X227612Y126297D01*
X227598Y126301D01*
X227584Y126305D01*
X227572Y126310D01*
X227561Y126315D01*
X227551Y126320D01*
X227541Y126325D01*
X227534Y126330D01*
X227527Y126335D01*
X227521Y126338D01*
X227516Y126342D01*
X227513Y126345D01*
X227510Y126348D01*
X227509Y126349D01*
X227508Y126349D01*
X227501Y126359D01*
X227493Y126368D01*
X227482Y126387D01*
X227475Y126407D01*
X227469Y126425D01*
X227466Y126441D01*
X227465Y126447D01*
Y126454D01*
X227464Y126459D01*
Y126462D01*
Y126464D01*
Y126465D01*
X227465Y126484D01*
X227467Y126502D01*
X227472Y126519D01*
X227477Y126533D01*
X227482Y126545D01*
X227486Y126554D01*
X227490Y126559D01*
X227491Y126560D01*
Y126561D01*
X227502Y126576D01*
X227513Y126589D01*
X227525Y126600D01*
X227536Y126608D01*
X227546Y126615D01*
X227554Y126619D01*
X227560Y126621D01*
X227561Y126622D01*
X227562D01*
X227570Y126625D01*
X227580Y126628D01*
X227601Y126632D01*
X227623Y126635D01*
X227643Y126638D01*
X227663Y126639D01*
X227671D01*
X227678Y126640D01*
X227975D01*
Y126000D01*
D02*
G37*
G36*
X227390Y126226D02*
Y126153D01*
X227111D01*
Y126000D01*
X227033D01*
Y126153D01*
X226946D01*
Y126226D01*
X227033D01*
Y126640D01*
X227097D01*
X227390Y126226D01*
D02*
G37*
G36*
X232105Y29253D02*
X232122Y29251D01*
X232139Y29247D01*
X232155Y29243D01*
X232169Y29236D01*
X232183Y29231D01*
X232195Y29223D01*
X232206Y29217D01*
X232215Y29210D01*
X232224Y29203D01*
X232232Y29197D01*
X232237Y29192D01*
X232242Y29186D01*
X232245Y29182D01*
X232247Y29181D01*
X232248Y29180D01*
X232260Y29163D01*
X232270Y29144D01*
X232280Y29123D01*
X232288Y29102D01*
X232294Y29080D01*
X232300Y29058D01*
X232305Y29035D01*
X232308Y29013D01*
X232311Y28992D01*
X232313Y28973D01*
X232315Y28955D01*
X232316Y28940D01*
Y28927D01*
X232317Y28918D01*
Y28914D01*
Y28912D01*
Y28911D01*
Y28910D01*
X232316Y28880D01*
X232314Y28852D01*
X232311Y28827D01*
X232306Y28802D01*
X232302Y28781D01*
X232297Y28762D01*
X232292Y28744D01*
X232285Y28729D01*
X232280Y28716D01*
X232274Y28704D01*
X232270Y28694D01*
X232264Y28686D01*
X232260Y28680D01*
X232257Y28676D01*
X232256Y28673D01*
X232255Y28672D01*
X232243Y28659D01*
X232230Y28648D01*
X232217Y28639D01*
X232204Y28631D01*
X232190Y28623D01*
X232177Y28618D01*
X232164Y28613D01*
X232151Y28609D01*
X232140Y28606D01*
X232129Y28604D01*
X232120Y28602D01*
X232111Y28601D01*
X232104D01*
X232099Y28600D01*
X232095D01*
X232073Y28601D01*
X232054Y28605D01*
X232037Y28608D01*
X232021Y28614D01*
X232009Y28618D01*
X232000Y28623D01*
X231996Y28624D01*
X231993Y28626D01*
X231992Y28627D01*
X231991D01*
X231975Y28638D01*
X231961Y28651D01*
X231949Y28664D01*
X231939Y28677D01*
X231930Y28689D01*
X231925Y28698D01*
X231923Y28702D01*
X231921Y28704D01*
X231920Y28705D01*
Y28706D01*
X231911Y28726D01*
X231904Y28746D01*
X231900Y28765D01*
X231897Y28782D01*
X231894Y28797D01*
Y28802D01*
X231893Y28808D01*
Y28813D01*
Y28815D01*
Y28817D01*
Y28818D01*
X231894Y28835D01*
X231896Y28851D01*
X231899Y28866D01*
X231902Y28880D01*
X231906Y28893D01*
X231911Y28906D01*
X231915Y28917D01*
X231921Y28927D01*
X231926Y28937D01*
X231931Y28945D01*
X231936Y28951D01*
X231940Y28958D01*
X231943Y28962D01*
X231946Y28965D01*
X231948Y28967D01*
X231949Y28968D01*
X231959Y28978D01*
X231970Y28987D01*
X231982Y28995D01*
X231993Y29001D01*
X232004Y29008D01*
X232015Y29012D01*
X232037Y29019D01*
X232046Y29022D01*
X232055Y29023D01*
X232062Y29024D01*
X232070Y29025D01*
X232075Y29026D01*
X232083D01*
X232099Y29025D01*
X232115Y29023D01*
X232130Y29020D01*
X232143Y29016D01*
X232154Y29011D01*
X232162Y29009D01*
X232168Y29006D01*
X232169Y29005D01*
X232170D01*
X232184Y28996D01*
X232197Y28986D01*
X232209Y28975D01*
X232219Y28964D01*
X232227Y28955D01*
X232233Y28948D01*
X232237Y28942D01*
X232238Y28941D01*
Y28958D01*
X232237Y28974D01*
X232236Y28989D01*
X232234Y29004D01*
X232233Y29017D01*
X232232Y29029D01*
X232230Y29040D01*
X232227Y29050D01*
X232225Y29059D01*
X232223Y29067D01*
X232221Y29073D01*
X232221Y29079D01*
X232219Y29083D01*
X232218Y29085D01*
X232217Y29087D01*
Y29088D01*
X232208Y29107D01*
X232198Y29123D01*
X232188Y29136D01*
X232179Y29147D01*
X232171Y29157D01*
X232164Y29163D01*
X232159Y29167D01*
X232158Y29168D01*
X232147Y29175D01*
X232135Y29180D01*
X232124Y29183D01*
X232113Y29186D01*
X232105Y29188D01*
X232098Y29189D01*
X232091D01*
X232074Y29187D01*
X232059Y29183D01*
X232046Y29178D01*
X232034Y29172D01*
X232024Y29166D01*
X232018Y29160D01*
X232014Y29157D01*
X232012Y29155D01*
X232006Y29146D01*
X232000Y29136D01*
X231994Y29125D01*
X231990Y29114D01*
X231987Y29104D01*
X231984Y29096D01*
X231983Y29090D01*
X231982Y29089D01*
Y29088D01*
X231903Y29095D01*
X231909Y29121D01*
X231917Y29144D01*
X231926Y29164D01*
X231937Y29181D01*
X231947Y29194D01*
X231951Y29199D01*
X231955Y29204D01*
X231958Y29206D01*
X231961Y29209D01*
X231962Y29210D01*
X231963Y29211D01*
X231972Y29219D01*
X231982Y29225D01*
X232002Y29236D01*
X232023Y29243D01*
X232042Y29248D01*
X232060Y29252D01*
X232067Y29253D01*
X232073D01*
X232079Y29254D01*
X232086D01*
X232105Y29253D01*
D02*
G37*
G36*
X232925Y28611D02*
X232840D01*
Y28895D01*
X232731D01*
X232721Y28894D01*
X232713D01*
X232707Y28893D01*
X232702Y28892D01*
X232699D01*
X232697Y28891D01*
X232696D01*
X232681Y28887D01*
X232674Y28884D01*
X232669Y28881D01*
X232663Y28878D01*
X232660Y28876D01*
X232658Y28876D01*
X232657Y28875D01*
X232649Y28869D01*
X232642Y28863D01*
X232628Y28849D01*
X232622Y28842D01*
X232617Y28837D01*
X232614Y28833D01*
X232613Y28832D01*
X232604Y28819D01*
X232594Y28805D01*
X232584Y28790D01*
X232574Y28777D01*
X232565Y28764D01*
X232559Y28753D01*
X232556Y28750D01*
X232554Y28747D01*
X232552Y28745D01*
Y28744D01*
X232468Y28611D01*
X232363D01*
X232473Y28785D01*
X232486Y28803D01*
X232498Y28820D01*
X232510Y28834D01*
X232520Y28847D01*
X232529Y28856D01*
X232537Y28863D01*
X232541Y28868D01*
X232543Y28870D01*
X232551Y28876D01*
X232559Y28882D01*
X232576Y28892D01*
X232583Y28896D01*
X232588Y28900D01*
X232592Y28901D01*
X232594Y28902D01*
X232577Y28905D01*
X232562Y28908D01*
X232548Y28912D01*
X232534Y28916D01*
X232522Y28921D01*
X232511Y28926D01*
X232501Y28931D01*
X232491Y28936D01*
X232484Y28941D01*
X232477Y28946D01*
X232471Y28949D01*
X232466Y28953D01*
X232463Y28956D01*
X232460Y28959D01*
X232459Y28960D01*
X232458Y28961D01*
X232451Y28970D01*
X232443Y28979D01*
X232432Y28998D01*
X232425Y29018D01*
X232419Y29036D01*
X232416Y29052D01*
X232415Y29059D01*
Y29065D01*
X232414Y29070D01*
Y29073D01*
Y29075D01*
Y29076D01*
X232415Y29096D01*
X232417Y29113D01*
X232422Y29130D01*
X232427Y29144D01*
X232432Y29156D01*
X232436Y29165D01*
X232440Y29170D01*
X232441Y29171D01*
Y29172D01*
X232452Y29187D01*
X232463Y29200D01*
X232475Y29211D01*
X232486Y29219D01*
X232496Y29226D01*
X232504Y29230D01*
X232510Y29232D01*
X232511Y29233D01*
X232512D01*
X232520Y29236D01*
X232530Y29239D01*
X232551Y29243D01*
X232573Y29246D01*
X232593Y29249D01*
X232613Y29250D01*
X232621D01*
X232628Y29251D01*
X232925D01*
Y28611D01*
D02*
G37*
%LPC*%
G36*
X201501Y16032D02*
X201310D01*
Y15820D01*
X201512D01*
X201537Y15821D01*
X201558Y15825D01*
X201576Y15830D01*
X201590Y15835D01*
X201602Y15841D01*
X201610Y15845D01*
X201614Y15849D01*
X201616Y15850D01*
X201627Y15862D01*
X201635Y15874D01*
X201641Y15887D01*
X201646Y15898D01*
X201648Y15909D01*
X201648Y15917D01*
X201649Y15923D01*
Y15924D01*
Y15925D01*
X201648Y15936D01*
X201647Y15947D01*
X201644Y15956D01*
X201641Y15965D01*
X201637Y15972D01*
X201635Y15977D01*
X201633Y15981D01*
X201632Y15982D01*
X201625Y15991D01*
X201617Y16000D01*
X201609Y16006D01*
X201600Y16012D01*
X201593Y16015D01*
X201587Y16018D01*
X201584Y16020D01*
X201582Y16021D01*
X201569Y16025D01*
X201554Y16027D01*
X201539Y16029D01*
X201525Y16030D01*
X201512Y16031D01*
X201501Y16032D01*
D02*
G37*
G36*
X202548Y16102D02*
X202542D01*
X202523Y16100D01*
X202505Y16097D01*
X202490Y16090D01*
X202476Y16083D01*
X202466Y16076D01*
X202457Y16070D01*
X202453Y16066D01*
X202451Y16064D01*
X202439Y16050D01*
X202430Y16033D01*
X202424Y16016D01*
X202420Y16001D01*
X202417Y15987D01*
X202416Y15981D01*
Y15976D01*
X202415Y15971D01*
Y15968D01*
Y15966D01*
Y15965D01*
X202417Y15941D01*
X202420Y15919D01*
X202427Y15900D01*
X202434Y15884D01*
X202441Y15871D01*
X202447Y15862D01*
X202449Y15859D01*
X202451Y15856D01*
X202453Y15855D01*
Y15855D01*
X202460Y15847D01*
X202468Y15840D01*
X202483Y15830D01*
X202499Y15821D01*
X202514Y15817D01*
X202526Y15813D01*
X202536Y15812D01*
X202540Y15811D01*
X202555D01*
X202564Y15813D01*
X202580Y15818D01*
X202595Y15824D01*
X202608Y15830D01*
X202618Y15838D01*
X202626Y15844D01*
X202630Y15849D01*
X202632Y15850D01*
Y15851D01*
X202644Y15867D01*
X202653Y15884D01*
X202660Y15903D01*
X202664Y15920D01*
X202666Y15935D01*
X202667Y15941D01*
Y15948D01*
X202668Y15953D01*
Y15956D01*
Y15958D01*
Y15959D01*
X202666Y15983D01*
X202663Y16004D01*
X202657Y16022D01*
X202651Y16037D01*
X202643Y16049D01*
X202638Y16057D01*
X202634Y16063D01*
X202632Y16064D01*
X202618Y16077D01*
X202604Y16087D01*
X202589Y16093D01*
X202574Y16098D01*
X202562Y16100D01*
X202552Y16101D01*
X202548Y16102D01*
D02*
G37*
G36*
X201501Y17957D02*
X201310D01*
Y17745D01*
X201512D01*
X201537Y17746D01*
X201558Y17750D01*
X201576Y17755D01*
X201590Y17760D01*
X201602Y17766D01*
X201610Y17770D01*
X201614Y17774D01*
X201616Y17775D01*
X201627Y17787D01*
X201635Y17799D01*
X201641Y17812D01*
X201646Y17823D01*
X201648Y17834D01*
X201648Y17842D01*
X201649Y17848D01*
Y17849D01*
Y17850D01*
X201648Y17861D01*
X201647Y17872D01*
X201644Y17881D01*
X201641Y17890D01*
X201637Y17897D01*
X201635Y17902D01*
X201633Y17906D01*
X201632Y17907D01*
X201625Y17916D01*
X201617Y17925D01*
X201609Y17931D01*
X201600Y17937D01*
X201593Y17940D01*
X201587Y17943D01*
X201584Y17945D01*
X201582Y17946D01*
X201569Y17950D01*
X201554Y17952D01*
X201539Y17954D01*
X201525Y17955D01*
X201512Y17956D01*
X201501Y17957D01*
D02*
G37*
G36*
X202550Y18260D02*
X202544D01*
X202531Y18259D01*
X202518Y18258D01*
X202506Y18255D01*
X202496Y18252D01*
X202488Y18249D01*
X202481Y18246D01*
X202478Y18245D01*
X202476Y18244D01*
X202465Y18236D01*
X202456Y18229D01*
X202447Y18221D01*
X202441Y18212D01*
X202435Y18206D01*
X202432Y18200D01*
X202430Y18196D01*
X202429Y18195D01*
X202424Y18183D01*
X202420Y18172D01*
X202418Y18160D01*
X202416Y18150D01*
X202415Y18142D01*
X202414Y18135D01*
Y18132D01*
Y18130D01*
X202416Y18111D01*
X202420Y18093D01*
X202425Y18077D01*
X202432Y18063D01*
X202439Y18053D01*
X202444Y18045D01*
X202448Y18040D01*
X202450Y18038D01*
X202464Y18026D01*
X202480Y18017D01*
X202494Y18011D01*
X202509Y18006D01*
X202522Y18003D01*
X202532Y18002D01*
X202536Y18001D01*
X202542D01*
X202562Y18003D01*
X202580Y18007D01*
X202597Y18013D01*
X202611Y18020D01*
X202622Y18027D01*
X202630Y18034D01*
X202635Y18037D01*
X202637Y18039D01*
X202650Y18054D01*
X202659Y18070D01*
X202665Y18086D01*
X202670Y18099D01*
X202673Y18113D01*
X202674Y18123D01*
X202675Y18127D01*
Y18130D01*
Y18132D01*
Y18133D01*
X202673Y18152D01*
X202669Y18171D01*
X202663Y18186D01*
X202656Y18199D01*
X202650Y18209D01*
X202643Y18218D01*
X202640Y18222D01*
X202638Y18224D01*
X202623Y18236D01*
X202608Y18246D01*
X202592Y18251D01*
X202578Y18256D01*
X202565Y18258D01*
X202554Y18259D01*
X202550Y18260D01*
D02*
G37*
G36*
X202546Y17938D02*
X202544D01*
X202528Y17937D01*
X202513Y17933D01*
X202500Y17928D01*
X202489Y17923D01*
X202481Y17918D01*
X202474Y17914D01*
X202469Y17910D01*
X202469Y17909D01*
X202459Y17898D01*
X202452Y17885D01*
X202447Y17873D01*
X202444Y17861D01*
X202442Y17851D01*
X202441Y17842D01*
X202440Y17837D01*
Y17836D01*
Y17835D01*
X202441Y17820D01*
X202444Y17807D01*
X202449Y17795D01*
X202455Y17785D01*
X202459Y17777D01*
X202464Y17770D01*
X202468Y17767D01*
X202469Y17766D01*
X202481Y17755D01*
X202493Y17748D01*
X202505Y17743D01*
X202518Y17740D01*
X202529Y17738D01*
X202537Y17736D01*
X202544D01*
X202560Y17737D01*
X202575Y17741D01*
X202587Y17745D01*
X202598Y17751D01*
X202606Y17756D01*
X202613Y17761D01*
X202617Y17765D01*
X202618Y17766D01*
X202628Y17778D01*
X202636Y17790D01*
X202641Y17802D01*
X202645Y17813D01*
X202647Y17823D01*
X202649Y17831D01*
Y17837D01*
Y17838D01*
Y17839D01*
X202648Y17853D01*
X202644Y17867D01*
X202640Y17879D01*
X202634Y17890D01*
X202628Y17898D01*
X202624Y17903D01*
X202620Y17908D01*
X202619Y17909D01*
X202608Y17918D01*
X202595Y17926D01*
X202583Y17930D01*
X202571Y17934D01*
X202560Y17936D01*
X202552Y17937D01*
X202546Y17938D01*
D02*
G37*
G36*
X85002Y11549D02*
X85001D01*
X85000D01*
X84989Y11548D01*
X84978Y11547D01*
X84969Y11544D01*
X84960Y11541D01*
X84953Y11537D01*
X84948Y11535D01*
X84944Y11533D01*
X84943Y11532D01*
X84934Y11525D01*
X84925Y11517D01*
X84919Y11509D01*
X84913Y11500D01*
X84910Y11493D01*
X84907Y11487D01*
X84905Y11484D01*
X84904Y11482D01*
X84900Y11469D01*
X84898Y11454D01*
X84896Y11439D01*
X84895Y11425D01*
X84894Y11412D01*
X84893Y11401D01*
Y11210D01*
X85105D01*
Y11412D01*
X85104Y11437D01*
X85100Y11458D01*
X85095Y11476D01*
X85090Y11490D01*
X85084Y11502D01*
X85080Y11510D01*
X85076Y11514D01*
X85075Y11516D01*
X85063Y11527D01*
X85051Y11535D01*
X85038Y11541D01*
X85027Y11546D01*
X85016Y11548D01*
X85008Y11548D01*
X85002Y11549D01*
D02*
G37*
G36*
X183688Y33390D02*
X183200D01*
Y33242D01*
X183201Y33230D01*
Y33218D01*
X183202Y33207D01*
X183205Y33188D01*
X183206Y33174D01*
X183209Y33162D01*
X183212Y33153D01*
X183213Y33149D01*
X183214Y33147D01*
X183222Y33130D01*
X183232Y33114D01*
X183244Y33101D01*
X183256Y33089D01*
X183267Y33079D01*
X183277Y33072D01*
X183280Y33070D01*
X183283Y33068D01*
X183285Y33066D01*
X183286D01*
X183296Y33061D01*
X183308Y33055D01*
X183332Y33047D01*
X183358Y33041D01*
X183383Y33037D01*
X183394Y33036D01*
X183405Y33035D01*
X183414Y33034D01*
X183423D01*
X183430Y33033D01*
X183435D01*
X183438D01*
X183439D01*
X183465Y33034D01*
X183489Y33036D01*
X183511Y33039D01*
X183529Y33041D01*
X183536Y33043D01*
X183543Y33045D01*
X183549Y33047D01*
X183554Y33048D01*
X183558Y33049D01*
X183561Y33050D01*
X183562Y33051D01*
X183563D01*
X183581Y33057D01*
X183597Y33064D01*
X183610Y33073D01*
X183622Y33080D01*
X183632Y33087D01*
X183638Y33092D01*
X183642Y33096D01*
X183644Y33097D01*
X183651Y33106D01*
X183658Y33115D01*
X183663Y33125D01*
X183669Y33134D01*
X183672Y33142D01*
X183675Y33149D01*
X183676Y33153D01*
X183677Y33155D01*
X183681Y33169D01*
X183683Y33186D01*
X183685Y33202D01*
X183686Y33218D01*
X183687Y33232D01*
X183688Y33238D01*
Y33390D01*
D02*
G37*
G36*
X183463Y32284D02*
X183455D01*
X183450D01*
X183449D01*
X183420Y32283D01*
X183394Y32282D01*
X183370Y32280D01*
X183348Y32278D01*
X183328Y32275D01*
X183311Y32271D01*
X183295Y32268D01*
X183281Y32264D01*
X183269Y32260D01*
X183259Y32257D01*
X183251Y32254D01*
X183243Y32251D01*
X183239Y32248D01*
X183235Y32246D01*
X183233Y32244D01*
X183232D01*
X183224Y32238D01*
X183217Y32231D01*
X183211Y32224D01*
X183205Y32217D01*
X183197Y32202D01*
X183192Y32188D01*
X183189Y32176D01*
X183187Y32166D01*
X183186Y32162D01*
Y32157D01*
X183187Y32146D01*
X183188Y32136D01*
X183191Y32127D01*
X183194Y32119D01*
X183203Y32103D01*
X183212Y32089D01*
X183222Y32079D01*
X183230Y32071D01*
X183234Y32068D01*
X183237Y32066D01*
X183238Y32064D01*
X183239D01*
X183250Y32058D01*
X183263Y32052D01*
X183278Y32047D01*
X183293Y32043D01*
X183310Y32039D01*
X183328Y32036D01*
X183363Y32032D01*
X183380Y32030D01*
X183396Y32029D01*
X183411Y32028D01*
X183423D01*
X183434Y32027D01*
X183442D01*
X183447D01*
X183448D01*
X183449D01*
X183477D01*
X183503Y32029D01*
X183526Y32031D01*
X183548Y32033D01*
X183567Y32035D01*
X183585Y32039D01*
X183599Y32043D01*
X183613Y32046D01*
X183624Y32049D01*
X183634Y32053D01*
X183642Y32056D01*
X183648Y32060D01*
X183653Y32061D01*
X183656Y32063D01*
X183658Y32065D01*
X183658D01*
X183668Y32072D01*
X183675Y32080D01*
X183683Y32087D01*
X183688Y32095D01*
X183697Y32110D01*
X183704Y32124D01*
X183708Y32137D01*
X183709Y32146D01*
X183710Y32150D01*
Y32156D01*
X183709Y32166D01*
X183708Y32175D01*
X183702Y32193D01*
X183694Y32208D01*
X183684Y32222D01*
X183675Y32232D01*
X183667Y32241D01*
X183660Y32245D01*
X183659Y32247D01*
X183658D01*
X183647Y32254D01*
X183634Y32259D01*
X183620Y32265D01*
X183604Y32268D01*
X183587Y32272D01*
X183570Y32275D01*
X183534Y32280D01*
X183517Y32281D01*
X183501Y32282D01*
X183487Y32283D01*
X183475D01*
X183463Y32284D01*
D02*
G37*
G36*
X194238Y126517D02*
X194037D01*
X194012Y126516D01*
X193990Y126513D01*
X193972Y126508D01*
X193958Y126503D01*
X193946Y126497D01*
X193939Y126492D01*
X193934Y126489D01*
X193932Y126488D01*
X193921Y126476D01*
X193913Y126464D01*
X193907Y126451D01*
X193903Y126440D01*
X193901Y126429D01*
X193900Y126420D01*
X193899Y126415D01*
Y126414D01*
Y126413D01*
X193900Y126402D01*
X193902Y126391D01*
X193904Y126381D01*
X193907Y126373D01*
X193911Y126366D01*
X193914Y126360D01*
X193915Y126356D01*
X193916Y126355D01*
X193923Y126346D01*
X193931Y126338D01*
X193940Y126331D01*
X193948Y126326D01*
X193955Y126322D01*
X193961Y126319D01*
X193964Y126318D01*
X193966Y126317D01*
X193979Y126313D01*
X193994Y126310D01*
X194009Y126308D01*
X194024Y126307D01*
X194037Y126307D01*
X194048Y126306D01*
X194238D01*
Y126517D01*
D02*
G37*
G36*
X193011Y126527D02*
X193006D01*
X192996Y126526D01*
X192985Y126525D01*
X192976Y126522D01*
X192968Y126518D01*
X192952Y126510D01*
X192938Y126501D01*
X192928Y126490D01*
X192920Y126482D01*
X192917Y126478D01*
X192915Y126476D01*
X192913Y126475D01*
Y126474D01*
X192907Y126463D01*
X192901Y126450D01*
X192896Y126435D01*
X192892Y126419D01*
X192888Y126403D01*
X192886Y126385D01*
X192881Y126350D01*
X192879Y126332D01*
X192878Y126317D01*
X192877Y126302D01*
Y126290D01*
X192876Y126279D01*
Y126270D01*
Y126266D01*
Y126265D01*
Y126264D01*
Y126235D01*
X192878Y126209D01*
X192880Y126186D01*
X192882Y126164D01*
X192885Y126146D01*
X192888Y126128D01*
X192892Y126113D01*
X192895Y126099D01*
X192898Y126088D01*
X192902Y126079D01*
X192905Y126071D01*
X192909Y126064D01*
X192910Y126060D01*
X192912Y126057D01*
X192914Y126055D01*
Y126054D01*
X192922Y126045D01*
X192929Y126037D01*
X192936Y126030D01*
X192944Y126025D01*
X192959Y126015D01*
X192973Y126009D01*
X192986Y126005D01*
X192996Y126003D01*
X192999Y126002D01*
X193005D01*
X193015Y126003D01*
X193024Y126004D01*
X193042Y126011D01*
X193057Y126019D01*
X193071Y126028D01*
X193082Y126037D01*
X193090Y126046D01*
X193094Y126052D01*
X193096Y126053D01*
Y126054D01*
X193103Y126065D01*
X193108Y126078D01*
X193114Y126093D01*
X193118Y126109D01*
X193121Y126125D01*
X193124Y126143D01*
X193129Y126179D01*
X193131Y126196D01*
X193131Y126211D01*
X193132Y126226D01*
Y126238D01*
X193133Y126249D01*
Y126257D01*
Y126262D01*
Y126264D01*
X193132Y126293D01*
X193131Y126319D01*
X193130Y126343D01*
X193127Y126365D01*
X193124Y126384D01*
X193120Y126402D01*
X193117Y126417D01*
X193113Y126431D01*
X193109Y126443D01*
X193106Y126453D01*
X193103Y126462D01*
X193100Y126469D01*
X193097Y126474D01*
X193095Y126478D01*
X193094Y126479D01*
Y126480D01*
X193087Y126489D01*
X193081Y126496D01*
X193073Y126502D01*
X193066Y126507D01*
X193051Y126515D01*
X193037Y126521D01*
X193025Y126524D01*
X193015Y126526D01*
X193011Y126527D01*
D02*
G37*
G36*
X162183Y127089D02*
X162168D01*
X162159Y127087D01*
X162142Y127082D01*
X162127Y127076D01*
X162114Y127070D01*
X162104Y127062D01*
X162097Y127056D01*
X162092Y127051D01*
X162090Y127050D01*
Y127049D01*
X162078Y127033D01*
X162069Y127016D01*
X162063Y126997D01*
X162059Y126980D01*
X162056Y126965D01*
X162055Y126959D01*
Y126952D01*
X162054Y126947D01*
Y126944D01*
Y126942D01*
Y126941D01*
X162056Y126917D01*
X162060Y126896D01*
X162065Y126878D01*
X162072Y126863D01*
X162079Y126851D01*
X162085Y126843D01*
X162088Y126837D01*
X162090Y126836D01*
X162104Y126823D01*
X162119Y126813D01*
X162134Y126807D01*
X162148Y126802D01*
X162161Y126800D01*
X162171Y126799D01*
X162174Y126798D01*
X162180D01*
X162199Y126800D01*
X162217Y126803D01*
X162233Y126810D01*
X162247Y126817D01*
X162257Y126824D01*
X162265Y126830D01*
X162270Y126834D01*
X162271Y126836D01*
X162283Y126850D01*
X162293Y126867D01*
X162298Y126884D01*
X162303Y126899D01*
X162306Y126913D01*
X162307Y126919D01*
Y126924D01*
X162308Y126929D01*
Y126932D01*
Y126934D01*
Y126935D01*
X162306Y126959D01*
X162302Y126981D01*
X162296Y127000D01*
X162288Y127016D01*
X162282Y127029D01*
X162275Y127038D01*
X162273Y127041D01*
X162271Y127044D01*
X162270Y127045D01*
Y127045D01*
X162262Y127053D01*
X162255Y127060D01*
X162239Y127070D01*
X162223Y127079D01*
X162209Y127083D01*
X162197Y127087D01*
X162186Y127088D01*
X162183Y127089D01*
D02*
G37*
G36*
X162915Y127080D02*
X162713D01*
X162688Y127079D01*
X162667Y127075D01*
X162649Y127070D01*
X162635Y127065D01*
X162623Y127059D01*
X162615Y127055D01*
X162611Y127051D01*
X162609Y127050D01*
X162598Y127038D01*
X162590Y127026D01*
X162584Y127013D01*
X162579Y127002D01*
X162577Y126991D01*
X162577Y126983D01*
X162576Y126977D01*
Y126976D01*
Y126975D01*
X162577Y126964D01*
X162578Y126953D01*
X162581Y126944D01*
X162584Y126935D01*
X162588Y126928D01*
X162590Y126923D01*
X162592Y126919D01*
X162593Y126918D01*
X162600Y126909D01*
X162608Y126900D01*
X162616Y126894D01*
X162625Y126888D01*
X162632Y126885D01*
X162638Y126882D01*
X162641Y126880D01*
X162643Y126879D01*
X162656Y126875D01*
X162671Y126873D01*
X162686Y126871D01*
X162700Y126870D01*
X162713Y126869D01*
X162724Y126868D01*
X162915D01*
Y127080D01*
D02*
G37*
G36*
X259890Y126569D02*
X259688D01*
X259663Y126568D01*
X259642Y126564D01*
X259624Y126559D01*
X259610Y126554D01*
X259598Y126548D01*
X259590Y126544D01*
X259586Y126540D01*
X259584Y126539D01*
X259573Y126527D01*
X259565Y126515D01*
X259559Y126502D01*
X259554Y126491D01*
X259552Y126480D01*
X259552Y126472D01*
X259551Y126466D01*
Y126465D01*
Y126464D01*
X259552Y126453D01*
X259553Y126442D01*
X259556Y126433D01*
X259559Y126424D01*
X259563Y126417D01*
X259565Y126411D01*
X259567Y126408D01*
X259568Y126407D01*
X259575Y126398D01*
X259583Y126389D01*
X259591Y126383D01*
X259600Y126377D01*
X259607Y126374D01*
X259613Y126371D01*
X259616Y126369D01*
X259618Y126368D01*
X259631Y126364D01*
X259646Y126361D01*
X259661Y126360D01*
X259675Y126359D01*
X259688Y126358D01*
X259699Y126357D01*
X259890D01*
Y126569D01*
D02*
G37*
G36*
X227890D02*
X227688D01*
X227663Y126568D01*
X227642Y126564D01*
X227624Y126559D01*
X227610Y126554D01*
X227598Y126548D01*
X227590Y126544D01*
X227586Y126540D01*
X227584Y126539D01*
X227573Y126527D01*
X227565Y126515D01*
X227559Y126502D01*
X227554Y126491D01*
X227552Y126480D01*
X227552Y126472D01*
X227551Y126466D01*
Y126465D01*
Y126464D01*
X227552Y126453D01*
X227553Y126442D01*
X227556Y126433D01*
X227559Y126424D01*
X227563Y126417D01*
X227565Y126411D01*
X227567Y126408D01*
X227568Y126407D01*
X227575Y126398D01*
X227583Y126389D01*
X227591Y126383D01*
X227600Y126377D01*
X227607Y126374D01*
X227613Y126371D01*
X227616Y126369D01*
X227618Y126368D01*
X227631Y126364D01*
X227646Y126361D01*
X227661Y126360D01*
X227675Y126359D01*
X227688Y126358D01*
X227699Y126357D01*
X227890D01*
Y126569D01*
D02*
G37*
G36*
X227111Y126512D02*
Y126226D01*
X227313D01*
X227111Y126512D01*
D02*
G37*
G36*
X232104Y28957D02*
X232098D01*
X232079Y28955D01*
X232061Y28950D01*
X232047Y28945D01*
X232034Y28937D01*
X232024Y28930D01*
X232016Y28925D01*
X232012Y28920D01*
X232010Y28918D01*
X231998Y28902D01*
X231988Y28886D01*
X231982Y28868D01*
X231978Y28851D01*
X231975Y28837D01*
X231975Y28830D01*
Y28825D01*
X231974Y28820D01*
Y28816D01*
Y28814D01*
Y28814D01*
X231975Y28789D01*
X231979Y28767D01*
X231985Y28749D01*
X231991Y28733D01*
X231999Y28721D01*
X232004Y28712D01*
X232008Y28706D01*
X232010Y28705D01*
Y28704D01*
X232016Y28697D01*
X232024Y28692D01*
X232038Y28681D01*
X232053Y28675D01*
X232066Y28669D01*
X232078Y28667D01*
X232087Y28666D01*
X232091Y28665D01*
X232096D01*
X232109Y28666D01*
X232121Y28667D01*
X232132Y28671D01*
X232141Y28675D01*
X232149Y28678D01*
X232156Y28681D01*
X232159Y28683D01*
X232161Y28684D01*
X232172Y28692D01*
X232182Y28701D01*
X232190Y28711D01*
X232196Y28719D01*
X232202Y28728D01*
X232206Y28734D01*
X232208Y28739D01*
X232209Y28741D01*
X232215Y28754D01*
X232219Y28768D01*
X232222Y28781D01*
X232224Y28793D01*
X232225Y28803D01*
X232226Y28812D01*
Y28816D01*
Y28818D01*
X232224Y28840D01*
X232221Y28860D01*
X232214Y28877D01*
X232208Y28891D01*
X232201Y28903D01*
X232195Y28912D01*
X232191Y28916D01*
X232189Y28918D01*
X232174Y28931D01*
X232159Y28940D01*
X232144Y28948D01*
X232130Y28952D01*
X232117Y28955D01*
X232108Y28956D01*
X232104Y28957D01*
D02*
G37*
G36*
X232840Y29180D02*
X232638D01*
X232613Y29179D01*
X232592Y29175D01*
X232574Y29170D01*
X232560Y29165D01*
X232548Y29159D01*
X232540Y29155D01*
X232536Y29151D01*
X232534Y29150D01*
X232523Y29138D01*
X232515Y29126D01*
X232509Y29113D01*
X232504Y29102D01*
X232502Y29091D01*
X232502Y29083D01*
X232501Y29077D01*
Y29076D01*
Y29075D01*
X232502Y29064D01*
X232503Y29053D01*
X232506Y29044D01*
X232509Y29035D01*
X232513Y29028D01*
X232515Y29023D01*
X232517Y29019D01*
X232518Y29018D01*
X232525Y29009D01*
X232533Y29000D01*
X232541Y28994D01*
X232550Y28988D01*
X232557Y28985D01*
X232563Y28982D01*
X232566Y28980D01*
X232568Y28979D01*
X232581Y28975D01*
X232596Y28973D01*
X232611Y28971D01*
X232625Y28970D01*
X232638Y28969D01*
X232649Y28968D01*
X232840D01*
Y29180D01*
D02*
G37*
%LPD*%
D98*
X180565Y37640D02*
X186985D01*
Y29310D02*
Y37640D01*
X180565Y29310D02*
X186985D01*
X180565D02*
Y37640D01*
X410367Y18310D02*
X414979D01*
X410367Y14410D02*
Y18310D01*
Y14410D02*
X414979D01*
Y18310D01*
X107137Y18238D02*
X112637D01*
X107137D02*
Y25388D01*
X112637D01*
Y18238D02*
Y25388D01*
X417789Y19283D02*
Y25989D01*
X412689D02*
X417789D01*
X412689Y19283D02*
Y25989D01*
Y19283D02*
X417789D01*
X199675Y17500D02*
Y19150D01*
X202775D01*
Y17500D02*
Y19150D01*
X199675Y17500D02*
X202775D01*
X199675Y15575D02*
Y17225D01*
X202775D01*
Y15575D02*
Y17225D01*
X199675Y15575D02*
X202775D01*
X262728Y124097D02*
Y127903D01*
X257222Y124097D02*
X262728D01*
X257222D02*
Y127903D01*
X262728D01*
X198028Y124097D02*
Y127903D01*
X192522Y124097D02*
X198028D01*
X192522D02*
Y127903D01*
X198028D01*
X160247Y128403D02*
X165753D01*
X160247Y124597D02*
Y128403D01*
Y124597D02*
X165753D01*
Y128403D01*
X225222Y127903D02*
X230728D01*
X225222Y124097D02*
Y127903D01*
Y124097D02*
X230728D01*
Y127903D01*
X230172Y30503D02*
X235678D01*
X230172Y26697D02*
Y30503D01*
Y26697D02*
X235678D01*
Y30503D01*
X83700Y9575D02*
X85350D01*
X83700D02*
Y12675D01*
X85350D01*
Y9575D02*
Y12675D01*
D144*
X415351Y14563D02*
Y16087D01*
X418399Y14563D02*
Y16087D01*
X415351Y14563D02*
X418399D01*
X415351Y16087D02*
X418399D01*
X415351Y16513D02*
Y18037D01*
X418399Y16513D02*
Y18037D01*
X415351Y16513D02*
X418399D01*
X415351Y18037D02*
X418399D01*
X415075Y29500D02*
Y31850D01*
X419775Y29500D02*
Y31850D01*
X415075Y29500D02*
X419775D01*
X415075Y31850D02*
X419775D01*
X418263Y18451D02*
X419787D01*
X418263Y21499D02*
X419787D01*
Y18451D02*
Y21499D01*
X418263Y18451D02*
Y21499D01*
X420113D02*
X421637D01*
X420113Y18451D02*
X421637D01*
X420113D02*
Y21499D01*
X421637Y18451D02*
Y21499D01*
X409263Y27849D02*
X410787D01*
X409263Y24801D02*
X410787D01*
X409263D02*
Y27849D01*
X410787Y24801D02*
Y27849D01*
X55962Y33976D02*
Y37024D01*
X54438Y33976D02*
Y37024D01*
Y33976D02*
X55962D01*
X54438Y37024D02*
X55962D01*
X94426Y19188D02*
Y20712D01*
X97474Y19188D02*
Y20712D01*
X94426Y19188D02*
X97474D01*
X94426Y20712D02*
X97474D01*
X94451Y19012D02*
X97499D01*
X94451Y17488D02*
X97499D01*
Y19012D01*
X94451Y17488D02*
Y19012D01*
X175326Y6463D02*
X178374D01*
X175326Y7987D02*
X178374D01*
X175326Y6463D02*
Y7987D01*
X178374Y6463D02*
Y7987D01*
X92276Y22863D02*
X95324D01*
X92276Y24387D02*
X95324D01*
X92276Y22863D02*
Y24387D01*
X95324Y22863D02*
Y24387D01*
X72862Y67776D02*
Y70824D01*
X71338Y67776D02*
Y70824D01*
Y67776D02*
X72862D01*
X71338Y70824D02*
X72862D01*
X99287Y17551D02*
Y20599D01*
X97763Y17551D02*
Y20599D01*
Y17551D02*
X99287D01*
X97763Y20599D02*
X99287D01*
X106637Y20526D02*
Y23574D01*
X105113Y20526D02*
Y23574D01*
Y20526D02*
X106637D01*
X105113Y23574D02*
X106637D01*
X112963Y15251D02*
Y18299D01*
X114487Y15251D02*
Y18299D01*
X112963D02*
X114487D01*
X112963Y15251D02*
X114487D01*
X102376Y28062D02*
X105424D01*
X102376Y26538D02*
X105424D01*
Y28062D01*
X102376Y26538D02*
Y28062D01*
X102351Y26237D02*
X105399D01*
X102351Y24713D02*
X105399D01*
Y26237D01*
X102351Y24713D02*
Y26237D01*
X109451Y37287D02*
X112499D01*
X109451Y35763D02*
X112499D01*
Y37287D01*
X109451Y35763D02*
Y37287D01*
X89312Y9576D02*
Y12624D01*
X87788Y9576D02*
Y12624D01*
Y9576D02*
X89312D01*
X87788Y12624D02*
X89312D01*
X112988Y18526D02*
Y21574D01*
X114512Y18526D02*
Y21574D01*
X112988D02*
X114512D01*
X112988Y18526D02*
X114512D01*
X55550Y36475D02*
X54850D01*
Y36125D01*
X54967Y36008D01*
X55200D01*
X55317Y36125D01*
Y36475D01*
Y36242D02*
X55550Y36008D01*
X54850Y35309D02*
Y35775D01*
X55200D01*
X55083Y35542D01*
Y35425D01*
X55200Y35309D01*
X55433D01*
X55550Y35425D01*
Y35659D01*
X55433Y35775D01*
X95000Y18600D02*
Y17900D01*
X95350D01*
X95467Y18017D01*
Y18250D01*
X95350Y18367D01*
X95000D01*
X95233D02*
X95467Y18600D01*
X95700Y18017D02*
X95816Y17900D01*
X96050D01*
X96166Y18017D01*
Y18133D01*
X96050Y18250D01*
X95933D01*
X96050D01*
X96166Y18367D01*
Y18483D01*
X96050Y18600D01*
X95816D01*
X95700Y18483D01*
X96866Y18600D02*
X96400D01*
X96866Y18133D01*
Y18017D01*
X96749Y17900D01*
X96516D01*
X96400Y18017D01*
X94975Y20300D02*
Y19600D01*
X95325D01*
X95442Y19717D01*
Y19950D01*
X95325Y20067D01*
X94975D01*
X95208D02*
X95442Y20300D01*
X95675Y19717D02*
X95791Y19600D01*
X96025D01*
X96141Y19717D01*
Y19833D01*
X96025Y19950D01*
X95908D01*
X96025D01*
X96141Y20067D01*
Y20183D01*
X96025Y20300D01*
X95791D01*
X95675Y20183D01*
X96375Y20300D02*
X96608D01*
X96491D01*
Y19600D01*
X96375Y19717D01*
X177825Y6875D02*
Y7575D01*
X177475D01*
X177358Y7458D01*
Y7225D01*
X177475Y7108D01*
X177825D01*
X177592D02*
X177358Y6875D01*
X177125Y7458D02*
X177009Y7575D01*
X176775D01*
X176659Y7458D01*
Y7342D01*
X176775Y7225D01*
X176892D01*
X176775D01*
X176659Y7108D01*
Y6992D01*
X176775Y6875D01*
X177009D01*
X177125Y6992D01*
X176425Y7458D02*
X176309Y7575D01*
X176076D01*
X175959Y7458D01*
Y6992D01*
X176076Y6875D01*
X176309D01*
X176425Y6992D01*
Y7458D01*
X418675Y19000D02*
X419375D01*
Y19350D01*
X419258Y19467D01*
X419025D01*
X418908Y19350D01*
Y19000D01*
Y19233D02*
X418675Y19467D01*
Y20166D02*
Y19700D01*
X419142Y20166D01*
X419258D01*
X419375Y20050D01*
Y19816D01*
X419258Y19700D01*
X418675Y20749D02*
X419375D01*
X419025Y20400D01*
Y20866D01*
X421225Y20950D02*
X420525D01*
Y20600D01*
X420642Y20483D01*
X420875D01*
X420992Y20600D01*
Y20950D01*
Y20717D02*
X421225Y20483D01*
Y20250D02*
Y20017D01*
Y20134D01*
X420525D01*
X420642Y20250D01*
X420525Y19667D02*
Y19201D01*
X420642D01*
X421108Y19667D01*
X421225D01*
X410375Y27300D02*
X409675D01*
Y26950D01*
X409792Y26833D01*
X410025D01*
X410142Y26950D01*
Y27300D01*
Y27067D02*
X410375Y26833D01*
Y26600D02*
Y26367D01*
Y26484D01*
X409675D01*
X409792Y26600D01*
X409675Y25551D02*
X409792Y25784D01*
X410025Y26017D01*
X410258D01*
X410375Y25900D01*
Y25667D01*
X410258Y25551D01*
X410142D01*
X410025Y25667D01*
Y26017D01*
X415900Y15675D02*
Y14975D01*
X416250D01*
X416367Y15092D01*
Y15325D01*
X416250Y15442D01*
X415900D01*
X416133D02*
X416367Y15675D01*
X416600D02*
X416833D01*
X416716D01*
Y14975D01*
X416600Y15092D01*
X417183D02*
X417300Y14975D01*
X417533D01*
X417649Y15092D01*
Y15208D01*
X417533Y15325D01*
X417416D01*
X417533D01*
X417649Y15442D01*
Y15558D01*
X417533Y15675D01*
X417300D01*
X417183Y15558D01*
X415900Y17625D02*
Y16925D01*
X416250D01*
X416367Y17042D01*
Y17275D01*
X416250Y17392D01*
X415900D01*
X416133D02*
X416367Y17625D01*
X416600D02*
X416833D01*
X416716D01*
Y16925D01*
X416600Y17042D01*
X417649Y17625D02*
X417183D01*
X417649Y17158D01*
Y17042D01*
X417533Y16925D01*
X417300D01*
X417183Y17042D01*
X416967Y30417D02*
X416850Y30300D01*
X416617D01*
X416500Y30417D01*
Y30883D01*
X416617Y31000D01*
X416850D01*
X416967Y30883D01*
X417550Y31000D02*
Y30300D01*
X417200Y30650D01*
X417666D01*
X94775Y23275D02*
Y23975D01*
X94425D01*
X94308Y23858D01*
Y23625D01*
X94425Y23508D01*
X94775D01*
X94542D02*
X94308Y23275D01*
X94075Y23858D02*
X93959Y23975D01*
X93725D01*
X93609Y23858D01*
Y23742D01*
X93725Y23625D01*
X93842D01*
X93725D01*
X93609Y23508D01*
Y23392D01*
X93725Y23275D01*
X93959D01*
X94075Y23392D01*
X93375Y23858D02*
X93259Y23975D01*
X93026D01*
X92909Y23858D01*
Y23742D01*
X93026Y23625D01*
X92909Y23508D01*
Y23392D01*
X93026Y23275D01*
X93259D01*
X93375Y23392D01*
Y23508D01*
X93259Y23625D01*
X93375Y23742D01*
Y23858D01*
X93259Y23625D02*
X93026D01*
X98875Y20050D02*
X98175D01*
Y19700D01*
X98292Y19583D01*
X98525D01*
X98642Y19700D01*
Y20050D01*
Y19817D02*
X98875Y19583D01*
Y18884D02*
Y19350D01*
X98408Y18884D01*
X98292D01*
X98175Y19000D01*
Y19234D01*
X98292Y19350D01*
X98175Y18184D02*
Y18650D01*
X98525D01*
X98408Y18417D01*
Y18301D01*
X98525Y18184D01*
X98758D01*
X98875Y18301D01*
Y18534D01*
X98758Y18650D01*
X106225Y23025D02*
X105525D01*
Y22675D01*
X105642Y22558D01*
X105875D01*
X105992Y22675D01*
Y23025D01*
Y22792D02*
X106225Y22558D01*
Y21859D02*
Y22325D01*
X105758Y21859D01*
X105642D01*
X105525Y21975D01*
Y22209D01*
X105642Y22325D01*
Y21625D02*
X105525Y21509D01*
Y21276D01*
X105642Y21159D01*
X105758D01*
X105875Y21276D01*
Y21392D01*
Y21276D01*
X105992Y21159D01*
X106108D01*
X106225Y21276D01*
Y21509D01*
X106108Y21625D01*
X113375Y15800D02*
X114075D01*
Y16150D01*
X113958Y16267D01*
X113725D01*
X113608Y16150D01*
Y15800D01*
Y16033D02*
X113375Y16267D01*
Y16966D02*
Y16500D01*
X113842Y16966D01*
X113958D01*
X114075Y16850D01*
Y16616D01*
X113958Y16500D01*
X113375Y17666D02*
Y17200D01*
X113842Y17666D01*
X113958D01*
X114075Y17549D01*
Y17316D01*
X113958Y17200D01*
X102900Y25825D02*
Y25125D01*
X103250D01*
X103367Y25242D01*
Y25475D01*
X103250Y25592D01*
X102900D01*
X103133D02*
X103367Y25825D01*
X104066D02*
X103600D01*
X104066Y25358D01*
Y25242D01*
X103950Y25125D01*
X103716D01*
X103600Y25242D01*
X104300D02*
X104416Y25125D01*
X104649D01*
X104766Y25242D01*
Y25708D01*
X104649Y25825D01*
X104416D01*
X104300Y25708D01*
Y25242D01*
X102925Y27650D02*
Y26950D01*
X103275D01*
X103392Y27067D01*
Y27300D01*
X103275Y27417D01*
X102925D01*
X103158D02*
X103392Y27650D01*
X104091D02*
X103625D01*
X104091Y27183D01*
Y27067D01*
X103975Y26950D01*
X103741D01*
X103625Y27067D01*
X104325Y27650D02*
X104558D01*
X104441D01*
Y26950D01*
X104325Y27067D01*
X110000Y36875D02*
Y36175D01*
X110350D01*
X110467Y36292D01*
Y36525D01*
X110350Y36642D01*
X110000D01*
X110233D02*
X110467Y36875D01*
X110700D02*
X110933D01*
X110816D01*
Y36175D01*
X110700Y36292D01*
X111283D02*
X111400Y36175D01*
X111633D01*
X111749Y36292D01*
Y36409D01*
X111633Y36525D01*
X111749Y36642D01*
Y36759D01*
X111633Y36875D01*
X111400D01*
X111283Y36759D01*
Y36642D01*
X111400Y36525D01*
X111283Y36409D01*
Y36292D01*
X111400Y36525D02*
X111633D01*
X88900Y12075D02*
X88200D01*
Y11725D01*
X88317Y11608D01*
X88550D01*
X88667Y11725D01*
Y12075D01*
Y11842D02*
X88900Y11608D01*
Y11375D02*
Y11142D01*
Y11259D01*
X88200D01*
X88317Y11375D01*
X88200Y10326D02*
Y10792D01*
X88550D01*
X88433Y10559D01*
Y10442D01*
X88550Y10326D01*
X88783D01*
X88900Y10442D01*
Y10675D01*
X88783Y10792D01*
X113400Y19075D02*
X114100D01*
Y19425D01*
X113983Y19542D01*
X113750D01*
X113633Y19425D01*
Y19075D01*
Y19308D02*
X113400Y19542D01*
Y19775D02*
Y20008D01*
Y19891D01*
X114100D01*
X113983Y19775D01*
X113400Y20358D02*
Y20591D01*
Y20475D01*
X114100D01*
X113983Y20358D01*
X72450Y70275D02*
X71750D01*
Y69925D01*
X71867Y69808D01*
X72100D01*
X72217Y69925D01*
Y70275D01*
Y70042D02*
X72450Y69808D01*
Y69575D02*
Y69342D01*
Y69459D01*
X71750D01*
X71867Y69575D01*
%TF.MD5,108864525adbdd4e3931733825e2fffc*%
M02*
