%TF.GenerationSoftware,Altium Limited,Altium Designer,21.6.4 (81)*%
G04 Layer_Color=65535*
%FSLAX43Y43*%
%MOMM*%
%TF.SameCoordinates,D4C572C6-D0EE-4933-9396-1D80D03FA8BE*%
%TF.FilePolarity,Positive*%
%TF.FileFunction,Legend,Top*%
%TF.Part,Single*%
G01*
G75*
%TA.AperFunction,NonConductor*%
%ADD96C,0.250*%
%ADD97C,0.500*%
%ADD98C,0.200*%
%ADD99C,0.254*%
%ADD100C,1.270*%
%ADD101C,0.635*%
%ADD102C,0.508*%
%ADD103C,0.762*%
%ADD104C,0.300*%
%ADD109C,2.000*%
%ADD110C,1.000*%
%ADD141C,0.150*%
%ADD142C,0.889*%
%ADD143C,1.016*%
%ADD144C,0.100*%
%ADD145R,15.240X8.382*%
%ADD146R,1.850X3.650*%
%ADD147R,2.032X5.334*%
D96*
X22056Y84200D02*
G03*
X22056Y84200I-125J0D01*
G01*
X173975Y24725D02*
G03*
X173975Y24725I-125J0D01*
G01*
X95483Y19874D02*
G03*
X95483Y19874I-125J0D01*
G01*
X419169Y22019D02*
G03*
X419169Y22019I-125J0D01*
G01*
X198375Y15200D02*
G03*
X198375Y15200I-125J0D01*
G01*
X97896Y19848D02*
G03*
X97896Y19848I-125J0D01*
G01*
X82163Y11900D02*
G03*
X82163Y11900I-125J0D01*
G01*
X50110Y120272D02*
G03*
X50110Y120272I-125J0D01*
G01*
X98546Y11900D02*
G03*
X98546Y11900I-125J0D01*
G01*
X82940Y120272D02*
G03*
X82940Y120272I-125J0D01*
G01*
X115184D02*
G03*
X115184Y120272I-125J0D01*
G01*
X17622D02*
G03*
X17622Y120272I-125J0D01*
G01*
D97*
X219750Y20500D02*
G03*
X219750Y20500I-7000J0D01*
G01*
D98*
X178025Y5900D02*
Y10150D01*
X184600Y32725D02*
Y56225D01*
X195100D01*
Y32725D02*
Y56225D01*
X184600Y32725D02*
X195100D01*
X189850Y31095D02*
Y32725D01*
Y56225D02*
Y57855D01*
X-2834Y116500D02*
X20788D01*
X-2834Y65900D02*
Y116500D01*
Y65900D02*
X20788D01*
Y116500D01*
X183125Y13700D02*
Y18700D01*
X173425Y16200D02*
X175675D01*
X185175D02*
X187425D01*
X185175Y13550D02*
Y18850D01*
X175675D02*
X185175D01*
X175675Y13550D02*
Y18850D01*
Y13550D02*
X185175D01*
X76150Y15100D02*
X76750D01*
Y14400D02*
Y15100D01*
X78050D01*
X76750D02*
Y15800D01*
X77457Y14393D02*
Y15807D01*
X76750Y15100D02*
X77457Y14393D01*
X76750Y15100D02*
X77457Y15807D01*
X69900Y13250D02*
X69900Y16925D01*
X84250D01*
X69900Y13250D02*
X84250Y13250D01*
Y16925D01*
X59435Y4275D02*
X69435D01*
X59435Y11775D02*
X69435D01*
Y4275D02*
Y11775D01*
X59435Y4275D02*
Y11775D01*
X415825Y28150D02*
X419725D01*
Y26450D02*
Y28150D01*
X415825Y26450D02*
X419725D01*
X415825D02*
Y28150D01*
X415250Y27300D02*
X415825D01*
X419725D02*
X420300D01*
X416800Y26520D02*
Y28080D01*
X94658Y17599D02*
Y17849D01*
X96008Y17599D02*
Y17849D01*
X397495Y4165D02*
Y9125D01*
X407275D01*
Y4165D02*
Y9125D01*
X397495Y4165D02*
X407275D01*
X418394Y24044D02*
Y24294D01*
X419744Y24044D02*
Y24294D01*
X197075Y22050D02*
Y26300D01*
X93550Y26625D02*
X97450D01*
X93550D02*
Y28325D01*
X97450D01*
Y26625D02*
Y28325D01*
Y27475D02*
X98025D01*
X92975D02*
X93550D01*
X96475Y26695D02*
Y28255D01*
X100870Y29110D02*
X105830D01*
X100870D02*
Y38890D01*
X105830D01*
Y29110D02*
Y38890D01*
X110924Y29110D02*
Y38890D01*
X105964D02*
X110924D01*
X105964Y29110D02*
Y38890D01*
Y29110D02*
X110924D01*
X116035D02*
Y38890D01*
X111075D02*
X116035D01*
X111075Y29110D02*
Y38890D01*
Y29110D02*
X116035D01*
X286400Y2000D02*
X297600D01*
Y6800D01*
X286400D02*
X297600D01*
X286400Y2000D02*
Y6800D01*
X198950Y17225D02*
Y17475D01*
X197600Y17225D02*
Y17475D01*
X153275Y13550D02*
Y18550D01*
X160725Y16050D02*
X162975D01*
X148975D02*
X151225D01*
Y13400D02*
Y18700D01*
Y13400D02*
X160725D01*
Y18700D01*
X151225D02*
X160725D01*
X176330Y4725D02*
Y9685D01*
X166550Y4725D02*
X176330D01*
X166550D02*
Y9685D01*
X176330D01*
X205300Y10875D02*
X205900Y10625D01*
Y11825D01*
X205300Y11575D02*
X205900Y11825D01*
X194700Y6625D02*
X195300Y6375D01*
X194700Y5425D02*
X195300Y5675D01*
X194700Y5425D02*
Y6625D01*
X195300Y6375D02*
Y12525D01*
Y3525D02*
Y5675D01*
Y3525D02*
X205300D01*
X195300Y12525D02*
X205300D01*
Y11575D02*
Y12525D01*
Y3525D02*
Y10875D01*
X97071Y17573D02*
Y17823D01*
X98421Y17573D02*
Y17823D01*
X230120Y23450D02*
X239620D01*
Y18150D02*
Y23450D01*
X230120Y18150D02*
X239620D01*
X230120D02*
Y23450D01*
X227870Y20800D02*
X230120D01*
X239620D02*
X241870D01*
X232170Y18300D02*
Y23300D01*
X230120Y12450D02*
X239620D01*
X230120D02*
Y17750D01*
X239620D01*
Y12450D02*
Y17750D01*
Y15100D02*
X241870D01*
X227870D02*
X230120D01*
X237570Y12600D02*
Y17600D01*
X230175Y12075D02*
X239675D01*
Y6775D02*
Y12075D01*
X230175Y6775D02*
X239675D01*
X230175D02*
Y12075D01*
X227925Y9425D02*
X230175D01*
X239675D02*
X241925D01*
X232225Y6925D02*
Y11925D01*
X230170Y1075D02*
X239670D01*
X230170D02*
Y6375D01*
X239670D01*
Y1075D02*
Y6375D01*
Y3725D02*
X241920D01*
X227920D02*
X230170D01*
X237620Y1225D02*
Y6225D01*
X112000Y103750D02*
Y105380D01*
Y78620D02*
Y80250D01*
X106750D02*
X117250D01*
Y103750D01*
X106750D02*
X117250D01*
X106750Y80250D02*
Y103750D01*
X124000D02*
Y105380D01*
Y78620D02*
Y80250D01*
X118750D02*
X129250D01*
Y103750D01*
X118750D02*
X129250D01*
X118750Y80250D02*
Y103750D01*
X136000D02*
Y105380D01*
Y78620D02*
Y80250D01*
X130750D02*
X141250D01*
Y103750D01*
X130750D02*
X141250D01*
X130750Y80250D02*
Y103750D01*
X80598Y11475D02*
X96178D01*
X80598Y5525D02*
Y11475D01*
Y5525D02*
X96178D01*
Y11475D01*
X65355Y117845D02*
X66355Y123155D01*
X50485D02*
X51485Y117845D01*
X65355D01*
X50485Y123155D02*
X66355D01*
X172925Y32725D02*
Y56225D01*
X183425D01*
Y32725D02*
Y56225D01*
X172925Y32725D02*
X183425D01*
X178175Y31095D02*
Y32725D01*
Y56225D02*
Y57855D01*
X96981Y11475D02*
X112561D01*
X96981Y5525D02*
Y11475D01*
Y5525D02*
X112561D01*
Y11475D01*
X200325Y48100D02*
X206325D01*
X83315Y123155D02*
X99185D01*
X84315Y117845D02*
X98185D01*
X83315Y123155D02*
X84315Y117845D01*
X98185D02*
X99185Y123155D01*
X115559D02*
X131429D01*
X116559Y117845D02*
X130429D01*
X115559Y123155D02*
X116559Y117845D01*
X130429D02*
X131429Y123155D01*
X220300Y3500D02*
Y10850D01*
Y11550D02*
Y12500D01*
Y11550D02*
X220900Y11800D01*
Y10600D02*
Y11800D01*
X220300Y10850D02*
X220900Y10600D01*
X204700Y6600D02*
X205300Y6350D01*
X204700Y5400D02*
X205300Y5650D01*
X204700Y5400D02*
Y6600D01*
X205300Y6350D02*
Y12500D01*
Y3500D02*
Y5650D01*
Y3500D02*
X220300D01*
X205300Y12500D02*
X220300D01*
X119625Y4250D02*
X129625D01*
X119625Y11750D02*
X129625D01*
Y4250D02*
Y11750D01*
X119625Y4250D02*
Y11750D01*
X17997Y123155D02*
X33867D01*
X18997Y117845D02*
X32867D01*
X17997Y123155D02*
X18997Y117845D01*
X32867D02*
X33867Y123155D01*
D99*
X195597Y35157D02*
X210837D01*
X195597Y46333D02*
X210837D01*
Y35157D02*
Y46333D01*
X195597Y35157D02*
Y46333D01*
Y37951D02*
X210837D01*
X195597Y46333D02*
X210837D01*
Y37951D02*
Y46333D01*
X195597Y37951D02*
Y46333D01*
X-40Y65900D02*
Y116600D01*
X116900Y54425D02*
X123377D01*
X106950Y67225D02*
X147850D01*
X106950Y61510D02*
X147850D01*
X106950D02*
Y67225D01*
X147850Y61510D02*
Y67225D01*
X116900Y54425D02*
Y62044D01*
X123377Y54425D02*
Y61425D01*
X137728Y67759D02*
Y74871D01*
X131378D02*
X137728D01*
X131378Y70225D02*
Y74871D01*
X137728Y59885D02*
Y67759D01*
X116900Y65346D02*
Y70172D01*
X137728D01*
X116900Y59885D02*
X137728D01*
X116900D02*
Y65346D01*
X276460Y110550D02*
X281921D01*
X276460Y89722D02*
Y110550D01*
X286747Y89722D02*
Y110550D01*
X281921D02*
X286747D01*
X276460Y89722D02*
X284334D01*
X286800Y96072D02*
X291446D01*
Y89722D02*
Y96072D01*
X284334Y89722D02*
X291446D01*
X271000Y104073D02*
X278000D01*
X271000Y110550D02*
X278619D01*
X278085Y79600D02*
X283800D01*
X278085Y120500D02*
X283800D01*
X278085Y79600D02*
Y120500D01*
X283800Y79600D02*
Y120500D01*
X271000Y104073D02*
Y110550D01*
X230030Y95468D02*
X257970D01*
X230030Y80609D02*
X257970D01*
X230030D02*
Y95468D01*
X257970Y80609D02*
Y95468D01*
X230030Y111468D02*
X257970D01*
X230030Y96609D02*
X257970D01*
X230030D02*
Y111468D01*
X257970Y96609D02*
Y111468D01*
X185967Y116944D02*
Y122024D01*
X206033Y116944D02*
Y122024D01*
X185967D02*
X206033D01*
X185967Y116944D02*
X206033D01*
X153812D02*
Y122024D01*
X173878Y116944D02*
Y122024D01*
X153812D02*
X173878D01*
X153812Y116944D02*
X173878D01*
X218967D02*
Y122024D01*
X239033Y116944D02*
Y122024D01*
X218967D02*
X239033D01*
X218967Y116944D02*
X239033D01*
X250967D02*
Y122024D01*
X271033Y116944D02*
Y122024D01*
X250967D02*
X271033D01*
X250967Y116944D02*
X271033D01*
X146845Y25861D02*
Y26115D01*
Y21035D02*
Y23829D01*
X144305Y21035D02*
Y26115D01*
X146845D01*
Y23829D02*
Y25861D01*
X144305Y21035D02*
X146845D01*
X155270Y26286D02*
Y26540D01*
Y21460D02*
Y24254D01*
X152730Y21460D02*
Y26540D01*
X155270D01*
Y24254D02*
Y26286D01*
X152730Y21460D02*
X155270D01*
X320233Y12013D02*
Y78942D01*
X248859Y12013D02*
Y78942D01*
X320233D01*
X248859Y12013D02*
X320233D01*
X320131D02*
Y12038D01*
X319902Y12013D02*
Y12038D01*
X320131D01*
X319902Y12013D02*
X320131D01*
X268645D02*
Y78891D01*
X254116Y12013D02*
Y78891D01*
X268645D01*
X254116Y12013D02*
X268645D01*
X254066Y12241D02*
X254345D01*
X254066D02*
X254345D01*
X304866Y12025D02*
X325948D01*
X304866Y78840D02*
X325948D01*
X304866Y12025D02*
Y78840D01*
X325948Y12025D02*
Y78840D01*
X387900Y12055D02*
Y78933D01*
X402429Y12055D02*
Y78933D01*
X387900Y12055D02*
X402429D01*
X387900Y78933D02*
X402429D01*
X336313Y12004D02*
Y78933D01*
X407687Y12004D02*
Y78933D01*
X336313Y12004D02*
X407687D01*
X336313Y78933D02*
X407687D01*
X330598Y12106D02*
Y78921D01*
X351680Y12106D02*
Y78921D01*
X330598Y12106D02*
X351680D01*
X330598Y78921D02*
X351680D01*
X336415Y78908D02*
Y78933D01*
X336643Y78908D02*
Y78933D01*
X336415Y78908D02*
X336643D01*
X336415Y78933D02*
X336643D01*
X402201Y78705D02*
X402480D01*
X402201D02*
X402480D01*
X358294Y116912D02*
X374169D01*
X358294Y121865D02*
X374169D01*
Y116912D02*
Y121865D01*
X358294Y116912D02*
Y121865D01*
X325794Y116920D02*
X341669D01*
X325794Y121873D02*
X341669D01*
Y116920D02*
Y121873D01*
X325794Y116920D02*
Y121873D01*
X421049Y84586D02*
Y105160D01*
X401999Y84586D02*
Y105160D01*
X421049D01*
X401999Y84586D02*
X421049D01*
X418255D02*
Y105160D01*
X401999Y84586D02*
Y105160D01*
X418255D01*
X401999Y84586D02*
X418255D01*
X136100Y117000D02*
Y148900D01*
X14000Y117000D02*
X136100D01*
X14000D02*
Y149000D01*
Y149000D02*
X136000D01*
X273600Y117000D02*
Y148900D01*
X151500Y117000D02*
X273600D01*
X151500D02*
Y149000D01*
Y149000D02*
X273500D01*
X411100Y117000D02*
Y148900D01*
X289000Y117000D02*
X411100D01*
X289000D02*
Y149000D01*
Y149000D02*
X411000D01*
X35174Y6412D02*
Y22668D01*
X44826Y6412D02*
Y22668D01*
X35174D02*
X44826D01*
X35174Y6412D02*
X44826D01*
X35174Y3491D02*
Y22668D01*
X44826Y3491D02*
Y22668D01*
X35174D02*
X44826D01*
X35174Y3491D02*
X44826D01*
X15174Y6412D02*
Y22668D01*
X24826Y6412D02*
Y22668D01*
X15174D02*
X24826D01*
X15174Y6412D02*
X24826D01*
X15174Y3491D02*
Y22668D01*
X24826Y3491D02*
Y22668D01*
X15174D02*
X24826D01*
X15174Y3491D02*
X24826D01*
X25174Y6412D02*
Y22668D01*
X34826Y6412D02*
Y22668D01*
X25174D02*
X34826D01*
X25174Y6412D02*
X34826D01*
X25174Y3491D02*
Y22668D01*
X34826Y3491D02*
Y22668D01*
X25174D02*
X34826D01*
X25174Y3491D02*
X34826D01*
X409188Y35973D02*
Y78772D01*
X423412Y35973D02*
Y78772D01*
X409188Y35973D02*
X423412D01*
X409188Y78772D02*
X423412D01*
X48310Y12662D02*
Y72987D01*
X64312Y12662D02*
Y72987D01*
X48310Y12662D02*
X64312D01*
X48310Y72987D02*
X64312D01*
X50000Y79841D02*
Y82000D01*
Y100000D02*
Y102159D01*
Y91000D02*
Y93159D01*
X34000Y88841D02*
Y91000D01*
Y100000D02*
Y102159D01*
Y82000D02*
Y84159D01*
X215392Y75031D02*
X216408D01*
X215900D01*
Y73507D01*
X216916D02*
X217423D01*
X217169D01*
Y75031D01*
X216916Y74777D01*
X179400Y20217D02*
X179267Y20350D01*
X179000D01*
X178867Y20217D01*
Y19683D01*
X179000Y19550D01*
X179267D01*
X179400Y19683D01*
X179667Y19550D02*
Y20350D01*
X180067D01*
X180200Y20217D01*
Y19950D01*
X180067Y19817D01*
X179667D01*
X179933D02*
X180200Y19550D01*
X180466D02*
X180733D01*
X180600D01*
Y20350D01*
X180466Y20217D01*
X129616Y57850D02*
Y57050D01*
X129216D01*
X129083Y57183D01*
Y57450D01*
X129216Y57583D01*
X129616D01*
X129350D02*
X129083Y57850D01*
X128817Y57183D02*
X128683Y57050D01*
X128417D01*
X128283Y57183D01*
Y57317D01*
X128417Y57450D01*
X128550D01*
X128417D01*
X128283Y57583D01*
Y57717D01*
X128417Y57850D01*
X128683D01*
X128817Y57717D01*
X128017Y57183D02*
X127884Y57050D01*
X127617D01*
X127484Y57183D01*
Y57317D01*
X127617Y57450D01*
X127750D01*
X127617D01*
X127484Y57583D01*
Y57717D01*
X127617Y57850D01*
X127884D01*
X128017Y57717D01*
X125424Y72550D02*
X125158D01*
X125291D01*
Y71750D01*
X125424Y71883D01*
X124758D02*
X124625Y71750D01*
X124358D01*
X124225Y71883D01*
Y72417D01*
X124358Y72550D01*
X124625D01*
X124758Y72417D01*
Y71883D01*
X123958D02*
X123825Y71750D01*
X123558D01*
X123425Y71883D01*
Y72417D01*
X123558Y72550D01*
X123825D01*
X123958Y72417D01*
Y71883D01*
X122758Y71750D02*
X123025D01*
X123158Y71883D01*
Y72417D01*
X123025Y72550D01*
X122758D01*
X122625Y72417D01*
Y71883D01*
X122758Y71750D01*
X122359D02*
Y72550D01*
Y72150D01*
X122225Y72017D01*
X121959D01*
X121825Y72150D01*
Y72550D01*
X121559D02*
Y72017D01*
X121426D01*
X121292Y72150D01*
Y72550D01*
Y72150D01*
X121159Y72017D01*
X121026Y72150D01*
Y72550D01*
X275050Y97359D02*
X274250D01*
Y97759D01*
X274383Y97892D01*
X274650D01*
X274783Y97759D01*
Y97359D01*
Y97625D02*
X275050Y97892D01*
Y98558D02*
X274250D01*
X274650Y98158D01*
Y98692D01*
X274383Y98958D02*
X274250Y99091D01*
Y99358D01*
X274383Y99491D01*
X274917D01*
X275050Y99358D01*
Y99091D01*
X274917Y98958D01*
X274383D01*
X289058Y101626D02*
X288258D01*
Y102026D01*
X288392Y102159D01*
X288658D01*
X288792Y102026D01*
Y101626D01*
Y101892D02*
X289058Y102159D01*
X288258Y102959D02*
Y102426D01*
X289058D01*
Y102959D01*
X288658Y102426D02*
Y102692D01*
X288392Y103758D02*
X288258Y103625D01*
Y103359D01*
X288392Y103225D01*
X288525D01*
X288658Y103359D01*
Y103625D01*
X288792Y103758D01*
X288925D01*
X289058Y103625D01*
Y103359D01*
X288925Y103225D01*
X289191Y104025D02*
Y104558D01*
X289058Y104825D02*
Y105091D01*
Y104958D01*
X288258D01*
X288392Y104825D01*
Y105491D02*
X288258Y105625D01*
Y105891D01*
X288392Y106024D01*
X288925D01*
X289058Y105891D01*
Y105625D01*
X288925Y105491D01*
X288392D01*
X288258Y106291D02*
X289058D01*
X288792Y106558D01*
X289058Y106824D01*
X288258D01*
X157133Y12033D02*
X157266Y11900D01*
X157533D01*
X157666Y12033D01*
Y12567D01*
X157533Y12700D01*
X157266D01*
X157133Y12567D01*
X156867Y12700D02*
Y11900D01*
X156467D01*
X156333Y12033D01*
Y12300D01*
X156467Y12433D01*
X156867D01*
X156600D02*
X156333Y12700D01*
X155534D02*
X156067D01*
X155534Y12167D01*
Y12033D01*
X155667Y11900D01*
X155934D01*
X156067Y12033D01*
X267205Y11012D02*
X268221D01*
X267713D01*
Y9488D01*
X269745D02*
X268729D01*
X269745Y10504D01*
Y10758D01*
X269491Y11012D01*
X268983D01*
X268729Y10758D01*
X250012Y10845D02*
X248996D01*
Y9321D01*
X250012D01*
X248996Y10083D02*
X249504D01*
X250520Y10845D02*
X251535D01*
X251028D01*
Y9321D01*
X252043Y10845D02*
Y9321D01*
X252805D01*
X253059Y9575D01*
Y10591D01*
X252805Y10845D01*
X252043D01*
X253567Y10083D02*
X254582D01*
X256106Y10845D02*
X255090D01*
Y10083D01*
X255598Y10337D01*
X255852D01*
X256106Y10083D01*
Y9575D01*
X255852Y9321D01*
X255344D01*
X255090Y9575D01*
X256614D02*
X256868Y9321D01*
X257375D01*
X257629Y9575D01*
Y10591D01*
X257375Y10845D01*
X256868D01*
X256614Y10591D01*
Y10337D01*
X256868Y10083D01*
X257629D01*
X258137Y9067D02*
X259153D01*
X260676Y9321D02*
X259661D01*
X260676Y10337D01*
Y10591D01*
X260422Y10845D01*
X259915D01*
X259661Y10591D01*
X344475Y105568D02*
X344341Y105701D01*
X344075D01*
X343941Y105568D01*
Y105035D01*
X344075Y104902D01*
X344341D01*
X344475Y105035D01*
X344741Y104902D02*
X345008D01*
X344874D01*
Y105701D01*
X344741Y105568D01*
X345941Y105701D02*
X345674Y105568D01*
X345408Y105301D01*
Y105035D01*
X345541Y104902D01*
X345807D01*
X345941Y105035D01*
Y105168D01*
X345807Y105301D01*
X345408D01*
X330733Y81635D02*
Y80111D01*
X331749D01*
X332257D02*
X332765D01*
X332511D01*
Y81635D01*
X332257Y81381D01*
X286392Y1425D02*
Y625D01*
X286792D01*
X286925Y758D01*
Y1292D01*
X286792Y1425D01*
X286392D01*
X287192Y625D02*
Y1158D01*
X287458Y1425D01*
X287725Y1158D01*
Y625D01*
Y1025D01*
X287192D01*
X287991Y625D02*
X288258D01*
X288125D01*
Y1425D01*
X287991Y1292D01*
X290451Y625D02*
Y1425D01*
X290850D01*
X290984Y1292D01*
Y1025D01*
X290850Y892D01*
X290451D01*
X291783Y1292D02*
X291650Y1425D01*
X291384D01*
X291250Y1292D01*
Y758D01*
X291384Y625D01*
X291650D01*
X291783Y758D01*
X292050Y1292D02*
X292183Y1425D01*
X292450D01*
X292583Y1292D01*
Y1158D01*
X292450Y1025D01*
X292583Y892D01*
Y758D01*
X292450Y625D01*
X292183D01*
X292050Y758D01*
Y892D01*
X292183Y1025D01*
X292050Y1158D01*
Y1292D01*
X292183Y1025D02*
X292450D01*
X292850Y625D02*
X293116D01*
X292983D01*
Y1425D01*
X292850Y1292D01*
X293516Y1425D02*
X294049D01*
Y1292D01*
X293516Y758D01*
Y625D01*
X152865Y143290D02*
Y144814D01*
X153627D01*
X153881Y144560D01*
Y144052D01*
X153627Y143798D01*
X152865D01*
X153373D02*
X153881Y143290D01*
X154643Y144306D02*
X155151D01*
X155404Y144052D01*
Y143290D01*
X154643D01*
X154389Y143544D01*
X154643Y143798D01*
X155404D01*
X156928Y144814D02*
Y143290D01*
X156166D01*
X155912Y143544D01*
Y144052D01*
X156166Y144306D01*
X156928D01*
X157436Y143290D02*
X157944D01*
X157690D01*
Y144306D01*
X157436D01*
X158959D02*
X159467D01*
X159721Y144052D01*
Y143290D01*
X158959D01*
X158705Y143544D01*
X158959Y143798D01*
X159721D01*
X160483Y144560D02*
Y144306D01*
X160229D01*
X160737D01*
X160483D01*
Y143544D01*
X160737Y143290D01*
X161752D02*
X162260D01*
X162514Y143544D01*
Y144052D01*
X162260Y144306D01*
X161752D01*
X161499Y144052D01*
Y143544D01*
X161752Y143290D01*
X163022Y144306D02*
Y143290D01*
Y143798D01*
X163276Y144052D01*
X163530Y144306D01*
X163784D01*
X164546Y143036D02*
X165561D01*
X166069Y144560D02*
X166323Y144814D01*
X166831D01*
X167085Y144560D01*
Y144306D01*
X166831Y144052D01*
X166577D01*
X166831D01*
X167085Y143798D01*
Y143544D01*
X166831Y143290D01*
X166323D01*
X166069Y143544D01*
X152823Y145990D02*
Y147514D01*
X153585D01*
X153839Y147260D01*
Y146752D01*
X153585Y146498D01*
X152823D01*
X153331D02*
X153839Y145990D01*
X154601Y147006D02*
X155108D01*
X155362Y146752D01*
Y145990D01*
X154601D01*
X154347Y146244D01*
X154601Y146498D01*
X155362D01*
X156886Y147514D02*
Y145990D01*
X156124D01*
X155870Y146244D01*
Y146752D01*
X156124Y147006D01*
X156886D01*
X157394Y145990D02*
X157902D01*
X157648D01*
Y147006D01*
X157394D01*
X158917D02*
X159425D01*
X159679Y146752D01*
Y145990D01*
X158917D01*
X158663Y146244D01*
X158917Y146498D01*
X159679D01*
X160441Y147260D02*
Y147006D01*
X160187D01*
X160695D01*
X160441D01*
Y146244D01*
X160695Y145990D01*
X161710D02*
X162218D01*
X162472Y146244D01*
Y146752D01*
X162218Y147006D01*
X161710D01*
X161456Y146752D01*
Y146244D01*
X161710Y145990D01*
X162980Y147006D02*
Y145990D01*
Y146498D01*
X163234Y146752D01*
X163488Y147006D01*
X163742D01*
X164503Y145736D02*
X165519D01*
X166027Y145990D02*
X166535D01*
X166281D01*
Y147514D01*
X166027Y147260D01*
X168312Y145990D02*
X167297D01*
X168312Y147006D01*
Y147260D01*
X168058Y147514D01*
X167550D01*
X167297Y147260D01*
X169836Y145990D02*
X168820D01*
X169836Y147006D01*
Y147260D01*
X169582Y147514D01*
X169074D01*
X168820Y147260D01*
X170344Y147514D02*
X171359Y145990D01*
Y147514D02*
X170344Y145990D01*
X171867Y147260D02*
X172121Y147514D01*
X172629D01*
X172883Y147260D01*
Y147006D01*
X172629Y146752D01*
X172883Y146498D01*
Y146244D01*
X172629Y145990D01*
X172121D01*
X171867Y146244D01*
Y146498D01*
X172121Y146752D01*
X171867Y147006D01*
Y147260D01*
X172121Y146752D02*
X172629D01*
X173391Y147260D02*
X173645Y147514D01*
X174152D01*
X174406Y147260D01*
Y146244D01*
X174152Y145990D01*
X173645D01*
X173391Y146244D01*
Y147260D01*
X174914Y145736D02*
X175930D01*
X176438Y145990D02*
Y147514D01*
X176945Y147006D01*
X177453Y147514D01*
Y145990D01*
X178723D02*
Y147514D01*
X177961Y146752D01*
X178977D01*
X290040Y143190D02*
Y144714D01*
X290802D01*
X291056Y144460D01*
Y143952D01*
X290802Y143698D01*
X290040D01*
X290548D02*
X291056Y143190D01*
X291818Y144206D02*
X292326D01*
X292579Y143952D01*
Y143190D01*
X291818D01*
X291564Y143444D01*
X291818Y143698D01*
X292579D01*
X294103Y144714D02*
Y143190D01*
X293341D01*
X293087Y143444D01*
Y143952D01*
X293341Y144206D01*
X294103D01*
X294611Y143190D02*
X295119D01*
X294865D01*
Y144206D01*
X294611D01*
X296134D02*
X296642D01*
X296896Y143952D01*
Y143190D01*
X296134D01*
X295880Y143444D01*
X296134Y143698D01*
X296896D01*
X297658Y144460D02*
Y144206D01*
X297404D01*
X297912D01*
X297658D01*
Y143444D01*
X297912Y143190D01*
X298927D02*
X299435D01*
X299689Y143444D01*
Y143952D01*
X299435Y144206D01*
X298927D01*
X298674Y143952D01*
Y143444D01*
X298927Y143190D01*
X300197Y144206D02*
Y143190D01*
Y143698D01*
X300451Y143952D01*
X300705Y144206D01*
X300959D01*
X301721Y142936D02*
X302736D01*
X304260Y143190D02*
X303244D01*
X304260Y144206D01*
Y144460D01*
X304006Y144714D01*
X303498D01*
X303244Y144460D01*
X290123Y146215D02*
Y147739D01*
X290885D01*
X291139Y147485D01*
Y146977D01*
X290885Y146723D01*
X290123D01*
X290631D02*
X291139Y146215D01*
X291901Y147231D02*
X292408D01*
X292662Y146977D01*
Y146215D01*
X291901D01*
X291647Y146469D01*
X291901Y146723D01*
X292662D01*
X294186Y147739D02*
Y146215D01*
X293424D01*
X293170Y146469D01*
Y146977D01*
X293424Y147231D01*
X294186D01*
X294694Y146215D02*
X295202D01*
X294948D01*
Y147231D01*
X294694D01*
X296217D02*
X296725D01*
X296979Y146977D01*
Y146215D01*
X296217D01*
X295963Y146469D01*
X296217Y146723D01*
X296979D01*
X297741Y147485D02*
Y147231D01*
X297487D01*
X297995D01*
X297741D01*
Y146469D01*
X297995Y146215D01*
X299010D02*
X299518D01*
X299772Y146469D01*
Y146977D01*
X299518Y147231D01*
X299010D01*
X298756Y146977D01*
Y146469D01*
X299010Y146215D01*
X300280Y147231D02*
Y146215D01*
Y146723D01*
X300534Y146977D01*
X300788Y147231D01*
X301042D01*
X301803Y145961D02*
X302819D01*
X303327Y146215D02*
X303835D01*
X303581D01*
Y147739D01*
X303327Y147485D01*
X305612Y146215D02*
X304597D01*
X305612Y147231D01*
Y147485D01*
X305358Y147739D01*
X304850D01*
X304597Y147485D01*
X307136Y146215D02*
X306120D01*
X307136Y147231D01*
Y147485D01*
X306882Y147739D01*
X306374D01*
X306120Y147485D01*
X307644Y147739D02*
X308659Y146215D01*
Y147739D02*
X307644Y146215D01*
X309167Y147485D02*
X309421Y147739D01*
X309929D01*
X310183Y147485D01*
Y147231D01*
X309929Y146977D01*
X310183Y146723D01*
Y146469D01*
X309929Y146215D01*
X309421D01*
X309167Y146469D01*
Y146723D01*
X309421Y146977D01*
X309167Y147231D01*
Y147485D01*
X309421Y146977D02*
X309929D01*
X310691Y147485D02*
X310944Y147739D01*
X311452D01*
X311706Y147485D01*
Y146469D01*
X311452Y146215D01*
X310944D01*
X310691Y146469D01*
Y147485D01*
X312214Y145961D02*
X313230D01*
X313738Y146215D02*
Y147739D01*
X314245Y147231D01*
X314753Y147739D01*
Y146215D01*
X316023D02*
Y147739D01*
X315261Y146977D01*
X316277D01*
X15169Y143265D02*
Y144789D01*
X15931D01*
X16185Y144535D01*
Y144027D01*
X15931Y143773D01*
X15169D01*
X15677D02*
X16185Y143265D01*
X16947Y144281D02*
X17454D01*
X17708Y144027D01*
Y143265D01*
X16947D01*
X16693Y143519D01*
X16947Y143773D01*
X17708D01*
X19232Y144789D02*
Y143265D01*
X18470D01*
X18216Y143519D01*
Y144027D01*
X18470Y144281D01*
X19232D01*
X19740Y143265D02*
X20248D01*
X19994D01*
Y144281D01*
X19740D01*
X21263D02*
X21771D01*
X22025Y144027D01*
Y143265D01*
X21263D01*
X21009Y143519D01*
X21263Y143773D01*
X22025D01*
X22787Y144535D02*
Y144281D01*
X22533D01*
X23041D01*
X22787D01*
Y143519D01*
X23041Y143265D01*
X24056D02*
X24564D01*
X24818Y143519D01*
Y144027D01*
X24564Y144281D01*
X24056D01*
X23802Y144027D01*
Y143519D01*
X24056Y143265D01*
X25326Y144281D02*
Y143265D01*
Y143773D01*
X25580Y144027D01*
X25834Y144281D01*
X26088D01*
X26849Y143011D02*
X27865D01*
X28373Y143265D02*
X28881D01*
X28627D01*
Y144789D01*
X28373Y144535D01*
X15198Y146240D02*
Y147764D01*
X15960D01*
X16214Y147510D01*
Y147002D01*
X15960Y146748D01*
X15198D01*
X15706D02*
X16214Y146240D01*
X16976Y147256D02*
X17483D01*
X17737Y147002D01*
Y146240D01*
X16976D01*
X16722Y146494D01*
X16976Y146748D01*
X17737D01*
X19261Y147764D02*
Y146240D01*
X18499D01*
X18245Y146494D01*
Y147002D01*
X18499Y147256D01*
X19261D01*
X19769Y146240D02*
X20277D01*
X20023D01*
Y147256D01*
X19769D01*
X21292D02*
X21800D01*
X22054Y147002D01*
Y146240D01*
X21292D01*
X21038Y146494D01*
X21292Y146748D01*
X22054D01*
X22816Y147510D02*
Y147256D01*
X22562D01*
X23070D01*
X22816D01*
Y146494D01*
X23070Y146240D01*
X24085D02*
X24593D01*
X24847Y146494D01*
Y147002D01*
X24593Y147256D01*
X24085D01*
X23831Y147002D01*
Y146494D01*
X24085Y146240D01*
X25355Y147256D02*
Y146240D01*
Y146748D01*
X25609Y147002D01*
X25863Y147256D01*
X26117D01*
X26878Y145986D02*
X27894D01*
X28402Y146240D02*
X28910D01*
X28656D01*
Y147764D01*
X28402Y147510D01*
X30687Y146240D02*
X29672D01*
X30687Y147256D01*
Y147510D01*
X30433Y147764D01*
X29925D01*
X29672Y147510D01*
X32211Y146240D02*
X31195D01*
X32211Y147256D01*
Y147510D01*
X31957Y147764D01*
X31449D01*
X31195Y147510D01*
X32719Y147764D02*
X33734Y146240D01*
Y147764D02*
X32719Y146240D01*
X34242Y147510D02*
X34496Y147764D01*
X35004D01*
X35258Y147510D01*
Y147256D01*
X35004Y147002D01*
X35258Y146748D01*
Y146494D01*
X35004Y146240D01*
X34496D01*
X34242Y146494D01*
Y146748D01*
X34496Y147002D01*
X34242Y147256D01*
Y147510D01*
X34496Y147002D02*
X35004D01*
X35766Y147510D02*
X36020Y147764D01*
X36527D01*
X36781Y147510D01*
Y146494D01*
X36527Y146240D01*
X36020D01*
X35766Y146494D01*
Y147510D01*
X37289Y145986D02*
X38305D01*
X38813Y146240D02*
Y147764D01*
X39320Y147256D01*
X39828Y147764D01*
Y146240D01*
X41098D02*
Y147764D01*
X40336Y147002D01*
X41352D01*
X195732Y47218D02*
Y48018D01*
X196132D01*
X196266Y47885D01*
Y47618D01*
X196132Y47485D01*
X195732D01*
X195999D02*
X196266Y47218D01*
X197065Y47885D02*
X196932Y48018D01*
X196665D01*
X196532Y47885D01*
Y47351D01*
X196665Y47218D01*
X196932D01*
X197065Y47351D01*
Y47618D01*
X196799D01*
X197332Y47218D02*
X197598D01*
X197465D01*
Y48018D01*
X197332Y47885D01*
X85209Y15500D02*
Y14967D01*
X85475Y14700D01*
X85742Y14967D01*
Y15500D01*
X86008D02*
Y14700D01*
X86408D01*
X86542Y14833D01*
Y15367D01*
X86408Y15500D01*
X86008D01*
X86808Y15367D02*
X86941Y15500D01*
X87208D01*
X87341Y15367D01*
Y15233D01*
X87208Y15100D01*
X87075D01*
X87208D01*
X87341Y14967D01*
Y14833D01*
X87208Y14700D01*
X86941D01*
X86808Y14833D01*
X250509Y4225D02*
X251042D01*
X250775D01*
Y3425D01*
X251309D02*
Y4225D01*
X251708D01*
X251842Y4092D01*
Y3825D01*
X251708Y3692D01*
X251309D01*
X252508Y3425D02*
Y4225D01*
X252108Y3825D01*
X252641D01*
X253441Y3425D02*
X252908D01*
X253441Y3958D01*
Y4092D01*
X253308Y4225D01*
X253041D01*
X252908Y4092D01*
X173067Y11825D02*
X173600D01*
X173334D01*
Y11025D01*
X173867D02*
Y11825D01*
X174267D01*
X174400Y11692D01*
Y11425D01*
X174267Y11292D01*
X173867D01*
X175066Y11025D02*
Y11825D01*
X174667Y11425D01*
X175200D01*
X175466Y11025D02*
X175733D01*
X175600D01*
Y11825D01*
X175466Y11692D01*
X187109Y7700D02*
X187642D01*
X187375D01*
Y6900D01*
X187909D02*
Y7700D01*
X188308D01*
X188442Y7567D01*
Y7300D01*
X188308Y7167D01*
X187909D01*
X189108Y6900D02*
Y7700D01*
X188708Y7300D01*
X189241D01*
X189508Y7567D02*
X189641Y7700D01*
X189908D01*
X190041Y7567D01*
Y7033D01*
X189908Y6900D01*
X189641D01*
X189508Y7033D01*
Y7567D01*
X197634Y14475D02*
X198167D01*
X197900D01*
Y13675D01*
X198434D02*
Y14475D01*
X198833D01*
X198967Y14342D01*
Y14075D01*
X198833Y13942D01*
X198434D01*
X199766Y13675D02*
X199233D01*
X199766Y14208D01*
Y14342D01*
X199633Y14475D01*
X199367D01*
X199233Y14342D01*
X200033Y13808D02*
X200166Y13675D01*
X200433D01*
X200566Y13808D01*
Y14342D01*
X200433Y14475D01*
X200166D01*
X200033Y14342D01*
Y14208D01*
X200166Y14075D01*
X200566D01*
X244297Y27876D02*
X244830D01*
X244564D01*
Y27076D01*
X245097D02*
Y27876D01*
X245497D01*
X245630Y27742D01*
Y27476D01*
X245497Y27343D01*
X245097D01*
X246430Y27076D02*
X245897D01*
X246430Y27609D01*
Y27742D01*
X246297Y27876D01*
X246030D01*
X245897Y27742D01*
X246696D02*
X246830Y27876D01*
X247096D01*
X247230Y27742D01*
Y27609D01*
X247096Y27476D01*
X247230Y27343D01*
Y27209D01*
X247096Y27076D01*
X246830D01*
X246696Y27209D01*
Y27343D01*
X246830Y27476D01*
X246696Y27609D01*
Y27742D01*
X246830Y27476D02*
X247096D01*
X162234Y10050D02*
X162767D01*
X162500D01*
Y9250D01*
X163034D02*
Y10050D01*
X163433D01*
X163567Y9917D01*
Y9650D01*
X163433Y9517D01*
X163034D01*
X164366Y9250D02*
X163833D01*
X164366Y9783D01*
Y9917D01*
X164233Y10050D01*
X163967D01*
X163833Y9917D01*
X164633Y10050D02*
X165166D01*
Y9917D01*
X164633Y9383D01*
Y9250D01*
X189409Y9550D02*
X189942D01*
X189675D01*
Y8750D01*
X190209D02*
Y9550D01*
X190608D01*
X190742Y9417D01*
Y9150D01*
X190608Y9017D01*
X190209D01*
X191541Y8750D02*
X191008D01*
X191541Y9283D01*
Y9417D01*
X191408Y9550D01*
X191142D01*
X191008Y9417D01*
X192341Y9550D02*
X192075Y9417D01*
X191808Y9150D01*
Y8883D01*
X191941Y8750D01*
X192208D01*
X192341Y8883D01*
Y9017D01*
X192208Y9150D01*
X191808D01*
X380924Y88277D02*
X381457D01*
X381190D01*
Y87477D01*
X381724D02*
Y88277D01*
X382123D01*
X382257Y88144D01*
Y87877D01*
X382123Y87744D01*
X381724D01*
X383056Y87477D02*
X382523D01*
X383056Y88010D01*
Y88144D01*
X382923Y88277D01*
X382657D01*
X382523Y88144D01*
X383856Y88277D02*
X383323D01*
Y87877D01*
X383590Y88010D01*
X383723D01*
X383856Y87877D01*
Y87610D01*
X383723Y87477D01*
X383456D01*
X383323Y87610D01*
X393878Y9410D02*
X394411D01*
X394144D01*
Y8610D01*
X394678D02*
Y9410D01*
X395077D01*
X395211Y9277D01*
Y9010D01*
X395077Y8877D01*
X394678D01*
X396010Y8610D02*
X395477D01*
X396010Y9143D01*
Y9277D01*
X395877Y9410D01*
X395611D01*
X395477Y9277D01*
X396677Y8610D02*
Y9410D01*
X396277Y9010D01*
X396810D01*
X411150Y13250D02*
X411684D01*
X411417D01*
Y12450D01*
X411950D02*
Y13250D01*
X412350D01*
X412483Y13117D01*
Y12850D01*
X412350Y12717D01*
X411950D01*
X412750Y12450D02*
X413017D01*
X412883D01*
Y13250D01*
X412750Y13117D01*
X413416Y12583D02*
X413550Y12450D01*
X413816D01*
X413950Y12583D01*
Y13117D01*
X413816Y13250D01*
X413550D01*
X413416Y13117D01*
Y12983D01*
X413550Y12850D01*
X413950D01*
X408825Y4925D02*
X409359D01*
X409092D01*
Y4125D01*
X409625D02*
Y4925D01*
X410025D01*
X410158Y4792D01*
Y4525D01*
X410025Y4392D01*
X409625D01*
X410425Y4125D02*
X410692D01*
X410558D01*
Y4925D01*
X410425Y4792D01*
X411091D02*
X411225Y4925D01*
X411491D01*
X411625Y4792D01*
Y4258D01*
X411491Y4125D01*
X411225D01*
X411091Y4258D01*
Y4792D01*
X421309Y22300D02*
X421842D01*
X421575D01*
Y21500D01*
X422108D02*
Y22300D01*
X422508D01*
X422642Y22167D01*
Y21900D01*
X422508Y21767D01*
X422108D01*
X422908Y21633D02*
X423041Y21500D01*
X423308D01*
X423441Y21633D01*
Y22167D01*
X423308Y22300D01*
X423041D01*
X422908Y22167D01*
Y22033D01*
X423041Y21900D01*
X423441D01*
X412634Y31025D02*
X413167D01*
X412900D01*
Y30225D01*
X413433D02*
Y31025D01*
X413833D01*
X413967Y30892D01*
Y30625D01*
X413833Y30492D01*
X413433D01*
X414233Y30892D02*
X414366Y31025D01*
X414633D01*
X414766Y30892D01*
Y30758D01*
X414633Y30625D01*
X414766Y30492D01*
Y30358D01*
X414633Y30225D01*
X414366D01*
X414233Y30358D01*
Y30492D01*
X414366Y30625D01*
X414233Y30758D01*
Y30892D01*
X414366Y30625D02*
X414633D01*
X166599Y10642D02*
Y11442D01*
X166998D01*
X167132Y11309D01*
Y11042D01*
X166998Y10909D01*
X166599D01*
X166865D02*
X167132Y10642D01*
X167398D02*
Y11442D01*
X167798D01*
X167932Y11309D01*
Y11042D01*
X167798Y10909D01*
X167398D01*
X168198Y10642D02*
X168465D01*
X168331D01*
Y11442D01*
X168198Y11309D01*
X401359Y2450D02*
Y3250D01*
X401759D01*
X401892Y3117D01*
Y2850D01*
X401759Y2717D01*
X401359D01*
X401625D02*
X401892Y2450D01*
X402692D02*
X402158D01*
X402692Y2983D01*
Y3117D01*
X402558Y3250D01*
X402292D01*
X402158Y3117D01*
X402958Y3250D02*
X403491D01*
Y3117D01*
X402958Y2583D01*
Y2450D01*
X163609Y19275D02*
Y18475D01*
X164142D01*
X164941D02*
X164408D01*
X164941Y19008D01*
Y19142D01*
X164808Y19275D01*
X164542D01*
X164408Y19142D01*
X144842Y28075D02*
X144575D01*
X144709D01*
Y27408D01*
X144575Y27275D01*
X144442D01*
X144309Y27408D01*
X145642Y27275D02*
X145108D01*
X145642Y27808D01*
Y27942D01*
X145508Y28075D01*
X145242D01*
X145108Y27942D01*
X145908D02*
X146041Y28075D01*
X146308D01*
X146441Y27942D01*
Y27408D01*
X146308Y27275D01*
X146041D01*
X145908Y27408D01*
Y27942D01*
X195275Y14312D02*
X195008D01*
X195142D01*
Y13646D01*
X195008Y13512D01*
X194875D01*
X194742Y13646D01*
X195542Y13512D02*
X195808D01*
X195675D01*
Y14312D01*
X195542Y14179D01*
X196208Y13646D02*
X196341Y13512D01*
X196608D01*
X196741Y13646D01*
Y14179D01*
X196608Y14312D01*
X196341D01*
X196208Y14179D01*
Y14046D01*
X196341Y13912D01*
X196741D01*
X402666Y106844D02*
X402399D01*
X402533D01*
Y106178D01*
X402399Y106045D01*
X402266D01*
X402133Y106178D01*
X402933Y106045D02*
X403199D01*
X403066D01*
Y106844D01*
X402933Y106711D01*
X403599D02*
X403732Y106844D01*
X403999D01*
X404132Y106711D01*
Y106578D01*
X403999Y106444D01*
X404132Y106311D01*
Y106178D01*
X403999Y106045D01*
X403732D01*
X403599Y106178D01*
Y106311D01*
X403732Y106444D01*
X403599Y106578D01*
Y106711D01*
X403732Y106444D02*
X403999D01*
X24790Y24345D02*
X24524D01*
X24657D01*
Y23679D01*
X24524Y23545D01*
X24390D01*
X24257Y23679D01*
X25057Y23545D02*
X25323D01*
X25190D01*
Y24345D01*
X25057Y24212D01*
X25723Y24345D02*
X26256D01*
Y24212D01*
X25723Y23679D01*
Y23545D01*
X14783Y24345D02*
X14516D01*
X14649D01*
Y23679D01*
X14516Y23545D01*
X14383D01*
X14249Y23679D01*
X15049Y23545D02*
X15316D01*
X15182D01*
Y24345D01*
X15049Y24212D01*
X16249Y24345D02*
X15982Y24212D01*
X15716Y23945D01*
Y23679D01*
X15849Y23545D01*
X16115D01*
X16249Y23679D01*
Y23812D01*
X16115Y23945D01*
X15716D01*
X153558Y28350D02*
X153292D01*
X153425D01*
Y27683D01*
X153292Y27550D01*
X153159D01*
X153025Y27683D01*
X153825Y27550D02*
X154092D01*
X153958D01*
Y28350D01*
X153825Y28217D01*
X155025Y28350D02*
X154492D01*
Y27950D01*
X154758Y28083D01*
X154891D01*
X155025Y27950D01*
Y27683D01*
X154891Y27550D01*
X154625D01*
X154492Y27683D01*
X34798Y24345D02*
X34531D01*
X34664D01*
Y23679D01*
X34531Y23545D01*
X34398D01*
X34265Y23679D01*
X35064Y23545D02*
X35331D01*
X35198D01*
Y24345D01*
X35064Y24212D01*
X36131Y23545D02*
Y24345D01*
X35731Y23945D01*
X36264D01*
X7858Y118275D02*
X7592D01*
X7725D01*
Y117608D01*
X7592Y117475D01*
X7459D01*
X7325Y117608D01*
X8125Y117475D02*
X8392D01*
X8258D01*
Y118275D01*
X8125Y118142D01*
X8792D02*
X8925Y118275D01*
X9191D01*
X9325Y118142D01*
Y118008D01*
X9191Y117875D01*
X9058D01*
X9191D01*
X9325Y117742D01*
Y117608D01*
X9191Y117475D01*
X8925D01*
X8792Y117608D01*
X58902Y104000D02*
X58636D01*
X58769D01*
Y103333D01*
X58636Y103200D01*
X58502D01*
X58369Y103333D01*
X59169Y103200D02*
X59436D01*
X59302D01*
Y104000D01*
X59169Y103866D01*
X58902Y85966D02*
X58636D01*
X58769D01*
Y85299D01*
X58636Y85166D01*
X58502D01*
X58369Y85299D01*
X59169Y85166D02*
X59436D01*
X59302D01*
Y85966D01*
X59169Y85832D01*
X60369Y85166D02*
X59835D01*
X60369Y85699D01*
Y85832D01*
X60235Y85966D01*
X59969D01*
X59835Y85832D01*
X94359Y29800D02*
Y29000D01*
X94759D01*
X94892Y29133D01*
Y29667D01*
X94759Y29800D01*
X94359D01*
X95692Y29000D02*
X95158D01*
X95692Y29533D01*
Y29667D01*
X95558Y29800D01*
X95292D01*
X95158Y29667D01*
X96491Y29000D02*
X95958D01*
X96491Y29533D01*
Y29667D01*
X96358Y29800D01*
X96091D01*
X95958Y29667D01*
X223393Y8140D02*
Y7340D01*
X223793D01*
X223926Y7473D01*
Y8007D01*
X223793Y8140D01*
X223393D01*
X224193Y7340D02*
X224459D01*
X224326D01*
Y8140D01*
X224193Y8007D01*
X224859Y7473D02*
X224992Y7340D01*
X225259D01*
X225392Y7473D01*
Y8007D01*
X225259Y8140D01*
X224992D01*
X224859Y8007D01*
Y7873D01*
X224992Y7740D01*
X225392D01*
X196125Y16475D02*
X196925D01*
Y16875D01*
X196792Y17008D01*
X196258D01*
X196125Y16875D01*
Y16475D01*
X196925Y17275D02*
Y17542D01*
Y17408D01*
X196125D01*
X196258Y17275D01*
X196125Y17942D02*
Y18475D01*
X196258D01*
X196792Y17942D01*
X196925D01*
X223418Y13830D02*
Y13030D01*
X223818D01*
X223952Y13163D01*
Y13696D01*
X223818Y13830D01*
X223418D01*
X224218Y13030D02*
X224485D01*
X224351D01*
Y13830D01*
X224218Y13696D01*
X225418Y13830D02*
X225151Y13696D01*
X224885Y13430D01*
Y13163D01*
X225018Y13030D01*
X225284D01*
X225418Y13163D01*
Y13296D01*
X225284Y13430D01*
X224885D01*
X223342Y19519D02*
Y18719D01*
X223742D01*
X223875Y18853D01*
Y19386D01*
X223742Y19519D01*
X223342D01*
X224142Y18719D02*
X224409D01*
X224275D01*
Y19519D01*
X224142Y19386D01*
X225342Y19519D02*
X224808D01*
Y19119D01*
X225075Y19253D01*
X225208D01*
X225342Y19119D01*
Y18853D01*
X225208Y18719D01*
X224942D01*
X224808Y18853D01*
X223342Y25209D02*
Y24409D01*
X223742D01*
X223875Y24542D01*
Y25075D01*
X223742Y25209D01*
X223342D01*
X224142Y24409D02*
X224409D01*
X224275D01*
Y25209D01*
X224142Y25075D01*
X224808D02*
X224942Y25209D01*
X225208D01*
X225342Y25075D01*
Y24942D01*
X225208Y24809D01*
X225075D01*
X225208D01*
X225342Y24676D01*
Y24542D01*
X225208Y24409D01*
X224942D01*
X224808Y24542D01*
X417069Y23044D02*
X417869D01*
Y23444D01*
X417735Y23577D01*
X417202D01*
X417069Y23444D01*
Y23044D01*
X417869Y23844D02*
Y24110D01*
Y23977D01*
X417069D01*
X417202Y23844D01*
X417869Y25043D02*
Y24510D01*
X417335Y25043D01*
X417202D01*
X417069Y24910D01*
Y24644D01*
X417202Y24510D01*
X422534Y27850D02*
Y27050D01*
X422933D01*
X423067Y27183D01*
Y27717D01*
X422933Y27850D01*
X422534D01*
X423333Y27050D02*
X423600D01*
X423467D01*
Y27850D01*
X423333Y27717D01*
X424000Y27050D02*
X424266D01*
X424133D01*
Y27850D01*
X424000Y27717D01*
X177158Y12592D02*
X177025Y12725D01*
X176759D01*
X176625Y12592D01*
Y12058D01*
X176759Y11925D01*
X177025D01*
X177158Y12058D01*
X177425Y11925D02*
X177692D01*
X177558D01*
Y12725D01*
X177425Y12592D01*
X178625Y12725D02*
X178092D01*
Y12325D01*
X178358Y12458D01*
X178491D01*
X178625Y12325D01*
Y12058D01*
X178491Y11925D01*
X178225D01*
X178092Y12058D01*
X206299Y29190D02*
X206165Y29324D01*
X205899D01*
X205765Y29190D01*
Y28657D01*
X205899Y28524D01*
X206165D01*
X206299Y28657D01*
X207098Y29324D02*
X206832Y29190D01*
X206565Y28924D01*
Y28657D01*
X206698Y28524D01*
X206965D01*
X207098Y28657D01*
Y28790D01*
X206965Y28924D01*
X206565D01*
X195567Y28167D02*
X195433Y28300D01*
X195167D01*
X195034Y28167D01*
Y27633D01*
X195167Y27500D01*
X195433D01*
X195567Y27633D01*
X196366Y28300D02*
X195833D01*
Y27900D01*
X196100Y28033D01*
X196233D01*
X196366Y27900D01*
Y27633D01*
X196233Y27500D01*
X195967D01*
X195833Y27633D01*
X139090Y62598D02*
Y61798D01*
Y62064D01*
X139624Y62598D01*
X139224Y62198D01*
X139624Y61798D01*
X139890D02*
X140157D01*
X140023D01*
Y62598D01*
X139890Y62464D01*
D100*
X185923Y80000D02*
G03*
X185923Y80000I-17923J0D01*
G01*
X222923D02*
G03*
X222923Y80000I-17923J0D01*
G01*
X171350Y33611D02*
Y60408D01*
X139473Y33611D02*
Y60408D01*
X171350D01*
X139473Y33611D02*
X171350D01*
D101*
X71989Y23211D02*
X82911D01*
X71989Y43531D02*
X82911D01*
Y23211D02*
Y43531D01*
X71989Y23211D02*
X71989Y43531D01*
X63000Y79766D02*
Y81925D01*
Y84084D01*
Y99950D02*
Y102109D01*
Y97791D02*
Y99950D01*
X45428Y84159D02*
X54572D01*
X45428Y79841D02*
X54572D01*
Y84159D01*
X45428Y79841D02*
Y84159D01*
X50000Y79841D02*
Y84159D01*
X45428Y97841D02*
X54572D01*
X45428Y102159D02*
X54572D01*
X45428Y97841D02*
Y102159D01*
X54572Y97841D02*
Y102159D01*
X50000Y97841D02*
Y102159D01*
Y88841D02*
Y93159D01*
X54572Y88841D02*
Y93159D01*
X45428Y88841D02*
Y93159D01*
X54572D01*
X45428Y88841D02*
X54572D01*
X29428Y93159D02*
X38572D01*
X29428Y88841D02*
X38572D01*
Y93159D01*
X29428Y88841D02*
Y93159D01*
X34000Y88841D02*
Y93159D01*
Y97841D02*
Y102159D01*
X38572Y97841D02*
Y102159D01*
X29428Y97841D02*
Y102159D01*
X38572D01*
X29428Y97841D02*
X38572D01*
X34000Y79841D02*
Y84159D01*
X38572Y79841D02*
Y84159D01*
X29428Y79841D02*
Y84159D01*
X38572D01*
X29428Y79841D02*
X38572D01*
X204746Y66792D02*
Y69331D01*
X204619Y90541D02*
Y93080D01*
X203350Y91811D02*
X205889D01*
X167619Y90541D02*
Y93080D01*
X166350Y91811D02*
X168889D01*
X167746Y66792D02*
Y69331D01*
D102*
X-2834Y65900D02*
Y116600D01*
X21042Y65900D02*
Y116600D01*
X-2834Y65900D02*
X21042D01*
X-2834Y116600D02*
X21042D01*
X67572Y79766D02*
Y84084D01*
X58428Y79766D02*
Y84084D01*
Y79766D02*
X67572D01*
X58428Y84084D02*
X67572D01*
X58428Y97791D02*
Y102109D01*
X67572Y97791D02*
Y102109D01*
X58428D02*
X67572D01*
X58428Y97791D02*
X67572D01*
D103*
X246582Y44604D02*
G03*
X246582Y44604I-13678J0D01*
G01*
X102813Y92428D02*
G03*
X102813Y92428I-15226J0D01*
G01*
X87714Y77329D02*
Y107668D01*
X416681Y61627D02*
Y66453D01*
X414522Y64040D02*
X418840D01*
X416681Y49308D02*
Y53499D01*
D104*
X361825Y95000D02*
G03*
X361825Y95000I-9000J0D01*
G01*
X400150D02*
G03*
X400150Y95000I-9000J0D01*
G01*
X380850D02*
G03*
X380850Y95000I-9000J0D01*
G01*
X269775Y81875D02*
X270575D01*
X270600Y81850D01*
Y111375D01*
X268600D02*
X270600D01*
X262025Y111175D02*
X262700D01*
X262025Y111175D02*
X262025Y111175D01*
X262025Y81900D02*
Y111175D01*
X262000Y81875D02*
X262025Y81900D01*
X262000Y81875D02*
X262875D01*
X218592Y16944D02*
Y24310D01*
X205995Y2015D02*
X206661D01*
X206328Y2348D02*
Y1682D01*
X206994Y1515D02*
X207328D01*
X207161D01*
Y2515D01*
X206994Y2348D01*
X207827D02*
X207994Y2515D01*
X208327D01*
X208494Y2348D01*
Y2182D01*
X208327Y2015D01*
X208494Y1848D01*
Y1682D01*
X208327Y1515D01*
X207994D01*
X207827Y1682D01*
Y1848D01*
X207994Y2015D01*
X207827Y2182D01*
Y2348D01*
X207994Y2015D02*
X208327D01*
X208827Y2515D02*
Y1848D01*
X209160Y1515D01*
X209494Y1848D01*
Y2515D01*
X201175Y2100D02*
X201841D01*
X201508Y2433D02*
Y1767D01*
X202175Y1600D02*
X202508D01*
X202341D01*
Y2600D01*
X202175Y2433D01*
X203008D02*
X203174Y2600D01*
X203508D01*
X203674Y2433D01*
Y2266D01*
X203508Y2100D01*
X203674Y1933D01*
Y1767D01*
X203508Y1600D01*
X203174D01*
X203008Y1767D01*
Y1933D01*
X203174Y2100D01*
X203008Y2266D01*
Y2433D01*
X203174Y2100D02*
X203508D01*
X204007Y2600D02*
Y1933D01*
X204341Y1600D01*
X204674Y1933D01*
Y2600D01*
X211500Y2075D02*
X212166D01*
X211833Y2408D02*
Y1742D01*
X212500Y1575D02*
X212833D01*
X212666D01*
Y2575D01*
X212500Y2408D01*
X213999Y1575D02*
X213333D01*
X213999Y2241D01*
Y2408D01*
X213833Y2575D01*
X213499D01*
X213333Y2408D01*
X214332Y2575D02*
Y1908D01*
X214666Y1575D01*
X214999Y1908D01*
Y2575D01*
X196891Y2383D02*
X196725Y2550D01*
X196392D01*
X196225Y2383D01*
Y1717D01*
X196392Y1550D01*
X196725D01*
X196891Y1717D01*
Y2050D01*
X196558D01*
X197225Y1550D02*
Y2550D01*
X197891Y1550D01*
Y2550D01*
X198224D02*
Y1550D01*
X198724D01*
X198891Y1717D01*
Y2383D01*
X198724Y2550D01*
X198224D01*
X217391Y2558D02*
X217225Y2725D01*
X216892D01*
X216725Y2558D01*
Y1892D01*
X216892Y1725D01*
X217225D01*
X217391Y1892D01*
Y2225D01*
X217058D01*
X217725Y1725D02*
Y2725D01*
X218391Y1725D01*
Y2725D01*
X218724D02*
Y1725D01*
X219224D01*
X219391Y1892D01*
Y2558D01*
X219224Y2725D01*
X218724D01*
X108362Y2166D02*
X108195Y2000D01*
Y1667D01*
X108362Y1500D01*
X109028D01*
X109195Y1667D01*
Y2000D01*
X109028Y2166D01*
X108695D01*
Y1833D01*
X109195Y2500D02*
X108195D01*
X109195Y3166D01*
X108195D01*
Y3499D02*
X109195D01*
Y3999D01*
X109028Y4166D01*
X108362D01*
X108195Y3999D01*
Y3499D01*
X105634Y1316D02*
Y650D01*
X106134D01*
Y983D01*
Y650D01*
X106633D01*
Y1650D02*
X105967D01*
X105634Y1983D01*
X105967Y2316D01*
X106633D01*
X106134D01*
Y1650D01*
X106633Y2649D02*
X105634D01*
X106633Y3316D01*
X105634D01*
X106800Y3649D02*
Y4315D01*
X106633Y4649D02*
Y4982D01*
Y4815D01*
X105634D01*
X105800Y4649D01*
X102934Y1191D02*
Y525D01*
X103434D01*
Y858D01*
Y525D01*
X103933D01*
X102934Y1525D02*
X103933D01*
Y2025D01*
X103767Y2191D01*
X103100D01*
X102934Y2025D01*
Y1525D01*
Y2524D02*
X103933D01*
Y3024D01*
X103767Y3191D01*
X103600D01*
X103434Y3024D01*
Y2524D01*
Y3024D01*
X103267Y3191D01*
X103100D01*
X102934Y3024D01*
Y2524D01*
X104100Y3524D02*
Y4190D01*
X103933Y5190D02*
Y4524D01*
X103267Y5190D01*
X103100D01*
X102934Y5024D01*
Y4690D01*
X103100Y4524D01*
X100359Y1216D02*
Y550D01*
X100859D01*
Y883D01*
Y550D01*
X101358D01*
X100359Y1550D02*
X101358D01*
Y2050D01*
X101192Y2216D01*
X100525D01*
X100359Y2050D01*
Y1550D01*
Y2549D02*
X101358D01*
Y3049D01*
X101192Y3216D01*
X101025D01*
X100859Y3049D01*
Y2549D01*
Y3049D01*
X100692Y3216D01*
X100525D01*
X100359Y3049D01*
Y2549D01*
X101525Y3549D02*
Y4215D01*
X101358Y4549D02*
Y4882D01*
Y4715D01*
X100359D01*
X100525Y4549D01*
X91736Y2166D02*
Y1500D01*
X92236D01*
Y1833D01*
Y1500D01*
X92736D01*
Y2500D02*
X92069D01*
X91736Y2833D01*
X92069Y3166D01*
X92736D01*
X92236D01*
Y2500D01*
X92736Y3499D02*
X91736D01*
X92736Y4166D01*
X91736D01*
X89696Y1500D02*
Y2166D01*
X89363Y1833D02*
X90029D01*
X90196Y2500D02*
Y2833D01*
Y2666D01*
X89196D01*
X89363Y2500D01*
X90196Y3999D02*
Y3333D01*
X89529Y3999D01*
X89363D01*
X89196Y3833D01*
Y3499D01*
X89363Y3333D01*
X89196Y4332D02*
X89862D01*
X90196Y4666D01*
X89862Y4999D01*
X89196D01*
X87656Y1500D02*
X86656D01*
Y2000D01*
X86823Y2166D01*
X87156D01*
X87322Y2000D01*
Y1500D01*
X86656Y2500D02*
X87656D01*
X87322Y2833D01*
X87656Y3166D01*
X86656D01*
X87656Y3499D02*
X86656D01*
Y3999D01*
X86823Y4166D01*
X87156D01*
X87322Y3999D01*
Y3499D01*
Y3833D02*
X87656Y4166D01*
X84091Y1500D02*
X85090D01*
Y2166D01*
X84091Y3000D02*
Y2666D01*
X84257Y2500D01*
X84924D01*
X85090Y2666D01*
Y3000D01*
X84924Y3166D01*
X84257D01*
X84091Y3000D01*
X85090Y3499D02*
X84424D01*
X84091Y3833D01*
X84424Y4166D01*
X85090D01*
X84590D01*
Y3499D01*
X84091Y4499D02*
X85090D01*
Y4999D01*
X84924Y5165D01*
X84257D01*
X84091Y4999D01*
Y4499D01*
X110826Y2166D02*
X110659Y2000D01*
Y1667D01*
X110826Y1500D01*
X111492D01*
X111659Y1667D01*
Y2000D01*
X111492Y2166D01*
X111159D01*
Y1833D01*
X111659Y2500D02*
X110659D01*
X111659Y3166D01*
X110659D01*
Y3499D02*
X111659D01*
Y3999D01*
X111492Y4166D01*
X110826D01*
X110659Y3999D01*
Y3499D01*
X98126Y2166D02*
X97959Y2000D01*
Y1667D01*
X98126Y1500D01*
X98792D01*
X98959Y1667D01*
Y2000D01*
X98792Y2166D01*
X98459D01*
Y1833D01*
X98959Y2500D02*
X97959D01*
X98959Y3166D01*
X97959D01*
Y3499D02*
X98959D01*
Y3999D01*
X98792Y4166D01*
X98126D01*
X97959Y3999D01*
Y3499D01*
X94443Y2166D02*
X94276Y2000D01*
Y1667D01*
X94443Y1500D01*
X95109D01*
X95276Y1667D01*
Y2000D01*
X95109Y2166D01*
X94776D01*
Y1833D01*
X95276Y2500D02*
X94276D01*
X95276Y3166D01*
X94276D01*
Y3499D02*
X95276D01*
Y3999D01*
X95109Y4166D01*
X94443D01*
X94276Y3999D01*
Y3499D01*
X81743Y2166D02*
X81576Y2000D01*
Y1667D01*
X81743Y1500D01*
X82409D01*
X82576Y1667D01*
Y2000D01*
X82409Y2166D01*
X82076D01*
Y1833D01*
X82576Y2500D02*
X81576D01*
X82576Y3166D01*
X81576D01*
Y3499D02*
X82576D01*
Y3999D01*
X82409Y4166D01*
X81743D01*
X81576Y3999D01*
Y3499D01*
X62575Y3325D02*
X63241D01*
X62908Y3658D02*
Y2992D01*
X65574Y3325D02*
X66240D01*
X123525Y2150D02*
Y3150D01*
X124191Y2150D01*
Y3150D01*
X124525D02*
X125191D01*
X124858D01*
Y2150D01*
X126191Y2983D02*
X126024Y3150D01*
X125691D01*
X125524Y2983D01*
Y2317D01*
X125691Y2150D01*
X126024D01*
X126191Y2317D01*
X64066Y1875D02*
X63400D01*
Y1375D01*
X63733D01*
X63400D01*
Y875D01*
X64400D02*
Y1541D01*
X64733Y1875D01*
X65066Y1541D01*
Y875D01*
Y1375D01*
X64400D01*
X65399Y875D02*
Y1875D01*
X66066Y875D01*
Y1875D01*
X98846Y16550D02*
X99846D01*
Y17050D01*
X99679Y17217D01*
X99013D01*
X98846Y17050D01*
Y16550D01*
X99846Y17550D02*
Y17883D01*
Y17717D01*
X98846D01*
X99013Y17550D01*
Y18383D02*
X98846Y18550D01*
Y18883D01*
X99013Y19050D01*
X99179D01*
X99346Y18883D01*
X99512Y19050D01*
X99679D01*
X99846Y18883D01*
Y18550D01*
X99679Y18383D01*
X99512D01*
X99346Y18550D01*
X99179Y18383D01*
X99013D01*
X99346Y18550D02*
Y18883D01*
X384308Y103217D02*
X384475Y103050D01*
X384808D01*
X384975Y103217D01*
Y103883D01*
X384808Y104050D01*
X384475D01*
X384308Y103883D01*
X383975Y104050D02*
X383642D01*
X383808D01*
Y103050D01*
X383975Y103217D01*
X382642Y104050D02*
Y103050D01*
X383142Y103550D01*
X382475D01*
X205441Y14537D02*
X205108D01*
X205275D01*
Y13704D01*
X205108Y13538D01*
X204941D01*
X204775Y13704D01*
X205774Y13538D02*
X206108D01*
X205941D01*
Y14537D01*
X205774Y14371D01*
X206608D02*
X206774Y14537D01*
X207107D01*
X207274Y14371D01*
Y13704D01*
X207107Y13538D01*
X206774D01*
X206608Y13704D01*
Y14371D01*
X421707Y56860D02*
X421541Y56693D01*
Y56360D01*
X421707Y56194D01*
X422374D01*
X422540Y56360D01*
Y56693D01*
X422374Y56860D01*
X422540Y57193D02*
X421541D01*
X422540Y57860D01*
X421541D01*
X422540Y58193D02*
Y58526D01*
Y58359D01*
X421541D01*
X421707Y58193D01*
X76984Y45925D02*
Y45258D01*
X77317Y44925D01*
X77650Y45258D01*
Y45925D01*
X77983D02*
X78650D01*
X78317D01*
Y44925D01*
X78983D02*
X79316D01*
X79150D01*
Y45925D01*
X78983Y45758D01*
X218916Y97766D02*
X218750Y97599D01*
Y97266D01*
X218916Y97099D01*
X219583D01*
X219749Y97266D01*
Y97599D01*
X219583Y97766D01*
X218916Y98099D02*
X218750Y98266D01*
Y98599D01*
X218916Y98765D01*
X219083D01*
X219249Y98599D01*
X219416Y98765D01*
X219583D01*
X219749Y98599D01*
Y98266D01*
X219583Y98099D01*
X219416D01*
X219249Y98266D01*
X219083Y98099D01*
X218916D01*
X219249Y98266D02*
Y98599D01*
X120092Y32150D02*
X120759D01*
X120425D01*
Y31150D01*
X121092D02*
Y32150D01*
X121592D01*
X121758Y31983D01*
Y31650D01*
X121592Y31483D01*
X121092D01*
X122092Y31983D02*
X122258Y32150D01*
X122591D01*
X122758Y31983D01*
Y31817D01*
X122591Y31650D01*
X122425D01*
X122591D01*
X122758Y31483D01*
Y31317D01*
X122591Y31150D01*
X122258D01*
X122092Y31317D01*
X123091D02*
X123258Y31150D01*
X123591D01*
X123758Y31317D01*
Y31983D01*
X123591Y32150D01*
X123258D01*
X123091Y31983D01*
Y31817D01*
X123258Y31650D01*
X123758D01*
X104893Y19235D02*
X105560D01*
X105226D01*
Y18236D01*
X105893D02*
Y19235D01*
X106393D01*
X106559Y19069D01*
Y18735D01*
X106393Y18569D01*
X105893D01*
X106892Y19069D02*
X107059Y19235D01*
X107392D01*
X107559Y19069D01*
Y18902D01*
X107392Y18735D01*
X107226D01*
X107392D01*
X107559Y18569D01*
Y18402D01*
X107392Y18236D01*
X107059D01*
X106892Y18402D01*
X107892Y19069D02*
X108059Y19235D01*
X108392D01*
X108559Y19069D01*
Y18902D01*
X108392Y18735D01*
X108559Y18569D01*
Y18402D01*
X108392Y18236D01*
X108059D01*
X107892Y18402D01*
Y18569D01*
X108059Y18735D01*
X107892Y18902D01*
Y19069D01*
X108059Y18735D02*
X108392D01*
X119622Y23965D02*
X120289D01*
X119955D01*
Y22965D01*
X120622D02*
Y23965D01*
X121122D01*
X121288Y23798D01*
Y23465D01*
X121122Y23298D01*
X120622D01*
X121621Y23798D02*
X121788Y23965D01*
X122121D01*
X122288Y23798D01*
Y23632D01*
X122121Y23465D01*
X121955D01*
X122121D01*
X122288Y23298D01*
Y23132D01*
X122121Y22965D01*
X121788D01*
X121621Y23132D01*
X122621Y23965D02*
X123288D01*
Y23798D01*
X122621Y23132D01*
Y22965D01*
X111739Y17034D02*
X112406D01*
X112073D01*
Y16035D01*
X112739D02*
Y17034D01*
X113239D01*
X113406Y16868D01*
Y16535D01*
X113239Y16368D01*
X112739D01*
X113739Y16868D02*
X113905Y17034D01*
X114239D01*
X114405Y16868D01*
Y16701D01*
X114239Y16535D01*
X114072D01*
X114239D01*
X114405Y16368D01*
Y16201D01*
X114239Y16035D01*
X113905D01*
X113739Y16201D01*
X115405Y17034D02*
X115072Y16868D01*
X114738Y16535D01*
Y16201D01*
X114905Y16035D01*
X115238D01*
X115405Y16201D01*
Y16368D01*
X115238Y16535D01*
X114738D01*
X75542Y9625D02*
X76209D01*
X75875D01*
Y8625D01*
X76542D02*
Y9625D01*
X77042D01*
X77208Y9458D01*
Y9125D01*
X77042Y8958D01*
X76542D01*
X77542Y9458D02*
X77708Y9625D01*
X78041D01*
X78208Y9458D01*
Y9292D01*
X78041Y9125D01*
X77875D01*
X78041D01*
X78208Y8958D01*
Y8792D01*
X78041Y8625D01*
X77708D01*
X77542Y8792D01*
X79208Y9625D02*
X78541D01*
Y9125D01*
X78875Y9292D01*
X79041D01*
X79208Y9125D01*
Y8792D01*
X79041Y8625D01*
X78708D01*
X78541Y8792D01*
X67792Y21850D02*
X68459D01*
X68125D01*
Y20850D01*
X68792D02*
Y21850D01*
X69292D01*
X69458Y21683D01*
Y21350D01*
X69292Y21183D01*
X68792D01*
X69792Y21683D02*
X69958Y21850D01*
X70291D01*
X70458Y21683D01*
Y21517D01*
X70291Y21350D01*
X70125D01*
X70291D01*
X70458Y21183D01*
Y21017D01*
X70291Y20850D01*
X69958D01*
X69792Y21017D01*
X71291Y20850D02*
Y21850D01*
X70791Y21350D01*
X71458D01*
X119516Y21359D02*
X120182D01*
X119849D01*
Y20360D01*
X120515D02*
Y21359D01*
X121015D01*
X121182Y21193D01*
Y20860D01*
X121015Y20693D01*
X120515D01*
X121515Y21193D02*
X121682Y21359D01*
X122015D01*
X122181Y21193D01*
Y21026D01*
X122015Y20860D01*
X121848D01*
X122015D01*
X122181Y20693D01*
Y20526D01*
X122015Y20360D01*
X121682D01*
X121515Y20526D01*
X122515Y21193D02*
X122681Y21359D01*
X123015D01*
X123181Y21193D01*
Y21026D01*
X123015Y20860D01*
X122848D01*
X123015D01*
X123181Y20693D01*
Y20526D01*
X123015Y20360D01*
X122681D01*
X122515Y20526D01*
X119419Y18402D02*
X120085D01*
X119752D01*
Y17403D01*
X120419D02*
Y18402D01*
X120918D01*
X121085Y18236D01*
Y17902D01*
X120918Y17736D01*
X120419D01*
X121418Y18236D02*
X121585Y18402D01*
X121918D01*
X122085Y18236D01*
Y18069D01*
X121918Y17902D01*
X121751D01*
X121918D01*
X122085Y17736D01*
Y17569D01*
X121918Y17403D01*
X121585D01*
X121418Y17569D01*
X123084Y17403D02*
X122418D01*
X123084Y18069D01*
Y18236D01*
X122918Y18402D01*
X122585D01*
X122418Y18236D01*
X317744Y6546D02*
X318411D01*
X318078D01*
Y5546D01*
X318744D02*
Y6546D01*
X319244D01*
X319411Y6379D01*
Y6046D01*
X319244Y5880D01*
X318744D01*
X319744Y6379D02*
X319910Y6546D01*
X320244D01*
X320410Y6379D01*
Y6213D01*
X320244Y6046D01*
X320077D01*
X320244D01*
X320410Y5880D01*
Y5713D01*
X320244Y5546D01*
X319910D01*
X319744Y5713D01*
X320743Y5546D02*
X321077D01*
X320910D01*
Y6546D01*
X320743Y6379D01*
X318617Y85100D02*
X319284D01*
X318950D01*
Y84100D01*
X319617D02*
Y85100D01*
X320117D01*
X320283Y84933D01*
Y84600D01*
X320117Y84433D01*
X319617D01*
X320617Y84933D02*
X320783Y85100D01*
X321116D01*
X321283Y84933D01*
Y84767D01*
X321116Y84600D01*
X320950D01*
X321116D01*
X321283Y84433D01*
Y84267D01*
X321116Y84100D01*
X320783D01*
X320617Y84267D01*
X321616Y84933D02*
X321783Y85100D01*
X322116D01*
X322283Y84933D01*
Y84267D01*
X322116Y84100D01*
X321783D01*
X321616Y84267D01*
Y84933D01*
X241592Y70175D02*
X242259D01*
X241925D01*
Y69175D01*
X242592D02*
Y70175D01*
X243092D01*
X243258Y70008D01*
Y69675D01*
X243092Y69508D01*
X242592D01*
X244258Y69175D02*
X243592D01*
X244258Y69842D01*
Y70008D01*
X244091Y70175D01*
X243758D01*
X243592Y70008D01*
X244591D02*
X244758Y70175D01*
X245091D01*
X245258Y70008D01*
Y69842D01*
X245091Y69675D01*
X244925D01*
X245091D01*
X245258Y69508D01*
Y69342D01*
X245091Y69175D01*
X244758D01*
X244591Y69342D01*
X334742Y2725D02*
X335409D01*
X335075D01*
Y1725D01*
X335742D02*
Y2725D01*
X336242D01*
X336408Y2558D01*
Y2225D01*
X336242Y2058D01*
X335742D01*
X337408Y1725D02*
X336742D01*
X337408Y2392D01*
Y2558D01*
X337241Y2725D01*
X336908D01*
X336742Y2558D01*
X338408Y1725D02*
X337741D01*
X338408Y2392D01*
Y2558D01*
X338241Y2725D01*
X337908D01*
X337741Y2558D01*
X104882Y15473D02*
X105549D01*
X105215D01*
Y14473D01*
X105882D02*
Y15473D01*
X106382D01*
X106548Y15306D01*
Y14973D01*
X106382Y14806D01*
X105882D01*
X107548Y14473D02*
X106882D01*
X107548Y15140D01*
Y15306D01*
X107381Y15473D01*
X107048D01*
X106882Y15306D01*
X107881Y14473D02*
X108215D01*
X108048D01*
Y15473D01*
X107881Y15306D01*
X102470Y12969D02*
X103136D01*
X102803D01*
Y11969D01*
X103469D02*
Y12969D01*
X103969D01*
X104136Y12802D01*
Y12469D01*
X103969Y12302D01*
X103469D01*
X105135Y11969D02*
X104469D01*
X105135Y12636D01*
Y12802D01*
X104969Y12969D01*
X104636D01*
X104469Y12802D01*
X105469D02*
X105635Y12969D01*
X105969D01*
X106135Y12802D01*
Y12136D01*
X105969Y11969D01*
X105635D01*
X105469Y12136D01*
Y12802D01*
X244476Y55100D02*
X245142D01*
X244809D01*
Y54100D01*
X245475D02*
Y55100D01*
X245975D01*
X246142Y54933D01*
Y54600D01*
X245975Y54433D01*
X245475D01*
X246475Y54100D02*
X246808D01*
X246642D01*
Y55100D01*
X246475Y54933D01*
X247308D02*
X247475Y55100D01*
X247808D01*
X247974Y54933D01*
Y54767D01*
X247808Y54600D01*
X247974Y54433D01*
Y54267D01*
X247808Y54100D01*
X247475D01*
X247308Y54267D01*
Y54433D01*
X247475Y54600D01*
X247308Y54767D01*
Y54933D01*
X247475Y54600D02*
X247808D01*
X65401Y26825D02*
X66067D01*
X65734D01*
Y25825D01*
X66400D02*
Y26825D01*
X66900D01*
X67067Y26658D01*
Y26325D01*
X66900Y26158D01*
X66400D01*
X67400Y25825D02*
X67733D01*
X67567D01*
Y26825D01*
X67400Y26658D01*
X68233Y26825D02*
X68899D01*
Y26658D01*
X68233Y25992D01*
Y25825D01*
X238876Y28575D02*
X239542D01*
X239209D01*
Y27575D01*
X239875D02*
Y28575D01*
X240375D01*
X240542Y28408D01*
Y28075D01*
X240375Y27908D01*
X239875D01*
X240875Y27575D02*
X241208D01*
X241042D01*
Y28575D01*
X240875Y28408D01*
X242374Y28575D02*
X242041Y28408D01*
X241708Y28075D01*
Y27742D01*
X241875Y27575D01*
X242208D01*
X242374Y27742D01*
Y27908D01*
X242208Y28075D01*
X241708D01*
X96074Y39082D02*
X96740D01*
X96407D01*
Y38082D01*
X97074D02*
Y39082D01*
X97573D01*
X97740Y38915D01*
Y38582D01*
X97573Y38415D01*
X97074D01*
X98073Y38082D02*
X98407D01*
X98240D01*
Y39082D01*
X98073Y38915D01*
X99573Y39082D02*
X98906D01*
Y38582D01*
X99240Y38749D01*
X99406D01*
X99573Y38582D01*
Y38249D01*
X99406Y38082D01*
X99073D01*
X98906Y38249D01*
X222945Y28761D02*
X223611D01*
X223278D01*
Y27762D01*
X223944D02*
Y28761D01*
X224444D01*
X224611Y28595D01*
Y28262D01*
X224444Y28095D01*
X223944D01*
X224944Y27762D02*
X225277D01*
X225111D01*
Y28761D01*
X224944Y28595D01*
X226277Y27762D02*
Y28761D01*
X225777Y28262D01*
X226443D01*
X137251Y22875D02*
X137917D01*
X137584D01*
Y21875D01*
X138250D02*
Y22875D01*
X138750D01*
X138917Y22708D01*
Y22375D01*
X138750Y22208D01*
X138250D01*
X139250Y21875D02*
X139583D01*
X139417D01*
Y22875D01*
X139250Y22708D01*
X140083D02*
X140250Y22875D01*
X140583D01*
X140749Y22708D01*
Y22542D01*
X140583Y22375D01*
X140416D01*
X140583D01*
X140749Y22208D01*
Y22042D01*
X140583Y21875D01*
X140250D01*
X140083Y22042D01*
X118973Y111187D02*
X119639D01*
X119306D01*
Y110187D01*
X119972D02*
Y111187D01*
X120472D01*
X120639Y111020D01*
Y110687D01*
X120472Y110520D01*
X119972D01*
X120972Y110187D02*
X121305D01*
X121139D01*
Y111187D01*
X120972Y111020D01*
X122472Y110187D02*
X121805D01*
X122472Y110854D01*
Y111020D01*
X122305Y111187D01*
X121972D01*
X121805Y111020D01*
X72942Y52450D02*
X73609D01*
X73275D01*
Y51450D01*
X73942D02*
Y52450D01*
X74442D01*
X74608Y52283D01*
Y51950D01*
X74442Y51783D01*
X73942D01*
X74942Y51450D02*
X75275D01*
X75108D01*
Y52450D01*
X74942Y52283D01*
X75775Y51450D02*
X76108D01*
X75941D01*
Y52450D01*
X75775Y52283D01*
X72762Y62574D02*
X73428D01*
X73095D01*
Y61574D01*
X73762D02*
Y62574D01*
X74261D01*
X74428Y62407D01*
Y62074D01*
X74261Y61908D01*
X73762D01*
X74761Y62574D02*
X75428D01*
Y62407D01*
X74761Y61741D01*
Y61574D01*
X99236Y59782D02*
X99902D01*
X99569D01*
Y58782D01*
X100235D02*
Y59782D01*
X100735D01*
X100902Y59615D01*
Y59282D01*
X100735Y59116D01*
X100235D01*
X101901Y59782D02*
X101568Y59615D01*
X101235Y59282D01*
Y58949D01*
X101402Y58782D01*
X101735D01*
X101901Y58949D01*
Y59116D01*
X101735Y59282D01*
X101235D01*
X81367Y55525D02*
X82034D01*
X81700D01*
Y54525D01*
X82367D02*
Y55525D01*
X82867D01*
X83033Y55358D01*
Y55025D01*
X82867Y54858D01*
X82367D01*
X84033Y55525D02*
X83366D01*
Y55025D01*
X83700Y55192D01*
X83866D01*
X84033Y55025D01*
Y54692D01*
X83866Y54525D01*
X83533D01*
X83366Y54692D01*
X86742Y57325D02*
X87409D01*
X87075D01*
Y56325D01*
X87742D02*
Y57325D01*
X88242D01*
X88408Y57158D01*
Y56825D01*
X88242Y56658D01*
X87742D01*
X89241Y56325D02*
Y57325D01*
X88741Y56825D01*
X89408D01*
X96637Y34471D02*
X97304D01*
X96971D01*
Y33472D01*
X97637D02*
Y34471D01*
X98137D01*
X98303Y34305D01*
Y33971D01*
X98137Y33805D01*
X97637D01*
X98637Y34305D02*
X98803Y34471D01*
X99136D01*
X99303Y34305D01*
Y34138D01*
X99136Y33971D01*
X98970D01*
X99136D01*
X99303Y33805D01*
Y33638D01*
X99136Y33472D01*
X98803D01*
X98637Y33638D01*
X75734Y60136D02*
X76400D01*
X76067D01*
Y59136D01*
X76733D02*
Y60136D01*
X77233D01*
X77400Y59969D01*
Y59636D01*
X77233Y59469D01*
X76733D01*
X78399Y59136D02*
X77733D01*
X78399Y59802D01*
Y59969D01*
X78233Y60136D01*
X77900D01*
X77733Y59969D01*
X72624Y57545D02*
X73290D01*
X72957D01*
Y56545D01*
X73623D02*
Y57545D01*
X74123D01*
X74290Y57378D01*
Y57045D01*
X74123Y56878D01*
X73623D01*
X74623Y56545D02*
X74956D01*
X74790D01*
Y57545D01*
X74623Y57378D01*
X339334Y116074D02*
Y115407D01*
X339668Y115074D01*
X340001Y115407D01*
Y116074D01*
X340334D02*
Y115074D01*
X340834D01*
X341000Y115241D01*
Y115907D01*
X340834Y116074D01*
X340334D01*
X341334Y115074D02*
X341667D01*
X341500D01*
Y116074D01*
X341334Y115907D01*
X228667Y92092D02*
X228500Y91925D01*
Y91592D01*
X228667Y91425D01*
X229333D01*
X229500Y91592D01*
Y91925D01*
X229333Y92092D01*
X229500Y92425D02*
Y92758D01*
Y92592D01*
X228500D01*
X228667Y92425D01*
Y93258D02*
X228500Y93425D01*
Y93758D01*
X228667Y93925D01*
X228833D01*
X229000Y93758D01*
Y93591D01*
Y93758D01*
X229167Y93925D01*
X229333D01*
X229500Y93758D01*
Y93425D01*
X229333Y93258D01*
X182348Y97400D02*
X182181Y97233D01*
Y96900D01*
X182348Y96734D01*
X183014D01*
X183181Y96900D01*
Y97233D01*
X183014Y97400D01*
X183181Y97733D02*
Y98067D01*
Y97900D01*
X182181D01*
X182348Y97733D01*
X183181Y99233D02*
Y98566D01*
X182515Y99233D01*
X182348D01*
X182181Y99066D01*
Y98733D01*
X182348Y98566D01*
X65642Y40984D02*
X66308Y41650D01*
Y40984D02*
X65642Y41650D01*
X65975Y40984D02*
Y41650D01*
X66308Y41317D02*
X65642D01*
X66475Y41984D02*
X65475D01*
Y42484D01*
X65642Y42650D01*
X65975D01*
X66142Y42484D01*
Y41984D01*
X65475Y42983D02*
X66475D01*
X66142Y43317D01*
X66475Y43650D01*
X65475D01*
X66475Y43983D02*
X65475D01*
X65808Y44316D01*
X65475Y44650D01*
X66475D01*
Y44983D02*
Y45316D01*
Y45149D01*
X65475D01*
X65642Y44983D01*
X263108Y112583D02*
X262942Y112750D01*
X262609D01*
X262442Y112583D01*
Y111917D01*
X262609Y111750D01*
X262942D01*
X263108Y111917D01*
X263442Y111750D02*
X263775D01*
X263608D01*
Y112750D01*
X263442Y112583D01*
X264275Y111750D02*
X264608D01*
X264441D01*
Y112750D01*
X264275Y112583D01*
X228617Y108492D02*
X228450Y108325D01*
Y107992D01*
X228617Y107825D01*
X229283D01*
X229450Y107992D01*
Y108325D01*
X229283Y108492D01*
X229450Y108825D02*
Y109158D01*
Y108992D01*
X228450D01*
X228617Y108825D01*
Y109658D02*
X228450Y109825D01*
Y110158D01*
X228617Y110325D01*
X229283D01*
X229450Y110158D01*
Y109825D01*
X229283Y109658D01*
X228617D01*
X93080Y16634D02*
X94080D01*
Y17134D01*
X93913Y17300D01*
X93247D01*
X93080Y17134D01*
Y16634D01*
X94080Y18300D02*
Y17633D01*
X93413Y18300D01*
X93247D01*
X93080Y18133D01*
Y17800D01*
X93247Y17633D01*
X94080Y18633D02*
Y18966D01*
Y18800D01*
X93080D01*
X93247Y18633D01*
X94267Y12200D02*
Y13200D01*
X94767D01*
X94933Y13033D01*
Y12700D01*
X94767Y12533D01*
X94267D01*
X95933Y12200D02*
X95267D01*
X95933Y12867D01*
Y13033D01*
X95766Y13200D01*
X95433D01*
X95267Y13033D01*
X111409Y12200D02*
Y13200D01*
X111908D01*
X112075Y13033D01*
Y12700D01*
X111908Y12533D01*
X111409D01*
X112408Y12200D02*
X112741D01*
X112575D01*
Y13200D01*
X112408Y13033D01*
X182586Y56808D02*
X181587D01*
Y57308D01*
X181753Y57475D01*
X182087D01*
X182253Y57308D01*
Y56808D01*
Y57141D02*
X182586Y57475D01*
X181753Y57808D02*
X181587Y57974D01*
Y58308D01*
X181753Y58474D01*
X181920D01*
X182087Y58308D01*
Y58141D01*
Y58308D01*
X182253Y58474D01*
X182420D01*
X182586Y58308D01*
Y57974D01*
X182420Y57808D01*
X181587Y59474D02*
Y58807D01*
X182087D01*
X181920Y59141D01*
Y59307D01*
X182087Y59474D01*
X182420D01*
X182586Y59307D01*
Y58974D01*
X182420Y58807D01*
X194312Y56782D02*
X193313D01*
Y57282D01*
X193479Y57448D01*
X193812D01*
X193979Y57282D01*
Y56782D01*
Y57115D02*
X194312Y57448D01*
X193479Y57782D02*
X193313Y57948D01*
Y58281D01*
X193479Y58448D01*
X193646D01*
X193812Y58281D01*
Y58115D01*
Y58281D01*
X193979Y58448D01*
X194146D01*
X194312Y58281D01*
Y57948D01*
X194146Y57782D01*
X194312Y59281D02*
X193313D01*
X193812Y58781D01*
Y59448D01*
X210408Y59892D02*
X210575Y60058D01*
Y60391D01*
X210408Y60558D01*
X209742D01*
X209575Y60391D01*
Y60058D01*
X209742Y59892D01*
Y59558D02*
X209575Y59392D01*
Y59059D01*
X209742Y58892D01*
X210408D01*
X210575Y59059D01*
Y59392D01*
X210408Y59558D01*
X210242D01*
X210075Y59392D01*
Y58892D01*
X113639Y78572D02*
Y79571D01*
X114139D01*
X114305Y79405D01*
Y79071D01*
X114139Y78905D01*
X113639D01*
X113972D02*
X114305Y78572D01*
X115305D02*
X114639D01*
X115305Y79238D01*
Y79405D01*
X115138Y79571D01*
X114805D01*
X114639Y79405D01*
X116305Y79571D02*
X115971Y79405D01*
X115638Y79071D01*
Y78738D01*
X115805Y78572D01*
X116138D01*
X116305Y78738D01*
Y78905D01*
X116138Y79071D01*
X115638D01*
X111176Y39903D02*
Y40903D01*
X111676D01*
X111842Y40736D01*
Y40403D01*
X111676Y40236D01*
X111176D01*
X111509D02*
X111842Y39903D01*
X112176D02*
X112509D01*
X112342D01*
Y40903D01*
X112176Y40736D01*
X113009Y40070D02*
X113175Y39903D01*
X113509D01*
X113675Y40070D01*
Y40736D01*
X113509Y40903D01*
X113175D01*
X113009Y40736D01*
Y40569D01*
X113175Y40403D01*
X113675D01*
X128683Y13425D02*
X128350D01*
X128517D01*
Y12592D01*
X128350Y12425D01*
X128184D01*
X128017Y12592D01*
X129017Y13258D02*
X129183Y13425D01*
X129516D01*
X129683Y13258D01*
Y13092D01*
X129516Y12925D01*
X129350D01*
X129516D01*
X129683Y12758D01*
Y12592D01*
X129516Y12425D01*
X129183D01*
X129017Y12592D01*
X70481Y5413D02*
X70147D01*
X70314D01*
Y4580D01*
X70147Y4414D01*
X69981D01*
X69814Y4580D01*
X71480Y4414D02*
X70814D01*
X71480Y5080D01*
Y5247D01*
X71314Y5413D01*
X70980D01*
X70814Y5247D01*
X366242Y103642D02*
X366408Y103475D01*
X366741D01*
X366908Y103642D01*
Y104308D01*
X366741Y104475D01*
X366408D01*
X366242Y104308D01*
X365242Y104475D02*
X365908D01*
X365242Y103808D01*
Y103642D01*
X365409Y103475D01*
X365742D01*
X365908Y103642D01*
X371591Y116269D02*
Y115603D01*
X371925Y115269D01*
X372258Y115603D01*
Y116269D01*
X372591D02*
Y115269D01*
X373091D01*
X373258Y115436D01*
Y116102D01*
X373091Y116269D01*
X372591D01*
X374257Y115269D02*
X373591D01*
X374257Y115936D01*
Y116102D01*
X374091Y116269D01*
X373757D01*
X373591Y116102D01*
X106071Y39903D02*
Y40903D01*
X106570D01*
X106737Y40736D01*
Y40403D01*
X106570Y40236D01*
X106071D01*
X106404D02*
X106737Y39903D01*
X107070D02*
X107404D01*
X107237D01*
Y40903D01*
X107070Y40736D01*
X108403Y39903D02*
Y40903D01*
X107903Y40403D01*
X108570D01*
X100965Y39903D02*
Y40903D01*
X101465D01*
X101632Y40736D01*
Y40403D01*
X101465Y40236D01*
X100965D01*
X101298D02*
X101632Y39903D01*
X101965Y40736D02*
X102131Y40903D01*
X102465D01*
X102631Y40736D01*
Y40569D01*
X102465Y40403D01*
X102631Y40236D01*
Y40070D01*
X102465Y39903D01*
X102131D01*
X101965Y40070D01*
Y40236D01*
X102131Y40403D01*
X101965Y40569D01*
Y40736D01*
X102131Y40403D02*
X102465D01*
X76795Y78814D02*
X76962Y78980D01*
Y79313D01*
X76795Y79480D01*
X76129D01*
X75962Y79313D01*
Y78980D01*
X76129Y78814D01*
X75962Y78480D02*
Y78147D01*
Y78314D01*
X76962D01*
X76795Y78480D01*
X122867Y115000D02*
Y114000D01*
X123367D01*
X123533Y114167D01*
Y114833D01*
X123367Y115000D01*
X122867D01*
X124366Y114000D02*
Y115000D01*
X123867Y114500D01*
X124533D01*
X90517Y115775D02*
Y114775D01*
X91017D01*
X91183Y114942D01*
Y115608D01*
X91017Y115775D01*
X90517D01*
X91517Y115608D02*
X91683Y115775D01*
X92016D01*
X92183Y115608D01*
Y115442D01*
X92016Y115275D01*
X91850D01*
X92016D01*
X92183Y115108D01*
Y114942D01*
X92016Y114775D01*
X91683D01*
X91517Y114942D01*
X58117Y115250D02*
Y114250D01*
X58617D01*
X58783Y114417D01*
Y115083D01*
X58617Y115250D01*
X58117D01*
X59783Y114250D02*
X59117D01*
X59783Y114917D01*
Y115083D01*
X59616Y115250D01*
X59283D01*
X59117Y115083D01*
X25759Y115725D02*
Y114725D01*
X26258D01*
X26425Y114892D01*
Y115558D01*
X26258Y115725D01*
X25759D01*
X26758Y114725D02*
X27091D01*
X26925D01*
Y115725D01*
X26758Y115558D01*
X139333Y78368D02*
Y79368D01*
X139832D01*
X139999Y79201D01*
Y78868D01*
X139832Y78702D01*
X139333D01*
X139666D02*
X139999Y78368D01*
X140999D02*
X140332D01*
X140999Y79035D01*
Y79201D01*
X140832Y79368D01*
X140499D01*
X140332Y79201D01*
X127155Y78622D02*
Y79622D01*
X127655D01*
X127821Y79455D01*
Y79122D01*
X127655Y78956D01*
X127155D01*
X127488D02*
X127821Y78622D01*
X128154Y79455D02*
X128321Y79622D01*
X128654D01*
X128821Y79455D01*
Y79289D01*
X128654Y79122D01*
X128488D01*
X128654D01*
X128821Y78956D01*
Y78789D01*
X128654Y78622D01*
X128321D01*
X128154Y78789D01*
X204647Y115137D02*
Y115804D01*
X204481Y115970D01*
X204147D01*
X203981Y115804D01*
Y115137D01*
X204147Y114971D01*
X204481D01*
X204314Y115304D02*
X204647Y114971D01*
X204481D02*
X204647Y115137D01*
X205480Y114971D02*
Y115970D01*
X204980Y115471D01*
X205647D01*
X172975Y115010D02*
Y115677D01*
X172808Y115843D01*
X172475D01*
X172308Y115677D01*
Y115010D01*
X172475Y114844D01*
X172808D01*
X172642Y115177D02*
X172975Y114844D01*
X172808D02*
X172975Y115010D01*
X173308Y115677D02*
X173475Y115843D01*
X173808D01*
X173974Y115677D01*
Y115510D01*
X173808Y115344D01*
X173641D01*
X173808D01*
X173974Y115177D01*
Y115010D01*
X173808Y114844D01*
X173475D01*
X173308Y115010D01*
X269698Y115341D02*
Y116007D01*
X269531Y116174D01*
X269198D01*
X269032Y116007D01*
Y115341D01*
X269198Y115174D01*
X269531D01*
X269365Y115507D02*
X269698Y115174D01*
X269531D02*
X269698Y115341D01*
X270698Y115174D02*
X270031D01*
X270698Y115840D01*
Y116007D01*
X270531Y116174D01*
X270198D01*
X270031Y116007D01*
X238017Y115392D02*
Y116058D01*
X237850Y116225D01*
X237517D01*
X237351Y116058D01*
Y115392D01*
X237517Y115225D01*
X237850D01*
X237684Y115558D02*
X238017Y115225D01*
X237850D02*
X238017Y115392D01*
X238350Y115225D02*
X238683D01*
X238517D01*
Y116225D01*
X238350Y116058D01*
D109*
X205152Y64053D02*
Y71053D01*
X204352Y64053D02*
Y71053D01*
X205152D01*
X204352Y64053D02*
X205152D01*
X164075Y67525D02*
X171075D01*
X164075Y68325D02*
X171075D01*
Y67525D02*
Y68325D01*
X164075Y67525D02*
Y68325D01*
X201250Y67300D02*
X208250D01*
X201250Y68100D02*
X208250D01*
Y67300D02*
Y68100D01*
X201250Y67300D02*
Y68100D01*
X162225Y90725D02*
X172950D01*
X162225Y92425D02*
X172950D01*
Y90725D02*
Y92425D01*
X162225Y90725D02*
Y92425D01*
X199229Y91041D02*
X209954D01*
X199229Y92741D02*
X209954D01*
Y91041D02*
Y92741D01*
X199229Y91041D02*
Y92741D01*
X168025Y64425D02*
Y71425D01*
X167225Y64425D02*
Y71425D01*
X168025D01*
X167225Y64425D02*
X168025D01*
D110*
X284300Y7500D02*
G03*
X284300Y7500I-2800J0D01*
G01*
X147300D02*
G03*
X147300Y7500I-2800J0D01*
G01*
X10300D02*
G03*
X10300Y7500I-2800J0D01*
G01*
Y142500D02*
G03*
X10300Y142500I-2800J0D01*
G01*
X147300D02*
G03*
X147300Y142500I-2800J0D01*
G01*
X284300D02*
G03*
X284300Y142500I-2800J0D01*
G01*
X421300Y7500D02*
G03*
X421300Y7500I-2800J0D01*
G01*
Y142500D02*
G03*
X421300Y142500I-2800J0D01*
G01*
X232904Y24411D02*
Y30888D01*
X229665Y24411D02*
Y30634D01*
X236143Y24411D02*
Y30634D01*
X229665D02*
X236143D01*
X229665Y24411D02*
X236143D01*
X43950Y26850D02*
Y31848D01*
X47282Y26850D01*
Y31848D01*
X23100Y31773D02*
Y26775D01*
X26432D01*
X36357Y32023D02*
X33025D01*
Y27025D01*
X36357D01*
X33025Y29524D02*
X34691D01*
D141*
X185675Y8025D02*
G03*
X185675Y8025I-4250J0D01*
G01*
X204725Y24175D02*
G03*
X204725Y24175I-4250J0D01*
G01*
X209825Y53725D02*
G03*
X209825Y53725I-6500J0D01*
G01*
D142*
X232904Y58638D02*
Y72290D01*
X226109Y56669D02*
Y72290D01*
X239699Y56669D02*
Y72290D01*
X226109D02*
X239699D01*
X226109Y56669D02*
X239699D01*
D143*
X171350Y33611D02*
Y60535D01*
X160555Y33611D02*
Y60535D01*
X171350D01*
X160555Y33611D02*
X171350D01*
D144*
X354450Y97250D02*
Y97750D01*
X354200Y97500D02*
X354700D01*
X392525D02*
X393025D01*
X392775Y97250D02*
Y97750D01*
X373225Y97500D02*
X373725D01*
X373475Y97250D02*
Y97750D01*
D145*
X203217Y42142D02*
D03*
D146*
X73500Y15075D02*
D03*
D147*
X231187Y20800D02*
D03*
X238553Y15100D02*
D03*
X231242Y9425D02*
D03*
X238603Y3725D02*
D03*
%TF.MD5,84bd630763820ed14d97106593fe5fce*%
M02*
