%TF.GenerationSoftware,Altium Limited,Altium Designer,21.6.4 (81)*%
G04 Layer_Color=16711935*
%FSLAX43Y43*%
%MOMM*%
%TF.SameCoordinates,9BCA014A-4D13-4940-A32C-4131998200A9*%
%TF.FilePolarity,Negative*%
%TF.FileFunction,Soldermask,Bot*%
%TF.Part,Single*%
G01*
G75*
%TA.AperFunction,ComponentPad*%
%ADD21C,1.550*%
%ADD22R,1.550X1.550*%
%ADD27C,2.200*%
%ADD28O,6.858X4.826*%
%ADD29R,6.858X4.826*%
%ADD30C,3.500*%
%ADD31R,2.200X2.200*%
%ADD38R,1.600X1.600*%
%ADD39C,1.600*%
%ADD40R,1.400X1.400*%
%ADD41C,1.400*%
%ADD42R,1.250X1.250*%
%ADD43C,1.250*%
%ADD47R,1.200X1.200*%
%ADD48C,1.200*%
%ADD49R,1.400X1.400*%
%ADD60C,2.800*%
%ADD61R,2.800X2.800*%
%ADD62R,1.300X1.300*%
%ADD63C,1.300*%
%TA.AperFunction,SMDPad,CuDef*%
%ADD68R,3.200X1.720*%
%ADD69R,1.659X0.627*%
G04:AMPARAMS|DCode=70|XSize=1.659mm|YSize=0.627mm|CornerRadius=0.313mm|HoleSize=0mm|Usage=FLASHONLY|Rotation=180.000|XOffset=0mm|YOffset=0mm|HoleType=Round|Shape=RoundedRectangle|*
%AMROUNDEDRECTD70*
21,1,1.659,0.000,0,0,180.0*
21,1,1.032,0.627,0,0,180.0*
1,1,0.627,-0.516,0.000*
1,1,0.627,0.516,0.000*
1,1,0.627,0.516,0.000*
1,1,0.627,-0.516,0.000*
%
%ADD70ROUNDEDRECTD70*%
G04:AMPARAMS|DCode=72|XSize=1.55mm|YSize=0.6mm|CornerRadius=0.051mm|HoleSize=0mm|Usage=FLASHONLY|Rotation=90.000|XOffset=0mm|YOffset=0mm|HoleType=Round|Shape=RoundedRectangle|*
%AMROUNDEDRECTD72*
21,1,1.550,0.498,0,0,90.0*
21,1,1.448,0.600,0,0,90.0*
1,1,0.102,0.249,0.724*
1,1,0.102,0.249,-0.724*
1,1,0.102,-0.249,-0.724*
1,1,0.102,-0.249,0.724*
%
%ADD72ROUNDEDRECTD72*%
%ADD73R,0.543X1.874*%
G04:AMPARAMS|DCode=74|XSize=1.874mm|YSize=0.543mm|CornerRadius=0.272mm|HoleSize=0mm|Usage=FLASHONLY|Rotation=90.000|XOffset=0mm|YOffset=0mm|HoleType=Round|Shape=RoundedRectangle|*
%AMROUNDEDRECTD74*
21,1,1.874,0.000,0,0,90.0*
21,1,1.331,0.543,0,0,90.0*
1,1,0.543,0.000,0.665*
1,1,0.543,0.000,-0.665*
1,1,0.543,0.000,-0.665*
1,1,0.543,0.000,0.665*
%
%ADD74ROUNDEDRECTD74*%
%ADD77R,0.950X1.450*%
%ADD78R,1.016X3.050*%
%ADD79R,10.660X8.380*%
%ADD80R,1.405X2.806*%
%ADD83R,1.450X0.950*%
%TA.AperFunction,NonConductor*%
%ADD100C,2.540*%
%TA.AperFunction,SMDPad,CuDef*%
%ADD101R,0.830X1.280*%
%ADD102R,2.403X2.703*%
%ADD103R,1.280X0.830*%
%ADD104R,1.153X1.103*%
%ADD105R,1.103X1.153*%
%TA.AperFunction,ComponentPad*%
%ADD106C,3.505*%
%ADD107C,4.775*%
%ADD108O,1.981X2.235*%
%ADD109C,1.727*%
%ADD110C,2.403*%
%ADD111O,1.981X2.489*%
%ADD112O,3.303X3.203*%
%ADD113C,4.013*%
%ADD114C,2.489*%
%ADD115C,2.153*%
G04:AMPARAMS|DCode=116|XSize=2.153mm|YSize=2.153mm|CornerRadius=0.589mm|HoleSize=0mm|Usage=FLASHONLY|Rotation=0.000|XOffset=0mm|YOffset=0mm|HoleType=Round|Shape=RoundedRectangle|*
%AMROUNDEDRECTD116*
21,1,2.153,0.975,0,0,0.0*
21,1,0.975,2.153,0,0,0.0*
1,1,1.178,0.488,-0.488*
1,1,1.178,-0.488,-0.488*
1,1,1.178,-0.488,0.488*
1,1,1.178,0.488,0.488*
%
%ADD116ROUNDEDRECTD116*%
%ADD117C,2.235*%
%ADD118C,2.203*%
%ADD119C,3.251*%
%ADD120C,1.803*%
%ADD121O,7.703X6.703*%
%ADD122C,4.267*%
%ADD123O,8.203X6.703*%
%ADD124O,5.791X5.283*%
%ADD125C,8.203*%
%ADD126O,6.203X6.803*%
%ADD127C,9.093*%
%ADD128O,2.362X1.981*%
%ADD129C,1.703*%
G04:AMPARAMS|DCode=130|XSize=1.703mm|YSize=1.703mm|CornerRadius=0.477mm|HoleSize=0mm|Usage=FLASHONLY|Rotation=180.000|XOffset=0mm|YOffset=0mm|HoleType=Round|Shape=RoundedRectangle|*
%AMROUNDEDRECTD130*
21,1,1.703,0.750,0,0,180.0*
21,1,0.750,1.703,0,0,180.0*
1,1,0.953,-0.375,0.375*
1,1,0.953,0.375,0.375*
1,1,0.953,0.375,-0.375*
1,1,0.953,-0.375,-0.375*
%
%ADD130ROUNDEDRECTD130*%
%TA.AperFunction,ViaPad*%
%ADD131C,2.003*%
%ADD132C,1.003*%
G36*
X13200Y141450D02*
X9350Y137600D01*
X-50D01*
Y149075D01*
X-22Y150028D01*
X13200D01*
Y141450D01*
D02*
G37*
%LPC*%
G36*
X7697Y144759D02*
X7303D01*
X7278Y144754D01*
X7252D01*
X6866Y144677D01*
X6843Y144667D01*
X6818Y144662D01*
X6454Y144512D01*
X6432Y144497D01*
X6409Y144488D01*
X6081Y144269D01*
X6063Y144251D01*
X6042Y144237D01*
X5763Y143958D01*
X5749Y143937D01*
X5731Y143919D01*
X5512Y143591D01*
X5503Y143568D01*
X5488Y143546D01*
X5338Y143182D01*
X5333Y143157D01*
X5323Y143134D01*
X5246Y142747D01*
Y142722D01*
X5241Y142697D01*
Y142500D01*
Y142303D01*
X5246Y142278D01*
Y142252D01*
X5323Y141866D01*
X5333Y141843D01*
X5338Y141818D01*
X5488Y141454D01*
X5503Y141432D01*
X5512Y141409D01*
X5731Y141081D01*
X5749Y141063D01*
X5763Y141042D01*
X6042Y140763D01*
X6063Y140749D01*
X6081Y140731D01*
X6409Y140512D01*
X6432Y140503D01*
X6454Y140488D01*
X6818Y140338D01*
X6843Y140333D01*
X6866Y140323D01*
X7252Y140246D01*
X7278D01*
X7303Y140241D01*
X7697D01*
X7722Y140246D01*
X7748D01*
X8134Y140323D01*
X8157Y140333D01*
X8182Y140338D01*
X8546Y140488D01*
X8568Y140503D01*
X8591Y140512D01*
X8919Y140731D01*
X8937Y140749D01*
X8958Y140763D01*
X9237Y141042D01*
X9251Y141063D01*
X9269Y141081D01*
X9488Y141409D01*
X9497Y141432D01*
X9512Y141454D01*
X9662Y141818D01*
X9667Y141843D01*
X9677Y141866D01*
X9754Y142252D01*
Y142278D01*
X9759Y142303D01*
Y142500D01*
Y142697D01*
X9754Y142722D01*
Y142748D01*
X9677Y143134D01*
X9667Y143157D01*
X9662Y143182D01*
X9512Y143546D01*
X9497Y143568D01*
X9488Y143591D01*
X9269Y143919D01*
X9251Y143937D01*
X9237Y143958D01*
X8958Y144237D01*
X8937Y144251D01*
X8919Y144269D01*
X8591Y144488D01*
X8568Y144497D01*
X8546Y144512D01*
X8182Y144662D01*
X8157Y144667D01*
X8134Y144677D01*
X7748Y144754D01*
X7722D01*
X7697Y144759D01*
D02*
G37*
%LPD*%
D21*
X189850Y59430D02*
D03*
X112000Y106555D02*
D03*
X124000D02*
D03*
X136000D02*
D03*
X178175Y59030D02*
D03*
D22*
X189850Y30320D02*
D03*
X112000Y77445D02*
D03*
X124000D02*
D03*
X136000D02*
D03*
X178175Y29920D02*
D03*
D27*
X169955Y16200D02*
D03*
X166445Y16050D02*
D03*
X245340Y20800D02*
D03*
X224400Y15100D02*
D03*
X245395Y9425D02*
D03*
X224450Y3725D02*
D03*
D28*
X18502Y100090D02*
D03*
Y91327D02*
D03*
D29*
Y82310D02*
D03*
D30*
X8850Y111520D02*
D03*
X8723Y71134D02*
D03*
D31*
X190895Y16200D02*
D03*
X145505Y16050D02*
D03*
X224400Y20800D02*
D03*
X245340Y15100D02*
D03*
X224455Y9425D02*
D03*
X245390Y3725D02*
D03*
D38*
X414225Y27300D02*
D03*
X99050Y27475D02*
D03*
D39*
X421325Y27300D02*
D03*
X91950Y27475D02*
D03*
D40*
X404925Y6650D02*
D03*
X168900Y7200D02*
D03*
D41*
X402385Y6650D02*
D03*
X399845D02*
D03*
X108439Y31460D02*
D03*
Y34000D02*
D03*
X113550Y31460D02*
D03*
Y34000D02*
D03*
X171440Y7200D02*
D03*
X173980D02*
D03*
D42*
X179675Y8025D02*
D03*
X198725Y24175D02*
D03*
D43*
X183175Y8025D02*
D03*
X202225Y24175D02*
D03*
D47*
X103345Y36540D02*
D03*
D48*
Y34000D02*
D03*
Y31460D02*
D03*
D49*
X108439Y36540D02*
D03*
X113550D02*
D03*
D60*
X63880Y120272D02*
D03*
X96710D02*
D03*
X128954D02*
D03*
X31392D02*
D03*
D61*
X52960D02*
D03*
X85790D02*
D03*
X118034D02*
D03*
X20472D02*
D03*
D62*
X203325Y51225D02*
D03*
D63*
Y56225D02*
D03*
D68*
X190250Y30420D02*
D03*
Y36830D02*
D03*
D69*
X413650Y17275D02*
D03*
D70*
Y15445D02*
D03*
X411697Y16360D02*
D03*
D72*
X111792Y24513D02*
D03*
X110522D02*
D03*
X109252D02*
D03*
X107982D02*
D03*
Y19113D02*
D03*
X109252D02*
D03*
X110522D02*
D03*
X111792D02*
D03*
D73*
X417144Y20320D02*
D03*
D74*
X415874D02*
D03*
X414604D02*
D03*
X413334D02*
D03*
Y24952D02*
D03*
X414604D02*
D03*
X415874D02*
D03*
X417144D02*
D03*
D77*
X202200Y18325D02*
D03*
X200250D02*
D03*
X202200Y16400D02*
D03*
X200250D02*
D03*
D78*
X176371Y12492D02*
D03*
X178073D02*
D03*
X179775D02*
D03*
X181477D02*
D03*
X183179D02*
D03*
D79*
X179775Y22797D02*
D03*
D80*
X258424Y126000D02*
D03*
X261526D02*
D03*
X193724D02*
D03*
X196826D02*
D03*
X164551Y126500D02*
D03*
X161449D02*
D03*
X229526Y126000D02*
D03*
X226424D02*
D03*
X234476Y28600D02*
D03*
X231374D02*
D03*
D83*
X84525Y12100D02*
D03*
Y10150D02*
D03*
D100*
X235995Y43913D02*
G03*
X235995Y43913I-3300J0D01*
G01*
D101*
X417200Y27300D02*
D03*
X419200D02*
D03*
X415875Y15325D02*
D03*
X417875D02*
D03*
X415875Y17275D02*
D03*
X417875D02*
D03*
X94950Y19950D02*
D03*
X96950D02*
D03*
X96975Y18250D02*
D03*
X94975D02*
D03*
X175850Y7225D02*
D03*
X177850D02*
D03*
X92800Y23625D02*
D03*
X94800D02*
D03*
X94825Y21800D02*
D03*
X92825D02*
D03*
X104900Y27300D02*
D03*
X102900D02*
D03*
X104875Y25475D02*
D03*
X102875D02*
D03*
X111975Y36525D02*
D03*
X109975D02*
D03*
D102*
X413975Y30675D02*
D03*
X420875D02*
D03*
D103*
X419025Y18975D02*
D03*
Y20975D02*
D03*
X420875D02*
D03*
Y18975D02*
D03*
X410025Y27325D02*
D03*
Y25325D02*
D03*
X55200Y34500D02*
D03*
Y36500D02*
D03*
X72100Y68300D02*
D03*
Y70300D02*
D03*
X98525Y18075D02*
D03*
Y20075D02*
D03*
X105875Y21050D02*
D03*
Y23050D02*
D03*
X113725Y17775D02*
D03*
Y15775D02*
D03*
X88550Y10100D02*
D03*
Y12100D02*
D03*
X113750Y21050D02*
D03*
Y19050D02*
D03*
D104*
X102150Y20175D02*
D03*
X102150Y23325D02*
D03*
X234500Y20425D02*
D03*
X234500Y23575D02*
D03*
X236375D02*
D03*
X236375Y20425D02*
D03*
X231475D02*
D03*
X231475Y23575D02*
D03*
X229600D02*
D03*
X229600Y20425D02*
D03*
D105*
X113325Y27625D02*
D03*
X110175Y27625D02*
D03*
X66250Y10000D02*
D03*
X63100Y10000D02*
D03*
D106*
X165889Y51391D02*
D03*
X165762Y41485D02*
D03*
X203217Y42777D02*
D03*
X65540Y81925D02*
D03*
X60460D02*
D03*
Y99950D02*
D03*
X65540D02*
D03*
X52540Y82000D02*
D03*
X47460D02*
D03*
Y100000D02*
D03*
X52540D02*
D03*
Y91000D02*
D03*
X47460D02*
D03*
X36540D02*
D03*
X31460D02*
D03*
X36540Y100000D02*
D03*
X31460D02*
D03*
X36540Y82000D02*
D03*
X31460D02*
D03*
D107*
X141886Y55328D02*
D03*
X149760D02*
D03*
X151792Y37294D02*
D03*
X229139Y67408D02*
D03*
X236632Y67535D02*
D03*
X77450Y39975D02*
D03*
D108*
X200677Y36427D02*
D03*
X203217D02*
D03*
X205757D02*
D03*
D109*
X232695Y43913D02*
D03*
D110*
X231425Y25625D02*
D03*
X234473D02*
D03*
D111*
X74910Y19782D02*
D03*
X77450D02*
D03*
X79990D02*
D03*
D112*
X83100Y15100D02*
D03*
X71100D02*
D03*
D113*
X145450Y64425D02*
D03*
X109450D02*
D03*
X120250Y57425D02*
D03*
X134650Y72025D02*
D03*
X288600Y92800D02*
D03*
X274000Y107200D02*
D03*
X281000Y118000D02*
D03*
Y82000D02*
D03*
D114*
X248800Y3725D02*
D03*
X95100Y34200D02*
D03*
X103475Y15100D02*
D03*
X422375Y23925D02*
D03*
X410750Y30725D02*
D03*
X409300Y13000D02*
D03*
X409950Y6700D02*
D03*
X190925Y11525D02*
D03*
X171475D02*
D03*
X163850Y7225D02*
D03*
X186825Y5125D02*
D03*
X202200Y14150D02*
D03*
X381925Y85475D02*
D03*
X394875Y6600D02*
D03*
X245300Y25075D02*
D03*
X97925Y36550D02*
D03*
X118175Y31425D02*
D03*
X124075Y109925D02*
D03*
X65900Y23850D02*
D03*
X138575Y24875D02*
D03*
X100975Y12850D02*
D03*
X71225Y56918D02*
D03*
X71250Y62125D02*
D03*
X71428Y51889D02*
D03*
X88200Y59150D02*
D03*
X74069Y59585D02*
D03*
X82925Y57350D02*
D03*
X99725Y60075D02*
D03*
X118254Y23084D02*
D03*
X103500Y18075D02*
D03*
X118280Y17318D02*
D03*
X118275Y20250D02*
D03*
X110575Y15925D02*
D03*
X227994Y26612D02*
D03*
X237625Y26750D02*
D03*
X246800Y52325D02*
D03*
X243350Y67250D02*
D03*
X320325Y8425D02*
D03*
X77375Y11225D02*
D03*
X72150Y19825D02*
D03*
X320500Y81975D02*
D03*
X336325Y4375D02*
D03*
D115*
X66935Y8275D02*
D03*
X202800Y7525D02*
D03*
X217800Y7500D02*
D03*
X212800D02*
D03*
X127125Y8250D02*
D03*
D116*
X61935Y8275D02*
D03*
X197800Y7525D02*
D03*
X207800Y7500D02*
D03*
X122125Y8250D02*
D03*
D117*
X231427Y87975D02*
D03*
X256573D02*
D03*
X231427Y103975D02*
D03*
X256573D02*
D03*
D118*
X352825Y99000D02*
D03*
Y91000D02*
D03*
X391150D02*
D03*
Y99000D02*
D03*
X371850Y91000D02*
D03*
Y99000D02*
D03*
X215417Y20500D02*
D03*
X210083D02*
D03*
D119*
X190666Y119865D02*
D03*
X196000D02*
D03*
X201334D02*
D03*
X158511D02*
D03*
X163845D02*
D03*
X169179D02*
D03*
X223666D02*
D03*
X229000D02*
D03*
X234334D02*
D03*
X255666D02*
D03*
X261000D02*
D03*
X266334D02*
D03*
X266310Y109692D02*
D03*
Y83530D02*
D03*
D120*
X145575Y22305D02*
D03*
Y24845D02*
D03*
X154000Y22730D02*
D03*
Y25270D02*
D03*
D121*
X320258Y35355D02*
D03*
Y25271D02*
D03*
X320385Y14959D02*
D03*
X254091Y70839D02*
D03*
X254243Y60628D02*
D03*
X254066Y30123D02*
D03*
X253964Y20039D02*
D03*
X320233Y50671D02*
D03*
X320309Y60857D02*
D03*
Y70941D02*
D03*
D122*
X312587Y50646D02*
D03*
Y35381D02*
D03*
X261711Y20090D02*
D03*
X261660Y30250D02*
D03*
X261711Y60806D02*
D03*
X261762Y70966D02*
D03*
X312536Y15137D02*
D03*
X312486Y25271D02*
D03*
X312511Y60831D02*
D03*
X312562Y71017D02*
D03*
X343958Y40300D02*
D03*
Y55565D02*
D03*
X394835Y70856D02*
D03*
X394885Y60696D02*
D03*
X394835Y30140D02*
D03*
X394784Y19980D02*
D03*
X344009Y75809D02*
D03*
X344060Y65675D02*
D03*
X344035Y30115D02*
D03*
X343984Y19929D02*
D03*
X371629Y119325D02*
D03*
X360834D02*
D03*
X339129Y119333D02*
D03*
X328334D02*
D03*
X82507Y92555D02*
D03*
X92794D02*
D03*
X167873Y75047D02*
D03*
X167746Y85334D02*
D03*
X204746D02*
D03*
X204873Y75047D02*
D03*
D123*
X402582Y70907D02*
D03*
X402480Y60823D02*
D03*
X402302Y30318D02*
D03*
X402455Y20107D02*
D03*
X336161Y75987D02*
D03*
X336288Y65675D02*
D03*
Y55591D02*
D03*
X336313Y40275D02*
D03*
X336237Y30089D02*
D03*
Y20005D02*
D03*
D124*
X415000Y90000D02*
D03*
Y100000D02*
D03*
X405000D02*
D03*
Y90000D02*
D03*
D125*
X75000Y126200D02*
D03*
X112500D02*
D03*
X37500D02*
D03*
X212500D02*
D03*
X250000D02*
D03*
X175000D02*
D03*
X350000D02*
D03*
X387500D02*
D03*
X312500D02*
D03*
D126*
X40000Y9460D02*
D03*
Y19366D02*
D03*
X20000Y9460D02*
D03*
Y19366D02*
D03*
X30000Y9460D02*
D03*
Y19366D02*
D03*
D127*
X416300Y42450D02*
D03*
Y72295D02*
D03*
D128*
X58978Y23965D02*
D03*
Y26505D02*
D03*
Y29045D02*
D03*
Y31585D02*
D03*
Y21425D02*
D03*
Y34125D02*
D03*
Y36665D02*
D03*
Y39205D02*
D03*
Y41745D02*
D03*
Y44285D02*
D03*
Y46825D02*
D03*
Y49365D02*
D03*
Y51905D02*
D03*
Y54445D02*
D03*
Y59525D02*
D03*
Y62065D02*
D03*
Y56985D02*
D03*
Y64605D02*
D03*
D129*
X89658Y8200D02*
D03*
X84578D02*
D03*
X87118D02*
D03*
X92198D02*
D03*
X94738D02*
D03*
X106041D02*
D03*
X100961D02*
D03*
X103501D02*
D03*
X108581D02*
D03*
X111121D02*
D03*
D130*
X82038D02*
D03*
X98421D02*
D03*
D131*
X170675Y36775D02*
D03*
D132*
X89450Y24975D02*
D03*
X90225Y20700D02*
D03*
X88550Y13000D02*
D03*
X85725Y13100D02*
D03*
X109252Y17727D02*
D03*
X104875Y24425D02*
D03*
X109325Y26075D02*
D03*
X95325Y29950D02*
D03*
X96050Y23600D02*
D03*
X97725D02*
D03*
X56075Y3100D02*
D03*
X110522Y23178D02*
D03*
X114725Y21025D02*
D03*
X284550Y3025D02*
D03*
X72075Y71750D02*
D03*
X418263Y21962D02*
D03*
X299350Y3125D02*
D03*
X419000Y16375D02*
D03*
X411300Y25325D02*
D03*
X414650Y13825D02*
D03*
X414625Y18725D02*
D03*
%TF.MD5,3e1af7dfa8864f7f78bfd3a6bbf8cfd1*%
M02*
