%TF.GenerationSoftware,Altium Limited,Altium Designer,21.6.4 (81)*%
G04 Layer_Color=0*
%FSLAX43Y43*%
%MOMM*%
%TF.SameCoordinates,9BCA014A-4D13-4940-A32C-4131998200A9*%
%TF.FilePolarity,Positive*%
%TF.FileFunction,Profile,NP*%
%TF.Part,Single*%
G01*
G75*
%TA.AperFunction,Profile*%
%ADD146C,0.025*%
G36*
X290750Y8425D02*
Y11025D01*
X287675Y14100D01*
X287675Y73693D01*
X297525Y83543D01*
Y88575D01*
Y88723D01*
X297583Y89013D01*
X297696Y89286D01*
X297860Y89531D01*
X298069Y89740D01*
X298314Y89904D01*
X298587Y90017D01*
X298877Y90075D01*
X299173D01*
X299463Y90017D01*
X299736Y89904D01*
X299981Y89740D01*
X300190Y89531D01*
X300354Y89286D01*
X300467Y89013D01*
X300525Y88723D01*
Y88575D01*
D01*
Y82300D01*
X290550Y72325D01*
Y15465D01*
X293750Y12265D01*
Y8425D01*
Y8277D01*
X293692Y7987D01*
X293579Y7714D01*
X293415Y7469D01*
X293206Y7260D01*
X292961Y7096D01*
X292688Y6983D01*
X292398Y6925D01*
X292102D01*
X291812Y6983D01*
X291539Y7096D01*
X291294Y7260D01*
X291085Y7469D01*
X290921Y7714D01*
X290808Y7987D01*
X290750Y8277D01*
Y8425D01*
D01*
D02*
G37*
G36*
X416500Y7500D02*
Y7303D01*
X416577Y6917D01*
X416728Y6553D01*
X416947Y6225D01*
X417225Y5946D01*
X417553Y5728D01*
X417917Y5577D01*
X418303Y5500D01*
X418500D01*
X418697D01*
X419083Y5577D01*
X419447Y5728D01*
X419775Y5946D01*
X420053Y6225D01*
X420272Y6553D01*
X420423Y6917D01*
X420500Y7303D01*
Y7500D01*
Y7697D01*
X420423Y8083D01*
X420272Y8447D01*
X420053Y8775D01*
X419775Y9054D01*
X419447Y9272D01*
X419083Y9423D01*
X418697Y9500D01*
X418500D01*
X418303D01*
X417917Y9423D01*
X417553Y9272D01*
X417225Y9054D01*
X416947Y8775D01*
X416728Y8447D01*
X416577Y8083D01*
X416500Y7697D01*
Y7500D01*
D01*
D02*
G37*
G36*
Y142500D02*
Y142303D01*
X416577Y141917D01*
X416728Y141553D01*
X416947Y141225D01*
X417225Y140946D01*
X417553Y140728D01*
X417917Y140577D01*
X418303Y140500D01*
X418500D01*
X418697D01*
X419083Y140577D01*
X419447Y140728D01*
X419775Y140946D01*
X420053Y141225D01*
X420272Y141553D01*
X420423Y141917D01*
X420500Y142303D01*
Y142500D01*
Y142697D01*
X420423Y143083D01*
X420272Y143447D01*
X420053Y143775D01*
X419775Y144053D01*
X419447Y144272D01*
X419083Y144423D01*
X418697Y144500D01*
X418500D01*
X418303D01*
X417917Y144423D01*
X417553Y144272D01*
X417225Y144053D01*
X416947Y143775D01*
X416728Y143447D01*
X416577Y143083D01*
X416500Y142697D01*
Y142500D01*
D01*
D02*
G37*
G36*
X5500Y7500D02*
Y7303D01*
X5577Y6917D01*
X5728Y6553D01*
X5946Y6225D01*
X6225Y5946D01*
X6553Y5728D01*
X6917Y5577D01*
X7303Y5500D01*
X7500D01*
X7697D01*
X8083Y5577D01*
X8447Y5728D01*
X8775Y5946D01*
X9054Y6225D01*
X9272Y6553D01*
X9423Y6917D01*
X9500Y7303D01*
Y7500D01*
Y7697D01*
X9423Y8083D01*
X9272Y8447D01*
X9054Y8775D01*
X8775Y9054D01*
X8447Y9272D01*
X8083Y9423D01*
X7697Y9500D01*
X7500D01*
X7303D01*
X6917Y9423D01*
X6553Y9272D01*
X6225Y9054D01*
X5946Y8775D01*
X5728Y8447D01*
X5577Y8083D01*
X5500Y7697D01*
Y7500D01*
D01*
D02*
G37*
G36*
X7500Y140500D02*
X7303D01*
X6917Y140577D01*
X6553Y140728D01*
X6225Y140946D01*
X5946Y141225D01*
X5728Y141553D01*
X5577Y141917D01*
X5500Y142303D01*
Y142500D01*
Y142697D01*
X5577Y143083D01*
X5728Y143447D01*
X5946Y143775D01*
X6225Y144053D01*
X6553Y144272D01*
X6917Y144423D01*
X7303Y144500D01*
X7500D01*
X7697D01*
X8083Y144423D01*
X8447Y144272D01*
X8775Y144053D01*
X9054Y143775D01*
X9272Y143447D01*
X9423Y143083D01*
X9500Y142697D01*
Y142500D01*
Y142303D01*
X9423Y141917D01*
X9272Y141553D01*
X9054Y141225D01*
X8775Y140946D01*
X8447Y140728D01*
X8083Y140577D01*
X7697Y140500D01*
X7500D01*
D01*
D02*
G37*
G36*
X279500Y142500D02*
Y142303D01*
X279577Y141917D01*
X279728Y141553D01*
X279947Y141225D01*
X280225Y140946D01*
X280553Y140728D01*
X280917Y140577D01*
X281303Y140500D01*
X281500D01*
X281697D01*
X282083Y140577D01*
X282447Y140728D01*
X282775Y140946D01*
X283053Y141225D01*
X283272Y141553D01*
X283423Y141917D01*
X283500Y142303D01*
Y142500D01*
Y142697D01*
X283423Y143083D01*
X283272Y143447D01*
X283053Y143775D01*
X282775Y144053D01*
X282447Y144272D01*
X282083Y144423D01*
X281697Y144500D01*
X281500D01*
X281303D01*
X280917Y144423D01*
X280553Y144272D01*
X280225Y144053D01*
X279947Y143775D01*
X279728Y143447D01*
X279577Y143083D01*
X279500Y142697D01*
Y142500D01*
D01*
D02*
G37*
G36*
X142500D02*
Y142303D01*
X142577Y141917D01*
X142728Y141553D01*
X142947Y141225D01*
X143225Y140946D01*
X143553Y140728D01*
X143917Y140577D01*
X144303Y140500D01*
X144500D01*
X144697D01*
X145083Y140577D01*
X145447Y140728D01*
X145775Y140946D01*
X146053Y141225D01*
X146272Y141553D01*
X146423Y141917D01*
X146500Y142303D01*
Y142500D01*
Y142697D01*
X146423Y143083D01*
X146272Y143447D01*
X146053Y143775D01*
X145775Y144053D01*
X145447Y144272D01*
X145083Y144423D01*
X144697Y144500D01*
X144500D01*
X144303D01*
X143917Y144423D01*
X143553Y144272D01*
X143225Y144053D01*
X142947Y143775D01*
X142728Y143447D01*
X142577Y143083D01*
X142500Y142697D01*
Y142500D01*
D01*
D02*
G37*
G36*
X279500Y7500D02*
Y7303D01*
X279577Y6917D01*
X279728Y6553D01*
X279947Y6225D01*
X280225Y5946D01*
X280553Y5728D01*
X280917Y5577D01*
X281303Y5500D01*
X281500D01*
X281697D01*
X282083Y5577D01*
X282447Y5728D01*
X282775Y5946D01*
X283053Y6225D01*
X283272Y6553D01*
X283423Y6917D01*
X283500Y7303D01*
Y7500D01*
Y7697D01*
X283423Y8083D01*
X283272Y8447D01*
X283053Y8775D01*
X282775Y9054D01*
X282447Y9272D01*
X282083Y9423D01*
X281697Y9500D01*
X281500D01*
X281303D01*
X280917Y9423D01*
X280553Y9272D01*
X280225Y9054D01*
X279947Y8775D01*
X279728Y8447D01*
X279577Y8083D01*
X279500Y7697D01*
Y7500D01*
D01*
D02*
G37*
G36*
X142500D02*
Y7303D01*
X142577Y6917D01*
X142728Y6553D01*
X142947Y6225D01*
X143225Y5946D01*
X143553Y5728D01*
X143917Y5577D01*
X144303Y5500D01*
X144500D01*
X144697D01*
X145083Y5577D01*
X145447Y5728D01*
X145775Y5946D01*
X146053Y6225D01*
X146272Y6553D01*
X146423Y6917D01*
X146500Y7303D01*
Y7500D01*
Y7697D01*
X146423Y8083D01*
X146272Y8447D01*
X146053Y8775D01*
X145775Y9054D01*
X145447Y9272D01*
X145083Y9423D01*
X144697Y9500D01*
X144500D01*
X144303D01*
X143917Y9423D01*
X143553Y9272D01*
X143225Y9054D01*
X142947Y8775D01*
X142728Y8447D01*
X142577Y8083D01*
X142500Y7697D01*
Y7500D01*
D01*
D02*
G37*
D146*
X0D02*
G03*
X7500Y0I7500J0D01*
G01*
X417500D01*
Y-20D01*
D02*
G03*
X425000Y7480I0J7500D01*
G01*
Y142500D01*
D02*
G03*
X417500Y150000I-7500J0D01*
G01*
X7500Y150000D01*
D02*
G03*
X0Y142500I-0J-7500D01*
G01*
Y7500D01*
%TF.MD5,f641795411b679a2e45fc1f53231412f*%
M02*
