%TF.GenerationSoftware,Altium Limited,Altium Designer,21.6.4 (81)*%
G04 Layer_Color=8388736*
%FSLAX43Y43*%
%MOMM*%
%TF.SameCoordinates,D4C572C6-D0EE-4933-9396-1D80D03FA8BE*%
%TF.FilePolarity,Negative*%
%TF.FileFunction,Soldermask,Top*%
%TF.Part,Single*%
G01*
G75*
%TA.AperFunction,SMDPad,CuDef*%
%ADD12R,1.200X1.100*%
%TA.AperFunction,ComponentPad*%
%ADD31C,2.200*%
%ADD34C,1.250*%
%ADD35R,1.250X1.250*%
%ADD36R,1.550X1.550*%
%ADD37C,1.550*%
%ADD40O,6.858X4.826*%
%ADD41R,6.858X4.826*%
%ADD42C,3.500*%
%ADD43R,2.200X2.200*%
%ADD50R,1.600X1.600*%
%ADD51C,1.600*%
%ADD52R,1.400X1.400*%
%ADD53C,1.400*%
%ADD57R,1.200X1.200*%
%ADD58C,1.200*%
%ADD59R,1.400X1.400*%
%ADD69C,2.800*%
%ADD70R,2.800X2.800*%
%ADD71R,1.300X1.300*%
%ADD72C,1.300*%
%TA.AperFunction,NonConductor*%
%ADD108C,3.000*%
%TA.AperFunction,ComponentPad*%
%ADD116C,1.727*%
%ADD117C,2.403*%
%ADD118C,4.775*%
%ADD119C,8.203*%
%ADD120C,3.505*%
%ADD121O,1.981X2.235*%
%ADD122O,1.981X2.489*%
%ADD123O,3.303X3.203*%
%ADD124C,4.013*%
%ADD125C,2.489*%
%ADD126C,2.153*%
G04:AMPARAMS|DCode=127|XSize=2.153mm|YSize=2.153mm|CornerRadius=0.589mm|HoleSize=0mm|Usage=FLASHONLY|Rotation=0.000|XOffset=0mm|YOffset=0mm|HoleType=Round|Shape=RoundedRectangle|*
%AMROUNDEDRECTD127*
21,1,2.153,0.975,0,0,0.0*
21,1,0.975,2.153,0,0,0.0*
1,1,1.178,0.488,-0.488*
1,1,1.178,-0.488,-0.488*
1,1,1.178,-0.488,0.488*
1,1,1.178,0.488,0.488*
%
%ADD127ROUNDEDRECTD127*%
%ADD128C,2.235*%
%ADD129C,2.203*%
%ADD130C,3.251*%
%ADD131C,1.803*%
%ADD132O,7.703X6.703*%
%ADD133C,4.267*%
%ADD134O,8.203X6.703*%
%ADD135O,5.791X5.283*%
%ADD136O,6.203X6.803*%
%ADD137C,9.093*%
%ADD138O,2.362X1.981*%
%ADD139C,1.703*%
G04:AMPARAMS|DCode=140|XSize=1.703mm|YSize=1.703mm|CornerRadius=0.477mm|HoleSize=0mm|Usage=FLASHONLY|Rotation=180.000|XOffset=0mm|YOffset=0mm|HoleType=Round|Shape=RoundedRectangle|*
%AMROUNDEDRECTD140*
21,1,1.703,0.750,0,0,180.0*
21,1,0.750,1.703,0,0,180.0*
1,1,0.953,-0.375,0.375*
1,1,0.953,0.375,0.375*
1,1,0.953,0.375,-0.375*
1,1,0.953,-0.375,-0.375*
%
%ADD140ROUNDEDRECTD140*%
%TA.AperFunction,NonConductor*%
%ADD148R,10.668X20.066*%
%TA.AperFunction,SMDPad,CuDef*%
%ADD149R,3.953X9.703*%
%ADD150R,1.803X1.203*%
D12*
X95333Y16674D02*
D03*
Y18774D02*
D03*
X419069Y23119D02*
D03*
Y25219D02*
D03*
X198275Y18400D02*
D03*
Y16300D02*
D03*
X97746Y16648D02*
D03*
Y18748D02*
D03*
D31*
X169955Y16200D02*
D03*
X166445Y16050D02*
D03*
X245340Y20800D02*
D03*
X224400Y15100D02*
D03*
X245395Y9425D02*
D03*
X224450Y3725D02*
D03*
D34*
X183175Y8025D02*
D03*
X202225Y24175D02*
D03*
D35*
X179675Y8025D02*
D03*
X198725Y24175D02*
D03*
D36*
X189850Y29920D02*
D03*
X112000Y77445D02*
D03*
X124000D02*
D03*
X136000D02*
D03*
X178175Y29920D02*
D03*
D37*
X189850Y59030D02*
D03*
X112000Y106555D02*
D03*
X124000D02*
D03*
X136000D02*
D03*
X178175Y59030D02*
D03*
D40*
X18502Y100090D02*
D03*
Y91327D02*
D03*
D41*
Y82310D02*
D03*
D42*
X8850Y111520D02*
D03*
X8723Y71134D02*
D03*
D43*
X190895Y16200D02*
D03*
X145505Y16050D02*
D03*
X224400Y20800D02*
D03*
X245340Y15100D02*
D03*
X224455Y9425D02*
D03*
X245390Y3725D02*
D03*
D50*
X414225Y27300D02*
D03*
X99050Y27475D02*
D03*
D51*
X421325Y27300D02*
D03*
X91950Y27475D02*
D03*
D52*
X404925Y6650D02*
D03*
X168900Y7200D02*
D03*
D53*
X402385Y6650D02*
D03*
X399845D02*
D03*
X108439Y31460D02*
D03*
Y34000D02*
D03*
X113550Y31460D02*
D03*
Y34000D02*
D03*
X171440Y7200D02*
D03*
X173980D02*
D03*
D57*
X103345Y36540D02*
D03*
D58*
Y34000D02*
D03*
Y31460D02*
D03*
D59*
X108439Y36540D02*
D03*
X113550D02*
D03*
D69*
X63880Y120272D02*
D03*
X96710D02*
D03*
X128954D02*
D03*
X31392D02*
D03*
D70*
X52960D02*
D03*
X85790D02*
D03*
X118034D02*
D03*
X20472D02*
D03*
D71*
X203325Y51225D02*
D03*
D72*
Y56225D02*
D03*
D108*
X76103Y108050D02*
X99425D01*
X76000Y97750D02*
Y108152D01*
X29925Y82575D02*
X30500Y82000D01*
X36540D01*
X31240Y82310D02*
X31550Y82000D01*
X18502Y82310D02*
X31240D01*
X251725Y82050D02*
X258425D01*
X261000Y84625D01*
Y86575D01*
X263650Y89225D01*
X270325D01*
X277550Y82000D01*
X281000D01*
X243753Y60806D02*
X261711D01*
X236587Y67972D02*
X243753Y60806D01*
X236587Y67972D02*
Y71337D01*
X243725Y78475D01*
X269025D01*
X272550Y82000D01*
X281000D01*
X266310Y109692D02*
X270343Y113725D01*
X276650D01*
X280675Y117750D01*
X281075D01*
X247575Y106300D02*
Y110750D01*
X236850Y95575D02*
X247575Y106300D01*
X236850Y85750D02*
Y95575D01*
X233925Y82825D02*
X236850Y85750D01*
X228225Y82825D02*
X233925D01*
X226325Y84725D02*
X228225Y82825D01*
X226325Y84725D02*
Y98200D01*
X213550Y110975D02*
X226325Y98200D01*
X266334Y118584D02*
Y119865D01*
X258750Y111000D02*
X266334Y118584D01*
X213425Y111000D02*
X258750D01*
X204550Y119875D02*
X213425Y111000D01*
X201100Y119875D02*
X204550D01*
X196000Y109750D02*
X205225Y100525D01*
X196000Y109750D02*
Y119865D01*
X169179Y115846D02*
Y119865D01*
Y115846D02*
X181500Y103525D01*
X202225D01*
X216000Y89750D01*
Y75650D02*
Y89750D01*
Y75650D02*
X223805Y67845D01*
X229094D01*
X165750Y51150D02*
Y59300D01*
X177725Y71275D01*
Y75075D01*
X188050Y85400D01*
X205000D01*
X204934Y85334D02*
X205000Y85400D01*
X155509Y85334D02*
X204934D01*
X147620Y77445D02*
X155509Y85334D01*
X112000Y77445D02*
X147620D01*
X99425Y108050D02*
X106050Y114675D01*
X112525D01*
X117775Y119925D01*
X118300D01*
X63880Y120272D02*
X76103Y108050D01*
X60125Y81875D02*
X76000Y97750D01*
X56775Y81875D02*
X60125D01*
X47460Y82000D02*
X65250D01*
X11150Y100000D02*
X36540D01*
X3125Y91975D02*
X11150Y100000D01*
X3125Y60125D02*
Y91975D01*
Y60125D02*
X19825Y43425D01*
Y9275D02*
Y43425D01*
X52575Y91025D02*
X52800Y90800D01*
X17925Y91500D02*
X18400Y91025D01*
X52575D01*
X18502Y91327D02*
X19029Y90800D01*
X15377Y91327D02*
X18502D01*
X10525Y86475D02*
X15377Y91327D01*
X10525Y78400D02*
Y86475D01*
Y78400D02*
X29800Y59125D01*
X29800Y8825D02*
X29800Y59125D01*
X40000Y9475D02*
Y65775D01*
X33900Y71875D02*
X40000Y65775D01*
X33900Y71875D02*
Y81750D01*
X31478Y120272D02*
X38975Y112775D01*
X31392Y120272D02*
X31478D01*
X45975Y124350D02*
X51350Y129725D01*
X45975Y112625D02*
Y124350D01*
Y112625D02*
X52375Y106225D01*
X38800Y112900D02*
X47075Y104625D01*
Y100025D02*
Y104625D01*
X53325Y112125D02*
X65600Y99850D01*
X52375Y100725D02*
X52750Y100350D01*
X52375Y100725D02*
Y106225D01*
X51350Y129725D02*
X60375D01*
X67425Y136775D01*
X80000D01*
X85790Y130985D01*
Y120272D02*
Y130985D01*
X330775Y48425D02*
X348850D01*
X325450Y43100D02*
X330775Y48425D01*
X320000Y43100D02*
X325450D01*
X320233Y35381D02*
X324119D01*
X329125Y30375D01*
X336700D01*
X321250Y35375D02*
X336800Y19825D01*
X320786Y35375D02*
X321250D01*
X320781Y35381D02*
X320786Y35375D01*
X312587Y35381D02*
X320781D01*
X336161Y75987D02*
X344037D01*
X329350Y69176D02*
X336161Y75987D01*
X329350Y65650D02*
Y69176D01*
X344150Y76100D02*
X349225Y71025D01*
Y65675D02*
Y71025D01*
X348975Y65425D02*
X349225Y65675D01*
X344400Y65425D02*
X348975D01*
X349150Y24900D02*
Y36475D01*
X344075Y19825D02*
X349150Y24900D01*
X336800Y19825D02*
X344075D01*
X341488Y65675D02*
X349225D01*
Y35375D02*
Y65675D01*
X343939Y30089D02*
X349225Y35375D01*
X336237Y30089D02*
X343939D01*
X329325Y65675D02*
X341488D01*
X329325D02*
X329350Y65650D01*
Y58375D02*
Y65650D01*
X321450Y50475D02*
X329350Y58375D01*
X312925Y50475D02*
X321450D01*
X391150Y99000D02*
X397750Y92400D01*
Y87375D02*
Y92400D01*
Y87375D02*
X402600Y82525D01*
X404900D01*
X413950Y73475D01*
X416625D01*
X420800Y77650D01*
Y95600D01*
X413800Y102600D02*
X420800Y95600D01*
X369725Y102600D02*
X413800D01*
X360834Y111491D02*
X369725Y102600D01*
X360834Y111491D02*
Y119325D01*
X348300Y98950D02*
X415525D01*
X328334Y118916D02*
X348300Y98950D01*
X328334Y118916D02*
Y119333D01*
D116*
X232650Y44350D02*
D03*
D117*
X231380Y26062D02*
D03*
X234428D02*
D03*
D118*
X229094Y67845D02*
D03*
X236587Y67972D02*
D03*
X141886Y55328D02*
D03*
X149760D02*
D03*
X151792Y37294D02*
D03*
X77450Y39975D02*
D03*
D119*
X75000Y126200D02*
D03*
X112500D02*
D03*
X37500D02*
D03*
X350000D02*
D03*
X387500D02*
D03*
X312500D02*
D03*
X212500D02*
D03*
X250000D02*
D03*
X175000D02*
D03*
D120*
X165889Y51391D02*
D03*
X165762Y41485D02*
D03*
X203217Y42777D02*
D03*
X65540Y81925D02*
D03*
X60460D02*
D03*
Y99950D02*
D03*
X65540D02*
D03*
X52540Y82000D02*
D03*
X47460D02*
D03*
Y100000D02*
D03*
X52540D02*
D03*
Y91000D02*
D03*
X47460D02*
D03*
X36540D02*
D03*
X31460D02*
D03*
X36540Y100000D02*
D03*
X31460D02*
D03*
X36540Y82000D02*
D03*
X31460D02*
D03*
D121*
X200677Y36427D02*
D03*
X203217D02*
D03*
X205757D02*
D03*
D122*
X74910Y19782D02*
D03*
X77450D02*
D03*
X79990D02*
D03*
D123*
X83100Y15100D02*
D03*
X71100D02*
D03*
D124*
X145450Y64425D02*
D03*
X109450D02*
D03*
X120250Y57425D02*
D03*
X134650Y72025D02*
D03*
X288600Y92800D02*
D03*
X274000Y107200D02*
D03*
X281000Y118000D02*
D03*
Y82000D02*
D03*
D125*
X248800Y3725D02*
D03*
X95100Y34200D02*
D03*
X103475Y15100D02*
D03*
X422375Y23925D02*
D03*
X410750Y30725D02*
D03*
X409300Y13000D02*
D03*
X409950Y6700D02*
D03*
X190925Y11525D02*
D03*
X171475D02*
D03*
X163850Y7225D02*
D03*
X186825Y5125D02*
D03*
X202200Y14150D02*
D03*
X381925Y85475D02*
D03*
X394875Y6600D02*
D03*
X245300Y25075D02*
D03*
X97925Y36550D02*
D03*
X118175Y31425D02*
D03*
X124075Y109925D02*
D03*
X65900Y23850D02*
D03*
X138575Y24875D02*
D03*
X100975Y12850D02*
D03*
X71225Y56918D02*
D03*
X71250Y62125D02*
D03*
X71428Y51889D02*
D03*
X88200Y59150D02*
D03*
X74069Y59585D02*
D03*
X82925Y57350D02*
D03*
X97800Y58825D02*
D03*
X118254Y23084D02*
D03*
X103500Y18075D02*
D03*
X118280Y17318D02*
D03*
X118275Y20250D02*
D03*
X110575Y15925D02*
D03*
X227994Y26612D02*
D03*
X237625Y26750D02*
D03*
X246800Y52325D02*
D03*
X243350Y67250D02*
D03*
X320325Y8425D02*
D03*
X77375Y11225D02*
D03*
X72150Y19825D02*
D03*
X320500Y81975D02*
D03*
X336325Y4375D02*
D03*
D126*
X66935Y8275D02*
D03*
X202800Y7525D02*
D03*
X217800Y7500D02*
D03*
X212800D02*
D03*
X127125Y8250D02*
D03*
D127*
X61935Y8275D02*
D03*
X197800Y7525D02*
D03*
X207800Y7500D02*
D03*
X122125Y8250D02*
D03*
D128*
X231427Y87975D02*
D03*
X256573D02*
D03*
X231427Y103975D02*
D03*
X256573D02*
D03*
D129*
X352825Y99000D02*
D03*
Y91000D02*
D03*
X391150D02*
D03*
Y99000D02*
D03*
X371850Y91000D02*
D03*
Y99000D02*
D03*
X215417Y20500D02*
D03*
X210083D02*
D03*
D130*
X190666Y119865D02*
D03*
X196000D02*
D03*
X201334D02*
D03*
X158511D02*
D03*
X163845D02*
D03*
X169179D02*
D03*
X223666D02*
D03*
X229000D02*
D03*
X234334D02*
D03*
X255666D02*
D03*
X261000D02*
D03*
X266334D02*
D03*
X266310Y109692D02*
D03*
Y83530D02*
D03*
D131*
X145575Y22305D02*
D03*
Y24845D02*
D03*
X154000Y22730D02*
D03*
Y25270D02*
D03*
D132*
X320258Y35355D02*
D03*
Y25271D02*
D03*
X320385Y14959D02*
D03*
X254091Y70839D02*
D03*
X254243Y60628D02*
D03*
X254066Y30123D02*
D03*
X253964Y20039D02*
D03*
X320233Y50671D02*
D03*
X320309Y60857D02*
D03*
Y70941D02*
D03*
D133*
X312587Y50646D02*
D03*
Y35381D02*
D03*
X261711Y20090D02*
D03*
X261660Y30250D02*
D03*
X261711Y60806D02*
D03*
X261762Y70966D02*
D03*
X312536Y15137D02*
D03*
X312486Y25271D02*
D03*
X312511Y60831D02*
D03*
X312562Y71017D02*
D03*
X343958Y40300D02*
D03*
Y55565D02*
D03*
X394835Y70856D02*
D03*
X394885Y60696D02*
D03*
X394835Y30140D02*
D03*
X394784Y19980D02*
D03*
X344009Y75809D02*
D03*
X344060Y65675D02*
D03*
X344035Y30115D02*
D03*
X343984Y19929D02*
D03*
X371629Y119325D02*
D03*
X360834D02*
D03*
X339129Y119333D02*
D03*
X328334D02*
D03*
X82507Y92555D02*
D03*
X92794D02*
D03*
X167873Y75047D02*
D03*
X167746Y85334D02*
D03*
X204746D02*
D03*
X204873Y75047D02*
D03*
D134*
X402582Y70907D02*
D03*
X402480Y60823D02*
D03*
X402302Y30318D02*
D03*
X402455Y20107D02*
D03*
X336161Y75987D02*
D03*
X336288Y65675D02*
D03*
Y55591D02*
D03*
X336313Y40275D02*
D03*
X336237Y30089D02*
D03*
Y20005D02*
D03*
D135*
X415000Y90000D02*
D03*
Y100000D02*
D03*
X405000D02*
D03*
Y90000D02*
D03*
D136*
X40000Y9460D02*
D03*
Y19366D02*
D03*
X20000Y9460D02*
D03*
Y19366D02*
D03*
X30000Y9460D02*
D03*
Y19366D02*
D03*
D137*
X416300Y42450D02*
D03*
Y72295D02*
D03*
D138*
X58978Y23965D02*
D03*
Y26505D02*
D03*
Y29045D02*
D03*
Y31585D02*
D03*
Y21425D02*
D03*
Y34125D02*
D03*
Y36665D02*
D03*
Y39205D02*
D03*
Y41745D02*
D03*
Y44285D02*
D03*
Y46825D02*
D03*
Y49365D02*
D03*
Y51905D02*
D03*
Y54445D02*
D03*
Y59525D02*
D03*
Y62065D02*
D03*
Y56985D02*
D03*
Y64605D02*
D03*
D139*
X89658Y8200D02*
D03*
X84578D02*
D03*
X87118D02*
D03*
X92198D02*
D03*
X94738D02*
D03*
X106041D02*
D03*
X100961D02*
D03*
X103501D02*
D03*
X108581D02*
D03*
X111121D02*
D03*
D140*
X82038D02*
D03*
X98421D02*
D03*
D148*
X77450Y33371D02*
D03*
D149*
X171475Y24725D02*
D03*
X165225D02*
D03*
D150*
X287425Y3130D02*
D03*
X296575Y5670D02*
D03*
X287425D02*
D03*
X296575Y3130D02*
D03*
%TF.MD5,9a5b678d3fcf60538c78a054d850396e*%
M02*
