%TF.GenerationSoftware,Altium Limited,Altium Designer,21.6.4 (81)*%
G04 Layer_Color=0*
%FSLAX43Y43*%
%MOMM*%
%TF.SameCoordinates,D4C572C6-D0EE-4933-9396-1D80D03FA8BE*%
%TF.FilePolarity,Positive*%
%TF.FileFunction,Other,Top_Designator*%
%TF.Part,Single*%
G01*
G75*
%TA.AperFunction,NonConductor*%
%ADD141C,0.150*%
D141*
X169600Y23975D02*
Y25475D01*
X168600D01*
X167100D02*
X168100D01*
X167100Y24475D01*
Y24225D01*
X167350Y23975D01*
X167850D01*
X168100Y24225D01*
X199426Y8775D02*
X198926D01*
X199176D01*
Y7525D01*
X198926Y7275D01*
X198676D01*
X198426Y7525D01*
X199925Y7275D02*
X200425D01*
X200175D01*
Y8775D01*
X199925Y8525D01*
X201175Y7525D02*
X201425Y7275D01*
X201925D01*
X202175Y7525D01*
Y8525D01*
X201925Y8775D01*
X201425D01*
X201175Y8525D01*
Y8275D01*
X201425Y8025D01*
X202175D01*
X211925Y8750D02*
X211425D01*
X211675D01*
Y7500D01*
X211425Y7250D01*
X211176D01*
X210926Y7500D01*
X212425Y7250D02*
X212925D01*
X212675D01*
Y8750D01*
X212425Y8500D01*
X213675D02*
X213925Y8750D01*
X214424D01*
X214674Y8500D01*
Y7500D01*
X214424Y7250D01*
X213925D01*
X213675Y7500D01*
Y8500D01*
X89638Y9250D02*
Y7750D01*
X88888D01*
X88638Y8000D01*
Y8500D01*
X88888Y8750D01*
X89638D01*
X87139Y9250D02*
X88138D01*
X87139Y8250D01*
Y8000D01*
X87389Y7750D01*
X87888D01*
X88138Y8000D01*
X105771Y9250D02*
Y7750D01*
X105021D01*
X104771Y8000D01*
Y8500D01*
X105021Y8750D01*
X105771D01*
X104271Y9250D02*
X103772D01*
X104021D01*
Y7750D01*
X104271Y8000D01*
X124375Y8750D02*
X123875D01*
X124125D01*
Y7500D01*
X123875Y7250D01*
X123625D01*
X123375Y7500D01*
X124875Y8500D02*
X125125Y8750D01*
X125625D01*
X125875Y8500D01*
Y8250D01*
X125625Y8000D01*
X125375D01*
X125625D01*
X125875Y7750D01*
Y7500D01*
X125625Y7250D01*
X125125D01*
X124875Y7500D01*
X64185Y8775D02*
X63685D01*
X63935D01*
Y7525D01*
X63685Y7275D01*
X63435D01*
X63185Y7525D01*
X65685Y7275D02*
X64685D01*
X65685Y8275D01*
Y8525D01*
X65435Y8775D01*
X64935D01*
X64685Y8525D01*
%TF.MD5,d823aafe4e3779379e13d85e2db43ee1*%
M02*
