%TF.GenerationSoftware,Altium Limited,Altium Designer,21.6.4 (81)*%
G04 Layer_Color=32768*
%FSLAX43Y43*%
%MOMM*%
%TF.SameCoordinates,9BCA014A-4D13-4940-A32C-4131998200A9*%
%TF.FilePolarity,Positive*%
%TF.FileFunction,Other,Bottom_3D_Body*%
%TF.Part,Single*%
G01*
G75*
%TA.AperFunction,NonConductor*%
%ADD90C,0.200*%
D90*
X187140Y37180D02*
X193360D01*
Y30070D02*
Y37180D01*
X187140Y30070D02*
X193360D01*
X187140D02*
Y37180D01*
X412023Y17810D02*
X413323D01*
X412023Y14910D02*
Y17810D01*
Y14910D02*
X413323D01*
Y17810D01*
X107387Y19823D02*
X112387D01*
X107387D02*
Y23803D01*
X112387D01*
Y19823D02*
Y23803D01*
X417689Y20686D02*
Y24586D01*
X412789D02*
X417689D01*
X412789Y20686D02*
Y24586D01*
Y20686D02*
X417689D01*
X200125Y17625D02*
Y19025D01*
X202325D01*
Y17625D02*
Y19025D01*
X200125Y17625D02*
X202325D01*
X200125Y15700D02*
Y17100D01*
X202325D01*
Y15700D02*
Y17100D01*
X200125Y15700D02*
X202325D01*
X261575Y124750D02*
Y127250D01*
X258375Y124750D02*
X261575D01*
X258375D02*
Y127250D01*
X261575D01*
X196875Y124750D02*
Y127250D01*
X193675Y124750D02*
X196875D01*
X193675D02*
Y127250D01*
X196875D01*
X161400Y127750D02*
X164600D01*
X161400Y125250D02*
Y127750D01*
Y125250D02*
X164600D01*
Y127750D01*
X226375Y127250D02*
X229575D01*
X226375Y124750D02*
Y127250D01*
Y124750D02*
X229575D01*
Y127250D01*
X231325Y29850D02*
X234525D01*
X231325Y27350D02*
Y29850D01*
Y27350D02*
X234525D01*
Y29850D01*
X83825Y10025D02*
X85225D01*
X83825D02*
Y12225D01*
X85225D01*
Y10025D02*
Y12225D01*
%TF.MD5,2b19a1c38a709c98be025f2d0bfa7365*%
M02*
