M48
;Layer_Color=9474304
;FILE_FORMAT=4:3
METRIC,LZ
;TYPE=PLATED
T1F00S00C0.300
T2F00S00C0.400
T3F00S00C0.500
T4F00S00C0.600
T5F00S00C0.700
T6F00S00C0.750
T7F00S00C0.762
T8F00S00C0.800
T9F00S00C0.889
T10F00S00C0.950
T11F00S00C1.000
T12F00S00C1.016
T13F00S00C1.100
T14F00S00C1.143
T15F00S00C1.270
T16F00S00C1.300
T17F00S00C1.397
T18F00S00C1.400
T19F00S00C1.450
T20F00S00C1.524
T21F00S00C1.651
T22F00S00C1.778
T23F00S00C1.850
T24F00S00C2.032
T25F00S00C2.159
T26F00S00C2.540
T27F00S00C3.500
T28F00S00C4.000
T29F00S00C4.500
T30F00S00C6.000
;TYPE=NON_PLATED
T31F00S00C3.683
%
T01
X0419Y0016375
X0418263Y0021962
X0414625Y0018725
X041465Y0013825
X04113Y0025325
X0199375Y001625
T02
X029935Y0003125
X028455Y0003025
X0114725Y0021025
X0110522Y0023178
X0109325Y0026075
X0104875Y0024425
X0103525Y0022025
X010685Y0015925
X0109252Y0017727
X009395Y0016675
X0090225Y00207
X008945Y0024975
X009605Y00236
X0097725
X0095325Y002995
X008855Y0013
X0085725Y00131
X0056175Y00057
X0056075Y00031
X0072075Y007175
T03
X0225475Y0082744
Y0083819
Y0084825
Y0085825
Y008685
Y0087875
Y0088875
Y0089875
Y0090875
Y00919
Y0092925
Y0093925
Y0094925
Y0095925
X0225481Y0096947
X0226556Y0096922
X022655Y00959
Y00949
Y00939
Y00929
Y0091875
Y009085
Y008985
Y008885
Y008785
Y0086825
Y00858
Y0084825
Y0083819
Y0082744
X0227625
Y0083819
Y0084825
Y00858
Y0086825
Y008785
Y008885
Y008985
Y009085
Y0091875
Y00929
Y00939
Y00949
Y00959
X0227631Y0096922
X0228725Y0084825
Y0083819
X02287Y0082744
X022869Y0081669
X0227644
X0226569
X0227681Y0080622
X0228756
X0229831
X0229822Y0081669
Y0082744
X0229847Y0083819
X0202125Y0084275
Y008325
Y008225
X0202131Y0081247
X0201056
X020105Y008225
Y008325
Y0084275
Y00853
Y00863
Y00873
Y00883
X0201056Y0089322
X0202131
X0202125Y00883
Y00873
Y00863
Y00853
X0199975Y0085325
Y0086325
Y0087325
Y0088325
X0199981Y0089347
X0198925Y0089325
X0198919Y0088303
Y0087303
Y0086303
Y0085303
Y0084278
Y0083253
Y0082253
X0198925Y008125
X0199981Y0081272
X0199975Y0082275
Y0083275
Y00843
X000475Y00847
Y00837
Y00827
Y00817
Y0080675
Y007965
Y007865
X0004756Y0077647
X0003681
X0003675Y007865
Y007965
Y0080675
Y00817
Y00827
Y00837
Y00847
X0003681Y0085722
X0004756
X0002606Y0085747
X00026Y0084725
Y0083725
Y0082725
Y0081725
Y00807
Y0079675
Y0078675
X0002606Y0077672
X000155Y007765
X0001544Y0078653
Y0079653
Y0080678
Y0081703
Y0082703
Y0083703
Y0084703
X000155Y0085725
X0127419Y0130378
X0127412Y0131381
Y0132381
Y0133406
Y0134431
Y0135431
Y0136431
Y0137431
X0127419Y0138453
X0128475Y0138475
X0128469Y0137453
Y0136453
Y0135453
Y0134453
Y0133428
Y0132403
Y0131403
X0128475Y01304
X012955Y0130375
X0129544Y0131378
Y0132378
Y0133403
Y0134428
Y0135428
Y0136428
Y0137428
X012955Y013845
X0130625
X0130619Y0137428
Y0136428
Y0135428
Y0134428
Y0133403
Y0132378
Y0131378
X0130625Y0130375
X0131675Y013035
X0131669Y0131353
Y0132353
Y0133378
Y0134403
Y0135403
Y0136403
Y0137403
X0131675Y0138425
X0131694Y0139453
X0131687Y0140456
Y0141456
Y0142481
Y0143506
Y0144506
Y0145506
Y0146506
X0131694Y0147528
X013275Y014755
X0132744Y0146528
Y0145528
Y0144528
Y0143528
Y0142503
Y0141478
Y0140478
X013275Y0139475
X0132731Y0138447
X0132725Y0137425
Y0136425
Y0135425
Y0134425
Y01334
Y0132375
Y0131375
X0132731Y0130372
X0133806Y0130347
X01338Y013135
Y013235
Y0133375
Y01344
Y01354
Y01364
Y01374
X0133806Y0138422
X0133825Y013945
X0133819Y0140453
Y0141453
Y0142478
Y0143503
Y0144503
Y0145503
Y0146503
X0133825Y0147525
X01349
X0134894Y0146503
Y0145503
Y0144503
Y0143503
Y0142478
Y0141453
Y0140453
X01349Y013945
X0134881Y0138422
X0134875Y01374
Y01364
Y01354
Y01344
Y0133375
Y013235
Y013135
X0134881Y0130347
X0130581Y0139522
X0130575Y0140525
Y0141525
Y014255
Y0143575
Y0144575
Y0145575
Y0146575
X0130581Y0147597
X0129506
X01295Y0146575
Y0145575
Y0144575
Y0143575
Y014255
Y0141525
Y0140525
X0129506Y0139522
X0128431Y0139547
X0128425Y014055
Y014155
Y0142575
Y01436
Y01446
Y01456
Y01466
X0128431Y0147622
X0127375Y01476
X0127369Y0146578
Y0145578
Y0144578
Y0143578
Y0142553
Y0141528
Y0140528
X0127375Y0139525
T04
X0143825Y010515
X0146075Y010795
X0149875Y01079
X0153775Y0108075
X01439Y0110575
X0148Y01141
T05
X0103345Y003146
Y0034
Y003654
T06
X0404925Y000665
X0402385
X0399845
X0202225Y0024175
X0198725
X0183175Y0008025
X0179675
X017398Y00072
X017144
X01689
X011355Y003146
X0108439
Y0034
Y003654
X011355
Y0034
T07
X0422375Y0023925
X041075Y0030725
X04093Y0013
X040995Y00067
X0394875Y00066
X0336325Y0004375
X0320325Y0008425
X02488Y0003725
X02453Y0025075
X0237625Y002675
X0227994Y0026612
X02022Y001415
X0190925Y0011525
X0186825Y0005125
X0171475Y0011525
X016385Y0007225
X0154Y002273
Y002527
X0145575Y0024845
Y0022305
X0138575Y0024875
X0118254Y0023084
X0118275Y002025
X011828Y0017318
X0110575Y0015925
X0103475Y00151
X01035Y0018075
X0100975Y001285
X0118175Y0031425
X007215Y0019825
X00659Y002385
X0077375Y0011225
X00951Y00342
X0097925Y003655
X0099725Y0060075
X00882Y005915
X0082925Y005735
X0074069Y0059585
X007125Y0062125
X0071225Y0056918
X0071428Y0051889
X02468Y0052325
X024335Y006725
X0381925Y0085475
X03205Y0081975
X0124075Y0109925
T08
X0203325Y0051225
Y0056225
T09
X0058978Y0021425
Y0023965
Y0026505
Y0029045
Y0031585
Y0034125
Y0036665
Y0039205
Y0041745
Y0044285
Y0046825
Y0049365
Y0051905
Y0054445
Y0056985
Y0059525
Y0062065
Y0064605
T10
X0421325Y00273
X0414225
X009905Y0027475
X009195
T11
X018985Y003032
X0178175Y002992
X0136175Y0028875
X0111121Y00082
X0108581
X0106041
X0103501
X0100961
X0098421
X0094738
X0092198
X0089658
X0087118
X0084578
X0082038
X0170675Y0036775
X0178175Y005903
X018985Y005943
X039115Y0091
Y0099
X037185
Y0091
X0352825
Y0099
X0136Y0106555
X0124
X0112
Y0077445
X0124
X0136
T12
X0200677Y0036427
X0203217
X0205757
X0231427Y0087975
Y0103975
X0256573
Y0087975
T13
X0231425Y0025625
X0234473
X0215417Y00205
X0210083
T14
X007491Y0019782
X007745
X007999
T15
X026631Y008353
Y0109692
T16
X01978Y0007525
X02028
X02078Y00075
X02128
X02178
X0127125Y000825
X0122125
X0066935Y0008275
X0061935
T17
X0158511Y0119865
X0163845
X0169179
X0190666
X0196
X0201334
X0223666
X0229
X0234334
X0255666
X0261
X0266334
T18
X00711Y00151
X00831
T19
X022445Y0003725
X0224455Y0009425
X02244Y00151
Y00208
X024534
Y00151
X0245395Y0009425
X024539Y0003725
X0190895Y00162
X0169955
X0166445Y001605
X0145505
T20
X0203217Y0042777
T21
X0165762Y0041485
X0165889Y0051391
T22
X010945Y0064425
X012025Y0057425
X013465Y0072025
X014545Y0064425
X0281Y0082
X02886Y00928
X0274Y01072
X0204746Y0085334
X0204873Y0075047
X0167873
X0167746Y0085334
X006554Y0081925
Y009995
X006046
X005254Y01
X004746
Y0091
X005254
Y0082
X004746
X003654
X003146
Y0091
X003654
Y01
X003146
X006046Y0081925
X0281Y0118
T23
X0020472Y0120272
X0031392
X005296
X006388
X008579
X009671
X0118034
X0128954
T24
X0394784Y001998
X0394835Y003014
X0344035Y0030115
X0343984Y0019929
X0312536Y0015137
X0312486Y0025271
X026166Y003025
X0261711Y002009
X0151792Y0037294
X014976Y0055328
X0141886
X0229139Y0067408
X0236632Y0067535
X0261762Y0070966
X0261711Y0060806
X0312511Y0060831
X0312562Y0071017
X0312587Y0050646
Y0035381
X0343958Y00403
Y0055565
X034406Y0065675
X0394885Y0060696
X0394835Y0070856
X0344009Y0075809
X0092794Y0092555
X0082507
X0018502Y0091327
Y010009
Y008231
X0328334Y0119333
X0339129
X0360834Y0119325
X0371629
T25
X003Y000946
Y0019366
X004
Y000946
X002
Y0019366
X0405Y009
X0415
Y01
X0405
T26
X007745Y0039975
T27
X0402455Y0020107
X0402302Y0030318
X0336237Y0030089
Y0020005
X0320385Y0014959
X0320258Y0025271
X0254066Y0030123
X0253964Y0020039
X0254243Y0060628
X0254091Y0070839
X0320309Y0070941
Y0060857
X0320233Y0050671
X0320258Y0035355
X0336313Y0040275
X0336288Y0055591
Y0065675
X040248Y0060823
X0402582Y0070907
X0336161Y0075987
T28
X0232695Y0043913
T29
X00375Y01262
X0075
X01125
X0175
X02125
X025
X03125
X035
X03875
T30
X04163Y004245
Y0072295
T31
X0008723Y0071134
X000885Y011152
M30
