%TF.GenerationSoftware,Altium Limited,Altium Designer,21.6.4 (81)*%
G04 Layer_Color=16711935*
%FSLAX43Y43*%
%MOMM*%
%TF.SameCoordinates,9BCA014A-4D13-4940-A32C-4131998200A9*%
%TF.FilePolarity,Positive*%
%TF.FileFunction,Other,Bottom_Courtyard*%
%TF.Part,Single*%
G01*
G75*
%TA.AperFunction,NonConductor*%
%ADD90C,0.200*%
D90*
X187040Y37790D02*
X193460D01*
Y29460D02*
Y37790D01*
X187040Y29460D02*
X193460D01*
X187040D02*
Y37790D01*
X410367Y18310D02*
X414979D01*
X410367Y14410D02*
Y18310D01*
Y14410D02*
X414979D01*
Y18310D01*
X107137Y18238D02*
X112637D01*
X107137D02*
Y25388D01*
X112637D01*
Y18238D02*
Y25388D01*
X417789Y19283D02*
Y25989D01*
X412689D02*
X417789D01*
X412689Y19283D02*
Y25989D01*
Y19283D02*
X417789D01*
X199675Y17500D02*
Y19150D01*
X202775D01*
Y17500D02*
Y19150D01*
X199675Y17500D02*
X202775D01*
X199675Y15575D02*
Y17225D01*
X202775D01*
Y15575D02*
Y17225D01*
X199675Y15575D02*
X202775D01*
X262728Y124097D02*
Y127903D01*
X257222Y124097D02*
X262728D01*
X257222D02*
Y127903D01*
X262728D01*
X198028Y124097D02*
Y127903D01*
X192522Y124097D02*
X198028D01*
X192522D02*
Y127903D01*
X198028D01*
X160247Y128403D02*
X165753D01*
X160247Y124597D02*
Y128403D01*
Y124597D02*
X165753D01*
Y128403D01*
X225222Y127903D02*
X230728D01*
X225222Y124097D02*
Y127903D01*
Y124097D02*
X230728D01*
Y127903D01*
X230172Y30503D02*
X235678D01*
X230172Y26697D02*
Y30503D01*
Y26697D02*
X235678D01*
Y30503D01*
X83700Y9575D02*
X85350D01*
X83700D02*
Y12675D01*
X85350D01*
Y9575D02*
Y12675D01*
%TF.MD5,01bf16b832af34cb7881a604a0ba09b2*%
M02*
