%TF.GenerationSoftware,Altium Limited,Altium Designer,21.6.4 (81)*%
G04 Layer_Color=16711935*
%FSLAX43Y43*%
%MOMM*%
%TF.SameCoordinates,D4C572C6-D0EE-4933-9396-1D80D03FA8BE*%
%TF.FilePolarity,Positive*%
%TF.FileFunction,Other,Mechanical_13*%
%TF.Part,Single*%
G01*
G75*
%TA.AperFunction,NonConductor*%
%ADD144C,0.100*%
D144*
X102925Y20400D02*
Y23100D01*
X101375Y20400D02*
Y23100D01*
Y20400D02*
X102925D01*
X101375Y23100D02*
X102925D01*
X110400Y28400D02*
X113100D01*
X110400Y26850D02*
X113100D01*
Y28400D01*
X110400Y26850D02*
Y28400D01*
X63300Y11475D02*
X66000D01*
X63300Y9925D02*
X66000D01*
Y11475D01*
X63300Y9925D02*
Y11475D01*
X235275Y20650D02*
Y23350D01*
X233725Y20650D02*
Y23350D01*
Y20650D02*
X235275D01*
X233725Y23350D02*
X235275D01*
X235600Y20650D02*
Y23350D01*
X237150Y20650D02*
Y23350D01*
X235600D02*
X237150D01*
X235600Y20650D02*
X237150D01*
X232250D02*
Y23350D01*
X230700Y20650D02*
Y23350D01*
Y20650D02*
X232250D01*
X230700Y23350D02*
X232250D01*
X228825Y20650D02*
Y23350D01*
X230375Y20650D02*
Y23350D01*
X228825D02*
X230375D01*
X228825Y20650D02*
X230375D01*
%TF.MD5,e6a3a50f429f2b9dad3aaa3230e658a1*%
M02*
