%TF.GenerationSoftware,Altium Limited,Altium Designer,21.6.4 (81)*%
G04 Layer_Color=32768*
%FSLAX43Y43*%
%MOMM*%
%TF.SameCoordinates,D4C572C6-D0EE-4933-9396-1D80D03FA8BE*%
%TF.FilePolarity,Positive*%
%TF.FileFunction,Other,Mechanical_15*%
%TF.Part,Single*%
G01*
G75*
%TA.AperFunction,NonConductor*%
%ADD98C,0.200*%
%ADD144C,0.100*%
%ADD151C,0.050*%
D98*
X94558Y19424D02*
X96108D01*
X94558Y16024D02*
Y19424D01*
Y16024D02*
X96108D01*
Y19424D01*
X397395Y4065D02*
Y9225D01*
X407375D01*
Y4065D02*
Y9225D01*
X397395Y4065D02*
X407375D01*
X418294Y22469D02*
Y25869D01*
X419844D01*
Y22469D02*
Y25869D01*
X418294Y22469D02*
X419844D01*
X100770Y29010D02*
X105930D01*
X100770D02*
Y38990D01*
X105930D01*
Y29010D02*
Y38990D01*
X111024Y29010D02*
Y38990D01*
X105864D02*
X111024D01*
X105864Y29010D02*
Y38990D01*
Y29010D02*
X111024D01*
X116135D02*
Y38990D01*
X110975D02*
X116135D01*
X110975Y29010D02*
Y38990D01*
Y29010D02*
X116135D01*
X197500Y15650D02*
X199050D01*
Y19050D01*
X197500D02*
X199050D01*
X197500Y15650D02*
Y19050D01*
X185205Y10867D02*
Y27087D01*
X174345Y10867D02*
X185205D01*
X174345D02*
Y27087D01*
X185205D01*
X176430Y4625D02*
Y9785D01*
X166450Y4625D02*
X176430D01*
X166450D02*
Y9785D01*
X176430D01*
X96971Y19398D02*
X98521D01*
X96971Y15998D02*
Y19398D01*
Y15998D02*
X98521D01*
Y19398D01*
D144*
X94833Y17724D02*
X95833D01*
X95333Y17224D02*
Y18224D01*
X402385Y6145D02*
Y7145D01*
X401885Y6645D02*
X402885D01*
X419069Y23669D02*
Y24669D01*
X418569Y24169D02*
X419569D01*
X102850Y34000D02*
X103850D01*
X103350Y33500D02*
Y34500D01*
X108444Y33500D02*
Y34500D01*
X107944Y34000D02*
X108944D01*
X113555Y33500D02*
Y34500D01*
X113055Y34000D02*
X114055D01*
X197775Y17350D02*
X198775D01*
X198275Y16850D02*
Y17850D01*
X179775Y18477D02*
Y19477D01*
X179275Y18977D02*
X180275D01*
X171440Y6705D02*
Y7705D01*
X170940Y7205D02*
X171940D01*
X97246Y17698D02*
X98246D01*
X97746Y17198D02*
Y18198D01*
X102150Y21250D02*
Y22250D01*
X101650Y21750D02*
X102650D01*
X111250Y27625D02*
X112250D01*
X111750Y27125D02*
Y28125D01*
X64150Y10700D02*
X65150D01*
X64650Y10200D02*
Y11200D01*
X234500Y21500D02*
Y22500D01*
X234000Y22000D02*
X235000D01*
X236375Y21500D02*
Y22500D01*
X235875Y22000D02*
X236875D01*
X231475Y21500D02*
Y22500D01*
X230975Y22000D02*
X231975D01*
X229600Y21500D02*
Y22500D01*
X229100Y22000D02*
X230100D01*
D151*
X103025Y19625D02*
Y23875D01*
X101275D02*
X103025D01*
X101275Y19625D02*
Y23875D01*
Y19625D02*
X103025D01*
X109625Y28500D02*
X113875D01*
X109625Y26750D02*
Y28500D01*
Y26750D02*
X113875D01*
Y28500D01*
X62525Y11575D02*
X66775D01*
X62525Y9825D02*
Y11575D01*
Y9825D02*
X66775D01*
Y11575D01*
X235375Y19875D02*
Y24125D01*
X233625D02*
X235375D01*
X233625Y19875D02*
Y24125D01*
Y19875D02*
X235375D01*
X235500D02*
Y24125D01*
Y19875D02*
X237250D01*
Y24125D01*
X235500D02*
X237250D01*
X232350Y19875D02*
Y24125D01*
X230600D02*
X232350D01*
X230600Y19875D02*
Y24125D01*
Y19875D02*
X232350D01*
X228725D02*
Y24125D01*
Y19875D02*
X230475D01*
Y24125D01*
X228725D02*
X230475D01*
%TF.MD5,0ce0663709127be668e4681c5a21eddf*%
M02*
