%TF.GenerationSoftware,Altium Limited,Altium Designer,21.6.4 (81)*%
G04 Layer_Color=32896*
%FSLAX43Y43*%
%MOMM*%
%TF.SameCoordinates,D4C572C6-D0EE-4933-9396-1D80D03FA8BE*%
%TF.FilePolarity,Positive*%
%TF.FileFunction,Other,Top_Courtyard*%
%TF.Part,Single*%
G01*
G75*
%TA.AperFunction,NonConductor*%
%ADD98C,0.200*%
%ADD151C,0.050*%
D98*
X177075Y8025D02*
G03*
X185775Y8025I4350J0D01*
G01*
D02*
G03*
X177075Y8025I-4350J0D01*
G01*
X196125Y24175D02*
G03*
X204825Y24175I4350J0D01*
G01*
D02*
G03*
X196125Y24175I-4350J0D01*
G01*
X203325Y60325D02*
G03*
X203325Y47125I0J-6600D01*
G01*
D02*
G03*
X203325Y60325I0J6600D01*
G01*
X184500Y29045D02*
Y59905D01*
X195200D01*
Y29045D02*
Y59905D01*
X184500Y29045D02*
X195200D01*
X20788Y65800D02*
Y116600D01*
X-2834Y65800D02*
X20788D01*
X-2834D02*
Y116600D01*
X20788D01*
X192095Y13450D02*
Y18950D01*
X168755D02*
X192095D01*
X168755Y13450D02*
Y18950D01*
Y13450D02*
X192095D01*
X413500Y28250D02*
X422050D01*
Y26350D02*
Y28250D01*
X413500Y26350D02*
X422050D01*
X413500D02*
Y28250D01*
X91225Y26525D02*
X99775D01*
X91225D02*
Y28425D01*
X99775D01*
Y26525D02*
Y28425D01*
X144305Y13300D02*
Y18800D01*
Y13300D02*
X167645D01*
Y18800D01*
X144305D02*
X167645D01*
X223200Y23550D02*
X246540D01*
Y18050D02*
Y23550D01*
X223200Y18050D02*
X246540D01*
X223200D02*
Y23550D01*
Y12350D02*
X246540D01*
X223200D02*
Y17850D01*
X246540D01*
Y12350D02*
Y17850D01*
X223255Y12175D02*
X246595D01*
Y6675D02*
Y12175D01*
X223255Y6675D02*
X246595D01*
X223255D02*
Y12175D01*
X223250Y975D02*
X246590D01*
X223250D02*
Y6475D01*
X246590D01*
Y975D02*
Y6475D01*
X106650Y76570D02*
X117350D01*
Y107430D01*
X106650D02*
X117350D01*
X106650Y76570D02*
Y107430D01*
X118650Y76570D02*
X129350D01*
Y107430D01*
X118650D02*
X129350D01*
X118650Y76570D02*
Y107430D01*
X130650Y76570D02*
X141350D01*
Y107430D01*
X130650D02*
X141350D01*
X130650Y76570D02*
Y107430D01*
X50385Y117745D02*
X66455D01*
Y123255D01*
X50385D02*
X66455D01*
X50385Y117745D02*
Y123255D01*
X172825Y29045D02*
Y59905D01*
X183525D01*
Y29045D02*
Y59905D01*
X172825Y29045D02*
X183525D01*
X83215Y117745D02*
Y123255D01*
X99285D01*
Y117745D02*
Y123255D01*
X83215Y117745D02*
X99285D01*
X115459D02*
Y123255D01*
X131529D01*
Y117745D02*
Y123255D01*
X115459Y117745D02*
X131529D01*
X17897D02*
Y123255D01*
X33967D01*
Y117745D02*
Y123255D01*
X17897Y117745D02*
X33967D01*
D151*
X64435Y7525D02*
Y8525D01*
X63935Y8025D02*
X64935D01*
X59235Y11975D02*
X69635D01*
Y4075D02*
Y11975D01*
X59235Y4075D02*
X69635D01*
X59235D02*
Y11975D01*
X168350Y24225D02*
Y25225D01*
X167850Y24725D02*
X168850D01*
X163150Y19775D02*
X173550D01*
X163150D02*
Y29675D01*
X173550D01*
Y19775D02*
Y29675D01*
X194500Y3325D02*
Y12725D01*
Y3325D02*
X206100D01*
Y12725D01*
X194500D02*
X206100D01*
X88388Y8000D02*
Y9000D01*
X87888Y8500D02*
X88888D01*
X96378Y5325D02*
Y11675D01*
X80398D02*
X96378D01*
X80398Y5325D02*
Y11675D01*
Y5325D02*
X96378D01*
X104771Y8000D02*
Y9000D01*
X104271Y8500D02*
X105271D01*
X112761Y5325D02*
Y11675D01*
X96781D02*
X112761D01*
X96781Y5325D02*
Y11675D01*
Y5325D02*
X112761D01*
X204500Y3300D02*
Y12700D01*
Y3300D02*
X221100D01*
Y12700D01*
X204500D02*
X221100D01*
X212300Y8000D02*
X213300D01*
X212800Y7500D02*
Y8500D01*
X124625Y7500D02*
Y8500D01*
X124125Y8000D02*
X125125D01*
X119425Y11950D02*
X129825D01*
Y4050D02*
Y11950D01*
X119425Y4050D02*
X129825D01*
X119425D02*
Y11950D01*
%TF.MD5,547e462cb6293a6b137b9ced48e27d85*%
M02*
