%TF.GenerationSoftware,Altium Limited,Altium Designer,21.6.4 (81)*%
G04 Layer_Color=16711935*
%FSLAX43Y43*%
%MOMM*%
%TF.SameCoordinates,9BCA014A-4D13-4940-A32C-4131998200A9*%
%TF.FilePolarity,Positive*%
%TF.FileFunction,Keep-out,Top*%
%TF.Part,Single*%
G01*
G75*
%TA.AperFunction,NonConductor*%
%ADD91C,0.254*%
D91*
X300525Y88575D02*
G03*
X297525Y88575I-1500J0D01*
G01*
X290750Y8425D02*
G03*
X293750Y8425I1500J0D01*
G01*
X283500Y7500D02*
G03*
X283500Y7500I-2000J0D01*
G01*
X146500D02*
G03*
X146500Y7500I-2000J0D01*
G01*
Y142500D02*
G03*
X146500Y142500I-2000J0D01*
G01*
X283500D02*
G03*
X283500Y142500I-2000J0D01*
G01*
X9500Y7500D02*
G03*
X9500Y7500I-2000J0D01*
G01*
Y142500D02*
G03*
X9500Y142500I-2000J0D01*
G01*
X420500D02*
G03*
X420500Y142500I-2000J0D01*
G01*
Y7500D02*
G03*
X420500Y7500I-2000J0D01*
G01*
X0D02*
G03*
X7500Y0I7500J0D01*
G01*
Y150000D02*
G03*
X0Y142500I0J-7500D01*
G01*
X417500Y0D02*
G03*
X425000Y7500I0J7500D01*
G01*
Y142500D02*
G03*
X417500Y150000I-7500J0D01*
G01*
X300525Y82300D02*
Y86775D01*
X297525Y83543D02*
Y88018D01*
X300525Y86775D02*
Y88575D01*
X290550Y72325D02*
X300525Y82300D01*
X297525Y88018D02*
Y88575D01*
X287675Y73693D02*
X297525Y83543D01*
X293750Y8425D02*
Y12265D01*
X290550Y15465D02*
X293750Y12265D01*
X290750Y8425D02*
Y11025D01*
X287675Y14100D02*
X290750Y11025D01*
X290550Y72325D02*
X290550Y15465D01*
X287675Y73693D02*
X287675Y14100D01*
X425000Y142474D02*
X425000Y7480D01*
X7500Y150000D02*
X417500Y150000D01*
X-0Y142500D02*
X-0Y7500D01*
X7500Y-0D02*
X417500Y0D01*
%TF.MD5,9b518421a40ebee99b20770b435ef8d1*%
M02*
