%TF.GenerationSoftware,Altium Limited,Altium Designer,21.6.4 (81)*%
G04 Layer_Color=8388736*
%FSLAX43Y43*%
%MOMM*%
%TF.SameCoordinates,D4C572C6-D0EE-4933-9396-1D80D03FA8BE*%
%TF.FilePolarity,Positive*%
%TF.FileFunction,Other,Top_Assembly*%
%TF.Part,Single*%
G01*
G75*
%TA.AperFunction,NonConductor*%
%ADD98C,0.200*%
%ADD144C,0.100*%
%ADD152R,1.300X3.675*%
G36*
X181742Y8686D02*
X181750Y8685D01*
X181761Y8684D01*
X181771Y8683D01*
X181783Y8681D01*
X181808Y8675D01*
X181835Y8667D01*
X181849Y8661D01*
X181862Y8655D01*
X181875Y8646D01*
X181888Y8638D01*
X181889Y8637D01*
X181891Y8636D01*
X181895Y8633D01*
X181899Y8629D01*
X181904Y8624D01*
X181910Y8618D01*
X181917Y8610D01*
X181924Y8603D01*
X181932Y8594D01*
X181939Y8582D01*
X181947Y8571D01*
X181955Y8559D01*
X181961Y8546D01*
X181969Y8532D01*
X181974Y8517D01*
X181980Y8500D01*
X181897Y8481D01*
Y8482D01*
X181896Y8484D01*
X181894Y8487D01*
X181892Y8492D01*
X181890Y8497D01*
X181887Y8505D01*
X181880Y8520D01*
X181871Y8536D01*
X181860Y8553D01*
X181846Y8569D01*
X181831Y8582D01*
X181829Y8584D01*
X181823Y8588D01*
X181814Y8593D01*
X181802Y8599D01*
X181786Y8605D01*
X181769Y8610D01*
X181748Y8614D01*
X181725Y8615D01*
X181717D01*
X181713Y8614D01*
X181706D01*
X181699Y8613D01*
X181681Y8610D01*
X181662Y8607D01*
X181641Y8600D01*
X181620Y8591D01*
X181601Y8579D01*
X181600D01*
X181599Y8577D01*
X181592Y8572D01*
X181584Y8565D01*
X181574Y8554D01*
X181562Y8540D01*
X181551Y8524D01*
X181541Y8505D01*
X181531Y8484D01*
Y8483D01*
X181530Y8481D01*
X181529Y8478D01*
X181529Y8473D01*
X181527Y8468D01*
X181525Y8461D01*
X181522Y8446D01*
X181518Y8427D01*
X181515Y8407D01*
X181513Y8385D01*
X181512Y8361D01*
Y8360D01*
Y8357D01*
Y8352D01*
Y8347D01*
X181513Y8340D01*
Y8332D01*
X181514Y8323D01*
X181515Y8313D01*
X181517Y8290D01*
X181522Y8266D01*
X181528Y8242D01*
X181535Y8218D01*
Y8217D01*
X181536Y8215D01*
X181538Y8213D01*
X181540Y8208D01*
X181545Y8197D01*
X181553Y8184D01*
X181564Y8169D01*
X181577Y8153D01*
X181591Y8140D01*
X181609Y8127D01*
X181610D01*
X181612Y8126D01*
X181615Y8124D01*
X181618Y8122D01*
X181623Y8120D01*
X181628Y8117D01*
X181641Y8112D01*
X181658Y8106D01*
X181676Y8102D01*
X181697Y8098D01*
X181718Y8097D01*
X181725D01*
X181730Y8098D01*
X181737D01*
X181743Y8099D01*
X181760Y8103D01*
X181779Y8107D01*
X181799Y8115D01*
X181819Y8125D01*
X181829Y8130D01*
X181838Y8138D01*
X181839Y8139D01*
X181840Y8140D01*
X181843Y8142D01*
X181847Y8145D01*
X181850Y8150D01*
X181855Y8155D01*
X181860Y8161D01*
X181865Y8168D01*
X181871Y8177D01*
X181877Y8186D01*
X181883Y8195D01*
X181888Y8206D01*
X181893Y8218D01*
X181897Y8231D01*
X181902Y8245D01*
X181906Y8260D01*
X181991Y8239D01*
Y8238D01*
X181990Y8234D01*
X181988Y8228D01*
X181985Y8221D01*
X181982Y8213D01*
X181979Y8203D01*
X181974Y8191D01*
X181969Y8179D01*
X181956Y8153D01*
X181939Y8128D01*
X181929Y8115D01*
X181919Y8102D01*
X181908Y8091D01*
X181895Y8080D01*
X181894Y8079D01*
X181892Y8077D01*
X181887Y8075D01*
X181883Y8071D01*
X181875Y8067D01*
X181868Y8062D01*
X181858Y8057D01*
X181848Y8053D01*
X181835Y8047D01*
X181823Y8043D01*
X181809Y8038D01*
X181794Y8033D01*
X181778Y8030D01*
X181762Y8028D01*
X181744Y8026D01*
X181725Y8025D01*
X181715D01*
X181708Y8026D01*
X181700D01*
X181689Y8027D01*
X181678Y8029D01*
X181665Y8031D01*
X181639Y8035D01*
X181611Y8043D01*
X181583Y8053D01*
X181570Y8059D01*
X181557Y8067D01*
X181556Y8068D01*
X181554Y8068D01*
X181551Y8071D01*
X181547Y8075D01*
X181541Y8079D01*
X181535Y8084D01*
X181528Y8091D01*
X181520Y8098D01*
X181513Y8106D01*
X181505Y8115D01*
X181488Y8136D01*
X181472Y8161D01*
X181458Y8189D01*
Y8190D01*
X181456Y8192D01*
X181456Y8197D01*
X181453Y8203D01*
X181451Y8210D01*
X181448Y8219D01*
X181444Y8229D01*
X181442Y8240D01*
X181439Y8252D01*
X181435Y8266D01*
X181431Y8295D01*
X181427Y8327D01*
X181425Y8361D01*
Y8362D01*
Y8365D01*
Y8371D01*
X181426Y8377D01*
Y8386D01*
X181427Y8396D01*
X181428Y8408D01*
X181430Y8420D01*
X181434Y8447D01*
X181441Y8476D01*
X181450Y8506D01*
X181463Y8534D01*
X181464Y8535D01*
X181465Y8538D01*
X181467Y8542D01*
X181470Y8546D01*
X181474Y8553D01*
X181479Y8560D01*
X181491Y8577D01*
X181506Y8595D01*
X181525Y8614D01*
X181546Y8632D01*
X181571Y8648D01*
X181572Y8649D01*
X181575Y8650D01*
X181578Y8652D01*
X181583Y8655D01*
X181590Y8657D01*
X181598Y8660D01*
X181607Y8664D01*
X181617Y8668D01*
X181628Y8671D01*
X181640Y8675D01*
X181666Y8681D01*
X181696Y8685D01*
X181726Y8687D01*
X181736D01*
X181742Y8686D01*
D02*
G37*
G36*
X182954Y8593D02*
X182698D01*
X182664Y8420D01*
X182665Y8421D01*
X182667Y8422D01*
X182669Y8423D01*
X182674Y8426D01*
X182680Y8429D01*
X182686Y8433D01*
X182701Y8440D01*
X182719Y8448D01*
X182740Y8454D01*
X182762Y8459D01*
X182773Y8460D01*
X182793D01*
X182799Y8460D01*
X182806Y8459D01*
X182815Y8458D01*
X182824Y8456D01*
X182834Y8453D01*
X182856Y8447D01*
X182868Y8442D01*
X182880Y8435D01*
X182892Y8429D01*
X182904Y8422D01*
X182915Y8412D01*
X182926Y8402D01*
X182927Y8401D01*
X182929Y8399D01*
X182932Y8397D01*
X182936Y8392D01*
X182940Y8386D01*
X182945Y8379D01*
X182951Y8371D01*
X182956Y8362D01*
X182961Y8351D01*
X182966Y8340D01*
X182971Y8327D01*
X182975Y8314D01*
X182979Y8300D01*
X182982Y8285D01*
X182984Y8269D01*
X182985Y8252D01*
Y8252D01*
Y8249D01*
Y8244D01*
X182984Y8238D01*
X182983Y8230D01*
X182982Y8222D01*
X182980Y8212D01*
X182978Y8202D01*
X182973Y8178D01*
X182963Y8153D01*
X182958Y8140D01*
X182951Y8128D01*
X182943Y8115D01*
X182934Y8103D01*
X182933Y8102D01*
X182931Y8099D01*
X182927Y8095D01*
X182923Y8091D01*
X182916Y8085D01*
X182909Y8078D01*
X182900Y8071D01*
X182889Y8064D01*
X182878Y8056D01*
X182865Y8050D01*
X182852Y8043D01*
X182837Y8037D01*
X182821Y8032D01*
X182804Y8029D01*
X182785Y8026D01*
X182766Y8025D01*
X182757D01*
X182751Y8026D01*
X182743Y8027D01*
X182735Y8028D01*
X182725Y8029D01*
X182715Y8031D01*
X182692Y8037D01*
X182669Y8045D01*
X182656Y8051D01*
X182644Y8057D01*
X182633Y8065D01*
X182622Y8073D01*
X182621Y8074D01*
X182620Y8075D01*
X182618Y8079D01*
X182614Y8082D01*
X182609Y8087D01*
X182605Y8092D01*
X182599Y8100D01*
X182595Y8108D01*
X182589Y8117D01*
X182583Y8127D01*
X182573Y8149D01*
X182565Y8175D01*
X182562Y8189D01*
X182560Y8203D01*
X182643Y8210D01*
Y8209D01*
Y8207D01*
X182644Y8204D01*
X182644Y8200D01*
X182647Y8190D01*
X182651Y8176D01*
X182656Y8162D01*
X182664Y8146D01*
X182673Y8132D01*
X182684Y8119D01*
X182686Y8118D01*
X182690Y8115D01*
X182697Y8110D01*
X182707Y8104D01*
X182718Y8099D01*
X182732Y8094D01*
X182748Y8091D01*
X182766Y8090D01*
X182771D01*
X182775Y8091D01*
X182786Y8092D01*
X182799Y8095D01*
X182815Y8100D01*
X182830Y8107D01*
X182847Y8118D01*
X182854Y8125D01*
X182862Y8132D01*
X182863Y8133D01*
X182864Y8134D01*
X182865Y8137D01*
X182868Y8140D01*
X182875Y8150D01*
X182882Y8163D01*
X182889Y8178D01*
X182895Y8198D01*
X182900Y8221D01*
X182902Y8233D01*
Y8246D01*
Y8247D01*
Y8249D01*
Y8252D01*
X182901Y8257D01*
Y8263D01*
X182900Y8269D01*
X182897Y8284D01*
X182892Y8301D01*
X182886Y8319D01*
X182877Y8336D01*
X182864Y8351D01*
Y8352D01*
X182862Y8353D01*
X182857Y8358D01*
X182849Y8364D01*
X182838Y8372D01*
X182823Y8378D01*
X182806Y8385D01*
X182787Y8389D01*
X182776Y8391D01*
X182758D01*
X182751Y8390D01*
X182742Y8389D01*
X182730Y8386D01*
X182719Y8384D01*
X182707Y8379D01*
X182695Y8374D01*
X182694Y8373D01*
X182691Y8371D01*
X182685Y8366D01*
X182678Y8362D01*
X182670Y8355D01*
X182663Y8347D01*
X182655Y8338D01*
X182648Y8328D01*
X182574Y8338D01*
X182636Y8668D01*
X182954D01*
Y8593D01*
D02*
G37*
G36*
X182359Y8036D02*
X182280D01*
Y8536D01*
X182279Y8535D01*
X182275Y8532D01*
X182269Y8526D01*
X182260Y8520D01*
X182250Y8511D01*
X182237Y8502D01*
X182222Y8492D01*
X182205Y8482D01*
X182204D01*
X182203Y8481D01*
X182198Y8477D01*
X182189Y8472D01*
X182178Y8467D01*
X182165Y8460D01*
X182151Y8454D01*
X182137Y8448D01*
X182123Y8442D01*
Y8518D01*
X182124D01*
X182126Y8520D01*
X182130Y8521D01*
X182134Y8523D01*
X182140Y8526D01*
X182146Y8530D01*
X182162Y8539D01*
X182180Y8549D01*
X182199Y8562D01*
X182218Y8577D01*
X182238Y8593D01*
X182239Y8594D01*
X182240Y8595D01*
X182242Y8597D01*
X182246Y8600D01*
X182254Y8609D01*
X182265Y8620D01*
X182277Y8633D01*
X182289Y8648D01*
X182299Y8663D01*
X182308Y8679D01*
X182359D01*
Y8036D01*
D02*
G37*
G36*
X179754Y15549D02*
X179457D01*
X179450Y15550D01*
X179441D01*
X179422Y15551D01*
X179402Y15554D01*
X179379Y15557D01*
X179359Y15561D01*
X179349Y15564D01*
X179340Y15567D01*
X179340D01*
X179339Y15568D01*
X179333Y15570D01*
X179325Y15574D01*
X179315Y15581D01*
X179304Y15589D01*
X179292Y15600D01*
X179280Y15613D01*
X179269Y15628D01*
Y15629D01*
X179268Y15630D01*
X179265Y15635D01*
X179261Y15644D01*
X179255Y15656D01*
X179251Y15670D01*
X179246Y15687D01*
X179243Y15704D01*
X179242Y15724D01*
Y15725D01*
Y15727D01*
Y15730D01*
X179243Y15735D01*
Y15741D01*
X179244Y15748D01*
X179248Y15764D01*
X179254Y15782D01*
X179261Y15802D01*
X179272Y15821D01*
X179279Y15830D01*
X179287Y15839D01*
X179288Y15840D01*
X179289Y15841D01*
X179292Y15844D01*
X179295Y15847D01*
X179300Y15851D01*
X179305Y15854D01*
X179313Y15859D01*
X179320Y15864D01*
X179329Y15869D01*
X179340Y15874D01*
X179351Y15879D01*
X179363Y15884D01*
X179377Y15887D01*
X179390Y15892D01*
X179406Y15895D01*
X179423Y15898D01*
X179421Y15899D01*
X179417Y15900D01*
X179412Y15904D01*
X179404Y15908D01*
X179388Y15918D01*
X179379Y15924D01*
X179372Y15930D01*
X179370Y15932D01*
X179365Y15936D01*
X179358Y15944D01*
X179349Y15953D01*
X179339Y15966D01*
X179327Y15980D01*
X179315Y15997D01*
X179302Y16015D01*
X179192Y16189D01*
X179297D01*
X179381Y16056D01*
Y16055D01*
X179383Y16053D01*
X179385Y16050D01*
X179388Y16047D01*
X179394Y16036D01*
X179402Y16023D01*
X179413Y16010D01*
X179423Y15995D01*
X179433Y15981D01*
X179442Y15968D01*
X179443Y15967D01*
X179446Y15963D01*
X179451Y15958D01*
X179457Y15951D01*
X179471Y15937D01*
X179478Y15931D01*
X179486Y15925D01*
X179487Y15924D01*
X179488Y15924D01*
X179492Y15922D01*
X179498Y15919D01*
X179503Y15916D01*
X179510Y15913D01*
X179524Y15909D01*
X179525D01*
X179527Y15908D01*
X179531D01*
X179536Y15907D01*
X179542Y15906D01*
X179549D01*
X179560Y15905D01*
X179669D01*
Y16189D01*
X179754D01*
Y15549D01*
D02*
G37*
G36*
X180142Y16199D02*
X180150D01*
X180161Y16198D01*
X180172Y16196D01*
X180185Y16194D01*
X180211Y16190D01*
X180239Y16182D01*
X180267Y16172D01*
X180280Y16166D01*
X180293Y16158D01*
X180294Y16157D01*
X180296Y16157D01*
X180299Y16154D01*
X180303Y16150D01*
X180309Y16146D01*
X180315Y16141D01*
X180322Y16134D01*
X180330Y16127D01*
X180337Y16119D01*
X180346Y16110D01*
X180362Y16089D01*
X180378Y16064D01*
X180392Y16036D01*
Y16035D01*
X180394Y16033D01*
X180395Y16028D01*
X180397Y16022D01*
X180399Y16015D01*
X180402Y16006D01*
X180406Y15996D01*
X180408Y15985D01*
X180411Y15973D01*
X180415Y15959D01*
X180419Y15930D01*
X180423Y15898D01*
X180425Y15864D01*
Y15863D01*
Y15860D01*
Y15854D01*
X180424Y15848D01*
Y15839D01*
X180423Y15829D01*
X180422Y15817D01*
X180420Y15805D01*
X180416Y15778D01*
X180409Y15749D01*
X180400Y15719D01*
X180387Y15691D01*
X180386Y15690D01*
X180385Y15687D01*
X180383Y15683D01*
X180380Y15679D01*
X180376Y15672D01*
X180371Y15665D01*
X180359Y15648D01*
X180344Y15630D01*
X180325Y15611D01*
X180304Y15593D01*
X180279Y15577D01*
X180278Y15576D01*
X180275Y15575D01*
X180272Y15573D01*
X180267Y15570D01*
X180260Y15568D01*
X180252Y15565D01*
X180243Y15561D01*
X180233Y15557D01*
X180222Y15554D01*
X180210Y15550D01*
X180184Y15544D01*
X180154Y15540D01*
X180124Y15538D01*
X180114D01*
X180108Y15539D01*
X180100Y15540D01*
X180089Y15541D01*
X180079Y15542D01*
X180067Y15544D01*
X180042Y15550D01*
X180015Y15558D01*
X180001Y15564D01*
X179988Y15570D01*
X179975Y15579D01*
X179962Y15587D01*
X179961Y15588D01*
X179959Y15589D01*
X179955Y15592D01*
X179951Y15596D01*
X179946Y15601D01*
X179940Y15607D01*
X179933Y15615D01*
X179926Y15622D01*
X179918Y15631D01*
X179911Y15642D01*
X179903Y15654D01*
X179895Y15666D01*
X179889Y15679D01*
X179881Y15693D01*
X179876Y15708D01*
X179870Y15725D01*
X179953Y15744D01*
Y15743D01*
X179954Y15741D01*
X179956Y15738D01*
X179958Y15733D01*
X179960Y15728D01*
X179963Y15720D01*
X179970Y15705D01*
X179979Y15689D01*
X179990Y15672D01*
X180004Y15656D01*
X180019Y15642D01*
X180021Y15641D01*
X180027Y15637D01*
X180036Y15632D01*
X180048Y15626D01*
X180064Y15620D01*
X180081Y15615D01*
X180102Y15611D01*
X180125Y15610D01*
X180133D01*
X180137Y15611D01*
X180144D01*
X180151Y15612D01*
X180169Y15615D01*
X180188Y15618D01*
X180209Y15625D01*
X180230Y15634D01*
X180249Y15646D01*
X180250D01*
X180251Y15648D01*
X180258Y15653D01*
X180266Y15660D01*
X180276Y15671D01*
X180288Y15685D01*
X180299Y15701D01*
X180309Y15720D01*
X180319Y15741D01*
Y15742D01*
X180320Y15744D01*
X180321Y15747D01*
X180321Y15752D01*
X180323Y15757D01*
X180325Y15764D01*
X180328Y15779D01*
X180332Y15798D01*
X180335Y15818D01*
X180337Y15840D01*
X180338Y15864D01*
Y15865D01*
Y15868D01*
Y15873D01*
Y15878D01*
X180337Y15885D01*
Y15893D01*
X180336Y15902D01*
X180335Y15912D01*
X180333Y15935D01*
X180328Y15959D01*
X180322Y15983D01*
X180315Y16007D01*
Y16008D01*
X180314Y16010D01*
X180312Y16012D01*
X180310Y16017D01*
X180305Y16028D01*
X180296Y16041D01*
X180286Y16056D01*
X180273Y16071D01*
X180259Y16085D01*
X180241Y16098D01*
X180240D01*
X180238Y16099D01*
X180235Y16101D01*
X180232Y16103D01*
X180227Y16105D01*
X180222Y16108D01*
X180209Y16113D01*
X180192Y16119D01*
X180174Y16123D01*
X180153Y16127D01*
X180132Y16128D01*
X180125D01*
X180120Y16127D01*
X180113D01*
X180107Y16126D01*
X180090Y16122D01*
X180071Y16118D01*
X180051Y16110D01*
X180031Y16100D01*
X180021Y16095D01*
X180012Y16087D01*
X180011Y16086D01*
X180010Y16085D01*
X180007Y16083D01*
X180003Y16080D01*
X180000Y16075D01*
X179995Y16070D01*
X179990Y16064D01*
X179985Y16057D01*
X179979Y16048D01*
X179973Y16039D01*
X179967Y16030D01*
X179962Y16019D01*
X179957Y16007D01*
X179953Y15994D01*
X179948Y15980D01*
X179944Y15965D01*
X179859Y15986D01*
Y15987D01*
X179860Y15991D01*
X179862Y15997D01*
X179865Y16004D01*
X179867Y16012D01*
X179871Y16022D01*
X179876Y16034D01*
X179881Y16046D01*
X179894Y16071D01*
X179911Y16097D01*
X179921Y16110D01*
X179931Y16123D01*
X179942Y16134D01*
X179955Y16145D01*
X179956Y16146D01*
X179958Y16148D01*
X179963Y16150D01*
X179967Y16154D01*
X179975Y16158D01*
X179982Y16163D01*
X179992Y16168D01*
X180002Y16172D01*
X180015Y16178D01*
X180027Y16182D01*
X180041Y16187D01*
X180056Y16192D01*
X180072Y16195D01*
X180088Y16197D01*
X180106Y16199D01*
X180125Y16200D01*
X180135D01*
X180142Y16199D01*
D02*
G37*
G36*
X178924Y15689D02*
X178925Y15690D01*
X178930Y15693D01*
X178936Y15699D01*
X178945Y15705D01*
X178955Y15714D01*
X178968Y15723D01*
X178983Y15733D01*
X178999Y15743D01*
X179000D01*
X179001Y15744D01*
X179007Y15748D01*
X179016Y15753D01*
X179027Y15758D01*
X179040Y15765D01*
X179054Y15771D01*
X179068Y15777D01*
X179082Y15783D01*
Y15707D01*
X179081D01*
X179079Y15705D01*
X179075Y15704D01*
X179071Y15702D01*
X179065Y15699D01*
X179059Y15695D01*
X179043Y15686D01*
X179024Y15676D01*
X179006Y15663D01*
X178986Y15648D01*
X178967Y15632D01*
X178966Y15631D01*
X178965Y15630D01*
X178962Y15628D01*
X178959Y15625D01*
X178950Y15616D01*
X178939Y15605D01*
X178928Y15592D01*
X178916Y15577D01*
X178906Y15562D01*
X178897Y15546D01*
X178846D01*
Y16189D01*
X178924D01*
Y15689D01*
D02*
G37*
G36*
X156292Y16711D02*
X156300Y16710D01*
X156311Y16709D01*
X156321Y16708D01*
X156333Y16705D01*
X156358Y16700D01*
X156385Y16692D01*
X156399Y16686D01*
X156412Y16680D01*
X156425Y16671D01*
X156438Y16663D01*
X156439Y16662D01*
X156441Y16661D01*
X156445Y16658D01*
X156449Y16654D01*
X156454Y16649D01*
X156460Y16643D01*
X156467Y16635D01*
X156474Y16628D01*
X156482Y16619D01*
X156489Y16608D01*
X156497Y16596D01*
X156505Y16584D01*
X156511Y16571D01*
X156519Y16557D01*
X156524Y16542D01*
X156530Y16525D01*
X156447Y16506D01*
Y16507D01*
X156446Y16509D01*
X156444Y16512D01*
X156442Y16517D01*
X156440Y16522D01*
X156437Y16530D01*
X156430Y16545D01*
X156421Y16561D01*
X156410Y16578D01*
X156396Y16594D01*
X156381Y16608D01*
X156379Y16609D01*
X156373Y16613D01*
X156364Y16618D01*
X156352Y16624D01*
X156336Y16630D01*
X156319Y16635D01*
X156298Y16639D01*
X156275Y16640D01*
X156267D01*
X156263Y16639D01*
X156256D01*
X156249Y16638D01*
X156231Y16635D01*
X156212Y16632D01*
X156191Y16625D01*
X156170Y16616D01*
X156151Y16604D01*
X156150D01*
X156149Y16602D01*
X156142Y16597D01*
X156134Y16590D01*
X156124Y16579D01*
X156112Y16565D01*
X156101Y16549D01*
X156091Y16530D01*
X156081Y16509D01*
Y16508D01*
X156080Y16506D01*
X156079Y16503D01*
X156079Y16498D01*
X156077Y16493D01*
X156075Y16486D01*
X156072Y16471D01*
X156068Y16452D01*
X156065Y16432D01*
X156063Y16410D01*
X156062Y16386D01*
Y16385D01*
Y16382D01*
Y16377D01*
Y16372D01*
X156063Y16365D01*
Y16357D01*
X156064Y16348D01*
X156065Y16338D01*
X156067Y16315D01*
X156072Y16291D01*
X156078Y16267D01*
X156085Y16243D01*
Y16242D01*
X156086Y16240D01*
X156088Y16238D01*
X156090Y16233D01*
X156095Y16222D01*
X156104Y16209D01*
X156114Y16194D01*
X156127Y16178D01*
X156141Y16165D01*
X156159Y16152D01*
X156160D01*
X156162Y16151D01*
X156165Y16149D01*
X156168Y16147D01*
X156173Y16145D01*
X156178Y16142D01*
X156191Y16137D01*
X156208Y16131D01*
X156226Y16127D01*
X156247Y16123D01*
X156268Y16122D01*
X156275D01*
X156280Y16123D01*
X156287D01*
X156293Y16124D01*
X156310Y16128D01*
X156329Y16132D01*
X156349Y16140D01*
X156369Y16150D01*
X156379Y16155D01*
X156388Y16163D01*
X156389Y16164D01*
X156390Y16165D01*
X156393Y16167D01*
X156397Y16170D01*
X156400Y16175D01*
X156405Y16180D01*
X156410Y16186D01*
X156415Y16193D01*
X156421Y16202D01*
X156427Y16211D01*
X156433Y16220D01*
X156438Y16231D01*
X156443Y16243D01*
X156447Y16256D01*
X156452Y16270D01*
X156456Y16285D01*
X156541Y16264D01*
Y16263D01*
X156540Y16259D01*
X156538Y16253D01*
X156535Y16246D01*
X156533Y16238D01*
X156529Y16228D01*
X156524Y16216D01*
X156519Y16204D01*
X156506Y16178D01*
X156489Y16153D01*
X156479Y16140D01*
X156469Y16127D01*
X156458Y16116D01*
X156445Y16105D01*
X156444Y16104D01*
X156442Y16102D01*
X156437Y16100D01*
X156433Y16096D01*
X156425Y16092D01*
X156418Y16087D01*
X156408Y16082D01*
X156398Y16078D01*
X156385Y16072D01*
X156373Y16068D01*
X156359Y16063D01*
X156344Y16058D01*
X156328Y16055D01*
X156312Y16053D01*
X156294Y16051D01*
X156275Y16050D01*
X156265D01*
X156258Y16051D01*
X156250D01*
X156239Y16052D01*
X156228Y16054D01*
X156215Y16056D01*
X156189Y16060D01*
X156161Y16068D01*
X156133Y16078D01*
X156120Y16084D01*
X156107Y16092D01*
X156106Y16093D01*
X156104Y16093D01*
X156101Y16096D01*
X156097Y16100D01*
X156091Y16104D01*
X156085Y16109D01*
X156078Y16116D01*
X156070Y16123D01*
X156063Y16131D01*
X156055Y16140D01*
X156038Y16161D01*
X156022Y16186D01*
X156008Y16214D01*
Y16215D01*
X156006Y16217D01*
X156005Y16222D01*
X156003Y16228D01*
X156001Y16235D01*
X155998Y16244D01*
X155994Y16254D01*
X155992Y16265D01*
X155989Y16277D01*
X155985Y16291D01*
X155981Y16320D01*
X155977Y16352D01*
X155975Y16386D01*
Y16387D01*
Y16390D01*
Y16396D01*
X155976Y16402D01*
Y16411D01*
X155977Y16421D01*
X155978Y16433D01*
X155980Y16445D01*
X155984Y16472D01*
X155991Y16501D01*
X156000Y16531D01*
X156013Y16559D01*
X156014Y16560D01*
X156015Y16563D01*
X156017Y16567D01*
X156020Y16571D01*
X156024Y16578D01*
X156029Y16585D01*
X156041Y16602D01*
X156056Y16620D01*
X156075Y16639D01*
X156096Y16657D01*
X156121Y16673D01*
X156122Y16674D01*
X156125Y16675D01*
X156128Y16677D01*
X156133Y16680D01*
X156140Y16682D01*
X156148Y16685D01*
X156157Y16689D01*
X156167Y16693D01*
X156178Y16696D01*
X156190Y16700D01*
X156216Y16705D01*
X156246Y16710D01*
X156276Y16712D01*
X156286D01*
X156292Y16711D01*
D02*
G37*
G36*
X157486Y16703D02*
X157493Y16702D01*
X157502Y16701D01*
X157513Y16699D01*
X157523Y16697D01*
X157547Y16691D01*
X157571Y16681D01*
X157583Y16676D01*
X157595Y16669D01*
X157606Y16661D01*
X157616Y16652D01*
X157617Y16651D01*
X157619Y16650D01*
X157621Y16646D01*
X157624Y16643D01*
X157629Y16638D01*
X157634Y16632D01*
X157638Y16625D01*
X157644Y16617D01*
X157653Y16599D01*
X157662Y16577D01*
X157666Y16566D01*
X157668Y16553D01*
X157670Y16540D01*
X157671Y16526D01*
Y16524D01*
Y16520D01*
X157670Y16512D01*
X157669Y16502D01*
X157667Y16491D01*
X157663Y16478D01*
X157660Y16464D01*
X157654Y16450D01*
X157653Y16448D01*
X157651Y16444D01*
X157648Y16436D01*
X157642Y16426D01*
X157635Y16415D01*
X157625Y16401D01*
X157614Y16387D01*
X157601Y16372D01*
X157599Y16370D01*
X157595Y16364D01*
X157590Y16360D01*
X157586Y16355D01*
X157580Y16350D01*
X157573Y16342D01*
X157565Y16335D01*
X157556Y16326D01*
X157547Y16317D01*
X157536Y16307D01*
X157524Y16297D01*
X157511Y16285D01*
X157496Y16273D01*
X157481Y16260D01*
X157480Y16259D01*
X157478Y16257D01*
X157475Y16254D01*
X157470Y16251D01*
X157464Y16245D01*
X157458Y16240D01*
X157443Y16228D01*
X157427Y16214D01*
X157413Y16200D01*
X157400Y16188D01*
X157394Y16183D01*
X157390Y16178D01*
X157389Y16178D01*
X157386Y16175D01*
X157382Y16171D01*
X157378Y16166D01*
X157373Y16159D01*
X157367Y16153D01*
X157356Y16137D01*
X157672D01*
Y16061D01*
X157247D01*
Y16062D01*
Y16066D01*
Y16071D01*
X157248Y16079D01*
X157249Y16087D01*
X157251Y16096D01*
X157253Y16105D01*
X157256Y16116D01*
Y16117D01*
X157257Y16117D01*
X157259Y16123D01*
X157263Y16131D01*
X157268Y16142D01*
X157276Y16155D01*
X157285Y16170D01*
X157295Y16185D01*
X157308Y16201D01*
Y16202D01*
X157310Y16203D01*
X157315Y16208D01*
X157323Y16216D01*
X157335Y16228D01*
X157349Y16242D01*
X157366Y16259D01*
X157388Y16277D01*
X157411Y16297D01*
X157412Y16298D01*
X157415Y16301D01*
X157421Y16305D01*
X157427Y16311D01*
X157436Y16318D01*
X157446Y16326D01*
X157456Y16336D01*
X157468Y16346D01*
X157491Y16368D01*
X157514Y16390D01*
X157525Y16401D01*
X157536Y16412D01*
X157545Y16423D01*
X157552Y16433D01*
Y16434D01*
X157554Y16435D01*
X157556Y16437D01*
X157558Y16441D01*
X157564Y16451D01*
X157572Y16463D01*
X157578Y16478D01*
X157585Y16494D01*
X157588Y16511D01*
X157590Y16528D01*
Y16529D01*
Y16530D01*
X157589Y16535D01*
X157588Y16545D01*
X157586Y16555D01*
X157582Y16568D01*
X157575Y16581D01*
X157567Y16594D01*
X157556Y16607D01*
X157554Y16608D01*
X157550Y16612D01*
X157543Y16617D01*
X157533Y16623D01*
X157520Y16629D01*
X157505Y16634D01*
X157488Y16638D01*
X157468Y16639D01*
X157463D01*
X157459Y16638D01*
X157448Y16637D01*
X157435Y16634D01*
X157421Y16631D01*
X157405Y16624D01*
X157390Y16616D01*
X157377Y16605D01*
X157375Y16603D01*
X157371Y16598D01*
X157366Y16591D01*
X157360Y16580D01*
X157354Y16567D01*
X157348Y16550D01*
X157344Y16532D01*
X157342Y16510D01*
X157262Y16519D01*
Y16520D01*
X157263Y16522D01*
Y16527D01*
X157264Y16534D01*
X157266Y16541D01*
X157268Y16549D01*
X157270Y16559D01*
X157273Y16570D01*
X157280Y16592D01*
X157292Y16614D01*
X157298Y16625D01*
X157306Y16636D01*
X157315Y16646D01*
X157324Y16656D01*
X157325Y16656D01*
X157327Y16657D01*
X157329Y16660D01*
X157334Y16663D01*
X157340Y16667D01*
X157346Y16670D01*
X157354Y16675D01*
X157363Y16680D01*
X157373Y16684D01*
X157384Y16689D01*
X157396Y16693D01*
X157409Y16696D01*
X157423Y16699D01*
X157438Y16702D01*
X157453Y16703D01*
X157470Y16704D01*
X157479D01*
X157486Y16703D01*
D02*
G37*
G36*
X156950Y16700D02*
X156959D01*
X156978Y16699D01*
X156998Y16696D01*
X157021Y16693D01*
X157041Y16689D01*
X157051Y16686D01*
X157059Y16683D01*
X157060D01*
X157061Y16682D01*
X157067Y16680D01*
X157075Y16676D01*
X157085Y16669D01*
X157096Y16661D01*
X157109Y16650D01*
X157120Y16637D01*
X157131Y16622D01*
Y16621D01*
X157132Y16620D01*
X157135Y16615D01*
X157139Y16606D01*
X157145Y16594D01*
X157149Y16580D01*
X157154Y16563D01*
X157157Y16546D01*
X157158Y16526D01*
Y16525D01*
Y16523D01*
Y16520D01*
X157157Y16515D01*
Y16509D01*
X157156Y16502D01*
X157152Y16486D01*
X157146Y16468D01*
X157139Y16448D01*
X157128Y16429D01*
X157121Y16420D01*
X157113Y16411D01*
X157112Y16410D01*
X157111Y16409D01*
X157109Y16406D01*
X157105Y16403D01*
X157100Y16399D01*
X157095Y16396D01*
X157087Y16391D01*
X157080Y16386D01*
X157071Y16381D01*
X157060Y16376D01*
X157049Y16371D01*
X157037Y16366D01*
X157023Y16362D01*
X157010Y16358D01*
X156994Y16355D01*
X156977Y16352D01*
X156979Y16351D01*
X156983Y16350D01*
X156988Y16346D01*
X156996Y16342D01*
X157012Y16332D01*
X157021Y16326D01*
X157028Y16320D01*
X157030Y16318D01*
X157035Y16313D01*
X157042Y16306D01*
X157051Y16297D01*
X157061Y16284D01*
X157073Y16270D01*
X157085Y16253D01*
X157098Y16235D01*
X157208Y16061D01*
X157103D01*
X157019Y16194D01*
Y16195D01*
X157017Y16197D01*
X157015Y16200D01*
X157012Y16203D01*
X157006Y16214D01*
X156998Y16227D01*
X156987Y16240D01*
X156977Y16255D01*
X156967Y16269D01*
X156958Y16282D01*
X156957Y16283D01*
X156954Y16287D01*
X156949Y16292D01*
X156943Y16299D01*
X156929Y16313D01*
X156922Y16319D01*
X156914Y16325D01*
X156913Y16326D01*
X156912Y16326D01*
X156908Y16328D01*
X156902Y16331D01*
X156897Y16334D01*
X156890Y16337D01*
X156876Y16341D01*
X156875D01*
X156873Y16342D01*
X156869D01*
X156864Y16343D01*
X156858Y16344D01*
X156851D01*
X156840Y16345D01*
X156731D01*
Y16061D01*
X156646D01*
Y16701D01*
X156943D01*
X156950Y16700D01*
D02*
G37*
G36*
X10068Y91123D02*
X10068D01*
X10066D01*
X10062D01*
X10056Y91122D01*
X10051Y91121D01*
X10044D01*
X10029Y91119D01*
X10012Y91116D01*
X9995Y91110D01*
X9981Y91105D01*
X9974Y91101D01*
X9969Y91096D01*
X9968Y91096D01*
X9965Y91092D01*
X9960Y91086D01*
X9956Y91079D01*
X9950Y91069D01*
X9946Y91058D01*
X9943Y91044D01*
X9942Y91029D01*
Y91023D01*
X9943Y91018D01*
X9944Y91010D01*
X9946Y91001D01*
X9947Y90992D01*
X9951Y90983D01*
X9956Y90973D01*
X9957Y90973D01*
X9958Y90970D01*
X9962Y90966D01*
X9966Y90961D01*
X9972Y90956D01*
X9979Y90950D01*
X9986Y90946D01*
X9995Y90942D01*
X9996D01*
X10000Y90940D01*
X10007Y90939D01*
X10015Y90937D01*
X10026Y90936D01*
X10040Y90935D01*
X10056Y90933D01*
X10076D01*
X10517D01*
Y90848D01*
X10080D01*
X10080D01*
X10077D01*
X10073D01*
X10068D01*
X10060Y90849D01*
X10053D01*
X10035Y90851D01*
X10015Y90852D01*
X9994Y90856D01*
X9974Y90862D01*
X9956Y90868D01*
X9955D01*
X9954Y90869D01*
X9948Y90872D01*
X9941Y90876D01*
X9931Y90883D01*
X9921Y90892D01*
X9909Y90902D01*
X9898Y90915D01*
X9889Y90930D01*
X9888Y90932D01*
X9885Y90937D01*
X9882Y90946D01*
X9878Y90958D01*
X9873Y90973D01*
X9870Y90989D01*
X9867Y91008D01*
X9866Y91028D01*
Y91036D01*
X9867Y91042D01*
X9868Y91049D01*
X9869Y91057D01*
X9872Y91076D01*
X9878Y91096D01*
X9886Y91118D01*
X9892Y91129D01*
X9898Y91139D01*
X9906Y91148D01*
X9914Y91157D01*
X9915Y91158D01*
X9916Y91159D01*
X9920Y91161D01*
X9923Y91164D01*
X9928Y91168D01*
X9934Y91171D01*
X9942Y91175D01*
X9950Y91180D01*
X9959Y91183D01*
X9970Y91187D01*
X9982Y91191D01*
X9995Y91194D01*
X10008Y91196D01*
X10024Y91199D01*
X10040Y91200D01*
X10057D01*
X10068Y91123D01*
D02*
G37*
G36*
X10359Y90680D02*
X10361Y90679D01*
X10362Y90675D01*
X10364Y90670D01*
X10367Y90665D01*
X10371Y90658D01*
X10380Y90643D01*
X10390Y90624D01*
X10403Y90606D01*
X10418Y90586D01*
X10434Y90567D01*
X10435Y90566D01*
X10436Y90565D01*
X10438Y90562D01*
X10441Y90558D01*
X10450Y90550D01*
X10461Y90539D01*
X10474Y90528D01*
X10489Y90516D01*
X10504Y90506D01*
X10520Y90496D01*
Y90446D01*
X9877D01*
Y90524D01*
X10377D01*
X10376Y90525D01*
X10373Y90530D01*
X10367Y90535D01*
X10361Y90545D01*
X10352Y90555D01*
X10343Y90568D01*
X10333Y90582D01*
X10323Y90599D01*
Y90600D01*
X10322Y90601D01*
X10318Y90606D01*
X10313Y90616D01*
X10308Y90627D01*
X10301Y90640D01*
X10295Y90654D01*
X10289Y90667D01*
X10283Y90681D01*
X10359D01*
Y90680D01*
D02*
G37*
G36*
X10056Y90164D02*
X10056D01*
X10054Y90164D01*
X10050Y90163D01*
X10045Y90162D01*
X10040Y90161D01*
X10033Y90159D01*
X10019Y90154D01*
X10003Y90148D01*
X9987Y90140D01*
X9972Y90130D01*
X9959Y90119D01*
X9958Y90117D01*
X9955Y90114D01*
X9950Y90106D01*
X9946Y90097D01*
X9940Y90086D01*
X9935Y90072D01*
X9932Y90056D01*
X9931Y90040D01*
Y90034D01*
X9932Y90030D01*
X9933Y90020D01*
X9935Y90007D01*
X9940Y89993D01*
X9946Y89977D01*
X9956Y89961D01*
X9969Y89946D01*
X9970Y89944D01*
X9976Y89940D01*
X9984Y89934D01*
X9995Y89927D01*
X10009Y89920D01*
X10025Y89914D01*
X10044Y89909D01*
X10064Y89907D01*
X10065D01*
X10067D01*
X10069D01*
X10073Y89908D01*
X10083Y89909D01*
X10095Y89912D01*
X10110Y89916D01*
X10125Y89922D01*
X10140Y89932D01*
X10154Y89944D01*
X10155Y89945D01*
X10159Y89950D01*
X10165Y89957D01*
X10171Y89968D01*
X10178Y89981D01*
X10183Y89996D01*
X10187Y90014D01*
X10189Y90033D01*
Y90042D01*
X10188Y90048D01*
X10187Y90056D01*
X10185Y90066D01*
X10183Y90077D01*
X10180Y90089D01*
X10250Y90079D01*
Y90075D01*
X10249Y90071D01*
Y90059D01*
X10251Y90049D01*
X10252Y90037D01*
X10255Y90023D01*
X10260Y90007D01*
X10266Y89993D01*
X10275Y89977D01*
Y89976D01*
X10276Y89975D01*
X10279Y89970D01*
X10286Y89964D01*
X10294Y89956D01*
X10306Y89949D01*
X10320Y89943D01*
X10336Y89938D01*
X10345Y89936D01*
X10355D01*
X10356D01*
X10357D01*
X10362D01*
X10370Y89938D01*
X10380Y89940D01*
X10391Y89944D01*
X10403Y89948D01*
X10415Y89956D01*
X10426Y89966D01*
X10427Y89967D01*
X10431Y89971D01*
X10436Y89978D01*
X10441Y89986D01*
X10446Y89997D01*
X10450Y90010D01*
X10454Y90025D01*
X10455Y90042D01*
Y90049D01*
X10453Y90057D01*
X10451Y90068D01*
X10448Y90080D01*
X10443Y90092D01*
X10436Y90105D01*
X10426Y90117D01*
X10425Y90118D01*
X10421Y90122D01*
X10414Y90128D01*
X10405Y90134D01*
X10393Y90140D01*
X10378Y90147D01*
X10361Y90152D01*
X10340Y90156D01*
X10354Y90235D01*
X10355D01*
X10358Y90234D01*
X10362Y90233D01*
X10367Y90232D01*
X10374Y90230D01*
X10381Y90227D01*
X10399Y90222D01*
X10419Y90213D01*
X10439Y90201D01*
X10459Y90188D01*
X10476Y90170D01*
X10477Y90169D01*
X10478Y90167D01*
X10480Y90164D01*
X10483Y90161D01*
X10486Y90156D01*
X10490Y90150D01*
X10494Y90143D01*
X10498Y90135D01*
X10506Y90116D01*
X10513Y90095D01*
X10518Y90070D01*
X10520Y90057D01*
Y90034D01*
X10519Y90024D01*
X10517Y90012D01*
X10514Y89997D01*
X10509Y89981D01*
X10504Y89964D01*
X10497Y89947D01*
Y89946D01*
X10496Y89945D01*
X10493Y89940D01*
X10487Y89932D01*
X10481Y89922D01*
X10472Y89911D01*
X10461Y89900D01*
X10449Y89889D01*
X10436Y89880D01*
X10434Y89879D01*
X10429Y89876D01*
X10421Y89872D01*
X10411Y89868D01*
X10399Y89863D01*
X10385Y89859D01*
X10369Y89857D01*
X10353Y89856D01*
X10351D01*
X10346D01*
X10338Y89857D01*
X10328Y89858D01*
X10316Y89861D01*
X10303Y89866D01*
X10290Y89871D01*
X10277Y89879D01*
X10276Y89880D01*
X10272Y89883D01*
X10265Y89888D01*
X10258Y89895D01*
X10250Y89905D01*
X10240Y89916D01*
X10232Y89929D01*
X10224Y89944D01*
Y89944D01*
X10223Y89942D01*
X10222Y89939D01*
X10221Y89935D01*
X10217Y89925D01*
X10212Y89912D01*
X10204Y89897D01*
X10195Y89883D01*
X10183Y89869D01*
X10169Y89856D01*
X10167Y89855D01*
X10162Y89851D01*
X10153Y89846D01*
X10141Y89840D01*
X10126Y89834D01*
X10108Y89829D01*
X10088Y89825D01*
X10066Y89824D01*
X10065D01*
X10062D01*
X10057D01*
X10052Y89825D01*
X10044Y89826D01*
X10036Y89828D01*
X10027Y89830D01*
X10017Y89832D01*
X9995Y89839D01*
X9982Y89845D01*
X9971Y89850D01*
X9959Y89858D01*
X9947Y89866D01*
X9935Y89875D01*
X9924Y89886D01*
X9923Y89887D01*
X9921Y89889D01*
X9919Y89893D01*
X9915Y89897D01*
X9910Y89903D01*
X9906Y89910D01*
X9900Y89919D01*
X9896Y89929D01*
X9890Y89939D01*
X9884Y89951D01*
X9880Y89963D01*
X9875Y89977D01*
X9872Y89992D01*
X9869Y90007D01*
X9867Y90023D01*
X9866Y90041D01*
Y90049D01*
X9867Y90054D01*
X9868Y90062D01*
X9869Y90070D01*
X9871Y90079D01*
X9872Y90090D01*
X9878Y90112D01*
X9887Y90135D01*
X9893Y90147D01*
X9899Y90158D01*
X9908Y90169D01*
X9916Y90180D01*
X9917Y90181D01*
X9919Y90183D01*
X9921Y90186D01*
X9925Y90189D01*
X9930Y90193D01*
X9936Y90198D01*
X9943Y90203D01*
X9951Y90209D01*
X9960Y90214D01*
X9970Y90220D01*
X9992Y90230D01*
X10018Y90238D01*
X10031Y90241D01*
X10046Y90243D01*
X10056Y90164D01*
D02*
G37*
G36*
X95500Y26835D02*
X95254D01*
X95237Y26836D01*
X95219Y26837D01*
X95200Y26839D01*
X95182Y26842D01*
X95166Y26844D01*
X95165D01*
X95163Y26845D01*
X95161D01*
X95157Y26847D01*
X95147Y26850D01*
X95134Y26855D01*
X95119Y26861D01*
X95103Y26869D01*
X95088Y26879D01*
X95073Y26891D01*
X95072Y26892D01*
X95071Y26893D01*
X95068Y26895D01*
X95065Y26898D01*
X95055Y26907D01*
X95044Y26920D01*
X95032Y26936D01*
X95019Y26954D01*
X95007Y26976D01*
X94997Y27000D01*
Y27001D01*
X94996Y27003D01*
X94994Y27006D01*
X94993Y27012D01*
X94991Y27018D01*
X94989Y27026D01*
X94987Y27034D01*
X94984Y27044D01*
X94981Y27054D01*
X94979Y27066D01*
X94975Y27092D01*
X94972Y27121D01*
X94971Y27152D01*
Y27153D01*
Y27155D01*
Y27160D01*
Y27164D01*
X94972Y27171D01*
Y27178D01*
X94973Y27196D01*
X94976Y27216D01*
X94979Y27237D01*
X94983Y27260D01*
X94989Y27282D01*
Y27283D01*
X94990Y27285D01*
X94991Y27287D01*
X94992Y27291D01*
X94995Y27301D01*
X95001Y27314D01*
X95006Y27329D01*
X95014Y27344D01*
X95023Y27359D01*
X95032Y27374D01*
X95033Y27376D01*
X95037Y27381D01*
X95042Y27387D01*
X95050Y27396D01*
X95058Y27405D01*
X95068Y27414D01*
X95078Y27424D01*
X95090Y27432D01*
X95092Y27433D01*
X95096Y27436D01*
X95102Y27440D01*
X95112Y27444D01*
X95123Y27450D01*
X95136Y27455D01*
X95151Y27460D01*
X95167Y27465D01*
X95169D01*
X95172Y27466D01*
X95175Y27467D01*
X95184Y27468D01*
X95197Y27469D01*
X95212Y27471D01*
X95229Y27473D01*
X95249Y27474D01*
X95270Y27475D01*
X95500D01*
Y26835D01*
D02*
G37*
G36*
X94898Y27474D02*
Y27470D01*
Y27465D01*
X94897Y27457D01*
X94896Y27449D01*
X94894Y27440D01*
X94893Y27431D01*
X94889Y27420D01*
Y27420D01*
X94888Y27419D01*
X94886Y27413D01*
X94882Y27405D01*
X94877Y27394D01*
X94869Y27381D01*
X94860Y27366D01*
X94850Y27351D01*
X94837Y27335D01*
Y27334D01*
X94835Y27334D01*
X94831Y27328D01*
X94822Y27320D01*
X94810Y27308D01*
X94796Y27294D01*
X94779Y27277D01*
X94758Y27259D01*
X94734Y27239D01*
X94734Y27238D01*
X94730Y27236D01*
X94724Y27231D01*
X94718Y27225D01*
X94710Y27218D01*
X94699Y27210D01*
X94689Y27200D01*
X94677Y27190D01*
X94654Y27168D01*
X94631Y27146D01*
X94620Y27135D01*
X94610Y27124D01*
X94600Y27114D01*
X94593Y27103D01*
Y27102D01*
X94591Y27101D01*
X94589Y27099D01*
X94587Y27095D01*
X94581Y27085D01*
X94574Y27073D01*
X94567Y27058D01*
X94561Y27042D01*
X94557Y27025D01*
X94555Y27008D01*
Y27007D01*
Y27006D01*
X94556Y27001D01*
X94557Y26991D01*
X94560Y26981D01*
X94563Y26968D01*
X94570Y26955D01*
X94578Y26942D01*
X94589Y26930D01*
X94591Y26928D01*
X94596Y26924D01*
X94602Y26919D01*
X94612Y26913D01*
X94625Y26907D01*
X94640Y26902D01*
X94658Y26898D01*
X94677Y26897D01*
X94683D01*
X94686Y26898D01*
X94697Y26899D01*
X94710Y26902D01*
X94724Y26905D01*
X94740Y26912D01*
X94755Y26920D01*
X94769Y26931D01*
X94771Y26933D01*
X94774Y26938D01*
X94780Y26945D01*
X94785Y26956D01*
X94792Y26969D01*
X94797Y26986D01*
X94801Y27004D01*
X94803Y27026D01*
X94883Y27017D01*
Y27016D01*
X94882Y27014D01*
Y27009D01*
X94881Y27003D01*
X94880Y26995D01*
X94878Y26987D01*
X94875Y26977D01*
X94872Y26966D01*
X94865Y26944D01*
X94854Y26922D01*
X94847Y26911D01*
X94839Y26900D01*
X94831Y26890D01*
X94821Y26881D01*
X94820Y26880D01*
X94819Y26879D01*
X94816Y26876D01*
X94811Y26873D01*
X94806Y26869D01*
X94799Y26866D01*
X94792Y26861D01*
X94783Y26856D01*
X94772Y26852D01*
X94761Y26847D01*
X94749Y26844D01*
X94736Y26840D01*
X94722Y26837D01*
X94708Y26834D01*
X94692Y26833D01*
X94675Y26832D01*
X94666D01*
X94660Y26833D01*
X94652Y26834D01*
X94643Y26835D01*
X94633Y26837D01*
X94623Y26839D01*
X94599Y26845D01*
X94575Y26855D01*
X94562Y26860D01*
X94550Y26867D01*
X94539Y26875D01*
X94529Y26884D01*
X94528Y26885D01*
X94526Y26886D01*
X94525Y26890D01*
X94521Y26893D01*
X94516Y26898D01*
X94512Y26905D01*
X94507Y26911D01*
X94501Y26919D01*
X94492Y26937D01*
X94483Y26959D01*
X94479Y26970D01*
X94477Y26983D01*
X94476Y26996D01*
X94475Y27010D01*
Y27012D01*
Y27016D01*
X94476Y27024D01*
X94477Y27034D01*
X94478Y27045D01*
X94482Y27058D01*
X94486Y27072D01*
X94491Y27086D01*
X94492Y27088D01*
X94494Y27092D01*
X94498Y27100D01*
X94503Y27110D01*
X94511Y27121D01*
X94520Y27135D01*
X94531Y27149D01*
X94544Y27164D01*
X94546Y27166D01*
X94550Y27172D01*
X94555Y27176D01*
X94560Y27181D01*
X94565Y27187D01*
X94573Y27194D01*
X94580Y27201D01*
X94589Y27210D01*
X94599Y27219D01*
X94610Y27229D01*
X94622Y27239D01*
X94635Y27251D01*
X94649Y27263D01*
X94664Y27276D01*
X94665Y27277D01*
X94667Y27279D01*
X94671Y27282D01*
X94675Y27285D01*
X94681Y27291D01*
X94687Y27297D01*
X94702Y27309D01*
X94718Y27322D01*
X94733Y27336D01*
X94746Y27348D01*
X94751Y27353D01*
X94756Y27358D01*
X94757Y27359D01*
X94759Y27361D01*
X94763Y27365D01*
X94768Y27371D01*
X94772Y27377D01*
X94778Y27383D01*
X94789Y27399D01*
X94474D01*
Y27475D01*
X94898D01*
Y27474D01*
D02*
G37*
G36*
X94401D02*
Y27470D01*
Y27465D01*
X94400Y27457D01*
X94399Y27449D01*
X94397Y27440D01*
X94395Y27431D01*
X94391Y27420D01*
Y27420D01*
X94391Y27419D01*
X94389Y27413D01*
X94385Y27405D01*
X94379Y27394D01*
X94372Y27381D01*
X94363Y27366D01*
X94353Y27351D01*
X94340Y27335D01*
Y27334D01*
X94338Y27334D01*
X94333Y27328D01*
X94325Y27320D01*
X94313Y27308D01*
X94299Y27294D01*
X94281Y27277D01*
X94260Y27259D01*
X94237Y27239D01*
X94236Y27238D01*
X94232Y27236D01*
X94227Y27231D01*
X94220Y27225D01*
X94212Y27218D01*
X94202Y27210D01*
X94192Y27200D01*
X94180Y27190D01*
X94157Y27168D01*
X94133Y27146D01*
X94122Y27135D01*
X94112Y27124D01*
X94103Y27114D01*
X94096Y27103D01*
Y27102D01*
X94094Y27101D01*
X94092Y27099D01*
X94090Y27095D01*
X94084Y27085D01*
X94076Y27073D01*
X94070Y27058D01*
X94063Y27042D01*
X94060Y27025D01*
X94058Y27008D01*
Y27007D01*
Y27006D01*
X94059Y27001D01*
X94060Y26991D01*
X94062Y26981D01*
X94066Y26968D01*
X94072Y26955D01*
X94081Y26942D01*
X94092Y26930D01*
X94094Y26928D01*
X94098Y26924D01*
X94105Y26919D01*
X94115Y26913D01*
X94128Y26907D01*
X94143Y26902D01*
X94160Y26898D01*
X94180Y26897D01*
X94185D01*
X94189Y26898D01*
X94200Y26899D01*
X94213Y26902D01*
X94227Y26905D01*
X94243Y26912D01*
X94257Y26920D01*
X94271Y26931D01*
X94273Y26933D01*
X94277Y26938D01*
X94282Y26945D01*
X94288Y26956D01*
X94294Y26969D01*
X94300Y26986D01*
X94304Y27004D01*
X94305Y27026D01*
X94386Y27017D01*
Y27016D01*
X94385Y27014D01*
Y27009D01*
X94384Y27003D01*
X94382Y26995D01*
X94380Y26987D01*
X94378Y26977D01*
X94375Y26966D01*
X94367Y26944D01*
X94356Y26922D01*
X94350Y26911D01*
X94342Y26900D01*
X94333Y26890D01*
X94324Y26881D01*
X94323Y26880D01*
X94321Y26879D01*
X94318Y26876D01*
X94314Y26873D01*
X94308Y26869D01*
X94302Y26866D01*
X94294Y26861D01*
X94285Y26856D01*
X94275Y26852D01*
X94264Y26847D01*
X94252Y26844D01*
X94239Y26840D01*
X94225Y26837D01*
X94210Y26834D01*
X94195Y26833D01*
X94178Y26832D01*
X94169D01*
X94162Y26833D01*
X94155Y26834D01*
X94146Y26835D01*
X94135Y26837D01*
X94125Y26839D01*
X94101Y26845D01*
X94077Y26855D01*
X94065Y26860D01*
X94053Y26867D01*
X94042Y26875D01*
X94032Y26884D01*
X94031Y26885D01*
X94029Y26886D01*
X94027Y26890D01*
X94023Y26893D01*
X94019Y26898D01*
X94014Y26905D01*
X94010Y26911D01*
X94004Y26919D01*
X93995Y26937D01*
X93986Y26959D01*
X93982Y26970D01*
X93980Y26983D01*
X93978Y26996D01*
X93977Y27010D01*
Y27012D01*
Y27016D01*
X93978Y27024D01*
X93979Y27034D01*
X93981Y27045D01*
X93985Y27058D01*
X93988Y27072D01*
X93994Y27086D01*
X93995Y27088D01*
X93997Y27092D01*
X94000Y27100D01*
X94006Y27110D01*
X94013Y27121D01*
X94023Y27135D01*
X94034Y27149D01*
X94047Y27164D01*
X94048Y27166D01*
X94053Y27172D01*
X94058Y27176D01*
X94062Y27181D01*
X94068Y27187D01*
X94075Y27194D01*
X94083Y27201D01*
X94092Y27210D01*
X94101Y27219D01*
X94112Y27229D01*
X94124Y27239D01*
X94137Y27251D01*
X94152Y27263D01*
X94167Y27276D01*
X94168Y27277D01*
X94170Y27279D01*
X94173Y27282D01*
X94178Y27285D01*
X94183Y27291D01*
X94190Y27297D01*
X94205Y27309D01*
X94220Y27322D01*
X94235Y27336D01*
X94248Y27348D01*
X94254Y27353D01*
X94258Y27358D01*
X94259Y27359D01*
X94262Y27361D01*
X94266Y27365D01*
X94270Y27371D01*
X94275Y27377D01*
X94281Y27383D01*
X94292Y27399D01*
X93976D01*
Y27475D01*
X94401D01*
Y27474D01*
D02*
G37*
G36*
X233630Y3724D02*
X233637D01*
X233644Y3723D01*
X233662Y3719D01*
X233681Y3715D01*
X233701Y3707D01*
X233722Y3697D01*
X233732Y3691D01*
X233741Y3683D01*
X233742Y3682D01*
X233743Y3682D01*
X233746Y3679D01*
X233749Y3676D01*
X233752Y3671D01*
X233757Y3666D01*
X233766Y3653D01*
X233775Y3636D01*
X233785Y3616D01*
X233792Y3593D01*
X233798Y3566D01*
X233722Y3560D01*
Y3560D01*
X233721Y3562D01*
Y3564D01*
X233720Y3568D01*
X233717Y3578D01*
X233713Y3589D01*
X233709Y3602D01*
X233702Y3615D01*
X233695Y3627D01*
X233686Y3637D01*
X233685Y3638D01*
X233681Y3641D01*
X233675Y3645D01*
X233667Y3648D01*
X233657Y3653D01*
X233645Y3657D01*
X233631Y3659D01*
X233616Y3660D01*
X233610D01*
X233603Y3659D01*
X233595Y3658D01*
X233585Y3657D01*
X233575Y3654D01*
X233564Y3650D01*
X233554Y3645D01*
X233553Y3644D01*
X233549Y3642D01*
X233543Y3638D01*
X233538Y3633D01*
X233530Y3626D01*
X233523Y3619D01*
X233516Y3610D01*
X233508Y3600D01*
X233507Y3599D01*
X233505Y3595D01*
X233502Y3588D01*
X233498Y3580D01*
X233493Y3569D01*
X233489Y3556D01*
X233484Y3541D01*
X233480Y3524D01*
Y3523D01*
X233479Y3523D01*
Y3520D01*
X233478Y3516D01*
X233476Y3507D01*
X233473Y3495D01*
X233471Y3480D01*
X233469Y3464D01*
X233468Y3447D01*
X233468Y3428D01*
Y3427D01*
Y3425D01*
Y3420D01*
Y3413D01*
X233468Y3414D01*
X233472Y3419D01*
X233478Y3425D01*
X233484Y3435D01*
X233493Y3444D01*
X233505Y3454D01*
X233517Y3464D01*
X233532Y3474D01*
X233534Y3474D01*
X233540Y3477D01*
X233548Y3481D01*
X233558Y3485D01*
X233572Y3489D01*
X233587Y3493D01*
X233603Y3496D01*
X233621Y3497D01*
X233628D01*
X233634Y3496D01*
X233641Y3495D01*
X233649Y3494D01*
X233658Y3492D01*
X233667Y3489D01*
X233688Y3483D01*
X233700Y3478D01*
X233711Y3473D01*
X233723Y3466D01*
X233734Y3458D01*
X233745Y3450D01*
X233755Y3439D01*
X233756Y3438D01*
X233758Y3437D01*
X233760Y3434D01*
X233763Y3429D01*
X233768Y3423D01*
X233773Y3416D01*
X233777Y3408D01*
X233782Y3399D01*
X233787Y3388D01*
X233792Y3377D01*
X233797Y3364D01*
X233801Y3351D01*
X233805Y3337D01*
X233807Y3321D01*
X233809Y3305D01*
X233810Y3288D01*
Y3287D01*
Y3283D01*
Y3278D01*
X233809Y3272D01*
X233808Y3264D01*
X233807Y3253D01*
X233805Y3243D01*
X233802Y3231D01*
X233796Y3207D01*
X233791Y3194D01*
X233786Y3180D01*
X233779Y3168D01*
X233771Y3155D01*
X233762Y3143D01*
X233752Y3131D01*
X233751Y3131D01*
X233750Y3129D01*
X233747Y3126D01*
X233742Y3122D01*
X233737Y3118D01*
X233729Y3112D01*
X233722Y3107D01*
X233713Y3101D01*
X233703Y3095D01*
X233692Y3091D01*
X233667Y3081D01*
X233654Y3077D01*
X233639Y3074D01*
X233625Y3072D01*
X233609Y3071D01*
X233603D01*
X233598Y3072D01*
X233593D01*
X233587Y3073D01*
X233571Y3076D01*
X233554Y3080D01*
X233534Y3086D01*
X233515Y3094D01*
X233495Y3106D01*
X233494D01*
X233493Y3107D01*
X233491Y3109D01*
X233487Y3112D01*
X233478Y3119D01*
X233466Y3130D01*
X233454Y3143D01*
X233440Y3160D01*
X233428Y3180D01*
X233417Y3202D01*
Y3203D01*
X233416Y3204D01*
X233414Y3208D01*
X233412Y3213D01*
X233410Y3219D01*
X233407Y3228D01*
X233406Y3237D01*
X233403Y3247D01*
X233400Y3259D01*
X233397Y3273D01*
X233395Y3288D01*
X233394Y3303D01*
X233392Y3321D01*
X233390Y3339D01*
X233389Y3360D01*
Y3381D01*
Y3382D01*
Y3387D01*
Y3393D01*
Y3401D01*
X233390Y3412D01*
Y3424D01*
X233391Y3437D01*
X233393Y3451D01*
X233395Y3483D01*
X233400Y3516D01*
X233406Y3547D01*
X233411Y3563D01*
X233416Y3577D01*
Y3578D01*
X233417Y3580D01*
X233419Y3584D01*
X233420Y3589D01*
X233423Y3595D01*
X233427Y3602D01*
X233436Y3618D01*
X233447Y3635D01*
X233460Y3654D01*
X233477Y3671D01*
X233495Y3687D01*
X233496D01*
X233498Y3689D01*
X233501Y3691D01*
X233505Y3693D01*
X233510Y3695D01*
X233516Y3699D01*
X233523Y3703D01*
X233530Y3706D01*
X233548Y3713D01*
X233569Y3719D01*
X233592Y3723D01*
X233618Y3725D01*
X233626D01*
X233630Y3724D01*
D02*
G37*
G36*
X234920Y3074D02*
X234674D01*
X234657Y3075D01*
X234639Y3076D01*
X234620Y3078D01*
X234602Y3081D01*
X234586Y3083D01*
X234585D01*
X234583Y3084D01*
X234581D01*
X234577Y3086D01*
X234567Y3089D01*
X234554Y3094D01*
X234539Y3100D01*
X234523Y3108D01*
X234508Y3118D01*
X234493Y3130D01*
X234492Y3131D01*
X234491Y3131D01*
X234488Y3134D01*
X234485Y3137D01*
X234475Y3146D01*
X234464Y3159D01*
X234452Y3175D01*
X234439Y3193D01*
X234427Y3215D01*
X234417Y3239D01*
Y3240D01*
X234416Y3241D01*
X234414Y3245D01*
X234413Y3251D01*
X234411Y3257D01*
X234409Y3265D01*
X234407Y3273D01*
X234404Y3283D01*
X234401Y3293D01*
X234399Y3305D01*
X234395Y3331D01*
X234392Y3360D01*
X234391Y3391D01*
Y3392D01*
Y3394D01*
Y3399D01*
Y3403D01*
X234392Y3410D01*
Y3417D01*
X234393Y3435D01*
X234396Y3455D01*
X234399Y3476D01*
X234403Y3499D01*
X234409Y3521D01*
Y3522D01*
X234410Y3523D01*
X234411Y3526D01*
X234411Y3530D01*
X234415Y3540D01*
X234421Y3553D01*
X234426Y3568D01*
X234434Y3583D01*
X234443Y3598D01*
X234452Y3613D01*
X234453Y3615D01*
X234457Y3620D01*
X234462Y3626D01*
X234470Y3634D01*
X234478Y3644D01*
X234488Y3653D01*
X234498Y3663D01*
X234510Y3671D01*
X234512Y3672D01*
X234516Y3675D01*
X234522Y3679D01*
X234532Y3683D01*
X234543Y3689D01*
X234556Y3694D01*
X234571Y3699D01*
X234587Y3704D01*
X234589D01*
X234592Y3705D01*
X234595Y3706D01*
X234604Y3707D01*
X234617Y3708D01*
X234632Y3710D01*
X234649Y3712D01*
X234669Y3713D01*
X234690Y3714D01*
X234920D01*
Y3074D01*
D02*
G37*
G36*
X234090Y3214D02*
X234091Y3215D01*
X234095Y3218D01*
X234101Y3224D01*
X234110Y3230D01*
X234120Y3239D01*
X234133Y3248D01*
X234148Y3258D01*
X234165Y3268D01*
X234166D01*
X234166Y3269D01*
X234172Y3273D01*
X234181Y3278D01*
X234192Y3283D01*
X234205Y3290D01*
X234219Y3296D01*
X234233Y3302D01*
X234247Y3308D01*
Y3232D01*
X234246D01*
X234244Y3230D01*
X234240Y3229D01*
X234236Y3227D01*
X234230Y3224D01*
X234224Y3220D01*
X234208Y3211D01*
X234190Y3201D01*
X234171Y3188D01*
X234152Y3173D01*
X234132Y3157D01*
X234131Y3156D01*
X234130Y3155D01*
X234128Y3153D01*
X234124Y3150D01*
X234116Y3141D01*
X234105Y3130D01*
X234093Y3117D01*
X234081Y3102D01*
X234071Y3087D01*
X234062Y3071D01*
X234011D01*
Y3714D01*
X234090D01*
Y3214D01*
D02*
G37*
G36*
X236274Y10078D02*
X236281D01*
X236288Y10077D01*
X236306Y10073D01*
X236325Y10068D01*
X236346Y10061D01*
X236366Y10050D01*
X236376Y10044D01*
X236385Y10036D01*
X236386Y10035D01*
X236387Y10034D01*
X236390Y10031D01*
X236393Y10029D01*
X236397Y10024D01*
X236401Y10019D01*
X236411Y10006D01*
X236421Y9989D01*
X236431Y9969D01*
X236439Y9946D01*
X236445Y9920D01*
X236366Y9913D01*
Y9914D01*
X236365Y9915D01*
X236364Y9921D01*
X236361Y9929D01*
X236358Y9939D01*
X236354Y9950D01*
X236348Y9961D01*
X236342Y9971D01*
X236335Y9980D01*
X236334Y9982D01*
X236330Y9985D01*
X236323Y9991D01*
X236314Y9997D01*
X236302Y10003D01*
X236289Y10008D01*
X236274Y10012D01*
X236257Y10014D01*
X236250D01*
X236243Y10013D01*
X236235Y10011D01*
X236224Y10008D01*
X236212Y10005D01*
X236201Y10000D01*
X236190Y9993D01*
X236188Y9992D01*
X236184Y9988D01*
X236177Y9982D01*
X236169Y9972D01*
X236160Y9961D01*
X236150Y9948D01*
X236140Y9932D01*
X236131Y9913D01*
Y9912D01*
X236130Y9910D01*
X236129Y9908D01*
X236127Y9904D01*
X236127Y9898D01*
X236125Y9892D01*
X236123Y9884D01*
X236121Y9875D01*
X236118Y9865D01*
X236116Y9854D01*
X236114Y9842D01*
X236114Y9829D01*
X236112Y9814D01*
X236111Y9799D01*
X236110Y9783D01*
Y9766D01*
X236111Y9767D01*
X236114Y9773D01*
X236121Y9780D01*
X236129Y9789D01*
X236139Y9800D01*
X236151Y9811D01*
X236163Y9821D01*
X236178Y9830D01*
X236179D01*
X236180Y9831D01*
X236186Y9834D01*
X236194Y9836D01*
X236205Y9841D01*
X236218Y9845D01*
X236233Y9848D01*
X236249Y9850D01*
X236265Y9851D01*
X236273D01*
X236278Y9850D01*
X236286Y9849D01*
X236293Y9848D01*
X236302Y9847D01*
X236311Y9844D01*
X236333Y9837D01*
X236344Y9833D01*
X236355Y9826D01*
X236366Y9820D01*
X236378Y9812D01*
X236389Y9803D01*
X236399Y9793D01*
X236400Y9792D01*
X236402Y9790D01*
X236405Y9787D01*
X236408Y9783D01*
X236412Y9776D01*
X236417Y9770D01*
X236421Y9762D01*
X236427Y9752D01*
X236433Y9742D01*
X236437Y9731D01*
X236442Y9718D01*
X236446Y9705D01*
X236449Y9691D01*
X236452Y9676D01*
X236454Y9660D01*
X236455Y9643D01*
Y9642D01*
Y9640D01*
Y9638D01*
Y9633D01*
X236454Y9627D01*
Y9622D01*
X236451Y9607D01*
X236448Y9590D01*
X236444Y9571D01*
X236437Y9551D01*
X236428Y9531D01*
Y9530D01*
X236427Y9529D01*
X236425Y9527D01*
X236423Y9523D01*
X236418Y9514D01*
X236409Y9502D01*
X236399Y9489D01*
X236387Y9476D01*
X236372Y9463D01*
X236357Y9452D01*
X236356D01*
X236355Y9451D01*
X236352Y9449D01*
X236348Y9448D01*
X236339Y9443D01*
X236327Y9439D01*
X236311Y9433D01*
X236294Y9430D01*
X236274Y9426D01*
X236253Y9425D01*
X236249D01*
X236244Y9426D01*
X236237D01*
X236228Y9427D01*
X236219Y9429D01*
X236208Y9431D01*
X236197Y9434D01*
X236184Y9438D01*
X236171Y9443D01*
X236158Y9448D01*
X236144Y9455D01*
X236131Y9464D01*
X236118Y9473D01*
X236105Y9484D01*
X236093Y9497D01*
X236092Y9498D01*
X236090Y9501D01*
X236088Y9505D01*
X236084Y9511D01*
X236078Y9519D01*
X236074Y9529D01*
X236068Y9541D01*
X236063Y9554D01*
X236056Y9569D01*
X236051Y9587D01*
X236046Y9606D01*
X236041Y9627D01*
X236037Y9651D01*
X236034Y9677D01*
X236032Y9705D01*
X236031Y9735D01*
Y9736D01*
Y9737D01*
Y9739D01*
Y9743D01*
X236032Y9752D01*
Y9765D01*
X236033Y9780D01*
X236035Y9798D01*
X236037Y9817D01*
X236040Y9838D01*
X236043Y9860D01*
X236048Y9883D01*
X236053Y9905D01*
X236060Y9927D01*
X236068Y9948D01*
X236078Y9969D01*
X236088Y9988D01*
X236100Y10005D01*
X236101Y10006D01*
X236102Y10007D01*
X236106Y10011D01*
X236111Y10017D01*
X236116Y10022D01*
X236124Y10028D01*
X236133Y10035D01*
X236142Y10042D01*
X236153Y10048D01*
X236165Y10056D01*
X236179Y10061D01*
X236193Y10068D01*
X236209Y10072D01*
X236225Y10076D01*
X236243Y10078D01*
X236262Y10079D01*
X236269D01*
X236274Y10078D01*
D02*
G37*
G36*
X235833Y9436D02*
X235755D01*
Y9936D01*
X235754Y9935D01*
X235749Y9932D01*
X235744Y9926D01*
X235734Y9920D01*
X235724Y9911D01*
X235711Y9902D01*
X235697Y9892D01*
X235680Y9882D01*
X235679D01*
X235678Y9881D01*
X235673Y9877D01*
X235663Y9872D01*
X235652Y9867D01*
X235639Y9860D01*
X235625Y9854D01*
X235612Y9848D01*
X235598Y9842D01*
Y9918D01*
X235599D01*
X235600Y9920D01*
X235604Y9921D01*
X235609Y9923D01*
X235614Y9926D01*
X235621Y9930D01*
X235637Y9939D01*
X235655Y9949D01*
X235673Y9962D01*
X235693Y9977D01*
X235712Y9993D01*
X235713Y9994D01*
X235714Y9995D01*
X235717Y9997D01*
X235721Y10000D01*
X235729Y10009D01*
X235740Y10020D01*
X235751Y10033D01*
X235763Y10048D01*
X235773Y10063D01*
X235783Y10079D01*
X235833D01*
Y9436D01*
D02*
G37*
G36*
X235187Y10075D02*
X235206Y10074D01*
X235224Y10072D01*
X235243Y10069D01*
X235258Y10067D01*
X235259D01*
X235261Y10066D01*
X235264D01*
X235268Y10064D01*
X235278Y10061D01*
X235291Y10056D01*
X235305Y10050D01*
X235321Y10042D01*
X235337Y10032D01*
X235352Y10020D01*
X235353Y10019D01*
X235354Y10019D01*
X235356Y10016D01*
X235360Y10013D01*
X235369Y10004D01*
X235380Y9991D01*
X235392Y9975D01*
X235405Y9957D01*
X235417Y9935D01*
X235428Y9911D01*
Y9910D01*
X235428Y9909D01*
X235430Y9905D01*
X235431Y9899D01*
X235434Y9893D01*
X235436Y9885D01*
X235438Y9877D01*
X235440Y9867D01*
X235443Y9857D01*
X235445Y9845D01*
X235450Y9819D01*
X235453Y9790D01*
X235453Y9759D01*
Y9758D01*
Y9756D01*
Y9751D01*
Y9747D01*
X235453Y9740D01*
Y9733D01*
X235452Y9715D01*
X235449Y9695D01*
X235446Y9674D01*
X235441Y9651D01*
X235436Y9629D01*
Y9628D01*
X235435Y9627D01*
X235434Y9624D01*
X235433Y9620D01*
X235429Y9610D01*
X235424Y9597D01*
X235418Y9582D01*
X235411Y9567D01*
X235402Y9552D01*
X235392Y9537D01*
X235391Y9535D01*
X235388Y9530D01*
X235382Y9524D01*
X235375Y9516D01*
X235367Y9506D01*
X235356Y9497D01*
X235346Y9487D01*
X235334Y9479D01*
X235332Y9478D01*
X235329Y9475D01*
X235322Y9471D01*
X235313Y9467D01*
X235302Y9461D01*
X235289Y9456D01*
X235274Y9451D01*
X235257Y9446D01*
X235256D01*
X235253Y9445D01*
X235250Y9444D01*
X235241Y9443D01*
X235228Y9442D01*
X235213Y9440D01*
X235195Y9438D01*
X235176Y9437D01*
X235155Y9436D01*
X234925D01*
Y10076D01*
X235171D01*
X235187Y10075D01*
D02*
G37*
G36*
X233569Y15099D02*
X233577Y15098D01*
X233585Y15097D01*
X233595Y15096D01*
X233605Y15094D01*
X233628Y15088D01*
X233651Y15080D01*
X233663Y15074D01*
X233675Y15068D01*
X233687Y15060D01*
X233698Y15052D01*
X233699Y15051D01*
X233700Y15050D01*
X233702Y15046D01*
X233706Y15043D01*
X233711Y15038D01*
X233715Y15033D01*
X233721Y15025D01*
X233725Y15017D01*
X233731Y15008D01*
X233736Y14998D01*
X233747Y14976D01*
X233755Y14950D01*
X233758Y14936D01*
X233760Y14922D01*
X233677Y14915D01*
Y14916D01*
Y14918D01*
X233676Y14921D01*
X233675Y14925D01*
X233673Y14935D01*
X233669Y14949D01*
X233663Y14963D01*
X233656Y14979D01*
X233647Y14993D01*
X233636Y15006D01*
X233634Y15007D01*
X233630Y15010D01*
X233623Y15015D01*
X233613Y15021D01*
X233602Y15026D01*
X233588Y15031D01*
X233572Y15034D01*
X233554Y15035D01*
X233549D01*
X233545Y15034D01*
X233534Y15033D01*
X233521Y15030D01*
X233505Y15025D01*
X233490Y15018D01*
X233473Y15007D01*
X233466Y15000D01*
X233458Y14993D01*
X233457Y14992D01*
X233456Y14991D01*
X233455Y14988D01*
X233452Y14985D01*
X233445Y14975D01*
X233438Y14962D01*
X233431Y14947D01*
X233425Y14927D01*
X233420Y14904D01*
X233418Y14892D01*
Y14879D01*
Y14878D01*
Y14876D01*
Y14873D01*
X233419Y14868D01*
Y14862D01*
X233420Y14856D01*
X233423Y14841D01*
X233428Y14824D01*
X233434Y14806D01*
X233443Y14789D01*
X233456Y14774D01*
Y14773D01*
X233458Y14772D01*
X233463Y14767D01*
X233471Y14761D01*
X233482Y14753D01*
X233497Y14747D01*
X233514Y14740D01*
X233533Y14736D01*
X233544Y14734D01*
X233562D01*
X233569Y14735D01*
X233578Y14736D01*
X233589Y14739D01*
X233601Y14741D01*
X233613Y14746D01*
X233625Y14751D01*
X233626Y14752D01*
X233629Y14754D01*
X233635Y14759D01*
X233642Y14763D01*
X233650Y14770D01*
X233657Y14778D01*
X233665Y14787D01*
X233672Y14797D01*
X233746Y14787D01*
X233684Y14457D01*
X233366D01*
Y14532D01*
X233622D01*
X233656Y14705D01*
X233655Y14704D01*
X233653Y14703D01*
X233651Y14702D01*
X233646Y14699D01*
X233640Y14696D01*
X233634Y14692D01*
X233619Y14685D01*
X233601Y14677D01*
X233580Y14671D01*
X233558Y14666D01*
X233547Y14665D01*
X233527D01*
X233521Y14665D01*
X233514Y14666D01*
X233505Y14667D01*
X233496Y14669D01*
X233486Y14672D01*
X233464Y14678D01*
X233452Y14683D01*
X233440Y14690D01*
X233428Y14696D01*
X233416Y14703D01*
X233405Y14713D01*
X233393Y14723D01*
X233393Y14724D01*
X233391Y14726D01*
X233388Y14728D01*
X233384Y14733D01*
X233380Y14739D01*
X233375Y14746D01*
X233369Y14754D01*
X233364Y14763D01*
X233359Y14774D01*
X233354Y14785D01*
X233349Y14798D01*
X233344Y14811D01*
X233341Y14824D01*
X233338Y14840D01*
X233336Y14856D01*
X233335Y14873D01*
Y14873D01*
Y14876D01*
Y14881D01*
X233336Y14887D01*
X233337Y14895D01*
X233338Y14903D01*
X233340Y14913D01*
X233342Y14923D01*
X233347Y14947D01*
X233357Y14972D01*
X233362Y14985D01*
X233369Y14997D01*
X233377Y15010D01*
X233386Y15022D01*
X233387Y15023D01*
X233389Y15026D01*
X233393Y15030D01*
X233397Y15034D01*
X233404Y15040D01*
X233411Y15047D01*
X233420Y15054D01*
X233430Y15061D01*
X233442Y15069D01*
X233455Y15075D01*
X233468Y15082D01*
X233483Y15088D01*
X233499Y15093D01*
X233516Y15096D01*
X233535Y15099D01*
X233554Y15100D01*
X233563D01*
X233569Y15099D01*
D02*
G37*
G36*
X234870Y14449D02*
X234624D01*
X234607Y14450D01*
X234589Y14451D01*
X234570Y14453D01*
X234552Y14456D01*
X234536Y14458D01*
X234535D01*
X234533Y14459D01*
X234531D01*
X234527Y14461D01*
X234517Y14464D01*
X234504Y14469D01*
X234489Y14475D01*
X234473Y14483D01*
X234458Y14493D01*
X234443Y14505D01*
X234442Y14506D01*
X234441Y14506D01*
X234438Y14509D01*
X234435Y14512D01*
X234425Y14521D01*
X234414Y14534D01*
X234402Y14550D01*
X234389Y14568D01*
X234377Y14590D01*
X234367Y14614D01*
Y14615D01*
X234366Y14616D01*
X234364Y14620D01*
X234363Y14626D01*
X234361Y14632D01*
X234359Y14640D01*
X234357Y14648D01*
X234354Y14658D01*
X234351Y14668D01*
X234349Y14680D01*
X234345Y14706D01*
X234342Y14735D01*
X234341Y14766D01*
Y14767D01*
Y14769D01*
Y14774D01*
Y14778D01*
X234342Y14785D01*
Y14792D01*
X234343Y14810D01*
X234346Y14830D01*
X234349Y14851D01*
X234353Y14873D01*
X234359Y14896D01*
Y14897D01*
X234360Y14898D01*
X234361Y14901D01*
X234361Y14905D01*
X234365Y14915D01*
X234371Y14928D01*
X234376Y14943D01*
X234384Y14958D01*
X234393Y14973D01*
X234402Y14988D01*
X234403Y14990D01*
X234407Y14995D01*
X234412Y15001D01*
X234420Y15009D01*
X234428Y15019D01*
X234438Y15028D01*
X234448Y15038D01*
X234460Y15046D01*
X234462Y15047D01*
X234466Y15050D01*
X234472Y15054D01*
X234482Y15058D01*
X234493Y15064D01*
X234506Y15069D01*
X234521Y15074D01*
X234537Y15079D01*
X234539D01*
X234542Y15080D01*
X234545Y15081D01*
X234554Y15082D01*
X234567Y15083D01*
X234582Y15085D01*
X234599Y15087D01*
X234619Y15088D01*
X234640Y15089D01*
X234870D01*
Y14449D01*
D02*
G37*
G36*
X234040Y14589D02*
X234041Y14590D01*
X234045Y14593D01*
X234051Y14599D01*
X234060Y14605D01*
X234070Y14614D01*
X234083Y14623D01*
X234098Y14633D01*
X234115Y14643D01*
X234116D01*
X234116Y14644D01*
X234122Y14648D01*
X234131Y14653D01*
X234142Y14658D01*
X234155Y14665D01*
X234169Y14671D01*
X234183Y14677D01*
X234197Y14683D01*
Y14607D01*
X234196D01*
X234194Y14605D01*
X234190Y14604D01*
X234186Y14602D01*
X234180Y14599D01*
X234174Y14595D01*
X234158Y14586D01*
X234140Y14576D01*
X234121Y14563D01*
X234102Y14548D01*
X234082Y14532D01*
X234081Y14531D01*
X234080Y14530D01*
X234078Y14528D01*
X234074Y14525D01*
X234066Y14516D01*
X234055Y14505D01*
X234043Y14492D01*
X234031Y14477D01*
X234021Y14462D01*
X234012Y14446D01*
X233961D01*
Y15089D01*
X234040D01*
Y14589D01*
D02*
G37*
G36*
X236200Y21453D02*
X236212Y21451D01*
X236227Y21448D01*
X236244Y21443D01*
X236261Y21438D01*
X236277Y21431D01*
X236278D01*
X236279Y21430D01*
X236285Y21427D01*
X236293Y21421D01*
X236302Y21415D01*
X236313Y21406D01*
X236324Y21395D01*
X236335Y21383D01*
X236345Y21370D01*
X236346Y21368D01*
X236348Y21363D01*
X236352Y21355D01*
X236357Y21345D01*
X236361Y21333D01*
X236365Y21319D01*
X236368Y21303D01*
X236369Y21287D01*
Y21285D01*
Y21280D01*
X236368Y21272D01*
X236366Y21262D01*
X236363Y21250D01*
X236359Y21237D01*
X236353Y21224D01*
X236346Y21211D01*
X236345Y21210D01*
X236342Y21206D01*
X236336Y21199D01*
X236329Y21192D01*
X236320Y21184D01*
X236309Y21174D01*
X236296Y21166D01*
X236280Y21158D01*
X236281D01*
X236283Y21157D01*
X236285Y21156D01*
X236289Y21155D01*
X236299Y21151D01*
X236312Y21146D01*
X236327Y21138D01*
X236342Y21129D01*
X236356Y21117D01*
X236369Y21103D01*
X236370Y21101D01*
X236373Y21096D01*
X236379Y21087D01*
X236384Y21075D01*
X236390Y21060D01*
X236396Y21042D01*
X236399Y21022D01*
X236400Y21000D01*
Y20999D01*
Y20996D01*
Y20991D01*
X236399Y20986D01*
X236398Y20978D01*
X236396Y20970D01*
X236395Y20961D01*
X236393Y20951D01*
X236385Y20928D01*
X236380Y20916D01*
X236374Y20905D01*
X236367Y20893D01*
X236359Y20881D01*
X236349Y20869D01*
X236338Y20858D01*
X236337Y20857D01*
X236335Y20855D01*
X236332Y20853D01*
X236327Y20849D01*
X236322Y20844D01*
X236314Y20840D01*
X236306Y20834D01*
X236296Y20830D01*
X236285Y20824D01*
X236273Y20818D01*
X236261Y20814D01*
X236248Y20809D01*
X236233Y20806D01*
X236217Y20803D01*
X236201Y20801D01*
X236184Y20800D01*
X236175D01*
X236170Y20801D01*
X236163Y20802D01*
X236154Y20803D01*
X236145Y20805D01*
X236135Y20806D01*
X236113Y20812D01*
X236089Y20821D01*
X236077Y20827D01*
X236066Y20833D01*
X236055Y20842D01*
X236044Y20850D01*
X236043Y20851D01*
X236041Y20853D01*
X236039Y20855D01*
X236036Y20859D01*
X236031Y20864D01*
X236027Y20870D01*
X236021Y20877D01*
X236016Y20885D01*
X236010Y20894D01*
X236004Y20904D01*
X235994Y20926D01*
X235986Y20952D01*
X235983Y20965D01*
X235981Y20980D01*
X236060Y20990D01*
Y20990D01*
X236061Y20988D01*
X236062Y20984D01*
X236063Y20979D01*
X236064Y20974D01*
X236065Y20967D01*
X236070Y20953D01*
X236077Y20937D01*
X236085Y20921D01*
X236094Y20906D01*
X236105Y20893D01*
X236107Y20892D01*
X236111Y20889D01*
X236118Y20884D01*
X236127Y20879D01*
X236138Y20874D01*
X236152Y20869D01*
X236168Y20866D01*
X236185Y20865D01*
X236190D01*
X236194Y20866D01*
X236204Y20867D01*
X236217Y20869D01*
X236232Y20874D01*
X236248Y20880D01*
X236263Y20890D01*
X236278Y20903D01*
X236280Y20904D01*
X236285Y20910D01*
X236290Y20918D01*
X236298Y20929D01*
X236305Y20943D01*
X236310Y20959D01*
X236315Y20978D01*
X236317Y20998D01*
Y20999D01*
Y21001D01*
Y21003D01*
X236316Y21007D01*
X236315Y21017D01*
X236312Y21029D01*
X236309Y21044D01*
X236302Y21059D01*
X236293Y21074D01*
X236281Y21088D01*
X236279Y21089D01*
X236274Y21093D01*
X236267Y21099D01*
X236257Y21105D01*
X236244Y21112D01*
X236228Y21117D01*
X236211Y21121D01*
X236191Y21123D01*
X236183D01*
X236176Y21122D01*
X236168Y21121D01*
X236159Y21119D01*
X236148Y21117D01*
X236136Y21114D01*
X236145Y21184D01*
X236150D01*
X236153Y21183D01*
X236165D01*
X236175Y21185D01*
X236187Y21186D01*
X236201Y21189D01*
X236217Y21194D01*
X236232Y21200D01*
X236248Y21209D01*
X236249D01*
X236249Y21210D01*
X236254Y21213D01*
X236261Y21220D01*
X236268Y21228D01*
X236275Y21240D01*
X236282Y21254D01*
X236286Y21270D01*
X236288Y21279D01*
Y21289D01*
Y21290D01*
Y21291D01*
Y21296D01*
X236286Y21304D01*
X236285Y21314D01*
X236281Y21325D01*
X236276Y21337D01*
X236269Y21349D01*
X236259Y21360D01*
X236258Y21361D01*
X236253Y21365D01*
X236247Y21370D01*
X236238Y21375D01*
X236227Y21380D01*
X236214Y21384D01*
X236199Y21388D01*
X236183Y21389D01*
X236175D01*
X236167Y21387D01*
X236156Y21385D01*
X236144Y21382D01*
X236132Y21377D01*
X236119Y21370D01*
X236107Y21360D01*
X236106Y21359D01*
X236102Y21355D01*
X236097Y21348D01*
X236090Y21339D01*
X236084Y21327D01*
X236077Y21312D01*
X236072Y21295D01*
X236068Y21274D01*
X235990Y21288D01*
Y21289D01*
X235991Y21292D01*
X235991Y21296D01*
X235992Y21301D01*
X235994Y21308D01*
X235997Y21315D01*
X236003Y21333D01*
X236012Y21353D01*
X236023Y21373D01*
X236037Y21393D01*
X236054Y21410D01*
X236055Y21411D01*
X236057Y21412D01*
X236060Y21414D01*
X236064Y21417D01*
X236068Y21420D01*
X236075Y21424D01*
X236081Y21428D01*
X236089Y21432D01*
X236108Y21440D01*
X236129Y21447D01*
X236154Y21452D01*
X236167Y21454D01*
X236190D01*
X236200Y21453D01*
D02*
G37*
G36*
X235779Y20811D02*
X235700D01*
Y21311D01*
X235699Y21310D01*
X235695Y21307D01*
X235689Y21301D01*
X235680Y21295D01*
X235670Y21286D01*
X235657Y21277D01*
X235642Y21267D01*
X235625Y21257D01*
X235624D01*
X235624Y21256D01*
X235618Y21252D01*
X235609Y21247D01*
X235598Y21242D01*
X235585Y21235D01*
X235571Y21229D01*
X235557Y21223D01*
X235543Y21217D01*
Y21293D01*
X235544D01*
X235546Y21295D01*
X235550Y21296D01*
X235554Y21298D01*
X235560Y21301D01*
X235566Y21305D01*
X235582Y21314D01*
X235600Y21324D01*
X235619Y21337D01*
X235638Y21352D01*
X235658Y21368D01*
X235659Y21369D01*
X235660Y21370D01*
X235662Y21372D01*
X235666Y21375D01*
X235674Y21384D01*
X235685Y21395D01*
X235697Y21408D01*
X235709Y21423D01*
X235719Y21438D01*
X235728Y21454D01*
X235779D01*
Y20811D01*
D02*
G37*
G36*
X235133Y21450D02*
X235151Y21449D01*
X235170Y21447D01*
X235188Y21444D01*
X235204Y21442D01*
X235205D01*
X235207Y21441D01*
X235209D01*
X235213Y21439D01*
X235223Y21436D01*
X235236Y21431D01*
X235251Y21425D01*
X235267Y21417D01*
X235282Y21407D01*
X235297Y21395D01*
X235298Y21394D01*
X235299Y21394D01*
X235302Y21391D01*
X235305Y21388D01*
X235315Y21379D01*
X235326Y21366D01*
X235338Y21350D01*
X235351Y21332D01*
X235363Y21310D01*
X235373Y21286D01*
Y21285D01*
X235374Y21284D01*
X235376Y21280D01*
X235377Y21274D01*
X235379Y21268D01*
X235381Y21260D01*
X235383Y21252D01*
X235386Y21242D01*
X235389Y21232D01*
X235391Y21220D01*
X235395Y21194D01*
X235398Y21165D01*
X235399Y21134D01*
Y21133D01*
Y21131D01*
Y21126D01*
Y21122D01*
X235398Y21115D01*
Y21108D01*
X235397Y21090D01*
X235394Y21070D01*
X235391Y21049D01*
X235387Y21027D01*
X235381Y21004D01*
Y21003D01*
X235380Y21002D01*
X235379Y20999D01*
X235378Y20995D01*
X235375Y20985D01*
X235369Y20972D01*
X235364Y20957D01*
X235356Y20942D01*
X235347Y20927D01*
X235338Y20912D01*
X235337Y20910D01*
X235333Y20905D01*
X235328Y20899D01*
X235320Y20891D01*
X235312Y20881D01*
X235302Y20872D01*
X235292Y20862D01*
X235280Y20854D01*
X235278Y20853D01*
X235274Y20850D01*
X235268Y20846D01*
X235258Y20842D01*
X235247Y20836D01*
X235234Y20831D01*
X235219Y20826D01*
X235203Y20821D01*
X235201D01*
X235198Y20820D01*
X235195Y20819D01*
X235186Y20818D01*
X235173Y20817D01*
X235158Y20815D01*
X235141Y20813D01*
X235121Y20812D01*
X235100Y20811D01*
X234870D01*
Y21451D01*
X235116D01*
X235133Y21450D01*
D02*
G37*
G36*
X419181Y27300D02*
X419103D01*
Y27800D01*
X419102Y27799D01*
X419097Y27796D01*
X419092Y27790D01*
X419082Y27784D01*
X419072Y27775D01*
X419059Y27766D01*
X419044Y27756D01*
X419028Y27746D01*
X419027D01*
X419026Y27745D01*
X419020Y27741D01*
X419011Y27736D01*
X419000Y27731D01*
X418987Y27724D01*
X418973Y27718D01*
X418959Y27711D01*
X418945Y27706D01*
Y27782D01*
X418946D01*
X418948Y27784D01*
X418952Y27784D01*
X418957Y27787D01*
X418962Y27790D01*
X418969Y27794D01*
X418984Y27803D01*
X419003Y27813D01*
X419021Y27826D01*
X419041Y27841D01*
X419060Y27857D01*
X419061Y27858D01*
X419062Y27858D01*
X419065Y27861D01*
X419068Y27864D01*
X419077Y27873D01*
X419088Y27884D01*
X419099Y27897D01*
X419111Y27912D01*
X419121Y27927D01*
X419130Y27943D01*
X419181D01*
Y27300D01*
D02*
G37*
G36*
X418684D02*
X418605D01*
Y27800D01*
X418604Y27799D01*
X418600Y27796D01*
X418594Y27790D01*
X418585Y27784D01*
X418575Y27775D01*
X418562Y27766D01*
X418547Y27756D01*
X418530Y27746D01*
X418529D01*
X418529Y27745D01*
X418523Y27741D01*
X418514Y27736D01*
X418503Y27731D01*
X418490Y27724D01*
X418476Y27718D01*
X418462Y27711D01*
X418448Y27706D01*
Y27782D01*
X418449D01*
X418451Y27784D01*
X418455Y27784D01*
X418459Y27787D01*
X418465Y27790D01*
X418471Y27794D01*
X418487Y27803D01*
X418505Y27813D01*
X418524Y27826D01*
X418543Y27841D01*
X418563Y27857D01*
X418564Y27858D01*
X418565Y27858D01*
X418567Y27861D01*
X418571Y27864D01*
X418579Y27873D01*
X418590Y27884D01*
X418602Y27897D01*
X418614Y27912D01*
X418624Y27927D01*
X418633Y27943D01*
X418684D01*
Y27300D01*
D02*
G37*
G36*
X418038Y27939D02*
X418056Y27938D01*
X418075Y27936D01*
X418093Y27933D01*
X418109Y27931D01*
X418110D01*
X418112Y27930D01*
X418114D01*
X418118Y27928D01*
X418128Y27925D01*
X418141Y27920D01*
X418156Y27914D01*
X418172Y27906D01*
X418187Y27896D01*
X418202Y27884D01*
X418203Y27883D01*
X418204Y27882D01*
X418207Y27880D01*
X418210Y27877D01*
X418220Y27868D01*
X418231Y27855D01*
X418243Y27839D01*
X418256Y27821D01*
X418268Y27799D01*
X418278Y27775D01*
Y27774D01*
X418279Y27772D01*
X418281Y27769D01*
X418282Y27763D01*
X418284Y27757D01*
X418286Y27749D01*
X418288Y27741D01*
X418291Y27731D01*
X418294Y27721D01*
X418296Y27709D01*
X418300Y27683D01*
X418303Y27654D01*
X418304Y27623D01*
Y27622D01*
Y27620D01*
Y27615D01*
Y27611D01*
X418303Y27604D01*
Y27597D01*
X418302Y27579D01*
X418299Y27559D01*
X418296Y27538D01*
X418292Y27515D01*
X418286Y27493D01*
Y27492D01*
X418285Y27490D01*
X418284Y27488D01*
X418283Y27484D01*
X418280Y27474D01*
X418274Y27461D01*
X418269Y27446D01*
X418261Y27431D01*
X418252Y27416D01*
X418243Y27401D01*
X418242Y27399D01*
X418238Y27394D01*
X418233Y27388D01*
X418225Y27379D01*
X418217Y27370D01*
X418207Y27361D01*
X418197Y27351D01*
X418185Y27343D01*
X418183Y27342D01*
X418179Y27339D01*
X418173Y27335D01*
X418163Y27330D01*
X418152Y27325D01*
X418139Y27320D01*
X418124Y27315D01*
X418108Y27310D01*
X418106D01*
X418103Y27309D01*
X418100Y27308D01*
X418091Y27307D01*
X418078Y27306D01*
X418063Y27304D01*
X418046Y27302D01*
X418026Y27301D01*
X418005Y27300D01*
X417775D01*
Y27940D01*
X418021D01*
X418038Y27939D01*
D02*
G37*
G36*
X200792Y24836D02*
X200800Y24835D01*
X200811Y24834D01*
X200821Y24833D01*
X200833Y24830D01*
X200858Y24825D01*
X200885Y24817D01*
X200899Y24811D01*
X200912Y24805D01*
X200925Y24796D01*
X200938Y24788D01*
X200939Y24787D01*
X200941Y24786D01*
X200945Y24783D01*
X200949Y24779D01*
X200954Y24774D01*
X200960Y24768D01*
X200967Y24760D01*
X200974Y24753D01*
X200982Y24744D01*
X200989Y24733D01*
X200997Y24721D01*
X201005Y24709D01*
X201011Y24696D01*
X201019Y24682D01*
X201024Y24667D01*
X201030Y24650D01*
X200947Y24631D01*
Y24632D01*
X200946Y24634D01*
X200944Y24637D01*
X200942Y24642D01*
X200940Y24647D01*
X200937Y24655D01*
X200930Y24670D01*
X200921Y24686D01*
X200910Y24703D01*
X200896Y24719D01*
X200881Y24733D01*
X200879Y24734D01*
X200873Y24738D01*
X200864Y24743D01*
X200852Y24749D01*
X200836Y24755D01*
X200819Y24760D01*
X200798Y24764D01*
X200775Y24765D01*
X200767D01*
X200763Y24764D01*
X200756D01*
X200749Y24763D01*
X200731Y24760D01*
X200712Y24757D01*
X200691Y24750D01*
X200670Y24741D01*
X200651Y24729D01*
X200650D01*
X200649Y24727D01*
X200642Y24722D01*
X200634Y24715D01*
X200624Y24704D01*
X200612Y24690D01*
X200601Y24674D01*
X200591Y24655D01*
X200581Y24634D01*
Y24633D01*
X200580Y24631D01*
X200579Y24628D01*
X200579Y24623D01*
X200577Y24618D01*
X200575Y24611D01*
X200572Y24596D01*
X200568Y24577D01*
X200565Y24557D01*
X200563Y24535D01*
X200562Y24511D01*
Y24510D01*
Y24507D01*
Y24502D01*
Y24497D01*
X200563Y24490D01*
Y24482D01*
X200564Y24473D01*
X200565Y24463D01*
X200567Y24440D01*
X200572Y24416D01*
X200578Y24392D01*
X200585Y24368D01*
Y24367D01*
X200586Y24365D01*
X200588Y24363D01*
X200590Y24358D01*
X200595Y24347D01*
X200604Y24334D01*
X200614Y24319D01*
X200627Y24303D01*
X200641Y24290D01*
X200659Y24277D01*
X200660D01*
X200662Y24276D01*
X200665Y24274D01*
X200668Y24272D01*
X200673Y24270D01*
X200678Y24267D01*
X200691Y24262D01*
X200708Y24256D01*
X200726Y24252D01*
X200747Y24248D01*
X200768Y24247D01*
X200775D01*
X200780Y24248D01*
X200787D01*
X200793Y24249D01*
X200810Y24253D01*
X200829Y24257D01*
X200849Y24265D01*
X200869Y24275D01*
X200879Y24280D01*
X200888Y24288D01*
X200889Y24289D01*
X200890Y24290D01*
X200893Y24292D01*
X200897Y24295D01*
X200900Y24300D01*
X200905Y24305D01*
X200910Y24311D01*
X200915Y24318D01*
X200921Y24327D01*
X200927Y24336D01*
X200933Y24345D01*
X200938Y24356D01*
X200943Y24368D01*
X200947Y24381D01*
X200952Y24395D01*
X200956Y24410D01*
X201041Y24389D01*
Y24388D01*
X201040Y24384D01*
X201038Y24378D01*
X201035Y24371D01*
X201033Y24363D01*
X201029Y24353D01*
X201024Y24341D01*
X201019Y24329D01*
X201006Y24303D01*
X200989Y24278D01*
X200979Y24265D01*
X200969Y24252D01*
X200958Y24241D01*
X200945Y24230D01*
X200944Y24229D01*
X200942Y24227D01*
X200937Y24225D01*
X200933Y24221D01*
X200925Y24217D01*
X200918Y24212D01*
X200908Y24207D01*
X200898Y24203D01*
X200885Y24197D01*
X200873Y24193D01*
X200859Y24188D01*
X200844Y24183D01*
X200828Y24180D01*
X200812Y24178D01*
X200794Y24176D01*
X200775Y24175D01*
X200765D01*
X200758Y24176D01*
X200750D01*
X200739Y24177D01*
X200728Y24179D01*
X200715Y24181D01*
X200689Y24185D01*
X200661Y24193D01*
X200633Y24203D01*
X200620Y24209D01*
X200607Y24217D01*
X200606Y24218D01*
X200604Y24218D01*
X200601Y24221D01*
X200597Y24225D01*
X200591Y24229D01*
X200585Y24234D01*
X200578Y24241D01*
X200570Y24248D01*
X200563Y24256D01*
X200555Y24265D01*
X200538Y24286D01*
X200522Y24311D01*
X200508Y24339D01*
Y24340D01*
X200506Y24342D01*
X200505Y24347D01*
X200503Y24353D01*
X200501Y24360D01*
X200498Y24369D01*
X200494Y24379D01*
X200492Y24390D01*
X200489Y24402D01*
X200485Y24416D01*
X200481Y24445D01*
X200477Y24477D01*
X200475Y24511D01*
Y24512D01*
Y24515D01*
Y24521D01*
X200476Y24527D01*
Y24536D01*
X200477Y24546D01*
X200478Y24558D01*
X200480Y24570D01*
X200484Y24597D01*
X200491Y24626D01*
X200500Y24656D01*
X200513Y24684D01*
X200514Y24685D01*
X200515Y24688D01*
X200517Y24692D01*
X200520Y24696D01*
X200524Y24703D01*
X200529Y24710D01*
X200541Y24727D01*
X200556Y24745D01*
X200575Y24764D01*
X200596Y24782D01*
X200621Y24798D01*
X200622Y24799D01*
X200625Y24800D01*
X200628Y24802D01*
X200633Y24805D01*
X200640Y24807D01*
X200648Y24810D01*
X200657Y24814D01*
X200667Y24818D01*
X200678Y24821D01*
X200690Y24825D01*
X200716Y24830D01*
X200746Y24835D01*
X200776Y24837D01*
X200786D01*
X200792Y24836D01*
D02*
G37*
G36*
X201507Y24743D02*
X201251D01*
X201216Y24570D01*
X201217Y24571D01*
X201219Y24572D01*
X201222Y24573D01*
X201227Y24576D01*
X201232Y24579D01*
X201239Y24583D01*
X201253Y24590D01*
X201272Y24598D01*
X201292Y24604D01*
X201314Y24609D01*
X201326Y24610D01*
X201346D01*
X201351Y24610D01*
X201359Y24609D01*
X201367Y24608D01*
X201376Y24606D01*
X201387Y24603D01*
X201409Y24597D01*
X201421Y24592D01*
X201433Y24585D01*
X201445Y24579D01*
X201457Y24572D01*
X201468Y24562D01*
X201479Y24552D01*
X201480Y24551D01*
X201482Y24549D01*
X201485Y24547D01*
X201488Y24542D01*
X201493Y24536D01*
X201498Y24529D01*
X201503Y24521D01*
X201509Y24512D01*
X201513Y24501D01*
X201519Y24490D01*
X201523Y24477D01*
X201528Y24464D01*
X201532Y24451D01*
X201535Y24435D01*
X201536Y24419D01*
X201537Y24402D01*
Y24402D01*
Y24399D01*
Y24394D01*
X201536Y24388D01*
X201535Y24380D01*
X201535Y24372D01*
X201533Y24362D01*
X201531Y24352D01*
X201525Y24328D01*
X201516Y24303D01*
X201510Y24290D01*
X201503Y24278D01*
X201496Y24265D01*
X201486Y24253D01*
X201486Y24252D01*
X201484Y24249D01*
X201480Y24245D01*
X201475Y24241D01*
X201469Y24235D01*
X201461Y24228D01*
X201452Y24221D01*
X201442Y24214D01*
X201431Y24206D01*
X201418Y24200D01*
X201404Y24193D01*
X201389Y24187D01*
X201374Y24182D01*
X201356Y24179D01*
X201338Y24176D01*
X201318Y24175D01*
X201310D01*
X201303Y24176D01*
X201296Y24177D01*
X201288Y24178D01*
X201277Y24179D01*
X201267Y24181D01*
X201244Y24187D01*
X201221Y24195D01*
X201209Y24201D01*
X201197Y24207D01*
X201186Y24215D01*
X201175Y24223D01*
X201174Y24224D01*
X201172Y24225D01*
X201170Y24229D01*
X201167Y24232D01*
X201162Y24237D01*
X201157Y24242D01*
X201152Y24250D01*
X201147Y24258D01*
X201142Y24267D01*
X201136Y24277D01*
X201126Y24299D01*
X201118Y24325D01*
X201115Y24339D01*
X201113Y24353D01*
X201195Y24360D01*
Y24359D01*
Y24357D01*
X201196Y24354D01*
X201197Y24350D01*
X201200Y24340D01*
X201204Y24326D01*
X201209Y24312D01*
X201216Y24296D01*
X201226Y24282D01*
X201237Y24269D01*
X201239Y24268D01*
X201242Y24265D01*
X201250Y24260D01*
X201260Y24254D01*
X201271Y24249D01*
X201285Y24244D01*
X201301Y24241D01*
X201318Y24240D01*
X201324D01*
X201327Y24241D01*
X201339Y24242D01*
X201351Y24245D01*
X201367Y24250D01*
X201383Y24257D01*
X201400Y24268D01*
X201407Y24275D01*
X201414Y24282D01*
X201415Y24283D01*
X201416Y24284D01*
X201418Y24287D01*
X201421Y24290D01*
X201427Y24300D01*
X201435Y24313D01*
X201441Y24328D01*
X201448Y24348D01*
X201452Y24371D01*
X201454Y24383D01*
Y24396D01*
Y24397D01*
Y24399D01*
Y24402D01*
X201453Y24407D01*
Y24413D01*
X201452Y24419D01*
X201449Y24434D01*
X201445Y24451D01*
X201438Y24469D01*
X201429Y24486D01*
X201416Y24501D01*
Y24502D01*
X201414Y24503D01*
X201410Y24508D01*
X201401Y24514D01*
X201390Y24522D01*
X201376Y24528D01*
X201359Y24535D01*
X201339Y24539D01*
X201328Y24541D01*
X201311D01*
X201303Y24540D01*
X201294Y24539D01*
X201283Y24536D01*
X201272Y24534D01*
X201260Y24529D01*
X201248Y24524D01*
X201247Y24523D01*
X201243Y24521D01*
X201238Y24516D01*
X201230Y24512D01*
X201223Y24505D01*
X201216Y24497D01*
X201207Y24488D01*
X201201Y24478D01*
X201127Y24488D01*
X201189Y24818D01*
X201507D01*
Y24743D01*
D02*
G37*
G36*
X177962Y46008D02*
X177970Y46007D01*
X177978Y46006D01*
X177988Y46004D01*
X177998Y46002D01*
X178022Y45997D01*
X178047Y45988D01*
X178060Y45982D01*
X178072Y45975D01*
X178085Y45967D01*
X178097Y45958D01*
X178098Y45957D01*
X178101Y45955D01*
X178105Y45952D01*
X178109Y45947D01*
X178115Y45940D01*
X178122Y45933D01*
X178129Y45924D01*
X178136Y45914D01*
X178144Y45903D01*
X178150Y45890D01*
X178157Y45876D01*
X178163Y45861D01*
X178168Y45845D01*
X178171Y45828D01*
X178174Y45809D01*
X178175Y45790D01*
Y45781D01*
X178174Y45775D01*
X178173Y45768D01*
X178172Y45759D01*
X178171Y45749D01*
X178169Y45739D01*
X178163Y45716D01*
X178155Y45693D01*
X178149Y45681D01*
X178143Y45669D01*
X178135Y45658D01*
X178127Y45646D01*
X178126Y45645D01*
X178125Y45644D01*
X178121Y45642D01*
X178118Y45638D01*
X178113Y45633D01*
X178108Y45629D01*
X178100Y45623D01*
X178092Y45619D01*
X178083Y45613D01*
X178073Y45608D01*
X178051Y45597D01*
X178025Y45589D01*
X178011Y45586D01*
X177997Y45584D01*
X177990Y45667D01*
X177991D01*
X177993D01*
X177996Y45668D01*
X178000Y45669D01*
X178010Y45671D01*
X178024Y45675D01*
X178038Y45681D01*
X178054Y45688D01*
X178068Y45697D01*
X178081Y45708D01*
X178082Y45710D01*
X178085Y45714D01*
X178090Y45721D01*
X178096Y45731D01*
X178101Y45743D01*
X178106Y45756D01*
X178109Y45772D01*
X178110Y45790D01*
Y45795D01*
X178109Y45799D01*
X178108Y45810D01*
X178105Y45823D01*
X178100Y45839D01*
X178093Y45854D01*
X178082Y45871D01*
X178075Y45878D01*
X178068Y45886D01*
X178067Y45887D01*
X178066Y45888D01*
X178063Y45890D01*
X178060Y45892D01*
X178050Y45899D01*
X178037Y45906D01*
X178022Y45913D01*
X178002Y45919D01*
X177979Y45924D01*
X177967Y45926D01*
X177954D01*
X177953D01*
X177951D01*
X177948D01*
X177943Y45925D01*
X177937D01*
X177931Y45924D01*
X177916Y45921D01*
X177899Y45916D01*
X177881Y45910D01*
X177864Y45901D01*
X177849Y45888D01*
X177848D01*
X177847Y45886D01*
X177842Y45881D01*
X177836Y45873D01*
X177828Y45862D01*
X177822Y45847D01*
X177815Y45830D01*
X177811Y45811D01*
X177809Y45800D01*
Y45782D01*
X177810Y45775D01*
X177811Y45766D01*
X177814Y45755D01*
X177816Y45743D01*
X177821Y45731D01*
X177826Y45719D01*
X177827Y45719D01*
X177829Y45715D01*
X177834Y45709D01*
X177838Y45702D01*
X177845Y45694D01*
X177853Y45687D01*
X177862Y45679D01*
X177872Y45672D01*
X177862Y45598D01*
X177532Y45660D01*
Y45978D01*
X177607D01*
Y45722D01*
X177780Y45688D01*
X177779Y45689D01*
X177778Y45691D01*
X177777Y45694D01*
X177774Y45698D01*
X177771Y45704D01*
X177767Y45710D01*
X177760Y45725D01*
X177752Y45743D01*
X177746Y45764D01*
X177741Y45786D01*
X177740Y45797D01*
Y45817D01*
X177740Y45823D01*
X177741Y45830D01*
X177742Y45839D01*
X177744Y45848D01*
X177747Y45858D01*
X177753Y45880D01*
X177758Y45892D01*
X177764Y45904D01*
X177771Y45916D01*
X177778Y45928D01*
X177788Y45939D01*
X177798Y45951D01*
X177799Y45952D01*
X177801Y45953D01*
X177803Y45956D01*
X177808Y45960D01*
X177814Y45964D01*
X177821Y45969D01*
X177829Y45975D01*
X177838Y45980D01*
X177849Y45985D01*
X177860Y45990D01*
X177873Y45995D01*
X177886Y46000D01*
X177899Y46003D01*
X177915Y46006D01*
X177931Y46008D01*
X177948Y46009D01*
X177948D01*
X177951D01*
X177956D01*
X177962Y46008D01*
D02*
G37*
G36*
X177989Y45506D02*
X177997Y45505D01*
X178005Y45503D01*
X178014Y45501D01*
X178024Y45499D01*
X178046Y45492D01*
X178059Y45486D01*
X178070Y45481D01*
X178082Y45474D01*
X178094Y45465D01*
X178106Y45456D01*
X178117Y45445D01*
X178118Y45444D01*
X178120Y45442D01*
X178122Y45438D01*
X178126Y45434D01*
X178131Y45428D01*
X178135Y45421D01*
X178141Y45412D01*
X178145Y45402D01*
X178151Y45392D01*
X178157Y45380D01*
X178161Y45368D01*
X178166Y45354D01*
X178169Y45339D01*
X178172Y45324D01*
X178174Y45308D01*
X178175Y45290D01*
Y45282D01*
X178174Y45277D01*
X178173Y45269D01*
X178172Y45261D01*
X178170Y45252D01*
X178169Y45241D01*
X178163Y45219D01*
X178154Y45196D01*
X178148Y45184D01*
X178142Y45173D01*
X178133Y45162D01*
X178125Y45151D01*
X178124Y45150D01*
X178122Y45148D01*
X178120Y45145D01*
X178116Y45143D01*
X178111Y45138D01*
X178105Y45133D01*
X178098Y45128D01*
X178090Y45122D01*
X178081Y45117D01*
X178071Y45111D01*
X178049Y45101D01*
X178023Y45093D01*
X178010Y45090D01*
X177995Y45088D01*
X177985Y45167D01*
X177985D01*
X177987Y45167D01*
X177991Y45168D01*
X177996Y45169D01*
X178001Y45170D01*
X178008Y45172D01*
X178022Y45177D01*
X178038Y45183D01*
X178054Y45192D01*
X178069Y45201D01*
X178082Y45212D01*
X178083Y45214D01*
X178086Y45217D01*
X178091Y45225D01*
X178096Y45234D01*
X178101Y45245D01*
X178106Y45259D01*
X178109Y45275D01*
X178110Y45291D01*
Y45297D01*
X178109Y45301D01*
X178108Y45311D01*
X178106Y45324D01*
X178101Y45339D01*
X178095Y45354D01*
X178085Y45370D01*
X178072Y45385D01*
X178071Y45387D01*
X178065Y45391D01*
X178057Y45397D01*
X178046Y45404D01*
X178032Y45412D01*
X178016Y45417D01*
X177997Y45422D01*
X177977Y45424D01*
X177976D01*
X177974D01*
X177972D01*
X177968Y45423D01*
X177958Y45422D01*
X177946Y45419D01*
X177931Y45415D01*
X177916Y45409D01*
X177901Y45400D01*
X177887Y45388D01*
X177886Y45386D01*
X177882Y45381D01*
X177876Y45374D01*
X177870Y45363D01*
X177863Y45351D01*
X177858Y45335D01*
X177854Y45317D01*
X177852Y45298D01*
Y45290D01*
X177853Y45283D01*
X177854Y45275D01*
X177856Y45265D01*
X177858Y45254D01*
X177861Y45242D01*
X177791Y45252D01*
Y45256D01*
X177792Y45260D01*
Y45272D01*
X177790Y45282D01*
X177789Y45294D01*
X177786Y45308D01*
X177781Y45324D01*
X177775Y45339D01*
X177766Y45354D01*
Y45355D01*
X177765Y45356D01*
X177762Y45361D01*
X177755Y45367D01*
X177747Y45375D01*
X177735Y45382D01*
X177721Y45388D01*
X177705Y45393D01*
X177696Y45395D01*
X177686D01*
X177685D01*
X177684D01*
X177679D01*
X177671Y45393D01*
X177661Y45391D01*
X177650Y45388D01*
X177638Y45383D01*
X177626Y45376D01*
X177615Y45365D01*
X177614Y45364D01*
X177610Y45360D01*
X177605Y45353D01*
X177600Y45345D01*
X177595Y45334D01*
X177591Y45321D01*
X177587Y45306D01*
X177586Y45290D01*
Y45282D01*
X177588Y45274D01*
X177590Y45263D01*
X177593Y45251D01*
X177598Y45239D01*
X177605Y45226D01*
X177615Y45214D01*
X177616Y45213D01*
X177620Y45209D01*
X177627Y45204D01*
X177636Y45197D01*
X177648Y45191D01*
X177663Y45184D01*
X177680Y45179D01*
X177701Y45175D01*
X177687Y45096D01*
X177686D01*
X177683Y45097D01*
X177679Y45098D01*
X177674Y45099D01*
X177667Y45101D01*
X177660Y45104D01*
X177642Y45109D01*
X177622Y45118D01*
X177602Y45130D01*
X177582Y45143D01*
X177565Y45161D01*
X177564Y45162D01*
X177563Y45164D01*
X177561Y45167D01*
X177558Y45170D01*
X177555Y45175D01*
X177551Y45181D01*
X177547Y45188D01*
X177543Y45196D01*
X177535Y45215D01*
X177528Y45236D01*
X177523Y45261D01*
X177521Y45274D01*
Y45297D01*
X177522Y45307D01*
X177524Y45319D01*
X177527Y45334D01*
X177532Y45351D01*
X177537Y45367D01*
X177544Y45384D01*
Y45385D01*
X177545Y45386D01*
X177548Y45391D01*
X177554Y45400D01*
X177560Y45409D01*
X177569Y45420D01*
X177580Y45431D01*
X177592Y45442D01*
X177605Y45451D01*
X177607Y45452D01*
X177612Y45455D01*
X177620Y45459D01*
X177630Y45463D01*
X177642Y45468D01*
X177656Y45472D01*
X177672Y45474D01*
X177688Y45475D01*
X177690D01*
X177695D01*
X177703Y45474D01*
X177713Y45473D01*
X177725Y45470D01*
X177738Y45465D01*
X177751Y45460D01*
X177764Y45452D01*
X177765Y45451D01*
X177769Y45449D01*
X177776Y45443D01*
X177783Y45436D01*
X177791Y45426D01*
X177801Y45415D01*
X177809Y45402D01*
X177817Y45387D01*
Y45388D01*
X177818Y45389D01*
X177819Y45392D01*
X177820Y45396D01*
X177824Y45406D01*
X177829Y45419D01*
X177837Y45434D01*
X177846Y45449D01*
X177858Y45462D01*
X177872Y45475D01*
X177874Y45476D01*
X177879Y45480D01*
X177888Y45486D01*
X177900Y45491D01*
X177915Y45497D01*
X177933Y45502D01*
X177953Y45506D01*
X177975Y45507D01*
X177976D01*
X177979D01*
X177984D01*
X177989Y45506D01*
D02*
G37*
G36*
X178164Y44932D02*
X178031Y44848D01*
X178030D01*
X178028Y44846D01*
X178025Y44844D01*
X178022Y44841D01*
X178011Y44835D01*
X177998Y44826D01*
X177985Y44816D01*
X177970Y44806D01*
X177956Y44796D01*
X177943Y44787D01*
X177942Y44786D01*
X177938Y44783D01*
X177933Y44778D01*
X177926Y44772D01*
X177912Y44758D01*
X177906Y44751D01*
X177900Y44743D01*
X177899Y44742D01*
X177899Y44740D01*
X177897Y44737D01*
X177894Y44731D01*
X177891Y44726D01*
X177888Y44719D01*
X177884Y44704D01*
Y44703D01*
X177883Y44702D01*
Y44698D01*
X177882Y44693D01*
X177881Y44687D01*
Y44679D01*
X177880Y44669D01*
Y44560D01*
X178164D01*
Y44475D01*
X177524D01*
Y44772D01*
X177525Y44779D01*
Y44787D01*
X177526Y44807D01*
X177529Y44827D01*
X177532Y44849D01*
X177536Y44870D01*
X177539Y44880D01*
X177542Y44888D01*
Y44889D01*
X177543Y44890D01*
X177545Y44896D01*
X177549Y44904D01*
X177556Y44914D01*
X177564Y44925D01*
X177575Y44937D01*
X177588Y44948D01*
X177603Y44959D01*
X177604D01*
X177605Y44960D01*
X177610Y44964D01*
X177619Y44968D01*
X177631Y44973D01*
X177645Y44978D01*
X177662Y44983D01*
X177679Y44985D01*
X177699Y44986D01*
X177700D01*
X177702D01*
X177705D01*
X177710Y44985D01*
X177716D01*
X177723Y44984D01*
X177739Y44981D01*
X177757Y44975D01*
X177777Y44968D01*
X177796Y44957D01*
X177805Y44949D01*
X177814Y44942D01*
X177815Y44941D01*
X177816Y44940D01*
X177819Y44937D01*
X177822Y44934D01*
X177826Y44929D01*
X177829Y44923D01*
X177834Y44916D01*
X177839Y44909D01*
X177844Y44899D01*
X177849Y44889D01*
X177854Y44878D01*
X177859Y44866D01*
X177863Y44852D01*
X177867Y44838D01*
X177870Y44823D01*
X177873Y44806D01*
X177874Y44808D01*
X177875Y44812D01*
X177879Y44817D01*
X177883Y44824D01*
X177893Y44841D01*
X177899Y44849D01*
X177905Y44857D01*
X177907Y44859D01*
X177912Y44863D01*
X177919Y44871D01*
X177928Y44880D01*
X177941Y44890D01*
X177955Y44902D01*
X177972Y44914D01*
X177990Y44927D01*
X178164Y45037D01*
Y44932D01*
D02*
G37*
G36*
X189685Y45915D02*
X189839D01*
Y45836D01*
X189685D01*
Y45558D01*
X189613D01*
X189199Y45851D01*
Y45915D01*
X189613D01*
Y46001D01*
X189685D01*
Y45915D01*
D02*
G37*
G36*
X189664Y45506D02*
X189672Y45505D01*
X189680Y45503D01*
X189689Y45501D01*
X189699Y45499D01*
X189721Y45492D01*
X189734Y45486D01*
X189745Y45481D01*
X189757Y45474D01*
X189769Y45465D01*
X189781Y45456D01*
X189792Y45445D01*
X189793Y45444D01*
X189795Y45442D01*
X189797Y45438D01*
X189801Y45434D01*
X189806Y45428D01*
X189810Y45421D01*
X189816Y45412D01*
X189820Y45402D01*
X189826Y45392D01*
X189832Y45380D01*
X189836Y45368D01*
X189841Y45354D01*
X189844Y45339D01*
X189847Y45324D01*
X189849Y45308D01*
X189850Y45290D01*
Y45282D01*
X189849Y45277D01*
X189848Y45269D01*
X189847Y45261D01*
X189845Y45252D01*
X189844Y45241D01*
X189838Y45219D01*
X189829Y45196D01*
X189823Y45184D01*
X189817Y45173D01*
X189808Y45162D01*
X189800Y45151D01*
X189799Y45150D01*
X189797Y45148D01*
X189795Y45145D01*
X189791Y45143D01*
X189786Y45138D01*
X189780Y45133D01*
X189773Y45128D01*
X189765Y45122D01*
X189756Y45117D01*
X189746Y45111D01*
X189724Y45101D01*
X189698Y45093D01*
X189685Y45090D01*
X189670Y45088D01*
X189660Y45167D01*
X189660D01*
X189662Y45167D01*
X189666Y45168D01*
X189671Y45169D01*
X189676Y45170D01*
X189683Y45172D01*
X189697Y45177D01*
X189713Y45183D01*
X189729Y45192D01*
X189744Y45201D01*
X189757Y45212D01*
X189758Y45214D01*
X189761Y45217D01*
X189766Y45225D01*
X189770Y45234D01*
X189776Y45245D01*
X189781Y45259D01*
X189784Y45275D01*
X189785Y45291D01*
Y45297D01*
X189784Y45301D01*
X189783Y45311D01*
X189781Y45324D01*
X189776Y45339D01*
X189770Y45354D01*
X189760Y45370D01*
X189747Y45385D01*
X189746Y45387D01*
X189740Y45391D01*
X189732Y45397D01*
X189721Y45404D01*
X189707Y45412D01*
X189691Y45417D01*
X189672Y45422D01*
X189652Y45424D01*
X189651D01*
X189649D01*
X189647D01*
X189643Y45423D01*
X189633Y45422D01*
X189621Y45419D01*
X189606Y45415D01*
X189591Y45409D01*
X189576Y45400D01*
X189562Y45388D01*
X189561Y45386D01*
X189557Y45381D01*
X189551Y45374D01*
X189545Y45363D01*
X189538Y45351D01*
X189533Y45335D01*
X189529Y45317D01*
X189527Y45298D01*
Y45290D01*
X189528Y45283D01*
X189529Y45275D01*
X189531Y45265D01*
X189533Y45254D01*
X189536Y45242D01*
X189466Y45252D01*
Y45256D01*
X189467Y45260D01*
Y45272D01*
X189465Y45282D01*
X189464Y45294D01*
X189461Y45308D01*
X189456Y45324D01*
X189450Y45339D01*
X189441Y45354D01*
Y45355D01*
X189440Y45356D01*
X189437Y45361D01*
X189430Y45367D01*
X189422Y45375D01*
X189410Y45382D01*
X189396Y45388D01*
X189380Y45393D01*
X189371Y45395D01*
X189361D01*
X189360D01*
X189359D01*
X189354D01*
X189346Y45393D01*
X189336Y45391D01*
X189325Y45388D01*
X189313Y45383D01*
X189301Y45376D01*
X189290Y45365D01*
X189289Y45364D01*
X189285Y45360D01*
X189280Y45353D01*
X189275Y45345D01*
X189270Y45334D01*
X189266Y45321D01*
X189262Y45306D01*
X189261Y45290D01*
Y45282D01*
X189263Y45274D01*
X189265Y45263D01*
X189268Y45251D01*
X189273Y45239D01*
X189280Y45226D01*
X189290Y45214D01*
X189291Y45213D01*
X189295Y45209D01*
X189302Y45204D01*
X189311Y45197D01*
X189323Y45191D01*
X189338Y45184D01*
X189355Y45179D01*
X189376Y45175D01*
X189362Y45096D01*
X189361D01*
X189358Y45097D01*
X189354Y45098D01*
X189349Y45099D01*
X189342Y45101D01*
X189335Y45104D01*
X189317Y45109D01*
X189297Y45118D01*
X189277Y45130D01*
X189257Y45143D01*
X189240Y45161D01*
X189239Y45162D01*
X189238Y45164D01*
X189236Y45167D01*
X189233Y45170D01*
X189230Y45175D01*
X189226Y45181D01*
X189222Y45188D01*
X189218Y45196D01*
X189210Y45215D01*
X189203Y45236D01*
X189198Y45261D01*
X189196Y45274D01*
Y45297D01*
X189197Y45307D01*
X189199Y45319D01*
X189202Y45334D01*
X189207Y45351D01*
X189212Y45367D01*
X189219Y45384D01*
Y45385D01*
X189220Y45386D01*
X189223Y45391D01*
X189229Y45400D01*
X189235Y45409D01*
X189244Y45420D01*
X189255Y45431D01*
X189267Y45442D01*
X189280Y45451D01*
X189282Y45452D01*
X189287Y45455D01*
X189295Y45459D01*
X189305Y45463D01*
X189317Y45468D01*
X189331Y45472D01*
X189347Y45474D01*
X189363Y45475D01*
X189365D01*
X189370D01*
X189378Y45474D01*
X189388Y45473D01*
X189400Y45470D01*
X189413Y45465D01*
X189426Y45460D01*
X189439Y45452D01*
X189440Y45451D01*
X189444Y45449D01*
X189451Y45443D01*
X189458Y45436D01*
X189466Y45426D01*
X189476Y45415D01*
X189484Y45402D01*
X189492Y45387D01*
Y45388D01*
X189493Y45389D01*
X189494Y45392D01*
X189495Y45396D01*
X189499Y45406D01*
X189504Y45419D01*
X189512Y45434D01*
X189521Y45449D01*
X189533Y45462D01*
X189547Y45475D01*
X189549Y45476D01*
X189554Y45480D01*
X189563Y45486D01*
X189575Y45491D01*
X189590Y45497D01*
X189608Y45502D01*
X189628Y45506D01*
X189650Y45507D01*
X189651D01*
X189654D01*
X189659D01*
X189664Y45506D01*
D02*
G37*
G36*
X189839Y44932D02*
X189706Y44848D01*
X189705D01*
X189703Y44846D01*
X189700Y44844D01*
X189697Y44841D01*
X189686Y44835D01*
X189673Y44826D01*
X189660Y44816D01*
X189645Y44806D01*
X189631Y44796D01*
X189618Y44787D01*
X189617Y44786D01*
X189613Y44783D01*
X189608Y44778D01*
X189601Y44772D01*
X189587Y44758D01*
X189581Y44751D01*
X189575Y44743D01*
X189574Y44742D01*
X189574Y44740D01*
X189572Y44737D01*
X189569Y44731D01*
X189566Y44726D01*
X189563Y44719D01*
X189559Y44704D01*
Y44703D01*
X189558Y44702D01*
Y44698D01*
X189557Y44693D01*
X189556Y44687D01*
Y44679D01*
X189555Y44669D01*
Y44560D01*
X189839D01*
Y44475D01*
X189199D01*
Y44772D01*
X189200Y44779D01*
Y44787D01*
X189201Y44807D01*
X189204Y44827D01*
X189207Y44849D01*
X189211Y44870D01*
X189214Y44880D01*
X189217Y44888D01*
Y44889D01*
X189218Y44890D01*
X189220Y44896D01*
X189224Y44904D01*
X189231Y44914D01*
X189239Y44925D01*
X189250Y44937D01*
X189263Y44948D01*
X189278Y44959D01*
X189279D01*
X189280Y44960D01*
X189285Y44964D01*
X189294Y44968D01*
X189306Y44973D01*
X189320Y44978D01*
X189337Y44983D01*
X189354Y44985D01*
X189374Y44986D01*
X189375D01*
X189377D01*
X189380D01*
X189385Y44985D01*
X189391D01*
X189398Y44984D01*
X189414Y44981D01*
X189432Y44975D01*
X189452Y44968D01*
X189471Y44957D01*
X189480Y44949D01*
X189489Y44942D01*
X189490Y44941D01*
X189491Y44940D01*
X189494Y44937D01*
X189497Y44934D01*
X189501Y44929D01*
X189504Y44923D01*
X189509Y44916D01*
X189514Y44909D01*
X189519Y44899D01*
X189524Y44889D01*
X189529Y44878D01*
X189534Y44866D01*
X189538Y44852D01*
X189542Y44838D01*
X189545Y44823D01*
X189548Y44806D01*
X189549Y44808D01*
X189550Y44812D01*
X189554Y44817D01*
X189558Y44824D01*
X189568Y44841D01*
X189574Y44849D01*
X189580Y44857D01*
X189582Y44859D01*
X189587Y44863D01*
X189594Y44871D01*
X189603Y44880D01*
X189616Y44890D01*
X189630Y44902D01*
X189647Y44914D01*
X189665Y44927D01*
X189839Y45037D01*
Y44932D01*
D02*
G37*
G36*
X203012Y54783D02*
X203024D01*
X203037Y54782D01*
X203051Y54780D01*
X203083Y54777D01*
X203116Y54773D01*
X203148Y54766D01*
X203163Y54761D01*
X203177Y54757D01*
X203178D01*
X203180Y54756D01*
X203184Y54754D01*
X203189Y54752D01*
X203195Y54749D01*
X203202Y54746D01*
X203218Y54736D01*
X203235Y54725D01*
X203254Y54712D01*
X203271Y54696D01*
X203287Y54677D01*
Y54676D01*
X203289Y54675D01*
X203291Y54672D01*
X203293Y54668D01*
X203295Y54662D01*
X203299Y54657D01*
X203303Y54650D01*
X203306Y54642D01*
X203313Y54625D01*
X203319Y54603D01*
X203323Y54580D01*
X203325Y54554D01*
Y54547D01*
X203324Y54542D01*
Y54536D01*
X203323Y54528D01*
X203319Y54511D01*
X203315Y54491D01*
X203307Y54471D01*
X203297Y54451D01*
X203291Y54441D01*
X203283Y54431D01*
X203282Y54430D01*
X203282Y54430D01*
X203279Y54427D01*
X203276Y54424D01*
X203271Y54420D01*
X203266Y54416D01*
X203253Y54406D01*
X203236Y54397D01*
X203216Y54388D01*
X203193Y54381D01*
X203166Y54375D01*
X203160Y54451D01*
X203160D01*
X203162Y54452D01*
X203164D01*
X203168Y54453D01*
X203178Y54455D01*
X203189Y54459D01*
X203202Y54464D01*
X203215Y54470D01*
X203227Y54478D01*
X203237Y54487D01*
X203238Y54488D01*
X203241Y54491D01*
X203245Y54498D01*
X203248Y54505D01*
X203253Y54515D01*
X203257Y54528D01*
X203259Y54541D01*
X203260Y54556D01*
Y54563D01*
X203259Y54569D01*
X203258Y54577D01*
X203257Y54588D01*
X203254Y54598D01*
X203250Y54609D01*
X203245Y54619D01*
X203244Y54620D01*
X203242Y54624D01*
X203238Y54629D01*
X203233Y54635D01*
X203226Y54642D01*
X203219Y54650D01*
X203210Y54657D01*
X203200Y54664D01*
X203199Y54665D01*
X203195Y54667D01*
X203188Y54671D01*
X203180Y54675D01*
X203169Y54679D01*
X203156Y54684D01*
X203141Y54688D01*
X203124Y54693D01*
X203123D01*
X203123Y54694D01*
X203120D01*
X203116Y54695D01*
X203107Y54697D01*
X203095Y54699D01*
X203080Y54701D01*
X203064Y54703D01*
X203047Y54704D01*
X203028Y54705D01*
X203027D01*
X203025D01*
X203020D01*
X203013D01*
X203014Y54704D01*
X203019Y54700D01*
X203025Y54695D01*
X203035Y54688D01*
X203044Y54679D01*
X203054Y54668D01*
X203064Y54655D01*
X203074Y54640D01*
X203074Y54638D01*
X203077Y54633D01*
X203081Y54625D01*
X203085Y54614D01*
X203089Y54601D01*
X203093Y54586D01*
X203096Y54569D01*
X203097Y54552D01*
Y54544D01*
X203096Y54539D01*
X203095Y54531D01*
X203094Y54524D01*
X203092Y54515D01*
X203089Y54505D01*
X203083Y54484D01*
X203078Y54473D01*
X203073Y54462D01*
X203066Y54450D01*
X203058Y54439D01*
X203049Y54428D01*
X203039Y54417D01*
X203038Y54417D01*
X203037Y54415D01*
X203034Y54413D01*
X203029Y54409D01*
X203023Y54405D01*
X203016Y54400D01*
X203008Y54395D01*
X202999Y54391D01*
X202988Y54385D01*
X202977Y54381D01*
X202964Y54376D01*
X202951Y54371D01*
X202937Y54368D01*
X202921Y54366D01*
X202905Y54364D01*
X202888Y54363D01*
X202887D01*
X202883D01*
X202878D01*
X202872Y54364D01*
X202864Y54365D01*
X202853Y54366D01*
X202843Y54368D01*
X202831Y54370D01*
X202807Y54377D01*
X202794Y54381D01*
X202780Y54387D01*
X202768Y54393D01*
X202755Y54402D01*
X202743Y54410D01*
X202731Y54420D01*
X202731Y54421D01*
X202729Y54423D01*
X202726Y54426D01*
X202722Y54430D01*
X202718Y54436D01*
X202712Y54443D01*
X202707Y54451D01*
X202701Y54460D01*
X202695Y54469D01*
X202691Y54480D01*
X202681Y54505D01*
X202677Y54518D01*
X202674Y54533D01*
X202672Y54548D01*
X202671Y54564D01*
Y54570D01*
X202672Y54575D01*
Y54579D01*
X202673Y54586D01*
X202676Y54601D01*
X202680Y54619D01*
X202686Y54638D01*
X202694Y54658D01*
X202706Y54677D01*
Y54678D01*
X202707Y54679D01*
X202709Y54682D01*
X202712Y54686D01*
X202719Y54695D01*
X202730Y54707D01*
X202743Y54719D01*
X202760Y54733D01*
X202780Y54745D01*
X202802Y54756D01*
X202803D01*
X202804Y54757D01*
X202808Y54759D01*
X202813Y54761D01*
X202819Y54762D01*
X202828Y54765D01*
X202837Y54767D01*
X202847Y54770D01*
X202859Y54773D01*
X202873Y54775D01*
X202888Y54777D01*
X202903Y54779D01*
X202921Y54781D01*
X202939Y54783D01*
X202960Y54784D01*
X202981D01*
X202982D01*
X202987D01*
X202993D01*
X203001D01*
X203012Y54783D01*
D02*
G37*
G36*
X203116Y54290D02*
X203122Y54288D01*
X203129Y54285D01*
X203137Y54283D01*
X203148Y54279D01*
X203159Y54274D01*
X203171Y54269D01*
X203197Y54256D01*
X203222Y54239D01*
X203235Y54229D01*
X203248Y54219D01*
X203259Y54208D01*
X203270Y54195D01*
X203271Y54194D01*
X203273Y54192D01*
X203275Y54187D01*
X203279Y54183D01*
X203283Y54175D01*
X203288Y54168D01*
X203293Y54158D01*
X203297Y54148D01*
X203303Y54135D01*
X203307Y54123D01*
X203312Y54109D01*
X203317Y54094D01*
X203320Y54078D01*
X203322Y54062D01*
X203324Y54044D01*
X203325Y54025D01*
Y54015D01*
X203324Y54008D01*
Y54000D01*
X203323Y53989D01*
X203321Y53978D01*
X203319Y53965D01*
X203315Y53939D01*
X203307Y53911D01*
X203297Y53883D01*
X203291Y53870D01*
X203283Y53857D01*
X203282Y53856D01*
X203282Y53854D01*
X203279Y53851D01*
X203275Y53847D01*
X203271Y53841D01*
X203266Y53835D01*
X203259Y53828D01*
X203252Y53820D01*
X203244Y53813D01*
X203235Y53805D01*
X203214Y53788D01*
X203189Y53772D01*
X203161Y53758D01*
X203160D01*
X203158Y53756D01*
X203153Y53756D01*
X203148Y53753D01*
X203140Y53751D01*
X203131Y53748D01*
X203121Y53744D01*
X203110Y53742D01*
X203098Y53739D01*
X203084Y53735D01*
X203055Y53731D01*
X203023Y53727D01*
X202989Y53725D01*
X202988D01*
X202985D01*
X202979D01*
X202973Y53726D01*
X202964D01*
X202954Y53727D01*
X202942Y53728D01*
X202930Y53730D01*
X202903Y53734D01*
X202874Y53741D01*
X202844Y53750D01*
X202816Y53763D01*
X202815Y53764D01*
X202812Y53765D01*
X202808Y53767D01*
X202804Y53770D01*
X202797Y53774D01*
X202790Y53779D01*
X202773Y53791D01*
X202755Y53806D01*
X202736Y53825D01*
X202718Y53846D01*
X202702Y53871D01*
X202701Y53872D01*
X202700Y53875D01*
X202698Y53878D01*
X202695Y53883D01*
X202693Y53890D01*
X202690Y53898D01*
X202686Y53907D01*
X202682Y53917D01*
X202679Y53928D01*
X202675Y53940D01*
X202669Y53966D01*
X202665Y53996D01*
X202663Y54026D01*
Y54036D01*
X202664Y54042D01*
X202665Y54050D01*
X202666Y54061D01*
X202667Y54071D01*
X202669Y54083D01*
X202675Y54108D01*
X202683Y54135D01*
X202689Y54149D01*
X202695Y54162D01*
X202704Y54175D01*
X202712Y54188D01*
X202713Y54189D01*
X202714Y54191D01*
X202717Y54195D01*
X202721Y54199D01*
X202726Y54204D01*
X202732Y54210D01*
X202740Y54217D01*
X202747Y54224D01*
X202756Y54232D01*
X202768Y54239D01*
X202779Y54247D01*
X202791Y54255D01*
X202804Y54261D01*
X202818Y54269D01*
X202833Y54274D01*
X202850Y54280D01*
X202869Y54197D01*
X202868D01*
X202866Y54196D01*
X202863Y54194D01*
X202858Y54192D01*
X202853Y54190D01*
X202845Y54187D01*
X202830Y54180D01*
X202814Y54171D01*
X202797Y54160D01*
X202781Y54146D01*
X202768Y54131D01*
X202766Y54129D01*
X202762Y54123D01*
X202757Y54114D01*
X202751Y54102D01*
X202745Y54086D01*
X202740Y54069D01*
X202736Y54048D01*
X202735Y54025D01*
Y54017D01*
X202736Y54013D01*
Y54006D01*
X202737Y53999D01*
X202740Y53981D01*
X202743Y53962D01*
X202750Y53941D01*
X202759Y53920D01*
X202771Y53901D01*
Y53900D01*
X202773Y53899D01*
X202778Y53892D01*
X202785Y53884D01*
X202796Y53874D01*
X202810Y53862D01*
X202826Y53851D01*
X202845Y53841D01*
X202866Y53831D01*
X202867D01*
X202869Y53830D01*
X202872Y53829D01*
X202877Y53829D01*
X202882Y53827D01*
X202889Y53825D01*
X202904Y53822D01*
X202923Y53818D01*
X202943Y53815D01*
X202965Y53813D01*
X202989Y53812D01*
X202990D01*
X202993D01*
X202998D01*
X203003D01*
X203010Y53813D01*
X203018D01*
X203027Y53814D01*
X203037Y53815D01*
X203060Y53817D01*
X203084Y53822D01*
X203108Y53828D01*
X203132Y53835D01*
X203133D01*
X203135Y53836D01*
X203137Y53838D01*
X203142Y53840D01*
X203153Y53845D01*
X203166Y53854D01*
X203181Y53864D01*
X203197Y53877D01*
X203210Y53891D01*
X203223Y53909D01*
Y53910D01*
X203224Y53912D01*
X203226Y53915D01*
X203228Y53918D01*
X203230Y53923D01*
X203233Y53928D01*
X203238Y53941D01*
X203244Y53958D01*
X203248Y53976D01*
X203252Y53997D01*
X203253Y54018D01*
Y54025D01*
X203252Y54030D01*
Y54037D01*
X203251Y54043D01*
X203247Y54060D01*
X203243Y54079D01*
X203235Y54099D01*
X203225Y54119D01*
X203220Y54129D01*
X203212Y54138D01*
X203211Y54139D01*
X203210Y54140D01*
X203208Y54143D01*
X203205Y54147D01*
X203200Y54150D01*
X203195Y54155D01*
X203189Y54160D01*
X203182Y54165D01*
X203173Y54171D01*
X203164Y54177D01*
X203155Y54183D01*
X203144Y54188D01*
X203132Y54193D01*
X203119Y54197D01*
X203105Y54202D01*
X203090Y54206D01*
X203111Y54291D01*
X203112D01*
X203116Y54290D01*
D02*
G37*
G36*
X111798Y93528D02*
X111803D01*
X111818Y93526D01*
X111835Y93523D01*
X111854Y93518D01*
X111874Y93512D01*
X111894Y93502D01*
X111895D01*
X111896Y93501D01*
X111898Y93500D01*
X111902Y93498D01*
X111911Y93492D01*
X111923Y93484D01*
X111936Y93474D01*
X111949Y93462D01*
X111962Y93447D01*
X111973Y93431D01*
Y93430D01*
X111974Y93429D01*
X111976Y93427D01*
X111977Y93423D01*
X111982Y93414D01*
X111986Y93402D01*
X111992Y93386D01*
X111995Y93368D01*
X111999Y93349D01*
X112000Y93328D01*
Y93323D01*
X111999Y93318D01*
Y93311D01*
X111998Y93303D01*
X111996Y93293D01*
X111994Y93282D01*
X111991Y93271D01*
X111987Y93258D01*
X111982Y93245D01*
X111977Y93232D01*
X111969Y93219D01*
X111961Y93206D01*
X111952Y93193D01*
X111941Y93180D01*
X111928Y93168D01*
X111927Y93167D01*
X111924Y93165D01*
X111921Y93162D01*
X111914Y93158D01*
X111906Y93153D01*
X111896Y93148D01*
X111884Y93143D01*
X111871Y93137D01*
X111856Y93131D01*
X111838Y93125D01*
X111819Y93121D01*
X111798Y93116D01*
X111773Y93111D01*
X111748Y93109D01*
X111720Y93107D01*
X111690Y93106D01*
X111689D01*
X111688D01*
X111686D01*
X111682D01*
X111673Y93107D01*
X111660D01*
X111645Y93108D01*
X111627Y93109D01*
X111608Y93111D01*
X111587Y93114D01*
X111565Y93118D01*
X111542Y93122D01*
X111520Y93128D01*
X111498Y93134D01*
X111477Y93143D01*
X111456Y93152D01*
X111437Y93162D01*
X111420Y93174D01*
X111419Y93175D01*
X111418Y93177D01*
X111414Y93181D01*
X111408Y93185D01*
X111403Y93191D01*
X111397Y93198D01*
X111390Y93207D01*
X111383Y93217D01*
X111377Y93228D01*
X111369Y93240D01*
X111364Y93254D01*
X111357Y93268D01*
X111353Y93283D01*
X111349Y93300D01*
X111347Y93317D01*
X111346Y93336D01*
Y93343D01*
X111347Y93349D01*
Y93355D01*
X111348Y93363D01*
X111352Y93380D01*
X111357Y93400D01*
X111364Y93420D01*
X111375Y93440D01*
X111381Y93451D01*
X111389Y93460D01*
X111390Y93461D01*
X111391Y93462D01*
X111394Y93464D01*
X111396Y93467D01*
X111401Y93472D01*
X111406Y93476D01*
X111419Y93486D01*
X111436Y93496D01*
X111456Y93505D01*
X111479Y93513D01*
X111505Y93519D01*
X111512Y93440D01*
X111511D01*
X111510Y93440D01*
X111504Y93439D01*
X111496Y93436D01*
X111486Y93432D01*
X111475Y93428D01*
X111464Y93423D01*
X111454Y93416D01*
X111445Y93410D01*
X111443Y93408D01*
X111440Y93404D01*
X111434Y93398D01*
X111428Y93389D01*
X111422Y93377D01*
X111417Y93364D01*
X111413Y93348D01*
X111411Y93331D01*
Y93325D01*
X111412Y93317D01*
X111414Y93309D01*
X111417Y93298D01*
X111420Y93287D01*
X111425Y93276D01*
X111432Y93265D01*
X111433Y93263D01*
X111437Y93258D01*
X111443Y93252D01*
X111453Y93244D01*
X111464Y93234D01*
X111477Y93224D01*
X111493Y93215D01*
X111512Y93206D01*
X111513D01*
X111515Y93205D01*
X111517Y93204D01*
X111521Y93202D01*
X111527Y93201D01*
X111533Y93199D01*
X111540Y93197D01*
X111550Y93195D01*
X111560Y93193D01*
X111571Y93191D01*
X111583Y93189D01*
X111596Y93188D01*
X111611Y93186D01*
X111626Y93185D01*
X111642Y93184D01*
X111659D01*
X111658Y93185D01*
X111652Y93189D01*
X111645Y93195D01*
X111636Y93204D01*
X111625Y93213D01*
X111614Y93225D01*
X111604Y93238D01*
X111595Y93253D01*
Y93254D01*
X111594Y93255D01*
X111591Y93260D01*
X111589Y93268D01*
X111584Y93280D01*
X111580Y93293D01*
X111577Y93307D01*
X111575Y93323D01*
X111574Y93340D01*
Y93347D01*
X111575Y93353D01*
X111576Y93360D01*
X111577Y93367D01*
X111578Y93377D01*
X111581Y93386D01*
X111588Y93407D01*
X111592Y93418D01*
X111599Y93429D01*
X111605Y93440D01*
X111613Y93452D01*
X111622Y93464D01*
X111632Y93474D01*
X111633Y93475D01*
X111635Y93477D01*
X111638Y93479D01*
X111642Y93482D01*
X111649Y93487D01*
X111655Y93491D01*
X111663Y93496D01*
X111673Y93501D01*
X111683Y93507D01*
X111694Y93512D01*
X111707Y93516D01*
X111720Y93521D01*
X111734Y93524D01*
X111749Y93526D01*
X111765Y93528D01*
X111782Y93529D01*
X111783D01*
X111785D01*
X111787D01*
X111792D01*
X111798Y93528D01*
D02*
G37*
G36*
X111989Y92601D02*
X111988D01*
X111984D01*
X111979D01*
X111971Y92602D01*
X111963Y92603D01*
X111954Y92605D01*
X111945Y92606D01*
X111934Y92610D01*
X111933D01*
X111933Y92611D01*
X111927Y92613D01*
X111919Y92617D01*
X111908Y92622D01*
X111895Y92630D01*
X111880Y92639D01*
X111865Y92649D01*
X111849Y92662D01*
X111848D01*
X111847Y92664D01*
X111842Y92668D01*
X111834Y92677D01*
X111822Y92689D01*
X111808Y92703D01*
X111791Y92720D01*
X111773Y92741D01*
X111753Y92765D01*
X111752Y92766D01*
X111749Y92769D01*
X111745Y92775D01*
X111739Y92781D01*
X111732Y92790D01*
X111724Y92800D01*
X111714Y92810D01*
X111704Y92822D01*
X111682Y92845D01*
X111660Y92868D01*
X111649Y92879D01*
X111638Y92889D01*
X111627Y92899D01*
X111617Y92906D01*
X111616D01*
X111615Y92908D01*
X111613Y92910D01*
X111609Y92912D01*
X111599Y92918D01*
X111587Y92925D01*
X111572Y92932D01*
X111556Y92938D01*
X111539Y92942D01*
X111522Y92944D01*
X111521D01*
X111520D01*
X111515Y92943D01*
X111505Y92942D01*
X111495Y92939D01*
X111482Y92936D01*
X111469Y92929D01*
X111456Y92921D01*
X111443Y92910D01*
X111442Y92908D01*
X111438Y92903D01*
X111433Y92897D01*
X111427Y92887D01*
X111421Y92874D01*
X111416Y92859D01*
X111412Y92841D01*
X111411Y92822D01*
Y92816D01*
X111412Y92813D01*
X111413Y92802D01*
X111416Y92789D01*
X111419Y92775D01*
X111426Y92759D01*
X111434Y92744D01*
X111445Y92730D01*
X111447Y92729D01*
X111452Y92725D01*
X111459Y92719D01*
X111470Y92714D01*
X111483Y92707D01*
X111500Y92702D01*
X111518Y92698D01*
X111540Y92696D01*
X111531Y92616D01*
X111530D01*
X111528Y92617D01*
X111523D01*
X111516Y92618D01*
X111509Y92619D01*
X111501Y92621D01*
X111491Y92624D01*
X111480Y92627D01*
X111458Y92634D01*
X111436Y92645D01*
X111425Y92652D01*
X111414Y92660D01*
X111404Y92668D01*
X111394Y92678D01*
X111394Y92679D01*
X111393Y92680D01*
X111390Y92683D01*
X111387Y92688D01*
X111383Y92693D01*
X111380Y92700D01*
X111375Y92707D01*
X111370Y92717D01*
X111366Y92727D01*
X111361Y92738D01*
X111357Y92750D01*
X111354Y92763D01*
X111351Y92777D01*
X111348Y92791D01*
X111347Y92807D01*
X111346Y92824D01*
Y92833D01*
X111347Y92839D01*
X111348Y92847D01*
X111349Y92856D01*
X111351Y92866D01*
X111353Y92876D01*
X111359Y92901D01*
X111369Y92925D01*
X111374Y92937D01*
X111381Y92949D01*
X111389Y92960D01*
X111398Y92970D01*
X111399Y92971D01*
X111400Y92973D01*
X111404Y92974D01*
X111407Y92978D01*
X111412Y92983D01*
X111418Y92987D01*
X111425Y92992D01*
X111433Y92998D01*
X111451Y93007D01*
X111473Y93016D01*
X111484Y93020D01*
X111497Y93022D01*
X111510Y93023D01*
X111524Y93024D01*
X111526D01*
X111530D01*
X111538Y93023D01*
X111548Y93023D01*
X111559Y93021D01*
X111572Y93017D01*
X111586Y93013D01*
X111600Y93008D01*
X111602Y93007D01*
X111606Y93005D01*
X111614Y93001D01*
X111624Y92996D01*
X111635Y92988D01*
X111649Y92979D01*
X111663Y92968D01*
X111678Y92955D01*
X111680Y92953D01*
X111686Y92949D01*
X111690Y92944D01*
X111695Y92939D01*
X111700Y92934D01*
X111708Y92926D01*
X111715Y92919D01*
X111724Y92910D01*
X111733Y92901D01*
X111743Y92889D01*
X111753Y92877D01*
X111765Y92864D01*
X111777Y92850D01*
X111790Y92835D01*
X111791Y92834D01*
X111793Y92832D01*
X111796Y92828D01*
X111799Y92824D01*
X111805Y92818D01*
X111810Y92812D01*
X111822Y92797D01*
X111836Y92781D01*
X111850Y92766D01*
X111862Y92754D01*
X111867Y92748D01*
X111871Y92743D01*
X111872Y92742D01*
X111875Y92740D01*
X111879Y92736D01*
X111884Y92731D01*
X111891Y92727D01*
X111897Y92721D01*
X111913Y92710D01*
Y93025D01*
X111989D01*
Y92601D01*
D02*
G37*
G36*
Y92457D02*
X111856Y92373D01*
X111855D01*
X111853Y92371D01*
X111850Y92369D01*
X111847Y92366D01*
X111836Y92360D01*
X111823Y92351D01*
X111810Y92341D01*
X111795Y92331D01*
X111781Y92321D01*
X111768Y92312D01*
X111767Y92311D01*
X111763Y92308D01*
X111758Y92303D01*
X111751Y92297D01*
X111737Y92283D01*
X111731Y92275D01*
X111725Y92268D01*
X111724Y92267D01*
X111724Y92265D01*
X111722Y92262D01*
X111719Y92256D01*
X111716Y92251D01*
X111713Y92244D01*
X111709Y92229D01*
Y92228D01*
X111708Y92227D01*
Y92223D01*
X111707Y92218D01*
X111706Y92212D01*
Y92204D01*
X111705Y92194D01*
Y92085D01*
X111989D01*
Y92000D01*
X111349D01*
Y92297D01*
X111350Y92304D01*
Y92312D01*
X111351Y92332D01*
X111354Y92352D01*
X111357Y92374D01*
X111361Y92395D01*
X111364Y92405D01*
X111367Y92413D01*
Y92414D01*
X111368Y92415D01*
X111370Y92421D01*
X111374Y92429D01*
X111381Y92439D01*
X111389Y92450D01*
X111400Y92462D01*
X111413Y92473D01*
X111428Y92484D01*
X111429D01*
X111430Y92485D01*
X111435Y92489D01*
X111444Y92493D01*
X111456Y92498D01*
X111470Y92503D01*
X111487Y92508D01*
X111504Y92510D01*
X111524Y92511D01*
X111525D01*
X111527D01*
X111530D01*
X111535Y92510D01*
X111541D01*
X111548Y92509D01*
X111564Y92506D01*
X111582Y92500D01*
X111602Y92493D01*
X111621Y92482D01*
X111630Y92474D01*
X111639Y92467D01*
X111640Y92466D01*
X111641Y92465D01*
X111644Y92462D01*
X111647Y92459D01*
X111651Y92454D01*
X111654Y92448D01*
X111659Y92441D01*
X111664Y92434D01*
X111669Y92424D01*
X111674Y92414D01*
X111679Y92403D01*
X111684Y92391D01*
X111688Y92377D01*
X111692Y92363D01*
X111695Y92348D01*
X111698Y92331D01*
X111699Y92333D01*
X111700Y92337D01*
X111704Y92342D01*
X111708Y92349D01*
X111718Y92366D01*
X111724Y92374D01*
X111730Y92382D01*
X111732Y92384D01*
X111737Y92388D01*
X111744Y92396D01*
X111753Y92405D01*
X111766Y92415D01*
X111780Y92427D01*
X111797Y92439D01*
X111815Y92452D01*
X111989Y92562D01*
Y92457D01*
D02*
G37*
G36*
X123340Y121443D02*
X123494D01*
Y121364D01*
X123340D01*
Y121086D01*
X123268D01*
X122854Y121379D01*
Y121443D01*
X123268D01*
Y121530D01*
X123340D01*
Y121443D01*
D02*
G37*
G36*
X123190Y121028D02*
X123197D01*
X123215Y121027D01*
X123235Y121024D01*
X123256Y121021D01*
X123278Y121017D01*
X123301Y121011D01*
X123301D01*
X123303Y121010D01*
X123306Y121009D01*
X123310Y121008D01*
X123320Y121005D01*
X123333Y120999D01*
X123348Y120994D01*
X123363Y120986D01*
X123378Y120977D01*
X123393Y120968D01*
X123395Y120967D01*
X123399Y120963D01*
X123406Y120958D01*
X123414Y120950D01*
X123424Y120942D01*
X123433Y120932D01*
X123443Y120922D01*
X123451Y120910D01*
X123452Y120908D01*
X123455Y120904D01*
X123459Y120898D01*
X123463Y120888D01*
X123469Y120877D01*
X123473Y120864D01*
X123479Y120849D01*
X123484Y120833D01*
Y120831D01*
X123485Y120828D01*
X123485Y120825D01*
X123486Y120816D01*
X123488Y120803D01*
X123490Y120788D01*
X123492Y120771D01*
X123493Y120751D01*
X123494Y120730D01*
Y120500D01*
X122854D01*
Y120746D01*
X122855Y120763D01*
X122856Y120781D01*
X122858Y120800D01*
X122860Y120818D01*
X122863Y120834D01*
Y120835D01*
X122864Y120837D01*
Y120839D01*
X122866Y120843D01*
X122869Y120853D01*
X122873Y120866D01*
X122880Y120881D01*
X122888Y120897D01*
X122897Y120912D01*
X122909Y120927D01*
X122910Y120928D01*
X122911Y120929D01*
X122914Y120932D01*
X122917Y120935D01*
X122926Y120945D01*
X122939Y120956D01*
X122955Y120968D01*
X122973Y120981D01*
X122995Y120993D01*
X123019Y121003D01*
X123020D01*
X123021Y121004D01*
X123025Y121006D01*
X123031Y121007D01*
X123037Y121009D01*
X123044Y121011D01*
X123053Y121013D01*
X123063Y121016D01*
X123073Y121019D01*
X123085Y121021D01*
X123111Y121025D01*
X123140Y121028D01*
X123171Y121029D01*
X123172D01*
X123174D01*
X123179D01*
X123183D01*
X123190Y121028D01*
D02*
G37*
G36*
X91064Y121532D02*
X91072Y121531D01*
X91080Y121529D01*
X91089Y121527D01*
X91099Y121525D01*
X91121Y121518D01*
X91134Y121512D01*
X91145Y121507D01*
X91157Y121499D01*
X91169Y121491D01*
X91181Y121482D01*
X91192Y121471D01*
X91193Y121470D01*
X91195Y121468D01*
X91197Y121464D01*
X91201Y121460D01*
X91206Y121454D01*
X91210Y121447D01*
X91216Y121438D01*
X91220Y121428D01*
X91226Y121418D01*
X91232Y121406D01*
X91236Y121394D01*
X91241Y121380D01*
X91244Y121365D01*
X91247Y121350D01*
X91249Y121334D01*
X91250Y121316D01*
Y121308D01*
X91249Y121303D01*
X91248Y121295D01*
X91247Y121287D01*
X91245Y121278D01*
X91244Y121267D01*
X91238Y121245D01*
X91229Y121222D01*
X91223Y121210D01*
X91217Y121199D01*
X91208Y121188D01*
X91200Y121177D01*
X91199Y121176D01*
X91197Y121174D01*
X91195Y121171D01*
X91191Y121168D01*
X91186Y121164D01*
X91180Y121159D01*
X91173Y121154D01*
X91165Y121148D01*
X91156Y121143D01*
X91146Y121137D01*
X91124Y121127D01*
X91098Y121119D01*
X91085Y121116D01*
X91070Y121114D01*
X91060Y121192D01*
X91060D01*
X91062Y121193D01*
X91066Y121194D01*
X91071Y121195D01*
X91076Y121196D01*
X91083Y121198D01*
X91097Y121203D01*
X91113Y121209D01*
X91129Y121217D01*
X91144Y121227D01*
X91157Y121238D01*
X91158Y121240D01*
X91161Y121243D01*
X91166Y121251D01*
X91171Y121260D01*
X91176Y121271D01*
X91181Y121285D01*
X91184Y121301D01*
X91185Y121317D01*
Y121323D01*
X91184Y121327D01*
X91183Y121337D01*
X91181Y121350D01*
X91176Y121364D01*
X91170Y121380D01*
X91160Y121396D01*
X91147Y121411D01*
X91146Y121413D01*
X91140Y121417D01*
X91132Y121423D01*
X91121Y121430D01*
X91107Y121437D01*
X91091Y121443D01*
X91073Y121448D01*
X91052Y121450D01*
X91051D01*
X91049D01*
X91047D01*
X91043Y121449D01*
X91033Y121448D01*
X91021Y121445D01*
X91006Y121441D01*
X90991Y121435D01*
X90976Y121425D01*
X90962Y121413D01*
X90961Y121412D01*
X90957Y121407D01*
X90951Y121400D01*
X90945Y121389D01*
X90938Y121376D01*
X90933Y121361D01*
X90929Y121343D01*
X90927Y121324D01*
Y121315D01*
X90928Y121309D01*
X90929Y121301D01*
X90931Y121291D01*
X90933Y121280D01*
X90936Y121268D01*
X90866Y121278D01*
Y121282D01*
X90867Y121286D01*
Y121298D01*
X90865Y121308D01*
X90864Y121320D01*
X90861Y121334D01*
X90856Y121350D01*
X90850Y121364D01*
X90841Y121380D01*
Y121381D01*
X90840Y121382D01*
X90837Y121387D01*
X90830Y121393D01*
X90822Y121401D01*
X90810Y121408D01*
X90796Y121414D01*
X90780Y121419D01*
X90771Y121421D01*
X90761D01*
X90760D01*
X90759D01*
X90754D01*
X90746Y121419D01*
X90736Y121417D01*
X90725Y121413D01*
X90713Y121409D01*
X90701Y121401D01*
X90690Y121391D01*
X90689Y121390D01*
X90685Y121386D01*
X90680Y121379D01*
X90675Y121371D01*
X90670Y121360D01*
X90666Y121347D01*
X90662Y121332D01*
X90661Y121315D01*
Y121308D01*
X90663Y121300D01*
X90665Y121289D01*
X90668Y121277D01*
X90673Y121265D01*
X90680Y121252D01*
X90690Y121240D01*
X90691Y121239D01*
X90695Y121235D01*
X90702Y121229D01*
X90711Y121223D01*
X90723Y121217D01*
X90738Y121210D01*
X90755Y121204D01*
X90776Y121201D01*
X90762Y121122D01*
X90761D01*
X90758Y121123D01*
X90754Y121124D01*
X90749Y121125D01*
X90742Y121127D01*
X90735Y121130D01*
X90717Y121135D01*
X90697Y121144D01*
X90677Y121156D01*
X90657Y121169D01*
X90640Y121187D01*
X90639Y121188D01*
X90638Y121190D01*
X90636Y121192D01*
X90633Y121196D01*
X90630Y121201D01*
X90626Y121207D01*
X90622Y121214D01*
X90618Y121222D01*
X90610Y121241D01*
X90603Y121262D01*
X90598Y121287D01*
X90596Y121300D01*
Y121323D01*
X90597Y121333D01*
X90599Y121345D01*
X90602Y121360D01*
X90607Y121376D01*
X90612Y121393D01*
X90619Y121410D01*
Y121411D01*
X90620Y121412D01*
X90623Y121417D01*
X90629Y121425D01*
X90635Y121435D01*
X90644Y121446D01*
X90655Y121457D01*
X90667Y121468D01*
X90680Y121477D01*
X90682Y121478D01*
X90687Y121481D01*
X90695Y121485D01*
X90705Y121489D01*
X90717Y121494D01*
X90731Y121498D01*
X90747Y121500D01*
X90763Y121501D01*
X90765D01*
X90770D01*
X90778Y121500D01*
X90788Y121499D01*
X90800Y121496D01*
X90813Y121491D01*
X90826Y121486D01*
X90839Y121478D01*
X90840Y121477D01*
X90844Y121474D01*
X90851Y121469D01*
X90858Y121462D01*
X90866Y121452D01*
X90876Y121441D01*
X90884Y121428D01*
X90892Y121413D01*
Y121413D01*
X90893Y121415D01*
X90894Y121418D01*
X90895Y121422D01*
X90899Y121432D01*
X90904Y121445D01*
X90912Y121460D01*
X90921Y121474D01*
X90933Y121488D01*
X90947Y121501D01*
X90949Y121502D01*
X90954Y121506D01*
X90963Y121511D01*
X90975Y121517D01*
X90990Y121523D01*
X91008Y121528D01*
X91028Y121532D01*
X91050Y121533D01*
X91051D01*
X91054D01*
X91059D01*
X91064Y121532D01*
D02*
G37*
G36*
X90935Y121028D02*
X90942D01*
X90960Y121027D01*
X90980Y121024D01*
X91001Y121021D01*
X91023Y121017D01*
X91046Y121011D01*
X91047D01*
X91048Y121010D01*
X91051Y121009D01*
X91055Y121008D01*
X91065Y121005D01*
X91078Y120999D01*
X91093Y120994D01*
X91108Y120986D01*
X91123Y120977D01*
X91138Y120968D01*
X91140Y120967D01*
X91145Y120963D01*
X91151Y120958D01*
X91159Y120950D01*
X91169Y120942D01*
X91178Y120932D01*
X91188Y120922D01*
X91196Y120910D01*
X91197Y120908D01*
X91200Y120904D01*
X91204Y120898D01*
X91208Y120888D01*
X91214Y120877D01*
X91219Y120864D01*
X91224Y120849D01*
X91229Y120833D01*
Y120831D01*
X91230Y120828D01*
X91231Y120825D01*
X91232Y120816D01*
X91233Y120803D01*
X91235Y120788D01*
X91237Y120771D01*
X91238Y120751D01*
X91239Y120730D01*
Y120500D01*
X90599D01*
Y120746D01*
X90600Y120763D01*
X90601Y120781D01*
X90603Y120800D01*
X90606Y120818D01*
X90608Y120834D01*
Y120835D01*
X90609Y120837D01*
Y120839D01*
X90611Y120843D01*
X90614Y120853D01*
X90619Y120866D01*
X90625Y120881D01*
X90633Y120897D01*
X90643Y120912D01*
X90655Y120927D01*
X90656Y120928D01*
X90656Y120929D01*
X90659Y120932D01*
X90662Y120935D01*
X90671Y120945D01*
X90684Y120956D01*
X90700Y120968D01*
X90718Y120981D01*
X90740Y120993D01*
X90764Y121003D01*
X90765D01*
X90766Y121004D01*
X90770Y121006D01*
X90776Y121007D01*
X90782Y121009D01*
X90790Y121011D01*
X90798Y121013D01*
X90808Y121016D01*
X90818Y121019D01*
X90830Y121021D01*
X90856Y121025D01*
X90885Y121028D01*
X90916Y121029D01*
X90917D01*
X90919D01*
X90924D01*
X90928D01*
X90935Y121028D01*
D02*
G37*
G36*
X58420Y121102D02*
X58419D01*
X58415D01*
X58410D01*
X58402Y121103D01*
X58394Y121104D01*
X58385Y121106D01*
X58376Y121107D01*
X58365Y121111D01*
X58365D01*
X58364Y121112D01*
X58358Y121114D01*
X58350Y121118D01*
X58339Y121123D01*
X58326Y121131D01*
X58311Y121140D01*
X58296Y121150D01*
X58280Y121163D01*
X58279D01*
X58279Y121165D01*
X58273Y121169D01*
X58265Y121178D01*
X58253Y121190D01*
X58239Y121204D01*
X58222Y121221D01*
X58204Y121242D01*
X58184Y121266D01*
X58183Y121266D01*
X58181Y121270D01*
X58176Y121276D01*
X58170Y121282D01*
X58163Y121290D01*
X58155Y121301D01*
X58145Y121311D01*
X58135Y121323D01*
X58113Y121346D01*
X58091Y121369D01*
X58080Y121380D01*
X58069Y121390D01*
X58058Y121400D01*
X58048Y121407D01*
X58047D01*
X58046Y121409D01*
X58044Y121411D01*
X58040Y121413D01*
X58030Y121419D01*
X58018Y121426D01*
X58003Y121433D01*
X57987Y121439D01*
X57970Y121443D01*
X57953Y121445D01*
X57952D01*
X57951D01*
X57946Y121444D01*
X57936Y121443D01*
X57926Y121440D01*
X57913Y121437D01*
X57900Y121430D01*
X57887Y121422D01*
X57875Y121411D01*
X57873Y121409D01*
X57869Y121404D01*
X57864Y121398D01*
X57858Y121388D01*
X57852Y121375D01*
X57847Y121360D01*
X57843Y121342D01*
X57842Y121323D01*
Y121317D01*
X57843Y121314D01*
X57844Y121303D01*
X57847Y121290D01*
X57850Y121276D01*
X57857Y121260D01*
X57865Y121245D01*
X57876Y121231D01*
X57878Y121229D01*
X57883Y121226D01*
X57890Y121220D01*
X57901Y121215D01*
X57914Y121208D01*
X57931Y121203D01*
X57949Y121199D01*
X57971Y121197D01*
X57962Y121117D01*
X57961D01*
X57959Y121118D01*
X57954D01*
X57948Y121119D01*
X57940Y121120D01*
X57932Y121122D01*
X57922Y121125D01*
X57911Y121128D01*
X57889Y121135D01*
X57867Y121146D01*
X57856Y121153D01*
X57845Y121161D01*
X57835Y121169D01*
X57826Y121179D01*
X57825Y121180D01*
X57824Y121181D01*
X57821Y121184D01*
X57818Y121189D01*
X57814Y121194D01*
X57811Y121201D01*
X57806Y121208D01*
X57801Y121217D01*
X57797Y121228D01*
X57792Y121239D01*
X57789Y121251D01*
X57785Y121264D01*
X57782Y121278D01*
X57779Y121292D01*
X57778Y121308D01*
X57777Y121325D01*
Y121334D01*
X57778Y121340D01*
X57779Y121348D01*
X57780Y121357D01*
X57782Y121367D01*
X57784Y121377D01*
X57790Y121401D01*
X57800Y121425D01*
X57805Y121437D01*
X57812Y121450D01*
X57820Y121461D01*
X57829Y121471D01*
X57830Y121472D01*
X57831Y121474D01*
X57835Y121475D01*
X57838Y121479D01*
X57843Y121484D01*
X57850Y121488D01*
X57856Y121493D01*
X57864Y121499D01*
X57882Y121508D01*
X57904Y121517D01*
X57915Y121521D01*
X57928Y121523D01*
X57941Y121524D01*
X57955Y121525D01*
X57957D01*
X57961D01*
X57969Y121524D01*
X57979Y121523D01*
X57990Y121522D01*
X58003Y121518D01*
X58017Y121514D01*
X58031Y121509D01*
X58033Y121508D01*
X58037Y121506D01*
X58045Y121502D01*
X58055Y121497D01*
X58066Y121489D01*
X58080Y121480D01*
X58094Y121469D01*
X58109Y121456D01*
X58111Y121454D01*
X58117Y121450D01*
X58121Y121445D01*
X58126Y121440D01*
X58132Y121435D01*
X58139Y121427D01*
X58146Y121420D01*
X58155Y121411D01*
X58164Y121401D01*
X58174Y121390D01*
X58184Y121378D01*
X58196Y121365D01*
X58208Y121351D01*
X58221Y121336D01*
X58222Y121335D01*
X58224Y121333D01*
X58227Y121329D01*
X58230Y121325D01*
X58236Y121319D01*
X58242Y121313D01*
X58254Y121298D01*
X58267Y121282D01*
X58281Y121267D01*
X58293Y121254D01*
X58298Y121249D01*
X58303Y121244D01*
X58304Y121243D01*
X58306Y121241D01*
X58310Y121237D01*
X58316Y121232D01*
X58322Y121228D01*
X58328Y121222D01*
X58344Y121211D01*
Y121526D01*
X58420D01*
Y121102D01*
D02*
G37*
G36*
X58116Y121028D02*
X58123D01*
X58141Y121027D01*
X58161Y121024D01*
X58182Y121021D01*
X58205Y121017D01*
X58227Y121011D01*
X58228D01*
X58230Y121010D01*
X58232Y121009D01*
X58236Y121008D01*
X58246Y121005D01*
X58259Y120999D01*
X58274Y120994D01*
X58289Y120986D01*
X58304Y120977D01*
X58319Y120968D01*
X58321Y120967D01*
X58326Y120963D01*
X58332Y120958D01*
X58340Y120950D01*
X58350Y120942D01*
X58359Y120932D01*
X58369Y120922D01*
X58377Y120910D01*
X58378Y120908D01*
X58381Y120904D01*
X58385Y120898D01*
X58389Y120888D01*
X58395Y120877D01*
X58400Y120864D01*
X58405Y120849D01*
X58410Y120833D01*
Y120831D01*
X58411Y120828D01*
X58412Y120825D01*
X58413Y120816D01*
X58414Y120803D01*
X58416Y120788D01*
X58418Y120771D01*
X58419Y120751D01*
X58420Y120730D01*
Y120500D01*
X57780D01*
Y120746D01*
X57781Y120763D01*
X57782Y120781D01*
X57784Y120800D01*
X57787Y120818D01*
X57789Y120834D01*
Y120835D01*
X57790Y120837D01*
Y120839D01*
X57792Y120843D01*
X57795Y120853D01*
X57800Y120866D01*
X57806Y120881D01*
X57814Y120897D01*
X57824Y120912D01*
X57836Y120927D01*
X57837Y120928D01*
X57838Y120929D01*
X57840Y120932D01*
X57843Y120935D01*
X57852Y120945D01*
X57865Y120956D01*
X57881Y120968D01*
X57899Y120981D01*
X57921Y120993D01*
X57945Y121003D01*
X57946D01*
X57948Y121004D01*
X57951Y121006D01*
X57957Y121007D01*
X57963Y121009D01*
X57971Y121011D01*
X57979Y121013D01*
X57989Y121016D01*
X57999Y121019D01*
X58011Y121021D01*
X58037Y121025D01*
X58066Y121028D01*
X58097Y121029D01*
X58098D01*
X58100D01*
X58105D01*
X58109D01*
X58116Y121028D01*
D02*
G37*
G36*
X25932Y121330D02*
X25432D01*
X25433Y121329D01*
X25437Y121325D01*
X25442Y121319D01*
X25449Y121310D01*
X25457Y121300D01*
X25466Y121287D01*
X25477Y121272D01*
X25487Y121255D01*
Y121254D01*
X25488Y121254D01*
X25491Y121248D01*
X25496Y121239D01*
X25502Y121228D01*
X25508Y121215D01*
X25515Y121201D01*
X25521Y121187D01*
X25527Y121173D01*
X25451D01*
Y121174D01*
X25449Y121176D01*
X25448Y121180D01*
X25445Y121184D01*
X25442Y121190D01*
X25439Y121196D01*
X25429Y121212D01*
X25419Y121230D01*
X25406Y121249D01*
X25392Y121268D01*
X25376Y121288D01*
X25375Y121289D01*
X25374Y121290D01*
X25371Y121292D01*
X25368Y121296D01*
X25359Y121304D01*
X25348Y121315D01*
X25335Y121327D01*
X25320Y121339D01*
X25306Y121349D01*
X25290Y121358D01*
Y121409D01*
X25932D01*
Y121330D01*
D02*
G37*
G36*
X25628Y121028D02*
X25636D01*
X25653Y121027D01*
X25674Y121024D01*
X25695Y121021D01*
X25717Y121017D01*
X25739Y121011D01*
X25740D01*
X25742Y121010D01*
X25745Y121009D01*
X25748Y121008D01*
X25759Y121005D01*
X25772Y120999D01*
X25786Y120994D01*
X25801Y120986D01*
X25817Y120977D01*
X25832Y120968D01*
X25833Y120967D01*
X25838Y120963D01*
X25845Y120958D01*
X25853Y120950D01*
X25862Y120942D01*
X25871Y120932D01*
X25882Y120922D01*
X25890Y120910D01*
X25891Y120908D01*
X25894Y120904D01*
X25897Y120898D01*
X25902Y120888D01*
X25907Y120877D01*
X25912Y120864D01*
X25918Y120849D01*
X25922Y120833D01*
Y120831D01*
X25923Y120828D01*
X25924Y120825D01*
X25925Y120816D01*
X25927Y120803D01*
X25929Y120788D01*
X25931Y120771D01*
X25931Y120751D01*
X25932Y120730D01*
Y120500D01*
X25293D01*
Y120746D01*
X25294Y120763D01*
X25294Y120781D01*
X25296Y120800D01*
X25299Y120818D01*
X25302Y120834D01*
Y120835D01*
X25303Y120837D01*
Y120839D01*
X25305Y120843D01*
X25307Y120853D01*
X25312Y120866D01*
X25319Y120881D01*
X25327Y120897D01*
X25336Y120912D01*
X25348Y120927D01*
X25349Y120928D01*
X25350Y120929D01*
X25353Y120932D01*
X25355Y120935D01*
X25365Y120945D01*
X25378Y120956D01*
X25393Y120968D01*
X25412Y120981D01*
X25433Y120993D01*
X25457Y121003D01*
X25458D01*
X25460Y121004D01*
X25464Y121006D01*
X25469Y121007D01*
X25476Y121009D01*
X25483Y121011D01*
X25491Y121013D01*
X25502Y121016D01*
X25512Y121019D01*
X25524Y121021D01*
X25550Y121025D01*
X25578Y121028D01*
X25610Y121029D01*
X25611D01*
X25613D01*
X25617D01*
X25622D01*
X25628Y121028D01*
D02*
G37*
G36*
X136000Y92601D02*
X135999D01*
X135995D01*
X135990D01*
X135982Y92602D01*
X135974Y92603D01*
X135965Y92605D01*
X135956Y92606D01*
X135945Y92610D01*
X135945D01*
X135944Y92611D01*
X135938Y92613D01*
X135930Y92617D01*
X135919Y92622D01*
X135906Y92630D01*
X135891Y92639D01*
X135876Y92649D01*
X135860Y92662D01*
X135859D01*
X135859Y92664D01*
X135853Y92668D01*
X135845Y92677D01*
X135833Y92689D01*
X135819Y92703D01*
X135802Y92720D01*
X135784Y92741D01*
X135764Y92765D01*
X135763Y92766D01*
X135761Y92769D01*
X135756Y92775D01*
X135750Y92781D01*
X135743Y92790D01*
X135735Y92800D01*
X135725Y92810D01*
X135715Y92822D01*
X135693Y92845D01*
X135671Y92868D01*
X135660Y92879D01*
X135649Y92889D01*
X135639Y92899D01*
X135628Y92906D01*
X135627D01*
X135626Y92908D01*
X135624Y92910D01*
X135620Y92912D01*
X135610Y92918D01*
X135598Y92925D01*
X135583Y92932D01*
X135567Y92938D01*
X135550Y92942D01*
X135533Y92944D01*
X135532D01*
X135531D01*
X135526Y92943D01*
X135516Y92942D01*
X135506Y92939D01*
X135493Y92936D01*
X135480Y92929D01*
X135467Y92921D01*
X135455Y92910D01*
X135453Y92908D01*
X135449Y92903D01*
X135444Y92897D01*
X135438Y92887D01*
X135432Y92874D01*
X135427Y92859D01*
X135423Y92841D01*
X135422Y92822D01*
Y92816D01*
X135423Y92813D01*
X135424Y92802D01*
X135427Y92789D01*
X135430Y92775D01*
X135437Y92759D01*
X135445Y92744D01*
X135456Y92730D01*
X135458Y92729D01*
X135463Y92725D01*
X135470Y92719D01*
X135481Y92714D01*
X135494Y92707D01*
X135511Y92702D01*
X135529Y92698D01*
X135551Y92696D01*
X135542Y92616D01*
X135541D01*
X135539Y92617D01*
X135534D01*
X135528Y92618D01*
X135520Y92619D01*
X135512Y92621D01*
X135502Y92624D01*
X135492Y92627D01*
X135469Y92634D01*
X135447Y92645D01*
X135436Y92652D01*
X135425Y92660D01*
X135415Y92668D01*
X135406Y92678D01*
X135405Y92679D01*
X135404Y92680D01*
X135401Y92683D01*
X135398Y92688D01*
X135394Y92693D01*
X135391Y92700D01*
X135386Y92707D01*
X135381Y92717D01*
X135377Y92727D01*
X135372Y92738D01*
X135369Y92750D01*
X135365Y92763D01*
X135362Y92777D01*
X135359Y92791D01*
X135358Y92807D01*
X135357Y92824D01*
Y92833D01*
X135358Y92839D01*
X135359Y92847D01*
X135360Y92856D01*
X135362Y92866D01*
X135364Y92876D01*
X135370Y92901D01*
X135380Y92925D01*
X135385Y92937D01*
X135392Y92949D01*
X135400Y92960D01*
X135409Y92970D01*
X135410Y92971D01*
X135411Y92973D01*
X135415Y92974D01*
X135418Y92978D01*
X135423Y92983D01*
X135430Y92987D01*
X135436Y92992D01*
X135444Y92998D01*
X135462Y93007D01*
X135484Y93016D01*
X135495Y93020D01*
X135508Y93022D01*
X135521Y93023D01*
X135535Y93024D01*
X135537D01*
X135541D01*
X135549Y93023D01*
X135559Y93023D01*
X135570Y93021D01*
X135583Y93017D01*
X135597Y93013D01*
X135611Y93008D01*
X135613Y93007D01*
X135617Y93005D01*
X135625Y93001D01*
X135635Y92996D01*
X135646Y92988D01*
X135660Y92979D01*
X135674Y92968D01*
X135689Y92955D01*
X135691Y92953D01*
X135697Y92949D01*
X135701Y92944D01*
X135706Y92939D01*
X135712Y92934D01*
X135719Y92926D01*
X135726Y92919D01*
X135735Y92910D01*
X135744Y92901D01*
X135754Y92889D01*
X135764Y92877D01*
X135776Y92864D01*
X135788Y92850D01*
X135801Y92835D01*
X135802Y92834D01*
X135804Y92832D01*
X135807Y92828D01*
X135810Y92824D01*
X135816Y92818D01*
X135822Y92812D01*
X135834Y92797D01*
X135847Y92781D01*
X135861Y92766D01*
X135873Y92754D01*
X135878Y92748D01*
X135883Y92743D01*
X135884Y92742D01*
X135886Y92740D01*
X135890Y92736D01*
X135896Y92731D01*
X135902Y92727D01*
X135908Y92721D01*
X135924Y92710D01*
Y93025D01*
X136000D01*
Y92601D01*
D02*
G37*
G36*
Y92457D02*
X135867Y92373D01*
X135866D01*
X135864Y92371D01*
X135861Y92369D01*
X135858Y92366D01*
X135847Y92360D01*
X135835Y92351D01*
X135821Y92341D01*
X135806Y92331D01*
X135792Y92321D01*
X135779Y92312D01*
X135778Y92311D01*
X135774Y92308D01*
X135769Y92303D01*
X135762Y92297D01*
X135749Y92283D01*
X135742Y92276D01*
X135737Y92268D01*
X135736Y92267D01*
X135735Y92265D01*
X135733Y92262D01*
X135730Y92256D01*
X135727Y92251D01*
X135724Y92244D01*
X135720Y92229D01*
Y92228D01*
X135719Y92227D01*
Y92223D01*
X135718Y92218D01*
X135717Y92212D01*
Y92204D01*
X135716Y92194D01*
Y92085D01*
X136000D01*
Y92000D01*
X135360D01*
Y92297D01*
X135361Y92304D01*
Y92312D01*
X135362Y92332D01*
X135365Y92352D01*
X135368Y92374D01*
X135372Y92395D01*
X135375Y92405D01*
X135378Y92413D01*
Y92414D01*
X135379Y92415D01*
X135381Y92421D01*
X135385Y92429D01*
X135392Y92439D01*
X135400Y92450D01*
X135411Y92462D01*
X135424Y92473D01*
X135439Y92484D01*
X135440D01*
X135441Y92485D01*
X135446Y92489D01*
X135455Y92493D01*
X135467Y92498D01*
X135481Y92503D01*
X135498Y92508D01*
X135516Y92510D01*
X135535Y92511D01*
X135536D01*
X135538D01*
X135541D01*
X135546Y92510D01*
X135553D01*
X135559Y92509D01*
X135575Y92506D01*
X135593Y92500D01*
X135613Y92493D01*
X135632Y92482D01*
X135641Y92474D01*
X135651Y92467D01*
X135651Y92466D01*
X135652Y92465D01*
X135655Y92462D01*
X135658Y92459D01*
X135662Y92454D01*
X135665Y92448D01*
X135670Y92441D01*
X135675Y92434D01*
X135680Y92424D01*
X135685Y92414D01*
X135690Y92403D01*
X135695Y92391D01*
X135699Y92377D01*
X135703Y92363D01*
X135706Y92348D01*
X135709Y92331D01*
X135710Y92333D01*
X135712Y92337D01*
X135715Y92342D01*
X135719Y92349D01*
X135729Y92366D01*
X135736Y92374D01*
X135741Y92382D01*
X135743Y92384D01*
X135748Y92388D01*
X135755Y92396D01*
X135764Y92405D01*
X135777Y92415D01*
X135791Y92427D01*
X135808Y92439D01*
X135826Y92452D01*
X136000Y92562D01*
Y92457D01*
D02*
G37*
G36*
X123814Y93031D02*
X123822Y93030D01*
X123830Y93028D01*
X123839Y93026D01*
X123849Y93024D01*
X123871Y93017D01*
X123884Y93011D01*
X123895Y93006D01*
X123907Y92999D01*
X123919Y92990D01*
X123931Y92981D01*
X123942Y92970D01*
X123943Y92969D01*
X123945Y92967D01*
X123947Y92963D01*
X123951Y92959D01*
X123956Y92953D01*
X123960Y92946D01*
X123966Y92937D01*
X123970Y92927D01*
X123976Y92917D01*
X123982Y92905D01*
X123986Y92893D01*
X123991Y92879D01*
X123994Y92864D01*
X123997Y92849D01*
X123999Y92833D01*
X124000Y92815D01*
Y92807D01*
X123999Y92802D01*
X123998Y92794D01*
X123997Y92786D01*
X123995Y92777D01*
X123994Y92766D01*
X123988Y92744D01*
X123979Y92721D01*
X123973Y92709D01*
X123967Y92698D01*
X123958Y92687D01*
X123950Y92676D01*
X123949Y92675D01*
X123947Y92673D01*
X123945Y92670D01*
X123941Y92668D01*
X123936Y92663D01*
X123930Y92658D01*
X123923Y92653D01*
X123915Y92647D01*
X123906Y92642D01*
X123896Y92636D01*
X123874Y92626D01*
X123848Y92618D01*
X123835Y92615D01*
X123820Y92613D01*
X123810Y92692D01*
X123810D01*
X123812Y92692D01*
X123816Y92693D01*
X123821Y92694D01*
X123826Y92695D01*
X123833Y92697D01*
X123847Y92702D01*
X123863Y92708D01*
X123879Y92717D01*
X123894Y92726D01*
X123907Y92737D01*
X123908Y92739D01*
X123911Y92742D01*
X123916Y92750D01*
X123921Y92759D01*
X123926Y92770D01*
X123931Y92784D01*
X123934Y92800D01*
X123935Y92816D01*
Y92822D01*
X123934Y92826D01*
X123933Y92836D01*
X123931Y92849D01*
X123926Y92864D01*
X123920Y92879D01*
X123910Y92895D01*
X123897Y92910D01*
X123896Y92912D01*
X123890Y92916D01*
X123882Y92922D01*
X123871Y92929D01*
X123857Y92937D01*
X123841Y92942D01*
X123823Y92947D01*
X123802Y92949D01*
X123801D01*
X123799D01*
X123797D01*
X123793Y92948D01*
X123783Y92947D01*
X123771Y92944D01*
X123756Y92940D01*
X123741Y92934D01*
X123726Y92925D01*
X123712Y92913D01*
X123711Y92911D01*
X123707Y92906D01*
X123701Y92899D01*
X123695Y92888D01*
X123688Y92876D01*
X123683Y92860D01*
X123679Y92842D01*
X123677Y92823D01*
Y92815D01*
X123678Y92808D01*
X123679Y92800D01*
X123681Y92790D01*
X123683Y92779D01*
X123686Y92767D01*
X123616Y92777D01*
Y92781D01*
X123617Y92785D01*
Y92797D01*
X123615Y92807D01*
X123614Y92819D01*
X123611Y92833D01*
X123606Y92849D01*
X123600Y92864D01*
X123591Y92879D01*
Y92880D01*
X123590Y92881D01*
X123587Y92886D01*
X123580Y92892D01*
X123572Y92900D01*
X123560Y92907D01*
X123546Y92913D01*
X123530Y92918D01*
X123521Y92920D01*
X123511D01*
X123510D01*
X123509D01*
X123504D01*
X123496Y92918D01*
X123486Y92916D01*
X123475Y92913D01*
X123463Y92908D01*
X123451Y92901D01*
X123440Y92890D01*
X123439Y92889D01*
X123435Y92885D01*
X123430Y92878D01*
X123425Y92870D01*
X123420Y92859D01*
X123416Y92846D01*
X123412Y92831D01*
X123411Y92815D01*
Y92807D01*
X123413Y92799D01*
X123415Y92788D01*
X123418Y92776D01*
X123423Y92764D01*
X123430Y92751D01*
X123440Y92739D01*
X123441Y92738D01*
X123445Y92734D01*
X123452Y92729D01*
X123461Y92722D01*
X123473Y92716D01*
X123488Y92709D01*
X123505Y92704D01*
X123526Y92700D01*
X123512Y92621D01*
X123511D01*
X123508Y92622D01*
X123504Y92623D01*
X123499Y92624D01*
X123492Y92626D01*
X123485Y92629D01*
X123467Y92634D01*
X123447Y92643D01*
X123427Y92655D01*
X123407Y92668D01*
X123390Y92686D01*
X123389Y92687D01*
X123388Y92689D01*
X123386Y92692D01*
X123383Y92695D01*
X123380Y92700D01*
X123376Y92706D01*
X123372Y92713D01*
X123368Y92721D01*
X123360Y92740D01*
X123353Y92761D01*
X123348Y92786D01*
X123346Y92799D01*
Y92822D01*
X123347Y92832D01*
X123349Y92844D01*
X123352Y92859D01*
X123357Y92876D01*
X123362Y92892D01*
X123369Y92909D01*
Y92910D01*
X123370Y92911D01*
X123373Y92916D01*
X123379Y92925D01*
X123385Y92934D01*
X123394Y92945D01*
X123405Y92956D01*
X123417Y92967D01*
X123430Y92976D01*
X123432Y92977D01*
X123437Y92980D01*
X123445Y92984D01*
X123455Y92988D01*
X123467Y92993D01*
X123481Y92997D01*
X123497Y92999D01*
X123513Y93000D01*
X123515D01*
X123520D01*
X123528Y92999D01*
X123538Y92998D01*
X123550Y92995D01*
X123563Y92990D01*
X123576Y92985D01*
X123589Y92977D01*
X123590Y92976D01*
X123594Y92974D01*
X123601Y92968D01*
X123608Y92961D01*
X123616Y92951D01*
X123626Y92940D01*
X123634Y92927D01*
X123642Y92912D01*
Y92913D01*
X123643Y92914D01*
X123644Y92917D01*
X123645Y92921D01*
X123649Y92931D01*
X123654Y92944D01*
X123662Y92959D01*
X123671Y92974D01*
X123683Y92987D01*
X123697Y93000D01*
X123699Y93001D01*
X123704Y93005D01*
X123713Y93011D01*
X123725Y93016D01*
X123740Y93022D01*
X123758Y93027D01*
X123778Y93031D01*
X123800Y93032D01*
X123801D01*
X123804D01*
X123809D01*
X123814Y93031D01*
D02*
G37*
G36*
X123989Y92457D02*
X123856Y92373D01*
X123855D01*
X123853Y92371D01*
X123850Y92369D01*
X123847Y92366D01*
X123836Y92360D01*
X123823Y92351D01*
X123810Y92341D01*
X123795Y92331D01*
X123781Y92321D01*
X123768Y92312D01*
X123767Y92311D01*
X123763Y92308D01*
X123758Y92303D01*
X123751Y92297D01*
X123737Y92283D01*
X123731Y92275D01*
X123725Y92268D01*
X123724Y92267D01*
X123724Y92265D01*
X123722Y92262D01*
X123719Y92256D01*
X123716Y92251D01*
X123713Y92244D01*
X123709Y92229D01*
Y92228D01*
X123708Y92227D01*
Y92223D01*
X123707Y92218D01*
X123706Y92212D01*
Y92204D01*
X123705Y92194D01*
Y92085D01*
X123989D01*
Y92000D01*
X123349D01*
Y92297D01*
X123350Y92304D01*
Y92312D01*
X123351Y92332D01*
X123354Y92352D01*
X123357Y92374D01*
X123361Y92395D01*
X123364Y92405D01*
X123367Y92413D01*
Y92414D01*
X123368Y92415D01*
X123370Y92421D01*
X123374Y92429D01*
X123381Y92439D01*
X123389Y92450D01*
X123400Y92462D01*
X123413Y92473D01*
X123428Y92484D01*
X123429D01*
X123430Y92485D01*
X123435Y92489D01*
X123444Y92493D01*
X123456Y92498D01*
X123470Y92503D01*
X123487Y92508D01*
X123504Y92510D01*
X123524Y92511D01*
X123525D01*
X123527D01*
X123530D01*
X123535Y92510D01*
X123541D01*
X123548Y92509D01*
X123564Y92506D01*
X123582Y92500D01*
X123602Y92493D01*
X123621Y92482D01*
X123630Y92474D01*
X123639Y92467D01*
X123640Y92466D01*
X123641Y92465D01*
X123644Y92462D01*
X123647Y92459D01*
X123651Y92454D01*
X123654Y92448D01*
X123659Y92441D01*
X123664Y92434D01*
X123669Y92424D01*
X123674Y92414D01*
X123679Y92403D01*
X123684Y92391D01*
X123688Y92377D01*
X123692Y92363D01*
X123695Y92348D01*
X123698Y92331D01*
X123699Y92333D01*
X123700Y92337D01*
X123704Y92342D01*
X123708Y92349D01*
X123718Y92366D01*
X123724Y92374D01*
X123730Y92382D01*
X123732Y92384D01*
X123737Y92388D01*
X123744Y92396D01*
X123753Y92405D01*
X123766Y92415D01*
X123780Y92427D01*
X123797Y92439D01*
X123815Y92452D01*
X123989Y92562D01*
Y92457D01*
D02*
G37*
%LPC*%
G36*
X179669Y15832D02*
X179478D01*
X179467Y15831D01*
X179454Y15830D01*
X179439Y15829D01*
X179425Y15827D01*
X179410Y15825D01*
X179397Y15821D01*
X179395Y15820D01*
X179391Y15818D01*
X179386Y15815D01*
X179378Y15812D01*
X179370Y15806D01*
X179362Y15800D01*
X179353Y15791D01*
X179347Y15782D01*
X179346Y15781D01*
X179344Y15777D01*
X179341Y15772D01*
X179338Y15765D01*
X179335Y15756D01*
X179332Y15747D01*
X179330Y15736D01*
X179329Y15725D01*
Y15724D01*
Y15723D01*
X179330Y15717D01*
X179331Y15709D01*
X179333Y15698D01*
X179338Y15687D01*
X179343Y15674D01*
X179352Y15662D01*
X179363Y15650D01*
X179365Y15649D01*
X179369Y15645D01*
X179377Y15641D01*
X179389Y15635D01*
X179402Y15630D01*
X179421Y15625D01*
X179442Y15621D01*
X179467Y15620D01*
X179669D01*
Y15832D01*
D02*
G37*
G36*
X156933Y16630D02*
X156731D01*
Y16418D01*
X156922D01*
X156933Y16419D01*
X156946Y16420D01*
X156961Y16421D01*
X156975Y16423D01*
X156990Y16425D01*
X157003Y16429D01*
X157005Y16430D01*
X157009Y16432D01*
X157014Y16435D01*
X157022Y16438D01*
X157030Y16444D01*
X157038Y16450D01*
X157047Y16459D01*
X157053Y16468D01*
X157054Y16469D01*
X157056Y16473D01*
X157059Y16478D01*
X157062Y16485D01*
X157065Y16494D01*
X157068Y16503D01*
X157070Y16514D01*
X157071Y16525D01*
Y16526D01*
Y16527D01*
X157070Y16533D01*
X157069Y16541D01*
X157067Y16552D01*
X157062Y16563D01*
X157057Y16576D01*
X157048Y16588D01*
X157037Y16600D01*
X157035Y16601D01*
X157031Y16605D01*
X157023Y16609D01*
X157011Y16615D01*
X156998Y16620D01*
X156979Y16625D01*
X156958Y16629D01*
X156933Y16630D01*
D02*
G37*
G36*
X95415Y27399D02*
X95263D01*
X95257Y27398D01*
X95243Y27397D01*
X95227Y27396D01*
X95211Y27395D01*
X95194Y27392D01*
X95180Y27388D01*
X95178Y27387D01*
X95174Y27386D01*
X95167Y27383D01*
X95159Y27380D01*
X95150Y27374D01*
X95140Y27369D01*
X95131Y27362D01*
X95122Y27355D01*
X95121Y27353D01*
X95117Y27349D01*
X95112Y27343D01*
X95105Y27334D01*
X95098Y27322D01*
X95090Y27308D01*
X95082Y27292D01*
X95076Y27274D01*
Y27273D01*
X95075Y27272D01*
X95074Y27269D01*
X95073Y27265D01*
X95072Y27261D01*
X95070Y27254D01*
X95068Y27248D01*
X95066Y27240D01*
X95064Y27222D01*
X95061Y27200D01*
X95059Y27176D01*
X95058Y27150D01*
Y27150D01*
Y27146D01*
Y27141D01*
X95059Y27134D01*
Y27126D01*
X95060Y27116D01*
X95061Y27105D01*
X95062Y27094D01*
X95066Y27069D01*
X95072Y27043D01*
X95080Y27019D01*
X95086Y27007D01*
X95091Y26997D01*
Y26996D01*
X95093Y26994D01*
X95095Y26991D01*
X95097Y26988D01*
X95104Y26979D01*
X95114Y26967D01*
X95126Y26955D01*
X95139Y26943D01*
X95155Y26933D01*
X95172Y26925D01*
X95174Y26924D01*
X95178Y26923D01*
X95187Y26920D01*
X95199Y26917D01*
X95213Y26916D01*
X95232Y26913D01*
X95243Y26912D01*
X95255D01*
X95267Y26911D01*
X95415D01*
Y27399D01*
D02*
G37*
G36*
X233602Y3427D02*
X233596D01*
X233592Y3426D01*
X233582Y3425D01*
X233570Y3423D01*
X233555Y3418D01*
X233541Y3412D01*
X233526Y3402D01*
X233512Y3389D01*
X233510Y3388D01*
X233506Y3382D01*
X233501Y3374D01*
X233493Y3362D01*
X233487Y3347D01*
X233481Y3329D01*
X233478Y3308D01*
X233476Y3284D01*
Y3283D01*
Y3281D01*
Y3278D01*
X233477Y3273D01*
Y3266D01*
X233478Y3260D01*
X233480Y3245D01*
X233484Y3228D01*
X233491Y3209D01*
X233500Y3192D01*
X233512Y3176D01*
Y3175D01*
X233514Y3174D01*
X233518Y3169D01*
X233526Y3163D01*
X233536Y3155D01*
X233549Y3149D01*
X233564Y3143D01*
X233580Y3138D01*
X233590Y3136D01*
X233604D01*
X233608Y3137D01*
X233618Y3138D01*
X233630Y3142D01*
X233645Y3146D01*
X233661Y3155D01*
X233676Y3165D01*
X233684Y3172D01*
X233691Y3180D01*
Y3180D01*
X233693Y3181D01*
X233695Y3184D01*
X233697Y3187D01*
X233703Y3196D01*
X233710Y3209D01*
X233717Y3225D01*
X233724Y3244D01*
X233727Y3266D01*
X233729Y3290D01*
Y3291D01*
Y3293D01*
Y3296D01*
X233728Y3301D01*
Y3306D01*
X233727Y3312D01*
X233725Y3326D01*
X233720Y3341D01*
X233714Y3358D01*
X233705Y3375D01*
X233693Y3389D01*
X233691Y3391D01*
X233687Y3395D01*
X233678Y3401D01*
X233668Y3408D01*
X233654Y3415D01*
X233639Y3422D01*
X233621Y3425D01*
X233602Y3427D01*
D02*
G37*
G36*
X234835Y3638D02*
X234683D01*
X234677Y3637D01*
X234663Y3636D01*
X234647Y3635D01*
X234631Y3633D01*
X234614Y3631D01*
X234600Y3627D01*
X234598Y3626D01*
X234594Y3625D01*
X234587Y3622D01*
X234579Y3619D01*
X234570Y3613D01*
X234560Y3608D01*
X234551Y3601D01*
X234542Y3594D01*
X234541Y3592D01*
X234537Y3588D01*
X234532Y3582D01*
X234525Y3572D01*
X234518Y3560D01*
X234510Y3547D01*
X234502Y3531D01*
X234496Y3513D01*
Y3512D01*
X234495Y3511D01*
X234494Y3508D01*
X234493Y3504D01*
X234492Y3499D01*
X234490Y3493D01*
X234488Y3486D01*
X234486Y3479D01*
X234484Y3461D01*
X234481Y3439D01*
X234479Y3415D01*
X234478Y3389D01*
Y3388D01*
Y3385D01*
Y3380D01*
X234479Y3373D01*
Y3364D01*
X234480Y3355D01*
X234481Y3344D01*
X234482Y3333D01*
X234486Y3308D01*
X234492Y3282D01*
X234500Y3258D01*
X234506Y3246D01*
X234511Y3236D01*
Y3235D01*
X234513Y3233D01*
X234515Y3230D01*
X234517Y3227D01*
X234524Y3217D01*
X234534Y3206D01*
X234546Y3194D01*
X234559Y3182D01*
X234575Y3172D01*
X234592Y3164D01*
X234594Y3163D01*
X234598Y3162D01*
X234607Y3159D01*
X234619Y3156D01*
X234633Y3155D01*
X234652Y3152D01*
X234663Y3151D01*
X234675D01*
X234687Y3150D01*
X234835D01*
Y3638D01*
D02*
G37*
G36*
X236249Y9782D02*
X236244D01*
X236240Y9781D01*
X236231Y9780D01*
X236218Y9777D01*
X236204Y9773D01*
X236188Y9765D01*
X236174Y9756D01*
X236159Y9743D01*
X236157Y9741D01*
X236153Y9737D01*
X236147Y9728D01*
X236140Y9716D01*
X236134Y9702D01*
X236127Y9685D01*
X236124Y9665D01*
X236122Y9643D01*
Y9641D01*
Y9637D01*
X236123Y9628D01*
X236124Y9618D01*
X236126Y9606D01*
X236129Y9593D01*
X236133Y9579D01*
X236139Y9566D01*
X236139Y9564D01*
X236142Y9559D01*
X236146Y9553D01*
X236151Y9544D01*
X236158Y9536D01*
X236166Y9526D01*
X236176Y9517D01*
X236187Y9509D01*
X236188Y9508D01*
X236192Y9506D01*
X236199Y9503D01*
X236207Y9500D01*
X236216Y9496D01*
X236227Y9492D01*
X236239Y9491D01*
X236252Y9490D01*
X236257D01*
X236261Y9491D01*
X236270Y9492D01*
X236282Y9494D01*
X236295Y9500D01*
X236310Y9506D01*
X236324Y9517D01*
X236332Y9522D01*
X236338Y9529D01*
Y9530D01*
X236340Y9531D01*
X236344Y9537D01*
X236349Y9546D01*
X236357Y9558D01*
X236363Y9574D01*
X236369Y9592D01*
X236372Y9614D01*
X236374Y9639D01*
Y9639D01*
Y9641D01*
Y9645D01*
X236373Y9650D01*
Y9655D01*
X236372Y9662D01*
X236370Y9676D01*
X236366Y9693D01*
X236359Y9711D01*
X236350Y9727D01*
X236338Y9743D01*
X236336Y9745D01*
X236332Y9750D01*
X236324Y9755D01*
X236314Y9762D01*
X236301Y9770D01*
X236286Y9775D01*
X236269Y9780D01*
X236249Y9782D01*
D02*
G37*
G36*
X235158Y10000D02*
X235010D01*
Y9512D01*
X235161D01*
X235168Y9513D01*
X235182Y9514D01*
X235197Y9515D01*
X235214Y9517D01*
X235231Y9519D01*
X235244Y9523D01*
X235246Y9524D01*
X235251Y9525D01*
X235257Y9528D01*
X235266Y9531D01*
X235275Y9537D01*
X235284Y9542D01*
X235293Y9549D01*
X235303Y9556D01*
X235304Y9558D01*
X235307Y9562D01*
X235313Y9568D01*
X235319Y9578D01*
X235327Y9590D01*
X235335Y9603D01*
X235342Y9619D01*
X235349Y9637D01*
Y9638D01*
X235350Y9639D01*
X235351Y9642D01*
X235352Y9646D01*
X235353Y9651D01*
X235355Y9657D01*
X235356Y9664D01*
X235358Y9671D01*
X235361Y9689D01*
X235364Y9711D01*
X235366Y9735D01*
X235367Y9761D01*
Y9762D01*
Y9765D01*
Y9770D01*
X235366Y9777D01*
Y9786D01*
X235365Y9795D01*
X235364Y9806D01*
X235363Y9817D01*
X235358Y9842D01*
X235353Y9868D01*
X235344Y9892D01*
X235339Y9904D01*
X235333Y9914D01*
Y9915D01*
X235331Y9917D01*
X235330Y9920D01*
X235328Y9923D01*
X235320Y9933D01*
X235311Y9944D01*
X235299Y9956D01*
X235285Y9968D01*
X235269Y9978D01*
X235253Y9986D01*
X235251Y9987D01*
X235246Y9988D01*
X235238Y9991D01*
X235226Y9994D01*
X235211Y9995D01*
X235193Y9998D01*
X235182Y9999D01*
X235170D01*
X235158Y10000D01*
D02*
G37*
G36*
X234785Y15013D02*
X234633D01*
X234627Y15012D01*
X234613Y15011D01*
X234597Y15010D01*
X234581Y15008D01*
X234564Y15006D01*
X234550Y15002D01*
X234548Y15001D01*
X234544Y15000D01*
X234537Y14997D01*
X234529Y14994D01*
X234520Y14988D01*
X234510Y14983D01*
X234501Y14976D01*
X234492Y14969D01*
X234491Y14967D01*
X234487Y14963D01*
X234482Y14957D01*
X234475Y14947D01*
X234468Y14935D01*
X234460Y14922D01*
X234452Y14906D01*
X234446Y14888D01*
Y14887D01*
X234445Y14886D01*
X234444Y14883D01*
X234443Y14879D01*
X234442Y14874D01*
X234440Y14868D01*
X234438Y14861D01*
X234436Y14854D01*
X234434Y14836D01*
X234431Y14814D01*
X234429Y14790D01*
X234428Y14764D01*
Y14763D01*
Y14760D01*
Y14755D01*
X234429Y14748D01*
Y14739D01*
X234430Y14730D01*
X234431Y14719D01*
X234432Y14708D01*
X234436Y14683D01*
X234442Y14657D01*
X234450Y14633D01*
X234456Y14621D01*
X234461Y14611D01*
Y14610D01*
X234463Y14608D01*
X234465Y14605D01*
X234467Y14602D01*
X234474Y14592D01*
X234484Y14581D01*
X234496Y14569D01*
X234509Y14557D01*
X234525Y14547D01*
X234542Y14539D01*
X234544Y14538D01*
X234548Y14537D01*
X234557Y14534D01*
X234569Y14531D01*
X234583Y14530D01*
X234602Y14527D01*
X234613Y14526D01*
X234625D01*
X234637Y14525D01*
X234785D01*
Y15013D01*
D02*
G37*
G36*
X235103Y21375D02*
X234955D01*
Y20887D01*
X235107D01*
X235113Y20888D01*
X235127Y20889D01*
X235143Y20890D01*
X235159Y20892D01*
X235176Y20894D01*
X235190Y20898D01*
X235192Y20899D01*
X235196Y20900D01*
X235203Y20903D01*
X235211Y20906D01*
X235220Y20912D01*
X235230Y20917D01*
X235239Y20924D01*
X235248Y20931D01*
X235249Y20933D01*
X235253Y20937D01*
X235258Y20943D01*
X235265Y20953D01*
X235272Y20965D01*
X235280Y20978D01*
X235288Y20994D01*
X235294Y21012D01*
Y21013D01*
X235295Y21014D01*
X235296Y21017D01*
X235297Y21021D01*
X235298Y21026D01*
X235300Y21032D01*
X235302Y21039D01*
X235304Y21046D01*
X235306Y21064D01*
X235309Y21086D01*
X235311Y21110D01*
X235312Y21136D01*
Y21137D01*
Y21140D01*
Y21145D01*
X235311Y21152D01*
Y21161D01*
X235310Y21170D01*
X235309Y21181D01*
X235308Y21192D01*
X235304Y21217D01*
X235298Y21243D01*
X235290Y21267D01*
X235284Y21279D01*
X235279Y21289D01*
Y21290D01*
X235277Y21292D01*
X235275Y21295D01*
X235273Y21298D01*
X235266Y21308D01*
X235256Y21319D01*
X235244Y21331D01*
X235231Y21343D01*
X235215Y21353D01*
X235198Y21361D01*
X235196Y21362D01*
X235192Y21363D01*
X235183Y21366D01*
X235171Y21369D01*
X235157Y21370D01*
X235138Y21373D01*
X235127Y21374D01*
X235115D01*
X235103Y21375D01*
D02*
G37*
G36*
X418008Y27864D02*
X417860D01*
Y27376D01*
X418012D01*
X418018Y27377D01*
X418032Y27378D01*
X418048Y27379D01*
X418064Y27380D01*
X418081Y27383D01*
X418095Y27387D01*
X418097Y27388D01*
X418101Y27389D01*
X418108Y27392D01*
X418116Y27395D01*
X418125Y27401D01*
X418135Y27406D01*
X418144Y27413D01*
X418153Y27420D01*
X418154Y27422D01*
X418158Y27426D01*
X418163Y27432D01*
X418170Y27441D01*
X418177Y27453D01*
X418185Y27467D01*
X418193Y27483D01*
X418199Y27501D01*
Y27502D01*
X418200Y27503D01*
X418201Y27506D01*
X418202Y27510D01*
X418203Y27514D01*
X418205Y27521D01*
X418207Y27527D01*
X418209Y27535D01*
X418211Y27553D01*
X418214Y27575D01*
X418216Y27599D01*
X418217Y27625D01*
Y27625D01*
Y27629D01*
Y27634D01*
X418216Y27641D01*
Y27649D01*
X418215Y27659D01*
X418214Y27670D01*
X418213Y27681D01*
X418209Y27706D01*
X418203Y27732D01*
X418195Y27756D01*
X418189Y27768D01*
X418184Y27778D01*
Y27779D01*
X418182Y27781D01*
X418180Y27784D01*
X418178Y27787D01*
X418171Y27796D01*
X418161Y27808D01*
X418149Y27820D01*
X418136Y27832D01*
X418120Y27842D01*
X418103Y27850D01*
X418101Y27851D01*
X418097Y27852D01*
X418088Y27855D01*
X418076Y27858D01*
X418062Y27859D01*
X418043Y27862D01*
X418032Y27863D01*
X418020D01*
X418008Y27864D01*
D02*
G37*
G36*
X177700Y44899D02*
X177699D01*
X177698D01*
X177692Y44898D01*
X177684Y44898D01*
X177673Y44896D01*
X177662Y44891D01*
X177649Y44885D01*
X177637Y44877D01*
X177625Y44866D01*
X177624Y44864D01*
X177620Y44860D01*
X177616Y44852D01*
X177610Y44840D01*
X177605Y44826D01*
X177600Y44808D01*
X177596Y44787D01*
X177595Y44762D01*
Y44560D01*
X177807D01*
Y44751D01*
X177806Y44762D01*
X177805Y44775D01*
X177804Y44789D01*
X177802Y44804D01*
X177800Y44819D01*
X177796Y44832D01*
X177795Y44834D01*
X177793Y44837D01*
X177790Y44843D01*
X177787Y44850D01*
X177781Y44859D01*
X177775Y44867D01*
X177766Y44875D01*
X177757Y44882D01*
X177756Y44883D01*
X177752Y44885D01*
X177747Y44887D01*
X177740Y44891D01*
X177731Y44894D01*
X177722Y44897D01*
X177711Y44898D01*
X177700Y44899D01*
D02*
G37*
G36*
X189613Y45836D02*
X189327D01*
X189613Y45634D01*
Y45836D01*
D02*
G37*
G36*
X189375Y44899D02*
X189374D01*
X189373D01*
X189367Y44898D01*
X189359Y44898D01*
X189348Y44896D01*
X189337Y44891D01*
X189324Y44885D01*
X189312Y44877D01*
X189300Y44866D01*
X189299Y44864D01*
X189295Y44860D01*
X189291Y44852D01*
X189285Y44840D01*
X189280Y44826D01*
X189275Y44808D01*
X189271Y44787D01*
X189270Y44762D01*
Y44560D01*
X189482D01*
Y44751D01*
X189481Y44762D01*
X189480Y44775D01*
X189479Y44789D01*
X189477Y44804D01*
X189475Y44819D01*
X189471Y44832D01*
X189470Y44834D01*
X189468Y44837D01*
X189465Y44843D01*
X189462Y44850D01*
X189456Y44859D01*
X189450Y44867D01*
X189441Y44875D01*
X189432Y44882D01*
X189431Y44883D01*
X189427Y44885D01*
X189422Y44887D01*
X189415Y44891D01*
X189406Y44894D01*
X189397Y44897D01*
X189386Y44898D01*
X189375Y44899D01*
D02*
G37*
G36*
X202884Y54697D02*
X202883D01*
X202881D01*
X202878D01*
X202873Y54696D01*
X202866D01*
X202860Y54695D01*
X202845Y54692D01*
X202828Y54688D01*
X202809Y54682D01*
X202792Y54673D01*
X202776Y54661D01*
X202775D01*
X202774Y54659D01*
X202769Y54654D01*
X202763Y54647D01*
X202755Y54637D01*
X202749Y54624D01*
X202743Y54609D01*
X202738Y54592D01*
X202736Y54583D01*
Y54568D01*
X202737Y54564D01*
X202738Y54554D01*
X202742Y54542D01*
X202746Y54528D01*
X202755Y54512D01*
X202765Y54496D01*
X202772Y54489D01*
X202780Y54481D01*
X202780D01*
X202781Y54479D01*
X202784Y54478D01*
X202787Y54476D01*
X202796Y54469D01*
X202809Y54463D01*
X202825Y54455D01*
X202844Y54449D01*
X202866Y54445D01*
X202890Y54443D01*
X202891D01*
X202893D01*
X202896D01*
X202901Y54444D01*
X202906D01*
X202912Y54445D01*
X202926Y54448D01*
X202941Y54453D01*
X202958Y54458D01*
X202975Y54467D01*
X202989Y54479D01*
X202991Y54481D01*
X202995Y54486D01*
X203001Y54494D01*
X203008Y54504D01*
X203015Y54518D01*
X203022Y54534D01*
X203025Y54552D01*
X203027Y54571D01*
Y54577D01*
X203026Y54580D01*
X203025Y54590D01*
X203023Y54602D01*
X203018Y54617D01*
X203012Y54632D01*
X203002Y54647D01*
X202989Y54661D01*
X202988Y54662D01*
X202982Y54666D01*
X202974Y54672D01*
X202962Y54679D01*
X202947Y54686D01*
X202929Y54691D01*
X202908Y54695D01*
X202884Y54697D01*
D02*
G37*
G36*
X111786Y93449D02*
X111786D01*
X111784D01*
X111780D01*
X111775Y93448D01*
X111770D01*
X111763Y93447D01*
X111749Y93444D01*
X111732Y93440D01*
X111714Y93434D01*
X111698Y93425D01*
X111682Y93413D01*
X111680Y93411D01*
X111675Y93406D01*
X111670Y93399D01*
X111663Y93389D01*
X111655Y93376D01*
X111650Y93361D01*
X111645Y93343D01*
X111643Y93324D01*
Y93318D01*
X111644Y93315D01*
X111645Y93305D01*
X111648Y93293D01*
X111652Y93279D01*
X111660Y93263D01*
X111669Y93248D01*
X111682Y93233D01*
X111684Y93231D01*
X111688Y93228D01*
X111697Y93221D01*
X111709Y93215D01*
X111723Y93208D01*
X111740Y93202D01*
X111760Y93198D01*
X111782Y93196D01*
X111784D01*
X111788D01*
X111797Y93197D01*
X111807Y93198D01*
X111819Y93200D01*
X111832Y93204D01*
X111846Y93207D01*
X111859Y93213D01*
X111861Y93214D01*
X111866Y93217D01*
X111872Y93220D01*
X111881Y93226D01*
X111889Y93232D01*
X111899Y93241D01*
X111908Y93250D01*
X111916Y93261D01*
X111917Y93263D01*
X111919Y93267D01*
X111922Y93273D01*
X111925Y93281D01*
X111929Y93291D01*
X111933Y93302D01*
X111934Y93314D01*
X111935Y93327D01*
Y93331D01*
X111934Y93335D01*
X111933Y93344D01*
X111931Y93356D01*
X111925Y93369D01*
X111919Y93384D01*
X111908Y93399D01*
X111903Y93406D01*
X111896Y93413D01*
X111895D01*
X111894Y93415D01*
X111888Y93418D01*
X111879Y93424D01*
X111867Y93431D01*
X111851Y93438D01*
X111833Y93443D01*
X111811Y93447D01*
X111786Y93449D01*
D02*
G37*
G36*
X111525Y92424D02*
X111524D01*
X111523D01*
X111517Y92423D01*
X111509Y92423D01*
X111498Y92421D01*
X111487Y92416D01*
X111474Y92410D01*
X111462Y92402D01*
X111450Y92391D01*
X111449Y92389D01*
X111445Y92385D01*
X111441Y92377D01*
X111435Y92365D01*
X111430Y92351D01*
X111425Y92333D01*
X111421Y92312D01*
X111420Y92287D01*
Y92085D01*
X111632D01*
Y92275D01*
X111631Y92287D01*
X111630Y92300D01*
X111629Y92314D01*
X111627Y92329D01*
X111625Y92344D01*
X111621Y92357D01*
X111620Y92359D01*
X111618Y92362D01*
X111615Y92368D01*
X111612Y92375D01*
X111606Y92384D01*
X111600Y92392D01*
X111591Y92400D01*
X111582Y92407D01*
X111581Y92408D01*
X111577Y92410D01*
X111572Y92412D01*
X111565Y92416D01*
X111556Y92419D01*
X111547Y92422D01*
X111536Y92423D01*
X111525Y92424D01*
D02*
G37*
G36*
X123268Y121364D02*
X122982D01*
X123268Y121163D01*
Y121364D01*
D02*
G37*
G36*
X123169Y120942D02*
X123168D01*
X123165D01*
X123160D01*
X123153Y120941D01*
X123144D01*
X123135Y120940D01*
X123124Y120939D01*
X123113Y120938D01*
X123088Y120934D01*
X123062Y120928D01*
X123038Y120920D01*
X123026Y120914D01*
X123016Y120909D01*
X123015D01*
X123013Y120907D01*
X123010Y120905D01*
X123007Y120903D01*
X122997Y120896D01*
X122986Y120886D01*
X122974Y120874D01*
X122962Y120861D01*
X122952Y120845D01*
X122944Y120828D01*
X122943Y120826D01*
X122942Y120822D01*
X122939Y120813D01*
X122936Y120801D01*
X122934Y120787D01*
X122932Y120768D01*
X122931Y120757D01*
Y120745D01*
X122930Y120733D01*
Y120585D01*
X123418D01*
Y120737D01*
X123417Y120743D01*
X123416Y120757D01*
X123415Y120773D01*
X123413Y120789D01*
X123411Y120806D01*
X123407Y120820D01*
X123406Y120822D01*
X123405Y120826D01*
X123402Y120833D01*
X123399Y120841D01*
X123393Y120850D01*
X123387Y120860D01*
X123381Y120869D01*
X123374Y120878D01*
X123372Y120879D01*
X123368Y120883D01*
X123362Y120888D01*
X123352Y120895D01*
X123340Y120902D01*
X123326Y120910D01*
X123311Y120918D01*
X123293Y120924D01*
X123292D01*
X123290Y120925D01*
X123288Y120926D01*
X123284Y120927D01*
X123279Y120928D01*
X123273Y120930D01*
X123266Y120932D01*
X123259Y120934D01*
X123240Y120936D01*
X123219Y120939D01*
X123195Y120941D01*
X123169Y120942D01*
D02*
G37*
G36*
X90914Y120942D02*
X90913D01*
X90910D01*
X90905D01*
X90898Y120941D01*
X90889D01*
X90880Y120940D01*
X90869Y120939D01*
X90858Y120938D01*
X90833Y120934D01*
X90807Y120928D01*
X90783Y120920D01*
X90771Y120914D01*
X90761Y120909D01*
X90760D01*
X90758Y120907D01*
X90755Y120905D01*
X90752Y120903D01*
X90742Y120896D01*
X90731Y120886D01*
X90719Y120874D01*
X90707Y120861D01*
X90697Y120845D01*
X90689Y120828D01*
X90688Y120826D01*
X90687Y120822D01*
X90684Y120813D01*
X90681Y120801D01*
X90680Y120787D01*
X90677Y120768D01*
X90676Y120757D01*
Y120745D01*
X90675Y120733D01*
Y120585D01*
X91163D01*
Y120737D01*
X91162Y120743D01*
X91161Y120757D01*
X91160Y120773D01*
X91158Y120789D01*
X91156Y120806D01*
X91152Y120820D01*
X91151Y120822D01*
X91150Y120826D01*
X91147Y120833D01*
X91144Y120841D01*
X91138Y120850D01*
X91133Y120860D01*
X91126Y120869D01*
X91119Y120878D01*
X91117Y120879D01*
X91113Y120883D01*
X91107Y120888D01*
X91097Y120895D01*
X91085Y120902D01*
X91072Y120910D01*
X91056Y120918D01*
X91038Y120924D01*
X91037D01*
X91036Y120925D01*
X91033Y120926D01*
X91029Y120927D01*
X91024Y120928D01*
X91018Y120930D01*
X91011Y120932D01*
X91004Y120934D01*
X90986Y120936D01*
X90964Y120939D01*
X90940Y120941D01*
X90914Y120942D01*
D02*
G37*
G36*
X58095Y120942D02*
X58095D01*
X58091D01*
X58086D01*
X58079Y120941D01*
X58071D01*
X58061Y120940D01*
X58050Y120939D01*
X58039Y120938D01*
X58014Y120934D01*
X57988Y120928D01*
X57964Y120920D01*
X57952Y120914D01*
X57942Y120909D01*
X57941D01*
X57939Y120907D01*
X57936Y120905D01*
X57933Y120903D01*
X57924Y120896D01*
X57912Y120886D01*
X57900Y120874D01*
X57888Y120861D01*
X57878Y120845D01*
X57870Y120828D01*
X57869Y120826D01*
X57868Y120822D01*
X57865Y120813D01*
X57862Y120801D01*
X57861Y120787D01*
X57858Y120768D01*
X57857Y120757D01*
Y120745D01*
X57856Y120733D01*
Y120585D01*
X58344D01*
Y120737D01*
X58343Y120743D01*
X58342Y120757D01*
X58341Y120773D01*
X58340Y120789D01*
X58337Y120806D01*
X58333Y120820D01*
X58332Y120822D01*
X58331Y120826D01*
X58328Y120833D01*
X58325Y120841D01*
X58319Y120850D01*
X58314Y120860D01*
X58307Y120869D01*
X58300Y120878D01*
X58298Y120879D01*
X58294Y120883D01*
X58288Y120888D01*
X58279Y120895D01*
X58267Y120902D01*
X58253Y120910D01*
X58237Y120918D01*
X58219Y120924D01*
X58218D01*
X58217Y120925D01*
X58214Y120926D01*
X58210Y120927D01*
X58206Y120928D01*
X58199Y120930D01*
X58193Y120932D01*
X58185Y120934D01*
X58167Y120936D01*
X58145Y120939D01*
X58121Y120941D01*
X58095Y120942D01*
D02*
G37*
G36*
X25608D02*
X25607D01*
X25603D01*
X25599D01*
X25591Y120941D01*
X25583D01*
X25574Y120940D01*
X25563Y120939D01*
X25551Y120938D01*
X25527Y120934D01*
X25501Y120928D01*
X25477Y120920D01*
X25465Y120914D01*
X25454Y120909D01*
X25453D01*
X25452Y120907D01*
X25449Y120905D01*
X25445Y120903D01*
X25436Y120896D01*
X25425Y120886D01*
X25413Y120874D01*
X25401Y120861D01*
X25391Y120845D01*
X25382Y120828D01*
X25381Y120826D01*
X25380Y120822D01*
X25378Y120813D01*
X25375Y120801D01*
X25373Y120787D01*
X25370Y120768D01*
X25369Y120757D01*
Y120745D01*
X25368Y120733D01*
Y120585D01*
X25857D01*
Y120737D01*
X25856Y120743D01*
X25855Y120757D01*
X25854Y120773D01*
X25852Y120789D01*
X25849Y120806D01*
X25846Y120820D01*
X25845Y120822D01*
X25844Y120826D01*
X25841Y120833D01*
X25837Y120841D01*
X25832Y120850D01*
X25826Y120860D01*
X25820Y120869D01*
X25812Y120878D01*
X25810Y120879D01*
X25807Y120883D01*
X25800Y120888D01*
X25791Y120895D01*
X25779Y120902D01*
X25765Y120910D01*
X25749Y120918D01*
X25732Y120924D01*
X25731D01*
X25729Y120925D01*
X25726Y120926D01*
X25723Y120927D01*
X25718Y120928D01*
X25711Y120930D01*
X25705Y120932D01*
X25698Y120934D01*
X25679Y120936D01*
X25658Y120939D01*
X25634Y120941D01*
X25608Y120942D01*
D02*
G37*
G36*
X135536Y92424D02*
X135535D01*
X135534D01*
X135528Y92423D01*
X135520Y92423D01*
X135509Y92421D01*
X135498Y92416D01*
X135485Y92410D01*
X135473Y92402D01*
X135461Y92391D01*
X135460Y92389D01*
X135456Y92385D01*
X135452Y92377D01*
X135446Y92365D01*
X135441Y92351D01*
X135436Y92333D01*
X135432Y92312D01*
X135431Y92287D01*
Y92085D01*
X135643D01*
Y92276D01*
X135642Y92287D01*
X135641Y92300D01*
X135640Y92314D01*
X135639Y92329D01*
X135636Y92344D01*
X135632Y92357D01*
X135631Y92359D01*
X135629Y92362D01*
X135626Y92368D01*
X135623Y92375D01*
X135617Y92384D01*
X135611Y92392D01*
X135602Y92400D01*
X135593Y92407D01*
X135592Y92408D01*
X135589Y92410D01*
X135583Y92412D01*
X135576Y92416D01*
X135567Y92419D01*
X135558Y92422D01*
X135547Y92423D01*
X135536Y92424D01*
D02*
G37*
G36*
X123525Y92424D02*
X123524D01*
X123523D01*
X123517Y92423D01*
X123509Y92423D01*
X123498Y92421D01*
X123487Y92416D01*
X123474Y92410D01*
X123462Y92402D01*
X123450Y92391D01*
X123449Y92389D01*
X123445Y92385D01*
X123441Y92377D01*
X123435Y92365D01*
X123430Y92351D01*
X123425Y92333D01*
X123421Y92312D01*
X123420Y92287D01*
Y92085D01*
X123632D01*
Y92275D01*
X123631Y92287D01*
X123630Y92300D01*
X123629Y92314D01*
X123627Y92329D01*
X123625Y92344D01*
X123621Y92357D01*
X123620Y92359D01*
X123618Y92362D01*
X123615Y92368D01*
X123612Y92375D01*
X123606Y92384D01*
X123600Y92392D01*
X123591Y92400D01*
X123582Y92407D01*
X123581Y92408D01*
X123577Y92410D01*
X123572Y92412D01*
X123565Y92416D01*
X123556Y92419D01*
X123547Y92422D01*
X123536Y92423D01*
X123525Y92424D01*
D02*
G37*
%LPD*%
D98*
X184500Y29045D02*
Y59905D01*
X195200D01*
Y29045D02*
Y59905D01*
X184500Y29045D02*
X195200D01*
X20661Y65800D02*
Y116600D01*
X-2834Y65800D02*
X20661D01*
X-2834D02*
Y116600D01*
X20661D01*
X192095Y13450D02*
Y18950D01*
X168755D02*
X192095D01*
X168755Y13450D02*
Y18950D01*
Y13450D02*
X192095D01*
X413500Y28250D02*
X422050D01*
Y26350D02*
Y28250D01*
X413500Y26350D02*
X422050D01*
X413500D02*
Y28250D01*
X91225Y26525D02*
X99775D01*
X91225D02*
Y28425D01*
X99775D01*
Y26525D02*
Y28425D01*
X144305Y13300D02*
Y18800D01*
Y13300D02*
X167645D01*
Y18800D01*
X144305D02*
X167645D01*
X223200Y23550D02*
X246540D01*
Y18050D02*
Y23550D01*
X223200Y18050D02*
X246540D01*
X223200D02*
Y23550D01*
Y12350D02*
X246540D01*
X223200D02*
Y17850D01*
X246540D01*
Y12350D02*
Y17850D01*
X223255Y12175D02*
X246595D01*
Y6675D02*
Y12175D01*
X223255Y6675D02*
X246595D01*
X223255D02*
Y12175D01*
X223250Y975D02*
X246590D01*
X223250D02*
Y6475D01*
X246590D01*
Y975D02*
Y6475D01*
X106650Y76570D02*
X117350D01*
Y107430D01*
X106650D02*
X117350D01*
X106650Y76570D02*
Y107430D01*
X118650Y76570D02*
X129350D01*
Y107430D01*
X118650D02*
X129350D01*
X118650Y76570D02*
Y107430D01*
X130650Y76570D02*
X141350D01*
Y107430D01*
X130650D02*
X141350D01*
X130650Y76570D02*
Y107430D01*
X50385Y117745D02*
X66455D01*
Y123255D01*
X50385D02*
X66455D01*
X50385Y117745D02*
Y123255D01*
X172825Y29045D02*
Y59905D01*
X183525D01*
Y29045D02*
Y59905D01*
X172825Y29045D02*
X183525D01*
X83215Y117745D02*
Y123255D01*
X99285D01*
Y117745D02*
Y123255D01*
X83215Y117745D02*
X99285D01*
X115459D02*
Y123255D01*
X131529D01*
Y117745D02*
Y123255D01*
X115459Y117745D02*
X131529D01*
X17897D02*
Y123255D01*
X33967D01*
Y117745D02*
Y123255D01*
X17897Y117745D02*
X33967D01*
D144*
X69900Y16925D02*
X84250D01*
Y15837D02*
Y16925D01*
Y13250D02*
Y14337D01*
Y15837D01*
X69900Y13250D02*
X84250Y13250D01*
X69900Y13250D02*
X69900Y16925D01*
X343825Y86000D02*
X361825D01*
X343825D02*
Y104000D01*
X361825Y86000D02*
Y104000D01*
X343825D02*
X361825D01*
X286400Y2000D02*
Y3600D01*
Y5000D02*
Y6800D01*
X297600D01*
X286400Y2000D02*
X297600D01*
X286400Y3600D02*
Y5000D01*
X297600Y2000D02*
Y6800D01*
X382150Y104000D02*
X400150D01*
Y86000D02*
Y104000D01*
X382150Y86000D02*
Y104000D01*
Y86000D02*
X400150D01*
X362850Y104000D02*
X380850D01*
Y86000D02*
Y104000D01*
X362850Y86000D02*
Y104000D01*
Y86000D02*
X380850D01*
X353083Y95458D02*
X353200Y95575D01*
Y95808D01*
X353083Y95925D01*
X352617D01*
X352500Y95808D01*
Y95575D01*
X352617Y95458D01*
X352500Y95225D02*
Y94992D01*
Y95109D01*
X353200D01*
X353083Y95225D01*
X353200Y94176D02*
X353083Y94409D01*
X352850Y94642D01*
X352617D01*
X352500Y94525D01*
Y94292D01*
X352617Y94176D01*
X352733D01*
X352850Y94292D01*
Y94642D01*
X292975Y4050D02*
Y4750D01*
X292625D01*
X292508Y4633D01*
Y4167D01*
X292625Y4050D01*
X292975D01*
X292275Y4750D02*
Y4283D01*
X292042Y4050D01*
X291809Y4283D01*
Y4750D01*
Y4400D01*
X292275D01*
X291575Y4750D02*
X291342D01*
X291459D01*
Y4050D01*
X291575Y4167D01*
X76150Y15450D02*
Y14983D01*
X76383Y14750D01*
X76617Y14983D01*
Y15450D01*
X76850D02*
Y14750D01*
X77200D01*
X77316Y14867D01*
Y15333D01*
X77200Y15450D01*
X76850D01*
X77550Y15333D02*
X77666Y15450D01*
X77899D01*
X78016Y15333D01*
Y15217D01*
X77899Y15100D01*
X77783D01*
X77899D01*
X78016Y14983D01*
Y14867D01*
X77899Y14750D01*
X77666D01*
X77550Y14867D01*
X391408Y95458D02*
X391525Y95575D01*
Y95808D01*
X391408Y95925D01*
X390942D01*
X390825Y95808D01*
Y95575D01*
X390942Y95458D01*
X390825Y95225D02*
Y94992D01*
Y95109D01*
X391525D01*
X391408Y95225D01*
X390825Y94292D02*
X391525D01*
X391175Y94642D01*
Y94176D01*
X372108Y95458D02*
X372225Y95575D01*
Y95808D01*
X372108Y95925D01*
X371642D01*
X371525Y95808D01*
Y95575D01*
X371642Y95458D01*
X371525Y94759D02*
Y95225D01*
X371992Y94759D01*
X372108D01*
X372225Y94875D01*
Y95109D01*
X372108Y95225D01*
D152*
X71975Y15062D02*
D03*
%TF.MD5,6ece318bd4ab14fc834ad1c771f61cb0*%
M02*
