%TF.GenerationSoftware,Altium Limited,Altium Designer,21.6.4 (81)*%
G04 Layer_Color=8388736*
%FSLAX43Y43*%
%MOMM*%
%TF.SameCoordinates,D4C572C6-D0EE-4933-9396-1D80D03FA8BE*%
%TF.FilePolarity,Positive*%
%TF.FileFunction,Other,Mechanical_10*%
%TF.Part,Single*%
G01*
G75*
%TA.AperFunction,NonConductor*%
%ADD98C,0.200*%
G36*
X98208Y17452D02*
X98207Y17436D01*
X98206Y17417D01*
X98205Y17399D01*
X98202Y17380D01*
X98199Y17365D01*
Y17364D01*
X98198Y17362D01*
Y17359D01*
X98196Y17355D01*
X98193Y17345D01*
X98189Y17332D01*
X98182Y17317D01*
X98174Y17302D01*
X98165Y17286D01*
X98153Y17271D01*
X98152Y17270D01*
X98151Y17269D01*
X98148Y17267D01*
X98145Y17263D01*
X98136Y17254D01*
X98123Y17243D01*
X98107Y17231D01*
X98089Y17218D01*
X98068Y17206D01*
X98044Y17195D01*
X98043D01*
X98041Y17195D01*
X98037Y17193D01*
X98032Y17192D01*
X98025Y17189D01*
X98018Y17187D01*
X98009Y17185D01*
X97999Y17183D01*
X97989Y17180D01*
X97977Y17178D01*
X97951Y17173D01*
X97923Y17170D01*
X97891Y17170D01*
X97890D01*
X97888D01*
X97884D01*
X97879D01*
X97873Y17170D01*
X97865D01*
X97848Y17171D01*
X97827Y17174D01*
X97806Y17177D01*
X97784Y17182D01*
X97762Y17187D01*
X97761D01*
X97759Y17188D01*
X97756Y17189D01*
X97752Y17190D01*
X97742Y17194D01*
X97729Y17199D01*
X97715Y17205D01*
X97700Y17212D01*
X97684Y17221D01*
X97669Y17231D01*
X97667Y17232D01*
X97663Y17235D01*
X97656Y17241D01*
X97648Y17248D01*
X97639Y17256D01*
X97629Y17267D01*
X97619Y17277D01*
X97611Y17289D01*
X97610Y17291D01*
X97607Y17294D01*
X97604Y17301D01*
X97599Y17310D01*
X97593Y17321D01*
X97589Y17334D01*
X97583Y17349D01*
X97579Y17366D01*
Y17367D01*
X97578Y17370D01*
X97577Y17373D01*
X97576Y17382D01*
X97574Y17395D01*
X97572Y17410D01*
X97570Y17428D01*
X97569Y17447D01*
X97568Y17468D01*
Y17698D01*
X98208D01*
Y17452D01*
D02*
G37*
G36*
X98050Y17024D02*
X98052Y17023D01*
X98053Y17019D01*
X98056Y17014D01*
X98058Y17009D01*
X98062Y17002D01*
X98071Y16986D01*
X98082Y16968D01*
X98095Y16950D01*
X98109Y16930D01*
X98125Y16911D01*
X98126Y16910D01*
X98127Y16909D01*
X98130Y16906D01*
X98132Y16902D01*
X98142Y16894D01*
X98153Y16883D01*
X98166Y16872D01*
X98181Y16860D01*
X98195Y16850D01*
X98211Y16840D01*
Y16790D01*
X97568D01*
Y16868D01*
X98069D01*
X98068Y16869D01*
X98064Y16874D01*
X98058Y16879D01*
X98052Y16888D01*
X98044Y16899D01*
X98034Y16912D01*
X98024Y16926D01*
X98014Y16943D01*
Y16944D01*
X98013Y16945D01*
X98009Y16950D01*
X98005Y16960D01*
X97999Y16971D01*
X97993Y16984D01*
X97986Y16998D01*
X97980Y17011D01*
X97974Y17025D01*
X98050D01*
Y17024D01*
D02*
G37*
G36*
X97763Y16588D02*
X97768D01*
X97775Y16587D01*
X97789Y16585D01*
X97806Y16582D01*
X97823Y16576D01*
X97840Y16568D01*
X97857Y16558D01*
X97858D01*
X97859Y16556D01*
X97863Y16552D01*
X97871Y16545D01*
X97880Y16534D01*
X97889Y16521D01*
X97899Y16506D01*
X97908Y16488D01*
X97914Y16467D01*
Y16468D01*
X97915Y16469D01*
X97916Y16472D01*
X97918Y16475D01*
X97922Y16484D01*
X97927Y16495D01*
X97935Y16507D01*
X97944Y16519D01*
X97954Y16530D01*
X97965Y16540D01*
X97967Y16541D01*
X97971Y16544D01*
X97978Y16547D01*
X97987Y16551D01*
X97999Y16556D01*
X98013Y16559D01*
X98029Y16562D01*
X98046Y16563D01*
X98046D01*
X98048D01*
X98052D01*
X98058Y16562D01*
X98063Y16561D01*
X98070Y16560D01*
X98086Y16557D01*
X98105Y16551D01*
X98124Y16542D01*
X98134Y16536D01*
X98144Y16530D01*
X98154Y16521D01*
X98163Y16513D01*
X98164Y16512D01*
X98165Y16510D01*
X98168Y16508D01*
X98170Y16504D01*
X98174Y16499D01*
X98178Y16493D01*
X98182Y16485D01*
X98187Y16478D01*
X98192Y16469D01*
X98196Y16459D01*
X98200Y16447D01*
X98204Y16435D01*
X98209Y16410D01*
X98210Y16395D01*
X98211Y16380D01*
Y16372D01*
X98210Y16366D01*
X98209Y16359D01*
X98208Y16350D01*
X98207Y16341D01*
X98205Y16332D01*
X98199Y16310D01*
X98191Y16288D01*
X98185Y16276D01*
X98179Y16265D01*
X98170Y16255D01*
X98162Y16245D01*
X98161Y16244D01*
X98160Y16243D01*
X98157Y16240D01*
X98154Y16237D01*
X98148Y16233D01*
X98143Y16228D01*
X98129Y16219D01*
X98111Y16210D01*
X98091Y16202D01*
X98068Y16195D01*
X98056Y16194D01*
X98043Y16193D01*
X98042D01*
X98041D01*
X98035D01*
X98027Y16194D01*
X98017Y16196D01*
X98004Y16199D01*
X97991Y16203D01*
X97978Y16209D01*
X97965Y16217D01*
X97963Y16218D01*
X97960Y16222D01*
X97954Y16227D01*
X97947Y16235D01*
X97938Y16245D01*
X97930Y16257D01*
X97922Y16271D01*
X97914Y16288D01*
Y16287D01*
X97913Y16285D01*
X97912Y16282D01*
X97911Y16278D01*
X97906Y16267D01*
X97899Y16254D01*
X97890Y16240D01*
X97880Y16226D01*
X97867Y16212D01*
X97852Y16199D01*
X97851D01*
X97850Y16198D01*
X97845Y16194D01*
X97836Y16189D01*
X97824Y16183D01*
X97809Y16177D01*
X97791Y16172D01*
X97772Y16168D01*
X97751Y16167D01*
X97750D01*
X97747D01*
X97742D01*
X97737Y16168D01*
X97730Y16169D01*
X97722Y16170D01*
X97713Y16172D01*
X97703Y16175D01*
X97681Y16181D01*
X97669Y16186D01*
X97658Y16192D01*
X97646Y16199D01*
X97635Y16206D01*
X97624Y16215D01*
X97613Y16226D01*
X97612Y16226D01*
X97610Y16228D01*
X97607Y16231D01*
X97605Y16236D01*
X97600Y16242D01*
X97595Y16249D01*
X97591Y16257D01*
X97585Y16266D01*
X97580Y16276D01*
X97575Y16288D01*
X97570Y16301D01*
X97566Y16314D01*
X97563Y16329D01*
X97560Y16345D01*
X97558Y16361D01*
X97557Y16378D01*
Y16387D01*
X97558Y16394D01*
X97559Y16402D01*
X97560Y16411D01*
X97562Y16422D01*
X97565Y16433D01*
X97571Y16458D01*
X97576Y16471D01*
X97580Y16483D01*
X97587Y16496D01*
X97594Y16508D01*
X97603Y16521D01*
X97613Y16532D01*
X97614Y16533D01*
X97616Y16534D01*
X97618Y16537D01*
X97623Y16541D01*
X97629Y16545D01*
X97635Y16550D01*
X97642Y16555D01*
X97652Y16560D01*
X97661Y16566D01*
X97672Y16570D01*
X97695Y16580D01*
X97709Y16583D01*
X97723Y16586D01*
X97738Y16588D01*
X97752Y16589D01*
X97753D01*
X97755D01*
X97759D01*
X97763Y16588D01*
D02*
G37*
G36*
X179149Y19279D02*
X179075Y19269D01*
X179069Y19279D01*
X179060Y19288D01*
X179053Y19296D01*
X179046Y19303D01*
X179038Y19307D01*
X179033Y19312D01*
X179029Y19314D01*
X179028Y19315D01*
X179016Y19320D01*
X179004Y19325D01*
X178993Y19328D01*
X178982Y19330D01*
X178972Y19331D01*
X178965Y19332D01*
X178948D01*
X178936Y19330D01*
X178917Y19326D01*
X178900Y19319D01*
X178886Y19313D01*
X178874Y19305D01*
X178866Y19299D01*
X178862Y19294D01*
X178860Y19293D01*
Y19292D01*
X178847Y19277D01*
X178837Y19260D01*
X178831Y19243D01*
X178826Y19225D01*
X178824Y19210D01*
X178823Y19204D01*
Y19198D01*
X178822Y19194D01*
Y19190D01*
Y19188D01*
Y19187D01*
Y19174D01*
X178824Y19162D01*
X178828Y19139D01*
X178835Y19120D01*
X178841Y19104D01*
X178849Y19091D01*
X178855Y19081D01*
X178858Y19078D01*
X178860Y19075D01*
X178861Y19074D01*
X178862Y19073D01*
X178869Y19066D01*
X178876Y19059D01*
X178893Y19048D01*
X178909Y19041D01*
X178924Y19036D01*
X178937Y19033D01*
X178948Y19032D01*
X178952Y19031D01*
X178958D01*
X178975Y19032D01*
X178991Y19035D01*
X179005Y19040D01*
X179016Y19046D01*
X179026Y19051D01*
X179033Y19056D01*
X179037Y19059D01*
X179039Y19060D01*
X179050Y19073D01*
X179059Y19087D01*
X179067Y19103D01*
X179072Y19117D01*
X179076Y19131D01*
X179079Y19141D01*
X179080Y19145D01*
X179081Y19148D01*
Y19150D01*
Y19151D01*
X179163Y19145D01*
X179161Y19130D01*
X179158Y19116D01*
X179150Y19090D01*
X179140Y19068D01*
X179134Y19058D01*
X179129Y19049D01*
X179124Y19041D01*
X179119Y19034D01*
X179114Y19028D01*
X179109Y19023D01*
X179106Y19020D01*
X179104Y19016D01*
X179102Y19015D01*
X179101Y19014D01*
X179090Y19006D01*
X179079Y18998D01*
X179067Y18992D01*
X179055Y18986D01*
X179032Y18978D01*
X179009Y18973D01*
X178998Y18970D01*
X178988Y18969D01*
X178980Y18968D01*
X178972Y18967D01*
X178966Y18966D01*
X178958D01*
X178938Y18967D01*
X178920Y18970D01*
X178902Y18973D01*
X178887Y18978D01*
X178872Y18985D01*
X178858Y18991D01*
X178845Y18998D01*
X178834Y19005D01*
X178824Y19012D01*
X178814Y19019D01*
X178807Y19026D01*
X178801Y19032D01*
X178796Y19036D01*
X178792Y19040D01*
X178790Y19043D01*
X178789Y19044D01*
X178780Y19056D01*
X178773Y19069D01*
X178765Y19081D01*
X178760Y19094D01*
X178751Y19119D01*
X178745Y19143D01*
X178743Y19153D01*
X178741Y19163D01*
X178740Y19171D01*
X178739Y19179D01*
X178739Y19185D01*
Y19190D01*
Y19193D01*
Y19194D01*
X178739Y19210D01*
X178741Y19226D01*
X178744Y19242D01*
X178748Y19255D01*
X178752Y19268D01*
X178757Y19281D01*
X178763Y19292D01*
X178767Y19303D01*
X178773Y19312D01*
X178778Y19320D01*
X178783Y19327D01*
X178788Y19333D01*
X178791Y19338D01*
X178794Y19341D01*
X178796Y19342D01*
X178797Y19343D01*
X178808Y19353D01*
X178819Y19363D01*
X178831Y19370D01*
X178843Y19377D01*
X178855Y19383D01*
X178867Y19388D01*
X178889Y19394D01*
X178899Y19397D01*
X178909Y19399D01*
X178917Y19400D01*
X178924Y19401D01*
X178930Y19402D01*
X178950D01*
X178961Y19400D01*
X178984Y19395D01*
X179004Y19389D01*
X179022Y19381D01*
X179037Y19374D01*
X179044Y19370D01*
X179049Y19367D01*
X179054Y19365D01*
X179057Y19363D01*
X179058Y19362D01*
X179059Y19361D01*
X179025Y19534D01*
X178769D01*
Y19609D01*
X179087D01*
X179149Y19279D01*
D02*
G37*
G36*
X179775Y19247D02*
Y19229D01*
X179774Y19211D01*
X179773Y19194D01*
X179771Y19179D01*
X179769Y19165D01*
X179768Y19152D01*
X179765Y19140D01*
X179763Y19129D01*
X179761Y19119D01*
X179758Y19110D01*
X179757Y19103D01*
X179755Y19097D01*
X179753Y19093D01*
X179752Y19089D01*
X179751Y19087D01*
Y19086D01*
X179741Y19066D01*
X179728Y19047D01*
X179715Y19033D01*
X179701Y19020D01*
X179689Y19010D01*
X179679Y19002D01*
X179675Y19000D01*
X179672Y18998D01*
X179671Y18997D01*
X179670D01*
X179646Y18986D01*
X179622Y18979D01*
X179597Y18973D01*
X179574Y18970D01*
X179564Y18969D01*
X179554Y18968D01*
X179545Y18967D01*
X179537D01*
X179531Y18966D01*
X179523D01*
X179489Y18968D01*
X179475Y18970D01*
X179461Y18972D01*
X179447Y18974D01*
X179435Y18977D01*
X179424Y18980D01*
X179413Y18984D01*
X179404Y18987D01*
X179397Y18990D01*
X179389Y18993D01*
X179384Y18996D01*
X179379Y18998D01*
X179377Y18999D01*
X179375Y19001D01*
X179374D01*
X179353Y19015D01*
X179337Y19031D01*
X179324Y19046D01*
X179313Y19060D01*
X179304Y19073D01*
X179299Y19083D01*
X179297Y19087D01*
X179295Y19090D01*
X179294Y19092D01*
Y19093D01*
X179291Y19104D01*
X179287Y19116D01*
X179281Y19141D01*
X179278Y19167D01*
X179275Y19192D01*
X179274Y19203D01*
X179273Y19214D01*
Y19223D01*
X179272Y19231D01*
Y19238D01*
Y19243D01*
Y19246D01*
Y19247D01*
Y19617D01*
X179357D01*
Y19247D01*
Y19226D01*
X179359Y19206D01*
X179361Y19188D01*
X179364Y19171D01*
X179366Y19157D01*
X179370Y19143D01*
X179373Y19131D01*
X179377Y19120D01*
X179380Y19112D01*
X179384Y19104D01*
X179388Y19098D01*
X179390Y19093D01*
X179393Y19089D01*
X179395Y19086D01*
X179396Y19085D01*
X179397Y19084D01*
X179405Y19077D01*
X179414Y19071D01*
X179435Y19060D01*
X179456Y19053D01*
X179478Y19048D01*
X179499Y19045D01*
X179507Y19044D01*
X179515D01*
X179521Y19043D01*
X179530D01*
X179549Y19044D01*
X179567Y19047D01*
X179584Y19049D01*
X179597Y19054D01*
X179608Y19058D01*
X179616Y19060D01*
X179621Y19063D01*
X179622Y19064D01*
X179635Y19072D01*
X179646Y19083D01*
X179656Y19093D01*
X179662Y19102D01*
X179668Y19111D01*
X179672Y19118D01*
X179674Y19122D01*
X179675Y19124D01*
X179678Y19132D01*
X179680Y19141D01*
X179683Y19160D01*
X179686Y19181D01*
X179688Y19201D01*
X179689Y19218D01*
Y19227D01*
X179690Y19233D01*
Y19239D01*
Y19243D01*
Y19246D01*
Y19247D01*
Y19617D01*
X179775D01*
Y19247D01*
D02*
G37*
G36*
X171892Y6908D02*
X171891Y6901D01*
Y6892D01*
X171890Y6873D01*
X171887Y6853D01*
X171884Y6831D01*
X171880Y6810D01*
X171877Y6800D01*
X171874Y6792D01*
Y6791D01*
X171873Y6790D01*
X171870Y6784D01*
X171867Y6776D01*
X171860Y6766D01*
X171852Y6755D01*
X171841Y6743D01*
X171828Y6732D01*
X171813Y6721D01*
X171812D01*
X171811Y6720D01*
X171806Y6716D01*
X171796Y6712D01*
X171784Y6707D01*
X171770Y6702D01*
X171754Y6697D01*
X171736Y6695D01*
X171717Y6694D01*
X171716D01*
X171714D01*
X171710D01*
X171706Y6695D01*
X171699D01*
X171693Y6696D01*
X171677Y6699D01*
X171659Y6705D01*
X171639Y6712D01*
X171620Y6723D01*
X171610Y6731D01*
X171601Y6738D01*
X171600Y6739D01*
X171599Y6740D01*
X171597Y6743D01*
X171594Y6746D01*
X171590Y6751D01*
X171586Y6757D01*
X171582Y6764D01*
X171576Y6771D01*
X171572Y6781D01*
X171567Y6791D01*
X171561Y6802D01*
X171557Y6814D01*
X171553Y6828D01*
X171549Y6842D01*
X171546Y6857D01*
X171543Y6874D01*
X171542Y6872D01*
X171540Y6868D01*
X171537Y6863D01*
X171533Y6856D01*
X171523Y6839D01*
X171516Y6831D01*
X171511Y6823D01*
X171509Y6821D01*
X171504Y6817D01*
X171497Y6809D01*
X171488Y6800D01*
X171475Y6790D01*
X171461Y6778D01*
X171444Y6766D01*
X171426Y6753D01*
X171252Y6643D01*
Y6748D01*
X171385Y6832D01*
X171386D01*
X171388Y6834D01*
X171390Y6836D01*
X171394Y6839D01*
X171404Y6845D01*
X171417Y6854D01*
X171431Y6864D01*
X171446Y6874D01*
X171460Y6884D01*
X171473Y6893D01*
X171474Y6894D01*
X171477Y6897D01*
X171483Y6902D01*
X171489Y6908D01*
X171503Y6922D01*
X171510Y6929D01*
X171515Y6937D01*
X171516Y6938D01*
X171517Y6940D01*
X171519Y6943D01*
X171522Y6949D01*
X171525Y6954D01*
X171527Y6961D01*
X171532Y6976D01*
Y6977D01*
X171533Y6978D01*
Y6982D01*
X171534Y6987D01*
X171535Y6993D01*
Y7001D01*
X171536Y7011D01*
Y7120D01*
X171252D01*
Y7205D01*
X171892D01*
Y6908D01*
D02*
G37*
G36*
Y6298D02*
X171891Y6284D01*
X171890Y6268D01*
X171889Y6252D01*
X171887Y6236D01*
X171885Y6222D01*
Y6220D01*
X171883Y6214D01*
X171881Y6206D01*
X171879Y6194D01*
X171874Y6182D01*
X171868Y6169D01*
X171862Y6156D01*
X171855Y6144D01*
X171854Y6142D01*
X171851Y6138D01*
X171845Y6133D01*
X171839Y6125D01*
X171831Y6117D01*
X171819Y6108D01*
X171807Y6099D01*
X171794Y6092D01*
X171792Y6091D01*
X171787Y6089D01*
X171779Y6085D01*
X171768Y6082D01*
X171755Y6079D01*
X171740Y6075D01*
X171723Y6073D01*
X171706Y6072D01*
X171705D01*
X171702D01*
X171698D01*
X171692Y6073D01*
X171685Y6074D01*
X171677Y6075D01*
X171668Y6077D01*
X171658Y6079D01*
X171636Y6085D01*
X171625Y6089D01*
X171613Y6095D01*
X171601Y6101D01*
X171590Y6108D01*
X171579Y6116D01*
X171568Y6125D01*
X171567Y6126D01*
X171565Y6128D01*
X171562Y6131D01*
X171560Y6135D01*
X171555Y6141D01*
X171550Y6148D01*
X171545Y6157D01*
X171540Y6168D01*
X171535Y6180D01*
X171529Y6194D01*
X171525Y6208D01*
X171521Y6226D01*
X171517Y6244D01*
X171514Y6265D01*
X171512Y6288D01*
X171512Y6312D01*
Y6476D01*
X171252D01*
Y6561D01*
X171892D01*
Y6298D01*
D02*
G37*
G36*
X171733Y5936D02*
X171735Y5934D01*
X171736Y5930D01*
X171739Y5925D01*
X171742Y5920D01*
X171745Y5913D01*
X171755Y5898D01*
X171765Y5879D01*
X171778Y5861D01*
X171793Y5841D01*
X171808Y5822D01*
X171809Y5821D01*
X171810Y5820D01*
X171813Y5817D01*
X171816Y5814D01*
X171825Y5805D01*
X171836Y5794D01*
X171849Y5783D01*
X171864Y5771D01*
X171879Y5761D01*
X171894Y5752D01*
Y5701D01*
X171252D01*
Y5779D01*
X171752D01*
X171751Y5780D01*
X171747Y5785D01*
X171742Y5790D01*
X171735Y5800D01*
X171727Y5810D01*
X171718Y5823D01*
X171708Y5838D01*
X171697Y5854D01*
Y5855D01*
X171696Y5856D01*
X171693Y5862D01*
X171688Y5871D01*
X171683Y5882D01*
X171676Y5895D01*
X171670Y5909D01*
X171663Y5923D01*
X171658Y5937D01*
X171733D01*
Y5936D01*
D02*
G37*
G36*
X402005Y8173D02*
X402007Y8171D01*
X402010Y8168D01*
X402016Y8164D01*
X402022Y8158D01*
X402030Y8151D01*
X402039Y8144D01*
X402050Y8135D01*
X402061Y8127D01*
X402074Y8117D01*
X402089Y8107D01*
X402104Y8097D01*
X402120Y8085D01*
X402138Y8074D01*
X402157Y8063D01*
X402177Y8052D01*
X402178Y8051D01*
X402181Y8049D01*
X402187Y8047D01*
X402195Y8042D01*
X402205Y8037D01*
X402216Y8032D01*
X402229Y8025D01*
X402244Y8019D01*
X402261Y8012D01*
X402277Y8003D01*
X402296Y7996D01*
X402315Y7988D01*
X402355Y7974D01*
X402398Y7960D01*
X402398D01*
X402401Y7959D01*
X402406Y7958D01*
X402411Y7956D01*
X402419Y7954D01*
X402428Y7952D01*
X402438Y7950D01*
X402449Y7948D01*
X402462Y7945D01*
X402476Y7942D01*
X402506Y7938D01*
X402538Y7933D01*
X402573Y7930D01*
Y7850D01*
X402572D01*
X402570D01*
X402566D01*
X402560Y7851D01*
X402553D01*
X402544Y7852D01*
X402533Y7852D01*
X402522Y7853D01*
X402509Y7855D01*
X402496Y7857D01*
X402481Y7860D01*
X402465Y7863D01*
X402448Y7865D01*
X402430Y7869D01*
X402392Y7878D01*
X402391D01*
X402387Y7879D01*
X402382Y7881D01*
X402374Y7884D01*
X402364Y7887D01*
X402353Y7890D01*
X402340Y7894D01*
X402326Y7900D01*
X402311Y7905D01*
X402295Y7911D01*
X402260Y7925D01*
X402223Y7941D01*
X402186Y7960D01*
X402185Y7961D01*
X402181Y7962D01*
X402177Y7965D01*
X402169Y7969D01*
X402161Y7974D01*
X402151Y7980D01*
X402140Y7987D01*
X402128Y7994D01*
X402101Y8012D01*
X402073Y8030D01*
X402044Y8051D01*
X402018Y8073D01*
Y7760D01*
X401942D01*
Y8174D01*
X402004D01*
X402005Y8173D01*
D02*
G37*
G36*
X402573Y7246D02*
X402572D01*
X402569D01*
X402563D01*
X402556Y7247D01*
X402547Y7248D01*
X402538Y7250D01*
X402529Y7252D01*
X402519Y7255D01*
X402518D01*
X402517Y7256D01*
X402511Y7258D01*
X402503Y7262D01*
X402492Y7267D01*
X402479Y7275D01*
X402464Y7284D01*
X402449Y7294D01*
X402434Y7307D01*
X402433D01*
X402432Y7309D01*
X402426Y7313D01*
X402418Y7322D01*
X402406Y7334D01*
X402392Y7348D01*
X402375Y7365D01*
X402357Y7386D01*
X402337Y7410D01*
X402337Y7411D01*
X402334Y7414D01*
X402329Y7420D01*
X402324Y7426D01*
X402316Y7435D01*
X402308Y7445D01*
X402299Y7455D01*
X402288Y7467D01*
X402266Y7490D01*
X402244Y7513D01*
X402233Y7524D01*
X402222Y7534D01*
X402212Y7544D01*
X402202Y7551D01*
X402201D01*
X402200Y7553D01*
X402197Y7555D01*
X402193Y7557D01*
X402183Y7563D01*
X402171Y7570D01*
X402156Y7577D01*
X402141Y7583D01*
X402123Y7587D01*
X402106Y7589D01*
X402105D01*
X402104D01*
X402099Y7588D01*
X402090Y7587D01*
X402080Y7584D01*
X402067Y7581D01*
X402054Y7574D01*
X402041Y7566D01*
X402028Y7555D01*
X402026Y7553D01*
X402022Y7548D01*
X402018Y7542D01*
X402011Y7532D01*
X402006Y7519D01*
X402000Y7504D01*
X401996Y7486D01*
X401995Y7467D01*
Y7461D01*
X401996Y7458D01*
X401997Y7447D01*
X402000Y7434D01*
X402004Y7420D01*
X402010Y7404D01*
X402019Y7389D01*
X402030Y7375D01*
X402031Y7374D01*
X402036Y7370D01*
X402043Y7364D01*
X402055Y7359D01*
X402068Y7352D01*
X402084Y7347D01*
X402103Y7343D01*
X402124Y7341D01*
X402116Y7261D01*
X402115D01*
X402112Y7262D01*
X402107D01*
X402101Y7263D01*
X402093Y7264D01*
X402085Y7266D01*
X402075Y7269D01*
X402065Y7272D01*
X402043Y7279D01*
X402020Y7290D01*
X402009Y7297D01*
X401998Y7305D01*
X401988Y7313D01*
X401979Y7323D01*
X401978Y7324D01*
X401977Y7325D01*
X401974Y7328D01*
X401971Y7333D01*
X401968Y7338D01*
X401964Y7345D01*
X401959Y7352D01*
X401955Y7362D01*
X401950Y7372D01*
X401945Y7383D01*
X401942Y7395D01*
X401938Y7408D01*
X401935Y7422D01*
X401933Y7436D01*
X401932Y7452D01*
X401931Y7469D01*
Y7478D01*
X401932Y7484D01*
X401933Y7492D01*
X401933Y7501D01*
X401935Y7511D01*
X401937Y7521D01*
X401944Y7546D01*
X401953Y7570D01*
X401958Y7582D01*
X401965Y7594D01*
X401973Y7605D01*
X401982Y7615D01*
X401983Y7616D01*
X401984Y7618D01*
X401988Y7619D01*
X401992Y7623D01*
X401996Y7628D01*
X402003Y7632D01*
X402009Y7637D01*
X402018Y7643D01*
X402035Y7652D01*
X402057Y7661D01*
X402068Y7665D01*
X402081Y7667D01*
X402094Y7668D01*
X402108Y7669D01*
X402110D01*
X402115D01*
X402122Y7668D01*
X402132Y7668D01*
X402143Y7666D01*
X402156Y7662D01*
X402170Y7658D01*
X402184Y7653D01*
X402186Y7652D01*
X402190Y7650D01*
X402198Y7646D01*
X402208Y7641D01*
X402219Y7633D01*
X402233Y7624D01*
X402247Y7613D01*
X402263Y7600D01*
X402264Y7598D01*
X402270Y7594D01*
X402275Y7589D01*
X402279Y7584D01*
X402285Y7579D01*
X402292Y7571D01*
X402300Y7564D01*
X402308Y7555D01*
X402317Y7546D01*
X402327Y7534D01*
X402337Y7522D01*
X402349Y7509D01*
X402362Y7495D01*
X402374Y7480D01*
X402375Y7479D01*
X402377Y7477D01*
X402380Y7473D01*
X402384Y7469D01*
X402389Y7463D01*
X402395Y7457D01*
X402407Y7442D01*
X402421Y7426D01*
X402435Y7411D01*
X402447Y7399D01*
X402451Y7393D01*
X402456Y7388D01*
X402457Y7387D01*
X402460Y7385D01*
X402463Y7381D01*
X402469Y7376D01*
X402475Y7372D01*
X402482Y7366D01*
X402497Y7355D01*
Y7670D01*
X402573D01*
Y7246D01*
D02*
G37*
G36*
Y7102D02*
X402440Y7018D01*
X402439D01*
X402437Y7016D01*
X402435Y7014D01*
X402431Y7011D01*
X402421Y7005D01*
X402408Y6996D01*
X402394Y6986D01*
X402379Y6976D01*
X402365Y6966D01*
X402352Y6957D01*
X402351Y6956D01*
X402348Y6953D01*
X402342Y6948D01*
X402336Y6942D01*
X402322Y6928D01*
X402315Y6921D01*
X402310Y6913D01*
X402309Y6912D01*
X402308Y6910D01*
X402306Y6907D01*
X402303Y6901D01*
X402301Y6896D01*
X402298Y6889D01*
X402293Y6874D01*
Y6873D01*
X402292Y6872D01*
Y6868D01*
X402291Y6863D01*
X402290Y6857D01*
Y6849D01*
X402289Y6839D01*
Y6730D01*
X402573D01*
Y6645D01*
X401933D01*
Y6942D01*
X401934Y6949D01*
Y6957D01*
X401935Y6977D01*
X401938Y6997D01*
X401941Y7019D01*
X401945Y7040D01*
X401948Y7050D01*
X401951Y7058D01*
Y7059D01*
X401952Y7060D01*
X401955Y7066D01*
X401958Y7074D01*
X401965Y7084D01*
X401973Y7095D01*
X401984Y7107D01*
X401997Y7118D01*
X402012Y7129D01*
X402013D01*
X402014Y7130D01*
X402019Y7134D01*
X402029Y7138D01*
X402041Y7143D01*
X402055Y7148D01*
X402071Y7153D01*
X402089Y7155D01*
X402108Y7156D01*
X402109D01*
X402111D01*
X402115D01*
X402119Y7155D01*
X402126D01*
X402132Y7154D01*
X402148Y7151D01*
X402166Y7145D01*
X402186Y7138D01*
X402205Y7127D01*
X402215Y7119D01*
X402224Y7112D01*
X402225Y7111D01*
X402226Y7110D01*
X402228Y7107D01*
X402231Y7104D01*
X402235Y7099D01*
X402239Y7093D01*
X402243Y7086D01*
X402249Y7079D01*
X402253Y7069D01*
X402258Y7059D01*
X402264Y7048D01*
X402268Y7036D01*
X402272Y7022D01*
X402276Y7008D01*
X402279Y6993D01*
X402282Y6976D01*
X402283Y6978D01*
X402285Y6982D01*
X402288Y6987D01*
X402292Y6994D01*
X402302Y7011D01*
X402309Y7019D01*
X402314Y7027D01*
X402316Y7029D01*
X402321Y7033D01*
X402328Y7041D01*
X402337Y7050D01*
X402350Y7060D01*
X402364Y7072D01*
X402381Y7084D01*
X402399Y7097D01*
X402573Y7207D01*
Y7102D01*
D02*
G37*
G36*
X197895Y18879D02*
X197896Y18877D01*
X197900Y18874D01*
X197906Y18870D01*
X197912Y18864D01*
X197920Y18857D01*
X197929Y18850D01*
X197940Y18841D01*
X197951Y18833D01*
X197964Y18823D01*
X197979Y18813D01*
X197994Y18802D01*
X198010Y18791D01*
X198028Y18780D01*
X198047Y18769D01*
X198067Y18758D01*
X198068Y18757D01*
X198071Y18755D01*
X198077Y18753D01*
X198085Y18748D01*
X198095Y18743D01*
X198106Y18738D01*
X198119Y18731D01*
X198134Y18725D01*
X198151Y18717D01*
X198167Y18709D01*
X198186Y18702D01*
X198205Y18694D01*
X198245Y18680D01*
X198288Y18666D01*
X198288D01*
X198291Y18665D01*
X198296Y18664D01*
X198301Y18662D01*
X198309Y18660D01*
X198318Y18658D01*
X198328Y18655D01*
X198339Y18654D01*
X198352Y18651D01*
X198366Y18648D01*
X198396Y18643D01*
X198428Y18639D01*
X198463Y18636D01*
Y18556D01*
X198462D01*
X198460D01*
X198456D01*
X198450Y18557D01*
X198443D01*
X198434Y18557D01*
X198423Y18558D01*
X198412Y18559D01*
X198399Y18561D01*
X198387Y18563D01*
X198371Y18566D01*
X198355Y18569D01*
X198338Y18571D01*
X198320Y18575D01*
X198282Y18584D01*
X198281D01*
X198277Y18585D01*
X198272Y18587D01*
X198264Y18590D01*
X198254Y18593D01*
X198243Y18596D01*
X198230Y18600D01*
X198216Y18606D01*
X198201Y18611D01*
X198185Y18617D01*
X198150Y18631D01*
X198113Y18647D01*
X198076Y18666D01*
X198075Y18667D01*
X198071Y18668D01*
X198067Y18671D01*
X198059Y18675D01*
X198051Y18680D01*
X198041Y18686D01*
X198030Y18692D01*
X198018Y18700D01*
X197991Y18717D01*
X197963Y18736D01*
X197934Y18757D01*
X197908Y18779D01*
Y18466D01*
X197832D01*
Y18880D01*
X197894D01*
X197895Y18879D01*
D02*
G37*
G36*
X198463Y18180D02*
X197963D01*
X197964Y18179D01*
X197968Y18175D01*
X197973Y18169D01*
X197980Y18160D01*
X197988Y18150D01*
X197997Y18137D01*
X198007Y18122D01*
X198018Y18105D01*
Y18104D01*
X198019Y18104D01*
X198022Y18098D01*
X198027Y18089D01*
X198032Y18078D01*
X198039Y18065D01*
X198045Y18051D01*
X198052Y18037D01*
X198057Y18023D01*
X197982D01*
Y18024D01*
X197980Y18026D01*
X197979Y18030D01*
X197976Y18034D01*
X197973Y18040D01*
X197970Y18046D01*
X197960Y18062D01*
X197950Y18080D01*
X197937Y18099D01*
X197922Y18118D01*
X197907Y18138D01*
X197906Y18139D01*
X197905Y18140D01*
X197902Y18142D01*
X197899Y18146D01*
X197890Y18154D01*
X197879Y18165D01*
X197866Y18177D01*
X197851Y18189D01*
X197836Y18199D01*
X197821Y18208D01*
Y18259D01*
X198463D01*
Y18180D01*
D02*
G37*
G36*
X198159Y17878D02*
X198166D01*
X198184Y17877D01*
X198204Y17874D01*
X198226Y17871D01*
X198248Y17867D01*
X198270Y17861D01*
X198271D01*
X198273Y17860D01*
X198276Y17859D01*
X198279Y17859D01*
X198289Y17855D01*
X198302Y17849D01*
X198317Y17844D01*
X198332Y17836D01*
X198348Y17827D01*
X198362Y17818D01*
X198364Y17817D01*
X198369Y17813D01*
X198375Y17808D01*
X198384Y17800D01*
X198393Y17792D01*
X198402Y17782D01*
X198412Y17772D01*
X198421Y17760D01*
X198422Y17758D01*
X198424Y17754D01*
X198428Y17748D01*
X198433Y17738D01*
X198438Y17727D01*
X198443Y17714D01*
X198448Y17699D01*
X198453Y17683D01*
Y17681D01*
X198454Y17678D01*
X198455Y17675D01*
X198456Y17666D01*
X198458Y17653D01*
X198460Y17638D01*
X198461Y17621D01*
X198462Y17601D01*
X198463Y17580D01*
Y17350D01*
X197823D01*
Y17596D01*
X197824Y17613D01*
X197825Y17631D01*
X197827Y17650D01*
X197830Y17668D01*
X197833Y17684D01*
Y17685D01*
X197834Y17687D01*
Y17689D01*
X197835Y17693D01*
X197838Y17703D01*
X197843Y17716D01*
X197849Y17731D01*
X197858Y17747D01*
X197867Y17762D01*
X197879Y17777D01*
X197880Y17778D01*
X197881Y17779D01*
X197884Y17782D01*
X197886Y17785D01*
X197896Y17795D01*
X197909Y17806D01*
X197924Y17818D01*
X197943Y17831D01*
X197964Y17843D01*
X197988Y17853D01*
X197989D01*
X197991Y17854D01*
X197994Y17856D01*
X198000Y17857D01*
X198007Y17859D01*
X198014Y17861D01*
X198022Y17863D01*
X198032Y17866D01*
X198043Y17869D01*
X198055Y17871D01*
X198080Y17875D01*
X198109Y17878D01*
X198141Y17879D01*
X198141D01*
X198143D01*
X198148D01*
X198153D01*
X198159Y17878D01*
D02*
G37*
G36*
X419257Y25268D02*
X419256D01*
X419252D01*
X419247D01*
X419239Y25269D01*
X419231Y25270D01*
X419222Y25272D01*
X419213Y25274D01*
X419202Y25277D01*
X419202D01*
X419201Y25278D01*
X419195Y25280D01*
X419187Y25284D01*
X419176Y25289D01*
X419163Y25297D01*
X419148Y25306D01*
X419133Y25316D01*
X419117Y25329D01*
X419116D01*
X419116Y25331D01*
X419110Y25336D01*
X419102Y25344D01*
X419090Y25356D01*
X419076Y25370D01*
X419059Y25387D01*
X419041Y25409D01*
X419021Y25432D01*
X419020Y25433D01*
X419018Y25436D01*
X419013Y25442D01*
X419007Y25448D01*
X419000Y25457D01*
X418992Y25467D01*
X418982Y25477D01*
X418972Y25489D01*
X418950Y25512D01*
X418928Y25535D01*
X418917Y25546D01*
X418906Y25557D01*
X418895Y25566D01*
X418885Y25573D01*
X418884D01*
X418883Y25575D01*
X418881Y25577D01*
X418877Y25579D01*
X418867Y25585D01*
X418855Y25593D01*
X418840Y25599D01*
X418824Y25606D01*
X418807Y25609D01*
X418790Y25611D01*
X418789D01*
X418788D01*
X418783Y25610D01*
X418773Y25609D01*
X418763Y25606D01*
X418750Y25603D01*
X418737Y25596D01*
X418724Y25588D01*
X418712Y25577D01*
X418710Y25575D01*
X418706Y25570D01*
X418701Y25564D01*
X418695Y25554D01*
X418689Y25541D01*
X418684Y25526D01*
X418680Y25508D01*
X418679Y25489D01*
Y25483D01*
X418680Y25480D01*
X418681Y25469D01*
X418684Y25456D01*
X418687Y25442D01*
X418694Y25426D01*
X418702Y25411D01*
X418713Y25397D01*
X418715Y25396D01*
X418720Y25392D01*
X418727Y25386D01*
X418738Y25381D01*
X418751Y25374D01*
X418768Y25369D01*
X418786Y25365D01*
X418808Y25363D01*
X418799Y25283D01*
X418798D01*
X418796Y25284D01*
X418791D01*
X418785Y25285D01*
X418777Y25287D01*
X418769Y25288D01*
X418759Y25291D01*
X418749Y25294D01*
X418726Y25301D01*
X418704Y25312D01*
X418693Y25319D01*
X418682Y25327D01*
X418672Y25336D01*
X418663Y25345D01*
X418662Y25346D01*
X418661Y25348D01*
X418658Y25350D01*
X418655Y25355D01*
X418651Y25361D01*
X418648Y25367D01*
X418643Y25374D01*
X418638Y25384D01*
X418634Y25394D01*
X418629Y25405D01*
X418626Y25417D01*
X418622Y25430D01*
X418619Y25444D01*
X418616Y25459D01*
X418615Y25474D01*
X418614Y25491D01*
Y25500D01*
X418615Y25507D01*
X418616Y25514D01*
X418617Y25523D01*
X418619Y25533D01*
X418621Y25544D01*
X418627Y25568D01*
X418637Y25592D01*
X418642Y25604D01*
X418649Y25616D01*
X418657Y25627D01*
X418666Y25637D01*
X418667Y25638D01*
X418668Y25640D01*
X418672Y25642D01*
X418675Y25645D01*
X418680Y25650D01*
X418687Y25655D01*
X418693Y25659D01*
X418701Y25665D01*
X418719Y25674D01*
X418741Y25683D01*
X418752Y25687D01*
X418765Y25689D01*
X418778Y25691D01*
X418792Y25691D01*
X418794D01*
X418798D01*
X418806Y25691D01*
X418816Y25690D01*
X418827Y25688D01*
X418840Y25684D01*
X418854Y25680D01*
X418868Y25675D01*
X418870Y25674D01*
X418874Y25672D01*
X418882Y25668D01*
X418892Y25663D01*
X418903Y25655D01*
X418917Y25646D01*
X418931Y25635D01*
X418946Y25622D01*
X418948Y25620D01*
X418954Y25616D01*
X418958Y25611D01*
X418963Y25606D01*
X418969Y25601D01*
X418976Y25594D01*
X418983Y25586D01*
X418992Y25577D01*
X419001Y25568D01*
X419011Y25557D01*
X419021Y25545D01*
X419033Y25532D01*
X419045Y25517D01*
X419058Y25502D01*
X419059Y25501D01*
X419061Y25499D01*
X419064Y25496D01*
X419067Y25491D01*
X419073Y25485D01*
X419079Y25479D01*
X419091Y25464D01*
X419104Y25448D01*
X419118Y25434D01*
X419130Y25421D01*
X419135Y25415D01*
X419140Y25410D01*
X419141Y25410D01*
X419143Y25407D01*
X419147Y25403D01*
X419153Y25398D01*
X419159Y25394D01*
X419165Y25388D01*
X419181Y25377D01*
Y25692D01*
X419257D01*
Y25268D01*
D02*
G37*
G36*
Y24999D02*
X418757D01*
X418758Y24998D01*
X418761Y24993D01*
X418767Y24988D01*
X418773Y24979D01*
X418782Y24969D01*
X418791Y24956D01*
X418801Y24941D01*
X418811Y24924D01*
Y24923D01*
X418812Y24922D01*
X418816Y24917D01*
X418821Y24907D01*
X418826Y24896D01*
X418833Y24883D01*
X418839Y24870D01*
X418846Y24856D01*
X418851Y24842D01*
X418775D01*
Y24843D01*
X418773Y24845D01*
X418773Y24848D01*
X418770Y24853D01*
X418767Y24858D01*
X418763Y24865D01*
X418754Y24881D01*
X418744Y24899D01*
X418731Y24918D01*
X418716Y24937D01*
X418700Y24956D01*
X418699Y24957D01*
X418699Y24958D01*
X418696Y24961D01*
X418693Y24965D01*
X418684Y24973D01*
X418673Y24984D01*
X418660Y24995D01*
X418645Y25007D01*
X418630Y25017D01*
X418614Y25027D01*
Y25078D01*
X419257D01*
Y24999D01*
D02*
G37*
G36*
X418953Y24697D02*
X418960D01*
X418978Y24696D01*
X418998Y24693D01*
X419019Y24690D01*
X419042Y24686D01*
X419064Y24680D01*
X419065D01*
X419067Y24679D01*
X419069Y24678D01*
X419073Y24677D01*
X419083Y24674D01*
X419096Y24668D01*
X419111Y24662D01*
X419126Y24655D01*
X419141Y24646D01*
X419156Y24637D01*
X419158Y24636D01*
X419163Y24632D01*
X419169Y24626D01*
X419177Y24619D01*
X419187Y24611D01*
X419196Y24601D01*
X419206Y24590D01*
X419214Y24578D01*
X419215Y24576D01*
X419218Y24573D01*
X419222Y24566D01*
X419227Y24557D01*
X419232Y24546D01*
X419237Y24533D01*
X419242Y24518D01*
X419247Y24502D01*
Y24500D01*
X419248Y24497D01*
X419249Y24494D01*
X419250Y24485D01*
X419251Y24472D01*
X419253Y24457D01*
X419255Y24440D01*
X419256Y24420D01*
X419257Y24399D01*
Y24169D01*
X418617D01*
Y24415D01*
X418618Y24431D01*
X418619Y24450D01*
X418621Y24468D01*
X418624Y24487D01*
X418626Y24503D01*
Y24503D01*
X418627Y24505D01*
Y24508D01*
X418629Y24512D01*
X418632Y24522D01*
X418637Y24535D01*
X418643Y24550D01*
X418651Y24565D01*
X418661Y24581D01*
X418673Y24596D01*
X418674Y24597D01*
X418675Y24598D01*
X418677Y24601D01*
X418680Y24604D01*
X418689Y24613D01*
X418702Y24625D01*
X418718Y24637D01*
X418736Y24650D01*
X418758Y24662D01*
X418782Y24672D01*
X418783D01*
X418785Y24673D01*
X418788Y24674D01*
X418794Y24675D01*
X418800Y24678D01*
X418808Y24680D01*
X418816Y24682D01*
X418826Y24685D01*
X418836Y24687D01*
X418848Y24689D01*
X418874Y24694D01*
X418903Y24697D01*
X418934Y24698D01*
X418935D01*
X418937D01*
X418942D01*
X418946D01*
X418953Y24697D01*
D02*
G37*
G36*
X95784Y17478D02*
X95783Y17461D01*
X95782Y17443D01*
X95780Y17424D01*
X95778Y17406D01*
X95775Y17390D01*
Y17389D01*
X95774Y17387D01*
Y17384D01*
X95772Y17381D01*
X95769Y17371D01*
X95765Y17358D01*
X95758Y17343D01*
X95750Y17327D01*
X95741Y17311D01*
X95729Y17297D01*
X95728Y17296D01*
X95727Y17295D01*
X95724Y17292D01*
X95721Y17288D01*
X95712Y17279D01*
X95699Y17268D01*
X95683Y17256D01*
X95665Y17243D01*
X95644Y17231D01*
X95620Y17221D01*
X95619D01*
X95617Y17220D01*
X95613Y17218D01*
X95608Y17217D01*
X95601Y17214D01*
X95594Y17213D01*
X95585Y17211D01*
X95575Y17208D01*
X95565Y17205D01*
X95553Y17203D01*
X95527Y17199D01*
X95498Y17196D01*
X95467Y17195D01*
X95466D01*
X95464D01*
X95460D01*
X95455D01*
X95449Y17196D01*
X95441D01*
X95424Y17197D01*
X95403Y17200D01*
X95382Y17202D01*
X95360Y17207D01*
X95338Y17213D01*
X95337D01*
X95335Y17213D01*
X95332Y17214D01*
X95328Y17215D01*
X95318Y17219D01*
X95305Y17225D01*
X95290Y17230D01*
X95276Y17237D01*
X95260Y17247D01*
X95245Y17256D01*
X95243Y17257D01*
X95239Y17261D01*
X95232Y17266D01*
X95224Y17274D01*
X95215Y17282D01*
X95205Y17292D01*
X95195Y17302D01*
X95187Y17314D01*
X95186Y17316D01*
X95183Y17320D01*
X95179Y17326D01*
X95175Y17335D01*
X95169Y17347D01*
X95165Y17360D01*
X95159Y17374D01*
X95155Y17391D01*
Y17393D01*
X95154Y17396D01*
X95153Y17398D01*
X95152Y17408D01*
X95150Y17421D01*
X95148Y17435D01*
X95146Y17453D01*
X95145Y17472D01*
X95144Y17494D01*
Y17724D01*
X95784D01*
Y17478D01*
D02*
G37*
G36*
X95162Y17121D02*
X95170Y17120D01*
X95179Y17118D01*
X95189Y17116D01*
X95199Y17113D01*
X95200D01*
X95201Y17112D01*
X95206Y17110D01*
X95215Y17106D01*
X95226Y17101D01*
X95239Y17093D01*
X95253Y17084D01*
X95268Y17074D01*
X95284Y17061D01*
X95285D01*
X95286Y17059D01*
X95291Y17054D01*
X95300Y17046D01*
X95312Y17034D01*
X95326Y17020D01*
X95342Y17003D01*
X95361Y16981D01*
X95380Y16958D01*
X95381Y16957D01*
X95384Y16954D01*
X95388Y16948D01*
X95394Y16942D01*
X95401Y16933D01*
X95410Y16923D01*
X95419Y16913D01*
X95429Y16901D01*
X95451Y16878D01*
X95474Y16855D01*
X95485Y16844D01*
X95496Y16833D01*
X95506Y16824D01*
X95516Y16817D01*
X95517D01*
X95518Y16815D01*
X95521Y16813D01*
X95524Y16811D01*
X95535Y16805D01*
X95547Y16797D01*
X95561Y16791D01*
X95577Y16784D01*
X95595Y16781D01*
X95611Y16779D01*
X95612D01*
X95613D01*
X95619Y16780D01*
X95628Y16781D01*
X95638Y16784D01*
X95651Y16787D01*
X95664Y16794D01*
X95677Y16802D01*
X95690Y16813D01*
X95692Y16815D01*
X95695Y16820D01*
X95700Y16826D01*
X95706Y16836D01*
X95712Y16849D01*
X95718Y16864D01*
X95721Y16882D01*
X95722Y16901D01*
Y16906D01*
X95721Y16910D01*
X95720Y16921D01*
X95718Y16934D01*
X95714Y16948D01*
X95707Y16964D01*
X95699Y16979D01*
X95688Y16992D01*
X95686Y16994D01*
X95682Y16998D01*
X95674Y17004D01*
X95663Y17009D01*
X95650Y17016D01*
X95633Y17021D01*
X95615Y17025D01*
X95594Y17027D01*
X95602Y17107D01*
X95603D01*
X95606Y17106D01*
X95610D01*
X95617Y17105D01*
X95624Y17103D01*
X95633Y17102D01*
X95643Y17099D01*
X95653Y17096D01*
X95675Y17089D01*
X95697Y17078D01*
X95708Y17071D01*
X95719Y17063D01*
X95730Y17054D01*
X95739Y17045D01*
X95740Y17044D01*
X95741Y17042D01*
X95743Y17040D01*
X95746Y17035D01*
X95750Y17029D01*
X95754Y17023D01*
X95758Y17016D01*
X95763Y17006D01*
X95768Y16996D01*
X95772Y16985D01*
X95776Y16973D01*
X95780Y16960D01*
X95782Y16946D01*
X95785Y16931D01*
X95786Y16916D01*
X95787Y16899D01*
Y16890D01*
X95786Y16883D01*
X95785Y16876D01*
X95784Y16867D01*
X95782Y16857D01*
X95780Y16846D01*
X95774Y16822D01*
X95765Y16798D01*
X95759Y16786D01*
X95753Y16774D01*
X95744Y16763D01*
X95735Y16753D01*
X95734Y16752D01*
X95733Y16750D01*
X95730Y16748D01*
X95726Y16745D01*
X95721Y16740D01*
X95715Y16735D01*
X95708Y16731D01*
X95700Y16725D01*
X95682Y16716D01*
X95660Y16707D01*
X95649Y16703D01*
X95636Y16701D01*
X95623Y16699D01*
X95609Y16698D01*
X95608D01*
X95603D01*
X95596Y16699D01*
X95585Y16700D01*
X95574Y16702D01*
X95561Y16706D01*
X95547Y16710D01*
X95534Y16715D01*
X95532Y16716D01*
X95527Y16718D01*
X95520Y16722D01*
X95510Y16727D01*
X95498Y16735D01*
X95485Y16744D01*
X95471Y16755D01*
X95455Y16768D01*
X95453Y16770D01*
X95448Y16774D01*
X95443Y16779D01*
X95438Y16784D01*
X95433Y16789D01*
X95425Y16796D01*
X95418Y16804D01*
X95410Y16813D01*
X95400Y16822D01*
X95390Y16833D01*
X95380Y16845D01*
X95368Y16858D01*
X95356Y16873D01*
X95343Y16888D01*
X95342Y16889D01*
X95340Y16891D01*
X95338Y16894D01*
X95334Y16899D01*
X95328Y16905D01*
X95323Y16911D01*
X95311Y16926D01*
X95297Y16942D01*
X95283Y16956D01*
X95271Y16969D01*
X95266Y16975D01*
X95262Y16980D01*
X95261Y16980D01*
X95258Y16983D01*
X95254Y16987D01*
X95249Y16992D01*
X95242Y16996D01*
X95236Y17002D01*
X95220Y17013D01*
Y16698D01*
X95144D01*
Y17122D01*
X95145D01*
X95149D01*
X95155D01*
X95162Y17121D01*
D02*
G37*
G36*
X95626Y16552D02*
X95628Y16551D01*
X95629Y16547D01*
X95632Y16542D01*
X95634Y16537D01*
X95638Y16530D01*
X95647Y16514D01*
X95657Y16496D01*
X95670Y16478D01*
X95685Y16458D01*
X95701Y16439D01*
X95702Y16438D01*
X95703Y16437D01*
X95706Y16434D01*
X95708Y16430D01*
X95718Y16422D01*
X95729Y16411D01*
X95742Y16400D01*
X95756Y16388D01*
X95771Y16378D01*
X95787Y16368D01*
Y16318D01*
X95144D01*
Y16396D01*
X95645D01*
X95644Y16397D01*
X95640Y16402D01*
X95634Y16407D01*
X95628Y16416D01*
X95620Y16427D01*
X95610Y16440D01*
X95600Y16454D01*
X95590Y16471D01*
Y16472D01*
X95589Y16473D01*
X95585Y16478D01*
X95581Y16488D01*
X95575Y16499D01*
X95569Y16512D01*
X95562Y16526D01*
X95556Y16539D01*
X95550Y16553D01*
X95626D01*
Y16552D01*
D02*
G37*
G36*
X112266Y34187D02*
X112273D01*
X112280Y34186D01*
X112298Y34183D01*
X112317Y34178D01*
X112337Y34171D01*
X112358Y34161D01*
X112368Y34154D01*
X112377Y34147D01*
X112378Y34146D01*
X112379Y34145D01*
X112382Y34142D01*
X112384Y34139D01*
X112388Y34135D01*
X112393Y34129D01*
X112402Y34116D01*
X112411Y34099D01*
X112421Y34079D01*
X112428Y34056D01*
X112434Y34029D01*
X112358Y34023D01*
Y34024D01*
X112357Y34026D01*
Y34027D01*
X112356Y34031D01*
X112353Y34041D01*
X112349Y34052D01*
X112345Y34065D01*
X112338Y34078D01*
X112331Y34090D01*
X112322Y34100D01*
X112321Y34101D01*
X112317Y34104D01*
X112311Y34108D01*
X112303Y34112D01*
X112293Y34116D01*
X112281Y34120D01*
X112267Y34123D01*
X112252Y34124D01*
X112246D01*
X112239Y34123D01*
X112231Y34122D01*
X112221Y34120D01*
X112211Y34117D01*
X112200Y34113D01*
X112189Y34108D01*
X112188Y34107D01*
X112185Y34105D01*
X112179Y34101D01*
X112174Y34096D01*
X112166Y34089D01*
X112159Y34082D01*
X112152Y34074D01*
X112144Y34063D01*
X112143Y34062D01*
X112141Y34058D01*
X112138Y34051D01*
X112134Y34043D01*
X112129Y34032D01*
X112125Y34019D01*
X112120Y34004D01*
X112115Y33988D01*
Y33987D01*
X112115Y33986D01*
Y33983D01*
X112114Y33979D01*
X112112Y33970D01*
X112109Y33958D01*
X112107Y33943D01*
X112105Y33928D01*
X112104Y33910D01*
X112103Y33891D01*
Y33891D01*
Y33888D01*
Y33883D01*
Y33876D01*
X112104Y33878D01*
X112108Y33882D01*
X112114Y33889D01*
X112120Y33898D01*
X112129Y33907D01*
X112140Y33917D01*
X112153Y33928D01*
X112168Y33937D01*
X112170Y33938D01*
X112176Y33940D01*
X112184Y33944D01*
X112194Y33948D01*
X112208Y33952D01*
X112223Y33956D01*
X112239Y33959D01*
X112257Y33960D01*
X112264D01*
X112270Y33959D01*
X112277Y33958D01*
X112285Y33957D01*
X112294Y33955D01*
X112303Y33952D01*
X112324Y33946D01*
X112336Y33941D01*
X112347Y33936D01*
X112359Y33929D01*
X112370Y33921D01*
X112381Y33913D01*
X112391Y33903D01*
X112392Y33902D01*
X112394Y33900D01*
X112396Y33897D01*
X112399Y33892D01*
X112404Y33886D01*
X112409Y33879D01*
X112413Y33871D01*
X112418Y33862D01*
X112423Y33852D01*
X112428Y33841D01*
X112433Y33828D01*
X112437Y33815D01*
X112441Y33800D01*
X112443Y33784D01*
X112445Y33768D01*
X112446Y33751D01*
Y33750D01*
Y33746D01*
Y33742D01*
X112445Y33735D01*
X112444Y33727D01*
X112443Y33717D01*
X112441Y33707D01*
X112438Y33695D01*
X112432Y33670D01*
X112427Y33658D01*
X112421Y33644D01*
X112415Y33631D01*
X112407Y33619D01*
X112398Y33606D01*
X112388Y33595D01*
X112387Y33594D01*
X112385Y33592D01*
X112383Y33589D01*
X112378Y33585D01*
X112372Y33581D01*
X112365Y33575D01*
X112358Y33571D01*
X112348Y33564D01*
X112339Y33559D01*
X112328Y33554D01*
X112303Y33544D01*
X112290Y33540D01*
X112275Y33537D01*
X112261Y33536D01*
X112245Y33535D01*
X112238D01*
X112234Y33536D01*
X112229D01*
X112223Y33536D01*
X112207Y33539D01*
X112189Y33543D01*
X112170Y33549D01*
X112151Y33558D01*
X112131Y33569D01*
X112130D01*
X112129Y33571D01*
X112127Y33572D01*
X112123Y33575D01*
X112114Y33583D01*
X112102Y33593D01*
X112090Y33607D01*
X112076Y33623D01*
X112064Y33643D01*
X112053Y33665D01*
Y33666D01*
X112052Y33668D01*
X112050Y33671D01*
X112048Y33676D01*
X112046Y33683D01*
X112043Y33691D01*
X112041Y33700D01*
X112039Y33710D01*
X112036Y33722D01*
X112033Y33736D01*
X112031Y33751D01*
X112029Y33767D01*
X112028Y33784D01*
X112026Y33803D01*
X112025Y33823D01*
Y33844D01*
Y33845D01*
Y33850D01*
Y33856D01*
Y33865D01*
X112026Y33875D01*
Y33887D01*
X112027Y33901D01*
X112029Y33915D01*
X112031Y33946D01*
X112036Y33979D01*
X112042Y34011D01*
X112047Y34026D01*
X112052Y34040D01*
Y34041D01*
X112053Y34043D01*
X112054Y34047D01*
X112056Y34052D01*
X112059Y34058D01*
X112063Y34065D01*
X112072Y34081D01*
X112083Y34099D01*
X112096Y34117D01*
X112113Y34135D01*
X112131Y34150D01*
X112132D01*
X112134Y34152D01*
X112137Y34154D01*
X112140Y34156D01*
X112146Y34159D01*
X112152Y34162D01*
X112159Y34166D01*
X112166Y34169D01*
X112184Y34176D01*
X112205Y34183D01*
X112228Y34186D01*
X112254Y34188D01*
X112262D01*
X112266Y34187D01*
D02*
G37*
G36*
X113555Y33537D02*
X113258D01*
X113251Y33538D01*
X113242D01*
X113223Y33539D01*
X113203Y33542D01*
X113181Y33545D01*
X113160Y33549D01*
X113150Y33552D01*
X113142Y33555D01*
X113141D01*
X113140Y33556D01*
X113134Y33559D01*
X113126Y33562D01*
X113116Y33569D01*
X113105Y33577D01*
X113093Y33588D01*
X113082Y33601D01*
X113071Y33616D01*
Y33617D01*
X113070Y33618D01*
X113066Y33623D01*
X113062Y33633D01*
X113057Y33645D01*
X113052Y33658D01*
X113047Y33675D01*
X113045Y33693D01*
X113044Y33712D01*
Y33713D01*
Y33715D01*
Y33719D01*
X113045Y33723D01*
Y33730D01*
X113046Y33736D01*
X113049Y33752D01*
X113055Y33770D01*
X113062Y33790D01*
X113073Y33809D01*
X113081Y33818D01*
X113088Y33828D01*
X113089Y33829D01*
X113090Y33830D01*
X113093Y33832D01*
X113096Y33835D01*
X113101Y33839D01*
X113107Y33842D01*
X113114Y33847D01*
X113121Y33853D01*
X113131Y33857D01*
X113141Y33862D01*
X113152Y33867D01*
X113164Y33872D01*
X113178Y33876D01*
X113192Y33880D01*
X113207Y33883D01*
X113224Y33886D01*
X113222Y33887D01*
X113218Y33889D01*
X113213Y33892D01*
X113206Y33896D01*
X113189Y33906D01*
X113181Y33913D01*
X113173Y33918D01*
X113171Y33920D01*
X113167Y33925D01*
X113159Y33932D01*
X113150Y33941D01*
X113140Y33954D01*
X113128Y33968D01*
X113116Y33985D01*
X113103Y34003D01*
X112993Y34177D01*
X113098D01*
X113182Y34044D01*
Y34043D01*
X113184Y34041D01*
X113186Y34038D01*
X113189Y34035D01*
X113195Y34025D01*
X113204Y34012D01*
X113214Y33998D01*
X113224Y33983D01*
X113234Y33969D01*
X113243Y33956D01*
X113244Y33955D01*
X113247Y33952D01*
X113252Y33946D01*
X113258Y33940D01*
X113272Y33926D01*
X113279Y33919D01*
X113287Y33914D01*
X113288Y33913D01*
X113290Y33912D01*
X113293Y33910D01*
X113299Y33907D01*
X113304Y33904D01*
X113311Y33902D01*
X113326Y33897D01*
X113327D01*
X113328Y33896D01*
X113332D01*
X113337Y33895D01*
X113343Y33894D01*
X113351D01*
X113361Y33893D01*
X113470D01*
Y34177D01*
X113555D01*
Y33537D01*
D02*
G37*
G36*
X112726Y33677D02*
X112727Y33678D01*
X112731Y33682D01*
X112737Y33687D01*
X112746Y33694D01*
X112756Y33702D01*
X112769Y33711D01*
X112784Y33721D01*
X112801Y33732D01*
X112801D01*
X112802Y33732D01*
X112808Y33736D01*
X112817Y33741D01*
X112828Y33746D01*
X112841Y33753D01*
X112855Y33759D01*
X112869Y33766D01*
X112883Y33771D01*
Y33695D01*
X112882D01*
X112880Y33694D01*
X112876Y33693D01*
X112872Y33690D01*
X112866Y33687D01*
X112860Y33683D01*
X112844Y33674D01*
X112826Y33664D01*
X112807Y33651D01*
X112788Y33636D01*
X112768Y33621D01*
X112767Y33620D01*
X112766Y33619D01*
X112764Y33616D01*
X112760Y33613D01*
X112752Y33604D01*
X112740Y33593D01*
X112729Y33580D01*
X112717Y33565D01*
X112707Y33550D01*
X112698Y33535D01*
X112647D01*
Y34177D01*
X112726D01*
Y33677D01*
D02*
G37*
G36*
X108444Y33548D02*
X108147D01*
X108140Y33549D01*
X108132D01*
X108112Y33550D01*
X108092Y33553D01*
X108070Y33556D01*
X108049Y33560D01*
X108039Y33563D01*
X108031Y33566D01*
X108030D01*
X108029Y33567D01*
X108023Y33570D01*
X108015Y33573D01*
X108005Y33580D01*
X107994Y33588D01*
X107982Y33599D01*
X107971Y33612D01*
X107960Y33627D01*
Y33628D01*
X107959Y33629D01*
X107955Y33634D01*
X107951Y33644D01*
X107946Y33656D01*
X107941Y33670D01*
X107936Y33686D01*
X107934Y33704D01*
X107933Y33723D01*
Y33724D01*
Y33726D01*
Y33730D01*
X107934Y33734D01*
Y33741D01*
X107935Y33747D01*
X107938Y33763D01*
X107944Y33781D01*
X107951Y33801D01*
X107962Y33820D01*
X107970Y33830D01*
X107977Y33839D01*
X107978Y33840D01*
X107979Y33841D01*
X107982Y33843D01*
X107985Y33846D01*
X107990Y33850D01*
X107996Y33854D01*
X108003Y33858D01*
X108010Y33864D01*
X108020Y33868D01*
X108030Y33873D01*
X108041Y33879D01*
X108053Y33883D01*
X108067Y33887D01*
X108081Y33891D01*
X108096Y33894D01*
X108113Y33897D01*
X108111Y33898D01*
X108107Y33900D01*
X108102Y33903D01*
X108095Y33907D01*
X108078Y33917D01*
X108070Y33924D01*
X108062Y33929D01*
X108060Y33931D01*
X108056Y33936D01*
X108048Y33943D01*
X108039Y33952D01*
X108029Y33965D01*
X108017Y33979D01*
X108005Y33996D01*
X107992Y34014D01*
X107882Y34188D01*
X107987D01*
X108071Y34055D01*
Y34054D01*
X108073Y34052D01*
X108075Y34050D01*
X108078Y34046D01*
X108084Y34036D01*
X108093Y34023D01*
X108103Y34009D01*
X108113Y33994D01*
X108123Y33980D01*
X108132Y33967D01*
X108133Y33966D01*
X108136Y33963D01*
X108141Y33957D01*
X108147Y33951D01*
X108161Y33937D01*
X108168Y33930D01*
X108176Y33925D01*
X108177Y33924D01*
X108179Y33923D01*
X108182Y33921D01*
X108188Y33918D01*
X108193Y33916D01*
X108200Y33913D01*
X108215Y33908D01*
X108216D01*
X108217Y33907D01*
X108221D01*
X108226Y33906D01*
X108232Y33905D01*
X108240D01*
X108250Y33904D01*
X108359D01*
Y34188D01*
X108444D01*
Y33548D01*
D02*
G37*
G36*
X107083Y34035D02*
X107361D01*
Y33963D01*
X107068Y33548D01*
X107004D01*
Y33963D01*
X106918D01*
Y34035D01*
X107004D01*
Y34188D01*
X107083D01*
Y34035D01*
D02*
G37*
G36*
X107615Y33688D02*
X107616Y33689D01*
X107620Y33693D01*
X107626Y33698D01*
X107635Y33705D01*
X107645Y33713D01*
X107658Y33722D01*
X107673Y33732D01*
X107690Y33743D01*
X107690D01*
X107691Y33744D01*
X107697Y33747D01*
X107706Y33752D01*
X107717Y33757D01*
X107730Y33764D01*
X107744Y33770D01*
X107758Y33777D01*
X107772Y33782D01*
Y33707D01*
X107771D01*
X107769Y33705D01*
X107765Y33704D01*
X107761Y33701D01*
X107755Y33698D01*
X107749Y33695D01*
X107733Y33685D01*
X107715Y33675D01*
X107696Y33662D01*
X107677Y33647D01*
X107657Y33632D01*
X107656Y33631D01*
X107655Y33630D01*
X107653Y33627D01*
X107649Y33624D01*
X107641Y33615D01*
X107629Y33604D01*
X107618Y33591D01*
X107606Y33576D01*
X107596Y33561D01*
X107587Y33546D01*
X107536D01*
Y34188D01*
X107615D01*
Y33688D01*
D02*
G37*
G36*
X103350Y33537D02*
X103053D01*
X103046Y33538D01*
X103037D01*
X103018Y33539D01*
X102998Y33542D01*
X102976Y33545D01*
X102955Y33549D01*
X102945Y33552D01*
X102937Y33555D01*
X102936D01*
X102935Y33556D01*
X102929Y33559D01*
X102921Y33562D01*
X102911Y33569D01*
X102900Y33577D01*
X102888Y33588D01*
X102877Y33601D01*
X102866Y33616D01*
Y33617D01*
X102865Y33618D01*
X102861Y33623D01*
X102857Y33633D01*
X102852Y33645D01*
X102847Y33658D01*
X102842Y33675D01*
X102840Y33693D01*
X102839Y33712D01*
Y33713D01*
Y33715D01*
Y33719D01*
X102840Y33723D01*
Y33730D01*
X102841Y33736D01*
X102844Y33752D01*
X102850Y33770D01*
X102857Y33790D01*
X102868Y33809D01*
X102876Y33818D01*
X102883Y33828D01*
X102884Y33829D01*
X102885Y33830D01*
X102888Y33832D01*
X102891Y33835D01*
X102896Y33839D01*
X102902Y33842D01*
X102909Y33847D01*
X102916Y33853D01*
X102926Y33857D01*
X102936Y33862D01*
X102947Y33867D01*
X102959Y33872D01*
X102973Y33876D01*
X102987Y33880D01*
X103002Y33883D01*
X103019Y33886D01*
X103017Y33887D01*
X103013Y33889D01*
X103008Y33892D01*
X103001Y33896D01*
X102984Y33906D01*
X102976Y33913D01*
X102968Y33918D01*
X102966Y33920D01*
X102962Y33925D01*
X102954Y33932D01*
X102945Y33941D01*
X102935Y33954D01*
X102923Y33968D01*
X102911Y33985D01*
X102898Y34003D01*
X102788Y34177D01*
X102893D01*
X102977Y34044D01*
Y34043D01*
X102979Y34041D01*
X102981Y34038D01*
X102984Y34035D01*
X102990Y34025D01*
X102999Y34012D01*
X103009Y33998D01*
X103019Y33983D01*
X103029Y33969D01*
X103038Y33956D01*
X103039Y33955D01*
X103042Y33952D01*
X103047Y33946D01*
X103053Y33940D01*
X103067Y33926D01*
X103074Y33919D01*
X103082Y33914D01*
X103083Y33913D01*
X103085Y33912D01*
X103088Y33910D01*
X103094Y33907D01*
X103099Y33904D01*
X103106Y33902D01*
X103121Y33897D01*
X103122D01*
X103123Y33896D01*
X103127D01*
X103132Y33895D01*
X103138Y33894D01*
X103146D01*
X103156Y33893D01*
X103265D01*
Y34177D01*
X103350D01*
Y33537D01*
D02*
G37*
G36*
X102544Y34187D02*
X102552Y34186D01*
X102561Y34185D01*
X102572Y34184D01*
X102583Y34181D01*
X102608Y34174D01*
X102621Y34170D01*
X102633Y34165D01*
X102645Y34159D01*
X102658Y34151D01*
X102670Y34143D01*
X102682Y34133D01*
X102682Y34132D01*
X102684Y34130D01*
X102687Y34127D01*
X102691Y34123D01*
X102694Y34117D01*
X102700Y34111D01*
X102705Y34103D01*
X102710Y34094D01*
X102716Y34085D01*
X102720Y34074D01*
X102730Y34050D01*
X102733Y34037D01*
X102736Y34023D01*
X102738Y34008D01*
X102739Y33993D01*
Y33992D01*
Y33990D01*
Y33987D01*
X102738Y33983D01*
Y33977D01*
X102737Y33971D01*
X102735Y33956D01*
X102731Y33940D01*
X102726Y33923D01*
X102718Y33905D01*
X102707Y33889D01*
Y33888D01*
X102706Y33887D01*
X102702Y33882D01*
X102694Y33875D01*
X102684Y33866D01*
X102671Y33856D01*
X102656Y33846D01*
X102638Y33838D01*
X102617Y33831D01*
X102618D01*
X102619Y33830D01*
X102621Y33830D01*
X102625Y33828D01*
X102633Y33824D01*
X102645Y33818D01*
X102657Y33811D01*
X102669Y33802D01*
X102680Y33792D01*
X102690Y33781D01*
X102691Y33779D01*
X102694Y33775D01*
X102697Y33768D01*
X102701Y33758D01*
X102706Y33746D01*
X102709Y33732D01*
X102712Y33717D01*
X102713Y33700D01*
Y33699D01*
Y33697D01*
Y33694D01*
X102712Y33688D01*
X102711Y33683D01*
X102710Y33675D01*
X102707Y33659D01*
X102701Y33641D01*
X102692Y33621D01*
X102686Y33611D01*
X102680Y33601D01*
X102671Y33592D01*
X102663Y33583D01*
X102662Y33582D01*
X102660Y33581D01*
X102658Y33578D01*
X102654Y33575D01*
X102649Y33572D01*
X102643Y33568D01*
X102635Y33563D01*
X102628Y33559D01*
X102619Y33554D01*
X102608Y33549D01*
X102597Y33546D01*
X102585Y33542D01*
X102560Y33536D01*
X102545Y33536D01*
X102530Y33535D01*
X102522D01*
X102516Y33536D01*
X102509Y33536D01*
X102500Y33537D01*
X102491Y33538D01*
X102482Y33541D01*
X102460Y33547D01*
X102437Y33555D01*
X102426Y33560D01*
X102415Y33567D01*
X102405Y33575D01*
X102395Y33584D01*
X102394Y33585D01*
X102393Y33585D01*
X102390Y33588D01*
X102387Y33592D01*
X102383Y33597D01*
X102378Y33603D01*
X102369Y33617D01*
X102360Y33634D01*
X102351Y33655D01*
X102345Y33678D01*
X102344Y33690D01*
X102343Y33703D01*
Y33704D01*
Y33705D01*
Y33710D01*
X102344Y33719D01*
X102346Y33729D01*
X102349Y33742D01*
X102353Y33755D01*
X102359Y33768D01*
X102367Y33781D01*
X102368Y33782D01*
X102372Y33786D01*
X102377Y33792D01*
X102385Y33799D01*
X102395Y33807D01*
X102407Y33816D01*
X102421Y33824D01*
X102437Y33831D01*
X102437D01*
X102435Y33832D01*
X102432Y33833D01*
X102428Y33835D01*
X102417Y33840D01*
X102404Y33846D01*
X102390Y33855D01*
X102376Y33866D01*
X102362Y33879D01*
X102349Y33893D01*
Y33894D01*
X102348Y33895D01*
X102344Y33901D01*
X102339Y33910D01*
X102333Y33922D01*
X102327Y33937D01*
X102322Y33954D01*
X102318Y33974D01*
X102317Y33995D01*
Y33996D01*
Y33999D01*
Y34003D01*
X102318Y34009D01*
X102319Y34015D01*
X102320Y34024D01*
X102322Y34033D01*
X102325Y34043D01*
X102331Y34064D01*
X102336Y34076D01*
X102342Y34087D01*
X102349Y34099D01*
X102356Y34111D01*
X102365Y34122D01*
X102376Y34133D01*
X102376Y34134D01*
X102378Y34136D01*
X102381Y34138D01*
X102386Y34141D01*
X102392Y34146D01*
X102399Y34150D01*
X102407Y34155D01*
X102416Y34161D01*
X102426Y34166D01*
X102438Y34171D01*
X102451Y34175D01*
X102464Y34180D01*
X102479Y34183D01*
X102495Y34185D01*
X102510Y34187D01*
X102528Y34188D01*
X102537D01*
X102544Y34187D01*
D02*
G37*
%LPC*%
G36*
X98132Y17613D02*
X97644D01*
Y17462D01*
X97645Y17455D01*
X97646Y17441D01*
X97647Y17426D01*
X97649Y17409D01*
X97652Y17392D01*
X97655Y17378D01*
X97656Y17377D01*
X97657Y17372D01*
X97660Y17366D01*
X97664Y17357D01*
X97669Y17348D01*
X97675Y17339D01*
X97681Y17330D01*
X97689Y17320D01*
X97690Y17319D01*
X97694Y17316D01*
X97701Y17310D01*
X97710Y17304D01*
X97722Y17296D01*
X97736Y17288D01*
X97752Y17281D01*
X97769Y17274D01*
X97770D01*
X97772Y17273D01*
X97775Y17272D01*
X97778Y17271D01*
X97783Y17270D01*
X97789Y17268D01*
X97796Y17267D01*
X97803Y17265D01*
X97822Y17262D01*
X97843Y17259D01*
X97867Y17257D01*
X97893Y17256D01*
X97894D01*
X97898D01*
X97902D01*
X97910Y17257D01*
X97918D01*
X97927Y17258D01*
X97938Y17259D01*
X97949Y17260D01*
X97974Y17265D01*
X98000Y17270D01*
X98024Y17279D01*
X98036Y17284D01*
X98046Y17290D01*
X98047D01*
X98049Y17292D01*
X98052Y17293D01*
X98056Y17295D01*
X98065Y17303D01*
X98076Y17312D01*
X98088Y17324D01*
X98100Y17338D01*
X98110Y17354D01*
X98119Y17370D01*
X98119Y17372D01*
X98120Y17377D01*
X98123Y17385D01*
X98126Y17397D01*
X98128Y17412D01*
X98131Y17430D01*
X98132Y17441D01*
Y17453D01*
X98132Y17465D01*
Y17613D01*
D02*
G37*
G36*
X98047Y16483D02*
X98046D01*
X98046D01*
X98040Y16482D01*
X98032Y16481D01*
X98021Y16479D01*
X98009Y16475D01*
X97997Y16471D01*
X97984Y16463D01*
X97973Y16454D01*
X97972Y16453D01*
X97969Y16448D01*
X97964Y16442D01*
X97960Y16434D01*
X97954Y16423D01*
X97949Y16410D01*
X97946Y16395D01*
X97945Y16378D01*
Y16376D01*
X97946Y16371D01*
X97947Y16362D01*
X97948Y16351D01*
X97952Y16339D01*
X97957Y16327D01*
X97964Y16314D01*
X97973Y16303D01*
X97974Y16302D01*
X97979Y16299D01*
X97984Y16294D01*
X97993Y16288D01*
X98003Y16283D01*
X98015Y16278D01*
X98029Y16275D01*
X98044Y16274D01*
X98045D01*
X98046D01*
X98051D01*
X98059Y16275D01*
X98070Y16277D01*
X98081Y16281D01*
X98093Y16287D01*
X98105Y16294D01*
X98117Y16304D01*
X98118Y16305D01*
X98121Y16310D01*
X98126Y16316D01*
X98132Y16325D01*
X98137Y16336D01*
X98142Y16348D01*
X98145Y16362D01*
X98146Y16378D01*
Y16386D01*
X98144Y16394D01*
X98143Y16405D01*
X98139Y16417D01*
X98134Y16430D01*
X98127Y16442D01*
X98117Y16454D01*
X98116Y16455D01*
X98112Y16459D01*
X98106Y16463D01*
X98097Y16468D01*
X98087Y16473D01*
X98075Y16478D01*
X98062Y16482D01*
X98047Y16483D01*
D02*
G37*
G36*
X97752Y16508D02*
X97751D01*
X97747D01*
X97740Y16508D01*
X97732Y16507D01*
X97722Y16505D01*
X97711Y16502D01*
X97700Y16498D01*
X97688Y16494D01*
X97687Y16493D01*
X97682Y16491D01*
X97677Y16487D01*
X97670Y16482D01*
X97662Y16475D01*
X97654Y16467D01*
X97646Y16458D01*
X97639Y16447D01*
X97638Y16445D01*
X97636Y16441D01*
X97633Y16435D01*
X97630Y16426D01*
X97628Y16416D01*
X97625Y16404D01*
X97623Y16391D01*
X97622Y16378D01*
Y16373D01*
X97623Y16369D01*
X97624Y16358D01*
X97627Y16345D01*
X97631Y16330D01*
X97637Y16314D01*
X97646Y16300D01*
X97658Y16285D01*
X97660Y16283D01*
X97665Y16279D01*
X97673Y16273D01*
X97683Y16266D01*
X97696Y16260D01*
X97712Y16253D01*
X97730Y16250D01*
X97750Y16248D01*
X97751D01*
X97752D01*
X97755D01*
X97759Y16249D01*
X97769Y16250D01*
X97783Y16252D01*
X97797Y16257D01*
X97813Y16263D01*
X97828Y16273D01*
X97843Y16286D01*
X97845Y16288D01*
X97849Y16292D01*
X97855Y16300D01*
X97862Y16312D01*
X97869Y16325D01*
X97875Y16342D01*
X97879Y16361D01*
X97881Y16381D01*
Y16386D01*
X97880Y16390D01*
X97879Y16400D01*
X97876Y16413D01*
X97872Y16428D01*
X97865Y16443D01*
X97856Y16459D01*
X97844Y16472D01*
X97842Y16474D01*
X97838Y16478D01*
X97829Y16484D01*
X97819Y16490D01*
X97805Y16497D01*
X97789Y16503D01*
X97772Y16507D01*
X97752Y16508D01*
D02*
G37*
G36*
X171820Y7120D02*
X171609D01*
Y6929D01*
X171610Y6918D01*
X171610Y6905D01*
X171611Y6891D01*
X171613Y6876D01*
X171616Y6861D01*
X171620Y6848D01*
X171621Y6846D01*
X171623Y6843D01*
X171625Y6837D01*
X171629Y6830D01*
X171635Y6821D01*
X171641Y6813D01*
X171649Y6805D01*
X171659Y6798D01*
X171659Y6797D01*
X171663Y6795D01*
X171669Y6793D01*
X171676Y6789D01*
X171684Y6786D01*
X171694Y6783D01*
X171705Y6782D01*
X171716Y6781D01*
X171717D01*
X171718D01*
X171723Y6782D01*
X171732Y6782D01*
X171743Y6784D01*
X171754Y6789D01*
X171767Y6794D01*
X171779Y6803D01*
X171791Y6814D01*
X171792Y6816D01*
X171795Y6820D01*
X171800Y6828D01*
X171806Y6840D01*
X171811Y6854D01*
X171816Y6872D01*
X171819Y6893D01*
X171820Y6918D01*
Y7120D01*
D02*
G37*
G36*
X171816Y6476D02*
X171587D01*
Y6304D01*
X171588Y6297D01*
Y6291D01*
X171589Y6283D01*
X171591Y6266D01*
X171595Y6246D01*
X171600Y6227D01*
X171608Y6209D01*
X171612Y6201D01*
X171618Y6194D01*
X171620Y6193D01*
X171623Y6189D01*
X171631Y6183D01*
X171640Y6177D01*
X171652Y6170D01*
X171667Y6165D01*
X171684Y6161D01*
X171703Y6159D01*
X171704D01*
X171705D01*
X171709D01*
X171718Y6160D01*
X171727Y6162D01*
X171737Y6164D01*
X171749Y6168D01*
X171760Y6173D01*
X171771Y6180D01*
X171772Y6181D01*
X171776Y6183D01*
X171781Y6188D01*
X171787Y6194D01*
X171794Y6202D01*
X171799Y6211D01*
X171805Y6221D01*
X171809Y6233D01*
Y6234D01*
X171810Y6238D01*
X171811Y6243D01*
X171813Y6251D01*
X171814Y6262D01*
X171815Y6276D01*
X171816Y6292D01*
Y6476D01*
D02*
G37*
G36*
X402109Y7069D02*
X402108D01*
X402107D01*
X402102Y7068D01*
X402093Y7068D01*
X402082Y7066D01*
X402071Y7061D01*
X402058Y7056D01*
X402046Y7047D01*
X402034Y7036D01*
X402033Y7034D01*
X402030Y7030D01*
X402025Y7022D01*
X402019Y7010D01*
X402014Y6996D01*
X402009Y6978D01*
X402006Y6957D01*
X402005Y6932D01*
Y6730D01*
X402216D01*
Y6921D01*
X402215Y6932D01*
X402215Y6945D01*
X402214Y6959D01*
X402212Y6974D01*
X402209Y6989D01*
X402205Y7002D01*
X402204Y7004D01*
X402202Y7007D01*
X402200Y7013D01*
X402196Y7020D01*
X402190Y7029D01*
X402184Y7037D01*
X402176Y7045D01*
X402166Y7052D01*
X402165Y7053D01*
X402162Y7055D01*
X402156Y7057D01*
X402149Y7061D01*
X402141Y7064D01*
X402131Y7067D01*
X402120Y7068D01*
X402109Y7069D01*
D02*
G37*
G36*
X198139Y17792D02*
X198138D01*
X198134D01*
X198129D01*
X198122Y17791D01*
X198114D01*
X198105Y17790D01*
X198093Y17789D01*
X198082Y17788D01*
X198057Y17784D01*
X198031Y17778D01*
X198007Y17770D01*
X197995Y17764D01*
X197985Y17759D01*
X197984D01*
X197982Y17757D01*
X197980Y17755D01*
X197976Y17753D01*
X197967Y17746D01*
X197956Y17736D01*
X197944Y17724D01*
X197932Y17711D01*
X197921Y17695D01*
X197913Y17678D01*
X197912Y17676D01*
X197911Y17672D01*
X197909Y17663D01*
X197906Y17651D01*
X197904Y17637D01*
X197901Y17618D01*
X197900Y17607D01*
Y17595D01*
X197899Y17583D01*
Y17435D01*
X198387D01*
Y17587D01*
X198387Y17593D01*
X198386Y17607D01*
X198385Y17623D01*
X198383Y17639D01*
X198380Y17656D01*
X198376Y17670D01*
X198375Y17672D01*
X198374Y17676D01*
X198372Y17683D01*
X198368Y17691D01*
X198362Y17700D01*
X198357Y17710D01*
X198350Y17719D01*
X198343Y17728D01*
X198341Y17729D01*
X198338Y17733D01*
X198331Y17738D01*
X198322Y17745D01*
X198310Y17752D01*
X198296Y17761D01*
X198280Y17768D01*
X198263Y17774D01*
X198262D01*
X198260Y17775D01*
X198257Y17776D01*
X198253Y17777D01*
X198249Y17778D01*
X198242Y17780D01*
X198236Y17782D01*
X198228Y17784D01*
X198210Y17786D01*
X198189Y17789D01*
X198165Y17791D01*
X198139Y17792D01*
D02*
G37*
G36*
X418932Y24611D02*
X418932D01*
X418928D01*
X418923D01*
X418916Y24610D01*
X418908D01*
X418898Y24609D01*
X418887Y24608D01*
X418876Y24607D01*
X418851Y24602D01*
X418825Y24597D01*
X418801Y24588D01*
X418789Y24583D01*
X418779Y24577D01*
X418778D01*
X418776Y24576D01*
X418773Y24574D01*
X418770Y24572D01*
X418760Y24564D01*
X418749Y24555D01*
X418737Y24543D01*
X418725Y24529D01*
X418715Y24514D01*
X418707Y24497D01*
X418706Y24495D01*
X418705Y24490D01*
X418702Y24482D01*
X418699Y24470D01*
X418698Y24455D01*
X418695Y24437D01*
X418694Y24426D01*
Y24414D01*
X418693Y24402D01*
Y24254D01*
X419181D01*
Y24405D01*
X419180Y24412D01*
X419179Y24426D01*
X419178Y24441D01*
X419177Y24458D01*
X419174Y24475D01*
X419170Y24489D01*
X419169Y24490D01*
X419168Y24495D01*
X419165Y24502D01*
X419162Y24510D01*
X419156Y24519D01*
X419151Y24528D01*
X419144Y24538D01*
X419137Y24547D01*
X419135Y24548D01*
X419131Y24552D01*
X419125Y24557D01*
X419116Y24564D01*
X419104Y24571D01*
X419090Y24579D01*
X419074Y24587D01*
X419056Y24593D01*
X419055D01*
X419054Y24594D01*
X419051Y24595D01*
X419047Y24596D01*
X419043Y24597D01*
X419036Y24599D01*
X419030Y24601D01*
X419022Y24602D01*
X419004Y24605D01*
X418982Y24608D01*
X418958Y24610D01*
X418932Y24611D01*
D02*
G37*
G36*
X95708Y17639D02*
X95220D01*
Y17487D01*
X95221Y17481D01*
X95222Y17467D01*
X95223Y17451D01*
X95225Y17434D01*
X95228Y17418D01*
X95231Y17404D01*
X95232Y17402D01*
X95233Y17397D01*
X95236Y17391D01*
X95240Y17383D01*
X95245Y17373D01*
X95251Y17364D01*
X95257Y17355D01*
X95265Y17346D01*
X95266Y17345D01*
X95270Y17341D01*
X95277Y17335D01*
X95286Y17329D01*
X95298Y17322D01*
X95312Y17313D01*
X95327Y17306D01*
X95345Y17299D01*
X95346D01*
X95348Y17299D01*
X95351Y17298D01*
X95354Y17297D01*
X95359Y17296D01*
X95365Y17294D01*
X95372Y17292D01*
X95379Y17290D01*
X95398Y17287D01*
X95419Y17285D01*
X95443Y17283D01*
X95469Y17282D01*
X95470D01*
X95474D01*
X95478D01*
X95486Y17283D01*
X95494D01*
X95503Y17284D01*
X95514Y17285D01*
X95525Y17286D01*
X95550Y17290D01*
X95576Y17296D01*
X95600Y17304D01*
X95612Y17310D01*
X95622Y17315D01*
X95623D01*
X95625Y17317D01*
X95628Y17319D01*
X95632Y17321D01*
X95641Y17328D01*
X95652Y17337D01*
X95664Y17349D01*
X95676Y17363D01*
X95686Y17379D01*
X95694Y17396D01*
X95695Y17397D01*
X95696Y17402D01*
X95699Y17410D01*
X95702Y17422D01*
X95704Y17437D01*
X95706Y17456D01*
X95707Y17467D01*
Y17479D01*
X95708Y17491D01*
Y17639D01*
D02*
G37*
G36*
X112238Y33891D02*
X112232D01*
X112228Y33890D01*
X112218Y33889D01*
X112206Y33886D01*
X112191Y33881D01*
X112176Y33875D01*
X112162Y33866D01*
X112148Y33853D01*
X112146Y33851D01*
X112142Y33845D01*
X112137Y33837D01*
X112129Y33825D01*
X112123Y33810D01*
X112117Y33793D01*
X112114Y33771D01*
X112112Y33747D01*
Y33746D01*
Y33744D01*
Y33741D01*
X112113Y33736D01*
Y33730D01*
X112114Y33723D01*
X112116Y33708D01*
X112120Y33691D01*
X112127Y33672D01*
X112136Y33655D01*
X112148Y33639D01*
Y33638D01*
X112150Y33637D01*
X112154Y33633D01*
X112162Y33626D01*
X112172Y33619D01*
X112185Y33612D01*
X112200Y33606D01*
X112216Y33601D01*
X112225Y33599D01*
X112240D01*
X112244Y33600D01*
X112254Y33601D01*
X112266Y33605D01*
X112281Y33609D01*
X112297Y33618D01*
X112312Y33628D01*
X112320Y33635D01*
X112327Y33643D01*
Y33644D01*
X112329Y33645D01*
X112331Y33647D01*
X112333Y33650D01*
X112339Y33659D01*
X112346Y33672D01*
X112353Y33688D01*
X112360Y33707D01*
X112363Y33730D01*
X112365Y33754D01*
Y33755D01*
Y33756D01*
Y33759D01*
X112364Y33764D01*
Y33769D01*
X112363Y33775D01*
X112360Y33789D01*
X112356Y33805D01*
X112350Y33821D01*
X112341Y33838D01*
X112329Y33853D01*
X112327Y33854D01*
X112323Y33858D01*
X112314Y33865D01*
X112304Y33871D01*
X112290Y33879D01*
X112274Y33885D01*
X112257Y33889D01*
X112238Y33891D01*
D02*
G37*
G36*
X113470Y33820D02*
X113279D01*
X113268Y33819D01*
X113255Y33818D01*
X113241Y33818D01*
X113226Y33816D01*
X113211Y33813D01*
X113198Y33809D01*
X113196Y33808D01*
X113193Y33806D01*
X113187Y33804D01*
X113180Y33800D01*
X113171Y33794D01*
X113163Y33788D01*
X113155Y33780D01*
X113148Y33770D01*
X113147Y33769D01*
X113145Y33766D01*
X113143Y33760D01*
X113139Y33753D01*
X113136Y33744D01*
X113133Y33735D01*
X113132Y33724D01*
X113131Y33713D01*
Y33712D01*
Y33711D01*
X113132Y33706D01*
X113132Y33697D01*
X113134Y33686D01*
X113139Y33675D01*
X113144Y33662D01*
X113153Y33650D01*
X113164Y33638D01*
X113166Y33637D01*
X113170Y33634D01*
X113178Y33629D01*
X113190Y33623D01*
X113204Y33618D01*
X113222Y33613D01*
X113243Y33609D01*
X113268Y33609D01*
X113470D01*
Y33820D01*
D02*
G37*
G36*
X108359Y33831D02*
X108168D01*
X108157Y33830D01*
X108144Y33830D01*
X108130Y33829D01*
X108115Y33827D01*
X108100Y33824D01*
X108087Y33820D01*
X108085Y33819D01*
X108082Y33818D01*
X108076Y33815D01*
X108069Y33811D01*
X108060Y33805D01*
X108052Y33799D01*
X108044Y33791D01*
X108037Y33781D01*
X108036Y33781D01*
X108034Y33777D01*
X108032Y33771D01*
X108028Y33764D01*
X108025Y33756D01*
X108022Y33746D01*
X108021Y33735D01*
X108020Y33724D01*
Y33723D01*
Y33722D01*
X108021Y33717D01*
X108021Y33708D01*
X108023Y33697D01*
X108028Y33686D01*
X108033Y33673D01*
X108042Y33661D01*
X108053Y33649D01*
X108055Y33648D01*
X108059Y33645D01*
X108067Y33640D01*
X108079Y33634D01*
X108093Y33629D01*
X108111Y33624D01*
X108132Y33621D01*
X108157Y33620D01*
X108359D01*
Y33831D01*
D02*
G37*
G36*
X107285Y33963D02*
X107083D01*
Y33676D01*
X107285Y33963D01*
D02*
G37*
G36*
X103265Y33820D02*
X103074D01*
X103063Y33819D01*
X103050Y33818D01*
X103036Y33818D01*
X103021Y33816D01*
X103006Y33813D01*
X102993Y33809D01*
X102991Y33808D01*
X102988Y33806D01*
X102982Y33804D01*
X102975Y33800D01*
X102966Y33794D01*
X102958Y33788D01*
X102950Y33780D01*
X102943Y33770D01*
X102942Y33769D01*
X102940Y33766D01*
X102938Y33760D01*
X102934Y33753D01*
X102931Y33744D01*
X102928Y33735D01*
X102927Y33724D01*
X102926Y33713D01*
Y33712D01*
Y33711D01*
X102927Y33706D01*
X102927Y33697D01*
X102929Y33686D01*
X102934Y33675D01*
X102939Y33662D01*
X102948Y33650D01*
X102959Y33638D01*
X102961Y33637D01*
X102965Y33634D01*
X102973Y33629D01*
X102985Y33623D01*
X102999Y33618D01*
X103017Y33613D01*
X103038Y33609D01*
X103063Y33609D01*
X103265D01*
Y33820D01*
D02*
G37*
G36*
X102528Y34124D02*
X102523D01*
X102519Y34123D01*
X102508Y34122D01*
X102495Y34119D01*
X102480Y34114D01*
X102464Y34109D01*
X102449Y34099D01*
X102435Y34087D01*
X102433Y34086D01*
X102429Y34081D01*
X102423Y34073D01*
X102416Y34062D01*
X102410Y34050D01*
X102403Y34034D01*
X102400Y34015D01*
X102398Y33996D01*
Y33995D01*
Y33993D01*
Y33990D01*
X102399Y33987D01*
X102400Y33977D01*
X102402Y33963D01*
X102407Y33949D01*
X102413Y33933D01*
X102423Y33917D01*
X102436Y33903D01*
X102437Y33901D01*
X102442Y33897D01*
X102450Y33891D01*
X102462Y33883D01*
X102475Y33877D01*
X102492Y33870D01*
X102510Y33867D01*
X102531Y33865D01*
X102536D01*
X102540Y33866D01*
X102550Y33867D01*
X102563Y33869D01*
X102578Y33874D01*
X102593Y33880D01*
X102608Y33890D01*
X102622Y33902D01*
X102624Y33903D01*
X102628Y33908D01*
X102633Y33916D01*
X102640Y33927D01*
X102647Y33940D01*
X102653Y33956D01*
X102657Y33974D01*
X102658Y33993D01*
Y33995D01*
Y33999D01*
X102658Y34005D01*
X102657Y34014D01*
X102655Y34024D01*
X102652Y34035D01*
X102648Y34046D01*
X102644Y34058D01*
X102643Y34059D01*
X102641Y34063D01*
X102637Y34069D01*
X102632Y34075D01*
X102625Y34084D01*
X102617Y34092D01*
X102608Y34099D01*
X102596Y34107D01*
X102595Y34108D01*
X102591Y34110D01*
X102584Y34112D01*
X102576Y34115D01*
X102566Y34118D01*
X102554Y34121D01*
X102541Y34123D01*
X102528Y34124D01*
D02*
G37*
G36*
Y33801D02*
X102526D01*
X102521Y33800D01*
X102512Y33799D01*
X102501Y33797D01*
X102489Y33793D01*
X102477Y33789D01*
X102464Y33781D01*
X102453Y33772D01*
X102452Y33771D01*
X102449Y33767D01*
X102444Y33761D01*
X102438Y33753D01*
X102433Y33743D01*
X102428Y33731D01*
X102425Y33717D01*
X102424Y33702D01*
Y33701D01*
Y33700D01*
Y33695D01*
X102425Y33686D01*
X102427Y33676D01*
X102431Y33665D01*
X102437Y33653D01*
X102444Y33641D01*
X102454Y33629D01*
X102455Y33628D01*
X102460Y33624D01*
X102466Y33620D01*
X102474Y33614D01*
X102486Y33609D01*
X102498Y33604D01*
X102512Y33600D01*
X102528Y33599D01*
X102535D01*
X102544Y33601D01*
X102555Y33603D01*
X102567Y33607D01*
X102580Y33611D01*
X102592Y33619D01*
X102604Y33629D01*
X102605Y33630D01*
X102608Y33634D01*
X102613Y33640D01*
X102618Y33648D01*
X102623Y33658D01*
X102628Y33670D01*
X102632Y33683D01*
X102633Y33698D01*
Y33699D01*
Y33700D01*
X102632Y33706D01*
X102631Y33714D01*
X102629Y33724D01*
X102625Y33736D01*
X102621Y33748D01*
X102613Y33761D01*
X102604Y33772D01*
X102603Y33773D01*
X102598Y33777D01*
X102592Y33781D01*
X102584Y33786D01*
X102572Y33792D01*
X102560Y33796D01*
X102545Y33800D01*
X102528Y33801D01*
D02*
G37*
%LPD*%
D98*
X94558Y19424D02*
X96108D01*
X94558Y16024D02*
Y19424D01*
Y16024D02*
X96108D01*
Y19424D01*
X397395Y4065D02*
Y9225D01*
X407375D01*
Y4065D02*
Y9225D01*
X397395Y4065D02*
X407375D01*
X418294Y22469D02*
Y25869D01*
X419844D01*
Y22469D02*
Y25869D01*
X418294Y22469D02*
X419844D01*
X100770Y29010D02*
X105930D01*
X100770D02*
Y38990D01*
X105930D01*
Y29010D02*
Y38990D01*
X111024Y29010D02*
Y38990D01*
X105864D02*
X111024D01*
X105864Y29010D02*
Y38990D01*
Y29010D02*
X111024D01*
X116135D02*
Y38990D01*
X110975D02*
X116135D01*
X110975Y29010D02*
Y38990D01*
Y29010D02*
X116135D01*
X197500Y15650D02*
X199050D01*
Y19050D01*
X197500D02*
X199050D01*
X197500Y15650D02*
Y19050D01*
X185205Y10867D02*
Y27087D01*
X174345Y10867D02*
X185205D01*
X174345D02*
Y27087D01*
X185205D01*
X176430Y4625D02*
Y9785D01*
X166450Y4625D02*
X176430D01*
X166450D02*
Y9785D01*
X176430D01*
X96971Y19398D02*
X98521D01*
X96971Y15998D02*
Y19398D01*
Y15998D02*
X98521D01*
Y19398D01*
%TF.MD5,2047e5c9632526858971c04fd158fe4c*%
M02*
