M48
;Layer_Color=9474304
;FILE_FORMAT=4:3
METRIC,LZ
;TYPE=PLATED
T1F00S00C0.300
T2F00S00C0.700
T3F00S00C0.900
T4F00S00C1.500
%
T01
X00366Y001454
X004029Y001884
X003661Y002666
X003517Y002518
X002726Y002283
X002554
X001757Y002472
X001658Y001348
X001652Y001053
X000407Y001154
Y001256
Y001354
X003142Y001451
X003288Y001625
X003201Y000995
X0034308Y003077
X001979Y003335
X0018075Y0033885
X0012498Y003028
X00125Y0027735
X000902Y003953
Y004057
Y004162
X000905Y00426
T02
X002415Y00459
X002675
T03
X000277Y00252
X0019535Y001995
Y001741
Y001487
Y001233
X000277Y002774
Y003028
Y003282
T04
X002213Y0038665
X002886
M30
