%TF.GenerationSoftware,Altium Limited,Altium Designer,21.6.4 (81)*%
G04 Layer_Physical_Order=2*
G04 Layer_Color=16711680*
%FSLAX43Y43*%
%MOMM*%
%TF.SameCoordinates,1CE7F002-25C6-4FEA-A4B7-191A7A1919B5*%
%TF.FilePolarity,Positive*%
%TF.FileFunction,Copper,L2,Bot,Signal*%
%TF.Part,Single*%
G01*
G75*
%TA.AperFunction,SMDPad,CuDef*%
%ADD10R,0.850X0.900*%
%ADD11R,1.500X0.600*%
%ADD12O,1.500X0.600*%
%TA.AperFunction,Conductor*%
%ADD18C,0.400*%
%ADD19C,0.500*%
%TA.AperFunction,ComponentPad*%
%ADD24C,1.300*%
%ADD25C,1.500*%
%TA.AperFunction,ViaPad*%
%ADD27C,0.800*%
%TA.AperFunction,SMDPad,CuDef*%
%ADD28R,0.800X1.250*%
%ADD29R,0.900X0.850*%
%ADD30R,1.800X1.450*%
%ADD31R,2.300X2.300*%
%ADD32R,1.600X0.400*%
%ADD33R,3.000X2.000*%
%TA.AperFunction,Conductor*%
%ADD34C,0.700*%
%ADD35C,0.800*%
%ADD36C,0.300*%
%ADD37R,3.220X3.300*%
%ADD38R,3.515X4.290*%
%ADD39R,3.480X4.040*%
%TA.AperFunction,ComponentPad*%
%ADD40C,2.286*%
G36*
X27852Y48416D02*
Y48416D01*
X27974Y48404D01*
X28155Y48380D01*
X28437Y48263D01*
X28680Y48077D01*
X28866Y47835D01*
X28983Y47553D01*
X29020Y47269D01*
X29017Y47252D01*
Y44302D01*
X29042Y44175D01*
X29115Y44067D01*
X29223Y43994D01*
X29350Y43969D01*
X29360Y43971D01*
X29370Y43969D01*
X41239D01*
X41252Y43966D01*
Y43966D01*
X41374Y43954D01*
X41555Y43930D01*
X41837Y43813D01*
X42080Y43627D01*
X42266Y43385D01*
X42383Y43103D01*
X42420Y42819D01*
X42417Y42802D01*
Y37052D01*
X42442Y36925D01*
X42515Y36817D01*
X42623Y36744D01*
X42750Y36719D01*
X49489D01*
X49502Y36716D01*
Y36716D01*
X49624Y36704D01*
X49805Y36680D01*
X50087Y36563D01*
X50330Y36377D01*
X50516Y36135D01*
X50633Y35853D01*
X50670Y35569D01*
X50667Y35552D01*
Y18086D01*
X48750D01*
X48623Y18060D01*
X48515Y17988D01*
X48442Y17880D01*
X48417Y17752D01*
X48417Y17752D01*
X48417Y17752D01*
Y16257D01*
X48333Y16222D01*
X48161Y16090D01*
X48028Y15917D01*
X47945Y15716D01*
X47916Y15500D01*
X47945Y15284D01*
X48028Y15083D01*
X48161Y14910D01*
X48333Y14778D01*
X48417Y14743D01*
Y9760D01*
X32779D01*
X32730Y9877D01*
X36845Y13992D01*
X36940Y14031D01*
X37109Y14200D01*
X37200Y14421D01*
Y14659D01*
X37109Y14880D01*
X36940Y15049D01*
X36719Y15140D01*
X36481D01*
X36260Y15049D01*
X36091Y14880D01*
X36052Y14785D01*
X31765Y10498D01*
X31670Y10459D01*
X31501Y10290D01*
X31410Y10069D01*
Y9831D01*
X31363Y9760D01*
X27593D01*
Y14743D01*
X27677Y14778D01*
X27850Y14910D01*
X27982Y15083D01*
X28066Y15284D01*
X28094Y15500D01*
X28066Y15716D01*
X27982Y15917D01*
X27850Y16090D01*
X27677Y16222D01*
X27593Y16257D01*
Y18490D01*
X27593Y18490D01*
X27597D01*
X27557Y18897D01*
X27438Y19289D01*
X27245Y19649D01*
X26986Y19966D01*
X26670Y20225D01*
X26309Y20418D01*
X25917Y20537D01*
X25510Y20577D01*
X25103Y20537D01*
X24711Y20418D01*
X24351Y20225D01*
X24034Y19966D01*
X23775Y19649D01*
X23582Y19289D01*
X23463Y18897D01*
X23423Y18490D01*
X23427D01*
Y16257D01*
X23343Y16222D01*
X23170Y16090D01*
X23038Y15917D01*
X22954Y15716D01*
X22926Y15500D01*
X22954Y15284D01*
X23038Y15083D01*
X23170Y14910D01*
X23343Y14778D01*
X23427Y14743D01*
Y9760D01*
X2584D01*
Y14743D01*
X2667Y14778D01*
X2840Y14910D01*
X2973Y15083D01*
X3056Y15284D01*
X3084Y15500D01*
X3056Y15716D01*
X2973Y15917D01*
X2840Y16090D01*
X2667Y16222D01*
X2584Y16257D01*
Y17752D01*
X2584Y17752D01*
X2558Y17880D01*
X2486Y17988D01*
X2378Y18060D01*
X2250Y18086D01*
X334D01*
Y20724D01*
X451Y20772D01*
X4102Y17122D01*
X4102Y17122D01*
X4234Y17033D01*
X4390Y17002D01*
X18673D01*
X18774Y16827D01*
X18951Y16650D01*
X19168Y16525D01*
X19410Y16460D01*
X19660D01*
X19901Y16525D01*
X20118Y16650D01*
X20295Y16827D01*
X20420Y17043D01*
X20485Y17285D01*
Y17535D01*
X20420Y17777D01*
X20295Y17993D01*
X20118Y18170D01*
X19901Y18295D01*
X19660Y18360D01*
X19410D01*
X19168Y18295D01*
X18951Y18170D01*
X18774Y17993D01*
X18673Y17818D01*
X4559D01*
X928Y21449D01*
Y22016D01*
X1055Y22068D01*
X3462Y19662D01*
X3594Y19573D01*
X3750Y19542D01*
X18673D01*
X18774Y19367D01*
X18951Y19190D01*
X19168Y19065D01*
X19410Y19000D01*
X19660D01*
X19901Y19065D01*
X20118Y19190D01*
X20295Y19367D01*
X20420Y19583D01*
X20485Y19825D01*
Y20075D01*
X20420Y20317D01*
X20295Y20533D01*
X20118Y20710D01*
X19901Y20835D01*
X19660Y20900D01*
X19410D01*
X19168Y20835D01*
X18951Y20710D01*
X18774Y20533D01*
X18673Y20358D01*
X3919D01*
X1662Y22615D01*
Y33115D01*
X1881Y33334D01*
X1983Y33256D01*
X1931Y33167D01*
X1878Y32970D01*
X2620D01*
Y33712D01*
X2423Y33659D01*
X2334Y33607D01*
X2256Y33709D01*
X2489Y33942D01*
X5091D01*
X6087Y32947D01*
X6087Y32947D01*
X6219Y32858D01*
X6375Y32827D01*
X6375Y32827D01*
X7790D01*
Y32185D01*
Y31253D01*
X7673Y31204D01*
X7149Y31728D01*
X7016Y31817D01*
X6860Y31848D01*
X6780Y31935D01*
Y32240D01*
X6330D01*
Y31665D01*
Y31047D01*
X6405Y31032D01*
X6691D01*
X6875Y30848D01*
X6804Y30740D01*
X5530D01*
Y30428D01*
X5340D01*
X5340Y30428D01*
X5184Y30396D01*
X5051Y30308D01*
X5051Y30308D01*
X4472Y29729D01*
X4384Y29596D01*
X4352Y29440D01*
X4352Y29440D01*
Y29220D01*
X4070D01*
Y27920D01*
X4287D01*
Y27690D01*
X4070D01*
Y26992D01*
X3154Y26075D01*
X3137Y26085D01*
X2895Y26150D01*
X2645D01*
X2403Y26085D01*
X2187Y25960D01*
X2010Y25783D01*
X1885Y25567D01*
X1820Y25325D01*
Y25075D01*
X1885Y24833D01*
X2010Y24617D01*
X2187Y24440D01*
X2403Y24315D01*
X2645Y24250D01*
X2895D01*
X3137Y24315D01*
X3353Y24440D01*
X3530Y24617D01*
X3655Y24833D01*
X3720Y25075D01*
Y25325D01*
X3686Y25454D01*
X4371Y26140D01*
X4408Y26140D01*
X4522Y26110D01*
X4589Y26010D01*
X5357Y25242D01*
X5489Y25153D01*
X5646Y25122D01*
X8461D01*
X12165Y21418D01*
X12165Y21418D01*
X12297Y21330D01*
X12453Y21299D01*
X12453Y21299D01*
X27617D01*
X27617Y21299D01*
X27773Y21330D01*
X27905Y21418D01*
X28092Y21605D01*
X28190Y21524D01*
X28190Y21413D01*
Y20285D01*
X28269D01*
Y20130D01*
X28190D01*
Y18880D01*
X29490D01*
Y20130D01*
X29391D01*
Y20285D01*
X29490D01*
Y20369D01*
X29708D01*
X29789Y20288D01*
Y16670D01*
X29832Y16455D01*
X29953Y16274D01*
X30374Y15853D01*
X30555Y15732D01*
X30770Y15689D01*
X32666D01*
X32761Y15650D01*
X32999D01*
X33220Y15741D01*
X33389Y15910D01*
X33480Y16131D01*
Y16369D01*
X33389Y16590D01*
X33220Y16759D01*
X32999Y16850D01*
X32761D01*
X32666Y16811D01*
X31002D01*
X30911Y16902D01*
Y20520D01*
X30868Y20735D01*
X30747Y20916D01*
X30336Y21327D01*
X30155Y21448D01*
X29940Y21491D01*
X29490D01*
Y21535D01*
X28316D01*
X28201Y21535D01*
X28120Y21633D01*
X28314Y21827D01*
X28615D01*
X28615Y21827D01*
X28654Y21835D01*
X29490D01*
Y22277D01*
X30561D01*
X30687Y22252D01*
X31699D01*
X31768Y22206D01*
X31963Y22167D01*
X32006D01*
Y21907D01*
X31463D01*
Y20907D01*
X33363D01*
Y21907D01*
X32821D01*
Y22167D01*
X32863D01*
X33059Y22206D01*
X33077Y22218D01*
X34017D01*
X34192Y22253D01*
X34341Y22352D01*
X35437Y23448D01*
X35536Y23597D01*
X35571Y23773D01*
Y24733D01*
X35679Y24840D01*
X35770Y25061D01*
Y25299D01*
X35679Y25520D01*
X35510Y25689D01*
X35289Y25780D01*
X35051D01*
X34830Y25689D01*
X34661Y25520D01*
X34570Y25299D01*
Y25061D01*
X34654Y24858D01*
Y23963D01*
X33827Y23136D01*
X33077D01*
X33059Y23148D01*
X32863Y23187D01*
X31963D01*
X31768Y23148D01*
X31649Y23068D01*
X31095D01*
Y25138D01*
X31463Y25506D01*
X31561Y25425D01*
X31540Y25392D01*
X31534Y25367D01*
X32263D01*
Y25676D01*
X31963D01*
X31788Y25641D01*
X31755Y25619D01*
X31674Y25717D01*
X32209Y26252D01*
X33657D01*
Y26010D01*
X34907D01*
Y26846D01*
X34915Y26885D01*
Y27508D01*
X36018Y28612D01*
X36018Y28612D01*
X36107Y28744D01*
X36138Y28900D01*
Y29335D01*
X36463D01*
Y30635D01*
X35213D01*
Y29335D01*
X35322D01*
Y29069D01*
X34218Y27965D01*
X34130Y27833D01*
X34099Y27677D01*
X34099Y27677D01*
Y27310D01*
X33657D01*
Y27068D01*
X32448D01*
Y39300D01*
X32448Y39300D01*
X32417Y39456D01*
X32328Y39588D01*
X32328Y39588D01*
X28868Y43048D01*
X28736Y43137D01*
X28580Y43168D01*
X28580Y43168D01*
X26780D01*
Y43410D01*
X25530D01*
Y42110D01*
X26780D01*
Y42352D01*
X28411D01*
X31632Y39131D01*
Y26829D01*
X30399Y25595D01*
X30310Y25463D01*
X30279Y25307D01*
X30279Y25307D01*
Y23093D01*
X29090D01*
X29090Y23093D01*
X29051Y23085D01*
X28190D01*
Y22643D01*
X28145D01*
X27989Y22612D01*
X27944Y22582D01*
X27841Y22666D01*
X27860Y22711D01*
Y22949D01*
X27769Y23170D01*
X27600Y23339D01*
X27379Y23430D01*
X27260D01*
X26735Y23955D01*
X26758Y24046D01*
X26783Y24082D01*
X27340D01*
X27340Y24082D01*
X27496Y24113D01*
X27628Y24202D01*
X29952Y26525D01*
X30650D01*
Y27775D01*
X29350D01*
Y27077D01*
X27171Y24898D01*
X25504D01*
X25451Y25025D01*
X26952Y26525D01*
X27650D01*
Y27775D01*
X26350D01*
Y27077D01*
X24911Y25638D01*
X23239D01*
X23186Y25765D01*
X23946Y26525D01*
X24645D01*
Y27775D01*
X23345D01*
Y27077D01*
X22625Y26358D01*
X20279D01*
X20010Y26627D01*
X20072Y26744D01*
X20080Y26742D01*
X20345D01*
Y26525D01*
X21645D01*
Y27775D01*
X20345D01*
Y27633D01*
X20218Y27589D01*
X19768Y28039D01*
Y31180D01*
X19737Y31336D01*
X19648Y31468D01*
X17959Y33158D01*
X18011Y33285D01*
X18194D01*
X18415Y33376D01*
X18584Y33545D01*
X18658Y33726D01*
X18792Y33771D01*
X19190Y33374D01*
Y33231D01*
X19281Y33010D01*
X19450Y32842D01*
X19671Y32750D01*
X19909D01*
X20130Y32842D01*
X20273Y32985D01*
X20392Y32951D01*
X20400Y32946D01*
Y32735D01*
X20850D01*
Y33310D01*
Y33885D01*
X20400D01*
Y33755D01*
X20392Y33750D01*
X20273Y33716D01*
X20130Y33859D01*
X19909Y33950D01*
X19767D01*
X18599Y35119D01*
X18466Y35207D01*
X18375Y35225D01*
X18387Y35352D01*
X18661D01*
X19442Y34572D01*
X19442Y34572D01*
X19574Y34483D01*
X19730Y34452D01*
X19730Y34452D01*
X20350D01*
Y34235D01*
X21650D01*
Y34447D01*
X21975D01*
Y34200D01*
X23225D01*
Y35500D01*
X21975D01*
Y35263D01*
X21650D01*
Y35485D01*
X20350D01*
Y35268D01*
X19899D01*
X19118Y36048D01*
X18986Y36137D01*
X18830Y36168D01*
X18830Y36168D01*
X13170D01*
X13170Y36168D01*
X13113Y36156D01*
X13050Y36274D01*
X15618Y38842D01*
X15618Y38842D01*
X15707Y38974D01*
X15738Y39130D01*
X15738Y39130D01*
Y40451D01*
X15944Y40657D01*
X16071Y40650D01*
Y38920D01*
X16087Y38842D01*
X16131Y38776D01*
X16197Y38732D01*
X16275Y38716D01*
X16868D01*
X16873Y38708D01*
X16873Y38708D01*
X18566Y37016D01*
X18632Y36972D01*
X18710Y36956D01*
X23650Y36956D01*
X23728Y36972D01*
X23794Y37016D01*
X23838Y37082D01*
X23854Y37160D01*
Y39530D01*
X23854Y39530D01*
X23854Y39530D01*
Y40460D01*
X23838Y40538D01*
X23794Y40604D01*
X23728Y40648D01*
X23650Y40664D01*
X22804D01*
X20114Y43354D01*
X20048Y43398D01*
X19970Y43414D01*
X16275D01*
X16197Y43398D01*
X16131Y43354D01*
X16087Y43288D01*
X16071Y43210D01*
Y41478D01*
X15780D01*
X15624Y41447D01*
X15492Y41358D01*
X15492Y41358D01*
X15042Y40908D01*
X14953Y40776D01*
X14922Y40620D01*
X14922Y40620D01*
Y39299D01*
X10535Y34912D01*
X10447Y34780D01*
X10416Y34624D01*
X10416Y34624D01*
Y33303D01*
X10106Y32993D01*
X9790D01*
Y34285D01*
X8829D01*
X8790Y34293D01*
X6934D01*
X5808Y35418D01*
X5676Y35507D01*
X5520Y35538D01*
X5520Y35538D01*
X1960D01*
X1804Y35507D01*
X1672Y35418D01*
X451Y34198D01*
X334Y34246D01*
Y35552D01*
X332Y35564D01*
X370Y35855D01*
X487Y36137D01*
X673Y36380D01*
X915Y36566D01*
X1197Y36683D01*
X1489Y36721D01*
X1500Y36719D01*
X8250D01*
X8378Y36744D01*
X8486Y36817D01*
X8558Y36925D01*
X8584Y37052D01*
Y38738D01*
X8630Y38776D01*
X12110D01*
X12188Y38792D01*
X12254Y38836D01*
X12298Y38902D01*
X12314Y38980D01*
Y43020D01*
X12298Y43098D01*
X12254Y43164D01*
X12188Y43208D01*
X12110Y43224D01*
X8793D01*
X8723Y43330D01*
X8747Y43387D01*
X8933Y43630D01*
X9175Y43816D01*
X9457Y43933D01*
X9743Y43970D01*
X9750Y43969D01*
X21650D01*
X21778Y43994D01*
X21886Y44067D01*
X21958Y44175D01*
X21984Y44302D01*
Y47252D01*
X21982Y47260D01*
X22020Y47545D01*
X22137Y47827D01*
X22323Y48070D01*
X22565Y48256D01*
X22847Y48373D01*
X23147Y48412D01*
X23150Y48409D01*
Y48409D01*
X23201Y48419D01*
X23756D01*
X23881Y48415D01*
X23881Y48292D01*
Y47649D01*
X23876Y47626D01*
X23737Y47486D01*
X23604Y47288D01*
X23558Y47054D01*
Y46510D01*
X23470Y46422D01*
X23358Y46228D01*
X23300Y46012D01*
Y45788D01*
X23358Y45572D01*
X23470Y45378D01*
X23628Y45220D01*
X23634Y45216D01*
Y44830D01*
X23680Y44596D01*
X23813Y44397D01*
X23838Y44372D01*
Y44175D01*
X23850Y44116D01*
Y43575D01*
X23993D01*
Y43410D01*
X23980D01*
Y42110D01*
X25230D01*
Y43410D01*
X25217D01*
Y44020D01*
X25170Y44254D01*
X25057Y44424D01*
X25050Y44459D01*
Y44566D01*
X25062Y44625D01*
X25050Y44684D01*
Y45225D01*
X24857D01*
Y45425D01*
X24942Y45572D01*
X25000Y45788D01*
Y46012D01*
X24942Y46228D01*
X24830Y46422D01*
X24781Y46471D01*
Y46765D01*
X25081D01*
Y47306D01*
X25093Y47365D01*
Y47590D01*
X25081Y47649D01*
X25081Y48415D01*
X25207Y48419D01*
X25826D01*
X25931Y48365D01*
X25931Y48292D01*
Y47847D01*
X25916Y47824D01*
X25869Y47590D01*
Y47365D01*
X25916Y47131D01*
X25931Y47108D01*
Y46815D01*
X26119D01*
Y46400D01*
X26110Y46391D01*
X26005Y46209D01*
X25962Y46050D01*
X26750D01*
X27538D01*
X27495Y46209D01*
X27390Y46391D01*
X27342Y46439D01*
Y47116D01*
X27296Y47350D01*
X27163Y47549D01*
X27086Y47626D01*
X27046Y47824D01*
X27031Y47847D01*
X27031Y48365D01*
X27136Y48419D01*
X27839D01*
X27852Y48416D01*
D02*
G37*
G36*
X23650Y39530D02*
Y37160D01*
X18710Y37160D01*
X17017Y38853D01*
X17066Y38970D01*
X18225D01*
Y39695D01*
X17175D01*
Y39845D01*
X17025D01*
Y40720D01*
X16275D01*
Y41420D01*
X17025D01*
Y42295D01*
X17175D01*
Y42445D01*
X18225D01*
Y43170D01*
X18335Y43210D01*
X19970D01*
X23650Y39530D01*
D02*
G37*
G36*
X13490Y34124D02*
Y33485D01*
Y32835D01*
Y32185D01*
Y31535D01*
Y30885D01*
Y30030D01*
X13373Y29982D01*
X13098Y30257D01*
Y30399D01*
X13006Y30620D01*
X12838Y30789D01*
X12617Y30880D01*
X12378D01*
X12158Y30789D01*
X11989Y30620D01*
X11898Y30399D01*
Y30161D01*
X11989Y29940D01*
X12158Y29771D01*
X12378Y29680D01*
X12521D01*
X13142Y29059D01*
X13154Y29035D01*
X13156Y28893D01*
X12599Y28335D01*
X12381D01*
X12160Y28244D01*
X11991Y28075D01*
X11975Y28035D01*
X11848Y28061D01*
Y28821D01*
X11817Y28977D01*
X11728Y29109D01*
X11728Y29109D01*
X11214Y29623D01*
X11082Y29712D01*
X10926Y29743D01*
X10926Y29743D01*
X9790D01*
Y30385D01*
X9740D01*
Y30485D01*
X8790D01*
Y30785D01*
X9740D01*
Y30877D01*
X11135D01*
X11135Y30877D01*
X11291Y30908D01*
X11423Y30997D01*
X12828Y32402D01*
X12828Y32402D01*
X12917Y32534D01*
X12948Y32690D01*
Y33761D01*
X13363Y34177D01*
X13490Y34124D01*
D02*
G37*
%LPC*%
G36*
X27538Y45750D02*
X26750D01*
X25962D01*
X26005Y45591D01*
X26043Y45525D01*
Y45175D01*
X25900D01*
Y44882D01*
X25885Y44859D01*
X25851Y44688D01*
X25815Y44634D01*
X25768Y44400D01*
X25815Y44166D01*
X25900Y44039D01*
Y43625D01*
X26300D01*
Y44400D01*
X26600D01*
Y43625D01*
X27000D01*
Y44143D01*
X27015Y44166D01*
X27055Y44365D01*
X27087Y44397D01*
X27220Y44596D01*
X27266Y44830D01*
Y45285D01*
X27390Y45409D01*
X27495Y45591D01*
X27538Y45750D01*
D02*
G37*
G36*
X29037Y40008D02*
X28683D01*
X28342Y39916D01*
X28035Y39740D01*
X27785Y39490D01*
X27609Y39183D01*
X27517Y38842D01*
Y38488D01*
X27609Y38147D01*
X27639Y38093D01*
X24902Y35356D01*
X24775Y35408D01*
Y35500D01*
X23525D01*
Y34200D01*
X24775D01*
Y34378D01*
X25032D01*
X25208Y34413D01*
X25357Y34513D01*
X28288Y37444D01*
X28342Y37414D01*
X28683Y37322D01*
X29037D01*
X29378Y37414D01*
X29685Y37590D01*
X29935Y37840D01*
X30111Y38147D01*
X30203Y38488D01*
Y38842D01*
X30111Y39183D01*
X29935Y39490D01*
X29685Y39740D01*
X29378Y39916D01*
X29037Y40008D01*
D02*
G37*
G36*
X47875Y34450D02*
X44475D01*
Y33709D01*
X40525D01*
Y34450D01*
X37125D01*
Y33599D01*
X36490D01*
Y33790D01*
X35240D01*
Y32490D01*
X36490D01*
Y32681D01*
X37125D01*
Y32070D01*
X37125Y32050D01*
X37077Y31943D01*
X36430D01*
Y32160D01*
X36005D01*
Y31560D01*
Y30960D01*
X36430D01*
Y31025D01*
X36956D01*
X37954Y30027D01*
X37940Y29900D01*
X37175D01*
Y28900D01*
X38825D01*
X40475D01*
Y29900D01*
X38882D01*
Y30207D01*
X38847Y30383D01*
X38747Y30532D01*
X37471Y31808D01*
X37322Y31908D01*
X37245Y31923D01*
X37258Y32050D01*
X40525D01*
Y32791D01*
X44475D01*
Y32050D01*
X47875D01*
Y34450D01*
D02*
G37*
G36*
X21600Y33885D02*
X21150D01*
Y33460D01*
X21600D01*
Y33885D01*
D02*
G37*
G36*
X2920Y33712D02*
Y32970D01*
X3662D01*
X3609Y33167D01*
X3490Y33373D01*
X3323Y33540D01*
X3117Y33659D01*
X2920Y33712D01*
D02*
G37*
G36*
X21600Y33160D02*
X21150D01*
Y32735D01*
X21600D01*
Y33160D01*
D02*
G37*
G36*
X2620Y32670D02*
X1878D01*
X1931Y32473D01*
X2050Y32267D01*
X2217Y32100D01*
X2423Y31981D01*
X2620Y31928D01*
Y32670D01*
D02*
G37*
G36*
X3662D02*
X2920D01*
Y31928D01*
X3117Y31981D01*
X3323Y32100D01*
X3490Y32267D01*
X3609Y32473D01*
X3662Y32670D01*
D02*
G37*
G36*
X24600Y32350D02*
X24150D01*
Y31925D01*
X24600D01*
Y32350D01*
D02*
G37*
G36*
X21600D02*
X21150D01*
Y31925D01*
X21600D01*
Y32350D01*
D02*
G37*
G36*
X30600D02*
X30150D01*
Y31925D01*
X30600D01*
Y32350D01*
D02*
G37*
G36*
X27600D02*
X27150D01*
Y31925D01*
X27600D01*
Y32350D01*
D02*
G37*
G36*
X26850D02*
X26400D01*
Y31925D01*
X26850D01*
Y32350D01*
D02*
G37*
G36*
X29850D02*
X29400D01*
Y31925D01*
X29850D01*
Y32350D01*
D02*
G37*
G36*
X20850D02*
X20400D01*
Y31925D01*
X20850D01*
Y32350D01*
D02*
G37*
G36*
X23850D02*
X23400D01*
Y31925D01*
X23850D01*
Y32350D01*
D02*
G37*
G36*
X5930Y32323D02*
X5774Y32292D01*
X5696Y32240D01*
X5580D01*
Y32111D01*
X5553Y32071D01*
X5522Y31915D01*
Y31890D01*
X5522Y31890D01*
X5537Y31815D01*
X6030D01*
Y32303D01*
X5930Y32323D01*
D02*
G37*
G36*
X35705Y32160D02*
X35280D01*
Y31710D01*
X35705D01*
Y32160D01*
D02*
G37*
G36*
X30600Y31625D02*
X30150D01*
Y31200D01*
X30600D01*
Y31625D01*
D02*
G37*
G36*
X29850D02*
X29400D01*
Y31200D01*
X29850D01*
Y31625D01*
D02*
G37*
G36*
X27600D02*
X27150D01*
Y31200D01*
X27600D01*
Y31625D01*
D02*
G37*
G36*
X26850D02*
X26400D01*
Y31200D01*
X26850D01*
Y31625D01*
D02*
G37*
G36*
X24600D02*
X24150D01*
Y31200D01*
X24600D01*
Y31625D01*
D02*
G37*
G36*
X23850D02*
X23400D01*
Y31200D01*
X23850D01*
Y31625D01*
D02*
G37*
G36*
X21600D02*
X21150D01*
Y31200D01*
X21600D01*
Y31625D01*
D02*
G37*
G36*
X20850D02*
X20400D01*
Y31200D01*
X20850D01*
Y31625D01*
D02*
G37*
G36*
X6030Y31515D02*
X5580D01*
Y31090D01*
X6030D01*
Y31515D01*
D02*
G37*
G36*
X35705Y31410D02*
X35280D01*
Y30960D01*
X35705D01*
Y31410D01*
D02*
G37*
G36*
X34940Y33790D02*
X33690D01*
Y32490D01*
X33851D01*
Y32210D01*
X33680D01*
Y30910D01*
X33695D01*
X33708Y30890D01*
Y30651D01*
X33697Y30635D01*
X33663D01*
Y29335D01*
X34913D01*
Y30635D01*
X34913D01*
X34906Y30646D01*
X34908Y30651D01*
Y30890D01*
X34922Y30910D01*
X34930D01*
Y32210D01*
X34769D01*
Y32490D01*
X34940D01*
Y33790D01*
D02*
G37*
G36*
X2895Y31230D02*
X2645D01*
X2403Y31165D01*
X2187Y31040D01*
X2010Y30863D01*
X1885Y30647D01*
X1820Y30405D01*
Y30155D01*
X1885Y29913D01*
X2010Y29697D01*
X2187Y29520D01*
X2403Y29395D01*
X2645Y29330D01*
X2895D01*
X3137Y29395D01*
X3353Y29520D01*
X3530Y29697D01*
X3655Y29913D01*
X3720Y30155D01*
Y30405D01*
X3655Y30647D01*
X3530Y30863D01*
X3353Y31040D01*
X3137Y31165D01*
X2895Y31230D01*
D02*
G37*
G36*
X47825Y29900D02*
X46325D01*
Y28900D01*
X47825D01*
Y29900D01*
D02*
G37*
G36*
X46025D02*
X44525D01*
Y28900D01*
X46025D01*
Y29900D01*
D02*
G37*
G36*
X30650Y30850D02*
X29350D01*
Y29600D01*
X29541D01*
Y29325D01*
X29350D01*
Y28075D01*
X30650D01*
Y29325D01*
X30459D01*
Y29600D01*
X30650D01*
Y30850D01*
D02*
G37*
G36*
X27650D02*
X26350D01*
Y29600D01*
X26541D01*
Y29325D01*
X26350D01*
Y28075D01*
X27650D01*
Y29325D01*
X27459D01*
Y29600D01*
X27650D01*
Y30850D01*
D02*
G37*
G36*
X24650D02*
X23350D01*
Y29600D01*
X23539D01*
Y29325D01*
X23345D01*
Y28075D01*
X24645D01*
Y29325D01*
X24456D01*
Y29600D01*
X24650D01*
Y30850D01*
D02*
G37*
G36*
X21650D02*
X20350D01*
Y29600D01*
X20539D01*
Y29325D01*
X20345D01*
Y28075D01*
X21645D01*
Y29325D01*
X21456D01*
Y29600D01*
X21650D01*
Y30850D01*
D02*
G37*
G36*
X47825Y28600D02*
X46325D01*
Y27600D01*
X47825D01*
Y28600D01*
D02*
G37*
G36*
X46025D02*
X44525D01*
Y27600D01*
X46025D01*
Y28600D01*
D02*
G37*
G36*
X40475Y28600D02*
X38975D01*
Y27600D01*
X40475D01*
Y28600D01*
D02*
G37*
G36*
X38675D02*
X37175D01*
Y27600D01*
X38675D01*
Y28600D01*
D02*
G37*
G36*
X37980Y27310D02*
X36730D01*
Y27260D01*
X36729Y27260D01*
X36491D01*
X36457Y27283D01*
Y27310D01*
X35207D01*
Y26010D01*
X36457D01*
Y26037D01*
X36491Y26060D01*
X36729D01*
X36730Y26060D01*
Y26010D01*
X37980D01*
Y27310D01*
D02*
G37*
G36*
X2895Y28690D02*
X2645D01*
X2403Y28625D01*
X2187Y28500D01*
X2010Y28323D01*
X1885Y28107D01*
X1820Y27865D01*
Y27615D01*
X1885Y27373D01*
X2010Y27157D01*
X2187Y26980D01*
X2403Y26855D01*
X2645Y26790D01*
X2895D01*
X3137Y26855D01*
X3353Y26980D01*
X3530Y27157D01*
X3655Y27373D01*
X3720Y27615D01*
Y27865D01*
X3655Y28107D01*
X3530Y28323D01*
X3353Y28500D01*
X3137Y28625D01*
X2895Y28690D01*
D02*
G37*
G36*
X32863Y25676D02*
X32563D01*
Y25367D01*
X33292D01*
X33287Y25392D01*
X33188Y25541D01*
X33039Y25641D01*
X32863Y25676D01*
D02*
G37*
G36*
X33292Y25067D02*
X32563D01*
Y24758D01*
X32863D01*
X33039Y24793D01*
X33188Y24892D01*
X33287Y25041D01*
X33292Y25067D01*
D02*
G37*
G36*
X32263D02*
X31534D01*
X31540Y25041D01*
X31639Y24892D01*
X31788Y24793D01*
X31963Y24758D01*
X32263D01*
Y25067D01*
D02*
G37*
G36*
X39530Y27310D02*
X38280D01*
Y26010D01*
X38452D01*
Y25727D01*
X37963D01*
X37768Y25688D01*
X37603Y25577D01*
X37492Y25412D01*
X37454Y25217D01*
X37492Y25022D01*
X37603Y24856D01*
X37768Y24746D01*
X37963Y24707D01*
X38863D01*
X39059Y24746D01*
X39224Y24856D01*
X39334Y25022D01*
X39373Y25217D01*
X39334Y25412D01*
X39268Y25511D01*
Y26010D01*
X39530D01*
Y27310D01*
D02*
G37*
G36*
X32863Y24406D02*
X32563D01*
Y24097D01*
X33292D01*
X33287Y24122D01*
X33188Y24271D01*
X33039Y24371D01*
X32863Y24406D01*
D02*
G37*
G36*
X32263D02*
X31963D01*
X31788Y24371D01*
X31639Y24271D01*
X31540Y24122D01*
X31534Y24097D01*
X32263D01*
Y24406D01*
D02*
G37*
G36*
X33292Y23797D02*
X32563D01*
Y23488D01*
X32863D01*
X33039Y23523D01*
X33188Y23622D01*
X33287Y23771D01*
X33292Y23797D01*
D02*
G37*
G36*
X32263D02*
X31534D01*
X31540Y23771D01*
X31639Y23622D01*
X31788Y23523D01*
X31963Y23488D01*
X32263D01*
Y23797D01*
D02*
G37*
G36*
X38863Y24457D02*
X37963D01*
X37768Y24418D01*
X37603Y24307D01*
X37492Y24142D01*
X37454Y23947D01*
X37492Y23752D01*
X37603Y23586D01*
X37768Y23476D01*
X37955Y23439D01*
Y23185D01*
X37768Y23148D01*
X37603Y23037D01*
X37492Y22872D01*
X37454Y22677D01*
X37492Y22482D01*
X37603Y22316D01*
X37768Y22206D01*
X37963Y22167D01*
X38863D01*
X39059Y22206D01*
X39224Y22316D01*
X39334Y22482D01*
X39373Y22677D01*
X39334Y22872D01*
X39224Y23037D01*
X39059Y23148D01*
X38872Y23185D01*
Y23439D01*
X39059Y23476D01*
X39224Y23586D01*
X39334Y23752D01*
X39373Y23947D01*
X39334Y24142D01*
X39224Y24307D01*
X39059Y24418D01*
X38863Y24457D01*
D02*
G37*
G36*
X44800Y23892D02*
X44428Y23843D01*
X44081Y23699D01*
X43783Y23470D01*
X43554Y23172D01*
X43410Y22825D01*
X43361Y22452D01*
X43410Y22080D01*
X43554Y21733D01*
X43783Y21435D01*
X44081Y21206D01*
X44428Y21062D01*
X44800Y21013D01*
X45173Y21062D01*
X45520Y21206D01*
X45818Y21435D01*
X46047Y21733D01*
X46191Y22080D01*
X46240Y22452D01*
X46191Y22825D01*
X46047Y23172D01*
X45818Y23470D01*
X45520Y23699D01*
X45173Y23843D01*
X44800Y23892D01*
D02*
G37*
G36*
X6200D02*
X5828Y23843D01*
X5481Y23699D01*
X5183Y23470D01*
X4954Y23172D01*
X4810Y22825D01*
X4761Y22452D01*
X4810Y22080D01*
X4954Y21733D01*
X5183Y21435D01*
X5481Y21206D01*
X5828Y21062D01*
X6200Y21013D01*
X6573Y21062D01*
X6920Y21206D01*
X7218Y21435D01*
X7447Y21733D01*
X7591Y22080D01*
X7640Y22452D01*
X7591Y22825D01*
X7447Y23172D01*
X7218Y23470D01*
X6920Y23699D01*
X6573Y23843D01*
X6200Y23892D01*
D02*
G37*
G36*
X34090Y20280D02*
X32940D01*
Y19130D01*
X34090D01*
Y20280D01*
D02*
G37*
G36*
X32640D02*
X31490D01*
Y19130D01*
X32640D01*
Y20280D01*
D02*
G37*
G36*
X38863Y21917D02*
X37963D01*
X37768Y21878D01*
X37603Y21767D01*
X37492Y21602D01*
X37454Y21407D01*
X37492Y21212D01*
X37603Y21046D01*
X37768Y20936D01*
X37955Y20899D01*
Y20330D01*
X36840D01*
Y17630D01*
X39540D01*
Y18381D01*
X39900D01*
X39950Y18331D01*
X40171Y18240D01*
X40409D01*
X40630Y18331D01*
X40799Y18500D01*
X40890Y18721D01*
Y18959D01*
X40799Y19180D01*
X40630Y19349D01*
X40409Y19440D01*
X40171D01*
X39950Y19349D01*
X39900Y19299D01*
X39540D01*
Y20330D01*
X38872D01*
Y20899D01*
X39059Y20936D01*
X39224Y21046D01*
X39334Y21212D01*
X39373Y21407D01*
X39334Y21602D01*
X39224Y21767D01*
X39059Y21878D01*
X38863Y21917D01*
D02*
G37*
G36*
X29440Y18530D02*
X28990D01*
Y18105D01*
X29440D01*
Y18530D01*
D02*
G37*
G36*
X28690D02*
X28240D01*
Y18105D01*
X28690D01*
Y18530D01*
D02*
G37*
G36*
X34090Y18830D02*
X32940D01*
Y17680D01*
X34090D01*
Y18830D01*
D02*
G37*
G36*
X32640D02*
X31490D01*
Y17680D01*
X32640D01*
Y18830D01*
D02*
G37*
G36*
X29440Y17805D02*
X28990D01*
Y17380D01*
X29440D01*
Y17805D01*
D02*
G37*
G36*
X28690D02*
X28240D01*
Y17380D01*
X28690D01*
Y17805D01*
D02*
G37*
G36*
X19660Y15820D02*
X19410D01*
X19168Y15755D01*
X18951Y15630D01*
X18774Y15453D01*
X18649Y15237D01*
X18585Y14995D01*
Y14745D01*
X18649Y14503D01*
X18774Y14287D01*
X18951Y14110D01*
X19168Y13985D01*
X19410Y13920D01*
X19660D01*
X19901Y13985D01*
X20118Y14110D01*
X20295Y14287D01*
X20420Y14503D01*
X20485Y14745D01*
Y14995D01*
X20420Y15237D01*
X20295Y15453D01*
X20118Y15630D01*
X19901Y15755D01*
X19660Y15820D01*
D02*
G37*
G36*
Y13280D02*
X19410D01*
X19168Y13215D01*
X18951Y13090D01*
X18774Y12913D01*
X18649Y12697D01*
X18585Y12455D01*
Y12205D01*
X18649Y11963D01*
X18774Y11747D01*
X18951Y11570D01*
X19168Y11445D01*
X19410Y11380D01*
X19660D01*
X19901Y11445D01*
X20118Y11570D01*
X20295Y11747D01*
X20420Y11963D01*
X20485Y12205D01*
Y12455D01*
X20420Y12697D01*
X20295Y12913D01*
X20118Y13090D01*
X19901Y13215D01*
X19660Y13280D01*
D02*
G37*
G36*
X18225Y42145D02*
X17325D01*
Y41420D01*
X18225D01*
Y42145D01*
D02*
G37*
G36*
Y40720D02*
X17325D01*
Y39995D01*
X18225D01*
Y40720D01*
D02*
G37*
G36*
X22300Y39958D02*
X22280D01*
Y38815D01*
X23423D01*
Y38835D01*
X23335Y39164D01*
X23165Y39459D01*
X22924Y39700D01*
X22629Y39870D01*
X22300Y39958D01*
D02*
G37*
G36*
X21980D02*
X21960D01*
X21631Y39870D01*
X21336Y39700D01*
X21095Y39459D01*
X20925Y39164D01*
X20837Y38835D01*
Y38815D01*
X21980D01*
Y39958D01*
D02*
G37*
G36*
X23423Y38515D02*
X22280D01*
Y37372D01*
X22300D01*
X22629Y37460D01*
X22924Y37630D01*
X23165Y37871D01*
X23335Y38166D01*
X23423Y38495D01*
Y38515D01*
D02*
G37*
G36*
X21980D02*
X20837D01*
Y38495D01*
X20925Y38166D01*
X21095Y37871D01*
X21336Y37630D01*
X21631Y37460D01*
X21960Y37372D01*
X21980D01*
Y38515D01*
D02*
G37*
%LPD*%
D10*
X24605Y42760D02*
D03*
X26155D02*
D03*
X22600Y34850D02*
D03*
X24150D02*
D03*
X35838Y29985D02*
D03*
X34288D02*
D03*
X35855Y31560D02*
D03*
X34305D02*
D03*
X38905Y26660D02*
D03*
X37355D02*
D03*
X34315Y33140D02*
D03*
X35865D02*
D03*
X35832Y26660D02*
D03*
X34282D02*
D03*
X4695Y27040D02*
D03*
X6245D02*
D03*
X4695Y28570D02*
D03*
X6245D02*
D03*
D11*
X32413Y21407D02*
D03*
D12*
X38413Y25217D02*
D03*
Y23947D02*
D03*
Y22677D02*
D03*
Y21407D02*
D03*
X32413Y25217D02*
D03*
Y23947D02*
D03*
Y22677D02*
D03*
D18*
X11440Y27410D02*
X14130Y24720D01*
X17570D01*
X28145Y22235D02*
X28615D01*
X28840Y22460D01*
X12453Y21707D02*
X27617D01*
X28145Y22235D01*
X8630Y25530D02*
X12453Y21707D01*
X30687Y22660D02*
Y25307D01*
X29090Y22685D02*
X30687D01*
X28915Y22510D02*
X29090Y22685D01*
X34507Y26885D02*
Y27677D01*
X35730Y28900D01*
Y29877D01*
X35838Y29985D01*
X30687Y22660D02*
X32413D01*
Y22677D01*
Y21407D02*
Y22660D01*
X5930Y31890D02*
X6155Y31665D01*
X5930Y31890D02*
Y31915D01*
X6155Y31665D02*
X6180D01*
X6405Y31440D01*
X36610Y26660D02*
X37355D01*
X35832D02*
X36610D01*
X12498Y30280D02*
X13443Y29335D01*
X14490D01*
X13525Y28685D02*
X14490D01*
X12575Y27735D02*
X13525Y28685D01*
X12500Y27735D02*
X12575D01*
X8790Y28685D02*
X9990D01*
X6360D02*
X8790D01*
X10430Y26980D02*
X13720Y23690D01*
X9990Y28685D02*
X10430Y28245D01*
Y26980D02*
Y28245D01*
X10926Y29335D02*
X11440Y28821D01*
Y27410D02*
Y28821D01*
X8790Y29335D02*
X10926D01*
X10824Y34624D02*
X15330Y39130D01*
Y40620D02*
X15780Y41070D01*
X15330Y39130D02*
Y40620D01*
X15780Y41070D02*
X17360D01*
X8790Y28035D02*
X9372D01*
Y26518D02*
X13001Y22889D01*
X9372Y26518D02*
Y28035D01*
X13720Y23690D02*
X26423D01*
X13001Y22889D02*
X25481D01*
X7975Y28035D02*
X8790D01*
X19360Y27870D02*
Y31180D01*
X14490Y33235D02*
X17305D01*
X19360Y31180D01*
X14490Y33885D02*
X18075D01*
X18310Y34830D02*
X19790Y33350D01*
X13440Y34830D02*
X18310D01*
X18830Y35760D02*
X19730Y34860D01*
X13170Y35760D02*
X18830D01*
X19730Y34860D02*
X21000D01*
X28580Y42760D02*
X32040Y39300D01*
X26155Y42760D02*
X28580D01*
X32040Y26660D02*
Y39300D01*
X12540Y33930D02*
X13440Y34830D01*
X12540Y32690D02*
Y33930D01*
X11610Y32765D02*
Y34200D01*
X13170Y35760D01*
X10824Y33134D02*
Y34624D01*
X520Y33690D02*
X1960Y35130D01*
X520Y21280D02*
Y33690D01*
Y21280D02*
X4390Y17410D01*
X1960Y35130D02*
X5520D01*
X1254Y22446D02*
Y33284D01*
X2320Y34350D02*
X5260D01*
X1254Y33284D02*
X2320Y34350D01*
X1254Y22446D02*
X3750Y19950D01*
X4390Y17410D02*
X19535D01*
X3750Y19950D02*
X19535D01*
X5520Y35130D02*
X6765Y33885D01*
X8790D01*
X6375Y33235D02*
X8790D01*
X5260Y34350D02*
X6375Y33235D01*
X11135Y31285D02*
X12540Y32690D01*
X10780Y31935D02*
X11610Y32765D01*
X10275Y32585D02*
X10824Y33134D01*
X5646Y25530D02*
X8630D01*
X8815Y32585D02*
X10275D01*
X8790Y31285D02*
X11135D01*
X21000Y34860D02*
X21545D01*
X16636Y32585D02*
X18620Y30601D01*
X14305Y30635D02*
X16385D01*
X17760Y29260D01*
X18620Y27440D02*
Y30601D01*
X14510Y29985D02*
X16085D01*
X16982Y29088D01*
X14490Y32585D02*
X16636D01*
X8790Y31935D02*
X10780D01*
X4877Y26299D02*
Y26858D01*
Y26299D02*
X5646Y25530D01*
X4695Y27040D02*
X4877Y26858D01*
X4470Y26790D02*
X4695Y27015D01*
Y27040D01*
X4445Y26790D02*
X4470D01*
X2855Y25200D02*
X4445Y26790D01*
X2770Y25200D02*
X2855D01*
X21550Y34855D02*
X22595D01*
X21545Y34860D02*
X21550Y34855D01*
X22595D02*
X22600Y34850D01*
X4695Y27040D02*
Y28570D01*
X26423Y23690D02*
X27260Y22853D01*
Y22830D02*
Y22853D01*
X25481Y22889D02*
X25540Y22830D01*
X16982Y26868D02*
X19360Y24490D01*
X27340D02*
X29750Y26900D01*
X19360Y24490D02*
X27340D01*
X19360Y27870D02*
X20080Y27150D01*
X20995D01*
X23745Y26925D02*
X23970Y27150D01*
X16982Y26868D02*
Y29088D01*
X23745Y26900D02*
Y26925D01*
X18620Y27440D02*
X20110Y25950D01*
X17760Y27200D02*
Y29260D01*
Y27200D02*
X19730Y25230D01*
X23970Y27150D02*
X23995D01*
X19730Y25230D02*
X25080D01*
X22794Y25950D02*
X23745Y26900D01*
X20110Y25950D02*
X22794D01*
X27000Y30225D02*
X27000Y30225D01*
Y28700D02*
X27000Y28700D01*
X23997Y30222D02*
X24000Y30225D01*
X23995Y28700D02*
X23997Y28703D01*
X20997Y30222D02*
X21000Y30225D01*
X20995Y28700D02*
X20997Y28703D01*
X30687Y25307D02*
X32040Y26660D01*
X25080Y25230D02*
X26750Y26900D01*
X32040Y26660D02*
X34282D01*
X34507Y26885D01*
X38860Y26615D02*
X38905Y26660D01*
X38860Y25309D02*
Y26615D01*
X38768Y25217D02*
X38860Y25309D01*
X38413Y25217D02*
X38768D01*
X4695Y28570D02*
X4695Y28570D01*
X6180Y30115D02*
X6310Y29985D01*
X8790D01*
X4695Y28570D02*
X4760Y28635D01*
Y29440D02*
X5340Y30020D01*
X6085D02*
X6180Y30115D01*
X4760Y28635D02*
Y29440D01*
X5340Y30020D02*
X6085D01*
X6405Y31440D02*
X6860D01*
X7665Y30635D02*
X8790D01*
X6860Y31440D02*
X7665Y30635D01*
X8802Y32572D02*
X8815Y32585D01*
X6245Y28570D02*
X6360Y28685D01*
X6245Y27040D02*
X6301Y27096D01*
X7036D02*
X7975Y28035D01*
X6301Y27096D02*
X7036D01*
X26750Y26925D02*
X26975Y27150D01*
X27000D01*
X26750Y26900D02*
Y26925D01*
X29750D02*
X29975Y27150D01*
X30000D01*
X29750Y26900D02*
Y26925D01*
D19*
X34017Y22677D02*
X35113Y23773D01*
X32413Y22677D02*
X34017D01*
X35113Y23773D02*
Y25123D01*
X35170Y25180D01*
X38413Y22677D02*
Y23947D01*
X34298Y30058D02*
X34311Y30045D01*
X34308Y30770D02*
Y31557D01*
X34298Y30058D02*
Y30761D01*
X34308Y30770D01*
X28860Y38665D02*
Y38665D01*
X25032Y34837D02*
X28860Y38665D01*
X24132Y34837D02*
X25032D01*
X38298Y18840D02*
X40290D01*
X38278Y18860D02*
X38298Y18840D01*
X30000Y28700D02*
Y30225D01*
X27000Y28700D02*
Y30225D01*
X23997Y28703D02*
Y30222D01*
X20997Y28703D02*
Y30222D01*
X38278Y18860D02*
X38413Y18995D01*
Y21407D01*
X38423Y29152D02*
X38825Y28750D01*
X38423Y29152D02*
Y30207D01*
X37146Y31484D02*
X38423Y30207D01*
X35931Y31484D02*
X37146D01*
X35855Y31560D02*
X35931Y31484D01*
X34305Y31560D02*
X34308Y31557D01*
X34305Y31560D02*
X34310Y31565D01*
Y33135D01*
X34315Y33140D01*
X35865D02*
X38715D01*
X38825Y33250D01*
X46175D01*
D24*
X26750Y45900D02*
D03*
X24150D02*
D03*
D25*
X2770Y25200D02*
D03*
Y27740D02*
D03*
Y30280D02*
D03*
Y32820D02*
D03*
X19535Y19950D02*
D03*
Y17410D02*
D03*
Y14870D02*
D03*
Y12330D02*
D03*
D27*
X17570Y24720D02*
D03*
X32880Y16250D02*
D03*
X36600Y14540D02*
D03*
X35170Y25180D02*
D03*
X31420Y14510D02*
D03*
X32010Y9950D02*
D03*
X4070Y11540D02*
D03*
Y12560D02*
D03*
Y13540D02*
D03*
X16520Y10530D02*
D03*
X16580Y13480D02*
D03*
X34308Y30770D02*
D03*
X12498Y30280D02*
D03*
X12500Y27735D02*
D03*
X18075Y33885D02*
D03*
X19790Y33350D02*
D03*
X9050Y42600D02*
D03*
X9020Y41620D02*
D03*
Y40570D02*
D03*
Y39530D02*
D03*
X40290Y18840D02*
D03*
X27260Y22830D02*
D03*
X25540D02*
D03*
X36610Y26660D02*
D03*
D28*
X26450Y44400D02*
D03*
X24450D02*
D03*
X24481Y47590D02*
D03*
X26481D02*
D03*
D29*
X28840Y17955D02*
D03*
Y19505D02*
D03*
Y20932D02*
D03*
Y22482D02*
D03*
X21000Y33310D02*
D03*
Y34860D02*
D03*
X6180Y30115D02*
D03*
Y31665D02*
D03*
X21000Y31775D02*
D03*
Y30225D02*
D03*
X20995Y28700D02*
D03*
Y27150D02*
D03*
X23995Y28700D02*
D03*
Y27150D02*
D03*
X24000Y31775D02*
D03*
Y30225D02*
D03*
X27000Y28700D02*
D03*
Y27150D02*
D03*
X27000Y31775D02*
D03*
Y30225D02*
D03*
X30000Y28700D02*
D03*
Y27150D02*
D03*
X30000Y31775D02*
D03*
Y30225D02*
D03*
D30*
X17175Y39845D02*
D03*
X10625D02*
D03*
X17175Y42295D02*
D03*
X10625D02*
D03*
D31*
X38190Y18980D02*
D03*
X32790D02*
D03*
D32*
X8790Y28035D02*
D03*
Y28685D02*
D03*
Y29335D02*
D03*
Y29985D02*
D03*
Y30635D02*
D03*
Y31285D02*
D03*
Y31935D02*
D03*
Y32585D02*
D03*
Y33235D02*
D03*
Y33885D02*
D03*
X14490D02*
D03*
Y32585D02*
D03*
Y31935D02*
D03*
Y31285D02*
D03*
Y30635D02*
D03*
Y29985D02*
D03*
Y29335D02*
D03*
Y28685D02*
D03*
Y28035D02*
D03*
Y33235D02*
D03*
D33*
X46175Y33250D02*
D03*
Y28750D02*
D03*
X38825Y33250D02*
D03*
Y28750D02*
D03*
D34*
X30350Y16670D02*
Y20520D01*
X28830Y19505D02*
Y20930D01*
X29940D01*
X30350Y20520D01*
X30770Y16250D02*
X32880D01*
X30350Y16670D02*
X30770Y16250D01*
X32010Y9950D02*
X36600Y14540D01*
X36600D01*
D35*
X24605Y42785D02*
Y44020D01*
X24450Y44175D02*
Y44400D01*
Y44175D02*
X24605Y44020D01*
X24150Y45900D02*
X24246Y45804D01*
Y44830D02*
X24450Y44625D01*
X24246Y44830D02*
Y45804D01*
X24150Y45900D02*
X24170Y45920D01*
Y47054D02*
X24481Y47365D01*
Y47590D01*
X24170Y45920D02*
Y47054D01*
X26654Y45804D02*
X26750Y45900D01*
X26654Y44830D02*
Y45804D01*
X26450Y44625D02*
X26654Y44830D01*
X26450Y44400D02*
Y44625D01*
X26730Y45920D02*
Y47116D01*
X26481Y47365D02*
Y47590D01*
Y47365D02*
X26730Y47116D01*
X26380Y44400D02*
X26445Y44465D01*
D36*
X30000Y30225D02*
X30000Y30225D01*
D37*
X22040Y38810D02*
D03*
D38*
X18032Y41065D02*
D03*
D39*
X10370Y41000D02*
D03*
D40*
X22130Y38665D02*
D03*
X28860D02*
D03*
%TF.MD5,b6fd796229252afcc38fa46e626417f1*%
M02*
