%TF.GenerationSoftware,Altium Limited,Altium Designer,21.6.4 (81)*%
G04 Layer_Color=16711935*
%FSLAX43Y43*%
%MOMM*%
%TF.SameCoordinates,1CE7F002-25C6-4FEA-A4B7-191A7A1919B5*%
%TF.FilePolarity,Negative*%
%TF.FileFunction,Soldermask,Bot*%
%TF.Part,Single*%
G01*
G75*
%TA.AperFunction,SMDPad,CuDef*%
%ADD44R,0.830X1.280*%
%ADD45R,0.920X0.870*%
%ADD46R,0.870X0.920*%
%ADD47R,1.820X1.470*%
%ADD48O,1.520X0.620*%
%ADD49R,1.520X0.620*%
%ADD50R,2.320X2.320*%
%ADD51R,1.620X0.420*%
%ADD52R,3.100X2.100*%
%TA.AperFunction,ComponentPad*%
%ADD53C,1.320*%
%ADD54C,1.520*%
%ADD55C,2.489*%
D44*
X26450Y44400D02*
D03*
X24450D02*
D03*
X24481Y47590D02*
D03*
X26481D02*
D03*
D45*
X28840Y17955D02*
D03*
Y19505D02*
D03*
Y20932D02*
D03*
Y22482D02*
D03*
X21000Y33310D02*
D03*
Y34860D02*
D03*
X6180Y30115D02*
D03*
Y31665D02*
D03*
X21000Y31775D02*
D03*
Y30225D02*
D03*
X20995Y28700D02*
D03*
Y27150D02*
D03*
X23995Y28700D02*
D03*
Y27150D02*
D03*
X24000Y31775D02*
D03*
Y30225D02*
D03*
X27000Y28700D02*
D03*
Y27150D02*
D03*
X27000Y31775D02*
D03*
Y30225D02*
D03*
X30000Y28700D02*
D03*
Y27150D02*
D03*
X30000Y31775D02*
D03*
Y30225D02*
D03*
D46*
X24605Y42760D02*
D03*
X26155D02*
D03*
X22600Y34850D02*
D03*
X24150D02*
D03*
X35838Y29985D02*
D03*
X34288D02*
D03*
X35855Y31560D02*
D03*
X34305D02*
D03*
X38905Y26660D02*
D03*
X37355D02*
D03*
X34315Y33140D02*
D03*
X35865D02*
D03*
X35832Y26660D02*
D03*
X34282D02*
D03*
X4695Y27040D02*
D03*
X6245D02*
D03*
X4695Y28570D02*
D03*
X6245D02*
D03*
D47*
X17175Y39845D02*
D03*
X10625D02*
D03*
X17175Y42295D02*
D03*
X10625D02*
D03*
D48*
X38413Y25217D02*
D03*
Y23947D02*
D03*
Y22677D02*
D03*
Y21407D02*
D03*
X32413Y25217D02*
D03*
Y23947D02*
D03*
Y22677D02*
D03*
D49*
Y21407D02*
D03*
D50*
X38190Y18980D02*
D03*
X32790D02*
D03*
D51*
X8790Y28035D02*
D03*
Y28685D02*
D03*
Y29335D02*
D03*
Y29985D02*
D03*
Y30635D02*
D03*
Y31285D02*
D03*
Y31935D02*
D03*
Y32585D02*
D03*
Y33235D02*
D03*
Y33885D02*
D03*
X14490D02*
D03*
Y32585D02*
D03*
Y31935D02*
D03*
Y31285D02*
D03*
Y30635D02*
D03*
Y29985D02*
D03*
Y29335D02*
D03*
Y28685D02*
D03*
Y28035D02*
D03*
Y33235D02*
D03*
D52*
X46175Y33250D02*
D03*
Y28750D02*
D03*
X38825Y33250D02*
D03*
Y28750D02*
D03*
D53*
X26750Y45900D02*
D03*
X24150D02*
D03*
D54*
X2770Y25200D02*
D03*
Y27740D02*
D03*
Y30280D02*
D03*
Y32820D02*
D03*
X19535Y19950D02*
D03*
Y17410D02*
D03*
Y14870D02*
D03*
Y12330D02*
D03*
D55*
X22130Y38665D02*
D03*
X28860D02*
D03*
%TF.MD5,a84914009a5a3dbbeb9a32facb7fccad*%
M02*
