%TF.GenerationSoftware,Altium Limited,Altium Designer,21.6.4 (81)*%
G04 Layer_Color=8388736*
%FSLAX43Y43*%
%MOMM*%
%TF.SameCoordinates,1CE7F002-25C6-4FEA-A4B7-191A7A1919B5*%
%TF.FilePolarity,Negative*%
%TF.FileFunction,Soldermask,Top*%
%TF.Part,Single*%
G01*
G75*
%TA.AperFunction,SMDPad,CuDef*%
%ADD46R,0.870X0.920*%
%ADD48O,1.520X0.620*%
%ADD49R,1.520X0.620*%
%TA.AperFunction,ComponentPad*%
%ADD53C,1.320*%
%ADD54C,1.520*%
%TA.AperFunction,ConnectorPad*%
%ADD56R,6.820X8.220*%
%ADD57R,1.720X7.220*%
%ADD58R,1.720X7.220*%
%ADD59R,9.520X7.220*%
%ADD60R,6.520X8.720*%
%TA.AperFunction,ComponentPad*%
%ADD61C,3.003*%
D46*
X33625Y24100D02*
D03*
X35175D02*
D03*
D48*
X30600Y21290D02*
D03*
Y20020D02*
D03*
Y18750D02*
D03*
X36600Y22560D02*
D03*
Y21290D02*
D03*
Y20020D02*
D03*
Y18750D02*
D03*
D49*
X30600Y22560D02*
D03*
D53*
X26750Y45900D02*
D03*
X24150D02*
D03*
D54*
X2770Y25200D02*
D03*
Y27740D02*
D03*
Y30280D02*
D03*
Y32820D02*
D03*
X19535Y19950D02*
D03*
Y17410D02*
D03*
Y14870D02*
D03*
Y12330D02*
D03*
D56*
X42100Y4300D02*
D03*
D57*
X34450Y4800D02*
D03*
X32050D02*
D03*
X18950D02*
D03*
D58*
X16550D02*
D03*
D59*
X10250D02*
D03*
D60*
X8750Y4050D02*
D03*
D61*
X22130Y38665D02*
D03*
X28860D02*
D03*
%TF.MD5,c804d61be53e49a6cf2ccb5fbac681cc*%
M02*
