%TF.GenerationSoftware,Altium Limited,Altium Designer,21.6.4 (81)*%
G04 Layer_Color=255*
%FSLAX43Y43*%
%MOMM*%
%TF.SameCoordinates,1CE7F002-25C6-4FEA-A4B7-191A7A1919B5*%
%TF.FilePolarity,Positive*%
%TF.FileFunction,Pads,Top*%
%TF.Part,Single*%
G01*
G75*
%TA.AperFunction,SMDPad,CuDef*%
%ADD10R,0.850X0.900*%
%ADD11R,1.500X0.600*%
%ADD12O,1.500X0.600*%
%TA.AperFunction,ConnectorPad*%
%ADD13R,6.800X8.200*%
%ADD14R,1.700X7.200*%
%ADD15R,1.700X7.200*%
%ADD16R,9.500X7.200*%
%ADD17R,6.500X8.700*%
%TA.AperFunction,ComponentPad*%
%ADD24C,1.300*%
%ADD25C,1.500*%
%ADD26C,2.800*%
D10*
X33625Y24100D02*
D03*
X35175D02*
D03*
D11*
X30600Y22560D02*
D03*
D12*
Y21290D02*
D03*
Y20020D02*
D03*
Y18750D02*
D03*
X36600Y22560D02*
D03*
Y21290D02*
D03*
Y20020D02*
D03*
Y18750D02*
D03*
D13*
X42100Y4300D02*
D03*
D14*
X34450Y4800D02*
D03*
X32050D02*
D03*
X18950D02*
D03*
D15*
X16550D02*
D03*
D16*
X10250D02*
D03*
D17*
X8750Y4050D02*
D03*
D24*
X26750Y45900D02*
D03*
X24150D02*
D03*
D25*
X2770Y25200D02*
D03*
Y27740D02*
D03*
Y30280D02*
D03*
Y32820D02*
D03*
X19535Y19950D02*
D03*
Y17410D02*
D03*
Y14870D02*
D03*
Y12330D02*
D03*
D26*
X22130Y38665D02*
D03*
X28860D02*
D03*
%TF.MD5,fe58666fe44a8a925b8df0da773b9891*%
M02*
