%TF.GenerationSoftware,Altium Limited,Altium Designer,21.6.4 (81)*%
G04 Layer_Color=16711935*
%FSLAX43Y43*%
%MOMM*%
%TF.SameCoordinates,1CE7F002-25C6-4FEA-A4B7-191A7A1919B5*%
%TF.FilePolarity,Positive*%
%TF.FileFunction,Keep-out,Top*%
%TF.Part,Single*%
G01*
G75*
%TA.AperFunction,NonConductor*%
%ADD42C,0.254*%
D42*
X48750Y16000D02*
G03*
X48750Y15000I0J-500D01*
G01*
X27260D02*
G03*
X27260Y16000I0J500D01*
G01*
X23760D02*
G03*
X23760Y15000I0J-500D01*
G01*
X2250D02*
G03*
X2250Y16000I0J500D01*
G01*
X42752Y42800D02*
G03*
X41252Y44300I-1500J0D01*
G01*
X29352Y47250D02*
G03*
X27852Y48750I-1500J0D01*
G01*
X9760Y44302D02*
G03*
X8260Y42802I0J-1500D01*
G01*
X23150Y48742D02*
G03*
X21650Y47242I0J-1500D01*
G01*
X51002Y35550D02*
G03*
X49502Y37050I-1500J0D01*
G01*
X1500Y37052D02*
G03*
X0Y35552I0J-1500D01*
G01*
X45900Y22452D02*
G03*
X45900Y22452I-1100J0D01*
G01*
X7300D02*
G03*
X7300Y22452I-1100J0D01*
G01*
X27260Y18490D02*
G03*
X23760Y18490I-1750J0D01*
G01*
X48750Y16000D02*
Y17752D01*
Y2802D02*
Y15000D01*
X27260Y2D02*
X45950D01*
X27260D02*
Y15000D01*
X27260Y16000D02*
Y18490D01*
X23760Y12D02*
Y15000D01*
Y16000D02*
Y18490D01*
X2250Y2610D02*
Y15000D01*
X2250Y16000D02*
Y17752D01*
X19075Y2D02*
X23750D01*
X5340Y-480D02*
X12110D01*
X12592Y2D01*
X45950D02*
X48750Y2802D01*
Y17752D02*
X51000D01*
Y35552D01*
X42750Y37052D02*
X49500D01*
X42750D02*
Y42802D01*
X29370Y44302D02*
X41250D01*
X29350D02*
Y47252D01*
X23150Y48752D02*
X27850D01*
X21650Y44302D02*
Y47252D01*
X9750Y44302D02*
X21650D01*
X8250Y37052D02*
Y42802D01*
X0Y17752D02*
X2250D01*
Y2610D02*
X5340Y-480D01*
X12592Y2D02*
X19075D01*
X1500Y37052D02*
X8250D01*
X0Y17777D02*
Y35552D01*
%TF.MD5,f37ea3a524890604ee05bd37f165ebf0*%
M02*
