%TF.GenerationSoftware,Altium Limited,Altium Designer,21.6.4 (81)*%
G04 Layer_Color=32896*
%FSLAX43Y43*%
%MOMM*%
%TF.SameCoordinates,1CE7F002-25C6-4FEA-A4B7-191A7A1919B5*%
%TF.FilePolarity,Positive*%
%TF.FileFunction,Other,Bottom_Assembly*%
%TF.Part,Single*%
G01*
G75*
%TA.AperFunction,NonConductor*%
%ADD42C,0.254*%
%ADD62C,0.100*%
%ADD63R,1.375X0.575*%
D42*
X8502Y27010D02*
G03*
X8502Y27010I-112J0D01*
G01*
D62*
X36013Y20857D02*
G03*
X34813Y20857I-600J0D01*
G01*
X26974Y43638D02*
Y45162D01*
X23926Y43638D02*
Y45162D01*
X26974D01*
X23926Y43638D02*
X26974D01*
X29515Y17305D02*
Y20155D01*
X28165Y17305D02*
Y20155D01*
Y17305D02*
X29515D01*
X28165Y20155D02*
X29515D01*
Y20282D02*
Y23132D01*
X28165Y20282D02*
Y23132D01*
Y20282D02*
X29515D01*
X28165Y23132D02*
X29515D01*
X23955Y42085D02*
X26805D01*
X23955Y43435D02*
X26805D01*
X23955Y42085D02*
Y43435D01*
X26805Y42085D02*
Y43435D01*
X23957Y46828D02*
X27005D01*
X23957Y48352D02*
X27005D01*
X23957Y46828D02*
Y48352D01*
X27005Y46828D02*
Y48352D01*
X21950Y34175D02*
X24800D01*
X21950Y35525D02*
X24800D01*
X21950Y34175D02*
Y35525D01*
X24800Y34175D02*
Y35525D01*
X21675Y32660D02*
Y35510D01*
X20325Y32660D02*
Y35510D01*
Y32660D02*
X21675D01*
X20325Y35510D02*
X21675D01*
X9625Y43120D02*
X18150D01*
X9625Y39020D02*
X18150D01*
Y43120D01*
X9625Y39020D02*
Y43120D01*
X33463Y20857D02*
Y25757D01*
X37363Y20857D02*
Y25757D01*
X36013Y20857D02*
X37363D01*
X33463Y25757D02*
X37363D01*
X33463Y20857D02*
X34813D01*
X37840Y17805D02*
Y20155D01*
X33140Y17805D02*
Y20155D01*
X37840D01*
X33140Y17805D02*
X37840D01*
X33638Y30660D02*
X36488D01*
X33638Y29310D02*
X36488D01*
Y30660D01*
X33638Y29310D02*
Y30660D01*
X36505Y30885D02*
Y32235D01*
X33655Y30885D02*
Y32235D01*
X36505D01*
X33655Y30885D02*
X36505D01*
X15440Y27510D02*
Y34410D01*
X7840D02*
X15440D01*
X7840Y27510D02*
Y34410D01*
Y27510D02*
X15440D01*
X36705Y27335D02*
X39555D01*
X36705Y25985D02*
X39555D01*
Y27335D01*
X36705Y25985D02*
Y27335D01*
X33665Y32465D02*
Y33815D01*
X36515Y32465D02*
Y33815D01*
X33665Y32465D02*
X36515D01*
X33665Y33815D02*
X36515D01*
X33632Y27335D02*
X36482D01*
X33632Y25985D02*
X36482D01*
Y27335D01*
X33632Y25985D02*
Y27335D01*
X4045Y26365D02*
Y27715D01*
X6895Y26365D02*
Y27715D01*
X4045Y26365D02*
X6895D01*
X4045Y27715D02*
X6895D01*
X4045Y27895D02*
Y29245D01*
X6895Y27895D02*
Y29245D01*
X4045Y27895D02*
X6895D01*
X4045Y29245D02*
X6895D01*
X6855Y29465D02*
Y32315D01*
X5505Y29465D02*
Y32315D01*
Y29465D02*
X6855D01*
X5505Y32315D02*
X6855D01*
X20325Y32425D02*
X21675D01*
X20325Y29550D02*
X21675D01*
X20325D02*
Y32425D01*
X21675Y29550D02*
Y32425D01*
X20320Y29350D02*
X21670D01*
X20320Y26500D02*
X21670D01*
X20320D02*
Y29350D01*
X21670Y26500D02*
Y29350D01*
X23320D02*
X24670D01*
X23320Y26500D02*
X24670D01*
X23320D02*
Y29350D01*
X24670Y26500D02*
Y29350D01*
X23325Y32425D02*
X24675D01*
X23325Y29550D02*
X24675D01*
X23325D02*
Y32425D01*
X24675Y29550D02*
Y32425D01*
X26325Y29350D02*
X27675D01*
X26325Y26500D02*
X27675D01*
X26325D02*
Y29350D01*
X27675Y26500D02*
Y29350D01*
X26325Y32425D02*
X27675D01*
X26325Y29550D02*
X27675D01*
X26325D02*
Y32425D01*
X27675Y29550D02*
Y32425D01*
X29325Y29350D02*
X30675D01*
X29325Y26500D02*
X30675D01*
X29325D02*
Y29350D01*
X30675Y26500D02*
Y29350D01*
X29325Y32425D02*
X30675D01*
X29325Y29550D02*
X30675D01*
X29325D02*
Y32425D01*
X30675Y29550D02*
Y32425D01*
X47750Y27550D02*
Y34350D01*
X37175D02*
X47750D01*
X37175Y27550D02*
Y34350D01*
Y27550D02*
X47750D01*
X25958Y44633D02*
X26075Y44750D01*
X26308D01*
X26425Y44633D01*
Y44167D01*
X26308Y44050D01*
X26075D01*
X25958Y44167D01*
X25259Y44750D02*
X25492Y44633D01*
X25725Y44400D01*
Y44167D01*
X25609Y44050D01*
X25375D01*
X25259Y44167D01*
Y44283D01*
X25375Y44400D01*
X25725D01*
X29190Y19705D02*
X28490D01*
Y19355D01*
X28607Y19238D01*
X28840D01*
X28957Y19355D01*
Y19705D01*
Y19472D02*
X29190Y19238D01*
Y19005D02*
Y18772D01*
Y18889D01*
X28490D01*
X28607Y19005D01*
X28490Y17956D02*
X28607Y18189D01*
X28840Y18422D01*
X29073D01*
X29190Y18305D01*
Y18072D01*
X29073Y17956D01*
X28957D01*
X28840Y18072D01*
Y18422D01*
X29190Y22682D02*
X28490D01*
Y22332D01*
X28607Y22215D01*
X28840D01*
X28957Y22332D01*
Y22682D01*
Y22448D02*
X29190Y22215D01*
Y21982D02*
Y21749D01*
Y21865D01*
X28490D01*
X28607Y21982D01*
X28490Y20932D02*
Y21399D01*
X28840D01*
X28723Y21166D01*
Y21049D01*
X28840Y20932D01*
X29073D01*
X29190Y21049D01*
Y21282D01*
X29073Y21399D01*
X26355Y42410D02*
Y43110D01*
X26005D01*
X25888Y42993D01*
Y42760D01*
X26005Y42643D01*
X26355D01*
X26122D02*
X25888Y42410D01*
X25655D02*
X25422D01*
X25539D01*
Y43110D01*
X25655Y42993D01*
X24722Y42410D02*
Y43110D01*
X25072Y42760D01*
X24606D01*
X26456Y47240D02*
Y47940D01*
X25990Y47240D01*
Y47940D01*
X25756D02*
X25290D01*
X25523D01*
Y47240D01*
X24590Y47823D02*
X24707Y47940D01*
X24940D01*
X25057Y47823D01*
Y47357D01*
X24940Y47240D01*
X24707D01*
X24590Y47357D01*
X24350Y34500D02*
Y35200D01*
X24000D01*
X23883Y35083D01*
Y34850D01*
X24000Y34733D01*
X24350D01*
X24117D02*
X23883Y34500D01*
X23650D02*
X23417D01*
X23534D01*
Y35200D01*
X23650Y35083D01*
X22601Y34500D02*
X23067D01*
X22601Y34967D01*
Y35083D01*
X22717Y35200D01*
X22950D01*
X23067Y35083D01*
X21350Y35060D02*
X20650D01*
Y34710D01*
X20767Y34593D01*
X21000D01*
X21117Y34710D01*
Y35060D01*
Y34827D02*
X21350Y34593D01*
Y34360D02*
Y34127D01*
Y34244D01*
X20650D01*
X20767Y34360D01*
Y33777D02*
X20650Y33660D01*
Y33427D01*
X20767Y33311D01*
X20884D01*
X21000Y33427D01*
Y33544D01*
Y33427D01*
X21117Y33311D01*
X21233D01*
X21350Y33427D01*
Y33660D01*
X21233Y33777D01*
X13900Y41070D02*
Y40370D01*
X14250D01*
X14367Y40487D01*
Y40720D01*
X14250Y40837D01*
X13900D01*
X14133D02*
X14367Y41070D01*
X14600D02*
X14833D01*
X14716D01*
Y40370D01*
X14600Y40487D01*
X15183Y41070D02*
X15416D01*
X15300D01*
Y40370D01*
X15183Y40487D01*
X34488Y22957D02*
Y23657D01*
X34838D01*
X34955Y23540D01*
Y23074D01*
X34838Y22957D01*
X34488D01*
X35188D02*
Y23657D01*
X35538D01*
X35655Y23540D01*
Y23074D01*
X35538Y22957D01*
X35188D01*
X35888Y23074D02*
X36005Y22957D01*
X36238D01*
X36354Y23074D01*
Y23190D01*
X36238Y23307D01*
X36121D01*
X36238D01*
X36354Y23424D01*
Y23540D01*
X36238Y23657D01*
X36005D01*
X35888Y23540D01*
X35948Y19238D02*
X36065Y19355D01*
X36298D01*
X36415Y19238D01*
Y18772D01*
X36298Y18655D01*
X36065D01*
X35948Y18772D01*
X35249Y19355D02*
X35715D01*
Y19005D01*
X35482Y19122D01*
X35365D01*
X35249Y19005D01*
Y18772D01*
X35365Y18655D01*
X35599D01*
X35715Y18772D01*
X34088Y30335D02*
Y29635D01*
X34438D01*
X34555Y29752D01*
Y29985D01*
X34438Y30102D01*
X34088D01*
X34322D02*
X34555Y30335D01*
X34788D02*
X35021D01*
X34905D01*
Y29635D01*
X34788Y29752D01*
X35563Y31793D02*
X35680Y31910D01*
X35913D01*
X36030Y31793D01*
Y31327D01*
X35913Y31210D01*
X35680D01*
X35563Y31327D01*
X34980Y31210D02*
Y31910D01*
X35330Y31560D01*
X34864D01*
X10824Y30610D02*
Y31310D01*
X11173D01*
X11290Y31193D01*
Y30727D01*
X11173Y30610D01*
X10824D01*
X11523D02*
Y31310D01*
X11873D01*
X11990Y31193D01*
Y30727D01*
X11873Y30610D01*
X11523D01*
X12223Y31310D02*
X12456D01*
X12340D01*
Y30610D01*
X12223Y30727D01*
X37155Y27010D02*
Y26310D01*
X37505D01*
X37622Y26427D01*
Y26660D01*
X37505Y26777D01*
X37155D01*
X37388D02*
X37622Y27010D01*
X37855Y26893D02*
X37971Y27010D01*
X38205D01*
X38321Y26893D01*
Y26427D01*
X38205Y26310D01*
X37971D01*
X37855Y26427D01*
Y26543D01*
X37971Y26660D01*
X38321D01*
X34115Y33490D02*
Y32790D01*
X34465D01*
X34582Y32907D01*
Y33140D01*
X34465Y33257D01*
X34115D01*
X34348D02*
X34582Y33490D01*
X35281Y32790D02*
X35048Y32907D01*
X34815Y33140D01*
Y33373D01*
X34931Y33490D01*
X35165D01*
X35281Y33373D01*
Y33257D01*
X35165Y33140D01*
X34815D01*
X34082Y27010D02*
Y26310D01*
X34432D01*
X34548Y26427D01*
Y26660D01*
X34432Y26777D01*
X34082D01*
X34315D02*
X34548Y27010D01*
X34781D02*
X35015D01*
X34898D01*
Y26310D01*
X34781Y26427D01*
X35365D02*
X35481Y26310D01*
X35715D01*
X35831Y26427D01*
Y26893D01*
X35715Y27010D01*
X35481D01*
X35365Y26893D01*
Y26427D01*
X4495Y27390D02*
Y26690D01*
X4845D01*
X4962Y26807D01*
Y27040D01*
X4845Y27157D01*
X4495D01*
X4728D02*
X4962Y27390D01*
X5195Y26690D02*
X5661D01*
Y26807D01*
X5195Y27273D01*
Y27390D01*
X4495Y28920D02*
Y28220D01*
X4845D01*
X4962Y28337D01*
Y28570D01*
X4845Y28687D01*
X4495D01*
X4728D02*
X4962Y28920D01*
X5195Y28337D02*
X5311Y28220D01*
X5545D01*
X5661Y28337D01*
Y28453D01*
X5545Y28570D01*
X5661Y28687D01*
Y28803D01*
X5545Y28920D01*
X5311D01*
X5195Y28803D01*
Y28687D01*
X5311Y28570D01*
X5195Y28453D01*
Y28337D01*
X5311Y28570D02*
X5545D01*
X5947Y31373D02*
X5830Y31490D01*
Y31723D01*
X5947Y31840D01*
X6413D01*
X6530Y31723D01*
Y31490D01*
X6413Y31373D01*
X6530Y31140D02*
Y30907D01*
Y31024D01*
X5830D01*
X5947Y31140D01*
X20625Y31700D02*
X21092D01*
X21325Y31467D01*
X21092Y31233D01*
X20625D01*
Y31000D02*
X21325D01*
Y30650D01*
X21208Y30534D01*
X20742D01*
X20625Y30650D01*
Y31000D01*
X21325Y29951D02*
X20625D01*
X20975Y30300D01*
Y29834D01*
X21510Y28840D02*
X20810D01*
Y28490D01*
X20927Y28373D01*
X21160D01*
X21277Y28490D01*
Y28840D01*
Y28607D02*
X21510Y28373D01*
X20810Y27674D02*
Y28140D01*
X21160D01*
X21043Y27907D01*
Y27790D01*
X21160Y27674D01*
X21393D01*
X21510Y27790D01*
Y28024D01*
X21393Y28140D01*
X24345Y28900D02*
X23645D01*
Y28550D01*
X23762Y28434D01*
X23995D01*
X24111Y28550D01*
Y28900D01*
Y28667D02*
X24345Y28434D01*
Y27851D02*
X23645D01*
X23995Y28201D01*
Y27734D01*
X23625Y31700D02*
X24092D01*
X24325Y31467D01*
X24092Y31233D01*
X23625D01*
Y31000D02*
X24325D01*
Y30650D01*
X24208Y30534D01*
X23742D01*
X23625Y30650D01*
Y31000D01*
X23742Y30300D02*
X23625Y30184D01*
Y29951D01*
X23742Y29834D01*
X23858D01*
X23975Y29951D01*
Y30067D01*
Y29951D01*
X24092Y29834D01*
X24208D01*
X24325Y29951D01*
Y30184D01*
X24208Y30300D01*
X27350Y28900D02*
X26650D01*
Y28550D01*
X26767Y28434D01*
X27000D01*
X27117Y28550D01*
Y28900D01*
Y28667D02*
X27350Y28434D01*
X26767Y28201D02*
X26650Y28084D01*
Y27851D01*
X26767Y27734D01*
X26884D01*
X27000Y27851D01*
Y27967D01*
Y27851D01*
X27117Y27734D01*
X27233D01*
X27350Y27851D01*
Y28084D01*
X27233Y28201D01*
X26625Y31700D02*
X27092D01*
X27325Y31467D01*
X27092Y31233D01*
X26625D01*
Y31000D02*
X27325D01*
Y30650D01*
X27208Y30534D01*
X26742D01*
X26625Y30650D01*
Y31000D01*
X27325Y29834D02*
Y30300D01*
X26858Y29834D01*
X26742D01*
X26625Y29951D01*
Y30184D01*
X26742Y30300D01*
X30350Y28900D02*
X29650D01*
Y28550D01*
X29767Y28434D01*
X30000D01*
X30117Y28550D01*
Y28900D01*
Y28667D02*
X30350Y28434D01*
Y27734D02*
Y28201D01*
X29884Y27734D01*
X29767D01*
X29650Y27851D01*
Y28084D01*
X29767Y28201D01*
X29625Y31700D02*
X30092D01*
X30325Y31467D01*
X30092Y31233D01*
X29625D01*
Y31000D02*
X30325D01*
Y30650D01*
X30208Y30534D01*
X29742D01*
X29625Y30650D01*
Y31000D01*
X30325Y30300D02*
Y30067D01*
Y30184D01*
X29625D01*
X29742Y30300D01*
X42983Y31233D02*
X43100Y31350D01*
X43333D01*
X43450Y31233D01*
Y31117D01*
X43333Y31000D01*
X43100D01*
X42983Y30883D01*
Y30767D01*
X43100Y30650D01*
X43333D01*
X43450Y30767D01*
X42750Y31350D02*
Y30650D01*
X42400D01*
X42284Y30767D01*
Y30883D01*
X42400Y31000D01*
X42750D01*
X42400D01*
X42284Y31117D01*
Y31233D01*
X42400Y31350D01*
X42750D01*
X42050Y30650D02*
X41817D01*
X41934D01*
Y31350D01*
X42050Y31233D01*
D63*
X21013Y32138D02*
D03*
X24013Y32138D02*
D03*
X27013Y32138D02*
D03*
X30013D02*
D03*
%TF.MD5,98b591cc9ec35ca95bf9a74c02431158*%
M02*
