%TF.GenerationSoftware,Altium Limited,Altium Designer,21.6.4 (81)*%
G04 Layer_Color=255*
%FSLAX43Y43*%
%MOMM*%
%TF.SameCoordinates,3FCC9EDD-E33D-4AE7-AC82-89E58AA9E509*%
%TF.FilePolarity,Positive*%
%TF.FileFunction,Pads,Top*%
%TF.Part,Single*%
G01*
G75*
%TA.AperFunction,TestPad*%
%ADD10R,7.500X3.000*%
%ADD11R,0.900X0.850*%
%ADD12R,1.600X1.000*%
%ADD13R,2.500X1.500*%
%ADD14R,0.850X0.900*%
%ADD32C,2.286*%
%TA.AperFunction,ComponentPad*%
%ADD33C,1.650*%
%ADD34R,1.650X1.650*%
%TA.AperFunction,TestPad*%
%ADD35C,1.950*%
G04:AMPARAMS|DCode=36|XSize=1.95mm|YSize=1.95mm|CornerRadius=0.488mm|HoleSize=0mm|Usage=FLASHONLY|Rotation=270.000|XOffset=0mm|YOffset=0mm|HoleType=Round|Shape=RoundedRectangle|*
%AMROUNDEDRECTD36*
21,1,1.950,0.975,0,0,270.0*
21,1,0.975,1.950,0,0,270.0*
1,1,0.975,-0.488,-0.488*
1,1,0.975,-0.488,0.488*
1,1,0.975,0.488,0.488*
1,1,0.975,0.488,-0.488*
%
%ADD36ROUNDEDRECTD36*%
%TA.AperFunction,ComponentPad*%
%ADD37C,2.000*%
%TA.AperFunction,TestPad*%
%ADD38C,2.000*%
%TA.AperFunction,ComponentPad*%
%ADD39C,3.000*%
%TA.AperFunction,TestPad*%
%ADD40C,1.524*%
%TA.AperFunction,ComponentPad*%
%ADD41C,2.286*%
%ADD42O,3.000X3.100*%
%TA.AperFunction,TestPad*%
%ADD43O,2.286X1.778*%
%ADD44C,4.572*%
%TA.AperFunction,ComponentPad*%
%ADD45C,2.794*%
%ADD46O,2.286X1.778*%
%TA.AperFunction,TestPad*%
%ADD47R,1.200X1.200*%
%ADD48C,1.200*%
%ADD49R,1.250X1.250*%
%ADD50C,1.250*%
D10*
X35331Y5644D02*
D03*
Y10644D02*
D03*
X81077Y9667D02*
D03*
Y14667D02*
D03*
D11*
X78644Y1261D02*
D03*
Y2811D02*
D03*
D12*
X61674Y20904D02*
D03*
X52524Y23444D02*
D03*
X61674D02*
D03*
X52524Y20904D02*
D03*
D13*
X49774Y38989D02*
D03*
Y47829D02*
D03*
Y35229D02*
D03*
Y44069D02*
D03*
X70774Y38989D02*
D03*
Y35229D02*
D03*
Y44069D02*
D03*
Y47829D02*
D03*
D14*
X88701Y19474D02*
D03*
X87151D02*
D03*
D32*
X48620Y1504D02*
D03*
X61722Y12294D02*
D03*
X47158Y28198D02*
D03*
X40792Y17428D02*
D03*
X48674Y11100D02*
D03*
X52524Y18098D02*
D03*
X3226Y44475D02*
D03*
X32741Y13792D02*
D03*
X49428Y21336D02*
D03*
X78613Y5159D02*
D03*
X64237Y1614D02*
D03*
X74371Y39065D02*
D03*
X2896Y12294D02*
D03*
X3293Y41097D02*
D03*
X61747Y18236D02*
D03*
D33*
X56355Y14094D02*
D03*
Y9014D02*
D03*
Y6474D02*
D03*
Y3934D02*
D03*
X51275D02*
D03*
Y6474D02*
D03*
Y9014D02*
D03*
D34*
Y14094D02*
D03*
D35*
X5500Y20171D02*
D03*
X5500Y30175D02*
D03*
X85234Y39497D02*
D03*
X85234Y29515D02*
D03*
D36*
X5500Y25171D02*
D03*
X5500Y35175D02*
D03*
X85234Y34497D02*
D03*
X85234Y24515D02*
D03*
D37*
X28194Y10693D02*
D03*
X24194D02*
D03*
X29486Y22384D02*
D03*
X24486D02*
D03*
X17868Y10744D02*
D03*
X13868D02*
D03*
X24486Y35738D02*
D03*
X29486D02*
D03*
D38*
X67500Y10500D02*
D03*
X72500D02*
D03*
Y24000D02*
D03*
X67500D02*
D03*
D39*
X37059Y17811D02*
D03*
X37109Y37786D02*
D03*
D40*
X11693Y19694D02*
D03*
X19193Y19669D02*
D03*
X53061Y28423D02*
D03*
X60561Y28398D02*
D03*
D41*
X50241Y53111D02*
D03*
X43580Y53238D02*
D03*
X42674Y36624D02*
D03*
X87224Y46660D02*
D03*
D42*
X42570Y21788D02*
D03*
Y33788D02*
D03*
X17678Y24886D02*
D03*
Y36886D02*
D03*
X13335Y36963D02*
D03*
Y24963D02*
D03*
D43*
X43557Y51232D02*
D03*
Y48692D02*
D03*
Y46152D02*
D03*
D44*
X23364Y48692D02*
D03*
D45*
X15037Y47015D02*
D03*
D46*
X8687Y44475D02*
D03*
Y47015D02*
D03*
Y49555D02*
D03*
D47*
X60286Y3119D02*
D03*
D48*
Y5659D02*
D03*
Y8199D02*
D03*
D49*
X88036Y8769D02*
D03*
D50*
Y15869D02*
D03*
%TF.MD5,ec59f749be132e4283de4a48bf58e14a*%
M02*
