%TF.GenerationSoftware,Altium Limited,Altium Designer,21.6.4 (81)*%
G04 Layer_Physical_Order=2*
G04 Layer_Color=16711680*
%FSLAX43Y43*%
%MOMM*%
%TF.SameCoordinates,3FCC9EDD-E33D-4AE7-AC82-89E58AA9E509*%
%TF.FilePolarity,Positive*%
%TF.FileFunction,Copper,L2,Bot,Signal*%
%TF.Part,Single*%
G01*
G75*
%TA.AperFunction,Conductor*%
%ADD15C,1.000*%
%ADD16C,0.500*%
%ADD17C,0.300*%
%ADD18C,0.800*%
%ADD19C,2.000*%
%ADD20C,1.200*%
%ADD21C,1.500*%
%TA.AperFunction,TestPad*%
%ADD32C,2.286*%
%TA.AperFunction,ComponentPad*%
%ADD33C,1.650*%
%ADD34R,1.650X1.650*%
%TA.AperFunction,TestPad*%
%ADD35C,1.950*%
G04:AMPARAMS|DCode=36|XSize=1.95mm|YSize=1.95mm|CornerRadius=0.488mm|HoleSize=0mm|Usage=FLASHONLY|Rotation=270.000|XOffset=0mm|YOffset=0mm|HoleType=Round|Shape=RoundedRectangle|*
%AMROUNDEDRECTD36*
21,1,1.950,0.975,0,0,270.0*
21,1,0.975,1.950,0,0,270.0*
1,1,0.975,-0.488,-0.488*
1,1,0.975,-0.488,0.488*
1,1,0.975,0.488,0.488*
1,1,0.975,0.488,-0.488*
%
%ADD36ROUNDEDRECTD36*%
%TA.AperFunction,ComponentPad*%
%ADD37C,2.000*%
%TA.AperFunction,TestPad*%
%ADD38C,2.000*%
%TA.AperFunction,ComponentPad*%
%ADD39C,3.000*%
%TA.AperFunction,TestPad*%
%ADD40C,1.524*%
%TA.AperFunction,ComponentPad*%
%ADD41C,2.286*%
%ADD42O,3.000X3.100*%
%TA.AperFunction,TestPad*%
%ADD43O,2.286X1.778*%
%ADD44C,4.572*%
%TA.AperFunction,ComponentPad*%
%ADD45C,2.794*%
%ADD46O,2.286X1.778*%
%TA.AperFunction,TestPad*%
%ADD47R,1.200X1.200*%
%ADD48C,1.200*%
%ADD49R,1.250X1.250*%
%ADD50C,1.250*%
%TA.AperFunction,ViaPad*%
%ADD51C,0.800*%
%ADD52C,1.270*%
%ADD53C,1.200*%
%ADD54C,1.800*%
%ADD55C,1.000*%
%TA.AperFunction,SMDPad,CuDef*%
%ADD56R,1.800X1.450*%
%ADD57R,0.900X0.950*%
%ADD58R,0.800X1.250*%
%ADD59R,2.500X2.200*%
%ADD60R,0.950X1.900*%
%ADD61R,3.250X1.900*%
%ADD62R,0.800X0.900*%
%ADD63R,0.600X1.500*%
%ADD64R,2.200X2.500*%
%ADD65R,1.250X0.800*%
%TA.AperFunction,TestPad*%
%ADD66R,2.000X2.300*%
%TA.AperFunction,SMDPad,CuDef*%
%ADD67R,2.300X2.000*%
%ADD68R,1.600X1.000*%
%ADD69R,0.543X1.874*%
G04:AMPARAMS|DCode=70|XSize=1.874mm|YSize=0.543mm|CornerRadius=0.272mm|HoleSize=0mm|Usage=FLASHONLY|Rotation=90.000|XOffset=0mm|YOffset=0mm|HoleType=Round|Shape=RoundedRectangle|*
%AMROUNDEDRECTD70*
21,1,1.874,0.000,0,0,90.0*
21,1,1.331,0.543,0,0,90.0*
1,1,0.543,0.000,0.665*
1,1,0.543,0.000,-0.665*
1,1,0.543,0.000,-0.665*
1,1,0.543,0.000,0.665*
%
%ADD70ROUNDEDRECTD70*%
%ADD71R,1.556X1.505*%
%ADD72R,2.000X2.300*%
%ADD73R,1.505X1.556*%
%TA.AperFunction,Conductor*%
%ADD74C,0.900*%
%ADD75C,1.400*%
%ADD76C,0.600*%
%ADD77C,1.600*%
%ADD78R,2.134X3.023*%
%ADD79R,3.496X3.574*%
%ADD80R,4.434X4.572*%
%ADD81R,3.040X3.937*%
%ADD82R,20.701X11.557*%
%ADD83R,2.479X2.390*%
%ADD84R,2.476X2.286*%
G36*
X84404Y48630D02*
X84455Y48579D01*
X90667D01*
X90667Y6272D01*
X84545D01*
Y331D01*
X79417Y329D01*
X79400Y456D01*
Y650D01*
X79506Y720D01*
X79617Y674D01*
X79855D01*
X80076Y766D01*
X80245Y935D01*
X80336Y1155D01*
Y1394D01*
X80245Y1614D01*
X80076Y1783D01*
X79855Y1874D01*
X79617D01*
X79506Y1828D01*
X79400Y1899D01*
Y2099D01*
X78200D01*
Y456D01*
X78200Y449D01*
X78184Y329D01*
X77416Y329D01*
X77400Y456D01*
Y2099D01*
X76200D01*
Y1811D01*
X76083Y1749D01*
X75862Y1840D01*
X75623D01*
X75403Y1749D01*
X75234Y1580D01*
X75143Y1360D01*
Y1121D01*
X75234Y901D01*
X75403Y732D01*
X75623Y640D01*
X75862D01*
X76083Y732D01*
X76200Y670D01*
Y456D01*
X76200Y449D01*
X76185Y329D01*
X64945Y326D01*
X64911Y453D01*
X65061Y540D01*
X65311Y790D01*
X65353Y862D01*
X71985D01*
X72160Y897D01*
X72309Y996D01*
X72867Y1554D01*
X72966Y1703D01*
X73001Y1879D01*
Y3635D01*
X73368D01*
Y4700D01*
X77346D01*
X77362Y4641D01*
X77538Y4335D01*
X77788Y4085D01*
X78095Y3908D01*
X78436Y3816D01*
X78790D01*
X79131Y3908D01*
X79438Y4085D01*
X79688Y4335D01*
X79864Y4641D01*
X79866Y4647D01*
X81077D01*
X81252Y4682D01*
X81401Y4781D01*
X84086Y7465D01*
X86081D01*
Y8136D01*
X87211D01*
Y7944D01*
X88861D01*
Y9594D01*
X88761D01*
Y10643D01*
X88899D01*
Y11843D01*
X88390D01*
X88238Y11906D01*
X88055Y11930D01*
X87872Y11906D01*
X87720Y11843D01*
X87249D01*
Y10643D01*
X87349D01*
Y9594D01*
X87211D01*
Y9548D01*
X86081D01*
Y10365D01*
X83481D01*
Y8158D01*
X80887Y5564D01*
X79895D01*
X79864Y5678D01*
X79688Y5984D01*
X79438Y6234D01*
X79131Y6411D01*
X78790Y6502D01*
X78436D01*
X78095Y6411D01*
X77788Y6234D01*
X77538Y5984D01*
X77362Y5678D01*
X77346Y5618D01*
X73488D01*
X73368Y5635D01*
X73368Y5745D01*
Y6835D01*
X73001D01*
Y9404D01*
X73237Y9540D01*
X73460Y9763D01*
X73618Y10037D01*
X73700Y10342D01*
Y10658D01*
X73618Y10963D01*
X73460Y11237D01*
X73237Y11460D01*
X73121Y11527D01*
Y13563D01*
X79141D01*
X79323Y13587D01*
X79494Y13658D01*
X79640Y13770D01*
X82093Y16223D01*
X85572Y12744D01*
X85718Y12631D01*
X85888Y12561D01*
X86071Y12537D01*
X88074D01*
X88257Y12561D01*
X88427Y12631D01*
X88442Y12643D01*
X88899D01*
Y13843D01*
X88442D01*
X88427Y13854D01*
X88257Y13925D01*
X88074Y13949D01*
X86364D01*
X83091Y17221D01*
X83456Y17586D01*
X83568Y17732D01*
X83638Y17902D01*
X83662Y18085D01*
Y19331D01*
X83646Y19456D01*
X83662Y19581D01*
Y22090D01*
X84907Y23334D01*
X85722D01*
X85901Y23358D01*
X86069Y23427D01*
X86212Y23537D01*
X86322Y23681D01*
X86392Y23848D01*
X86415Y24027D01*
Y24269D01*
X89948Y27802D01*
X90108Y28010D01*
X90209Y28254D01*
X90243Y28515D01*
Y43023D01*
X90209Y43285D01*
X90108Y43528D01*
X89948Y43737D01*
X88643Y45041D01*
X88434Y45201D01*
X88191Y45302D01*
X87930Y45336D01*
X83341D01*
Y45903D01*
X81991D01*
Y45051D01*
X81977Y45041D01*
X81817Y44832D01*
X81716Y44589D01*
X81682Y44328D01*
X81716Y44067D01*
X81817Y43823D01*
X81977Y43615D01*
X81991Y43604D01*
Y43603D01*
X81993D01*
X82186Y43454D01*
X82430Y43354D01*
X82691Y43319D01*
X87512D01*
X88226Y42606D01*
Y28933D01*
X84989Y25696D01*
X84747D01*
X84567Y25672D01*
X84400Y25603D01*
X84257Y25493D01*
X84146Y25349D01*
X84077Y25182D01*
X84053Y25002D01*
Y24478D01*
X82457Y22881D01*
X82345Y22735D01*
X82274Y22565D01*
X82250Y22382D01*
Y19581D01*
X82267Y19456D01*
X82250Y19331D01*
Y18377D01*
X81594Y17720D01*
X78848Y14975D01*
X73047D01*
Y14998D01*
X71846D01*
Y14582D01*
X71804Y14526D01*
X71733Y14356D01*
X71709Y14173D01*
Y11406D01*
X71540Y11237D01*
X71382Y10963D01*
X71300Y10658D01*
Y10342D01*
X71382Y10037D01*
X71540Y9763D01*
X71763Y9540D01*
X72037Y9382D01*
X72084Y9369D01*
Y6835D01*
X71718D01*
X71718Y5635D01*
X71598Y5618D01*
X70875D01*
X70258Y6235D01*
Y7148D01*
X70280Y7259D01*
Y8590D01*
X70244Y8774D01*
X70139Y8930D01*
X69983Y9034D01*
X69799Y9071D01*
X69615Y9034D01*
X69459Y8930D01*
X69355Y8774D01*
X69318Y8590D01*
Y7259D01*
X69340Y7148D01*
Y6504D01*
X64469D01*
Y7071D01*
X62513D01*
Y5166D01*
X64469D01*
Y5586D01*
X69609D01*
X70361Y4835D01*
X70510Y4735D01*
X70685Y4700D01*
X71718D01*
Y3635D01*
X72084D01*
Y2069D01*
X71795Y1780D01*
X67710D01*
Y2474D01*
X67740Y2627D01*
Y3958D01*
X67704Y4142D01*
X67599Y4298D01*
X67443Y4402D01*
X67259Y4439D01*
X67075Y4402D01*
X66919Y4298D01*
X66815Y4142D01*
X66778Y3958D01*
Y2627D01*
X66792Y2558D01*
Y1780D01*
X65580D01*
Y1791D01*
X65488Y2133D01*
X65311Y2439D01*
X65061Y2689D01*
X64755Y2866D01*
X64413Y2957D01*
X64060D01*
X63718Y2866D01*
X63412Y2689D01*
X63162Y2439D01*
X62985Y2133D01*
X62900Y1816D01*
X62238D01*
X61086Y2968D01*
Y3919D01*
X59486D01*
Y2319D01*
X60437D01*
X61723Y1033D01*
X61872Y933D01*
X62048Y898D01*
X63099D01*
X63162Y790D01*
X63412Y540D01*
X63562Y453D01*
X63528Y326D01*
X59323Y325D01*
X59233Y414D01*
Y530D01*
Y31166D01*
X71653D01*
X72983Y32495D01*
X72983Y50563D01*
X71546Y52000D01*
X61951Y52000D01*
X61951Y54667D01*
X84404D01*
Y48630D01*
D02*
G37*
%LPC*%
G36*
X78741Y45903D02*
X77391D01*
Y43603D01*
X77417D01*
Y35846D01*
X77464Y35612D01*
X77596Y35414D01*
X78916Y34094D01*
Y32359D01*
X81816D01*
Y33048D01*
X82817D01*
X83051Y33094D01*
X83250Y33227D01*
X83763Y33740D01*
X84114D01*
X84146Y33662D01*
X84257Y33519D01*
X84400Y33409D01*
X84567Y33339D01*
X84747Y33316D01*
X85722D01*
X85901Y33339D01*
X86069Y33409D01*
X86212Y33519D01*
X86322Y33662D01*
X86392Y33830D01*
X86415Y34009D01*
Y34984D01*
X86392Y35164D01*
X86322Y35331D01*
X86212Y35474D01*
X86069Y35585D01*
X85901Y35654D01*
X85722Y35677D01*
X84747D01*
X84567Y35654D01*
X84400Y35585D01*
X84257Y35474D01*
X84146Y35331D01*
X84077Y35164D01*
X84053Y34984D01*
Y34963D01*
X83509D01*
X83275Y34917D01*
X83077Y34784D01*
X82564Y34271D01*
X81816D01*
Y34959D01*
X79781D01*
X78641Y36100D01*
Y43603D01*
X78741D01*
Y45903D01*
D02*
G37*
G36*
X68039Y29853D02*
X67749D01*
X67470Y29778D01*
X67219Y29633D01*
X67014Y29428D01*
X66869Y29177D01*
X66794Y28898D01*
Y28608D01*
X66869Y28328D01*
X67014Y28077D01*
X67081Y28010D01*
X67032Y27893D01*
X66729D01*
Y25193D01*
X69129D01*
Y27893D01*
X68770D01*
X68717Y28020D01*
X68774Y28077D01*
X68919Y28328D01*
X68994Y28608D01*
Y28898D01*
X68919Y29177D01*
X68774Y29428D01*
X68570Y29633D01*
X68319Y29778D01*
X68039Y29853D01*
D02*
G37*
G36*
X85623Y20281D02*
X84423D01*
Y18631D01*
X85623D01*
Y18927D01*
X85750Y18979D01*
X85764Y18965D01*
X85984Y18874D01*
X86223D01*
X86444Y18965D01*
X86612Y19134D01*
X86704Y19354D01*
Y19593D01*
X86612Y19814D01*
X86444Y19982D01*
X86223Y20074D01*
X85984D01*
X85764Y19982D01*
X85750Y19969D01*
X85623Y20020D01*
Y20281D01*
D02*
G37*
G36*
X61924Y19579D02*
X61571D01*
X61229Y19487D01*
X60923Y19311D01*
X60673Y19061D01*
X60496Y18754D01*
X60404Y18413D01*
Y18059D01*
X60496Y17718D01*
X60673Y17411D01*
X60923Y17161D01*
X61229Y16985D01*
X61571Y16893D01*
X61924D01*
X62266Y16985D01*
X62572Y17161D01*
X62822Y17411D01*
X62906Y17557D01*
X64213D01*
X64396Y17581D01*
X64443Y17600D01*
X65163D01*
Y18800D01*
X64662D01*
X64566Y18874D01*
X64396Y18945D01*
X64213Y18969D01*
X62875D01*
X62822Y19061D01*
X62572Y19311D01*
X62266Y19487D01*
X61924Y19579D01*
D02*
G37*
G36*
X73429Y27893D02*
X71029D01*
Y25193D01*
X71280D01*
Y23852D01*
X71227Y23724D01*
X71195Y23476D01*
Y23070D01*
X70177Y22053D01*
X70025Y21855D01*
X69929Y21624D01*
X69896Y21375D01*
Y20287D01*
X69894Y20269D01*
X69896Y20252D01*
Y19175D01*
X69929Y18927D01*
X70025Y18696D01*
X70177Y18497D01*
X72893Y15782D01*
X73091Y15629D01*
X73323Y15534D01*
X73571Y15501D01*
X76621D01*
X76792Y15455D01*
X77081D01*
X77361Y15530D01*
X77612Y15675D01*
X77817Y15880D01*
X77962Y16131D01*
X78037Y16410D01*
Y16700D01*
X77962Y16980D01*
X77817Y17231D01*
X77612Y17435D01*
X77361Y17580D01*
X77081Y17655D01*
X76792D01*
X76512Y17580D01*
X76261Y17435D01*
X76243Y17417D01*
X73967D01*
X71813Y19572D01*
Y20267D01*
X71813Y20269D01*
X71813Y20272D01*
Y20979D01*
X72830Y21996D01*
X72983Y22194D01*
X73078Y22426D01*
X73111Y22674D01*
Y22967D01*
X73237Y23040D01*
X73460Y23263D01*
X73618Y23537D01*
X73700Y23842D01*
Y24158D01*
X73618Y24463D01*
X73460Y24737D01*
X73237Y24960D01*
X73197Y24983D01*
Y25193D01*
X73429D01*
Y27893D01*
D02*
G37*
G36*
X71047Y14998D02*
X69846D01*
Y14793D01*
X69719Y14712D01*
X69571Y14773D01*
X69332D01*
X69180Y14710D01*
X69053Y14789D01*
Y14823D01*
X67853D01*
Y14632D01*
X67153D01*
Y14823D01*
X65953D01*
Y14068D01*
X65944Y14023D01*
Y13616D01*
X65080Y12752D01*
X62989D01*
X62973Y12812D01*
X62797Y13118D01*
X62547Y13368D01*
X62240Y13545D01*
X61899Y13637D01*
X61545D01*
X61204Y13545D01*
X60897Y13368D01*
X60647Y13118D01*
X60471Y12812D01*
X60379Y12470D01*
Y12117D01*
X60471Y11775D01*
X60647Y11469D01*
X60897Y11219D01*
X61204Y11042D01*
X61545Y10951D01*
X61899D01*
X62240Y11042D01*
X62547Y11219D01*
X62797Y11469D01*
X62973Y11775D01*
X62989Y11835D01*
X65270D01*
X65446Y11870D01*
X65595Y11969D01*
X66727Y13102D01*
X66827Y13251D01*
X66862Y13426D01*
Y13523D01*
X67153D01*
Y13714D01*
X67853D01*
Y13523D01*
X69053D01*
Y13557D01*
X69180Y13636D01*
X69332Y13573D01*
X69571D01*
X69719Y13635D01*
X69846Y13553D01*
Y13348D01*
X71047D01*
Y14998D01*
D02*
G37*
G36*
X65163Y16800D02*
X63513D01*
Y15600D01*
X63949D01*
Y13961D01*
X63865Y13759D01*
Y13520D01*
X63957Y13300D01*
X64125Y13131D01*
X64346Y13040D01*
X64585D01*
X64805Y13131D01*
X64974Y13300D01*
X65065Y13520D01*
Y13759D01*
X64974Y13980D01*
X64867Y14087D01*
Y15600D01*
X65163D01*
Y16800D01*
D02*
G37*
G36*
X68529Y9071D02*
X68345Y9034D01*
X68189Y8930D01*
X68085Y8774D01*
X68048Y8590D01*
Y7259D01*
X68085Y7075D01*
X68189Y6919D01*
X68345Y6815D01*
X68529Y6779D01*
X68713Y6815D01*
X68869Y6919D01*
X68974Y7075D01*
X69010Y7259D01*
Y8590D01*
X68974Y8774D01*
X68869Y8930D01*
X68713Y9034D01*
X68529Y9071D01*
D02*
G37*
G36*
X67259D02*
X67075Y9034D01*
X66919Y8930D01*
X66815Y8774D01*
X66778Y8590D01*
Y7259D01*
X66815Y7075D01*
X66919Y6919D01*
X67075Y6815D01*
X67259Y6779D01*
X67443Y6815D01*
X67599Y6919D01*
X67704Y7075D01*
X67740Y7259D01*
Y8590D01*
X67704Y8774D01*
X67599Y8930D01*
X67443Y9034D01*
X67259Y9071D01*
D02*
G37*
G36*
X65989D02*
X65805Y9034D01*
X65649Y8930D01*
X65545Y8774D01*
X65508Y8590D01*
Y7259D01*
X65545Y7075D01*
X65649Y6919D01*
X65805Y6815D01*
X65989Y6779D01*
X66173Y6815D01*
X66329Y6919D01*
X66434Y7075D01*
X66470Y7259D01*
Y8590D01*
X66434Y8774D01*
X66329Y8930D01*
X66173Y9034D01*
X65989Y9071D01*
D02*
G37*
G36*
X70271Y4430D02*
X69328D01*
Y2156D01*
X70271D01*
Y2615D01*
X70448D01*
X70498Y2565D01*
X70719Y2474D01*
X70957D01*
X71178Y2565D01*
X71347Y2734D01*
X71438Y2955D01*
Y3193D01*
X71347Y3414D01*
X71178Y3583D01*
X70957Y3674D01*
X70719D01*
X70498Y3583D01*
X70448Y3533D01*
X70271D01*
Y4430D01*
D02*
G37*
G36*
X68649Y5223D02*
X68410D01*
X68189Y5131D01*
X68021Y4963D01*
X67929Y4742D01*
Y4503D01*
X68021Y4283D01*
X68070Y4233D01*
Y4069D01*
X68048Y3958D01*
Y2627D01*
X68085Y2443D01*
X68189Y2287D01*
X68345Y2183D01*
X68529Y2146D01*
X68713Y2183D01*
X68869Y2287D01*
X68974Y2443D01*
X69010Y2627D01*
Y3958D01*
X68988Y4069D01*
Y4233D01*
X69038Y4283D01*
X69129Y4503D01*
Y4742D01*
X69038Y4963D01*
X68869Y5131D01*
X68649Y5223D01*
D02*
G37*
%LPD*%
D15*
X24727Y24688D02*
Y26848D01*
X37780Y30785D02*
X40242Y28323D01*
X24727Y26848D02*
Y27860D01*
X27652Y30785D01*
X37780D01*
X40242Y28211D02*
Y28323D01*
X34527Y4029D02*
Y6206D01*
X32808Y7925D02*
X34527Y6206D01*
X29489Y7925D02*
X32808D01*
X28225Y9189D02*
X29489Y7925D01*
X28225Y9189D02*
Y10662D01*
X28053Y10834D02*
X28225Y10662D01*
X18708Y1552D02*
Y4002D01*
X17097Y1473D02*
Y3923D01*
X16436Y1910D02*
Y4360D01*
X25893Y1263D02*
Y3713D01*
X25301Y1714D02*
Y4164D01*
X27533Y1786D02*
Y4236D01*
X25633Y1755D02*
Y4205D01*
X16792Y1526D02*
Y3976D01*
X7927Y2876D02*
X7948Y2896D01*
X7927Y2845D02*
Y2876D01*
X8834Y3751D02*
X10017D01*
X7948Y2896D02*
X7979D01*
X8834Y3751D01*
X10017D02*
X10222Y3956D01*
X10242Y1526D02*
Y3976D01*
X9906Y29958D02*
Y32588D01*
X13506Y21838D02*
X18663D01*
X12026Y20357D02*
X13506Y21838D01*
X17634Y36931D02*
X17678Y36886D01*
X5975Y25286D02*
X7171D01*
X5860Y25171D02*
X5975Y25286D01*
X5500Y25171D02*
X5860D01*
X7171Y25286D02*
X7645Y25761D01*
X16792Y3976D02*
X19030D01*
X34419Y3879D02*
X34569Y4029D01*
X34419Y1504D02*
Y3879D01*
X47092Y36465D02*
X48069Y37443D01*
Y39027D01*
X47092Y28264D02*
Y36465D01*
X48069Y39027D02*
X48108Y39065D01*
X45669Y15406D02*
Y17958D01*
X40981Y19431D02*
X44196D01*
X45669Y17958D01*
X44267Y21259D02*
X47403Y18124D01*
X43099Y21259D02*
X44267D01*
X47403Y15506D02*
Y18124D01*
X82666Y44353D02*
Y44753D01*
Y44353D02*
X82691Y44328D01*
X80366Y40559D02*
Y50853D01*
X52984Y28499D02*
X53061Y28423D01*
X50399Y27541D02*
X51357Y28499D01*
X52984D01*
X50399Y27262D02*
Y27541D01*
X20472Y19669D02*
X28053Y12088D01*
X19193Y19669D02*
X20472D01*
X28053Y10834D02*
Y12088D01*
X72415Y10500D02*
Y14173D01*
X20486Y39853D02*
X23428D01*
X18663Y21838D02*
X20486Y23661D01*
Y31115D01*
X37109Y23303D02*
X40981Y19431D01*
X37109Y23303D02*
Y26756D01*
X38710Y14261D02*
Y15977D01*
X37059Y17627D02*
X38710Y15977D01*
X29486Y35738D02*
X31486Y33738D01*
X38268D01*
X49108Y20743D02*
X49108D01*
X49428Y20999D02*
Y21336D01*
X17536Y25029D02*
X17678Y24886D01*
X7645Y27940D02*
X9842D01*
X9982Y28081D01*
X15037Y47015D02*
X15239Y46813D01*
Y44239D02*
Y46813D01*
Y44239D02*
X15443Y44035D01*
X11354Y46990D02*
X15011D01*
X15070Y39887D02*
X15570Y39387D01*
Y36924D02*
Y39387D01*
X15037Y39735D02*
X15070D01*
X13335Y36963D02*
X14636D01*
X24626Y24587D02*
X24727Y24688D01*
X24556Y24517D02*
X24626Y24587D01*
X61774Y18263D02*
X64213D01*
X79141Y14269D02*
X82093Y17221D01*
X72447Y14173D02*
X72542Y14269D01*
X79141D01*
X84854Y8842D02*
X87963D01*
X88036Y8769D01*
X84781Y8915D02*
X84854Y8842D01*
X82093Y17221D02*
X82956Y18085D01*
X82093Y17221D02*
X86071Y13243D01*
X88074D01*
X88055Y8788D02*
Y11224D01*
X82956Y18085D02*
Y19331D01*
Y19581D02*
Y22382D01*
X84614Y24040D01*
X84759D02*
X85234Y24515D01*
X84614Y24040D02*
X84759D01*
X67735Y27086D02*
X67805D01*
X67911Y27193D02*
Y28736D01*
X67805Y27086D02*
X67911Y27193D01*
X67894Y28753D02*
X67911Y28736D01*
X24486Y22384D02*
X24556Y22454D01*
Y24517D01*
X8687Y49555D02*
X9162D01*
X9873Y50266D02*
X11430D01*
X9162Y49555D02*
X9873Y50266D01*
X11252Y47092D02*
X11354Y46990D01*
X8687Y47015D02*
X11252D01*
X45517Y28327D02*
X47125D01*
X44587Y28256D02*
X45517D01*
X3226Y44475D02*
X8687D01*
D16*
X47194Y8515D02*
Y8597D01*
Y8515D02*
X47461Y8249D01*
Y4283D02*
Y8249D01*
X46711Y10282D02*
X48674Y8319D01*
X46711Y6218D02*
Y7445D01*
X46101Y8055D02*
X46711Y7445D01*
X48674Y1392D02*
Y8319D01*
X39927Y4477D02*
X39984Y4420D01*
X46711Y10159D02*
Y11467D01*
X44018Y23704D02*
X48521Y19376D01*
X48674Y19223D01*
Y17071D02*
Y19223D01*
X66403Y13426D02*
Y14023D01*
X66553Y14173D01*
X61722Y12294D02*
X65270D01*
X66403Y13426D01*
X47546Y13256D02*
X47881D01*
X47396Y13406D02*
X47546Y13256D01*
X48435Y11310D02*
Y12703D01*
X47881Y13256D02*
X48435Y12703D01*
X44196Y7644D02*
X46711Y10159D01*
X41326Y7685D02*
Y8668D01*
X41300Y7659D02*
X41326Y7685D01*
Y8668D02*
X41351Y8694D01*
X39728Y7657D02*
X41298D01*
X39725Y7655D02*
X39728Y7657D01*
X41298D02*
X41300Y7659D01*
X38710Y12434D02*
X38735Y12460D01*
X48435Y11310D02*
X48569Y11176D01*
X55408Y14266D02*
X56327D01*
X55398Y14256D02*
X55408Y14266D01*
X56327D02*
X56337Y14276D01*
X51257D02*
X51278Y14256D01*
X52248D01*
X39984Y4420D02*
X40042Y4362D01*
X40713D02*
X40863Y4212D01*
X40042Y4362D02*
X40713D01*
X39927Y4477D02*
Y5505D01*
X39777Y5655D02*
X39927Y5505D01*
X39725Y5655D02*
X39777D01*
X40863Y4068D02*
Y4212D01*
X45707Y13444D02*
X47396D01*
X44070Y17750D02*
X44125Y17696D01*
Y15269D02*
X44180Y15214D01*
X44125Y15269D02*
Y17696D01*
X44014Y23708D02*
X44018Y23704D01*
X42570Y25190D02*
X44008Y23713D01*
X42570Y25190D02*
Y33788D01*
X44008Y23713D02*
X44014Y23708D01*
X42570Y21788D02*
X43099Y21259D01*
X40116Y33782D02*
X40161Y33738D01*
X44175Y13644D02*
Y15214D01*
Y11472D02*
Y13644D01*
X83858Y40559D02*
X84921Y39497D01*
X85234D01*
X86012Y19474D02*
X86030Y19491D01*
X85041Y19474D02*
X86012D01*
X85023Y19456D02*
X85041Y19474D01*
X64408Y13697D02*
X64465Y13640D01*
X64338Y16200D02*
X64408Y16130D01*
Y13697D02*
Y16130D01*
X81077Y5105D02*
X83887Y7915D01*
X78613Y5159D02*
X78667Y5105D01*
X81077D01*
X70685Y5159D02*
X78613D01*
X69799Y6045D02*
X69974Y5871D01*
X69799Y6045D02*
Y7925D01*
X69974Y5871D02*
X70685Y5159D01*
X63565Y6045D02*
X69799D01*
Y7925D02*
X69799Y7925D01*
X63491Y6119D02*
X63565Y6045D01*
X67251Y1338D02*
Y3356D01*
X67234Y1321D02*
X71985D01*
X64426D02*
X67234D01*
X67251Y1338D01*
Y3356D02*
X67259Y3364D01*
X71985Y1321D02*
X72543Y1879D01*
Y4235D01*
X72542Y6314D02*
Y10458D01*
X66553Y14173D02*
X68453D01*
X67500Y21846D02*
Y24000D01*
X69051Y20269D02*
Y20295D01*
X67500Y21846D02*
X69051Y20295D01*
X64958Y24000D02*
X67500D01*
X60561Y28398D02*
X64958Y24000D01*
X37059Y17627D02*
Y17811D01*
X42901Y6067D02*
X42913Y6080D01*
X9006Y37638D02*
X9681Y36963D01*
X5715Y41097D02*
X9006Y37806D01*
X3293Y41097D02*
X5715D01*
X9681Y36963D02*
X9850D01*
X9006Y37638D02*
Y37806D01*
X79784Y1298D02*
X79807Y1321D01*
X78823Y1298D02*
X79784D01*
X78800Y1274D02*
X78823Y1298D01*
X69452Y14173D02*
X70447D01*
X68707D02*
X69452D01*
X68529Y3293D02*
Y4623D01*
X83887Y7915D02*
X83931D01*
X84708Y8692D01*
Y8769D01*
X76783Y1257D02*
X76800Y1274D01*
X75743Y1240D02*
X75760Y1257D01*
X76783D01*
X69799Y3096D02*
X69821Y3074D01*
X69799Y3096D02*
Y3293D01*
X69821Y3074D02*
X70838D01*
X63491Y4317D02*
X63517D01*
X65969Y3529D02*
X65989Y3509D01*
Y3293D02*
Y3509D01*
X64305Y3529D02*
X65969D01*
X63517Y4317D02*
X64305Y3529D01*
X62048Y1357D02*
X64237D01*
Y1510D02*
X64426Y1321D01*
X60286Y3119D02*
X62048Y1357D01*
X88055Y11224D02*
X88074Y11243D01*
X88036Y8769D02*
X88055Y8788D01*
X42180Y13644D02*
Y15214D01*
X45669Y13406D02*
X45707Y13444D01*
X42180Y13644D02*
X42217Y13607D01*
X42846Y11967D02*
X42851D01*
X42901Y11917D01*
Y11467D02*
Y11917D01*
X44171Y11467D02*
X44175Y11472D01*
X45441Y13256D02*
X45591Y13406D01*
X45441Y11467D02*
Y13256D01*
X45591Y13406D02*
X45669D01*
X40268Y33738D02*
X40293Y33763D01*
X42545D02*
X42570Y33788D01*
X40293Y33763D02*
X42545D01*
X9906Y29958D02*
X9982Y29882D01*
X9906Y36888D02*
X9981Y36963D01*
D17*
X7823Y2845D02*
X7927D01*
X9667Y3401D02*
X10242Y3976D01*
X18896Y18040D02*
X19193Y18337D01*
X28116Y1467D02*
X28169Y1520D01*
X28116Y3917D02*
X28169Y3970D01*
D18*
X42901Y6456D02*
Y9844D01*
X43411Y2323D02*
X44171Y3083D01*
X37719Y4364D02*
X39760Y2323D01*
X43411D01*
X37719Y4364D02*
Y9007D01*
X38710Y9997D02*
Y12434D01*
X37719Y9007D02*
X38710Y9997D01*
X44171Y3083D02*
Y6067D01*
X83509Y34352D02*
X85089D01*
X80366Y33659D02*
X82817D01*
X85089Y34352D02*
X85234Y34497D01*
X82817Y33659D02*
X83509Y34352D01*
X78029Y35846D02*
Y44925D01*
Y35846D02*
X80216Y33659D01*
X80366D01*
X50274Y23409D02*
X51257D01*
X50274D02*
Y23721D01*
Y23597D02*
Y25162D01*
X50049D02*
X50274D01*
D19*
X5693Y24978D02*
X8103D01*
X8052Y25029D02*
X13335D01*
X5500Y25171D02*
X5693Y24978D01*
X13335Y25029D02*
X17536D01*
X2769Y27252D02*
X5275Y29758D01*
X2769Y22903D02*
Y27252D01*
X24143Y10744D02*
X24194Y10693D01*
X17868Y10744D02*
X24143D01*
X29486Y22384D02*
X32486D01*
X37059Y17811D01*
X2769Y22903D02*
X5500Y20171D01*
D20*
X28452Y22537D02*
X29333D01*
X26428Y24561D02*
Y24587D01*
Y24561D02*
X28452Y22537D01*
X29333D02*
X29486Y22384D01*
X26554Y26823D02*
X26579Y26848D01*
X26428Y24587D02*
X26554Y24713D01*
X26579Y26848D02*
X26679D01*
X26554Y24713D02*
Y26823D01*
X9981Y36963D02*
X13335D01*
D21*
X26388Y17071D02*
X32574D01*
X37186Y12460D01*
X38735D01*
X23281Y36943D02*
X24486Y35738D01*
X17735Y36943D02*
X23281D01*
X80366Y40559D02*
X83858D01*
X5500Y35175D02*
X5725Y34950D01*
X7645Y27940D02*
Y33206D01*
X5725Y34950D02*
X5901D01*
X7645Y33206D01*
X5275Y29758D02*
Y29828D01*
X7645Y25761D02*
Y27940D01*
X5275Y29828D02*
X5500Y30053D01*
Y30175D01*
X22094Y21366D02*
Y29894D01*
Y21366D02*
X26388Y17071D01*
X22094Y29894D02*
X24486Y32286D01*
X27728Y39853D02*
Y45466D01*
Y39853D02*
X27762Y39887D01*
X24486Y32286D02*
Y35738D01*
X39522Y40386D02*
X42735D01*
X37109Y37973D02*
X39522Y40386D01*
X42735D02*
X46152Y43803D01*
X70855Y19175D02*
X73571Y16459D01*
X76841D02*
X76937Y16555D01*
X73571Y16459D02*
X76841D01*
X70852Y20269D02*
X70855Y20267D01*
Y19175D02*
Y20267D01*
Y20272D02*
Y21375D01*
X72153Y22674D02*
Y23476D01*
X70852Y20269D02*
X70855Y20272D01*
Y21375D02*
X72153Y22674D01*
Y23476D02*
X72248Y23571D01*
X72239Y23597D02*
Y26533D01*
X72229Y26543D02*
X72239Y26533D01*
X43568Y51243D02*
X43580Y51255D01*
X43568Y51243D02*
Y53227D01*
X43557Y51232D02*
X43568Y51243D01*
Y53227D02*
X43580Y53238D01*
X45273Y51255D02*
X46152Y50376D01*
X43580Y51255D02*
X45273D01*
X46152Y43803D02*
Y50376D01*
X37109Y37786D02*
Y37973D01*
D32*
X48620Y1504D02*
D03*
X61722Y12294D02*
D03*
X47158Y28198D02*
D03*
X40792Y17428D02*
D03*
X48674Y11100D02*
D03*
X52524Y18098D02*
D03*
X3226Y44475D02*
D03*
X32741Y13792D02*
D03*
X49428Y21336D02*
D03*
X78613Y5159D02*
D03*
X64237Y1614D02*
D03*
X74371Y39065D02*
D03*
X2896Y12294D02*
D03*
X3293Y41097D02*
D03*
X61747Y18236D02*
D03*
D33*
X56355Y14094D02*
D03*
Y9014D02*
D03*
Y6474D02*
D03*
Y3934D02*
D03*
X51275D02*
D03*
Y6474D02*
D03*
Y9014D02*
D03*
D34*
Y14094D02*
D03*
D35*
X5500Y20171D02*
D03*
X5500Y30175D02*
D03*
X85234Y39497D02*
D03*
X85234Y29515D02*
D03*
D36*
X5500Y25171D02*
D03*
X5500Y35175D02*
D03*
X85234Y34497D02*
D03*
X85234Y24515D02*
D03*
D37*
X28194Y10693D02*
D03*
X24194D02*
D03*
X29486Y22384D02*
D03*
X24486D02*
D03*
X17868Y10744D02*
D03*
X13868D02*
D03*
X24486Y35738D02*
D03*
X29486D02*
D03*
D38*
X67500Y10500D02*
D03*
X72500D02*
D03*
Y24000D02*
D03*
X67500D02*
D03*
D39*
X37059Y17811D02*
D03*
X37109Y37786D02*
D03*
D40*
X11693Y19694D02*
D03*
X19193Y19669D02*
D03*
X53061Y28423D02*
D03*
X60561Y28398D02*
D03*
D41*
X50241Y53111D02*
D03*
X43580Y53238D02*
D03*
X42674Y36624D02*
D03*
X87224Y46660D02*
D03*
D42*
X42570Y21788D02*
D03*
Y33788D02*
D03*
X17678Y24886D02*
D03*
Y36886D02*
D03*
X13335Y36963D02*
D03*
Y24963D02*
D03*
D43*
X43557Y51232D02*
D03*
Y48692D02*
D03*
Y46152D02*
D03*
D44*
X23364Y48692D02*
D03*
D45*
X15037Y47015D02*
D03*
D46*
X8687Y44475D02*
D03*
Y47015D02*
D03*
Y49555D02*
D03*
D47*
X60286Y3119D02*
D03*
D48*
Y5659D02*
D03*
Y8199D02*
D03*
D49*
X88036Y8769D02*
D03*
D50*
Y15869D02*
D03*
D51*
X47194Y8597D02*
D03*
X46101Y8055D02*
D03*
X48674Y17071D02*
D03*
X44196Y7644D02*
D03*
X41351Y8694D02*
D03*
X42901Y9844D02*
D03*
X39984Y4420D02*
D03*
X44070Y17750D02*
D03*
X86104Y19474D02*
D03*
X64465Y13640D02*
D03*
X20486Y39853D02*
D03*
Y31115D02*
D03*
X51257Y23409D02*
D03*
X37109Y26756D02*
D03*
X79736Y1274D02*
D03*
X69452Y14173D02*
D03*
X68529Y4623D02*
D03*
X75743Y1240D02*
D03*
X70838Y3074D02*
D03*
D52*
X7823Y2845D02*
D03*
D53*
X48108Y39065D02*
D03*
D54*
X76937Y16555D02*
D03*
X67894Y28753D02*
D03*
D55*
X9881Y31043D02*
D03*
D56*
X12346Y18040D02*
D03*
X18896D02*
D03*
X12346Y15590D02*
D03*
X18896D02*
D03*
X19030Y3976D02*
D03*
X25580D02*
D03*
X19030Y1526D02*
D03*
X25580D02*
D03*
X16792D02*
D03*
X10242D02*
D03*
X16792Y3976D02*
D03*
X10242D02*
D03*
X34419Y1579D02*
D03*
X27869D02*
D03*
X34419Y4029D02*
D03*
X27869D02*
D03*
D57*
X52248Y14256D02*
D03*
X55398Y14256D02*
D03*
D58*
X45431Y4029D02*
D03*
X47431D02*
D03*
X50274Y23597D02*
D03*
X48274D02*
D03*
X70447Y12487D02*
D03*
X72447D02*
D03*
X42180Y15214D02*
D03*
X44180D02*
D03*
Y13644D02*
D03*
X42180D02*
D03*
X78800Y1274D02*
D03*
X76800D02*
D03*
X72447Y14173D02*
D03*
X70447D02*
D03*
X85023Y19456D02*
D03*
X83023D02*
D03*
X38268Y33738D02*
D03*
X40268D02*
D03*
X42863Y4068D02*
D03*
X40863D02*
D03*
X24679Y26848D02*
D03*
X26679D02*
D03*
D59*
X80366Y33659D02*
D03*
Y40559D02*
D03*
D60*
X82666Y44753D02*
D03*
X80366D02*
D03*
X78066D02*
D03*
D61*
X80366Y50853D02*
D03*
D62*
X66553Y14173D02*
D03*
X68453D02*
D03*
X67503Y12173D02*
D03*
D63*
X42901Y11467D02*
D03*
X44171D02*
D03*
X45441D02*
D03*
X46711D02*
D03*
X42901Y6067D02*
D03*
X44171D02*
D03*
X45441D02*
D03*
X46711D02*
D03*
D64*
X84781Y8915D02*
D03*
X77881D02*
D03*
D65*
X64338Y18200D02*
D03*
Y16200D02*
D03*
X47396Y13406D02*
D03*
Y15406D02*
D03*
X39725Y7655D02*
D03*
Y5655D02*
D03*
X41300Y7659D02*
D03*
Y5659D02*
D03*
X88074Y13243D02*
D03*
Y11243D02*
D03*
X72543Y6235D02*
D03*
Y4235D02*
D03*
X45669Y15406D02*
D03*
Y13406D02*
D03*
X50274Y27162D02*
D03*
Y25162D02*
D03*
D66*
X67929Y26543D02*
D03*
X72229D02*
D03*
D67*
X9906Y32588D02*
D03*
Y36888D02*
D03*
X15443Y39735D02*
D03*
Y44035D02*
D03*
D68*
X11430Y47066D02*
D03*
Y50266D02*
D03*
D69*
X69799Y3293D02*
D03*
D70*
X68529D02*
D03*
X67259D02*
D03*
X65989D02*
D03*
Y7925D02*
D03*
X67259D02*
D03*
X68529D02*
D03*
X69799D02*
D03*
D71*
X63491Y6119D02*
D03*
Y4317D02*
D03*
X9982Y29882D02*
D03*
Y28081D02*
D03*
X38710Y14261D02*
D03*
Y12460D02*
D03*
D72*
X23428Y39853D02*
D03*
X27728D02*
D03*
X40287Y28256D02*
D03*
X44587D02*
D03*
D73*
X69051Y20269D02*
D03*
X70852D02*
D03*
X26428Y24587D02*
D03*
X24626D02*
D03*
D74*
X12116Y15820D02*
Y17810D01*
Y15820D02*
X12346Y15590D01*
X12116Y17810D02*
X12346Y18040D01*
X11693D02*
Y19694D01*
X18896Y15590D02*
Y18040D01*
X19193Y18337D02*
Y19669D01*
X28116Y1467D02*
Y3917D01*
X25607Y4003D02*
X27843D01*
X27869Y4029D01*
X25580Y3976D02*
X25607Y4003D01*
Y1553D02*
X27843D01*
X27869Y1579D01*
X25580Y1526D02*
X25607Y1553D01*
X19053Y1526D02*
X19328Y1801D01*
X19030Y1526D02*
X19053D01*
X19328Y1801D02*
Y3701D01*
X49009Y21704D02*
Y21822D01*
X48793Y21488D02*
X49009Y21704D01*
X48274Y22556D02*
X49009Y21822D01*
X48274Y22556D02*
Y23597D01*
X42130Y15264D02*
Y15389D01*
X41058Y16337D02*
X42005Y15389D01*
X40938Y16907D02*
X41058Y16788D01*
X42130Y15264D02*
X42180Y15214D01*
X40488Y16907D02*
X40938D01*
X42005Y15389D02*
X42130D01*
X41058Y16337D02*
Y16788D01*
D75*
X15570Y36931D02*
X17634D01*
X14636Y36924D02*
X15570D01*
D76*
X45431Y4029D02*
X45441Y4354D01*
Y6067D01*
X42901Y6456D02*
X42913Y6443D01*
Y6080D02*
Y6443D01*
X42863Y4362D02*
Y5659D01*
X42783D02*
X42783Y5659D01*
X41300Y5659D02*
X42783D01*
X42863D02*
Y6030D01*
X42217Y12596D02*
Y13607D01*
Y12596D02*
X42846Y11967D01*
D77*
X87930Y44328D02*
X89234Y43023D01*
Y28515D02*
Y43023D01*
X82691Y44328D02*
X87930D01*
X85234Y24515D02*
X89234Y28515D01*
D78*
X60554Y28308D02*
D03*
D79*
X85171Y29480D02*
D03*
D80*
X85184Y39395D02*
D03*
D81*
X74502Y39154D02*
D03*
D82*
X29904Y48755D02*
D03*
D83*
X85212Y29541D02*
D03*
D84*
X85211Y40542D02*
D03*
%TF.MD5,264ee1753e33f3f45b9294c8e7cb76b0*%
M02*
