%TF.GenerationSoftware,Altium Limited,Altium Designer,21.6.4 (81)*%
G04 Layer_Color=8388736*
%FSLAX43Y43*%
%MOMM*%
%TF.SameCoordinates,100B324C-8CEB-4A13-B8D1-7C84912F4746*%
%TF.FilePolarity,Positive*%
%TF.FileFunction,Other,Bottom_Assembly*%
%TF.Part,Single*%
G01*
G75*
%TA.AperFunction,NonConductor*%
%ADD77C,0.200*%
G36*
X60952Y5993D02*
X60958Y5992D01*
X60965Y5991D01*
X60973Y5990D01*
X60981Y5988D01*
X61001Y5983D01*
X61020Y5976D01*
X61029Y5971D01*
X61039Y5966D01*
X61048Y5960D01*
X61056Y5952D01*
X61057Y5951D01*
X61058Y5951D01*
X61060Y5948D01*
X61063Y5945D01*
X61066Y5941D01*
X61070Y5936D01*
X61074Y5931D01*
X61078Y5924D01*
X61086Y5910D01*
X61093Y5892D01*
X61096Y5883D01*
X61097Y5873D01*
X61099Y5863D01*
X61100Y5852D01*
Y5850D01*
Y5846D01*
X61099Y5841D01*
X61098Y5832D01*
X61097Y5824D01*
X61094Y5813D01*
X61091Y5802D01*
X61086Y5791D01*
X61086Y5790D01*
X61084Y5786D01*
X61081Y5780D01*
X61077Y5772D01*
X61071Y5763D01*
X61063Y5752D01*
X61055Y5741D01*
X61044Y5728D01*
X61043Y5727D01*
X61039Y5722D01*
X61035Y5719D01*
X61032Y5715D01*
X61027Y5710D01*
X61021Y5705D01*
X61015Y5699D01*
X61008Y5692D01*
X61001Y5685D01*
X60992Y5676D01*
X60982Y5668D01*
X60972Y5659D01*
X60960Y5649D01*
X60948Y5639D01*
X60947Y5638D01*
X60946Y5637D01*
X60943Y5634D01*
X60939Y5631D01*
X60935Y5627D01*
X60930Y5622D01*
X60918Y5613D01*
X60905Y5602D01*
X60893Y5591D01*
X60883Y5581D01*
X60879Y5577D01*
X60875Y5574D01*
X60874Y5573D01*
X60872Y5571D01*
X60869Y5568D01*
X60865Y5563D01*
X60862Y5558D01*
X60857Y5553D01*
X60848Y5540D01*
X61100D01*
Y5480D01*
X60761D01*
Y5481D01*
Y5484D01*
Y5488D01*
X60762Y5494D01*
X60763Y5501D01*
X60764Y5508D01*
X60766Y5515D01*
X60769Y5523D01*
Y5524D01*
X60769Y5525D01*
X60771Y5529D01*
X60774Y5536D01*
X60778Y5545D01*
X60784Y5555D01*
X60791Y5567D01*
X60800Y5579D01*
X60810Y5591D01*
Y5592D01*
X60811Y5593D01*
X60815Y5597D01*
X60822Y5604D01*
X60831Y5614D01*
X60842Y5625D01*
X60856Y5638D01*
X60873Y5653D01*
X60892Y5668D01*
X60893Y5669D01*
X60896Y5671D01*
X60900Y5675D01*
X60905Y5679D01*
X60912Y5685D01*
X60920Y5692D01*
X60928Y5699D01*
X60938Y5707D01*
X60956Y5725D01*
X60975Y5743D01*
X60984Y5752D01*
X60992Y5761D01*
X60999Y5769D01*
X61005Y5777D01*
Y5778D01*
X61007Y5778D01*
X61008Y5781D01*
X61009Y5784D01*
X61015Y5792D01*
X61021Y5801D01*
X61026Y5813D01*
X61031Y5826D01*
X61034Y5840D01*
X61035Y5853D01*
Y5854D01*
Y5855D01*
X61035Y5859D01*
X61034Y5866D01*
X61032Y5875D01*
X61029Y5885D01*
X61024Y5895D01*
X61017Y5906D01*
X61008Y5916D01*
X61007Y5917D01*
X61003Y5920D01*
X60998Y5924D01*
X60990Y5929D01*
X60979Y5934D01*
X60967Y5938D01*
X60953Y5941D01*
X60938Y5942D01*
X60933D01*
X60930Y5941D01*
X60922Y5940D01*
X60911Y5938D01*
X60900Y5935D01*
X60888Y5930D01*
X60876Y5923D01*
X60865Y5914D01*
X60863Y5913D01*
X60860Y5909D01*
X60856Y5903D01*
X60851Y5894D01*
X60846Y5884D01*
X60842Y5871D01*
X60839Y5856D01*
X60837Y5839D01*
X60773Y5846D01*
Y5846D01*
X60774Y5849D01*
Y5852D01*
X60774Y5858D01*
X60776Y5863D01*
X60777Y5870D01*
X60780Y5878D01*
X60782Y5886D01*
X60788Y5904D01*
X60797Y5922D01*
X60802Y5931D01*
X60808Y5940D01*
X60815Y5948D01*
X60822Y5955D01*
X60823Y5956D01*
X60825Y5957D01*
X60827Y5959D01*
X60831Y5961D01*
X60835Y5964D01*
X60840Y5967D01*
X60846Y5971D01*
X60854Y5974D01*
X60862Y5978D01*
X60871Y5982D01*
X60880Y5985D01*
X60890Y5988D01*
X60902Y5990D01*
X60913Y5992D01*
X60926Y5993D01*
X60939Y5994D01*
X60947D01*
X60952Y5993D01*
D02*
G37*
G36*
X60524Y5991D02*
X60530D01*
X60546Y5990D01*
X60562Y5988D01*
X60580Y5985D01*
X60596Y5982D01*
X60604Y5979D01*
X60611Y5977D01*
X60612D01*
X60613Y5977D01*
X60617Y5974D01*
X60624Y5971D01*
X60632Y5966D01*
X60641Y5960D01*
X60650Y5951D01*
X60659Y5940D01*
X60668Y5928D01*
Y5928D01*
X60669Y5927D01*
X60672Y5923D01*
X60675Y5915D01*
X60679Y5906D01*
X60683Y5894D01*
X60686Y5881D01*
X60689Y5867D01*
X60689Y5852D01*
Y5851D01*
Y5849D01*
Y5846D01*
X60689Y5843D01*
Y5838D01*
X60688Y5832D01*
X60685Y5820D01*
X60681Y5805D01*
X60675Y5790D01*
X60666Y5774D01*
X60660Y5767D01*
X60654Y5759D01*
X60653Y5758D01*
X60652Y5758D01*
X60650Y5756D01*
X60647Y5753D01*
X60644Y5750D01*
X60639Y5747D01*
X60633Y5744D01*
X60627Y5739D01*
X60620Y5736D01*
X60612Y5732D01*
X60603Y5727D01*
X60593Y5724D01*
X60582Y5721D01*
X60571Y5717D01*
X60559Y5715D01*
X60545Y5713D01*
X60547Y5712D01*
X60550Y5710D01*
X60554Y5707D01*
X60560Y5705D01*
X60573Y5696D01*
X60580Y5691D01*
X60586Y5687D01*
X60587Y5685D01*
X60591Y5682D01*
X60597Y5676D01*
X60604Y5668D01*
X60613Y5658D01*
X60622Y5647D01*
X60632Y5634D01*
X60642Y5619D01*
X60730Y5480D01*
X60646D01*
X60579Y5586D01*
Y5587D01*
X60577Y5588D01*
X60576Y5591D01*
X60573Y5594D01*
X60568Y5602D01*
X60562Y5612D01*
X60553Y5623D01*
X60545Y5635D01*
X60537Y5646D01*
X60530Y5656D01*
X60529Y5657D01*
X60527Y5660D01*
X60523Y5665D01*
X60518Y5670D01*
X60507Y5681D01*
X60501Y5686D01*
X60495Y5690D01*
X60494Y5691D01*
X60493Y5692D01*
X60490Y5693D01*
X60485Y5696D01*
X60481Y5698D01*
X60476Y5700D01*
X60464Y5704D01*
X60463D01*
X60462Y5705D01*
X60459D01*
X60455Y5705D01*
X60450Y5706D01*
X60444D01*
X60436Y5707D01*
X60349D01*
Y5480D01*
X60281D01*
Y5991D01*
X60518D01*
X60524Y5991D01*
D02*
G37*
G36*
X61349Y5993D02*
X61359Y5991D01*
X61370Y5989D01*
X61382Y5986D01*
X61395Y5982D01*
X61406Y5977D01*
X61407D01*
X61408Y5976D01*
X61412Y5974D01*
X61417Y5970D01*
X61425Y5965D01*
X61433Y5957D01*
X61442Y5949D01*
X61450Y5940D01*
X61458Y5928D01*
X61459Y5927D01*
X61462Y5923D01*
X61465Y5917D01*
X61470Y5907D01*
X61474Y5896D01*
X61480Y5883D01*
X61485Y5869D01*
X61490Y5852D01*
Y5852D01*
X61491Y5850D01*
X61491Y5848D01*
X61492Y5844D01*
X61493Y5840D01*
X61494Y5835D01*
X61495Y5828D01*
X61496Y5821D01*
X61497Y5812D01*
X61498Y5804D01*
X61499Y5793D01*
X61500Y5783D01*
X61501Y5771D01*
Y5759D01*
X61502Y5746D01*
Y5732D01*
Y5731D01*
Y5728D01*
Y5723D01*
Y5717D01*
X61501Y5709D01*
Y5700D01*
X61500Y5690D01*
X61500Y5680D01*
X61497Y5656D01*
X61494Y5632D01*
X61489Y5608D01*
X61486Y5597D01*
X61483Y5586D01*
Y5586D01*
X61482Y5584D01*
X61480Y5581D01*
X61479Y5577D01*
X61477Y5572D01*
X61474Y5567D01*
X61468Y5554D01*
X61461Y5541D01*
X61451Y5526D01*
X61440Y5513D01*
X61427Y5501D01*
X61426D01*
X61426Y5499D01*
X61423Y5498D01*
X61420Y5496D01*
X61417Y5494D01*
X61413Y5491D01*
X61402Y5486D01*
X61389Y5481D01*
X61373Y5475D01*
X61355Y5472D01*
X61335Y5471D01*
X61327D01*
X61322Y5472D01*
X61316Y5472D01*
X61309Y5474D01*
X61301Y5475D01*
X61292Y5478D01*
X61283Y5481D01*
X61273Y5484D01*
X61264Y5488D01*
X61254Y5493D01*
X61245Y5499D01*
X61235Y5506D01*
X61226Y5515D01*
X61218Y5523D01*
X61217Y5524D01*
X61216Y5526D01*
X61213Y5530D01*
X61210Y5536D01*
X61206Y5543D01*
X61202Y5552D01*
X61197Y5562D01*
X61193Y5574D01*
X61188Y5587D01*
X61184Y5603D01*
X61179Y5620D01*
X61176Y5639D01*
X61172Y5659D01*
X61170Y5682D01*
X61168Y5706D01*
X61168Y5732D01*
Y5733D01*
Y5736D01*
Y5741D01*
Y5747D01*
X61168Y5755D01*
Y5764D01*
X61169Y5773D01*
X61170Y5784D01*
X61172Y5807D01*
X61176Y5832D01*
X61180Y5856D01*
X61183Y5867D01*
X61186Y5878D01*
Y5879D01*
X61187Y5880D01*
X61188Y5883D01*
X61190Y5887D01*
X61191Y5892D01*
X61194Y5897D01*
X61200Y5910D01*
X61208Y5923D01*
X61217Y5937D01*
X61228Y5951D01*
X61242Y5963D01*
X61242D01*
X61243Y5965D01*
X61245Y5966D01*
X61248Y5968D01*
X61252Y5971D01*
X61256Y5973D01*
X61267Y5979D01*
X61281Y5984D01*
X61296Y5989D01*
X61315Y5992D01*
X61335Y5994D01*
X61341D01*
X61349Y5993D01*
D02*
G37*
G36*
X25695Y8878D02*
X25707Y8878D01*
X25719Y8875D01*
X25730Y8873D01*
X25740Y8870D01*
X25750Y8867D01*
X25759Y8864D01*
X25767Y8860D01*
X25774Y8856D01*
X25780Y8853D01*
X25785Y8850D01*
X25790Y8847D01*
X25794Y8844D01*
X25796Y8842D01*
X25797Y8841D01*
X25798Y8841D01*
X25805Y8833D01*
X25812Y8825D01*
X25819Y8816D01*
X25824Y8807D01*
X25833Y8790D01*
X25839Y8772D01*
X25841Y8764D01*
X25843Y8756D01*
X25845Y8749D01*
X25846Y8743D01*
X25847Y8738D01*
Y8734D01*
X25848Y8732D01*
Y8731D01*
X25783Y8725D01*
X25782Y8742D01*
X25779Y8756D01*
X25774Y8770D01*
X25769Y8780D01*
X25765Y8789D01*
X25760Y8795D01*
X25757Y8799D01*
X25756Y8800D01*
X25745Y8809D01*
X25733Y8816D01*
X25720Y8821D01*
X25709Y8824D01*
X25699Y8826D01*
X25690Y8827D01*
X25687Y8827D01*
X25683D01*
X25667Y8827D01*
X25653Y8824D01*
X25641Y8819D01*
X25631Y8815D01*
X25623Y8810D01*
X25618Y8806D01*
X25614Y8803D01*
X25612Y8802D01*
X25604Y8791D01*
X25597Y8781D01*
X25592Y8771D01*
X25589Y8760D01*
X25587Y8752D01*
X25586Y8745D01*
X25585Y8740D01*
Y8739D01*
Y8739D01*
X25587Y8725D01*
X25590Y8711D01*
X25595Y8699D01*
X25600Y8687D01*
X25606Y8677D01*
X25611Y8669D01*
X25612Y8666D01*
X25614Y8664D01*
X25615Y8663D01*
Y8663D01*
X25621Y8654D01*
X25629Y8646D01*
X25637Y8637D01*
X25646Y8629D01*
X25664Y8611D01*
X25683Y8593D01*
X25692Y8585D01*
X25700Y8578D01*
X25709Y8571D01*
X25715Y8565D01*
X25720Y8561D01*
X25725Y8557D01*
X25728Y8555D01*
X25729Y8554D01*
X25747Y8538D01*
X25764Y8524D01*
X25778Y8510D01*
X25789Y8499D01*
X25799Y8490D01*
X25805Y8483D01*
X25809Y8479D01*
X25811Y8478D01*
Y8477D01*
X25821Y8465D01*
X25829Y8453D01*
X25836Y8441D01*
X25842Y8431D01*
X25847Y8422D01*
X25850Y8415D01*
X25851Y8411D01*
X25852Y8410D01*
Y8409D01*
X25855Y8401D01*
X25856Y8394D01*
X25858Y8386D01*
X25859Y8380D01*
X25859Y8374D01*
Y8369D01*
Y8366D01*
Y8365D01*
X25520D01*
Y8426D01*
X25772D01*
X25763Y8439D01*
X25759Y8444D01*
X25755Y8449D01*
X25751Y8453D01*
X25749Y8456D01*
X25746Y8459D01*
X25746Y8459D01*
X25742Y8463D01*
X25737Y8467D01*
X25727Y8476D01*
X25715Y8487D01*
X25703Y8498D01*
X25691Y8508D01*
X25686Y8513D01*
X25681Y8517D01*
X25678Y8520D01*
X25675Y8522D01*
X25673Y8524D01*
X25672Y8524D01*
X25661Y8535D01*
X25649Y8544D01*
X25638Y8554D01*
X25629Y8562D01*
X25620Y8570D01*
X25612Y8578D01*
X25605Y8584D01*
X25599Y8590D01*
X25593Y8596D01*
X25589Y8601D01*
X25585Y8604D01*
X25581Y8608D01*
X25578Y8612D01*
X25576Y8614D01*
X25566Y8626D01*
X25557Y8637D01*
X25550Y8649D01*
X25544Y8657D01*
X25539Y8666D01*
X25536Y8671D01*
X25535Y8675D01*
X25534Y8677D01*
X25530Y8688D01*
X25527Y8699D01*
X25524Y8709D01*
X25522Y8718D01*
X25522Y8726D01*
X25521Y8732D01*
Y8736D01*
Y8737D01*
X25522Y8748D01*
X25523Y8759D01*
X25525Y8769D01*
X25528Y8778D01*
X25535Y8796D01*
X25542Y8810D01*
X25547Y8816D01*
X25550Y8822D01*
X25554Y8827D01*
X25558Y8830D01*
X25561Y8833D01*
X25562Y8836D01*
X25564Y8837D01*
X25564Y8838D01*
X25573Y8845D01*
X25581Y8852D01*
X25591Y8857D01*
X25601Y8861D01*
X25620Y8869D01*
X25639Y8874D01*
X25647Y8875D01*
X25655Y8877D01*
X25663Y8878D01*
X25669Y8878D01*
X25674Y8879D01*
X25681D01*
X25695Y8878D01*
D02*
G37*
G36*
X25442Y8607D02*
X25383Y8599D01*
X25377Y8607D01*
X25371Y8614D01*
X25365Y8620D01*
X25359Y8626D01*
X25353Y8629D01*
X25349Y8633D01*
X25346Y8634D01*
X25345Y8635D01*
X25335Y8640D01*
X25326Y8643D01*
X25317Y8646D01*
X25308Y8648D01*
X25301Y8649D01*
X25295Y8649D01*
X25281D01*
X25272Y8648D01*
X25256Y8644D01*
X25243Y8639D01*
X25231Y8634D01*
X25222Y8628D01*
X25216Y8623D01*
X25212Y8619D01*
X25210Y8618D01*
Y8618D01*
X25200Y8605D01*
X25193Y8592D01*
X25187Y8578D01*
X25184Y8564D01*
X25182Y8552D01*
X25181Y8547D01*
Y8542D01*
X25180Y8538D01*
Y8535D01*
Y8534D01*
Y8533D01*
Y8523D01*
X25182Y8513D01*
X25185Y8495D01*
X25190Y8479D01*
X25196Y8467D01*
X25202Y8456D01*
X25207Y8448D01*
X25209Y8446D01*
X25210Y8444D01*
X25211Y8443D01*
X25212Y8442D01*
X25218Y8436D01*
X25224Y8431D01*
X25237Y8422D01*
X25250Y8416D01*
X25262Y8413D01*
X25272Y8410D01*
X25281Y8409D01*
X25284Y8408D01*
X25289D01*
X25303Y8409D01*
X25315Y8412D01*
X25326Y8416D01*
X25335Y8420D01*
X25343Y8425D01*
X25349Y8428D01*
X25352Y8431D01*
X25354Y8432D01*
X25363Y8442D01*
X25370Y8453D01*
X25376Y8466D01*
X25380Y8477D01*
X25383Y8488D01*
X25386Y8496D01*
X25386Y8500D01*
X25387Y8502D01*
Y8504D01*
Y8504D01*
X25453Y8499D01*
X25451Y8487D01*
X25449Y8476D01*
X25442Y8456D01*
X25434Y8438D01*
X25430Y8430D01*
X25426Y8423D01*
X25422Y8416D01*
X25417Y8411D01*
X25414Y8406D01*
X25410Y8402D01*
X25407Y8399D01*
X25406Y8396D01*
X25404Y8396D01*
X25403Y8395D01*
X25394Y8388D01*
X25386Y8382D01*
X25376Y8377D01*
X25366Y8373D01*
X25348Y8366D01*
X25329Y8362D01*
X25321Y8360D01*
X25313Y8359D01*
X25306Y8358D01*
X25301Y8357D01*
X25295Y8357D01*
X25289D01*
X25273Y8357D01*
X25258Y8360D01*
X25244Y8363D01*
X25232Y8366D01*
X25220Y8371D01*
X25209Y8377D01*
X25199Y8382D01*
X25190Y8388D01*
X25182Y8394D01*
X25174Y8399D01*
X25168Y8405D01*
X25163Y8409D01*
X25159Y8413D01*
X25156Y8416D01*
X25155Y8418D01*
X25154Y8419D01*
X25147Y8428D01*
X25141Y8439D01*
X25135Y8448D01*
X25131Y8459D01*
X25123Y8479D01*
X25119Y8498D01*
X25117Y8506D01*
X25116Y8514D01*
X25115Y8521D01*
X25114Y8527D01*
X25114Y8532D01*
Y8535D01*
Y8538D01*
Y8538D01*
X25114Y8552D01*
X25116Y8564D01*
X25118Y8577D01*
X25121Y8588D01*
X25125Y8598D01*
X25128Y8609D01*
X25133Y8618D01*
X25136Y8626D01*
X25141Y8633D01*
X25145Y8640D01*
X25149Y8645D01*
X25153Y8650D01*
X25156Y8654D01*
X25158Y8656D01*
X25159Y8657D01*
X25160Y8658D01*
X25169Y8666D01*
X25178Y8674D01*
X25187Y8680D01*
X25197Y8685D01*
X25207Y8690D01*
X25216Y8694D01*
X25234Y8699D01*
X25242Y8701D01*
X25250Y8703D01*
X25256Y8703D01*
X25262Y8704D01*
X25267Y8705D01*
X25283D01*
X25292Y8703D01*
X25309Y8700D01*
X25326Y8694D01*
X25340Y8688D01*
X25352Y8683D01*
X25358Y8680D01*
X25362Y8677D01*
X25366Y8675D01*
X25368Y8674D01*
X25369Y8673D01*
X25370Y8672D01*
X25343Y8810D01*
X25138D01*
Y8870D01*
X25392D01*
X25442Y8607D01*
D02*
G37*
G36*
X26340Y8365D02*
X26272D01*
Y8592D01*
X26185D01*
X26176Y8592D01*
X26171D01*
X26165Y8591D01*
X26162Y8590D01*
X26159D01*
X26157Y8589D01*
X26157D01*
X26145Y8586D01*
X26140Y8583D01*
X26135Y8581D01*
X26131Y8579D01*
X26128Y8578D01*
X26126Y8577D01*
X26125Y8576D01*
X26120Y8572D01*
X26114Y8566D01*
X26103Y8555D01*
X26097Y8550D01*
X26094Y8546D01*
X26091Y8543D01*
X26091Y8542D01*
X26083Y8532D01*
X26075Y8521D01*
X26067Y8509D01*
X26059Y8498D01*
X26052Y8487D01*
X26047Y8479D01*
X26045Y8476D01*
X26043Y8474D01*
X26042Y8473D01*
Y8472D01*
X25975Y8365D01*
X25890D01*
X25978Y8504D01*
X25989Y8519D01*
X25998Y8533D01*
X26008Y8544D01*
X26016Y8554D01*
X26023Y8561D01*
X26029Y8567D01*
X26033Y8571D01*
X26035Y8572D01*
X26040Y8577D01*
X26047Y8582D01*
X26060Y8590D01*
X26066Y8593D01*
X26071Y8596D01*
X26074Y8598D01*
X26075Y8598D01*
X26062Y8601D01*
X26049Y8603D01*
X26038Y8606D01*
X26027Y8609D01*
X26018Y8613D01*
X26009Y8618D01*
X26001Y8621D01*
X25993Y8625D01*
X25987Y8629D01*
X25981Y8633D01*
X25977Y8636D01*
X25973Y8639D01*
X25970Y8641D01*
X25968Y8643D01*
X25967Y8644D01*
X25967Y8645D01*
X25961Y8652D01*
X25955Y8660D01*
X25946Y8675D01*
X25940Y8691D01*
X25935Y8705D01*
X25933Y8718D01*
X25932Y8723D01*
Y8728D01*
X25931Y8732D01*
Y8735D01*
Y8737D01*
Y8737D01*
X25932Y8753D01*
X25934Y8767D01*
X25938Y8780D01*
X25941Y8791D01*
X25946Y8801D01*
X25949Y8808D01*
X25952Y8813D01*
X25952Y8813D01*
Y8814D01*
X25961Y8826D01*
X25970Y8836D01*
X25980Y8845D01*
X25989Y8852D01*
X25997Y8857D01*
X26003Y8860D01*
X26008Y8862D01*
X26009Y8863D01*
X26009D01*
X26016Y8865D01*
X26024Y8867D01*
X26040Y8871D01*
X26058Y8873D01*
X26074Y8875D01*
X26090Y8876D01*
X26097D01*
X26103Y8877D01*
X26340D01*
Y8365D01*
D02*
G37*
%LPC*%
G36*
X60510Y5934D02*
X60349D01*
Y5765D01*
X60501D01*
X60510Y5766D01*
X60520Y5767D01*
X60532Y5767D01*
X60544Y5769D01*
X60556Y5771D01*
X60566Y5774D01*
X60567Y5775D01*
X60570Y5776D01*
X60575Y5778D01*
X60581Y5781D01*
X60587Y5786D01*
X60594Y5791D01*
X60601Y5798D01*
X60606Y5805D01*
X60607Y5806D01*
X60608Y5809D01*
X60610Y5813D01*
X60613Y5819D01*
X60616Y5826D01*
X60618Y5833D01*
X60619Y5842D01*
X60620Y5851D01*
Y5852D01*
Y5852D01*
X60619Y5857D01*
X60618Y5863D01*
X60617Y5872D01*
X60613Y5881D01*
X60609Y5892D01*
X60602Y5901D01*
X60593Y5911D01*
X60592Y5911D01*
X60588Y5914D01*
X60582Y5918D01*
X60573Y5923D01*
X60562Y5927D01*
X60547Y5931D01*
X60530Y5934D01*
X60510Y5934D01*
D02*
G37*
G36*
X61334Y5942D02*
X61330D01*
X61327Y5941D01*
X61318Y5940D01*
X61309Y5937D01*
X61298Y5933D01*
X61286Y5926D01*
X61280Y5922D01*
X61274Y5917D01*
X61269Y5911D01*
X61264Y5905D01*
Y5904D01*
X61262Y5903D01*
X61261Y5900D01*
X61259Y5896D01*
X61256Y5890D01*
X61253Y5883D01*
X61251Y5875D01*
X61248Y5866D01*
X61245Y5855D01*
X61242Y5842D01*
X61239Y5828D01*
X61237Y5812D01*
X61235Y5795D01*
X61233Y5775D01*
X61233Y5755D01*
X61232Y5732D01*
Y5730D01*
Y5727D01*
Y5720D01*
X61233Y5711D01*
Y5702D01*
X61233Y5690D01*
X61234Y5677D01*
X61236Y5664D01*
X61239Y5635D01*
X61242Y5621D01*
X61245Y5608D01*
X61247Y5595D01*
X61252Y5583D01*
X61256Y5573D01*
X61262Y5564D01*
Y5563D01*
X61263Y5563D01*
X61267Y5557D01*
X61273Y5551D01*
X61281Y5543D01*
X61293Y5536D01*
X61305Y5529D01*
X61319Y5524D01*
X61327Y5523D01*
X61335Y5523D01*
X61339D01*
X61342Y5523D01*
X61349Y5525D01*
X61360Y5528D01*
X61371Y5533D01*
X61383Y5540D01*
X61389Y5545D01*
X61395Y5551D01*
X61401Y5557D01*
X61407Y5564D01*
Y5565D01*
X61409Y5566D01*
X61410Y5569D01*
X61412Y5572D01*
X61415Y5577D01*
X61417Y5584D01*
X61420Y5591D01*
X61423Y5600D01*
X61425Y5611D01*
X61428Y5623D01*
X61431Y5637D01*
X61433Y5652D01*
X61434Y5670D01*
X61436Y5688D01*
X61437Y5709D01*
Y5732D01*
Y5733D01*
Y5733D01*
Y5737D01*
Y5744D01*
X61437Y5753D01*
Y5762D01*
X61436Y5774D01*
X61435Y5787D01*
X61434Y5801D01*
X61430Y5829D01*
X61428Y5843D01*
X61425Y5856D01*
X61422Y5869D01*
X61417Y5880D01*
X61413Y5891D01*
X61408Y5900D01*
Y5900D01*
X61406Y5901D01*
X61405Y5903D01*
X61403Y5906D01*
X61396Y5913D01*
X61388Y5921D01*
X61377Y5928D01*
X61364Y5935D01*
X61358Y5938D01*
X61350Y5940D01*
X61342Y5941D01*
X61334Y5942D01*
D02*
G37*
G36*
X26272Y8820D02*
X26111D01*
X26091Y8819D01*
X26074Y8816D01*
X26059Y8813D01*
X26048Y8808D01*
X26038Y8804D01*
X26032Y8800D01*
X26029Y8797D01*
X26027Y8796D01*
X26018Y8787D01*
X26012Y8777D01*
X26007Y8767D01*
X26003Y8758D01*
X26002Y8749D01*
X26001Y8742D01*
X26001Y8738D01*
Y8737D01*
Y8737D01*
X26001Y8728D01*
X26003Y8719D01*
X26005Y8711D01*
X26007Y8705D01*
X26010Y8699D01*
X26012Y8694D01*
X26014Y8691D01*
X26015Y8691D01*
X26020Y8683D01*
X26026Y8677D01*
X26033Y8671D01*
X26040Y8667D01*
X26046Y8664D01*
X26050Y8662D01*
X26053Y8660D01*
X26055Y8660D01*
X26065Y8657D01*
X26077Y8654D01*
X26089Y8653D01*
X26100Y8652D01*
X26111Y8651D01*
X26120Y8651D01*
X26272D01*
Y8820D01*
D02*
G37*
%LPD*%
D77*
X57701Y10649D02*
X62861D01*
Y669D02*
Y10649D01*
X57701Y669D02*
X62861D01*
X57701D02*
Y10649D01*
X28494Y7102D02*
Y9611D01*
X24186Y7102D02*
X28494D01*
X24186D02*
Y9611D01*
X28494D01*
%TF.MD5,eda9889b7de3bda4a4ce78d9cbf1b7f9*%
M02*
