%TF.GenerationSoftware,Altium Limited,Altium Designer,21.6.4 (81)*%
G04 Layer_Physical_Order=1*
G04 Layer_Color=255*
%FSLAX43Y43*%
%MOMM*%
%TF.SameCoordinates,100B324C-8CEB-4A13-B8D1-7C84912F4746*%
%TF.FilePolarity,Positive*%
%TF.FileFunction,Copper,L1,Top,Signal*%
%TF.Part,Single*%
G01*
G75*
%TA.AperFunction,TestPad*%
%ADD10R,7.500X3.000*%
%ADD11R,0.900X0.850*%
%ADD12R,1.600X1.000*%
%ADD13R,2.500X1.500*%
%ADD14R,0.850X0.900*%
%TA.AperFunction,Conductor*%
%ADD15C,2.000*%
%ADD16C,1.500*%
%ADD17C,1.000*%
%ADD18C,0.500*%
%ADD19C,1.200*%
%ADD20C,0.800*%
%ADD21R,1.881X5.156*%
%ADD22R,1.395X4.040*%
%ADD23R,3.522X3.251*%
%ADD24R,3.333X3.701*%
%ADD25R,3.724X3.766*%
%ADD26R,2.718X4.191*%
%ADD27R,19.812X10.160*%
%ADD28R,2.528X2.957*%
%TA.AperFunction,ComponentPad*%
%ADD29C,2.000*%
%TA.AperFunction,TestPad*%
%ADD30C,2.000*%
%ADD31C,2.286*%
%TA.AperFunction,ComponentPad*%
%ADD32C,3.000*%
%TA.AperFunction,TestPad*%
%ADD33C,1.524*%
%TA.AperFunction,ComponentPad*%
%ADD34C,2.286*%
%ADD35O,3.000X3.100*%
%TA.AperFunction,TestPad*%
G04:AMPARAMS|DCode=36|XSize=1.95mm|YSize=1.95mm|CornerRadius=0.488mm|HoleSize=0mm|Usage=FLASHONLY|Rotation=270.000|XOffset=0mm|YOffset=0mm|HoleType=Round|Shape=RoundedRectangle|*
%AMROUNDEDRECTD36*
21,1,1.950,0.975,0,0,270.0*
21,1,0.975,1.950,0,0,270.0*
1,1,0.975,-0.488,-0.488*
1,1,0.975,-0.488,0.488*
1,1,0.975,0.488,0.488*
1,1,0.975,0.488,-0.488*
%
%ADD36ROUNDEDRECTD36*%
%ADD37C,1.950*%
%ADD38O,2.286X1.778*%
%ADD39C,4.572*%
%TA.AperFunction,ComponentPad*%
%ADD40C,2.794*%
%ADD41O,2.286X1.778*%
%TA.AperFunction,TestPad*%
%ADD42R,1.200X1.200*%
%ADD43C,1.200*%
%ADD44R,1.250X1.250*%
%ADD45C,1.250*%
%TA.AperFunction,ViaPad*%
%ADD46C,0.800*%
%ADD47C,1.800*%
%ADD48C,1.200*%
G36*
X84404Y48630D02*
X84455Y48579D01*
X90667D01*
X90667Y6272D01*
X84545D01*
Y331D01*
X64945Y326D01*
X64911Y453D01*
X65061Y540D01*
X65311Y790D01*
X65488Y1096D01*
X65580Y1437D01*
Y1791D01*
X65488Y2133D01*
X65311Y2439D01*
X65061Y2689D01*
X64755Y2866D01*
X64413Y2957D01*
X64060D01*
X63718Y2866D01*
X63412Y2689D01*
X63162Y2439D01*
X62985Y2133D01*
X62894Y1791D01*
Y1437D01*
X62985Y1096D01*
X63162Y790D01*
X63412Y540D01*
X63562Y453D01*
X63528Y326D01*
X59323Y325D01*
X59233Y414D01*
Y530D01*
Y31090D01*
X66970D01*
Y29353D01*
X66869Y29177D01*
X66794Y28898D01*
Y28608D01*
X66869Y28328D01*
X67014Y28077D01*
X67219Y27873D01*
X67470Y27728D01*
X67749Y27653D01*
X68039D01*
X68319Y27728D01*
X68570Y27873D01*
X68774Y28077D01*
X68919Y28328D01*
X68994Y28608D01*
Y28898D01*
X68919Y29177D01*
X68887Y29234D01*
Y31090D01*
X71645D01*
X72974Y32419D01*
Y38792D01*
X73101Y38809D01*
X73166Y38566D01*
X73337Y38271D01*
X73577Y38031D01*
X73872Y37860D01*
X74201Y37772D01*
X74221D01*
Y39065D01*
Y40358D01*
X74201D01*
X73872Y40270D01*
X73577Y40100D01*
X73337Y39859D01*
X73166Y39564D01*
X73101Y39321D01*
X72974Y39338D01*
Y50521D01*
X71145Y52349D01*
X61951Y52349D01*
X61951Y54667D01*
X84404D01*
Y48630D01*
D02*
G37*
%LPC*%
G36*
X85384Y40621D02*
Y39647D01*
X86359D01*
X86283Y39931D01*
X86135Y40187D01*
X85925Y40397D01*
X85669Y40545D01*
X85384Y40621D01*
D02*
G37*
G36*
X85084Y40621D02*
X84800Y40545D01*
X84544Y40397D01*
X84334Y40187D01*
X84186Y39931D01*
X84110Y39647D01*
X85084D01*
Y40621D01*
D02*
G37*
G36*
X74541Y40358D02*
X74521D01*
Y39215D01*
X75664D01*
Y39235D01*
X75576Y39564D01*
X75406Y39859D01*
X75165Y40100D01*
X74870Y40270D01*
X74541Y40358D01*
D02*
G37*
G36*
X86359Y39347D02*
X85384D01*
Y38372D01*
X85669Y38448D01*
X85925Y38596D01*
X86135Y38806D01*
X86283Y39062D01*
X86359Y39347D01*
D02*
G37*
G36*
X85084D02*
X84110D01*
X84186Y39062D01*
X84334Y38806D01*
X84544Y38596D01*
X84800Y38448D01*
X85084Y38372D01*
Y39347D01*
D02*
G37*
G36*
X75664Y38915D02*
X74521D01*
Y37772D01*
X74541D01*
X74870Y37860D01*
X75165Y38031D01*
X75406Y38271D01*
X75576Y38566D01*
X75664Y38895D01*
Y38915D01*
D02*
G37*
G36*
X85722Y35677D02*
X84747D01*
X84567Y35654D01*
X84400Y35585D01*
X84257Y35474D01*
X84146Y35331D01*
X84077Y35164D01*
X84053Y34984D01*
Y34009D01*
X84077Y33830D01*
X84146Y33662D01*
X84257Y33519D01*
X84400Y33409D01*
X84567Y33339D01*
X84747Y33316D01*
X85722D01*
X85901Y33339D01*
X86069Y33409D01*
X86212Y33519D01*
X86322Y33662D01*
X86392Y33830D01*
X86415Y34009D01*
Y34984D01*
X86392Y35164D01*
X86322Y35331D01*
X86212Y35474D01*
X86069Y35585D01*
X85901Y35654D01*
X85722Y35677D01*
D02*
G37*
G36*
X85384Y30639D02*
Y29665D01*
X86359D01*
X86283Y29949D01*
X86135Y30206D01*
X85925Y30415D01*
X85669Y30563D01*
X85384Y30639D01*
D02*
G37*
G36*
X85084Y30639D02*
X84800Y30563D01*
X84544Y30415D01*
X84334Y30206D01*
X84186Y29949D01*
X84110Y29665D01*
X85084D01*
Y30639D01*
D02*
G37*
G36*
X60711Y29302D02*
Y28548D01*
X61465D01*
X61410Y28750D01*
X61290Y28958D01*
X61121Y29127D01*
X60913Y29247D01*
X60711Y29302D01*
D02*
G37*
G36*
X60411D02*
X60209Y29247D01*
X60001Y29127D01*
X59831Y28958D01*
X59711Y28750D01*
X59657Y28548D01*
X60411D01*
Y29302D01*
D02*
G37*
G36*
X85084Y29365D02*
X84110D01*
X84186Y29081D01*
X84334Y28824D01*
X84544Y28615D01*
X84800Y28466D01*
X85084Y28390D01*
Y29365D01*
D02*
G37*
G36*
X86359D02*
X85384D01*
Y28390D01*
X85669Y28466D01*
X85925Y28615D01*
X86135Y28824D01*
X86283Y29081D01*
X86359Y29365D01*
D02*
G37*
G36*
X61465Y28248D02*
X60711D01*
Y27494D01*
X60913Y27548D01*
X61121Y27668D01*
X61290Y27838D01*
X61410Y28046D01*
X61465Y28248D01*
D02*
G37*
G36*
X60411D02*
X59657D01*
X59711Y28046D01*
X59831Y27838D01*
X60001Y27668D01*
X60209Y27548D01*
X60411Y27494D01*
Y28248D01*
D02*
G37*
G36*
X67651Y25150D02*
X67650D01*
Y24150D01*
X68650D01*
Y24151D01*
X68572Y24444D01*
X68420Y24706D01*
X68206Y24920D01*
X67944Y25072D01*
X67651Y25150D01*
D02*
G37*
G36*
X67350D02*
X67349D01*
X67056Y25072D01*
X66794Y24920D01*
X66580Y24706D01*
X66428Y24444D01*
X66350Y24151D01*
Y24150D01*
X67350D01*
Y25150D01*
D02*
G37*
G36*
X62624Y24094D02*
X61824D01*
Y23594D01*
X62624D01*
Y24094D01*
D02*
G37*
G36*
X61524D02*
X60724D01*
Y23594D01*
X61524D01*
Y24094D01*
D02*
G37*
G36*
X85722Y25696D02*
X84747D01*
X84567Y25672D01*
X84400Y25603D01*
X84257Y25493D01*
X84146Y25349D01*
X84077Y25182D01*
X84053Y25002D01*
Y24027D01*
X84077Y23848D01*
X84146Y23681D01*
X84257Y23537D01*
X84400Y23427D01*
X84567Y23358D01*
X84747Y23334D01*
X85722D01*
X85901Y23358D01*
X86069Y23427D01*
X86212Y23537D01*
X86322Y23681D01*
X86392Y23848D01*
X86415Y24027D01*
Y25002D01*
X86392Y25182D01*
X86322Y25349D01*
X86212Y25493D01*
X86069Y25603D01*
X85901Y25672D01*
X85722Y25696D01*
D02*
G37*
G36*
X68650Y23850D02*
X67650D01*
Y22850D01*
X67651D01*
X67944Y22928D01*
X68206Y23080D01*
X68420Y23294D01*
X68572Y23556D01*
X68650Y23849D01*
Y23850D01*
D02*
G37*
G36*
X67350D02*
X66350D01*
Y23849D01*
X66428Y23556D01*
X66580Y23294D01*
X66794Y23080D01*
X67056Y22928D01*
X67349Y22850D01*
X67350D01*
Y23850D01*
D02*
G37*
G36*
X72658Y25200D02*
X72342D01*
X72037Y25118D01*
X71763Y24960D01*
X71540Y24737D01*
X71382Y24463D01*
X71300Y24158D01*
Y23842D01*
X71382Y23537D01*
X71540Y23263D01*
X71763Y23040D01*
X72037Y22882D01*
X72342Y22800D01*
X72658D01*
X72963Y22882D01*
X73237Y23040D01*
X73460Y23263D01*
X73618Y23537D01*
X73700Y23842D01*
Y24158D01*
X73618Y24463D01*
X73460Y24737D01*
X73237Y24960D01*
X72963Y25118D01*
X72658Y25200D01*
D02*
G37*
G36*
X62624Y23294D02*
X61824D01*
Y22794D01*
X62624D01*
Y23294D01*
D02*
G37*
G36*
X61524D02*
X60724D01*
Y22794D01*
X61524D01*
Y23294D01*
D02*
G37*
G36*
X87776Y20124D02*
X86526D01*
Y20075D01*
X86511Y20058D01*
X86399Y20001D01*
X86223Y20074D01*
X85984D01*
X85764Y19982D01*
X85595Y19814D01*
X85504Y19593D01*
Y19354D01*
X85595Y19134D01*
X85764Y18965D01*
X85984Y18874D01*
X86223D01*
X86399Y18947D01*
X86511Y18890D01*
X86526Y18872D01*
Y18824D01*
X87776D01*
Y20124D01*
D02*
G37*
G36*
X89276Y20074D02*
X88851D01*
Y19624D01*
X89276D01*
Y20074D01*
D02*
G37*
G36*
X88551D02*
X88126D01*
Y19624D01*
X88551D01*
Y20074D01*
D02*
G37*
G36*
X89276Y19324D02*
X88851D01*
Y18874D01*
X89276D01*
Y19324D01*
D02*
G37*
G36*
X88551D02*
X88126D01*
Y18874D01*
X88551D01*
Y19324D01*
D02*
G37*
G36*
X62674Y21604D02*
X60674D01*
Y20204D01*
X61089D01*
Y19971D01*
X61081Y19909D01*
Y19402D01*
X60923Y19311D01*
X60673Y19061D01*
X60496Y18754D01*
X60404Y18413D01*
Y18059D01*
X60496Y17718D01*
X60673Y17411D01*
X60923Y17161D01*
X61229Y16985D01*
X61571Y16893D01*
X61924D01*
X62266Y16985D01*
X62572Y17161D01*
X62822Y17411D01*
X62999Y17718D01*
X63090Y18059D01*
Y18413D01*
X62999Y18754D01*
X62822Y19061D01*
X62572Y19311D01*
X62493Y19356D01*
Y19855D01*
X62501Y19917D01*
Y20204D01*
X62674D01*
Y21604D01*
D02*
G37*
G36*
X88186Y16631D02*
Y16019D01*
X88799D01*
X88759Y16168D01*
X88657Y16345D01*
X88512Y16489D01*
X88336Y16591D01*
X88186Y16631D01*
D02*
G37*
G36*
X87886Y16631D02*
X87737Y16591D01*
X87561Y16489D01*
X87416Y16345D01*
X87314Y16168D01*
X87274Y16019D01*
X87886D01*
Y16631D01*
D02*
G37*
G36*
X61892Y16558D02*
X61872D01*
Y15415D01*
X63015D01*
Y15436D01*
X62927Y15764D01*
X62757Y16059D01*
X62516Y16300D01*
X62221Y16470D01*
X61892Y16558D01*
D02*
G37*
G36*
X61572D02*
X61552D01*
X61223Y16470D01*
X60928Y16300D01*
X60687Y16059D01*
X60517Y15764D01*
X60429Y15436D01*
Y15415D01*
X61572D01*
Y16558D01*
D02*
G37*
G36*
X87886Y15719D02*
X87274D01*
X87314Y15570D01*
X87416Y15393D01*
X87561Y15249D01*
X87737Y15147D01*
X87886Y15107D01*
Y15719D01*
D02*
G37*
G36*
X88799D02*
X88186D01*
Y15107D01*
X88336Y15147D01*
X88512Y15249D01*
X88657Y15393D01*
X88759Y15570D01*
X88799Y15719D01*
D02*
G37*
G36*
X63015Y15115D02*
X61872D01*
Y13972D01*
X61892D01*
X62221Y14061D01*
X62516Y14231D01*
X62757Y14471D01*
X62927Y14766D01*
X63015Y15095D01*
Y15115D01*
D02*
G37*
G36*
X61572D02*
X60429D01*
Y15095D01*
X60517Y14766D01*
X60687Y14471D01*
X60928Y14231D01*
X61223Y14061D01*
X61552Y13972D01*
X61572D01*
Y15115D01*
D02*
G37*
G36*
X77081Y17655D02*
X76792D01*
X76512Y17580D01*
X76261Y17435D01*
X76056Y17231D01*
X75912Y16980D01*
X75837Y16700D01*
Y16410D01*
X75912Y16131D01*
X76056Y15880D01*
X76261Y15675D01*
X76512Y15530D01*
X76643Y15495D01*
X77127Y15012D01*
Y12967D01*
X85027D01*
Y16367D01*
X78482D01*
X77996Y16853D01*
X77962Y16980D01*
X77817Y17231D01*
X77612Y17435D01*
X77361Y17580D01*
X77081Y17655D01*
D02*
G37*
G36*
X61899Y13637D02*
X61545D01*
X61204Y13545D01*
X60897Y13368D01*
X60647Y13118D01*
X60471Y12812D01*
X60379Y12470D01*
Y12117D01*
X60471Y11775D01*
X60647Y11469D01*
X60897Y11219D01*
X61204Y11042D01*
X61545Y10951D01*
X61899D01*
X62240Y11042D01*
X62547Y11219D01*
X62797Y11469D01*
X62973Y11775D01*
X63065Y12117D01*
Y12470D01*
X62973Y12812D01*
X62797Y13118D01*
X62547Y13368D01*
X62240Y13545D01*
X61899Y13637D01*
D02*
G37*
G36*
X67651Y11650D02*
X67650D01*
Y10650D01*
X68650D01*
Y10651D01*
X68572Y10944D01*
X68420Y11206D01*
X68206Y11420D01*
X67944Y11572D01*
X67651Y11650D01*
D02*
G37*
G36*
X67350D02*
X67349D01*
X67056Y11572D01*
X66794Y11420D01*
X66580Y11206D01*
X66428Y10944D01*
X66350Y10651D01*
Y10650D01*
X67350D01*
Y11650D01*
D02*
G37*
G36*
X68650Y10350D02*
X67650D01*
Y9350D01*
X67651D01*
X67944Y9428D01*
X68206Y9580D01*
X68420Y9794D01*
X68572Y10056D01*
X68650Y10349D01*
Y10350D01*
D02*
G37*
G36*
X67350D02*
X66350D01*
Y10349D01*
X66428Y10056D01*
X66580Y9794D01*
X66794Y9580D01*
X67056Y9428D01*
X67349Y9350D01*
X67350D01*
Y10350D01*
D02*
G37*
G36*
X60436Y8935D02*
Y8349D01*
X61022D01*
X60985Y8489D01*
X60886Y8660D01*
X60746Y8799D01*
X60575Y8898D01*
X60436Y8935D01*
D02*
G37*
G36*
X60136D02*
X59996Y8898D01*
X59825Y8799D01*
X59686Y8660D01*
X59587Y8489D01*
X59549Y8349D01*
X60136D01*
Y8935D01*
D02*
G37*
G36*
X72658Y11700D02*
X72342D01*
X72037Y11618D01*
X71763Y11460D01*
X71540Y11237D01*
X71382Y10963D01*
X71300Y10658D01*
Y10342D01*
X71382Y10037D01*
X71540Y9763D01*
X71763Y9540D01*
X72037Y9382D01*
X72342Y9300D01*
X72658D01*
X72963Y9382D01*
X72982Y9393D01*
X73006Y9389D01*
X77127D01*
Y7967D01*
X85027D01*
Y11367D01*
X77127D01*
Y11306D01*
X73391D01*
X73237Y11460D01*
X72963Y11618D01*
X72658Y11700D01*
D02*
G37*
G36*
X88861Y9594D02*
X87211D01*
Y7944D01*
X88861D01*
Y9594D01*
D02*
G37*
G36*
X61022Y8049D02*
X60436D01*
Y7463D01*
X60575Y7500D01*
X60746Y7599D01*
X60886Y7739D01*
X60985Y7910D01*
X61022Y8049D01*
D02*
G37*
G36*
X60136D02*
X59549D01*
X59587Y7910D01*
X59686Y7739D01*
X59825Y7599D01*
X59996Y7500D01*
X60136Y7463D01*
Y8049D01*
D02*
G37*
G36*
X60436Y6395D02*
Y5809D01*
X61022D01*
X60985Y5949D01*
X60886Y6120D01*
X60746Y6259D01*
X60575Y6358D01*
X60436Y6395D01*
D02*
G37*
G36*
X60136D02*
X59996Y6358D01*
X59825Y6259D01*
X59686Y6120D01*
X59587Y5949D01*
X59549Y5809D01*
X60136D01*
Y6395D01*
D02*
G37*
G36*
X61022Y5509D02*
X60436D01*
Y4923D01*
X60575Y4960D01*
X60746Y5059D01*
X60886Y5199D01*
X60985Y5370D01*
X61022Y5509D01*
D02*
G37*
G36*
X60136D02*
X59549D01*
X59587Y5370D01*
X59686Y5199D01*
X59825Y5059D01*
X59996Y4960D01*
X60136Y4923D01*
Y5509D01*
D02*
G37*
G36*
X69571Y14773D02*
X69332D01*
X69112Y14682D01*
X68943Y14513D01*
X68852Y14292D01*
Y14054D01*
X68943Y13833D01*
X69010Y13766D01*
Y7632D01*
X68205Y6827D01*
X68105Y6678D01*
X68070Y6502D01*
Y5013D01*
X68021Y4963D01*
X67929Y4742D01*
Y4503D01*
X68021Y4283D01*
X68189Y4114D01*
X68410Y4023D01*
X68649D01*
X68869Y4114D01*
X69038Y4283D01*
X69129Y4503D01*
Y4742D01*
X69038Y4963D01*
X68988Y5013D01*
Y6312D01*
X69793Y7118D01*
X69893Y7267D01*
X69928Y7442D01*
Y13801D01*
X69960Y13833D01*
X70052Y14054D01*
Y14292D01*
X69960Y14513D01*
X69791Y14682D01*
X69571Y14773D01*
D02*
G37*
G36*
X78790Y6502D02*
X78436D01*
X78095Y6411D01*
X77788Y6234D01*
X77538Y5984D01*
X77362Y5678D01*
X77270Y5336D01*
Y4982D01*
X77362Y4641D01*
X77538Y4335D01*
X77788Y4085D01*
X78095Y3908D01*
X78436Y3816D01*
X78790D01*
X79131Y3908D01*
X79438Y4085D01*
X79688Y4335D01*
X79864Y4641D01*
X79956Y4982D01*
Y5336D01*
X79864Y5678D01*
X79688Y5984D01*
X79438Y6234D01*
X79131Y6411D01*
X78790Y6502D01*
D02*
G37*
G36*
X79244Y3386D02*
X78794D01*
Y2961D01*
X79244D01*
Y3386D01*
D02*
G37*
G36*
X78494D02*
X78044D01*
Y2961D01*
X78494D01*
Y3386D01*
D02*
G37*
G36*
X61086Y3919D02*
X59486D01*
Y2319D01*
X61086D01*
Y3919D01*
D02*
G37*
G36*
X79244Y2661D02*
X78794D01*
Y2236D01*
X79244D01*
Y2661D01*
D02*
G37*
G36*
X78494D02*
X78044D01*
Y2236D01*
X78494D01*
Y2661D01*
D02*
G37*
G36*
X79294Y1886D02*
X77994D01*
Y636D01*
X79294D01*
Y688D01*
X79335Y719D01*
X79421Y756D01*
X79617Y674D01*
X79855D01*
X80076Y766D01*
X80245Y935D01*
X80336Y1155D01*
Y1394D01*
X80245Y1614D01*
X80076Y1783D01*
X79855Y1874D01*
X79617D01*
X79421Y1793D01*
X79335Y1830D01*
X79294Y1860D01*
Y1886D01*
D02*
G37*
G36*
X64483Y15535D02*
X64244D01*
X64024Y15444D01*
X63855Y15275D01*
X63764Y15055D01*
Y14816D01*
X63855Y14595D01*
X63905Y14545D01*
Y5272D01*
X63940Y5097D01*
X64039Y4948D01*
X66238Y2749D01*
X66387Y2650D01*
X66562Y2615D01*
X70448D01*
X70498Y2565D01*
X70719Y2474D01*
X70789D01*
X72347Y916D01*
X72496Y817D01*
X72671Y782D01*
X75353D01*
X75403Y732D01*
X75623Y640D01*
X75862D01*
X76083Y732D01*
X76251Y901D01*
X76343Y1121D01*
Y1360D01*
X76251Y1580D01*
X76083Y1749D01*
X75862Y1840D01*
X75623D01*
X75403Y1749D01*
X75353Y1699D01*
X72861D01*
X71438Y3123D01*
Y3193D01*
X71347Y3414D01*
X71178Y3583D01*
X70957Y3674D01*
X70719D01*
X70498Y3583D01*
X70448Y3533D01*
X66752D01*
X64822Y5462D01*
Y14545D01*
X64872Y14595D01*
X64964Y14816D01*
Y15055D01*
X64872Y15275D01*
X64703Y15444D01*
X64483Y15535D01*
D02*
G37*
%LPD*%
D10*
X35103Y2519D02*
D03*
Y7519D02*
D03*
X81077Y9667D02*
D03*
Y14667D02*
D03*
D11*
X78644Y1261D02*
D03*
Y2811D02*
D03*
D12*
X61674Y20904D02*
D03*
X52524Y23444D02*
D03*
X61674D02*
D03*
X52524Y20904D02*
D03*
D13*
X49774Y38989D02*
D03*
Y47829D02*
D03*
Y35229D02*
D03*
Y44069D02*
D03*
X70774Y38989D02*
D03*
Y35229D02*
D03*
Y44069D02*
D03*
Y47829D02*
D03*
D14*
X88701Y19474D02*
D03*
X87151D02*
D03*
D15*
X23876Y18974D02*
X24140Y18709D01*
X18513Y24336D02*
X23876Y18974D01*
X13335Y24963D02*
X13373Y24924D01*
X13126Y25171D02*
X13335Y24963D01*
X30209Y16027D02*
X45949Y31767D01*
Y42189D02*
X47734Y43975D01*
X45949Y31767D02*
Y42189D01*
X6733Y20171D02*
X13818Y13087D01*
Y10795D02*
Y13087D01*
Y10795D02*
X13868Y10744D01*
X5500Y20171D02*
X6733D01*
X22297Y2426D02*
X35638D01*
X29486Y22384D02*
Y35738D01*
Y21104D02*
Y22384D01*
X28194Y14013D02*
X30209Y16027D01*
X37059Y17984D02*
X40622Y21546D01*
X42329D02*
X42570Y21788D01*
X40622Y21546D02*
X42329D01*
X27356Y18974D02*
X29486Y21104D01*
X23876Y18974D02*
X27356D01*
X17678Y24886D02*
X17899D01*
X18449Y24336D01*
X18513D01*
X24105Y10783D02*
X24194Y10693D01*
X24105Y10783D02*
Y18460D01*
X17919Y10693D02*
X24194D01*
X17868Y10744D02*
X17919Y10693D01*
X13385Y25013D02*
X17552D01*
X5500Y25171D02*
X13126D01*
X28194Y10693D02*
Y14013D01*
Y10583D02*
X30997Y7780D01*
X47734Y43975D02*
X49680D01*
X13979Y10744D02*
X22297Y2426D01*
D16*
X13773Y10840D02*
Y11193D01*
X13640Y11326D02*
X13773Y11193D01*
Y10840D02*
X13868Y10744D01*
X70774Y38989D02*
X74295D01*
X46380Y48692D02*
X47243Y47829D01*
X23364Y48692D02*
X46380D01*
X76938Y16555D02*
X78827Y14667D01*
X76937Y16555D02*
X76938D01*
X78827Y14667D02*
X81077D01*
X72500Y10500D02*
X72596Y10404D01*
X72949D02*
X73006Y10348D01*
X80396D02*
X81077Y9667D01*
X72596Y10404D02*
X72949D01*
X73006Y10348D02*
X80396D01*
X69189Y35229D02*
X70774D01*
X67929Y28660D02*
Y33969D01*
X69189Y35229D01*
X42674Y33813D02*
Y36624D01*
X42621Y36677D02*
Y43180D01*
X43557Y44116D02*
Y46152D01*
X42621Y43180D02*
X43557Y44116D01*
X50241Y47829D02*
Y53111D01*
X47243Y47829D02*
X50274D01*
D17*
X9398Y6059D02*
Y12573D01*
X2921Y19050D02*
X9398Y12573D01*
X8382Y5043D02*
X9398Y6059D01*
X8382Y4695D02*
Y5043D01*
X35284Y7780D02*
X35662Y7402D01*
X30997Y7780D02*
X35284D01*
X2921Y26645D02*
X4039Y27762D01*
X6600D02*
X9881Y31043D01*
X4039Y27762D02*
X6600D01*
X2184Y16307D02*
X7417Y11074D01*
X2921Y19050D02*
Y26645D01*
X20486Y31115D02*
Y39853D01*
X40538Y7657D02*
Y14332D01*
X37059Y17811D02*
X40538Y14332D01*
X44168Y16459D02*
X46248D01*
X49454Y19665D02*
Y21311D01*
X46248Y16459D02*
X49454Y19665D01*
X37109Y26756D02*
Y37786D01*
X46679Y8932D02*
Y9929D01*
X43025Y5279D02*
X46679Y8932D01*
X43025Y1602D02*
Y5279D01*
X42926Y8052D02*
Y9413D01*
X50302Y16789D02*
X52603D01*
X42926Y9413D02*
X50302Y16789D01*
X52578Y16971D02*
Y20654D01*
X20599Y29337D02*
X24486Y25451D01*
X8687Y36779D02*
X16129Y29337D01*
X20599D01*
X24486Y22384D02*
Y25451D01*
X8687Y36779D02*
Y44475D01*
X61787Y18713D02*
Y19909D01*
X61795Y19917D02*
Y20853D01*
X61787Y19909D02*
X61795Y19917D01*
X47803Y39014D02*
X49749D01*
X49774Y38989D01*
X30543Y16027D02*
X32741Y13830D01*
X30209Y16027D02*
X30543D01*
X49680Y43975D02*
X49774Y44069D01*
D18*
X7417Y10947D02*
Y11074D01*
X46679Y9929D02*
X46736Y9986D01*
X52524Y20904D02*
X52578Y20654D01*
X64364Y5272D02*
Y14935D01*
Y5272D02*
X66562Y3074D01*
X70838D01*
X79730Y1268D02*
X79736Y1274D01*
X78684Y1246D02*
X78707Y1268D01*
X79730D01*
X69469Y7442D02*
Y14156D01*
X69452Y14173D02*
X69469Y14156D01*
X68529Y6502D02*
X69469Y7442D01*
X68529Y4623D02*
Y6502D01*
X75743Y1240D02*
X75768D01*
X72671D02*
X75743D01*
X70838Y3074D02*
X72671Y1240D01*
X86104Y19474D02*
X87151D01*
D19*
X37059Y17811D02*
Y17984D01*
X53061Y28335D02*
Y28423D01*
X46638Y25855D02*
X50620D01*
X52899Y28134D02*
Y28173D01*
X53061Y28335D01*
X50620Y25855D02*
X52899Y28134D01*
X49774Y31709D02*
X53061Y28423D01*
X49774Y31709D02*
Y35229D01*
X42570Y21788D02*
X46638Y25855D01*
D20*
X51257Y23409D02*
X52626D01*
X52688Y23471D01*
D21*
X60263Y7023D02*
D03*
D22*
X67492Y10453D02*
D03*
D23*
X67249Y23927D02*
D03*
D24*
X85004Y29544D02*
D03*
D25*
X85285Y39615D02*
D03*
D26*
X74485Y39154D02*
D03*
D27*
X30095Y48691D02*
D03*
D28*
X85236Y29571D02*
D03*
D29*
X28194Y10693D02*
D03*
X24194D02*
D03*
X29486Y22384D02*
D03*
X24486D02*
D03*
X17868Y10744D02*
D03*
X13868D02*
D03*
X7417Y10947D02*
D03*
X3417D02*
D03*
X24486Y35738D02*
D03*
X29486D02*
D03*
D30*
X67500Y10500D02*
D03*
X72500D02*
D03*
Y24000D02*
D03*
X67500D02*
D03*
D31*
X61722Y12294D02*
D03*
X47158Y28198D02*
D03*
X42062Y17404D02*
D03*
X48946Y11049D02*
D03*
X52603Y16789D02*
D03*
X3226Y44475D02*
D03*
X32741Y13792D02*
D03*
X49454Y21311D02*
D03*
X78613Y5159D02*
D03*
X64237Y1614D02*
D03*
X74371Y39065D02*
D03*
X8382Y4695D02*
D03*
X3293Y41097D02*
D03*
X61747Y18236D02*
D03*
X43025Y1602D02*
D03*
D32*
X37059Y17811D02*
D03*
X37109Y37786D02*
D03*
D33*
X11693Y19694D02*
D03*
X19193Y19669D02*
D03*
X53061Y28423D02*
D03*
X60561Y28398D02*
D03*
D34*
X50241Y53111D02*
D03*
X43580Y53238D02*
D03*
X42674Y36624D02*
D03*
X61722Y15265D02*
D03*
D35*
X42570Y21788D02*
D03*
Y33788D02*
D03*
X17678Y24886D02*
D03*
Y36886D02*
D03*
X13335Y36963D02*
D03*
Y24963D02*
D03*
D36*
X5500Y25171D02*
D03*
X5500Y35175D02*
D03*
X85234Y34497D02*
D03*
X85234Y24515D02*
D03*
D37*
X5500Y20171D02*
D03*
X5500Y30175D02*
D03*
X85234Y39497D02*
D03*
X85234Y29515D02*
D03*
D38*
X43557Y51232D02*
D03*
Y48692D02*
D03*
Y46152D02*
D03*
D39*
X23364Y48692D02*
D03*
D40*
X15037Y47015D02*
D03*
D41*
X8687Y44475D02*
D03*
Y47015D02*
D03*
Y49555D02*
D03*
D42*
X60286Y3119D02*
D03*
D43*
Y5659D02*
D03*
Y8199D02*
D03*
D44*
X88036Y8769D02*
D03*
D45*
Y15869D02*
D03*
D46*
X20486Y39853D02*
D03*
Y31115D02*
D03*
X40538Y7657D02*
D03*
X51257Y23409D02*
D03*
X37109Y26756D02*
D03*
X44168Y16459D02*
D03*
X46736Y9986D02*
D03*
X42926Y8052D02*
D03*
X64364Y14935D02*
D03*
X79736Y1274D02*
D03*
X69452Y14173D02*
D03*
X68529Y4623D02*
D03*
X75743Y1240D02*
D03*
X70838Y3074D02*
D03*
X86104Y19474D02*
D03*
X2184Y16332D02*
D03*
D47*
X76937Y16555D02*
D03*
X67894Y28753D02*
D03*
D48*
X47803Y39014D02*
D03*
X9881Y31043D02*
D03*
%TF.MD5,4c4ec515bd649501d3433694f798cf37*%
M02*
