%TF.GenerationSoftware,Altium Limited,Altium Designer,21.6.4 (81)*%
G04 Layer_Color=16711935*
%FSLAX43Y43*%
%MOMM*%
%TF.SameCoordinates,3FCC9EDD-E33D-4AE7-AC82-89E58AA9E509*%
%TF.FilePolarity,Positive*%
%TF.FileFunction,Keep-out,Top*%
%TF.Part,Single*%
G01*
G75*
%TA.AperFunction,NonConductor*%
%ADD87C,0.254*%
D87*
X88000Y0D02*
G03*
X91000Y3000I0J3000D01*
G01*
X89500D02*
G03*
X89500Y3000I-1500J0D01*
G01*
X56159Y19044D02*
G03*
X58159Y19044I1000J0D01*
G01*
X3000Y55000D02*
G03*
X0Y52000I0J-3000D01*
G01*
X4500D02*
G03*
X4500Y52000I-1500J0D01*
G01*
X60585Y51840D02*
G03*
X58585Y51840I-1000J0D01*
G01*
X89500Y52000D02*
G03*
X89500Y52000I-1500J0D01*
G01*
X91000D02*
G03*
X88000Y55000I-3000J0D01*
G01*
X4500Y3000D02*
G03*
X4500Y3000I-1500J0D01*
G01*
X0D02*
G03*
X3000Y0I3000J0D01*
G01*
X56159Y33299D02*
X58585Y35725D01*
Y36000D02*
Y40359D01*
Y35725D02*
Y36000D01*
X60585Y34728D02*
Y35408D01*
X58172Y32314D02*
X60585Y34728D01*
X58165Y30820D02*
X58172Y32314D01*
X91000Y52000D02*
X91000Y3000D01*
X2986Y-22D02*
X88036Y-2D01*
X-0Y2999D02*
X0Y52000D01*
X60585Y35036D02*
Y41269D01*
X60581Y38672D02*
Y51772D01*
X58583Y37920D02*
Y51820D01*
X56159Y19044D02*
Y33299D01*
X58165Y19046D02*
Y30820D01*
X3000Y55000D02*
X88000D01*
%TF.MD5,16a8e20eb72fbb71d30c7106ae0b0b0f*%
M02*
