%TF.GenerationSoftware,Altium Limited,Altium Designer,21.6.4 (81)*%
G04 Layer_Color=0*
%FSLAX43Y43*%
%MOMM*%
%TF.SameCoordinates,3FCC9EDD-E33D-4AE7-AC82-89E58AA9E509*%
%TF.FilePolarity,Positive*%
%TF.FileFunction,Other,Top_Designator*%
%TF.Part,Single*%
G01*
G75*
%TA.AperFunction,NonConductor*%
%ADD163C,0.150*%
D163*
X6750Y22921D02*
Y23421D01*
Y23171D01*
X5500D01*
X5250Y23421D01*
Y23671D01*
X5500Y23921D01*
X5250Y21422D02*
Y22421D01*
X6250Y21422D01*
X6500D01*
X6750Y21671D01*
Y22171D01*
X6500Y22421D01*
X34582Y7144D02*
X36081D01*
Y8144D01*
Y8644D02*
Y9144D01*
Y8894D01*
X34582D01*
X34832Y8644D01*
X81827Y13416D02*
X80327D01*
Y12417D01*
X81577Y11917D02*
X81827Y11667D01*
Y11167D01*
X81577Y10917D01*
X81327D01*
X81077Y11167D01*
Y11417D01*
Y11167D01*
X80827Y10917D01*
X80577D01*
X80327Y11167D01*
Y11667D01*
X80577Y11917D01*
X6750Y32675D02*
Y33175D01*
Y32925D01*
X5500D01*
X5250Y33175D01*
Y33425D01*
X5500Y33675D01*
X5250Y32175D02*
Y31675D01*
Y31925D01*
X6750D01*
X6500Y32175D01*
X83985Y36747D02*
Y36247D01*
Y36497D01*
X85234D01*
X85484Y36247D01*
Y35997D01*
X85234Y35747D01*
X84234Y37247D02*
X83985Y37497D01*
Y37996D01*
X84234Y38246D01*
X84484D01*
X84734Y37996D01*
Y37747D01*
Y37996D01*
X84984Y38246D01*
X85234D01*
X85484Y37996D01*
Y37497D01*
X85234Y37247D01*
X83985Y26765D02*
Y26265D01*
Y26515D01*
X85234D01*
X85484Y26265D01*
Y26015D01*
X85234Y25765D01*
X85484Y28015D02*
X83985D01*
X84734Y27265D01*
Y28265D01*
%TF.MD5,4f47abcc3d74c81b06abfb626dfdce1f*%
M02*
