%TF.GenerationSoftware,Altium Limited,Altium Designer,21.6.4 (81)*%
G04 Layer_Color=16711935*
%FSLAX43Y43*%
%MOMM*%
%TF.SameCoordinates,3FCC9EDD-E33D-4AE7-AC82-89E58AA9E509*%
%TF.FilePolarity,Positive*%
%TF.FileFunction,Other,Top_Courtyard*%
%TF.Part,Single*%
G01*
G75*
%TA.AperFunction,NonConductor*%
%ADD85C,0.200*%
%ADD167C,0.050*%
D85*
X50065Y15144D02*
X57565D01*
X50065Y344D02*
Y15144D01*
Y344D02*
X57565D01*
Y15144D01*
X87086Y8044D02*
Y16594D01*
X88986D01*
Y8044D02*
Y16594D01*
X87086Y8044D02*
X88986D01*
D167*
X10700Y16871D02*
Y28471D01*
X1300Y16871D02*
X10700D01*
X1300D02*
Y28471D01*
X10700D01*
X31381Y3944D02*
Y12344D01*
X39281D01*
Y3944D02*
Y12344D01*
X31381Y3944D02*
X39281D01*
X34831Y8144D02*
X35831D01*
X35331Y7644D02*
Y8644D01*
X81077Y11667D02*
Y12667D01*
X80577Y12167D02*
X81577D01*
X77127Y16367D02*
X85027D01*
X77127Y7967D02*
Y16367D01*
Y7967D02*
X85027D01*
Y16367D01*
X1300Y38475D02*
X10700D01*
X1300Y26875D02*
Y38475D01*
Y26875D02*
X10700D01*
Y38475D01*
X80034Y31197D02*
Y42797D01*
X89434D01*
Y31197D02*
Y42797D01*
X80034Y31197D02*
X89434D01*
X80034Y21215D02*
Y32815D01*
X89434D01*
Y21215D02*
Y32815D01*
X80034Y21215D02*
X89434D01*
%TF.MD5,5f9e40679548bdd7d7168f22fb5a1b3d*%
M02*
