%TF.GenerationSoftware,Altium Limited,Altium Designer,21.6.4 (81)*%
G04 Layer_Color=0*
%FSLAX43Y43*%
%MOMM*%
%TF.SameCoordinates,3FCC9EDD-E33D-4AE7-AC82-89E58AA9E509*%
%TF.FilePolarity,Positive*%
%TF.FileFunction,Profile,NP*%
%TF.Part,Single*%
G01*
G75*
%TA.AperFunction,Profile*%
%ADD168C,0.025*%
G36*
X56032Y19044D02*
Y33299D01*
X56069Y33389D01*
X58458Y35778D01*
Y37893D01*
X58455Y37920D01*
Y51820D01*
X58458Y51847D01*
X58459Y51995D01*
X58537Y52281D01*
X58687Y52537D01*
X58897Y52745D01*
X59154Y52892D01*
X59441Y52968D01*
X59737Y52967D01*
X60023Y52890D01*
X60279Y52741D01*
X60488Y52531D01*
X60636Y52275D01*
X60713Y51988D01*
Y51840D01*
D01*
X60708Y51772D01*
Y41303D01*
X60713Y41269D01*
Y34728D01*
X60675Y34638D01*
X58299Y32261D01*
X58292Y30819D01*
Y19046D01*
X58286Y19007D01*
X58281Y18860D01*
X58197Y18579D01*
X58043Y18329D01*
X57830Y18126D01*
X57573Y17985D01*
X57287Y17915D01*
X56994Y17919D01*
X56711Y17999D01*
X56459Y18149D01*
X56253Y18358D01*
X56107Y18614D01*
X56032Y18897D01*
Y19044D01*
D01*
D02*
G37*
G36*
X86500Y52000D02*
Y51852D01*
X86558Y51562D01*
X86671Y51289D01*
X86835Y51044D01*
X87044Y50835D01*
X87289Y50671D01*
X87562Y50558D01*
X87852Y50500D01*
X88000D01*
X88148D01*
X88438Y50558D01*
X88711Y50671D01*
X88956Y50835D01*
X89165Y51044D01*
X89329Y51289D01*
X89442Y51562D01*
X89500Y51852D01*
Y52000D01*
Y52148D01*
X89442Y52438D01*
X89329Y52711D01*
X89165Y52956D01*
X88956Y53165D01*
X88711Y53329D01*
X88438Y53442D01*
X88148Y53500D01*
X88000D01*
X87852D01*
X87562Y53442D01*
X87289Y53329D01*
X87044Y53165D01*
X86835Y52956D01*
X86671Y52711D01*
X86558Y52438D01*
X86500Y52148D01*
Y52000D01*
D01*
D02*
G37*
G36*
Y3000D02*
Y2852D01*
X86558Y2562D01*
X86671Y2289D01*
X86835Y2044D01*
X87044Y1835D01*
X87289Y1671D01*
X87562Y1558D01*
X87852Y1500D01*
X88000D01*
X88148D01*
X88438Y1558D01*
X88711Y1671D01*
X88956Y1835D01*
X89165Y2044D01*
X89329Y2289D01*
X89442Y2562D01*
X89500Y2852D01*
Y3000D01*
Y3148D01*
X89442Y3438D01*
X89329Y3711D01*
X89165Y3956D01*
X88956Y4165D01*
X88711Y4329D01*
X88438Y4442D01*
X88148Y4500D01*
X88000D01*
X87852D01*
X87562Y4442D01*
X87289Y4329D01*
X87044Y4165D01*
X86835Y3956D01*
X86671Y3711D01*
X86558Y3438D01*
X86500Y3148D01*
Y3000D01*
D01*
D02*
G37*
G36*
X1500D02*
Y2852D01*
X1558Y2562D01*
X1671Y2289D01*
X1835Y2044D01*
X2044Y1835D01*
X2289Y1671D01*
X2562Y1558D01*
X2852Y1500D01*
X3000D01*
X3148D01*
X3438Y1558D01*
X3711Y1671D01*
X3956Y1835D01*
X4165Y2044D01*
X4329Y2289D01*
X4442Y2562D01*
X4500Y2852D01*
Y3000D01*
Y3148D01*
X4442Y3438D01*
X4329Y3711D01*
X4165Y3956D01*
X3956Y4165D01*
X3711Y4329D01*
X3438Y4442D01*
X3148Y4500D01*
X3000D01*
X2852D01*
X2562Y4442D01*
X2289Y4329D01*
X2044Y4165D01*
X1835Y3956D01*
X1671Y3711D01*
X1558Y3438D01*
X1500Y3148D01*
Y3000D01*
D01*
D02*
G37*
G36*
Y52000D02*
Y51852D01*
X1558Y51562D01*
X1671Y51289D01*
X1835Y51044D01*
X2044Y50835D01*
X2289Y50671D01*
X2562Y50558D01*
X2852Y50500D01*
X3000D01*
X3148D01*
X3438Y50558D01*
X3711Y50671D01*
X3956Y50835D01*
X4165Y51044D01*
X4329Y51289D01*
X4442Y51562D01*
X4500Y51852D01*
Y52000D01*
Y52148D01*
X4442Y52438D01*
X4329Y52711D01*
X4165Y52956D01*
X3956Y53165D01*
X3711Y53329D01*
X3438Y53442D01*
X3148Y53500D01*
X3000D01*
X2852D01*
X2562Y53442D01*
X2289Y53329D01*
X2044Y53165D01*
X1835Y52956D01*
X1671Y52711D01*
X1558Y52438D01*
X1500Y52148D01*
Y52000D01*
D01*
D02*
G37*
D168*
X0Y3000D02*
G03*
X3000Y0I3000J0D01*
G01*
X2986Y-22D01*
X88036Y-2D01*
X88000Y0D01*
D02*
G03*
X91000Y3000I0J3000D01*
G01*
X91000Y52000D01*
D02*
G03*
X88000Y55000I-3000J-0D01*
G01*
X3000D01*
D02*
G03*
X0Y52000I0J-3000D01*
G01*
X0Y3000D01*
%TF.MD5,c912395b9676facf55d1b88a07bf79ce*%
M02*
