%TF.GenerationSoftware,Altium Limited,Altium Designer,21.6.4 (81)*%
G04 Layer_Color=32896*
%FSLAX43Y43*%
%MOMM*%
%TF.SameCoordinates,3FCC9EDD-E33D-4AE7-AC82-89E58AA9E509*%
%TF.FilePolarity,Positive*%
%TF.FileFunction,Other,Bottom_Assembly*%
%TF.Part,Single*%
G01*
G75*
%TA.AperFunction,NonConductor*%
%ADD85C,0.200*%
%ADD120C,0.100*%
%ADD161R,2.250X3.000*%
%ADD162R,3.000X2.250*%
G36*
X67495Y13172D02*
X67509Y13172D01*
X67521Y13170D01*
X67532Y13169D01*
X67543Y13167D01*
X67552Y13165D01*
X67561Y13164D01*
X67569Y13162D01*
X67576Y13160D01*
X67582Y13158D01*
X67586Y13157D01*
X67590Y13155D01*
X67593Y13155D01*
X67594Y13154D01*
X67595D01*
X67611Y13146D01*
X67626Y13135D01*
X67638Y13125D01*
X67648Y13114D01*
X67657Y13104D01*
X67662Y13096D01*
X67664Y13093D01*
X67665Y13091D01*
X67667Y13090D01*
Y13089D01*
X67675Y13070D01*
X67681Y13051D01*
X67685Y13031D01*
X67688Y13013D01*
X67689Y13005D01*
X67690Y12997D01*
X67690Y12989D01*
Y12983D01*
X67691Y12978D01*
Y12971D01*
X67690Y12945D01*
X67688Y12933D01*
X67687Y12922D01*
X67685Y12911D01*
X67682Y12901D01*
X67680Y12892D01*
X67677Y12884D01*
X67674Y12877D01*
X67672Y12871D01*
X67670Y12865D01*
X67668Y12861D01*
X67665Y12857D01*
X67665Y12855D01*
X67663Y12853D01*
Y12852D01*
X67652Y12836D01*
X67640Y12823D01*
X67628Y12812D01*
X67616Y12804D01*
X67605Y12797D01*
X67597Y12793D01*
X67594Y12791D01*
X67592Y12790D01*
X67591Y12789D01*
X67590D01*
X67581Y12786D01*
X67572Y12783D01*
X67552Y12778D01*
X67531Y12776D01*
X67511Y12773D01*
X67502Y12773D01*
X67493Y12772D01*
X67486D01*
X67479Y12771D01*
X67474D01*
X67470D01*
X67467D01*
X67467D01*
X67171D01*
Y12839D01*
X67467D01*
X67484D01*
X67500Y12841D01*
X67514Y12842D01*
X67527Y12844D01*
X67539Y12847D01*
X67550Y12849D01*
X67560Y12852D01*
X67568Y12855D01*
X67574Y12858D01*
X67581Y12861D01*
X67586Y12863D01*
X67590Y12866D01*
X67593Y12868D01*
X67595Y12869D01*
X67596Y12870D01*
X67597Y12871D01*
X67603Y12878D01*
X67608Y12885D01*
X67616Y12901D01*
X67622Y12918D01*
X67625Y12936D01*
X67628Y12952D01*
X67629Y12959D01*
Y12965D01*
X67630Y12970D01*
Y12977D01*
X67629Y12993D01*
X67627Y13007D01*
X67625Y13020D01*
X67621Y13031D01*
X67618Y13039D01*
X67616Y13046D01*
X67614Y13050D01*
X67613Y13051D01*
X67606Y13062D01*
X67598Y13070D01*
X67590Y13078D01*
X67583Y13083D01*
X67575Y13087D01*
X67570Y13091D01*
X67566Y13093D01*
X67565Y13093D01*
X67558Y13096D01*
X67552Y13097D01*
X67536Y13100D01*
X67520Y13102D01*
X67504Y13104D01*
X67489Y13104D01*
X67483D01*
X67478Y13105D01*
X67473D01*
X67469D01*
X67467D01*
X67467D01*
X67171D01*
Y13173D01*
X67467D01*
X67481D01*
X67495Y13172D01*
D02*
G37*
G36*
X67559Y12682D02*
X67570Y12679D01*
X67591Y12673D01*
X67608Y12665D01*
X67616Y12660D01*
X67623Y12656D01*
X67630Y12651D01*
X67635Y12647D01*
X67640Y12643D01*
X67644Y12640D01*
X67647Y12637D01*
X67649Y12635D01*
X67651Y12634D01*
X67651Y12633D01*
X67658Y12624D01*
X67665Y12615D01*
X67670Y12606D01*
X67674Y12597D01*
X67682Y12578D01*
X67686Y12560D01*
X67688Y12552D01*
X67689Y12545D01*
X67690Y12538D01*
X67690Y12532D01*
X67691Y12528D01*
Y12521D01*
X67690Y12507D01*
X67689Y12495D01*
X67687Y12482D01*
X67684Y12470D01*
X67680Y12459D01*
X67676Y12450D01*
X67672Y12440D01*
X67668Y12432D01*
X67664Y12424D01*
X67659Y12417D01*
X67656Y12411D01*
X67652Y12407D01*
X67649Y12403D01*
X67647Y12400D01*
X67645Y12399D01*
X67645Y12398D01*
X67636Y12389D01*
X67626Y12382D01*
X67617Y12375D01*
X67607Y12369D01*
X67598Y12365D01*
X67589Y12360D01*
X67571Y12354D01*
X67563Y12353D01*
X67555Y12351D01*
X67549Y12350D01*
X67543Y12349D01*
X67538Y12348D01*
X67535D01*
X67532D01*
X67532D01*
X67514Y12349D01*
X67498Y12352D01*
X67484Y12356D01*
X67472Y12361D01*
X67462Y12365D01*
X67455Y12370D01*
X67450Y12373D01*
X67449Y12373D01*
X67438Y12384D01*
X67428Y12395D01*
X67421Y12407D01*
X67415Y12419D01*
X67410Y12429D01*
X67407Y12437D01*
X67407Y12440D01*
X67406Y12442D01*
X67405Y12444D01*
Y12444D01*
X67399Y12432D01*
X67392Y12421D01*
X67384Y12413D01*
X67378Y12405D01*
X67372Y12399D01*
X67367Y12395D01*
X67364Y12393D01*
X67362Y12392D01*
X67352Y12386D01*
X67342Y12382D01*
X67331Y12378D01*
X67322Y12376D01*
X67314Y12374D01*
X67308Y12373D01*
X67303D01*
X67302D01*
X67289Y12374D01*
X67277Y12376D01*
X67266Y12379D01*
X67256Y12383D01*
X67248Y12387D01*
X67241Y12390D01*
X67237Y12392D01*
X67236Y12393D01*
X67225Y12400D01*
X67215Y12409D01*
X67207Y12418D01*
X67200Y12427D01*
X67195Y12434D01*
X67190Y12441D01*
X67188Y12445D01*
X67187Y12446D01*
Y12447D01*
X67181Y12460D01*
X67177Y12473D01*
X67173Y12487D01*
X67171Y12498D01*
X67169Y12508D01*
X67169Y12516D01*
Y12535D01*
X67170Y12545D01*
X67174Y12565D01*
X67180Y12582D01*
X67186Y12597D01*
X67189Y12603D01*
X67192Y12608D01*
X67195Y12614D01*
X67198Y12617D01*
X67200Y12620D01*
X67202Y12623D01*
X67203Y12624D01*
X67203Y12625D01*
X67217Y12639D01*
X67233Y12650D01*
X67249Y12659D01*
X67266Y12666D01*
X67280Y12671D01*
X67285Y12673D01*
X67291Y12674D01*
X67295Y12675D01*
X67298Y12676D01*
X67300Y12677D01*
X67301D01*
X67312Y12614D01*
X67296Y12611D01*
X67282Y12606D01*
X67270Y12601D01*
X67260Y12596D01*
X67253Y12591D01*
X67248Y12586D01*
X67244Y12583D01*
X67243Y12583D01*
X67236Y12573D01*
X67230Y12563D01*
X67226Y12553D01*
X67223Y12543D01*
X67222Y12535D01*
X67220Y12528D01*
Y12522D01*
X67221Y12509D01*
X67224Y12497D01*
X67228Y12487D01*
X67231Y12478D01*
X67236Y12471D01*
X67240Y12466D01*
X67243Y12462D01*
X67243Y12461D01*
X67252Y12453D01*
X67262Y12447D01*
X67271Y12444D01*
X67280Y12441D01*
X67288Y12439D01*
X67294Y12438D01*
X67299D01*
X67299D01*
X67300D01*
X67308D01*
X67316Y12439D01*
X67328Y12443D01*
X67339Y12448D01*
X67349Y12454D01*
X67356Y12460D01*
X67361Y12465D01*
X67364Y12469D01*
X67365Y12470D01*
Y12470D01*
X67371Y12483D01*
X67376Y12495D01*
X67380Y12507D01*
X67382Y12518D01*
X67384Y12528D01*
X67385Y12536D01*
Y12546D01*
X67384Y12549D01*
Y12552D01*
X67440Y12560D01*
X67438Y12550D01*
X67436Y12541D01*
X67435Y12534D01*
X67434Y12527D01*
X67433Y12522D01*
Y12515D01*
X67435Y12500D01*
X67438Y12486D01*
X67442Y12473D01*
X67447Y12463D01*
X67452Y12455D01*
X67457Y12449D01*
X67460Y12445D01*
X67461Y12444D01*
X67472Y12434D01*
X67484Y12427D01*
X67496Y12421D01*
X67508Y12419D01*
X67518Y12416D01*
X67526Y12416D01*
X67529Y12415D01*
X67531D01*
X67532D01*
X67533D01*
X67549Y12416D01*
X67564Y12420D01*
X67577Y12424D01*
X67588Y12430D01*
X67597Y12436D01*
X67603Y12441D01*
X67608Y12444D01*
X67609Y12446D01*
X67620Y12458D01*
X67627Y12470D01*
X67632Y12483D01*
X67636Y12495D01*
X67638Y12505D01*
X67639Y12513D01*
X67640Y12516D01*
Y12521D01*
X67639Y12534D01*
X67636Y12546D01*
X67632Y12557D01*
X67628Y12566D01*
X67624Y12574D01*
X67620Y12580D01*
X67617Y12583D01*
X67617Y12584D01*
X67606Y12593D01*
X67594Y12600D01*
X67582Y12607D01*
X67569Y12612D01*
X67557Y12616D01*
X67552Y12617D01*
X67548Y12618D01*
X67544Y12619D01*
X67541Y12620D01*
X67540Y12620D01*
X67539D01*
X67547Y12683D01*
X67559Y12682D01*
D02*
G37*
G36*
X67964Y6176D02*
X67976Y6185D01*
X67981Y6190D01*
X67987Y6193D01*
X67991Y6197D01*
X67994Y6200D01*
X67996Y6202D01*
X67997Y6203D01*
X68001Y6207D01*
X68004Y6211D01*
X68014Y6221D01*
X68025Y6233D01*
X68036Y6246D01*
X68046Y6258D01*
X68050Y6263D01*
X68055Y6267D01*
X68058Y6271D01*
X68060Y6274D01*
X68061Y6275D01*
X68062Y6276D01*
X68072Y6288D01*
X68082Y6300D01*
X68092Y6310D01*
X68100Y6320D01*
X68108Y6329D01*
X68115Y6336D01*
X68122Y6343D01*
X68128Y6349D01*
X68134Y6355D01*
X68138Y6360D01*
X68142Y6363D01*
X68145Y6367D01*
X68150Y6371D01*
X68151Y6372D01*
X68164Y6383D01*
X68175Y6391D01*
X68186Y6399D01*
X68195Y6405D01*
X68203Y6409D01*
X68209Y6412D01*
X68213Y6414D01*
X68214Y6414D01*
X68225Y6419D01*
X68236Y6422D01*
X68247Y6425D01*
X68256Y6426D01*
X68264Y6427D01*
X68270Y6428D01*
X68273D01*
X68275D01*
X68286Y6427D01*
X68296Y6425D01*
X68307Y6424D01*
X68315Y6421D01*
X68333Y6414D01*
X68347Y6406D01*
X68354Y6402D01*
X68359Y6398D01*
X68364Y6394D01*
X68368Y6391D01*
X68371Y6388D01*
X68374Y6386D01*
X68375Y6385D01*
X68375Y6384D01*
X68383Y6376D01*
X68389Y6367D01*
X68395Y6357D01*
X68399Y6348D01*
X68406Y6329D01*
X68412Y6309D01*
X68413Y6301D01*
X68415Y6293D01*
X68415Y6286D01*
X68416Y6280D01*
X68417Y6275D01*
Y6267D01*
X68416Y6254D01*
X68415Y6241D01*
X68413Y6230D01*
X68411Y6218D01*
X68408Y6208D01*
X68405Y6199D01*
X68401Y6190D01*
X68398Y6182D01*
X68394Y6174D01*
X68390Y6168D01*
X68387Y6163D01*
X68384Y6159D01*
X68382Y6155D01*
X68380Y6153D01*
X68379Y6151D01*
X68378Y6150D01*
X68371Y6143D01*
X68363Y6136D01*
X68354Y6130D01*
X68345Y6125D01*
X68327Y6116D01*
X68310Y6110D01*
X68301Y6108D01*
X68293Y6105D01*
X68287Y6104D01*
X68281Y6102D01*
X68276Y6102D01*
X68272D01*
X68270Y6101D01*
X68269D01*
X68262Y6165D01*
X68279Y6167D01*
X68294Y6170D01*
X68307Y6174D01*
X68318Y6179D01*
X68327Y6184D01*
X68332Y6188D01*
X68336Y6191D01*
X68338Y6193D01*
X68347Y6204D01*
X68353Y6216D01*
X68358Y6228D01*
X68361Y6239D01*
X68364Y6250D01*
X68364Y6258D01*
X68365Y6261D01*
Y6266D01*
X68364Y6281D01*
X68361Y6295D01*
X68357Y6307D01*
X68352Y6318D01*
X68347Y6326D01*
X68344Y6331D01*
X68341Y6335D01*
X68339Y6336D01*
X68329Y6345D01*
X68318Y6352D01*
X68308Y6357D01*
X68298Y6360D01*
X68290Y6362D01*
X68282Y6363D01*
X68278Y6363D01*
X68277D01*
X68276D01*
X68263Y6362D01*
X68249Y6359D01*
X68236Y6354D01*
X68225Y6349D01*
X68215Y6343D01*
X68207Y6337D01*
X68204Y6336D01*
X68202Y6335D01*
X68201Y6333D01*
X68200D01*
X68192Y6327D01*
X68184Y6320D01*
X68175Y6312D01*
X68166Y6303D01*
X68148Y6284D01*
X68131Y6266D01*
X68123Y6256D01*
X68115Y6248D01*
X68109Y6240D01*
X68103Y6233D01*
X68098Y6228D01*
X68094Y6224D01*
X68092Y6221D01*
X68092Y6220D01*
X68076Y6201D01*
X68061Y6184D01*
X68048Y6170D01*
X68037Y6159D01*
X68027Y6150D01*
X68021Y6143D01*
X68016Y6139D01*
X68015Y6138D01*
X68015D01*
X68002Y6128D01*
X67990Y6119D01*
X67978Y6112D01*
X67968Y6106D01*
X67959Y6102D01*
X67953Y6099D01*
X67948Y6097D01*
X67947Y6097D01*
X67947D01*
X67939Y6094D01*
X67931Y6092D01*
X67924Y6091D01*
X67917Y6090D01*
X67911Y6089D01*
X67907D01*
X67904D01*
X67903D01*
Y6428D01*
X67964D01*
Y6176D01*
D02*
G37*
G36*
X68415Y5943D02*
X68119D01*
X68102D01*
X68086Y5941D01*
X68072Y5940D01*
X68058Y5938D01*
X68046Y5935D01*
X68035Y5932D01*
X68026Y5930D01*
X68018Y5927D01*
X68011Y5924D01*
X68004Y5921D01*
X68000Y5918D01*
X67995Y5916D01*
X67992Y5914D01*
X67990Y5912D01*
X67990Y5912D01*
X67989Y5911D01*
X67983Y5904D01*
X67978Y5897D01*
X67970Y5881D01*
X67964Y5864D01*
X67960Y5846D01*
X67957Y5830D01*
X67956Y5823D01*
Y5816D01*
X67956Y5812D01*
Y5805D01*
X67956Y5789D01*
X67958Y5775D01*
X67961Y5762D01*
X67964Y5751D01*
X67967Y5742D01*
X67970Y5736D01*
X67972Y5732D01*
X67973Y5731D01*
X67979Y5720D01*
X67987Y5711D01*
X67995Y5704D01*
X68003Y5699D01*
X68010Y5694D01*
X68015Y5691D01*
X68019Y5689D01*
X68021Y5689D01*
X68027Y5686D01*
X68034Y5685D01*
X68049Y5682D01*
X68066Y5680D01*
X68082Y5678D01*
X68096Y5677D01*
X68103D01*
X68108Y5677D01*
X68112D01*
X68116D01*
X68118D01*
X68119D01*
X68415D01*
Y5609D01*
X68119D01*
X68104D01*
X68090Y5609D01*
X68077Y5610D01*
X68064Y5612D01*
X68053Y5613D01*
X68043Y5615D01*
X68033Y5617D01*
X68024Y5618D01*
X68016Y5620D01*
X68009Y5622D01*
X68004Y5623D01*
X67999Y5625D01*
X67995Y5626D01*
X67992Y5627D01*
X67991Y5628D01*
X67990D01*
X67974Y5636D01*
X67959Y5646D01*
X67947Y5657D01*
X67937Y5668D01*
X67929Y5677D01*
X67923Y5686D01*
X67922Y5689D01*
X67920Y5691D01*
X67919Y5692D01*
Y5693D01*
X67910Y5711D01*
X67905Y5731D01*
X67900Y5751D01*
X67897Y5769D01*
X67896Y5777D01*
X67896Y5785D01*
X67895Y5793D01*
Y5799D01*
X67894Y5804D01*
Y5810D01*
X67896Y5837D01*
X67897Y5849D01*
X67899Y5860D01*
X67901Y5871D01*
X67903Y5881D01*
X67905Y5890D01*
X67908Y5898D01*
X67911Y5905D01*
X67913Y5911D01*
X67916Y5917D01*
X67918Y5921D01*
X67920Y5925D01*
X67921Y5927D01*
X67922Y5929D01*
Y5929D01*
X67933Y5946D01*
X67946Y5959D01*
X67958Y5969D01*
X67970Y5978D01*
X67980Y5985D01*
X67988Y5989D01*
X67991Y5991D01*
X67993Y5992D01*
X67995Y5993D01*
X67995D01*
X68004Y5996D01*
X68014Y5999D01*
X68034Y6003D01*
X68055Y6006D01*
X68075Y6009D01*
X68083Y6009D01*
X68092Y6010D01*
X68100D01*
X68106Y6011D01*
X68111D01*
X68115D01*
X68118D01*
X68119D01*
X68415D01*
Y5943D01*
D02*
G37*
G36*
X63250Y5216D02*
X63275Y5213D01*
X63298Y5210D01*
X63309Y5207D01*
X63319Y5205D01*
X63328Y5202D01*
X63336Y5199D01*
X63343Y5197D01*
X63349Y5196D01*
X63354Y5193D01*
X63358Y5193D01*
X63360Y5191D01*
X63360D01*
X63383Y5180D01*
X63403Y5168D01*
X63420Y5154D01*
X63426Y5148D01*
X63433Y5142D01*
X63439Y5136D01*
X63444Y5130D01*
X63448Y5125D01*
X63451Y5120D01*
X63454Y5117D01*
X63457Y5114D01*
X63457Y5113D01*
X63458Y5112D01*
X63464Y5102D01*
X63469Y5091D01*
X63477Y5069D01*
X63483Y5047D01*
X63487Y5026D01*
X63488Y5015D01*
X63490Y5006D01*
X63491Y4998D01*
Y4992D01*
X63491Y4986D01*
Y4978D01*
X63491Y4963D01*
X63489Y4949D01*
X63488Y4936D01*
X63485Y4923D01*
X63481Y4911D01*
X63477Y4900D01*
X63474Y4890D01*
X63469Y4880D01*
X63465Y4872D01*
X63462Y4864D01*
X63458Y4858D01*
X63454Y4852D01*
X63451Y4848D01*
X63450Y4845D01*
X63448Y4843D01*
X63448Y4842D01*
X63439Y4832D01*
X63430Y4823D01*
X63420Y4815D01*
X63409Y4807D01*
X63389Y4794D01*
X63368Y4783D01*
X63358Y4779D01*
X63349Y4775D01*
X63341Y4772D01*
X63335Y4770D01*
X63329Y4768D01*
X63324Y4766D01*
X63321Y4766D01*
X63321D01*
X63304Y4833D01*
X63315Y4836D01*
X63326Y4840D01*
X63337Y4844D01*
X63346Y4848D01*
X63355Y4852D01*
X63363Y4856D01*
X63370Y4862D01*
X63377Y4866D01*
X63383Y4870D01*
X63387Y4874D01*
X63392Y4878D01*
X63395Y4881D01*
X63397Y4884D01*
X63400Y4886D01*
X63400Y4887D01*
X63401Y4887D01*
X63407Y4895D01*
X63411Y4903D01*
X63420Y4919D01*
X63426Y4935D01*
X63429Y4950D01*
X63432Y4964D01*
X63433Y4969D01*
Y4974D01*
X63434Y4978D01*
Y4984D01*
X63433Y5001D01*
X63430Y5017D01*
X63426Y5032D01*
X63422Y5045D01*
X63417Y5055D01*
X63415Y5060D01*
X63414Y5063D01*
X63412Y5066D01*
X63411Y5069D01*
X63410Y5070D01*
Y5071D01*
X63400Y5085D01*
X63389Y5097D01*
X63376Y5107D01*
X63364Y5115D01*
X63354Y5122D01*
X63345Y5126D01*
X63341Y5128D01*
X63339Y5129D01*
X63338Y5130D01*
X63337D01*
X63318Y5136D01*
X63298Y5140D01*
X63279Y5144D01*
X63261Y5146D01*
X63253Y5147D01*
X63246Y5148D01*
X63239D01*
X63234Y5148D01*
X63230D01*
X63226D01*
X63224D01*
X63223D01*
X63204Y5148D01*
X63186Y5146D01*
X63170Y5143D01*
X63155Y5140D01*
X63142Y5138D01*
X63137Y5137D01*
X63133Y5135D01*
X63129Y5134D01*
X63127Y5134D01*
X63125Y5133D01*
X63125D01*
X63108Y5125D01*
X63092Y5117D01*
X63080Y5108D01*
X63069Y5099D01*
X63060Y5091D01*
X63054Y5084D01*
X63050Y5079D01*
X63049Y5078D01*
Y5077D01*
X63039Y5062D01*
X63032Y5045D01*
X63026Y5029D01*
X63023Y5013D01*
X63021Y4999D01*
X63020Y4993D01*
Y4988D01*
X63020Y4984D01*
Y4978D01*
X63020Y4960D01*
X63023Y4943D01*
X63028Y4929D01*
X63032Y4916D01*
X63037Y4907D01*
X63041Y4899D01*
X63044Y4895D01*
X63046Y4893D01*
X63057Y4882D01*
X63069Y4870D01*
X63083Y4862D01*
X63096Y4854D01*
X63108Y4848D01*
X63114Y4846D01*
X63118Y4845D01*
X63122Y4843D01*
X63125Y4842D01*
X63126Y4841D01*
X63127D01*
X63111Y4774D01*
X63098Y4779D01*
X63086Y4783D01*
X63075Y4789D01*
X63064Y4794D01*
X63054Y4800D01*
X63046Y4807D01*
X63037Y4813D01*
X63029Y4819D01*
X63023Y4825D01*
X63018Y4830D01*
X63012Y4835D01*
X63009Y4839D01*
X63005Y4842D01*
X63003Y4845D01*
X63002Y4847D01*
X63001Y4848D01*
X62995Y4858D01*
X62988Y4868D01*
X62983Y4879D01*
X62978Y4890D01*
X62972Y4912D01*
X62967Y4932D01*
X62965Y4941D01*
X62964Y4950D01*
X62964Y4958D01*
X62963Y4964D01*
X62962Y4970D01*
Y4977D01*
X62964Y5001D01*
X62967Y5025D01*
X62972Y5046D01*
X62975Y5055D01*
X62978Y5064D01*
X62981Y5072D01*
X62984Y5080D01*
X62986Y5086D01*
X62988Y5091D01*
X62990Y5095D01*
X62992Y5098D01*
X62992Y5100D01*
X62993Y5101D01*
X63006Y5121D01*
X63020Y5138D01*
X63035Y5153D01*
X63050Y5165D01*
X63063Y5175D01*
X63069Y5179D01*
X63074Y5182D01*
X63078Y5185D01*
X63081Y5186D01*
X63083Y5187D01*
X63084Y5188D01*
X63107Y5198D01*
X63131Y5205D01*
X63154Y5210D01*
X63176Y5214D01*
X63185Y5216D01*
X63195Y5216D01*
X63202Y5217D01*
X63210D01*
X63215Y5218D01*
X63219D01*
X63222D01*
X63223D01*
X63250Y5216D01*
D02*
G37*
G36*
X63154Y4649D02*
X63148Y4638D01*
X63143Y4627D01*
X63138Y4616D01*
X63134Y4607D01*
X63130Y4600D01*
X63127Y4595D01*
X63126Y4595D01*
Y4594D01*
X63118Y4581D01*
X63110Y4569D01*
X63103Y4559D01*
X63096Y4550D01*
X63091Y4543D01*
X63086Y4539D01*
X63083Y4535D01*
X63083Y4534D01*
X63482D01*
Y4471D01*
X62969D01*
Y4512D01*
X62981Y4519D01*
X62993Y4527D01*
X63005Y4537D01*
X63015Y4546D01*
X63024Y4555D01*
X63032Y4561D01*
X63034Y4564D01*
X63036Y4567D01*
X63037Y4567D01*
X63037Y4568D01*
X63050Y4584D01*
X63062Y4599D01*
X63072Y4614D01*
X63080Y4629D01*
X63088Y4641D01*
X63091Y4647D01*
X63093Y4651D01*
X63095Y4655D01*
X63096Y4658D01*
X63097Y4659D01*
Y4660D01*
X63158D01*
X63154Y4649D01*
D02*
G37*
G36*
X63482Y3980D02*
X63422D01*
Y4232D01*
X63409Y4223D01*
X63404Y4219D01*
X63399Y4215D01*
X63394Y4211D01*
X63392Y4208D01*
X63389Y4206D01*
X63389Y4205D01*
X63385Y4202D01*
X63381Y4197D01*
X63372Y4187D01*
X63360Y4175D01*
X63349Y4162D01*
X63340Y4151D01*
X63335Y4145D01*
X63331Y4141D01*
X63328Y4137D01*
X63326Y4134D01*
X63324Y4133D01*
X63324Y4132D01*
X63313Y4120D01*
X63304Y4108D01*
X63294Y4098D01*
X63286Y4088D01*
X63278Y4080D01*
X63270Y4072D01*
X63264Y4065D01*
X63258Y4059D01*
X63252Y4053D01*
X63247Y4049D01*
X63244Y4045D01*
X63240Y4041D01*
X63236Y4037D01*
X63234Y4036D01*
X63222Y4026D01*
X63210Y4017D01*
X63199Y4009D01*
X63190Y4003D01*
X63182Y3999D01*
X63176Y3996D01*
X63173Y3995D01*
X63171Y3994D01*
X63160Y3989D01*
X63149Y3986D01*
X63139Y3983D01*
X63130Y3982D01*
X63122Y3981D01*
X63116Y3981D01*
X63112D01*
X63111D01*
X63100Y3981D01*
X63089Y3983D01*
X63079Y3984D01*
X63070Y3987D01*
X63052Y3995D01*
X63038Y4002D01*
X63032Y4006D01*
X63026Y4010D01*
X63021Y4014D01*
X63018Y4017D01*
X63015Y4020D01*
X63012Y4022D01*
X63011Y4023D01*
X63010Y4024D01*
X63003Y4032D01*
X62996Y4041D01*
X62991Y4051D01*
X62986Y4060D01*
X62979Y4080D01*
X62974Y4099D01*
X62972Y4107D01*
X62971Y4115D01*
X62970Y4122D01*
X62969Y4128D01*
X62969Y4134D01*
Y4141D01*
X62969Y4154D01*
X62970Y4167D01*
X62972Y4179D01*
X62975Y4190D01*
X62978Y4200D01*
X62981Y4210D01*
X62984Y4219D01*
X62988Y4227D01*
X62992Y4234D01*
X62995Y4240D01*
X62998Y4245D01*
X63001Y4250D01*
X63003Y4253D01*
X63006Y4255D01*
X63006Y4257D01*
X63007Y4258D01*
X63015Y4265D01*
X63023Y4272D01*
X63032Y4278D01*
X63040Y4284D01*
X63058Y4292D01*
X63076Y4298D01*
X63084Y4301D01*
X63092Y4303D01*
X63099Y4304D01*
X63105Y4306D01*
X63110Y4306D01*
X63114D01*
X63116Y4307D01*
X63117D01*
X63123Y4243D01*
X63106Y4241D01*
X63091Y4238D01*
X63078Y4234D01*
X63068Y4229D01*
X63059Y4224D01*
X63053Y4220D01*
X63049Y4217D01*
X63048Y4216D01*
X63039Y4204D01*
X63032Y4193D01*
X63027Y4180D01*
X63024Y4169D01*
X63022Y4159D01*
X63021Y4150D01*
X63020Y4147D01*
Y4142D01*
X63021Y4127D01*
X63024Y4113D01*
X63029Y4101D01*
X63033Y4091D01*
X63038Y4083D01*
X63042Y4077D01*
X63045Y4074D01*
X63046Y4072D01*
X63057Y4063D01*
X63067Y4057D01*
X63077Y4051D01*
X63088Y4049D01*
X63096Y4046D01*
X63103Y4046D01*
X63108Y4045D01*
X63108D01*
X63109D01*
X63122Y4046D01*
X63137Y4049D01*
X63149Y4054D01*
X63161Y4060D01*
X63171Y4066D01*
X63179Y4071D01*
X63182Y4072D01*
X63184Y4074D01*
X63185Y4075D01*
X63185D01*
X63193Y4081D01*
X63202Y4088D01*
X63210Y4097D01*
X63219Y4105D01*
X63237Y4124D01*
X63255Y4142D01*
X63263Y4152D01*
X63270Y4160D01*
X63277Y4168D01*
X63283Y4175D01*
X63287Y4180D01*
X63291Y4185D01*
X63293Y4187D01*
X63294Y4188D01*
X63309Y4207D01*
X63324Y4224D01*
X63338Y4238D01*
X63349Y4249D01*
X63358Y4258D01*
X63365Y4265D01*
X63369Y4269D01*
X63370Y4270D01*
X63371D01*
X63383Y4281D01*
X63395Y4289D01*
X63407Y4296D01*
X63417Y4302D01*
X63426Y4306D01*
X63433Y4309D01*
X63437Y4311D01*
X63438Y4312D01*
X63439D01*
X63447Y4315D01*
X63454Y4316D01*
X63462Y4318D01*
X63468Y4318D01*
X63474Y4319D01*
X63479D01*
X63482D01*
X63482D01*
Y3980D01*
D02*
G37*
G36*
X9741Y28980D02*
X9766Y28977D01*
X9789Y28973D01*
X9800Y28970D01*
X9810Y28968D01*
X9819Y28966D01*
X9827Y28963D01*
X9834Y28961D01*
X9840Y28959D01*
X9845Y28957D01*
X9848Y28956D01*
X9851Y28955D01*
X9851D01*
X9874Y28944D01*
X9894Y28931D01*
X9911Y28918D01*
X9917Y28911D01*
X9924Y28905D01*
X9930Y28899D01*
X9935Y28893D01*
X9939Y28888D01*
X9942Y28884D01*
X9945Y28881D01*
X9947Y28878D01*
X9948Y28876D01*
X9949Y28876D01*
X9955Y28865D01*
X9960Y28855D01*
X9968Y28833D01*
X9974Y28811D01*
X9978Y28789D01*
X9979Y28779D01*
X9981Y28770D01*
X9981Y28762D01*
Y28755D01*
X9982Y28749D01*
Y28741D01*
X9981Y28726D01*
X9980Y28712D01*
X9979Y28699D01*
X9976Y28687D01*
X9972Y28675D01*
X9968Y28664D01*
X9964Y28653D01*
X9960Y28644D01*
X9956Y28635D01*
X9953Y28627D01*
X9949Y28621D01*
X9945Y28616D01*
X9942Y28612D01*
X9941Y28608D01*
X9939Y28607D01*
X9939Y28606D01*
X9930Y28596D01*
X9921Y28587D01*
X9911Y28579D01*
X9900Y28570D01*
X9879Y28557D01*
X9859Y28547D01*
X9849Y28542D01*
X9840Y28539D01*
X9832Y28536D01*
X9826Y28533D01*
X9820Y28531D01*
X9815Y28530D01*
X9812Y28529D01*
X9811D01*
X9794Y28597D01*
X9806Y28600D01*
X9817Y28604D01*
X9828Y28607D01*
X9837Y28611D01*
X9846Y28616D01*
X9854Y28620D01*
X9861Y28625D01*
X9868Y28630D01*
X9874Y28633D01*
X9878Y28638D01*
X9882Y28641D01*
X9886Y28644D01*
X9888Y28647D01*
X9891Y28650D01*
X9891Y28650D01*
X9892Y28651D01*
X9898Y28658D01*
X9902Y28667D01*
X9911Y28683D01*
X9916Y28698D01*
X9920Y28714D01*
X9923Y28727D01*
X9924Y28732D01*
Y28737D01*
X9925Y28742D01*
Y28747D01*
X9924Y28764D01*
X9921Y28780D01*
X9917Y28795D01*
X9913Y28808D01*
X9908Y28819D01*
X9906Y28823D01*
X9905Y28827D01*
X9903Y28830D01*
X9902Y28832D01*
X9901Y28834D01*
Y28834D01*
X9891Y28848D01*
X9879Y28860D01*
X9867Y28871D01*
X9855Y28879D01*
X9845Y28885D01*
X9836Y28890D01*
X9832Y28891D01*
X9830Y28893D01*
X9828Y28893D01*
X9828D01*
X9809Y28899D01*
X9789Y28904D01*
X9770Y28907D01*
X9752Y28910D01*
X9744Y28910D01*
X9737Y28911D01*
X9730D01*
X9725Y28912D01*
X9721D01*
X9717D01*
X9715D01*
X9714D01*
X9695Y28911D01*
X9677Y28910D01*
X9661Y28907D01*
X9646Y28904D01*
X9633Y28902D01*
X9628Y28900D01*
X9624Y28899D01*
X9620Y28898D01*
X9618Y28897D01*
X9616Y28896D01*
X9616D01*
X9599Y28889D01*
X9583Y28881D01*
X9571Y28872D01*
X9559Y28862D01*
X9551Y28854D01*
X9545Y28848D01*
X9541Y28842D01*
X9539Y28842D01*
Y28841D01*
X9530Y28825D01*
X9522Y28808D01*
X9517Y28792D01*
X9514Y28777D01*
X9512Y28763D01*
X9511Y28757D01*
Y28752D01*
X9511Y28748D01*
Y28742D01*
X9511Y28723D01*
X9514Y28706D01*
X9519Y28692D01*
X9523Y28680D01*
X9528Y28670D01*
X9532Y28663D01*
X9535Y28658D01*
X9537Y28657D01*
X9548Y28645D01*
X9560Y28634D01*
X9573Y28625D01*
X9587Y28618D01*
X9599Y28612D01*
X9605Y28610D01*
X9609Y28608D01*
X9613Y28607D01*
X9616Y28605D01*
X9617Y28604D01*
X9618D01*
X9602Y28538D01*
X9589Y28542D01*
X9577Y28547D01*
X9566Y28553D01*
X9555Y28558D01*
X9545Y28564D01*
X9537Y28570D01*
X9528Y28576D01*
X9520Y28582D01*
X9514Y28588D01*
X9508Y28593D01*
X9503Y28599D01*
X9500Y28602D01*
X9496Y28606D01*
X9494Y28609D01*
X9493Y28610D01*
X9492Y28611D01*
X9486Y28621D01*
X9479Y28632D01*
X9474Y28642D01*
X9469Y28653D01*
X9463Y28675D01*
X9458Y28695D01*
X9456Y28705D01*
X9455Y28713D01*
X9454Y28721D01*
X9454Y28728D01*
X9453Y28733D01*
Y28740D01*
X9454Y28765D01*
X9458Y28788D01*
X9463Y28809D01*
X9466Y28819D01*
X9469Y28828D01*
X9471Y28836D01*
X9474Y28843D01*
X9477Y28849D01*
X9479Y28855D01*
X9481Y28859D01*
X9483Y28862D01*
X9483Y28864D01*
X9484Y28865D01*
X9497Y28885D01*
X9511Y28902D01*
X9526Y28916D01*
X9541Y28929D01*
X9554Y28939D01*
X9560Y28942D01*
X9565Y28945D01*
X9569Y28948D01*
X9572Y28950D01*
X9574Y28950D01*
X9575Y28951D01*
X9598Y28961D01*
X9622Y28969D01*
X9645Y28974D01*
X9667Y28978D01*
X9676Y28979D01*
X9686Y28980D01*
X9693Y28981D01*
X9701D01*
X9706Y28981D01*
X9710D01*
X9713D01*
X9714D01*
X9741Y28980D01*
D02*
G37*
G36*
X9838Y28471D02*
X9850Y28470D01*
X9861Y28468D01*
X9872Y28465D01*
X9891Y28457D01*
X9899Y28454D01*
X9907Y28449D01*
X9914Y28445D01*
X9920Y28441D01*
X9925Y28437D01*
X9930Y28434D01*
X9933Y28431D01*
X9936Y28429D01*
X9937Y28427D01*
X9938Y28426D01*
X9946Y28417D01*
X9953Y28408D01*
X9959Y28397D01*
X9964Y28387D01*
X9967Y28378D01*
X9971Y28367D01*
X9976Y28347D01*
X9979Y28338D01*
X9980Y28330D01*
X9981Y28323D01*
X9981Y28316D01*
X9982Y28311D01*
Y28304D01*
X9981Y28290D01*
X9980Y28277D01*
X9978Y28264D01*
X9976Y28253D01*
X9972Y28242D01*
X9968Y28232D01*
X9964Y28222D01*
X9960Y28214D01*
X9956Y28207D01*
X9952Y28200D01*
X9948Y28195D01*
X9945Y28190D01*
X9942Y28186D01*
X9940Y28184D01*
X9939Y28182D01*
X9938Y28182D01*
X9929Y28174D01*
X9920Y28166D01*
X9911Y28160D01*
X9902Y28155D01*
X9893Y28150D01*
X9883Y28146D01*
X9866Y28141D01*
X9858Y28139D01*
X9851Y28137D01*
X9844Y28137D01*
X9839Y28136D01*
X9834Y28135D01*
X9831D01*
X9828D01*
X9828D01*
X9811Y28136D01*
X9795Y28139D01*
X9781Y28143D01*
X9769Y28148D01*
X9760Y28152D01*
X9752Y28157D01*
X9748Y28159D01*
X9747Y28160D01*
X9746D01*
X9735Y28171D01*
X9724Y28182D01*
X9716Y28193D01*
X9709Y28205D01*
X9704Y28215D01*
X9700Y28224D01*
X9698Y28227D01*
X9698Y28229D01*
X9697Y28230D01*
Y28231D01*
X9691Y28218D01*
X9684Y28207D01*
X9678Y28197D01*
X9671Y28189D01*
X9665Y28183D01*
X9661Y28179D01*
X9658Y28176D01*
X9656Y28175D01*
X9646Y28168D01*
X9636Y28164D01*
X9625Y28160D01*
X9615Y28158D01*
X9607Y28157D01*
X9600Y28156D01*
X9596D01*
X9595D01*
X9594D01*
X9584Y28157D01*
X9574Y28157D01*
X9556Y28162D01*
X9539Y28169D01*
X9525Y28176D01*
X9514Y28184D01*
X9510Y28188D01*
X9505Y28191D01*
X9503Y28193D01*
X9500Y28196D01*
X9500Y28196D01*
X9499Y28197D01*
X9492Y28205D01*
X9486Y28213D01*
X9480Y28222D01*
X9476Y28231D01*
X9469Y28249D01*
X9465Y28267D01*
X9463Y28274D01*
X9462Y28281D01*
X9461Y28288D01*
X9460Y28294D01*
X9460Y28298D01*
Y28305D01*
X9460Y28317D01*
X9461Y28329D01*
X9466Y28349D01*
X9469Y28359D01*
X9471Y28368D01*
X9475Y28376D01*
X9479Y28383D01*
X9483Y28389D01*
X9486Y28395D01*
X9489Y28400D01*
X9492Y28404D01*
X9494Y28407D01*
X9497Y28409D01*
X9497Y28411D01*
X9498Y28412D01*
X9505Y28418D01*
X9513Y28425D01*
X9521Y28430D01*
X9529Y28434D01*
X9545Y28442D01*
X9559Y28446D01*
X9572Y28449D01*
X9578Y28450D01*
X9582Y28451D01*
X9587Y28451D01*
X9590D01*
X9591D01*
X9592D01*
X9605Y28451D01*
X9618Y28448D01*
X9629Y28446D01*
X9639Y28442D01*
X9646Y28439D01*
X9652Y28436D01*
X9655Y28434D01*
X9656Y28433D01*
X9665Y28425D01*
X9673Y28416D01*
X9681Y28406D01*
X9687Y28397D01*
X9691Y28388D01*
X9694Y28381D01*
X9695Y28378D01*
X9696Y28376D01*
X9697Y28375D01*
Y28375D01*
X9702Y28392D01*
X9709Y28406D01*
X9717Y28418D01*
X9724Y28429D01*
X9732Y28437D01*
X9738Y28443D01*
X9741Y28446D01*
X9742Y28447D01*
X9743D01*
X9756Y28455D01*
X9770Y28462D01*
X9783Y28466D01*
X9797Y28469D01*
X9809Y28471D01*
X9814Y28471D01*
X9818D01*
X9821Y28472D01*
X9824D01*
X9826D01*
X9826D01*
X9838Y28471D01*
D02*
G37*
G36*
X69253Y20779D02*
X69261Y20767D01*
X69271Y20756D01*
X69280Y20745D01*
X69289Y20736D01*
X69295Y20729D01*
X69298Y20727D01*
X69300Y20725D01*
X69301Y20724D01*
X69302Y20723D01*
X69317Y20710D01*
X69333Y20699D01*
X69348Y20688D01*
X69363Y20680D01*
X69375Y20673D01*
X69380Y20670D01*
X69385Y20668D01*
X69388Y20665D01*
X69391Y20665D01*
X69393Y20663D01*
X69394D01*
Y20603D01*
X69382Y20607D01*
X69371Y20612D01*
X69360Y20617D01*
X69350Y20622D01*
X69341Y20627D01*
X69334Y20631D01*
X69329Y20634D01*
X69329Y20634D01*
X69328D01*
X69314Y20642D01*
X69303Y20651D01*
X69292Y20658D01*
X69284Y20665D01*
X69277Y20670D01*
X69272Y20674D01*
X69269Y20677D01*
X69268Y20678D01*
Y20278D01*
X69205D01*
Y20792D01*
X69246D01*
X69253Y20779D01*
D02*
G37*
G36*
X69735Y20797D02*
X69759Y20793D01*
X69779Y20789D01*
X69789Y20786D01*
X69798Y20783D01*
X69806Y20780D01*
X69813Y20777D01*
X69819Y20775D01*
X69825Y20773D01*
X69829Y20770D01*
X69832Y20769D01*
X69834Y20768D01*
X69835Y20767D01*
X69855Y20755D01*
X69872Y20740D01*
X69887Y20725D01*
X69899Y20710D01*
X69909Y20697D01*
X69912Y20691D01*
X69915Y20686D01*
X69918Y20682D01*
X69920Y20679D01*
X69921Y20677D01*
X69921Y20676D01*
X69932Y20654D01*
X69939Y20630D01*
X69944Y20606D01*
X69948Y20585D01*
X69949Y20575D01*
X69950Y20566D01*
X69951Y20558D01*
Y20551D01*
X69952Y20546D01*
Y20541D01*
Y20538D01*
Y20538D01*
X69950Y20511D01*
X69947Y20485D01*
X69943Y20462D01*
X69941Y20451D01*
X69938Y20441D01*
X69936Y20433D01*
X69933Y20424D01*
X69931Y20417D01*
X69929Y20411D01*
X69927Y20407D01*
X69926Y20403D01*
X69925Y20401D01*
Y20400D01*
X69914Y20378D01*
X69901Y20358D01*
X69888Y20341D01*
X69881Y20334D01*
X69875Y20328D01*
X69870Y20322D01*
X69864Y20316D01*
X69858Y20312D01*
X69854Y20309D01*
X69851Y20306D01*
X69848Y20304D01*
X69847Y20303D01*
X69846Y20302D01*
X69836Y20297D01*
X69825Y20291D01*
X69803Y20283D01*
X69781Y20277D01*
X69759Y20274D01*
X69749Y20272D01*
X69740Y20271D01*
X69732Y20270D01*
X69725D01*
X69720Y20269D01*
X69711D01*
X69697Y20270D01*
X69683Y20271D01*
X69669Y20273D01*
X69657Y20276D01*
X69645Y20280D01*
X69634Y20283D01*
X69623Y20287D01*
X69614Y20291D01*
X69606Y20295D01*
X69598Y20299D01*
X69592Y20302D01*
X69586Y20306D01*
X69582Y20309D01*
X69578Y20311D01*
X69577Y20312D01*
X69576Y20313D01*
X69566Y20322D01*
X69557Y20331D01*
X69549Y20341D01*
X69541Y20351D01*
X69527Y20372D01*
X69517Y20393D01*
X69513Y20402D01*
X69509Y20411D01*
X69506Y20419D01*
X69504Y20426D01*
X69501Y20432D01*
X69500Y20436D01*
X69499Y20439D01*
Y20440D01*
X69567Y20457D01*
X69570Y20445D01*
X69574Y20434D01*
X69578Y20424D01*
X69581Y20414D01*
X69586Y20405D01*
X69590Y20398D01*
X69595Y20390D01*
X69600Y20384D01*
X69603Y20378D01*
X69608Y20373D01*
X69612Y20369D01*
X69615Y20365D01*
X69618Y20363D01*
X69620Y20361D01*
X69620Y20360D01*
X69621Y20359D01*
X69629Y20353D01*
X69637Y20349D01*
X69653Y20341D01*
X69669Y20335D01*
X69684Y20331D01*
X69697Y20328D01*
X69703Y20328D01*
X69708D01*
X69712Y20327D01*
X69717D01*
X69734Y20328D01*
X69751Y20331D01*
X69765Y20334D01*
X69779Y20339D01*
X69789Y20343D01*
X69793Y20345D01*
X69797Y20347D01*
X69800Y20348D01*
X69802Y20350D01*
X69804Y20350D01*
X69805D01*
X69819Y20361D01*
X69830Y20372D01*
X69841Y20384D01*
X69849Y20396D01*
X69856Y20407D01*
X69860Y20416D01*
X69861Y20419D01*
X69863Y20421D01*
X69864Y20423D01*
Y20424D01*
X69870Y20443D01*
X69874Y20462D01*
X69878Y20481D01*
X69880Y20499D01*
X69881Y20507D01*
X69881Y20515D01*
Y20521D01*
X69882Y20526D01*
Y20531D01*
Y20535D01*
Y20537D01*
Y20538D01*
X69881Y20557D01*
X69880Y20574D01*
X69877Y20591D01*
X69874Y20605D01*
X69872Y20618D01*
X69870Y20623D01*
X69869Y20628D01*
X69868Y20631D01*
X69867Y20634D01*
X69867Y20635D01*
Y20636D01*
X69859Y20653D01*
X69851Y20668D01*
X69842Y20681D01*
X69833Y20692D01*
X69824Y20701D01*
X69818Y20707D01*
X69813Y20710D01*
X69812Y20712D01*
X69811D01*
X69796Y20722D01*
X69779Y20729D01*
X69762Y20734D01*
X69747Y20737D01*
X69733Y20739D01*
X69727Y20740D01*
X69722D01*
X69718Y20741D01*
X69712D01*
X69694Y20740D01*
X69677Y20737D01*
X69663Y20733D01*
X69650Y20728D01*
X69640Y20723D01*
X69633Y20719D01*
X69629Y20716D01*
X69627Y20715D01*
X69615Y20704D01*
X69604Y20691D01*
X69595Y20678D01*
X69588Y20665D01*
X69582Y20653D01*
X69580Y20647D01*
X69578Y20642D01*
X69577Y20639D01*
X69575Y20636D01*
X69575Y20634D01*
Y20634D01*
X69508Y20649D01*
X69513Y20662D01*
X69517Y20674D01*
X69523Y20685D01*
X69528Y20696D01*
X69534Y20706D01*
X69541Y20715D01*
X69547Y20724D01*
X69552Y20731D01*
X69558Y20737D01*
X69564Y20743D01*
X69569Y20748D01*
X69572Y20752D01*
X69576Y20756D01*
X69579Y20758D01*
X69581Y20758D01*
X69581Y20759D01*
X69592Y20766D01*
X69602Y20773D01*
X69612Y20778D01*
X69623Y20782D01*
X69646Y20789D01*
X69666Y20793D01*
X69675Y20795D01*
X69683Y20796D01*
X69691Y20797D01*
X69698Y20798D01*
X69703Y20798D01*
X69711D01*
X69735Y20797D01*
D02*
G37*
G36*
X68897Y20790D02*
X68915Y20787D01*
X68931Y20782D01*
X68944Y20777D01*
X68955Y20771D01*
X68960Y20769D01*
X68963Y20766D01*
X68966Y20764D01*
X68969Y20763D01*
X68969Y20761D01*
X68970D01*
X68983Y20750D01*
X68994Y20736D01*
X69004Y20722D01*
X69011Y20708D01*
X69017Y20696D01*
X69020Y20691D01*
X69022Y20685D01*
X69023Y20682D01*
X69025Y20679D01*
X69025Y20677D01*
Y20676D01*
X69028Y20665D01*
X69031Y20654D01*
X69036Y20630D01*
X69040Y20605D01*
X69042Y20583D01*
X69042Y20572D01*
X69043Y20562D01*
Y20553D01*
X69044Y20545D01*
Y20539D01*
Y20534D01*
Y20531D01*
Y20530D01*
X69043Y20504D01*
X69042Y20480D01*
X69040Y20458D01*
X69036Y20437D01*
X69032Y20418D01*
X69028Y20401D01*
X69023Y20385D01*
X69019Y20372D01*
X69014Y20360D01*
X69009Y20350D01*
X69006Y20341D01*
X69002Y20334D01*
X68998Y20328D01*
X68996Y20325D01*
X68994Y20322D01*
X68994Y20322D01*
X68986Y20313D01*
X68977Y20305D01*
X68967Y20297D01*
X68957Y20291D01*
X68948Y20286D01*
X68938Y20282D01*
X68929Y20279D01*
X68920Y20276D01*
X68911Y20274D01*
X68903Y20272D01*
X68895Y20271D01*
X68889Y20270D01*
X68884Y20269D01*
X68877D01*
X68857Y20271D01*
X68838Y20274D01*
X68823Y20279D01*
X68810Y20284D01*
X68799Y20289D01*
X68795Y20292D01*
X68791Y20294D01*
X68788Y20296D01*
X68786Y20297D01*
X68785Y20299D01*
X68785D01*
X68771Y20311D01*
X68760Y20325D01*
X68751Y20339D01*
X68743Y20353D01*
X68737Y20365D01*
X68734Y20370D01*
X68733Y20376D01*
X68731Y20379D01*
X68730Y20382D01*
X68729Y20384D01*
Y20384D01*
X68725Y20396D01*
X68722Y20407D01*
X68718Y20430D01*
X68714Y20455D01*
X68712Y20478D01*
X68711Y20489D01*
X68711Y20498D01*
Y20507D01*
X68710Y20515D01*
Y20521D01*
Y20526D01*
Y20529D01*
Y20530D01*
Y20544D01*
X68711Y20557D01*
Y20569D01*
X68711Y20581D01*
X68713Y20591D01*
X68714Y20602D01*
X68714Y20611D01*
X68716Y20619D01*
X68717Y20626D01*
X68718Y20633D01*
X68719Y20638D01*
X68719Y20642D01*
X68720Y20646D01*
X68721Y20648D01*
X68722Y20650D01*
Y20651D01*
X68726Y20667D01*
X68731Y20682D01*
X68737Y20694D01*
X68742Y20705D01*
X68747Y20715D01*
X68750Y20722D01*
X68753Y20725D01*
X68753Y20727D01*
X68762Y20738D01*
X68770Y20747D01*
X68779Y20756D01*
X68787Y20763D01*
X68794Y20768D01*
X68800Y20772D01*
X68804Y20774D01*
X68804Y20775D01*
X68805D01*
X68817Y20781D01*
X68830Y20784D01*
X68841Y20787D01*
X68853Y20790D01*
X68862Y20791D01*
X68870Y20792D01*
X68877D01*
X68897Y20790D01*
D02*
G37*
G36*
X38905Y14209D02*
X38917Y14207D01*
X38930Y14205D01*
X38941Y14202D01*
X38951Y14199D01*
X38962Y14195D01*
X38971Y14190D01*
X38979Y14187D01*
X38986Y14182D01*
X38993Y14178D01*
X38998Y14174D01*
X39003Y14170D01*
X39007Y14168D01*
X39009Y14165D01*
X39010Y14164D01*
X39011Y14163D01*
X39019Y14154D01*
X39027Y14145D01*
X39033Y14136D01*
X39038Y14126D01*
X39043Y14117D01*
X39047Y14107D01*
X39052Y14089D01*
X39054Y14081D01*
X39056Y14074D01*
X39056Y14067D01*
X39057Y14061D01*
X39058Y14057D01*
Y14040D01*
X39056Y14032D01*
X39053Y14014D01*
X39047Y13998D01*
X39041Y13983D01*
X39036Y13971D01*
X39033Y13966D01*
X39030Y13961D01*
X39028Y13958D01*
X39027Y13955D01*
X39026Y13954D01*
X39025Y13953D01*
X39163Y13981D01*
Y14185D01*
X39223D01*
Y13931D01*
X38960Y13881D01*
X38952Y13941D01*
X38960Y13946D01*
X38967Y13952D01*
X38973Y13958D01*
X38979Y13964D01*
X38982Y13970D01*
X38986Y13975D01*
X38987Y13978D01*
X38988Y13978D01*
X38993Y13988D01*
X38996Y13998D01*
X38999Y14006D01*
X39001Y14015D01*
X39002Y14023D01*
X39002Y14029D01*
Y14043D01*
X39001Y14051D01*
X38997Y14067D01*
X38992Y14080D01*
X38987Y14092D01*
X38981Y14101D01*
X38976Y14108D01*
X38972Y14111D01*
X38971Y14113D01*
X38971D01*
X38958Y14123D01*
X38945Y14131D01*
X38931Y14136D01*
X38917Y14139D01*
X38905Y14142D01*
X38900Y14142D01*
X38895D01*
X38891Y14143D01*
X38888D01*
X38887D01*
X38886D01*
X38876D01*
X38866Y14142D01*
X38848Y14138D01*
X38832Y14133D01*
X38820Y14128D01*
X38809Y14122D01*
X38801Y14117D01*
X38799Y14114D01*
X38797Y14113D01*
X38796Y14112D01*
X38795Y14111D01*
X38789Y14105D01*
X38784Y14100D01*
X38775Y14086D01*
X38769Y14074D01*
X38766Y14061D01*
X38763Y14051D01*
X38762Y14042D01*
X38761Y14039D01*
Y14034D01*
X38762Y14020D01*
X38765Y14008D01*
X38769Y13997D01*
X38773Y13988D01*
X38778Y13980D01*
X38781Y13974D01*
X38784Y13971D01*
X38785Y13969D01*
X38795Y13961D01*
X38806Y13953D01*
X38819Y13947D01*
X38830Y13943D01*
X38841Y13940D01*
X38849Y13938D01*
X38853Y13937D01*
X38855Y13936D01*
X38857D01*
X38857D01*
X38852Y13870D01*
X38840Y13872D01*
X38829Y13874D01*
X38809Y13881D01*
X38791Y13889D01*
X38783Y13893D01*
X38776Y13898D01*
X38769Y13901D01*
X38764Y13906D01*
X38759Y13910D01*
X38755Y13913D01*
X38752Y13916D01*
X38750Y13918D01*
X38749Y13919D01*
X38748Y13920D01*
X38741Y13929D01*
X38735Y13938D01*
X38730Y13947D01*
X38726Y13957D01*
X38719Y13975D01*
X38715Y13994D01*
X38713Y14002D01*
X38712Y14010D01*
X38711Y14017D01*
X38710Y14023D01*
X38710Y14028D01*
Y14034D01*
X38710Y14050D01*
X38713Y14065D01*
X38715Y14079D01*
X38719Y14091D01*
X38724Y14103D01*
X38730Y14114D01*
X38735Y14125D01*
X38741Y14134D01*
X38747Y14142D01*
X38752Y14149D01*
X38758Y14155D01*
X38762Y14160D01*
X38766Y14164D01*
X38769Y14167D01*
X38771Y14168D01*
X38772Y14169D01*
X38781Y14176D01*
X38792Y14182D01*
X38801Y14188D01*
X38812Y14193D01*
X38832Y14200D01*
X38851Y14204D01*
X38859Y14206D01*
X38867Y14207D01*
X38874Y14208D01*
X38880Y14209D01*
X38885Y14210D01*
X38888D01*
X38891D01*
X38891D01*
X38905Y14209D01*
D02*
G37*
G36*
X38897Y13745D02*
X38886Y13742D01*
X38874Y13738D01*
X38864Y13734D01*
X38854Y13731D01*
X38846Y13726D01*
X38838Y13722D01*
X38831Y13717D01*
X38824Y13712D01*
X38818Y13709D01*
X38814Y13704D01*
X38809Y13700D01*
X38806Y13697D01*
X38803Y13694D01*
X38801Y13692D01*
X38800Y13692D01*
X38800Y13691D01*
X38794Y13683D01*
X38789Y13675D01*
X38781Y13659D01*
X38775Y13643D01*
X38772Y13628D01*
X38769Y13615D01*
X38768Y13609D01*
Y13604D01*
X38767Y13600D01*
Y13595D01*
X38768Y13578D01*
X38771Y13561D01*
X38775Y13547D01*
X38779Y13533D01*
X38784Y13523D01*
X38786Y13519D01*
X38787Y13515D01*
X38789Y13512D01*
X38790Y13510D01*
X38791Y13508D01*
Y13507D01*
X38801Y13493D01*
X38812Y13482D01*
X38825Y13471D01*
X38837Y13463D01*
X38847Y13456D01*
X38856Y13452D01*
X38860Y13451D01*
X38862Y13449D01*
X38863Y13448D01*
X38864D01*
X38883Y13442D01*
X38903Y13438D01*
X38922Y13434D01*
X38939Y13432D01*
X38948Y13431D01*
X38955Y13431D01*
X38962D01*
X38967Y13430D01*
X38971D01*
X38975D01*
X38977D01*
X38978D01*
X38997Y13431D01*
X39015Y13432D01*
X39031Y13435D01*
X39046Y13438D01*
X39058Y13440D01*
X39064Y13442D01*
X39068Y13443D01*
X39072Y13444D01*
X39074Y13445D01*
X39075Y13445D01*
X39076D01*
X39093Y13453D01*
X39109Y13461D01*
X39121Y13470D01*
X39132Y13479D01*
X39141Y13488D01*
X39147Y13494D01*
X39151Y13499D01*
X39152Y13500D01*
Y13501D01*
X39162Y13516D01*
X39169Y13533D01*
X39175Y13550D01*
X39177Y13565D01*
X39180Y13579D01*
X39180Y13585D01*
Y13590D01*
X39181Y13594D01*
Y13600D01*
X39180Y13618D01*
X39177Y13635D01*
X39173Y13649D01*
X39169Y13662D01*
X39163Y13672D01*
X39160Y13679D01*
X39157Y13683D01*
X39155Y13685D01*
X39144Y13697D01*
X39132Y13708D01*
X39118Y13717D01*
X39105Y13724D01*
X39093Y13730D01*
X39087Y13732D01*
X39083Y13734D01*
X39079Y13735D01*
X39076Y13737D01*
X39075Y13737D01*
X39074D01*
X39090Y13804D01*
X39103Y13799D01*
X39115Y13795D01*
X39126Y13789D01*
X39137Y13784D01*
X39146Y13778D01*
X39155Y13771D01*
X39164Y13765D01*
X39172Y13760D01*
X39177Y13754D01*
X39183Y13748D01*
X39189Y13743D01*
X39192Y13740D01*
X39196Y13736D01*
X39198Y13733D01*
X39199Y13731D01*
X39200Y13731D01*
X39206Y13720D01*
X39213Y13710D01*
X39218Y13700D01*
X39223Y13689D01*
X39229Y13666D01*
X39234Y13646D01*
X39236Y13637D01*
X39237Y13629D01*
X39237Y13621D01*
X39238Y13614D01*
X39239Y13609D01*
Y13601D01*
X39237Y13577D01*
X39234Y13553D01*
X39229Y13533D01*
X39226Y13523D01*
X39223Y13514D01*
X39220Y13506D01*
X39217Y13499D01*
X39215Y13493D01*
X39213Y13487D01*
X39211Y13483D01*
X39209Y13480D01*
X39209Y13478D01*
X39208Y13477D01*
X39195Y13457D01*
X39180Y13440D01*
X39166Y13425D01*
X39151Y13413D01*
X39138Y13403D01*
X39132Y13400D01*
X39126Y13397D01*
X39123Y13394D01*
X39120Y13392D01*
X39118Y13391D01*
X39117Y13391D01*
X39094Y13380D01*
X39070Y13373D01*
X39047Y13368D01*
X39025Y13364D01*
X39016Y13363D01*
X39006Y13362D01*
X38999Y13361D01*
X38991D01*
X38986Y13360D01*
X38982D01*
X38979D01*
X38978D01*
X38951Y13362D01*
X38925Y13365D01*
X38903Y13369D01*
X38891Y13371D01*
X38882Y13374D01*
X38873Y13376D01*
X38865Y13379D01*
X38857Y13381D01*
X38852Y13383D01*
X38847Y13385D01*
X38843Y13386D01*
X38841Y13387D01*
X38840D01*
X38818Y13398D01*
X38798Y13411D01*
X38781Y13424D01*
X38775Y13431D01*
X38768Y13437D01*
X38762Y13442D01*
X38757Y13448D01*
X38752Y13454D01*
X38750Y13458D01*
X38747Y13461D01*
X38744Y13464D01*
X38744Y13465D01*
X38743Y13466D01*
X38737Y13476D01*
X38732Y13487D01*
X38724Y13509D01*
X38718Y13531D01*
X38714Y13553D01*
X38713Y13563D01*
X38711Y13572D01*
X38710Y13580D01*
Y13587D01*
X38710Y13592D01*
Y13601D01*
X38710Y13615D01*
X38712Y13629D01*
X38713Y13643D01*
X38716Y13655D01*
X38720Y13667D01*
X38724Y13678D01*
X38727Y13689D01*
X38732Y13698D01*
X38735Y13706D01*
X38739Y13714D01*
X38743Y13720D01*
X38747Y13726D01*
X38750Y13730D01*
X38751Y13734D01*
X38752Y13735D01*
X38753Y13736D01*
X38762Y13746D01*
X38771Y13755D01*
X38781Y13763D01*
X38792Y13771D01*
X38812Y13785D01*
X38833Y13795D01*
X38843Y13799D01*
X38852Y13803D01*
X38860Y13806D01*
X38866Y13808D01*
X38872Y13811D01*
X38877Y13812D01*
X38880Y13813D01*
X38880D01*
X38897Y13745D01*
D02*
G37*
G36*
X25782Y24586D02*
X25796Y24585D01*
X25809Y24584D01*
X25822Y24581D01*
X25834Y24577D01*
X25845Y24573D01*
X25855Y24569D01*
X25865Y24565D01*
X25873Y24561D01*
X25881Y24558D01*
X25887Y24554D01*
X25893Y24550D01*
X25897Y24547D01*
X25900Y24546D01*
X25902Y24544D01*
X25902Y24544D01*
X25913Y24535D01*
X25922Y24526D01*
X25930Y24516D01*
X25938Y24505D01*
X25951Y24484D01*
X25962Y24464D01*
X25966Y24454D01*
X25970Y24445D01*
X25973Y24437D01*
X25975Y24431D01*
X25977Y24425D01*
X25979Y24420D01*
X25979Y24417D01*
Y24416D01*
X25911Y24399D01*
X25908Y24411D01*
X25905Y24422D01*
X25901Y24433D01*
X25897Y24442D01*
X25893Y24451D01*
X25888Y24459D01*
X25883Y24466D01*
X25879Y24473D01*
X25875Y24479D01*
X25871Y24483D01*
X25867Y24487D01*
X25864Y24491D01*
X25861Y24493D01*
X25859Y24496D01*
X25858Y24496D01*
X25857Y24497D01*
X25850Y24503D01*
X25842Y24507D01*
X25826Y24516D01*
X25810Y24521D01*
X25795Y24525D01*
X25781Y24528D01*
X25776Y24529D01*
X25771D01*
X25766Y24530D01*
X25761D01*
X25744Y24529D01*
X25728Y24526D01*
X25713Y24522D01*
X25700Y24518D01*
X25690Y24513D01*
X25685Y24511D01*
X25681Y24510D01*
X25679Y24508D01*
X25676Y24507D01*
X25675Y24506D01*
X25674D01*
X25660Y24496D01*
X25648Y24484D01*
X25638Y24472D01*
X25630Y24460D01*
X25623Y24450D01*
X25619Y24441D01*
X25617Y24437D01*
X25616Y24435D01*
X25615Y24433D01*
Y24433D01*
X25609Y24414D01*
X25605Y24394D01*
X25601Y24375D01*
X25599Y24357D01*
X25598Y24349D01*
X25597Y24342D01*
Y24335D01*
X25596Y24330D01*
Y24326D01*
Y24322D01*
Y24320D01*
Y24319D01*
X25597Y24300D01*
X25599Y24282D01*
X25602Y24266D01*
X25605Y24251D01*
X25607Y24238D01*
X25608Y24233D01*
X25610Y24229D01*
X25611Y24225D01*
X25611Y24223D01*
X25612Y24221D01*
Y24221D01*
X25619Y24204D01*
X25628Y24188D01*
X25636Y24176D01*
X25646Y24164D01*
X25654Y24156D01*
X25661Y24150D01*
X25666Y24146D01*
X25667Y24144D01*
X25667D01*
X25683Y24135D01*
X25700Y24127D01*
X25716Y24122D01*
X25732Y24119D01*
X25746Y24117D01*
X25752Y24116D01*
X25757D01*
X25761Y24116D01*
X25766D01*
X25785Y24116D01*
X25802Y24119D01*
X25816Y24124D01*
X25829Y24128D01*
X25838Y24133D01*
X25846Y24137D01*
X25850Y24140D01*
X25851Y24142D01*
X25863Y24153D01*
X25874Y24165D01*
X25883Y24178D01*
X25891Y24192D01*
X25897Y24204D01*
X25899Y24210D01*
X25900Y24214D01*
X25902Y24218D01*
X25903Y24221D01*
X25904Y24222D01*
Y24223D01*
X25970Y24207D01*
X25966Y24194D01*
X25962Y24182D01*
X25956Y24171D01*
X25951Y24160D01*
X25945Y24150D01*
X25938Y24142D01*
X25932Y24133D01*
X25926Y24125D01*
X25920Y24119D01*
X25915Y24113D01*
X25910Y24108D01*
X25906Y24105D01*
X25902Y24101D01*
X25900Y24099D01*
X25898Y24098D01*
X25897Y24097D01*
X25887Y24091D01*
X25877Y24084D01*
X25866Y24079D01*
X25855Y24074D01*
X25833Y24068D01*
X25813Y24063D01*
X25803Y24061D01*
X25795Y24060D01*
X25787Y24059D01*
X25781Y24059D01*
X25775Y24058D01*
X25768D01*
X25744Y24059D01*
X25720Y24063D01*
X25699Y24068D01*
X25690Y24071D01*
X25681Y24074D01*
X25673Y24076D01*
X25665Y24079D01*
X25659Y24082D01*
X25653Y24084D01*
X25650Y24086D01*
X25647Y24088D01*
X25645Y24088D01*
X25644Y24089D01*
X25624Y24102D01*
X25607Y24116D01*
X25592Y24131D01*
X25579Y24146D01*
X25570Y24159D01*
X25566Y24165D01*
X25563Y24170D01*
X25560Y24174D01*
X25559Y24177D01*
X25558Y24179D01*
X25557Y24180D01*
X25547Y24203D01*
X25540Y24227D01*
X25534Y24250D01*
X25531Y24272D01*
X25529Y24281D01*
X25528Y24291D01*
X25528Y24298D01*
Y24306D01*
X25527Y24311D01*
Y24315D01*
Y24318D01*
Y24319D01*
X25528Y24346D01*
X25531Y24371D01*
X25535Y24394D01*
X25538Y24405D01*
X25540Y24415D01*
X25543Y24424D01*
X25545Y24432D01*
X25548Y24439D01*
X25549Y24445D01*
X25551Y24450D01*
X25552Y24453D01*
X25554Y24456D01*
Y24456D01*
X25565Y24479D01*
X25577Y24499D01*
X25591Y24516D01*
X25597Y24522D01*
X25603Y24529D01*
X25609Y24535D01*
X25615Y24540D01*
X25620Y24544D01*
X25625Y24547D01*
X25628Y24550D01*
X25630Y24552D01*
X25632Y24553D01*
X25633Y24554D01*
X25643Y24560D01*
X25653Y24565D01*
X25676Y24573D01*
X25698Y24579D01*
X25719Y24583D01*
X25730Y24584D01*
X25738Y24586D01*
X25747Y24586D01*
X25753D01*
X25759Y24587D01*
X25767D01*
X25782Y24586D01*
D02*
G37*
G36*
X26367Y24518D02*
X26115D01*
X26124Y24505D01*
X26129Y24500D01*
X26132Y24495D01*
X26136Y24490D01*
X26139Y24487D01*
X26141Y24485D01*
X26142Y24484D01*
X26146Y24481D01*
X26150Y24477D01*
X26160Y24467D01*
X26172Y24456D01*
X26185Y24445D01*
X26197Y24436D01*
X26202Y24431D01*
X26206Y24427D01*
X26210Y24424D01*
X26213Y24422D01*
X26214Y24420D01*
X26215Y24419D01*
X26227Y24409D01*
X26239Y24399D01*
X26249Y24390D01*
X26259Y24382D01*
X26268Y24374D01*
X26275Y24366D01*
X26282Y24360D01*
X26288Y24354D01*
X26294Y24348D01*
X26299Y24343D01*
X26302Y24340D01*
X26306Y24336D01*
X26310Y24331D01*
X26311Y24330D01*
X26322Y24317D01*
X26330Y24306D01*
X26338Y24295D01*
X26344Y24286D01*
X26348Y24278D01*
X26351Y24272D01*
X26353Y24269D01*
X26353Y24267D01*
X26358Y24256D01*
X26361Y24245D01*
X26364Y24235D01*
X26365Y24226D01*
X26366Y24218D01*
X26367Y24212D01*
Y24208D01*
Y24207D01*
X26366Y24195D01*
X26364Y24185D01*
X26363Y24175D01*
X26360Y24166D01*
X26353Y24148D01*
X26345Y24134D01*
X26341Y24127D01*
X26337Y24122D01*
X26333Y24117D01*
X26330Y24113D01*
X26327Y24110D01*
X26325Y24108D01*
X26324Y24107D01*
X26323Y24106D01*
X26315Y24099D01*
X26306Y24092D01*
X26296Y24087D01*
X26287Y24082D01*
X26268Y24075D01*
X26248Y24070D01*
X26240Y24068D01*
X26232Y24067D01*
X26225Y24066D01*
X26219Y24065D01*
X26214Y24065D01*
X26206D01*
X26193Y24065D01*
X26180Y24066D01*
X26169Y24068D01*
X26157Y24071D01*
X26147Y24074D01*
X26138Y24076D01*
X26129Y24080D01*
X26121Y24084D01*
X26113Y24088D01*
X26107Y24091D01*
X26102Y24094D01*
X26098Y24097D01*
X26094Y24099D01*
X26092Y24102D01*
X26090Y24102D01*
X26089Y24103D01*
X26082Y24110D01*
X26075Y24119D01*
X26069Y24127D01*
X26064Y24136D01*
X26055Y24154D01*
X26049Y24172D01*
X26047Y24180D01*
X26044Y24188D01*
X26043Y24195D01*
X26041Y24201D01*
X26041Y24206D01*
Y24210D01*
X26040Y24212D01*
Y24212D01*
X26104Y24219D01*
X26106Y24202D01*
X26109Y24187D01*
X26113Y24174D01*
X26118Y24164D01*
X26123Y24155D01*
X26127Y24149D01*
X26130Y24145D01*
X26132Y24144D01*
X26143Y24135D01*
X26155Y24128D01*
X26167Y24123D01*
X26178Y24120D01*
X26189Y24118D01*
X26197Y24117D01*
X26200Y24116D01*
X26205D01*
X26220Y24117D01*
X26234Y24120D01*
X26246Y24125D01*
X26257Y24129D01*
X26265Y24134D01*
X26270Y24138D01*
X26274Y24141D01*
X26275Y24142D01*
X26284Y24153D01*
X26291Y24163D01*
X26296Y24173D01*
X26299Y24184D01*
X26301Y24192D01*
X26302Y24199D01*
X26302Y24204D01*
Y24204D01*
Y24205D01*
X26301Y24218D01*
X26298Y24232D01*
X26293Y24245D01*
X26288Y24257D01*
X26282Y24266D01*
X26276Y24275D01*
X26275Y24278D01*
X26274Y24280D01*
X26272Y24280D01*
Y24281D01*
X26266Y24289D01*
X26259Y24297D01*
X26251Y24306D01*
X26242Y24315D01*
X26223Y24333D01*
X26205Y24351D01*
X26195Y24359D01*
X26187Y24366D01*
X26179Y24373D01*
X26172Y24379D01*
X26167Y24383D01*
X26163Y24387D01*
X26160Y24389D01*
X26159Y24390D01*
X26140Y24405D01*
X26123Y24420D01*
X26109Y24433D01*
X26098Y24445D01*
X26089Y24454D01*
X26082Y24461D01*
X26078Y24465D01*
X26077Y24466D01*
Y24467D01*
X26067Y24479D01*
X26058Y24491D01*
X26051Y24503D01*
X26045Y24513D01*
X26041Y24522D01*
X26038Y24529D01*
X26036Y24533D01*
X26036Y24534D01*
Y24535D01*
X26033Y24543D01*
X26031Y24550D01*
X26030Y24558D01*
X26029Y24564D01*
X26028Y24570D01*
Y24575D01*
Y24578D01*
Y24578D01*
X26367D01*
Y24518D01*
D02*
G37*
%LPC*%
G36*
X9592Y28387D02*
X9591D01*
X9590D01*
X9579Y28386D01*
X9568Y28383D01*
X9559Y28380D01*
X9551Y28375D01*
X9544Y28372D01*
X9539Y28368D01*
X9536Y28365D01*
X9535Y28364D01*
X9527Y28355D01*
X9521Y28345D01*
X9517Y28335D01*
X9514Y28325D01*
X9513Y28316D01*
X9511Y28310D01*
Y28304D01*
X9512Y28291D01*
X9515Y28279D01*
X9519Y28270D01*
X9523Y28261D01*
X9528Y28254D01*
X9531Y28249D01*
X9534Y28245D01*
X9535Y28244D01*
X9545Y28236D01*
X9554Y28230D01*
X9564Y28226D01*
X9573Y28223D01*
X9581Y28222D01*
X9588Y28220D01*
X9592D01*
X9593D01*
X9593D01*
X9605Y28221D01*
X9616Y28224D01*
X9626Y28227D01*
X9634Y28232D01*
X9641Y28236D01*
X9645Y28240D01*
X9649Y28243D01*
X9650Y28244D01*
X9657Y28253D01*
X9663Y28263D01*
X9667Y28273D01*
X9670Y28282D01*
X9671Y28291D01*
X9672Y28298D01*
X9673Y28302D01*
Y28304D01*
X9672Y28317D01*
X9669Y28329D01*
X9665Y28339D01*
X9661Y28348D01*
X9657Y28355D01*
X9653Y28360D01*
X9650Y28363D01*
X9650Y28364D01*
X9641Y28372D01*
X9630Y28378D01*
X9621Y28381D01*
X9611Y28384D01*
X9603Y28386D01*
X9596Y28386D01*
X9592Y28387D01*
D02*
G37*
G36*
X9831Y28408D02*
X9828D01*
X9826D01*
X9811Y28406D01*
X9797Y28403D01*
X9784Y28399D01*
X9773Y28393D01*
X9765Y28388D01*
X9758Y28383D01*
X9755Y28380D01*
X9753Y28379D01*
X9743Y28368D01*
X9736Y28355D01*
X9731Y28344D01*
X9727Y28332D01*
X9725Y28321D01*
X9724Y28313D01*
X9724Y28310D01*
Y28306D01*
X9725Y28290D01*
X9728Y28275D01*
X9733Y28261D01*
X9738Y28250D01*
X9744Y28242D01*
X9749Y28235D01*
X9752Y28231D01*
X9754Y28230D01*
X9766Y28219D01*
X9778Y28212D01*
X9791Y28207D01*
X9802Y28203D01*
X9813Y28201D01*
X9821Y28200D01*
X9824Y28199D01*
X9826D01*
X9828D01*
X9828D01*
X9844Y28201D01*
X9859Y28204D01*
X9871Y28209D01*
X9882Y28214D01*
X9890Y28219D01*
X9896Y28225D01*
X9900Y28227D01*
X9902Y28229D01*
X9911Y28241D01*
X9919Y28253D01*
X9923Y28265D01*
X9927Y28277D01*
X9929Y28287D01*
X9930Y28296D01*
X9930Y28299D01*
Y28304D01*
X9930Y28314D01*
X9928Y28324D01*
X9926Y28334D01*
X9924Y28342D01*
X9922Y28349D01*
X9919Y28354D01*
X9918Y28357D01*
X9917Y28358D01*
X9911Y28367D01*
X9905Y28375D01*
X9899Y28381D01*
X9892Y28386D01*
X9887Y28391D01*
X9882Y28394D01*
X9879Y28395D01*
X9878Y28396D01*
X9868Y28400D01*
X9860Y28403D01*
X9851Y28405D01*
X9843Y28406D01*
X9836Y28407D01*
X9831Y28408D01*
D02*
G37*
G36*
X68882Y20740D02*
X68878D01*
X68870Y20739D01*
X68861Y20739D01*
X68854Y20736D01*
X68847Y20733D01*
X68835Y20727D01*
X68824Y20719D01*
X68816Y20711D01*
X68809Y20705D01*
X68807Y20702D01*
X68805Y20699D01*
X68804Y20699D01*
Y20698D01*
X68799Y20689D01*
X68794Y20679D01*
X68790Y20667D01*
X68787Y20654D01*
X68784Y20641D01*
X68782Y20627D01*
X68778Y20599D01*
X68776Y20585D01*
X68776Y20572D01*
X68775Y20560D01*
Y20551D01*
X68774Y20542D01*
Y20535D01*
Y20532D01*
Y20531D01*
Y20530D01*
Y20507D01*
X68776Y20486D01*
X68777Y20468D01*
X68779Y20450D01*
X68781Y20435D01*
X68784Y20421D01*
X68787Y20410D01*
X68789Y20399D01*
X68792Y20390D01*
X68795Y20382D01*
X68797Y20376D01*
X68800Y20370D01*
X68802Y20367D01*
X68803Y20365D01*
X68804Y20363D01*
Y20362D01*
X68810Y20355D01*
X68816Y20349D01*
X68822Y20343D01*
X68828Y20339D01*
X68841Y20331D01*
X68852Y20326D01*
X68862Y20323D01*
X68870Y20322D01*
X68872Y20321D01*
X68877D01*
X68885Y20322D01*
X68892Y20322D01*
X68906Y20328D01*
X68919Y20334D01*
X68930Y20342D01*
X68938Y20349D01*
X68945Y20356D01*
X68949Y20361D01*
X68950Y20362D01*
Y20362D01*
X68955Y20371D01*
X68960Y20382D01*
X68964Y20393D01*
X68967Y20406D01*
X68970Y20419D01*
X68972Y20433D01*
X68976Y20462D01*
X68977Y20475D01*
X68978Y20488D01*
X68979Y20500D01*
Y20509D01*
X68980Y20518D01*
Y20525D01*
Y20529D01*
Y20530D01*
X68979Y20553D01*
X68978Y20574D01*
X68977Y20593D01*
X68974Y20611D01*
X68972Y20626D01*
X68969Y20640D01*
X68966Y20653D01*
X68963Y20664D01*
X68960Y20674D01*
X68958Y20682D01*
X68955Y20688D01*
X68953Y20694D01*
X68951Y20698D01*
X68949Y20701D01*
X68948Y20702D01*
Y20703D01*
X68943Y20710D01*
X68938Y20716D01*
X68932Y20720D01*
X68926Y20725D01*
X68914Y20731D01*
X68903Y20736D01*
X68893Y20738D01*
X68885Y20739D01*
X68882Y20740D01*
D02*
G37*
%LPD*%
D85*
X65903Y11623D02*
Y14723D01*
Y11623D02*
X69103D01*
Y14723D01*
X65903D02*
X69103D01*
X70444Y2256D02*
Y8962D01*
X65344D02*
X70444D01*
X65344Y2256D02*
Y8962D01*
Y2256D02*
X70444D01*
X62213Y3065D02*
Y7371D01*
Y3065D02*
X64769D01*
Y7371D01*
X62213D02*
X64769D01*
X8704Y26828D02*
Y31135D01*
Y26828D02*
X11260D01*
Y31135D01*
X8704D02*
X11260D01*
X72105Y18991D02*
Y21547D01*
X67799Y18991D02*
X72105D01*
X67799D02*
Y21547D01*
X72105D01*
X37431Y11207D02*
X39988D01*
X37431D02*
Y15514D01*
X39988D01*
Y11207D02*
Y15514D01*
X23374Y23309D02*
Y25865D01*
X27680D01*
Y23309D02*
Y25865D01*
X23374Y23309D02*
X27680D01*
D120*
X42256Y8167D02*
G03*
X42256Y9367I0J600D01*
G01*
X11371Y14765D02*
X19896D01*
X11371Y18865D02*
X19896D01*
X11371Y14765D02*
Y18865D01*
X19896Y14765D02*
Y18865D01*
X18030Y701D02*
Y4801D01*
X26555Y701D02*
Y4801D01*
X18030Y701D02*
X26555D01*
X18030Y4801D02*
X26555D01*
X44907Y3267D02*
Y4791D01*
X47955Y3267D02*
Y4791D01*
X44907Y3267D02*
X47955D01*
X44907Y4791D02*
X47955D01*
X79191Y34759D02*
X81541D01*
X79191Y39459D02*
X81541D01*
Y34759D02*
Y39459D01*
X79191Y34759D02*
Y39459D01*
X77066Y43603D02*
X83666D01*
X77066Y52003D02*
X83666D01*
Y43603D02*
Y52003D01*
X77066Y43603D02*
Y52003D01*
X50798Y22835D02*
Y24359D01*
X47750Y22835D02*
Y24359D01*
X50798D01*
X47750Y22835D02*
X50798D01*
X42256Y9367D02*
Y12417D01*
X47356Y5117D02*
Y12417D01*
X42256Y5117D02*
Y8167D01*
Y5117D02*
X47356D01*
X42256Y12417D02*
X47356D01*
X69923Y11725D02*
Y13249D01*
X72970Y11725D02*
Y13249D01*
X69923Y11725D02*
X72970D01*
X69923Y13249D02*
X72970D01*
X83681Y7740D02*
Y10090D01*
X78981Y7740D02*
Y10090D01*
X83681D01*
X78981Y7740D02*
X83681D01*
X63576Y18724D02*
X65100D01*
X63576Y15676D02*
X65100D01*
X63576D02*
Y18724D01*
X65100Y15676D02*
Y18724D01*
X73379Y25043D02*
Y28043D01*
X66729Y25043D02*
Y28043D01*
X73379D01*
X66729Y25043D02*
X73379D01*
X48159Y12882D02*
Y15930D01*
X46635Y12882D02*
Y15930D01*
Y12882D02*
X48159D01*
X46635Y15930D02*
X48159D01*
X41656Y14453D02*
Y15977D01*
X44704Y14453D02*
Y15977D01*
X41656Y14453D02*
X44704D01*
X41656Y15977D02*
X44704D01*
Y12882D02*
Y14406D01*
X41656Y12882D02*
Y14406D01*
X44704D01*
X41656Y12882D02*
X44704D01*
X38964Y8179D02*
X40488D01*
X38964Y5131D02*
X40488D01*
X38964D02*
Y8179D01*
X40488Y5131D02*
Y8179D01*
X40538Y8183D02*
X42062D01*
X40538Y5135D02*
X42062D01*
X40538D02*
Y8183D01*
X42062Y5135D02*
Y8183D01*
X8406Y38038D02*
X11406D01*
X8406Y31388D02*
X11406D01*
X8406D02*
Y38038D01*
X11406Y31388D02*
Y38038D01*
X9242Y4801D02*
X17767D01*
X9242Y701D02*
X17767D01*
Y4801D01*
X9242Y701D02*
Y4801D01*
X26869Y4854D02*
X35394D01*
X26869Y754D02*
X35394D01*
Y4854D01*
X26869Y754D02*
Y4854D01*
X12446Y46380D02*
Y50952D01*
X10414Y46380D02*
Y50952D01*
Y46380D02*
X12446D01*
X10414Y50952D02*
X12446D01*
X76276Y2036D02*
X79324D01*
X76276Y512D02*
X79324D01*
Y2036D01*
X76276Y512D02*
Y2036D01*
X87312Y10719D02*
Y13767D01*
X88836Y10719D02*
Y13767D01*
X87312D02*
X88836D01*
X87312Y10719D02*
X88836D01*
X71780Y3711D02*
Y6759D01*
X73304Y3711D02*
Y6759D01*
X71780D02*
X73304D01*
X71780Y3711D02*
X73304D01*
X69923Y14935D02*
X72970D01*
X69923Y13411D02*
X72970D01*
Y14935D01*
X69923Y13411D02*
Y14935D01*
X82499Y20218D02*
X85547D01*
X82499Y18694D02*
X85547D01*
Y20218D01*
X82499Y18694D02*
Y20218D01*
X37744Y32976D02*
X40792D01*
X37744Y34500D02*
X40792D01*
X37744Y32976D02*
Y34500D01*
X40792Y32976D02*
Y34500D01*
X44907Y12882D02*
Y15930D01*
X46431Y12882D02*
Y15930D01*
X44907D02*
X46431D01*
X44907Y12882D02*
X46431D01*
X40339Y4831D02*
X43387D01*
X40339Y3307D02*
X43387D01*
Y4831D01*
X40339Y3307D02*
Y4831D01*
X49512Y24638D02*
Y27686D01*
X51036Y24638D02*
Y27686D01*
X49512D02*
X51036D01*
X49512Y24638D02*
X51036D01*
X24155Y26086D02*
X27203D01*
X24155Y27610D02*
X27203D01*
X24155Y26086D02*
Y27610D01*
X27203Y26086D02*
Y27610D01*
X13943Y38585D02*
Y45235D01*
X16943Y38585D02*
Y45235D01*
X13943D02*
X16943D01*
X13943Y38585D02*
X16943D01*
X22278Y41353D02*
X28928D01*
X22278Y38353D02*
X28928D01*
Y41353D01*
X22278Y38353D02*
Y41353D01*
X39137Y29756D02*
X45787D01*
X39137Y26756D02*
X45787D01*
Y29756D01*
X39137Y26756D02*
Y29756D01*
X15621Y16815D02*
Y17515D01*
X15271D01*
X15154Y17398D01*
Y17165D01*
X15271Y17048D01*
X15621D01*
X15388D02*
X15154Y16815D01*
X14921D02*
X14688D01*
X14805D01*
Y17515D01*
X14921Y17398D01*
X14338Y17515D02*
X13872D01*
Y17398D01*
X14338Y16931D01*
Y16815D01*
X22305Y2751D02*
Y2052D01*
X22655D01*
X22772Y2168D01*
Y2402D01*
X22655Y2518D01*
X22305D01*
X22538D02*
X22772Y2751D01*
X23005D02*
X23238D01*
X23122D01*
Y2052D01*
X23005Y2168D01*
X23588Y2751D02*
X23821D01*
X23705D01*
Y2052D01*
X23588Y2168D01*
X45456Y4379D02*
Y3679D01*
X45806D01*
X45923Y3796D01*
Y4029D01*
X45806Y4146D01*
X45456D01*
X45689D02*
X45923Y4379D01*
X46156D02*
X46389D01*
X46273D01*
Y3679D01*
X46156Y3796D01*
X47206Y3679D02*
X46739D01*
Y4029D01*
X46972Y3913D01*
X47089D01*
X47206Y4029D01*
Y4263D01*
X47089Y4379D01*
X46856D01*
X46739Y4263D01*
X80624Y36651D02*
X80740Y36534D01*
Y36301D01*
X80624Y36184D01*
X80157D01*
X80041Y36301D01*
Y36534D01*
X80157Y36651D01*
X80041Y37234D02*
X80740D01*
X80390Y36884D01*
Y37351D01*
X80366Y47803D02*
Y48503D01*
X80016D01*
X79899Y48386D01*
Y48153D01*
X80016Y48036D01*
X80366D01*
X80132D02*
X79899Y47803D01*
X79199Y48386D02*
X79316Y48503D01*
X79549D01*
X79666Y48386D01*
Y47919D01*
X79549Y47803D01*
X79316D01*
X79199Y47919D01*
Y48153D01*
X79433D01*
X78966Y47803D02*
X78733D01*
X78849D01*
Y48503D01*
X78966Y48386D01*
X50249Y23247D02*
Y23946D01*
X49899D01*
X49783Y23830D01*
Y23596D01*
X49899Y23480D01*
X50249D01*
X50016D02*
X49783Y23247D01*
X49200D02*
Y23946D01*
X49549Y23596D01*
X49083D01*
X44456Y9692D02*
X45156D01*
Y9343D01*
X45039Y9226D01*
X44572D01*
X44456Y9343D01*
Y9692D01*
X45156Y8993D02*
X44689D01*
X44456Y8759D01*
X44689Y8526D01*
X45156D01*
X44806D01*
Y8993D01*
X45156Y7826D02*
Y8293D01*
X44689Y7826D01*
X44572D01*
X44456Y7943D01*
Y8176D01*
X44572Y8293D01*
X70938Y12254D02*
X70821Y12137D01*
X70588D01*
X70471Y12254D01*
Y12720D01*
X70588Y12837D01*
X70821D01*
X70938Y12720D01*
X71171Y12837D02*
X71405D01*
X71288D01*
Y12137D01*
X71171Y12254D01*
X71754Y12137D02*
X72221D01*
Y12254D01*
X71754Y12720D01*
Y12837D01*
X81789Y9174D02*
X81906Y9290D01*
X82139D01*
X82256Y9174D01*
Y8707D01*
X82139Y8590D01*
X81906D01*
X81789Y8707D01*
X81090Y8590D02*
X81556D01*
X81090Y9057D01*
Y9174D01*
X81206Y9290D01*
X81439D01*
X81556Y9174D01*
X80856D02*
X80740Y9290D01*
X80506D01*
X80390Y9174D01*
Y8707D01*
X80506Y8590D01*
X80740D01*
X80856Y8707D01*
Y9174D01*
X64688Y18175D02*
X63988D01*
Y17825D01*
X64105Y17709D01*
X64338D01*
X64455Y17825D01*
Y18175D01*
Y17942D02*
X64688Y17709D01*
Y17009D02*
Y17475D01*
X64222Y17009D01*
X64105D01*
X63988Y17126D01*
Y17359D01*
X64105Y17475D01*
X64688Y16426D02*
X63988D01*
X64338Y16776D01*
Y16309D01*
X70256Y27116D02*
Y26649D01*
X70023Y26416D01*
X69790Y26649D01*
Y27116D01*
X69557D02*
Y26416D01*
X69207D01*
X69090Y26533D01*
Y26999D01*
X69207Y27116D01*
X69557D01*
X68857Y26999D02*
X68740Y27116D01*
X68507D01*
X68390Y26999D01*
Y26883D01*
X68507Y26766D01*
X68390Y26649D01*
Y26533D01*
X68507Y26416D01*
X68740D01*
X68857Y26533D01*
Y26649D01*
X68740Y26766D01*
X68857Y26883D01*
Y26999D01*
X68740Y26766D02*
X68507D01*
X47163Y14915D02*
X47047Y15031D01*
Y15265D01*
X47163Y15381D01*
X47630D01*
X47747Y15265D01*
Y15031D01*
X47630Y14915D01*
X47047Y14681D02*
Y14215D01*
X47163D01*
X47630Y14681D01*
X47747D01*
X42205Y15565D02*
Y14865D01*
X42555D01*
X42672Y14981D01*
Y15215D01*
X42555Y15331D01*
X42205D01*
X42438D02*
X42672Y15565D01*
X43371Y14865D02*
X43138Y14981D01*
X42905Y15215D01*
Y15448D01*
X43021Y15565D01*
X43255D01*
X43371Y15448D01*
Y15331D01*
X43255Y15215D01*
X42905D01*
X43688Y13877D02*
X43805Y13994D01*
X44038D01*
X44155Y13877D01*
Y13411D01*
X44038Y13294D01*
X43805D01*
X43688Y13411D01*
X43455Y13294D02*
X43222D01*
X43339D01*
Y13994D01*
X43455Y13877D01*
X42406Y13994D02*
X42872D01*
Y13644D01*
X42639Y13761D01*
X42522D01*
X42406Y13644D01*
Y13411D01*
X42522Y13294D01*
X42755D01*
X42872Y13411D01*
X39492Y7163D02*
X39376Y7280D01*
Y7513D01*
X39492Y7630D01*
X39959D01*
X40076Y7513D01*
Y7280D01*
X39959Y7163D01*
X40076Y6930D02*
Y6697D01*
Y6813D01*
X39376D01*
X39492Y6930D01*
X39376Y5880D02*
X39492Y6114D01*
X39726Y6347D01*
X39959D01*
X40076Y6230D01*
Y5997D01*
X39959Y5880D01*
X39842D01*
X39726Y5997D01*
Y6347D01*
X41067Y7168D02*
X40950Y7284D01*
Y7518D01*
X41067Y7634D01*
X41534D01*
X41650Y7518D01*
Y7284D01*
X41534Y7168D01*
X41650Y6934D02*
Y6701D01*
Y6818D01*
X40950D01*
X41067Y6934D01*
X41650Y6001D02*
X40950D01*
X41300Y6351D01*
Y5885D01*
X9556Y35688D02*
X10023D01*
X10256Y35455D01*
X10023Y35221D01*
X9556D01*
Y34988D02*
X10256D01*
Y34638D01*
X10139Y34522D01*
X9673D01*
X9556Y34638D01*
Y34988D01*
Y33822D02*
Y34288D01*
X9906D01*
X9789Y34055D01*
Y33938D01*
X9906Y33822D01*
X10139D01*
X10256Y33938D01*
Y34172D01*
X10139Y34288D01*
X13517Y2751D02*
Y2052D01*
X13867D01*
X13983Y2168D01*
Y2402D01*
X13867Y2518D01*
X13517D01*
X13750D02*
X13983Y2751D01*
X14217D02*
X14450D01*
X14333D01*
Y2052D01*
X14217Y2168D01*
X15266Y2751D02*
X14800D01*
X15266Y2285D01*
Y2168D01*
X15150Y2052D01*
X14916D01*
X14800Y2168D01*
X31144Y2804D02*
Y2104D01*
X31494D01*
X31611Y2221D01*
Y2454D01*
X31494Y2571D01*
X31144D01*
X31378D02*
X31611Y2804D01*
X31844Y2221D02*
X31961Y2104D01*
X32194D01*
X32311Y2221D01*
Y2338D01*
X32194Y2454D01*
X32311Y2571D01*
Y2688D01*
X32194Y2804D01*
X31961D01*
X31844Y2688D01*
Y2571D01*
X31961Y2454D01*
X31844Y2338D01*
Y2221D01*
X31961Y2454D02*
X32194D01*
X11780Y49641D02*
X11080D01*
Y49292D01*
X11197Y49175D01*
X11430D01*
X11547Y49292D01*
Y49641D01*
Y49408D02*
X11780Y49175D01*
Y48475D02*
Y48942D01*
X11313Y48475D01*
X11197D01*
X11080Y48592D01*
Y48825D01*
X11197Y48942D01*
X76825Y1624D02*
Y925D01*
X77175D01*
X77292Y1041D01*
Y1275D01*
X77175Y1391D01*
X76825D01*
X77058D02*
X77292Y1624D01*
X77991D02*
X77525D01*
X77991Y1158D01*
Y1041D01*
X77875Y925D01*
X77642D01*
X77525Y1041D01*
X78225D02*
X78341Y925D01*
X78575D01*
X78691Y1041D01*
Y1158D01*
X78575Y1275D01*
X78458D01*
X78575D01*
X78691Y1391D01*
Y1508D01*
X78575Y1624D01*
X78341D01*
X78225Y1508D01*
X87724Y11268D02*
X88424D01*
Y11618D01*
X88307Y11734D01*
X88074D01*
X87957Y11618D01*
Y11268D01*
Y11501D02*
X87724Y11734D01*
Y12434D02*
Y11968D01*
X88190Y12434D01*
X88307D01*
X88424Y12317D01*
Y12084D01*
X88307Y11968D01*
X87724Y13134D02*
Y12667D01*
X88190Y13134D01*
X88307D01*
X88424Y13017D01*
Y12784D01*
X88307Y12667D01*
X72192Y4260D02*
X72892D01*
Y4610D01*
X72776Y4726D01*
X72542D01*
X72426Y4610D01*
Y4260D01*
Y4493D02*
X72192Y4726D01*
Y5426D02*
Y4960D01*
X72659Y5426D01*
X72776D01*
X72892Y5310D01*
Y5076D01*
X72776Y4960D01*
X72192Y5659D02*
Y5893D01*
Y5776D01*
X72892D01*
X72776Y5659D01*
X70471Y14523D02*
Y13823D01*
X70821D01*
X70938Y13940D01*
Y14173D01*
X70821Y14290D01*
X70471D01*
X70705D02*
X70938Y14523D01*
X71171D02*
X71405D01*
X71288D01*
Y13823D01*
X71171Y13940D01*
X71754Y14407D02*
X71871Y14523D01*
X72104D01*
X72221Y14407D01*
Y13940D01*
X72104Y13823D01*
X71871D01*
X71754Y13940D01*
Y14057D01*
X71871Y14173D01*
X72221D01*
X83048Y19806D02*
Y19107D01*
X83398D01*
X83515Y19223D01*
Y19457D01*
X83398Y19573D01*
X83048D01*
X83281D02*
X83515Y19806D01*
X83748D02*
X83981D01*
X83865D01*
Y19107D01*
X83748Y19223D01*
X84331D02*
X84448Y19107D01*
X84681D01*
X84798Y19223D01*
Y19340D01*
X84681Y19457D01*
X84798Y19573D01*
Y19690D01*
X84681Y19806D01*
X84448D01*
X84331Y19690D01*
Y19573D01*
X84448Y19457D01*
X84331Y19340D01*
Y19223D01*
X84448Y19457D02*
X84681D01*
X40243Y33388D02*
Y34087D01*
X39894D01*
X39777Y33971D01*
Y33737D01*
X39894Y33621D01*
X40243D01*
X40010D02*
X39777Y33388D01*
X39544Y33504D02*
X39427Y33388D01*
X39194D01*
X39077Y33504D01*
Y33971D01*
X39194Y34087D01*
X39427D01*
X39544Y33971D01*
Y33854D01*
X39427Y33737D01*
X39077D01*
X45319Y13431D02*
X46019D01*
Y13781D01*
X45902Y13898D01*
X45669D01*
X45552Y13781D01*
Y13431D01*
Y13664D02*
X45319Y13898D01*
X46019Y14131D02*
Y14597D01*
X45902D01*
X45436Y14131D01*
X45319D01*
X40888Y4419D02*
Y3719D01*
X41238D01*
X41355Y3835D01*
Y4069D01*
X41238Y4185D01*
X40888D01*
X41122D02*
X41355Y4419D01*
X42055Y3719D02*
X41588D01*
Y4069D01*
X41821Y3952D01*
X41938D01*
X42055Y4069D01*
Y4302D01*
X41938Y4419D01*
X41705D01*
X41588Y4302D01*
X49924Y25187D02*
X50624D01*
Y25537D01*
X50507Y25654D01*
X50274D01*
X50157Y25537D01*
Y25187D01*
Y25420D02*
X49924Y25654D01*
X50507Y25887D02*
X50624Y26003D01*
Y26237D01*
X50507Y26353D01*
X50391D01*
X50274Y26237D01*
Y26120D01*
Y26237D01*
X50157Y26353D01*
X50041D01*
X49924Y26237D01*
Y26003D01*
X50041Y25887D01*
X26654Y26498D02*
Y27198D01*
X26305D01*
X26188Y27081D01*
Y26848D01*
X26305Y26731D01*
X26654D01*
X26421D02*
X26188Y26498D01*
X25955D02*
X25721D01*
X25838D01*
Y27198D01*
X25955Y27081D01*
X15793Y40935D02*
X15326D01*
X15093Y41168D01*
X15326Y41401D01*
X15793D01*
Y41634D02*
X15093D01*
Y41984D01*
X15210Y42101D01*
X15676D01*
X15793Y41984D01*
Y41634D01*
Y42334D02*
Y42801D01*
X15676D01*
X15210Y42334D01*
X15093D01*
X41487Y27906D02*
Y28372D01*
X41720Y28606D01*
X41953Y28372D01*
Y27906D01*
X42187D02*
Y28606D01*
X42537D01*
X42653Y28489D01*
Y28022D01*
X42537Y27906D01*
X42187D01*
X42886Y28606D02*
X43120D01*
X43003D01*
Y27906D01*
X42886Y28022D01*
D161*
X72254Y26543D02*
D03*
X23402Y39853D02*
D03*
X40261Y28256D02*
D03*
D162*
X9906Y36913D02*
D03*
X15443Y39710D02*
D03*
%TF.MD5,b0466b90484c87313ec7fec5e33554e6*%
M02*
