M48
;Layer_Color=9474304
;FILE_FORMAT=4:3
METRIC,LZ
;TYPE=PLATED
T1F00S00C0.300
T2F00S00C0.500
T3F00S00C0.700
T4F00S00C0.750
T5F00S00C0.762
T6F00S00C1.000
T7F00S00C1.016
T8F00S00C1.143
T9F00S00C1.300
T10F00S00C1.397
T11F00S00C1.400
T12F00S00C1.500
T13F00S00C2.540
;TYPE=NON_PLATED
T14F00S00C0.762
%
T01
X0002184Y0016332
X0020486Y0031115
X0037109Y0026756
X0044168Y0016459
X0042926Y0008052
X0040538Y0007657
X0046736Y0009986
X0051257Y0023409
X0064364Y0014935
X0069452Y0014173
X0068529Y0004623
X0070838Y0003074
X0075743Y000124
X0079736Y0001274
X0086104Y0019474
X0020486Y0039853
T02
X0009881Y0031043
X0047803Y0039014
T03
X0060286Y0003119
Y0005659
Y0008199
T04
X0088036Y0008769
Y0015869
T05
X0008382Y0004695
X0011693Y0019694
X0019193Y0019669
X0032741Y0013792
X0042062Y0017404
X0043025Y0001602
X0048946Y0011049
X0052603Y0016789
X0049454Y0021311
X0047158Y0028198
X0053061Y0028423
X0060561Y0028398
X0061747Y0018236
X0061722Y0012294
X0064237Y0001614
X0078613Y0005159
X0050241Y0053111
X004358Y0053238
X0042674Y0036624
X0003293Y0041097
X0003226Y0044475
T06
X0003417Y0010947
X0007417
X0013868Y0010744
X0017868
X0024194Y0010693
X0028194
X0029486Y0022384
X0024486
X00675Y0024
X00725
X0067894Y0028753
X00675Y00105
X00725
X0076937Y0016555
X0029486Y0035738
X0024486
T07
X0008687Y0044475
Y0047015
Y0049555
T08
X0043557Y0046152
Y0048692
Y0051232
T09
X00055Y0020171
Y0025171
X00055Y0030175
X0085234Y0029515
Y0024515
X0085234Y0034497
Y0039497
X00055Y0035175
T10
X0015037Y0047015
T11
X0013335Y0024963
X0017678Y0024886
X004257Y0021788
Y0033788
X0017678Y0036886
X0013335Y0036963
T12
X0037059Y0017811
X0037109Y0037786
T13
X0023364Y0048692
T14
X0061722Y0015265
X0074371Y0039065
M30
