%TF.GenerationSoftware,Altium Limited,Altium Designer,21.6.4 (81)*%
G04 Layer_Color=8388736*
%FSLAX43Y43*%
%MOMM*%
%TF.SameCoordinates,3FCC9EDD-E33D-4AE7-AC82-89E58AA9E509*%
%TF.FilePolarity,Positive*%
%TF.FileFunction,Other,Bottom_Assembly*%
%TF.Part,Single*%
G01*
G75*
%TA.AperFunction,NonConductor*%
%ADD85C,0.200*%
G36*
X60952Y5993D02*
X60958Y5992D01*
X60965Y5991D01*
X60973Y5990D01*
X60981Y5988D01*
X61001Y5983D01*
X61020Y5976D01*
X61029Y5971D01*
X61039Y5966D01*
X61048Y5960D01*
X61056Y5952D01*
X61057Y5951D01*
X61058Y5951D01*
X61060Y5948D01*
X61063Y5945D01*
X61066Y5941D01*
X61070Y5936D01*
X61074Y5931D01*
X61078Y5924D01*
X61086Y5910D01*
X61093Y5892D01*
X61096Y5883D01*
X61097Y5873D01*
X61099Y5863D01*
X61100Y5852D01*
Y5850D01*
Y5846D01*
X61099Y5841D01*
X61098Y5832D01*
X61097Y5824D01*
X61094Y5813D01*
X61091Y5802D01*
X61086Y5791D01*
X61086Y5790D01*
X61084Y5786D01*
X61081Y5780D01*
X61077Y5772D01*
X61071Y5763D01*
X61063Y5752D01*
X61055Y5741D01*
X61044Y5728D01*
X61043Y5727D01*
X61039Y5722D01*
X61035Y5719D01*
X61032Y5715D01*
X61027Y5710D01*
X61021Y5705D01*
X61015Y5699D01*
X61008Y5692D01*
X61001Y5685D01*
X60992Y5676D01*
X60982Y5668D01*
X60972Y5659D01*
X60960Y5649D01*
X60948Y5639D01*
X60947Y5638D01*
X60946Y5637D01*
X60943Y5634D01*
X60939Y5631D01*
X60935Y5627D01*
X60930Y5622D01*
X60918Y5613D01*
X60905Y5602D01*
X60893Y5591D01*
X60883Y5581D01*
X60879Y5577D01*
X60875Y5574D01*
X60874Y5573D01*
X60872Y5571D01*
X60869Y5568D01*
X60865Y5563D01*
X60862Y5558D01*
X60857Y5553D01*
X60848Y5540D01*
X61100D01*
Y5480D01*
X60761D01*
Y5481D01*
Y5484D01*
Y5488D01*
X60762Y5494D01*
X60763Y5501D01*
X60764Y5508D01*
X60766Y5515D01*
X60769Y5523D01*
Y5524D01*
X60769Y5525D01*
X60771Y5529D01*
X60774Y5536D01*
X60778Y5545D01*
X60784Y5555D01*
X60791Y5567D01*
X60800Y5579D01*
X60810Y5591D01*
Y5592D01*
X60811Y5593D01*
X60815Y5597D01*
X60822Y5604D01*
X60831Y5614D01*
X60842Y5625D01*
X60856Y5638D01*
X60873Y5653D01*
X60892Y5668D01*
X60893Y5669D01*
X60896Y5671D01*
X60900Y5675D01*
X60905Y5679D01*
X60912Y5685D01*
X60920Y5692D01*
X60928Y5699D01*
X60938Y5707D01*
X60956Y5725D01*
X60975Y5743D01*
X60984Y5752D01*
X60992Y5761D01*
X60999Y5769D01*
X61005Y5777D01*
Y5778D01*
X61007Y5778D01*
X61008Y5781D01*
X61009Y5784D01*
X61015Y5792D01*
X61021Y5801D01*
X61026Y5813D01*
X61031Y5826D01*
X61034Y5840D01*
X61035Y5853D01*
Y5854D01*
Y5855D01*
X61035Y5859D01*
X61034Y5866D01*
X61032Y5875D01*
X61029Y5885D01*
X61024Y5895D01*
X61017Y5906D01*
X61008Y5916D01*
X61007Y5917D01*
X61003Y5920D01*
X60998Y5924D01*
X60990Y5929D01*
X60979Y5934D01*
X60967Y5938D01*
X60953Y5941D01*
X60938Y5942D01*
X60933D01*
X60930Y5941D01*
X60922Y5940D01*
X60911Y5938D01*
X60900Y5935D01*
X60888Y5930D01*
X60876Y5923D01*
X60865Y5914D01*
X60863Y5913D01*
X60860Y5909D01*
X60856Y5903D01*
X60851Y5894D01*
X60846Y5884D01*
X60842Y5871D01*
X60839Y5856D01*
X60837Y5839D01*
X60773Y5846D01*
Y5846D01*
X60774Y5849D01*
Y5852D01*
X60774Y5858D01*
X60776Y5863D01*
X60777Y5870D01*
X60780Y5878D01*
X60782Y5886D01*
X60788Y5904D01*
X60797Y5922D01*
X60802Y5931D01*
X60808Y5940D01*
X60815Y5948D01*
X60822Y5955D01*
X60823Y5956D01*
X60825Y5957D01*
X60827Y5959D01*
X60831Y5961D01*
X60835Y5964D01*
X60840Y5967D01*
X60846Y5971D01*
X60854Y5974D01*
X60862Y5978D01*
X60871Y5982D01*
X60880Y5985D01*
X60890Y5988D01*
X60902Y5990D01*
X60913Y5992D01*
X60926Y5993D01*
X60939Y5994D01*
X60947D01*
X60952Y5993D01*
D02*
G37*
G36*
X60524Y5991D02*
X60530D01*
X60546Y5990D01*
X60562Y5988D01*
X60580Y5985D01*
X60596Y5982D01*
X60604Y5979D01*
X60611Y5977D01*
X60612D01*
X60613Y5977D01*
X60617Y5974D01*
X60624Y5971D01*
X60632Y5966D01*
X60641Y5960D01*
X60650Y5951D01*
X60659Y5940D01*
X60668Y5928D01*
Y5928D01*
X60669Y5927D01*
X60672Y5923D01*
X60675Y5915D01*
X60679Y5906D01*
X60683Y5894D01*
X60686Y5881D01*
X60689Y5867D01*
X60689Y5852D01*
Y5851D01*
Y5849D01*
Y5846D01*
X60689Y5843D01*
Y5838D01*
X60688Y5832D01*
X60685Y5820D01*
X60681Y5805D01*
X60675Y5790D01*
X60666Y5774D01*
X60660Y5767D01*
X60654Y5759D01*
X60653Y5758D01*
X60652Y5758D01*
X60650Y5756D01*
X60647Y5753D01*
X60644Y5750D01*
X60639Y5747D01*
X60633Y5744D01*
X60627Y5739D01*
X60620Y5736D01*
X60612Y5732D01*
X60603Y5727D01*
X60593Y5724D01*
X60582Y5721D01*
X60571Y5717D01*
X60559Y5715D01*
X60545Y5713D01*
X60547Y5712D01*
X60550Y5710D01*
X60554Y5707D01*
X60560Y5705D01*
X60573Y5696D01*
X60580Y5691D01*
X60586Y5687D01*
X60587Y5685D01*
X60591Y5682D01*
X60597Y5676D01*
X60604Y5668D01*
X60613Y5658D01*
X60622Y5647D01*
X60632Y5634D01*
X60642Y5619D01*
X60730Y5480D01*
X60646D01*
X60579Y5586D01*
Y5587D01*
X60577Y5588D01*
X60576Y5591D01*
X60573Y5594D01*
X60568Y5602D01*
X60562Y5612D01*
X60553Y5623D01*
X60545Y5635D01*
X60537Y5646D01*
X60530Y5656D01*
X60529Y5657D01*
X60527Y5660D01*
X60523Y5665D01*
X60518Y5670D01*
X60507Y5681D01*
X60501Y5686D01*
X60495Y5690D01*
X60494Y5691D01*
X60493Y5692D01*
X60490Y5693D01*
X60485Y5696D01*
X60481Y5698D01*
X60476Y5700D01*
X60464Y5704D01*
X60463D01*
X60462Y5705D01*
X60459D01*
X60455Y5705D01*
X60450Y5706D01*
X60444D01*
X60436Y5707D01*
X60349D01*
Y5480D01*
X60281D01*
Y5991D01*
X60518D01*
X60524Y5991D01*
D02*
G37*
G36*
X61349Y5993D02*
X61359Y5991D01*
X61370Y5989D01*
X61382Y5986D01*
X61395Y5982D01*
X61406Y5977D01*
X61407D01*
X61408Y5976D01*
X61412Y5974D01*
X61417Y5970D01*
X61425Y5965D01*
X61433Y5957D01*
X61442Y5949D01*
X61450Y5940D01*
X61458Y5928D01*
X61459Y5927D01*
X61462Y5923D01*
X61465Y5917D01*
X61470Y5907D01*
X61474Y5896D01*
X61480Y5883D01*
X61485Y5869D01*
X61490Y5852D01*
Y5852D01*
X61491Y5850D01*
X61491Y5848D01*
X61492Y5844D01*
X61493Y5840D01*
X61494Y5835D01*
X61495Y5828D01*
X61496Y5821D01*
X61497Y5812D01*
X61498Y5804D01*
X61499Y5793D01*
X61500Y5783D01*
X61501Y5771D01*
Y5759D01*
X61502Y5746D01*
Y5732D01*
Y5731D01*
Y5728D01*
Y5723D01*
Y5717D01*
X61501Y5709D01*
Y5700D01*
X61500Y5690D01*
X61500Y5680D01*
X61497Y5656D01*
X61494Y5632D01*
X61489Y5608D01*
X61486Y5597D01*
X61483Y5586D01*
Y5586D01*
X61482Y5584D01*
X61480Y5581D01*
X61479Y5577D01*
X61477Y5572D01*
X61474Y5567D01*
X61468Y5554D01*
X61461Y5541D01*
X61451Y5526D01*
X61440Y5513D01*
X61427Y5501D01*
X61426D01*
X61426Y5499D01*
X61423Y5498D01*
X61420Y5496D01*
X61417Y5494D01*
X61413Y5491D01*
X61402Y5486D01*
X61389Y5481D01*
X61373Y5475D01*
X61355Y5472D01*
X61335Y5471D01*
X61327D01*
X61322Y5472D01*
X61316Y5472D01*
X61309Y5474D01*
X61301Y5475D01*
X61292Y5478D01*
X61283Y5481D01*
X61273Y5484D01*
X61264Y5488D01*
X61254Y5493D01*
X61245Y5499D01*
X61235Y5506D01*
X61226Y5515D01*
X61218Y5523D01*
X61217Y5524D01*
X61216Y5526D01*
X61213Y5530D01*
X61210Y5536D01*
X61206Y5543D01*
X61202Y5552D01*
X61197Y5562D01*
X61193Y5574D01*
X61188Y5587D01*
X61184Y5603D01*
X61179Y5620D01*
X61176Y5639D01*
X61172Y5659D01*
X61170Y5682D01*
X61168Y5706D01*
X61168Y5732D01*
Y5733D01*
Y5736D01*
Y5741D01*
Y5747D01*
X61168Y5755D01*
Y5764D01*
X61169Y5773D01*
X61170Y5784D01*
X61172Y5807D01*
X61176Y5832D01*
X61180Y5856D01*
X61183Y5867D01*
X61186Y5878D01*
Y5879D01*
X61187Y5880D01*
X61188Y5883D01*
X61190Y5887D01*
X61191Y5892D01*
X61194Y5897D01*
X61200Y5910D01*
X61208Y5923D01*
X61217Y5937D01*
X61228Y5951D01*
X61242Y5963D01*
X61242D01*
X61243Y5965D01*
X61245Y5966D01*
X61248Y5968D01*
X61252Y5971D01*
X61256Y5973D01*
X61267Y5979D01*
X61281Y5984D01*
X61296Y5989D01*
X61315Y5992D01*
X61335Y5994D01*
X61341D01*
X61349Y5993D01*
D02*
G37*
%LPC*%
G36*
X60510Y5934D02*
X60349D01*
Y5765D01*
X60501D01*
X60510Y5766D01*
X60520Y5767D01*
X60532Y5767D01*
X60544Y5769D01*
X60556Y5771D01*
X60566Y5774D01*
X60567Y5775D01*
X60570Y5776D01*
X60575Y5778D01*
X60581Y5781D01*
X60587Y5786D01*
X60594Y5791D01*
X60601Y5798D01*
X60606Y5805D01*
X60607Y5806D01*
X60608Y5809D01*
X60610Y5813D01*
X60613Y5819D01*
X60616Y5826D01*
X60618Y5833D01*
X60619Y5842D01*
X60620Y5851D01*
Y5852D01*
Y5852D01*
X60619Y5857D01*
X60618Y5863D01*
X60617Y5872D01*
X60613Y5881D01*
X60609Y5892D01*
X60602Y5901D01*
X60593Y5911D01*
X60592Y5911D01*
X60588Y5914D01*
X60582Y5918D01*
X60573Y5923D01*
X60562Y5927D01*
X60547Y5931D01*
X60530Y5934D01*
X60510Y5934D01*
D02*
G37*
G36*
X61334Y5942D02*
X61330D01*
X61327Y5941D01*
X61318Y5940D01*
X61309Y5937D01*
X61298Y5933D01*
X61286Y5926D01*
X61280Y5922D01*
X61274Y5917D01*
X61269Y5911D01*
X61264Y5905D01*
Y5904D01*
X61262Y5903D01*
X61261Y5900D01*
X61259Y5896D01*
X61256Y5890D01*
X61253Y5883D01*
X61251Y5875D01*
X61248Y5866D01*
X61245Y5855D01*
X61242Y5842D01*
X61239Y5828D01*
X61237Y5812D01*
X61235Y5795D01*
X61233Y5775D01*
X61233Y5755D01*
X61232Y5732D01*
Y5730D01*
Y5727D01*
Y5720D01*
X61233Y5711D01*
Y5702D01*
X61233Y5690D01*
X61234Y5677D01*
X61236Y5664D01*
X61239Y5635D01*
X61242Y5621D01*
X61245Y5608D01*
X61247Y5595D01*
X61252Y5583D01*
X61256Y5573D01*
X61262Y5564D01*
Y5563D01*
X61263Y5563D01*
X61267Y5557D01*
X61273Y5551D01*
X61281Y5543D01*
X61293Y5536D01*
X61305Y5529D01*
X61319Y5524D01*
X61327Y5523D01*
X61335Y5523D01*
X61339D01*
X61342Y5523D01*
X61349Y5525D01*
X61360Y5528D01*
X61371Y5533D01*
X61383Y5540D01*
X61389Y5545D01*
X61395Y5551D01*
X61401Y5557D01*
X61407Y5564D01*
Y5565D01*
X61409Y5566D01*
X61410Y5569D01*
X61412Y5572D01*
X61415Y5577D01*
X61417Y5584D01*
X61420Y5591D01*
X61423Y5600D01*
X61425Y5611D01*
X61428Y5623D01*
X61431Y5637D01*
X61433Y5652D01*
X61434Y5670D01*
X61436Y5688D01*
X61437Y5709D01*
Y5732D01*
Y5733D01*
Y5733D01*
Y5737D01*
Y5744D01*
X61437Y5753D01*
Y5762D01*
X61436Y5774D01*
X61435Y5787D01*
X61434Y5801D01*
X61430Y5829D01*
X61428Y5843D01*
X61425Y5856D01*
X61422Y5869D01*
X61417Y5880D01*
X61413Y5891D01*
X61408Y5900D01*
Y5900D01*
X61406Y5901D01*
X61405Y5903D01*
X61403Y5906D01*
X61396Y5913D01*
X61388Y5921D01*
X61377Y5928D01*
X61364Y5935D01*
X61358Y5938D01*
X61350Y5940D01*
X61342Y5941D01*
X61334Y5942D01*
D02*
G37*
%LPD*%
D85*
X57701Y10649D02*
X62861D01*
Y669D02*
Y10649D01*
X57701Y669D02*
X62861D01*
X57701D02*
Y10649D01*
%TF.MD5,c234111f8907e678d1f3b2a7167ecf6e*%
M02*
