%TF.GenerationSoftware,Altium Limited,Altium Designer,21.6.4 (81)*%
G04 Layer_Color=128*
%FSLAX43Y43*%
%MOMM*%
%TF.SameCoordinates,3FCC9EDD-E33D-4AE7-AC82-89E58AA9E509*%
%TF.FilePolarity,Positive*%
%TF.FileFunction,Paste,Bot*%
%TF.Part,Single*%
G01*
G75*
%TA.AperFunction,SMDPad,CuDef*%
%ADD56R,1.800X1.450*%
%ADD57R,0.900X0.950*%
%ADD58R,0.800X1.250*%
%ADD59R,2.500X2.200*%
%ADD60R,0.950X1.900*%
%ADD61R,3.250X1.900*%
%ADD62R,0.800X0.900*%
%ADD63R,0.600X1.500*%
%ADD64R,2.200X2.500*%
%ADD65R,1.250X0.800*%
%TA.AperFunction,TestPad*%
%ADD66R,2.000X2.300*%
%TA.AperFunction,SMDPad,CuDef*%
%ADD67R,2.300X2.000*%
%ADD68R,1.600X1.000*%
%ADD69R,0.543X1.874*%
G04:AMPARAMS|DCode=70|XSize=1.874mm|YSize=0.543mm|CornerRadius=0.272mm|HoleSize=0mm|Usage=FLASHONLY|Rotation=90.000|XOffset=0mm|YOffset=0mm|HoleType=Round|Shape=RoundedRectangle|*
%AMROUNDEDRECTD70*
21,1,1.874,0.000,0,0,90.0*
21,1,1.331,0.543,0,0,90.0*
1,1,0.543,0.000,0.665*
1,1,0.543,0.000,-0.665*
1,1,0.543,0.000,-0.665*
1,1,0.543,0.000,0.665*
%
%ADD70ROUNDEDRECTD70*%
%ADD71R,1.556X1.505*%
%ADD72R,2.000X2.300*%
%ADD73R,1.505X1.556*%
D56*
X12346Y18040D02*
D03*
X18896D02*
D03*
X12346Y15590D02*
D03*
X18896D02*
D03*
X19030Y3976D02*
D03*
X25580D02*
D03*
X19030Y1526D02*
D03*
X25580D02*
D03*
X16792D02*
D03*
X10242D02*
D03*
X16792Y3976D02*
D03*
X10242D02*
D03*
X34419Y1579D02*
D03*
X27869D02*
D03*
X34419Y4029D02*
D03*
X27869D02*
D03*
D57*
X52248Y14256D02*
D03*
X55398Y14256D02*
D03*
D58*
X45431Y4029D02*
D03*
X47431D02*
D03*
X50274Y23597D02*
D03*
X48274D02*
D03*
X70447Y12487D02*
D03*
X72447D02*
D03*
X42180Y15214D02*
D03*
X44180D02*
D03*
Y13644D02*
D03*
X42180D02*
D03*
X78800Y1274D02*
D03*
X76800D02*
D03*
X72447Y14173D02*
D03*
X70447D02*
D03*
X85023Y19456D02*
D03*
X83023D02*
D03*
X38268Y33738D02*
D03*
X40268D02*
D03*
X42863Y4068D02*
D03*
X40863D02*
D03*
X24679Y26848D02*
D03*
X26679D02*
D03*
D59*
X80366Y33659D02*
D03*
Y40559D02*
D03*
D60*
X82666Y44753D02*
D03*
X80366D02*
D03*
X78066D02*
D03*
D61*
X80366Y50853D02*
D03*
D62*
X66553Y14173D02*
D03*
X68453D02*
D03*
X67503Y12173D02*
D03*
D63*
X42901Y11467D02*
D03*
X44171D02*
D03*
X45441D02*
D03*
X46711D02*
D03*
X42901Y6067D02*
D03*
X44171D02*
D03*
X45441D02*
D03*
X46711D02*
D03*
D64*
X84781Y8915D02*
D03*
X77881D02*
D03*
D65*
X64338Y18200D02*
D03*
Y16200D02*
D03*
X47396Y13406D02*
D03*
Y15406D02*
D03*
X39725Y7655D02*
D03*
Y5655D02*
D03*
X41300Y7659D02*
D03*
Y5659D02*
D03*
X88074Y13243D02*
D03*
Y11243D02*
D03*
X72543Y6235D02*
D03*
Y4235D02*
D03*
X45669Y15406D02*
D03*
Y13406D02*
D03*
X50274Y27162D02*
D03*
Y25162D02*
D03*
D66*
X67929Y26543D02*
D03*
X72229D02*
D03*
D67*
X9906Y32588D02*
D03*
Y36888D02*
D03*
X15443Y39735D02*
D03*
Y44035D02*
D03*
D68*
X11430Y47066D02*
D03*
Y50266D02*
D03*
D69*
X69799Y3293D02*
D03*
D70*
X68529D02*
D03*
X67259D02*
D03*
X65989D02*
D03*
Y7925D02*
D03*
X67259D02*
D03*
X68529D02*
D03*
X69799D02*
D03*
D71*
X63491Y6119D02*
D03*
Y4317D02*
D03*
X9982Y29882D02*
D03*
Y28081D02*
D03*
X38710Y14261D02*
D03*
Y12460D02*
D03*
D72*
X23428Y39853D02*
D03*
X27728D02*
D03*
X40287Y28256D02*
D03*
X44587D02*
D03*
D73*
X69051Y20269D02*
D03*
X70852D02*
D03*
X26428Y24587D02*
D03*
X24626D02*
D03*
%TF.MD5,905d1cdf663d491c6fb184f2d647b3ff*%
M02*
