%TF.GenerationSoftware,Altium Limited,Altium Designer,21.6.4 (81)*%
G04 Layer_Color=32768*
%FSLAX43Y43*%
%MOMM*%
%TF.SameCoordinates,100B324C-8CEB-4A13-B8D1-7C84912F4746*%
%TF.FilePolarity,Positive*%
%TF.FileFunction,Other,Top_Component_Outline*%
%TF.Part,Single*%
G01*
G75*
%TA.AperFunction,NonConductor*%
%ADD107C,0.100*%
D107*
X35353Y1719D02*
G03*
X35353Y1719I-250J0D01*
G01*
X38603Y6719D02*
G03*
X31603Y6719I-3500J-1684D01*
G01*
Y3319D02*
G03*
X38603Y3319I3500J1684D01*
G01*
X84577Y13867D02*
G03*
X77577Y13867I-3500J-1684D01*
G01*
Y10467D02*
G03*
X84577Y10467I3500J1684D01*
G01*
X81327Y15467D02*
G03*
X81327Y15467I-250J0D01*
G01*
X31603Y3319D02*
Y6719D01*
X38603Y3319D02*
Y6719D01*
X77577Y10467D02*
Y13867D01*
X84577Y10467D02*
Y13867D01*
X1500Y17671D02*
X8850D01*
X9550D02*
X10500D01*
Y27671D01*
X1500Y17671D02*
Y27671D01*
X3650D01*
X4350D02*
X10500D01*
X3400Y28271D02*
X4600D01*
X3400D02*
X3650Y27671D01*
X4350D02*
X4600Y28271D01*
X9550Y17671D02*
X9800Y17071D01*
X8600D02*
X9800D01*
X8600D02*
X8850Y17671D01*
X1500Y27675D02*
X8850D01*
X9550D02*
X10500D01*
Y37675D01*
X1500Y27675D02*
Y37675D01*
X3650D01*
X4350D02*
X10500D01*
X3400Y38275D02*
X4600D01*
X3400D02*
X3650Y37675D01*
X4350D02*
X4600Y38275D01*
X9550Y27675D02*
X9800Y27075D01*
X8600D02*
X9800D01*
X8600D02*
X8850Y27675D01*
X81885Y41997D02*
X82135Y42597D01*
X80935D02*
X82135D01*
X80935D02*
X81184Y41997D01*
X86134Y31397D02*
X86384Y31997D01*
X87085D02*
X87334Y31397D01*
X86134D02*
X87334D01*
X80234Y31997D02*
X86384D01*
X87084D02*
X89234D01*
Y41997D01*
X80234Y31997D02*
Y41997D01*
X81184D01*
X81884D02*
X89234D01*
X81885Y32015D02*
X82135Y32615D01*
X80935D02*
X82135D01*
X80935D02*
X81184Y32015D01*
X86134Y21415D02*
X86384Y22015D01*
X87085D02*
X87334Y21415D01*
X86134D02*
X87334D01*
X80234Y22015D02*
X86384D01*
X87084D02*
X89234D01*
Y32015D01*
X80234Y22015D02*
Y32015D01*
X81184D01*
X81884D02*
X89234D01*
%TF.MD5,771089c3798fa046565447d4ab840c6a*%
M02*
