%TF.GenerationSoftware,Altium Limited,Altium Designer,21.6.4 (81)*%
G04 Layer_Color=32896*
%FSLAX43Y43*%
%MOMM*%
%TF.SameCoordinates,45A01B4D-518A-40F9-B883-98BDF5CD3DE6*%
%TF.FilePolarity,Positive*%
%TF.FileFunction,Other,Bottom_Assembly*%
%TF.Part,Single*%
G01*
G75*
%TA.AperFunction,NonConductor*%
%ADD102C,0.200*%
%ADD139C,0.100*%
%ADD148R,2.250X3.000*%
%ADD149R,2.150X1.050*%
%ADD150R,3.000X2.250*%
%ADD151R,1.050X2.150*%
G36*
X126748Y43399D02*
X126765Y43398D01*
X126781Y43396D01*
X126794Y43394D01*
X126807Y43393D01*
X126819Y43390D01*
X126831Y43388D01*
X126841Y43386D01*
X126849Y43383D01*
X126856Y43382D01*
X126862Y43380D01*
X126867Y43378D01*
X126870Y43377D01*
X126872Y43376D01*
X126873D01*
X126893Y43366D01*
X126912Y43353D01*
X126927Y43340D01*
X126940Y43326D01*
X126950Y43314D01*
X126957Y43304D01*
X126959Y43300D01*
X126961Y43297D01*
X126963Y43296D01*
Y43295D01*
X126973Y43271D01*
X126980Y43247D01*
X126986Y43222D01*
X126990Y43199D01*
X126990Y43189D01*
X126991Y43179D01*
X126992Y43170D01*
Y43162D01*
X126993Y43156D01*
Y43148D01*
X126991Y43114D01*
X126990Y43100D01*
X126988Y43086D01*
X126985Y43072D01*
X126982Y43060D01*
X126979Y43049D01*
X126976Y43038D01*
X126972Y43029D01*
X126969Y43022D01*
X126966Y43014D01*
X126964Y43009D01*
X126961Y43004D01*
X126960Y43002D01*
X126958Y43000D01*
Y42999D01*
X126944Y42978D01*
X126929Y42962D01*
X126914Y42949D01*
X126899Y42938D01*
X126886Y42929D01*
X126876Y42924D01*
X126872Y42922D01*
X126869Y42920D01*
X126868Y42919D01*
X126867D01*
X126855Y42916D01*
X126843Y42912D01*
X126818Y42906D01*
X126793Y42903D01*
X126768Y42900D01*
X126757Y42899D01*
X126745Y42898D01*
X126736D01*
X126728Y42897D01*
X126721D01*
X126717D01*
X126713D01*
X126712D01*
X126342D01*
Y42982D01*
X126712D01*
X126733D01*
X126754Y42984D01*
X126771Y42986D01*
X126788Y42989D01*
X126803Y42991D01*
X126817Y42995D01*
X126829Y42998D01*
X126839Y43002D01*
X126847Y43005D01*
X126855Y43009D01*
X126861Y43013D01*
X126867Y43015D01*
X126870Y43018D01*
X126873Y43020D01*
X126874Y43021D01*
X126875Y43022D01*
X126882Y43030D01*
X126889Y43039D01*
X126899Y43060D01*
X126906Y43081D01*
X126911Y43103D01*
X126915Y43124D01*
X126916Y43132D01*
Y43140D01*
X126916Y43146D01*
Y43155D01*
X126916Y43174D01*
X126913Y43192D01*
X126910Y43209D01*
X126905Y43222D01*
X126902Y43233D01*
X126899Y43241D01*
X126896Y43246D01*
X126895Y43247D01*
X126887Y43260D01*
X126877Y43271D01*
X126867Y43281D01*
X126857Y43287D01*
X126848Y43293D01*
X126842Y43297D01*
X126837Y43299D01*
X126835Y43300D01*
X126827Y43303D01*
X126818Y43305D01*
X126799Y43308D01*
X126779Y43311D01*
X126758Y43313D01*
X126741Y43314D01*
X126733D01*
X126726Y43315D01*
X126720D01*
X126716D01*
X126713D01*
X126712D01*
X126342D01*
Y43400D01*
X126712D01*
X126731D01*
X126748Y43399D01*
D02*
G37*
G36*
X126828Y42785D02*
X126842Y42782D01*
X126868Y42774D01*
X126890Y42764D01*
X126899Y42758D01*
X126908Y42753D01*
X126916Y42747D01*
X126923Y42742D01*
X126929Y42737D01*
X126934Y42732D01*
X126938Y42730D01*
X126941Y42727D01*
X126942Y42725D01*
X126943Y42724D01*
X126952Y42713D01*
X126960Y42702D01*
X126966Y42691D01*
X126972Y42679D01*
X126981Y42656D01*
X126987Y42634D01*
X126989Y42623D01*
X126990Y42614D01*
X126991Y42606D01*
X126992Y42598D01*
X126993Y42593D01*
Y42585D01*
X126992Y42567D01*
X126990Y42551D01*
X126988Y42536D01*
X126984Y42521D01*
X126979Y42507D01*
X126975Y42495D01*
X126969Y42483D01*
X126964Y42473D01*
X126959Y42462D01*
X126953Y42454D01*
X126949Y42447D01*
X126944Y42441D01*
X126941Y42437D01*
X126938Y42433D01*
X126936Y42431D01*
X126935Y42430D01*
X126924Y42419D01*
X126912Y42410D01*
X126900Y42401D01*
X126888Y42394D01*
X126877Y42389D01*
X126865Y42383D01*
X126843Y42376D01*
X126832Y42374D01*
X126823Y42372D01*
X126815Y42370D01*
X126807Y42369D01*
X126802Y42368D01*
X126797D01*
X126794D01*
X126794D01*
X126771Y42369D01*
X126751Y42373D01*
X126733Y42378D01*
X126719Y42384D01*
X126707Y42389D01*
X126697Y42395D01*
X126692Y42399D01*
X126690Y42400D01*
X126676Y42413D01*
X126664Y42426D01*
X126655Y42441D01*
X126647Y42456D01*
X126642Y42469D01*
X126638Y42479D01*
X126637Y42483D01*
X126636Y42486D01*
X126635Y42487D01*
Y42488D01*
X126627Y42473D01*
X126619Y42460D01*
X126610Y42449D01*
X126601Y42439D01*
X126594Y42432D01*
X126587Y42426D01*
X126584Y42424D01*
X126582Y42423D01*
X126569Y42415D01*
X126556Y42410D01*
X126543Y42405D01*
X126531Y42402D01*
X126521Y42401D01*
X126513Y42400D01*
X126508D01*
X126506D01*
X126490Y42401D01*
X126475Y42403D01*
X126461Y42407D01*
X126449Y42412D01*
X126438Y42416D01*
X126430Y42420D01*
X126426Y42423D01*
X126424Y42424D01*
X126410Y42433D01*
X126398Y42444D01*
X126388Y42455D01*
X126378Y42466D01*
X126372Y42475D01*
X126366Y42484D01*
X126364Y42489D01*
X126363Y42490D01*
Y42491D01*
X126355Y42508D01*
X126350Y42524D01*
X126345Y42541D01*
X126342Y42556D01*
X126340Y42568D01*
X126340Y42578D01*
Y42601D01*
X126341Y42614D01*
X126346Y42639D01*
X126353Y42660D01*
X126361Y42679D01*
X126365Y42687D01*
X126369Y42694D01*
X126373Y42700D01*
X126377Y42705D01*
X126379Y42708D01*
X126381Y42711D01*
X126382Y42713D01*
X126383Y42714D01*
X126401Y42732D01*
X126420Y42745D01*
X126440Y42757D01*
X126461Y42766D01*
X126478Y42771D01*
X126486Y42774D01*
X126492Y42776D01*
X126498Y42777D01*
X126501Y42778D01*
X126504Y42779D01*
X126505D01*
X126519Y42700D01*
X126499Y42696D01*
X126481Y42691D01*
X126466Y42684D01*
X126454Y42678D01*
X126445Y42671D01*
X126438Y42666D01*
X126434Y42662D01*
X126433Y42661D01*
X126424Y42649D01*
X126416Y42636D01*
X126412Y42624D01*
X126408Y42612D01*
X126406Y42601D01*
X126404Y42593D01*
Y42585D01*
X126405Y42569D01*
X126409Y42554D01*
X126414Y42541D01*
X126418Y42530D01*
X126424Y42522D01*
X126428Y42515D01*
X126432Y42511D01*
X126433Y42510D01*
X126444Y42499D01*
X126456Y42492D01*
X126468Y42487D01*
X126479Y42484D01*
X126489Y42482D01*
X126497Y42480D01*
X126502D01*
X126503D01*
X126504D01*
X126514D01*
X126524Y42482D01*
X126539Y42487D01*
X126553Y42493D01*
X126565Y42500D01*
X126573Y42508D01*
X126580Y42514D01*
X126584Y42519D01*
X126585Y42520D01*
Y42521D01*
X126593Y42536D01*
X126599Y42551D01*
X126604Y42567D01*
X126607Y42581D01*
X126609Y42593D01*
X126610Y42603D01*
Y42615D01*
X126610Y42619D01*
Y42623D01*
X126679Y42633D01*
X126676Y42621D01*
X126674Y42610D01*
X126672Y42600D01*
X126671Y42592D01*
X126671Y42585D01*
Y42577D01*
X126672Y42558D01*
X126676Y42540D01*
X126682Y42524D01*
X126688Y42511D01*
X126695Y42501D01*
X126700Y42494D01*
X126704Y42489D01*
X126706Y42487D01*
X126720Y42475D01*
X126734Y42466D01*
X126749Y42460D01*
X126764Y42456D01*
X126776Y42453D01*
X126786Y42452D01*
X126790Y42451D01*
X126793D01*
X126794D01*
X126795D01*
X126816Y42453D01*
X126834Y42458D01*
X126850Y42463D01*
X126864Y42471D01*
X126875Y42478D01*
X126883Y42484D01*
X126889Y42488D01*
X126891Y42490D01*
X126904Y42505D01*
X126913Y42521D01*
X126919Y42536D01*
X126924Y42551D01*
X126927Y42564D01*
X126928Y42574D01*
X126929Y42578D01*
Y42584D01*
X126928Y42600D01*
X126924Y42616D01*
X126919Y42630D01*
X126914Y42641D01*
X126909Y42650D01*
X126904Y42658D01*
X126901Y42661D01*
X126900Y42663D01*
X126887Y42674D01*
X126872Y42683D01*
X126856Y42692D01*
X126840Y42698D01*
X126826Y42703D01*
X126819Y42705D01*
X126814Y42706D01*
X126809Y42707D01*
X126806Y42708D01*
X126804Y42708D01*
X126803D01*
X126813Y42787D01*
X126828Y42785D01*
D02*
G37*
G36*
X123742Y44658D02*
X123758Y44669D01*
X123764Y44675D01*
X123771Y44680D01*
X123776Y44684D01*
X123780Y44688D01*
X123783Y44691D01*
X123783Y44692D01*
X123788Y44696D01*
X123793Y44702D01*
X123805Y44715D01*
X123819Y44730D01*
X123832Y44745D01*
X123845Y44760D01*
X123850Y44767D01*
X123856Y44772D01*
X123859Y44777D01*
X123862Y44780D01*
X123864Y44782D01*
X123865Y44783D01*
X123878Y44798D01*
X123890Y44813D01*
X123902Y44826D01*
X123912Y44838D01*
X123922Y44849D01*
X123931Y44858D01*
X123940Y44867D01*
X123947Y44875D01*
X123955Y44882D01*
X123960Y44888D01*
X123965Y44892D01*
X123969Y44897D01*
X123975Y44902D01*
X123977Y44903D01*
X123992Y44916D01*
X124006Y44927D01*
X124020Y44937D01*
X124031Y44944D01*
X124041Y44950D01*
X124049Y44953D01*
X124053Y44955D01*
X124055Y44956D01*
X124069Y44962D01*
X124083Y44965D01*
X124096Y44969D01*
X124107Y44971D01*
X124117Y44972D01*
X124125Y44973D01*
X124129D01*
X124131D01*
X124145Y44972D01*
X124158Y44970D01*
X124171Y44968D01*
X124182Y44964D01*
X124204Y44955D01*
X124222Y44946D01*
X124230Y44940D01*
X124237Y44936D01*
X124243Y44931D01*
X124248Y44926D01*
X124251Y44923D01*
X124255Y44921D01*
X124256Y44919D01*
X124257Y44918D01*
X124266Y44908D01*
X124274Y44897D01*
X124281Y44885D01*
X124286Y44873D01*
X124296Y44849D01*
X124302Y44825D01*
X124304Y44815D01*
X124306Y44804D01*
X124307Y44795D01*
X124308Y44788D01*
X124309Y44781D01*
Y44772D01*
X124308Y44755D01*
X124307Y44740D01*
X124304Y44725D01*
X124301Y44711D01*
X124298Y44698D01*
X124294Y44686D01*
X124289Y44675D01*
X124285Y44665D01*
X124280Y44656D01*
X124275Y44648D01*
X124272Y44642D01*
X124268Y44636D01*
X124265Y44632D01*
X124262Y44629D01*
X124261Y44627D01*
X124261Y44626D01*
X124251Y44617D01*
X124241Y44608D01*
X124230Y44600D01*
X124219Y44594D01*
X124197Y44583D01*
X124175Y44575D01*
X124164Y44572D01*
X124154Y44570D01*
X124146Y44568D01*
X124139Y44566D01*
X124132Y44565D01*
X124127D01*
X124125Y44564D01*
X124124D01*
X124115Y44644D01*
X124137Y44646D01*
X124155Y44650D01*
X124172Y44656D01*
X124185Y44662D01*
X124196Y44668D01*
X124203Y44673D01*
X124208Y44677D01*
X124210Y44679D01*
X124221Y44693D01*
X124229Y44707D01*
X124236Y44723D01*
X124239Y44737D01*
X124242Y44750D01*
X124243Y44761D01*
X124244Y44765D01*
Y44770D01*
X124243Y44790D01*
X124239Y44807D01*
X124234Y44822D01*
X124228Y44835D01*
X124222Y44845D01*
X124217Y44852D01*
X124213Y44856D01*
X124212Y44858D01*
X124199Y44869D01*
X124186Y44877D01*
X124173Y44884D01*
X124160Y44888D01*
X124150Y44890D01*
X124140Y44891D01*
X124135Y44892D01*
X124134D01*
X124133D01*
X124116Y44890D01*
X124099Y44887D01*
X124083Y44880D01*
X124068Y44874D01*
X124056Y44866D01*
X124046Y44860D01*
X124042Y44858D01*
X124040Y44856D01*
X124039Y44854D01*
X124038D01*
X124028Y44847D01*
X124017Y44838D01*
X124006Y44828D01*
X123995Y44816D01*
X123973Y44793D01*
X123951Y44770D01*
X123941Y44758D01*
X123931Y44748D01*
X123923Y44738D01*
X123916Y44730D01*
X123910Y44723D01*
X123906Y44718D01*
X123903Y44714D01*
X123902Y44713D01*
X123882Y44690D01*
X123864Y44669D01*
X123847Y44651D01*
X123833Y44637D01*
X123821Y44625D01*
X123813Y44617D01*
X123808Y44612D01*
X123807Y44610D01*
X123806D01*
X123790Y44597D01*
X123775Y44587D01*
X123760Y44578D01*
X123747Y44571D01*
X123736Y44565D01*
X123728Y44561D01*
X123722Y44559D01*
X123722Y44558D01*
X123721D01*
X123710Y44555D01*
X123701Y44553D01*
X123692Y44551D01*
X123684Y44550D01*
X123676Y44549D01*
X123671D01*
X123667D01*
X123666D01*
Y44974D01*
X123742D01*
Y44658D01*
D02*
G37*
G36*
Y44161D02*
X123758Y44172D01*
X123764Y44178D01*
X123771Y44182D01*
X123776Y44187D01*
X123780Y44191D01*
X123783Y44193D01*
X123783Y44194D01*
X123788Y44199D01*
X123793Y44204D01*
X123805Y44217D01*
X123819Y44232D01*
X123832Y44248D01*
X123845Y44263D01*
X123850Y44269D01*
X123856Y44275D01*
X123859Y44279D01*
X123862Y44283D01*
X123864Y44285D01*
X123865Y44286D01*
X123878Y44301D01*
X123890Y44315D01*
X123902Y44328D01*
X123912Y44340D01*
X123922Y44351D01*
X123931Y44361D01*
X123940Y44370D01*
X123947Y44377D01*
X123955Y44385D01*
X123960Y44390D01*
X123965Y44395D01*
X123969Y44399D01*
X123975Y44404D01*
X123977Y44406D01*
X123992Y44419D01*
X124006Y44430D01*
X124020Y44439D01*
X124031Y44447D01*
X124041Y44452D01*
X124049Y44456D01*
X124053Y44458D01*
X124055Y44459D01*
X124069Y44464D01*
X124083Y44468D01*
X124096Y44472D01*
X124107Y44473D01*
X124117Y44474D01*
X124125Y44475D01*
X124129D01*
X124131D01*
X124145Y44474D01*
X124158Y44473D01*
X124171Y44471D01*
X124182Y44467D01*
X124204Y44458D01*
X124222Y44448D01*
X124230Y44443D01*
X124237Y44438D01*
X124243Y44434D01*
X124248Y44429D01*
X124251Y44425D01*
X124255Y44424D01*
X124256Y44422D01*
X124257Y44421D01*
X124266Y44411D01*
X124274Y44399D01*
X124281Y44387D01*
X124286Y44375D01*
X124296Y44351D01*
X124302Y44327D01*
X124304Y44317D01*
X124306Y44307D01*
X124307Y44298D01*
X124308Y44290D01*
X124309Y44284D01*
Y44275D01*
X124308Y44258D01*
X124307Y44242D01*
X124304Y44228D01*
X124301Y44214D01*
X124298Y44201D01*
X124294Y44189D01*
X124289Y44178D01*
X124285Y44167D01*
X124280Y44158D01*
X124275Y44151D01*
X124272Y44144D01*
X124268Y44139D01*
X124265Y44134D01*
X124262Y44131D01*
X124261Y44130D01*
X124261Y44129D01*
X124251Y44119D01*
X124241Y44111D01*
X124230Y44103D01*
X124219Y44096D01*
X124197Y44085D01*
X124175Y44078D01*
X124164Y44075D01*
X124154Y44072D01*
X124146Y44070D01*
X124139Y44068D01*
X124132Y44068D01*
X124127D01*
X124125Y44067D01*
X124124D01*
X124115Y44147D01*
X124137Y44149D01*
X124155Y44153D01*
X124172Y44158D01*
X124185Y44165D01*
X124196Y44170D01*
X124203Y44176D01*
X124208Y44179D01*
X124210Y44181D01*
X124221Y44195D01*
X124229Y44210D01*
X124236Y44226D01*
X124239Y44240D01*
X124242Y44252D01*
X124243Y44264D01*
X124244Y44267D01*
Y44273D01*
X124243Y44292D01*
X124239Y44310D01*
X124234Y44325D01*
X124228Y44338D01*
X124222Y44348D01*
X124217Y44354D01*
X124213Y44359D01*
X124212Y44361D01*
X124199Y44372D01*
X124186Y44380D01*
X124173Y44387D01*
X124160Y44390D01*
X124150Y44393D01*
X124140Y44394D01*
X124135Y44395D01*
X124134D01*
X124133D01*
X124116Y44393D01*
X124099Y44389D01*
X124083Y44383D01*
X124068Y44376D01*
X124056Y44369D01*
X124046Y44362D01*
X124042Y44361D01*
X124040Y44359D01*
X124039Y44357D01*
X124038D01*
X124028Y44350D01*
X124017Y44340D01*
X124006Y44330D01*
X123995Y44319D01*
X123973Y44296D01*
X123951Y44273D01*
X123941Y44261D01*
X123931Y44251D01*
X123923Y44240D01*
X123916Y44232D01*
X123910Y44226D01*
X123906Y44220D01*
X123903Y44216D01*
X123902Y44215D01*
X123882Y44192D01*
X123864Y44171D01*
X123847Y44154D01*
X123833Y44140D01*
X123821Y44128D01*
X123813Y44119D01*
X123808Y44115D01*
X123807Y44113D01*
X123806D01*
X123790Y44100D01*
X123775Y44090D01*
X123760Y44081D01*
X123747Y44073D01*
X123736Y44068D01*
X123728Y44064D01*
X123722Y44062D01*
X123722Y44061D01*
X123721D01*
X123710Y44057D01*
X123701Y44056D01*
X123692Y44054D01*
X123684Y44053D01*
X123676Y44052D01*
X123671D01*
X123667D01*
X123666D01*
Y44476D01*
X123742D01*
Y44161D01*
D02*
G37*
G36*
X123890Y43906D02*
X123875Y43902D01*
X123861Y43897D01*
X123848Y43893D01*
X123836Y43888D01*
X123825Y43883D01*
X123816Y43877D01*
X123807Y43871D01*
X123798Y43865D01*
X123791Y43860D01*
X123785Y43855D01*
X123780Y43850D01*
X123775Y43847D01*
X123772Y43843D01*
X123770Y43840D01*
X123769Y43839D01*
X123768Y43838D01*
X123760Y43829D01*
X123755Y43819D01*
X123745Y43799D01*
X123737Y43779D01*
X123733Y43760D01*
X123729Y43743D01*
X123728Y43737D01*
Y43730D01*
X123727Y43725D01*
Y43718D01*
X123728Y43697D01*
X123732Y43676D01*
X123736Y43658D01*
X123742Y43641D01*
X123747Y43628D01*
X123750Y43623D01*
X123752Y43618D01*
X123754Y43615D01*
X123756Y43612D01*
X123757Y43610D01*
Y43609D01*
X123770Y43591D01*
X123783Y43577D01*
X123799Y43564D01*
X123814Y43554D01*
X123827Y43545D01*
X123838Y43540D01*
X123843Y43538D01*
X123845Y43536D01*
X123847Y43535D01*
X123848D01*
X123872Y43528D01*
X123896Y43522D01*
X123920Y43517D01*
X123943Y43515D01*
X123953Y43514D01*
X123962Y43513D01*
X123970D01*
X123977Y43512D01*
X123982D01*
X123987D01*
X123990D01*
X123991D01*
X124015Y43513D01*
X124037Y43515D01*
X124057Y43518D01*
X124076Y43522D01*
X124091Y43525D01*
X124098Y43527D01*
X124103Y43529D01*
X124108Y43529D01*
X124111Y43530D01*
X124113Y43531D01*
X124114D01*
X124135Y43541D01*
X124154Y43551D01*
X124170Y43562D01*
X124184Y43574D01*
X124195Y43584D01*
X124202Y43592D01*
X124207Y43599D01*
X124209Y43600D01*
Y43601D01*
X124221Y43620D01*
X124230Y43641D01*
X124237Y43662D01*
X124240Y43681D01*
X124243Y43699D01*
X124244Y43706D01*
Y43713D01*
X124245Y43717D01*
Y43725D01*
X124244Y43748D01*
X124240Y43769D01*
X124235Y43786D01*
X124229Y43802D01*
X124223Y43814D01*
X124218Y43823D01*
X124214Y43829D01*
X124212Y43831D01*
X124199Y43846D01*
X124183Y43860D01*
X124166Y43871D01*
X124150Y43880D01*
X124135Y43887D01*
X124127Y43890D01*
X124122Y43892D01*
X124117Y43894D01*
X124114Y43896D01*
X124112Y43897D01*
X124111D01*
X124130Y43980D01*
X124147Y43974D01*
X124162Y43969D01*
X124176Y43961D01*
X124189Y43955D01*
X124201Y43947D01*
X124212Y43939D01*
X124224Y43932D01*
X124233Y43924D01*
X124240Y43917D01*
X124248Y43910D01*
X124254Y43904D01*
X124259Y43899D01*
X124263Y43895D01*
X124266Y43891D01*
X124267Y43889D01*
X124268Y43888D01*
X124276Y43875D01*
X124285Y43862D01*
X124291Y43849D01*
X124297Y43835D01*
X124305Y43808D01*
X124310Y43783D01*
X124313Y43771D01*
X124314Y43761D01*
X124315Y43750D01*
X124316Y43742D01*
X124317Y43736D01*
Y43726D01*
X124315Y43696D01*
X124310Y43666D01*
X124305Y43640D01*
X124301Y43628D01*
X124298Y43617D01*
X124294Y43607D01*
X124290Y43598D01*
X124287Y43590D01*
X124285Y43583D01*
X124282Y43578D01*
X124280Y43575D01*
X124279Y43572D01*
X124278Y43571D01*
X124262Y43546D01*
X124244Y43525D01*
X124225Y43506D01*
X124207Y43491D01*
X124190Y43479D01*
X124183Y43474D01*
X124176Y43470D01*
X124172Y43467D01*
X124168Y43465D01*
X124165Y43464D01*
X124164Y43463D01*
X124136Y43450D01*
X124106Y43441D01*
X124077Y43434D01*
X124050Y43430D01*
X124038Y43428D01*
X124026Y43427D01*
X124016Y43426D01*
X124007D01*
X124001Y43425D01*
X123995D01*
X123992D01*
X123991D01*
X123957Y43427D01*
X123925Y43431D01*
X123896Y43435D01*
X123882Y43439D01*
X123870Y43442D01*
X123859Y43444D01*
X123849Y43448D01*
X123840Y43451D01*
X123832Y43453D01*
X123827Y43456D01*
X123822Y43456D01*
X123820Y43458D01*
X123819D01*
X123791Y43472D01*
X123766Y43488D01*
X123745Y43505D01*
X123736Y43513D01*
X123728Y43520D01*
X123721Y43528D01*
X123714Y43535D01*
X123709Y43541D01*
X123705Y43547D01*
X123701Y43551D01*
X123698Y43554D01*
X123698Y43556D01*
X123697Y43557D01*
X123689Y43570D01*
X123683Y43583D01*
X123673Y43611D01*
X123665Y43639D01*
X123661Y43665D01*
X123659Y43678D01*
X123657Y43689D01*
X123656Y43700D01*
Y43708D01*
X123655Y43715D01*
Y43725D01*
X123656Y43744D01*
X123658Y43762D01*
X123660Y43778D01*
X123663Y43794D01*
X123668Y43809D01*
X123673Y43823D01*
X123677Y43835D01*
X123683Y43848D01*
X123687Y43858D01*
X123692Y43868D01*
X123697Y43875D01*
X123701Y43883D01*
X123705Y43887D01*
X123707Y43892D01*
X123709Y43894D01*
X123710Y43895D01*
X123721Y43908D01*
X123732Y43919D01*
X123745Y43929D01*
X123758Y43939D01*
X123783Y43956D01*
X123809Y43969D01*
X123821Y43974D01*
X123832Y43979D01*
X123843Y43982D01*
X123851Y43985D01*
X123858Y43988D01*
X123864Y43990D01*
X123868Y43991D01*
X123869D01*
X123890Y43906D01*
D02*
G37*
G36*
X56369Y26924D02*
X56387Y26922D01*
X56403Y26920D01*
X56419Y26917D01*
X56434Y26912D01*
X56448Y26907D01*
X56460Y26903D01*
X56473Y26897D01*
X56483Y26893D01*
X56493Y26888D01*
X56500Y26883D01*
X56508Y26879D01*
X56512Y26875D01*
X56517Y26873D01*
X56519Y26871D01*
X56520Y26870D01*
X56533Y26859D01*
X56544Y26848D01*
X56554Y26835D01*
X56564Y26822D01*
X56581Y26796D01*
X56594Y26771D01*
X56599Y26759D01*
X56604Y26747D01*
X56607Y26737D01*
X56610Y26729D01*
X56613Y26722D01*
X56615Y26716D01*
X56616Y26712D01*
Y26711D01*
X56531Y26690D01*
X56527Y26705D01*
X56522Y26719D01*
X56518Y26732D01*
X56513Y26744D01*
X56508Y26755D01*
X56502Y26764D01*
X56496Y26773D01*
X56490Y26782D01*
X56485Y26789D01*
X56480Y26795D01*
X56475Y26800D01*
X56472Y26805D01*
X56468Y26808D01*
X56465Y26810D01*
X56464Y26811D01*
X56463Y26812D01*
X56454Y26820D01*
X56444Y26825D01*
X56424Y26835D01*
X56404Y26843D01*
X56385Y26847D01*
X56368Y26851D01*
X56362Y26852D01*
X56355D01*
X56350Y26853D01*
X56343D01*
X56322Y26852D01*
X56301Y26848D01*
X56283Y26844D01*
X56266Y26838D01*
X56253Y26833D01*
X56248Y26830D01*
X56243Y26828D01*
X56240Y26826D01*
X56237Y26824D01*
X56235Y26823D01*
X56234D01*
X56216Y26810D01*
X56202Y26796D01*
X56189Y26781D01*
X56179Y26766D01*
X56170Y26753D01*
X56165Y26742D01*
X56163Y26737D01*
X56161Y26735D01*
X56160Y26733D01*
Y26732D01*
X56153Y26708D01*
X56147Y26684D01*
X56142Y26660D01*
X56140Y26637D01*
X56139Y26627D01*
X56138Y26618D01*
Y26610D01*
X56137Y26603D01*
Y26598D01*
Y26593D01*
Y26590D01*
Y26589D01*
X56138Y26565D01*
X56140Y26543D01*
X56143Y26523D01*
X56147Y26504D01*
X56150Y26489D01*
X56152Y26482D01*
X56154Y26477D01*
X56154Y26472D01*
X56155Y26469D01*
X56156Y26467D01*
Y26466D01*
X56166Y26445D01*
X56176Y26426D01*
X56187Y26410D01*
X56199Y26396D01*
X56209Y26385D01*
X56217Y26378D01*
X56224Y26373D01*
X56225Y26371D01*
X56226D01*
X56245Y26359D01*
X56266Y26350D01*
X56287Y26343D01*
X56306Y26340D01*
X56324Y26337D01*
X56331Y26336D01*
X56338D01*
X56342Y26335D01*
X56350D01*
X56373Y26336D01*
X56394Y26340D01*
X56411Y26345D01*
X56427Y26351D01*
X56439Y26357D01*
X56448Y26362D01*
X56454Y26366D01*
X56456Y26368D01*
X56471Y26381D01*
X56485Y26397D01*
X56496Y26414D01*
X56505Y26430D01*
X56512Y26445D01*
X56515Y26453D01*
X56517Y26458D01*
X56519Y26463D01*
X56521Y26466D01*
X56522Y26468D01*
Y26469D01*
X56605Y26450D01*
X56599Y26433D01*
X56594Y26418D01*
X56586Y26404D01*
X56580Y26391D01*
X56572Y26379D01*
X56564Y26368D01*
X56557Y26356D01*
X56549Y26347D01*
X56542Y26340D01*
X56535Y26332D01*
X56529Y26326D01*
X56524Y26321D01*
X56520Y26317D01*
X56516Y26314D01*
X56514Y26313D01*
X56513Y26312D01*
X56500Y26304D01*
X56487Y26295D01*
X56474Y26289D01*
X56460Y26283D01*
X56433Y26275D01*
X56408Y26270D01*
X56396Y26267D01*
X56386Y26266D01*
X56375Y26265D01*
X56367Y26264D01*
X56361Y26263D01*
X56351D01*
X56321Y26265D01*
X56291Y26270D01*
X56265Y26275D01*
X56253Y26279D01*
X56242Y26282D01*
X56232Y26286D01*
X56223Y26290D01*
X56215Y26293D01*
X56208Y26295D01*
X56203Y26298D01*
X56200Y26300D01*
X56197Y26301D01*
X56196Y26302D01*
X56171Y26318D01*
X56150Y26336D01*
X56131Y26355D01*
X56116Y26373D01*
X56104Y26390D01*
X56099Y26397D01*
X56095Y26404D01*
X56092Y26408D01*
X56090Y26412D01*
X56089Y26415D01*
X56088Y26416D01*
X56075Y26444D01*
X56066Y26474D01*
X56059Y26503D01*
X56055Y26530D01*
X56053Y26542D01*
X56052Y26554D01*
X56051Y26564D01*
Y26573D01*
X56050Y26579D01*
Y26585D01*
Y26588D01*
Y26589D01*
X56052Y26623D01*
X56056Y26655D01*
X56060Y26684D01*
X56064Y26698D01*
X56067Y26710D01*
X56069Y26721D01*
X56073Y26731D01*
X56076Y26740D01*
X56078Y26747D01*
X56080Y26753D01*
X56081Y26758D01*
X56083Y26760D01*
Y26761D01*
X56097Y26789D01*
X56113Y26814D01*
X56129Y26835D01*
X56138Y26844D01*
X56145Y26852D01*
X56153Y26859D01*
X56160Y26866D01*
X56166Y26871D01*
X56172Y26875D01*
X56176Y26879D01*
X56179Y26882D01*
X56181Y26882D01*
X56182Y26883D01*
X56195Y26891D01*
X56208Y26897D01*
X56236Y26907D01*
X56264Y26915D01*
X56290Y26919D01*
X56303Y26921D01*
X56314Y26923D01*
X56325Y26924D01*
X56333D01*
X56340Y26925D01*
X56350D01*
X56369Y26924D01*
D02*
G37*
G36*
X56984Y26271D02*
X56933D01*
X56924Y26287D01*
X56914Y26302D01*
X56902Y26317D01*
X56890Y26330D01*
X56879Y26341D01*
X56871Y26350D01*
X56867Y26353D01*
X56865Y26355D01*
X56864Y26356D01*
X56863Y26357D01*
X56843Y26373D01*
X56824Y26388D01*
X56805Y26401D01*
X56787Y26411D01*
X56771Y26420D01*
X56765Y26424D01*
X56759Y26427D01*
X56755Y26429D01*
X56751Y26430D01*
X56749Y26432D01*
X56748D01*
Y26508D01*
X56762Y26502D01*
X56776Y26496D01*
X56790Y26490D01*
X56803Y26483D01*
X56814Y26478D01*
X56823Y26473D01*
X56828Y26469D01*
X56829Y26468D01*
X56830D01*
X56847Y26458D01*
X56862Y26448D01*
X56875Y26439D01*
X56885Y26430D01*
X56894Y26424D01*
X56900Y26418D01*
X56904Y26415D01*
X56905Y26414D01*
Y26914D01*
X56984D01*
Y26271D01*
D02*
G37*
G36*
X57515Y26760D02*
X57602D01*
Y26688D01*
X57515D01*
Y26274D01*
X57452D01*
X57159Y26688D01*
Y26760D01*
X57437D01*
Y26914D01*
X57515D01*
Y26760D01*
D02*
G37*
G36*
X40116Y53902D02*
X40132Y53901D01*
X40147Y53898D01*
X40161Y53895D01*
X40174Y53892D01*
X40186Y53888D01*
X40197Y53883D01*
X40207Y53879D01*
X40216Y53874D01*
X40223Y53869D01*
X40230Y53866D01*
X40235Y53862D01*
X40240Y53859D01*
X40243Y53856D01*
X40245Y53855D01*
X40246Y53855D01*
X40255Y53845D01*
X40263Y53835D01*
X40272Y53824D01*
X40278Y53813D01*
X40289Y53791D01*
X40296Y53769D01*
X40299Y53758D01*
X40302Y53748D01*
X40304Y53740D01*
X40306Y53733D01*
X40307Y53726D01*
Y53721D01*
X40308Y53719D01*
Y53718D01*
X40227Y53709D01*
X40225Y53731D01*
X40222Y53749D01*
X40216Y53766D01*
X40210Y53779D01*
X40204Y53790D01*
X40198Y53797D01*
X40195Y53802D01*
X40193Y53804D01*
X40179Y53815D01*
X40164Y53823D01*
X40149Y53830D01*
X40135Y53833D01*
X40122Y53836D01*
X40111Y53837D01*
X40107Y53838D01*
X40101D01*
X40082Y53837D01*
X40064Y53833D01*
X40050Y53828D01*
X40037Y53822D01*
X40027Y53816D01*
X40020Y53811D01*
X40015Y53807D01*
X40014Y53806D01*
X40002Y53793D01*
X39994Y53780D01*
X39988Y53767D01*
X39984Y53754D01*
X39981Y53744D01*
X39980Y53734D01*
X39979Y53729D01*
Y53728D01*
Y53727D01*
X39981Y53710D01*
X39985Y53693D01*
X39991Y53677D01*
X39998Y53662D01*
X40005Y53650D01*
X40012Y53640D01*
X40014Y53636D01*
X40015Y53634D01*
X40017Y53633D01*
Y53632D01*
X40025Y53622D01*
X40034Y53611D01*
X40044Y53600D01*
X40055Y53589D01*
X40078Y53567D01*
X40101Y53545D01*
X40113Y53535D01*
X40124Y53525D01*
X40134Y53517D01*
X40142Y53510D01*
X40149Y53504D01*
X40154Y53500D01*
X40158Y53497D01*
X40159Y53496D01*
X40182Y53476D01*
X40203Y53458D01*
X40221Y53441D01*
X40235Y53427D01*
X40247Y53415D01*
X40255Y53407D01*
X40260Y53402D01*
X40261Y53401D01*
Y53400D01*
X40274Y53384D01*
X40284Y53369D01*
X40294Y53354D01*
X40301Y53341D01*
X40307Y53330D01*
X40310Y53322D01*
X40312Y53316D01*
X40313Y53316D01*
Y53315D01*
X40317Y53304D01*
X40319Y53295D01*
X40321Y53286D01*
X40321Y53278D01*
X40322Y53270D01*
Y53265D01*
Y53261D01*
Y53260D01*
X39898D01*
Y53336D01*
X40213D01*
X40202Y53352D01*
X40197Y53358D01*
X40192Y53365D01*
X40187Y53370D01*
X40184Y53374D01*
X40181Y53377D01*
X40180Y53377D01*
X40175Y53382D01*
X40170Y53387D01*
X40157Y53399D01*
X40142Y53413D01*
X40126Y53426D01*
X40112Y53439D01*
X40105Y53444D01*
X40100Y53450D01*
X40095Y53453D01*
X40091Y53456D01*
X40089Y53458D01*
X40088Y53459D01*
X40074Y53472D01*
X40059Y53484D01*
X40046Y53496D01*
X40034Y53506D01*
X40023Y53516D01*
X40014Y53525D01*
X40004Y53534D01*
X39997Y53541D01*
X39990Y53549D01*
X39984Y53554D01*
X39979Y53559D01*
X39975Y53563D01*
X39970Y53569D01*
X39968Y53571D01*
X39955Y53586D01*
X39944Y53600D01*
X39935Y53614D01*
X39928Y53625D01*
X39922Y53635D01*
X39918Y53643D01*
X39916Y53647D01*
X39916Y53649D01*
X39910Y53663D01*
X39906Y53677D01*
X39903Y53690D01*
X39901Y53701D01*
X39900Y53711D01*
X39899Y53719D01*
Y53723D01*
Y53725D01*
X39900Y53739D01*
X39902Y53752D01*
X39904Y53765D01*
X39907Y53776D01*
X39916Y53798D01*
X39926Y53816D01*
X39931Y53824D01*
X39936Y53831D01*
X39941Y53837D01*
X39945Y53842D01*
X39949Y53845D01*
X39951Y53849D01*
X39953Y53850D01*
X39953Y53851D01*
X39964Y53860D01*
X39975Y53868D01*
X39987Y53875D01*
X39999Y53880D01*
X40023Y53890D01*
X40047Y53896D01*
X40057Y53898D01*
X40067Y53900D01*
X40076Y53901D01*
X40084Y53902D01*
X40090Y53903D01*
X40100D01*
X40116Y53902D01*
D02*
G37*
G36*
X40678Y53909D02*
X40708Y53904D01*
X40734Y53899D01*
X40746Y53895D01*
X40757Y53892D01*
X40767Y53888D01*
X40776Y53884D01*
X40784Y53881D01*
X40791Y53879D01*
X40796Y53876D01*
X40799Y53874D01*
X40802Y53873D01*
X40803Y53872D01*
X40828Y53856D01*
X40849Y53838D01*
X40868Y53819D01*
X40884Y53801D01*
X40896Y53784D01*
X40900Y53777D01*
X40904Y53770D01*
X40908Y53766D01*
X40909Y53762D01*
X40910Y53759D01*
X40911Y53758D01*
X40924Y53730D01*
X40934Y53700D01*
X40940Y53671D01*
X40945Y53644D01*
X40946Y53632D01*
X40947Y53620D01*
X40948Y53610D01*
Y53601D01*
X40949Y53595D01*
Y53589D01*
Y53586D01*
Y53585D01*
X40947Y53551D01*
X40944Y53519D01*
X40939Y53490D01*
X40935Y53476D01*
X40933Y53464D01*
X40930Y53453D01*
X40926Y53443D01*
X40923Y53434D01*
X40921Y53426D01*
X40919Y53421D01*
X40918Y53416D01*
X40916Y53414D01*
Y53413D01*
X40902Y53385D01*
X40886Y53360D01*
X40870Y53339D01*
X40861Y53330D01*
X40854Y53322D01*
X40847Y53315D01*
X40839Y53308D01*
X40833Y53303D01*
X40827Y53299D01*
X40823Y53295D01*
X40820Y53292D01*
X40818Y53292D01*
X40817Y53291D01*
X40804Y53283D01*
X40791Y53277D01*
X40763Y53267D01*
X40736Y53259D01*
X40709Y53255D01*
X40696Y53253D01*
X40685Y53251D01*
X40675Y53250D01*
X40666D01*
X40659Y53249D01*
X40649D01*
X40630Y53250D01*
X40613Y53252D01*
X40596Y53254D01*
X40580Y53257D01*
X40566Y53262D01*
X40552Y53267D01*
X40539Y53271D01*
X40527Y53277D01*
X40517Y53281D01*
X40506Y53286D01*
X40499Y53291D01*
X40492Y53295D01*
X40487Y53299D01*
X40482Y53301D01*
X40480Y53303D01*
X40480Y53304D01*
X40467Y53315D01*
X40456Y53326D01*
X40445Y53339D01*
X40435Y53352D01*
X40419Y53377D01*
X40406Y53403D01*
X40400Y53415D01*
X40395Y53426D01*
X40392Y53437D01*
X40389Y53445D01*
X40386Y53452D01*
X40384Y53458D01*
X40383Y53462D01*
Y53463D01*
X40468Y53484D01*
X40472Y53469D01*
X40477Y53455D01*
X40481Y53442D01*
X40486Y53430D01*
X40492Y53419D01*
X40497Y53410D01*
X40504Y53401D01*
X40509Y53392D01*
X40514Y53385D01*
X40519Y53379D01*
X40524Y53374D01*
X40528Y53369D01*
X40531Y53366D01*
X40534Y53364D01*
X40535Y53363D01*
X40536Y53362D01*
X40545Y53354D01*
X40555Y53349D01*
X40576Y53339D01*
X40595Y53331D01*
X40615Y53327D01*
X40631Y53323D01*
X40638Y53322D01*
X40644D01*
X40650Y53321D01*
X40656D01*
X40677Y53322D01*
X40698Y53326D01*
X40716Y53330D01*
X40733Y53336D01*
X40746Y53341D01*
X40751Y53344D01*
X40756Y53346D01*
X40760Y53348D01*
X40762Y53350D01*
X40764Y53351D01*
X40765D01*
X40783Y53364D01*
X40798Y53377D01*
X40811Y53393D01*
X40821Y53408D01*
X40829Y53421D01*
X40835Y53432D01*
X40836Y53437D01*
X40838Y53439D01*
X40839Y53441D01*
Y53442D01*
X40847Y53466D01*
X40852Y53490D01*
X40857Y53514D01*
X40860Y53537D01*
X40860Y53547D01*
X40861Y53556D01*
Y53564D01*
X40862Y53571D01*
Y53576D01*
Y53581D01*
Y53584D01*
Y53585D01*
X40861Y53609D01*
X40860Y53631D01*
X40856Y53651D01*
X40852Y53670D01*
X40849Y53685D01*
X40848Y53692D01*
X40846Y53697D01*
X40845Y53702D01*
X40844Y53705D01*
X40843Y53707D01*
Y53708D01*
X40834Y53729D01*
X40823Y53748D01*
X40812Y53764D01*
X40800Y53778D01*
X40790Y53789D01*
X40782Y53796D01*
X40775Y53801D01*
X40774Y53803D01*
X40774D01*
X40754Y53815D01*
X40733Y53824D01*
X40713Y53831D01*
X40693Y53834D01*
X40676Y53837D01*
X40668Y53838D01*
X40662D01*
X40657Y53839D01*
X40650D01*
X40627Y53838D01*
X40605Y53834D01*
X40588Y53829D01*
X40572Y53823D01*
X40560Y53817D01*
X40551Y53812D01*
X40545Y53808D01*
X40543Y53806D01*
X40529Y53793D01*
X40515Y53777D01*
X40504Y53760D01*
X40494Y53744D01*
X40487Y53729D01*
X40484Y53721D01*
X40482Y53716D01*
X40480Y53711D01*
X40479Y53708D01*
X40478Y53706D01*
Y53705D01*
X40394Y53724D01*
X40400Y53741D01*
X40406Y53756D01*
X40413Y53770D01*
X40419Y53783D01*
X40427Y53795D01*
X40435Y53806D01*
X40443Y53818D01*
X40450Y53827D01*
X40457Y53834D01*
X40464Y53842D01*
X40470Y53848D01*
X40475Y53853D01*
X40480Y53857D01*
X40483Y53860D01*
X40485Y53861D01*
X40486Y53862D01*
X40499Y53870D01*
X40512Y53879D01*
X40525Y53885D01*
X40539Y53891D01*
X40566Y53899D01*
X40591Y53904D01*
X40603Y53907D01*
X40614Y53908D01*
X40624Y53909D01*
X40632Y53910D01*
X40639Y53911D01*
X40648D01*
X40678Y53909D01*
D02*
G37*
G36*
X39630Y53901D02*
X39653Y53897D01*
X39672Y53891D01*
X39689Y53884D01*
X39703Y53877D01*
X39708Y53874D01*
X39713Y53870D01*
X39717Y53868D01*
X39720Y53867D01*
X39720Y53865D01*
X39721D01*
X39738Y53850D01*
X39752Y53832D01*
X39764Y53815D01*
X39773Y53798D01*
X39781Y53782D01*
X39784Y53776D01*
X39786Y53770D01*
X39788Y53765D01*
X39790Y53761D01*
X39791Y53759D01*
Y53758D01*
X39794Y53745D01*
X39798Y53731D01*
X39804Y53700D01*
X39808Y53670D01*
X39811Y53641D01*
X39812Y53627D01*
X39813Y53615D01*
Y53604D01*
X39814Y53594D01*
Y53586D01*
Y53580D01*
Y53576D01*
Y53575D01*
X39813Y53543D01*
X39811Y53512D01*
X39808Y53485D01*
X39804Y53459D01*
X39799Y53435D01*
X39794Y53414D01*
X39788Y53394D01*
X39782Y53377D01*
X39777Y53363D01*
X39770Y53350D01*
X39766Y53339D01*
X39761Y53330D01*
X39757Y53323D01*
X39754Y53318D01*
X39752Y53316D01*
X39751Y53315D01*
X39741Y53304D01*
X39730Y53293D01*
X39718Y53284D01*
X39706Y53277D01*
X39694Y53270D01*
X39682Y53265D01*
X39670Y53261D01*
X39659Y53257D01*
X39647Y53255D01*
X39637Y53253D01*
X39628Y53251D01*
X39621Y53250D01*
X39614Y53249D01*
X39605D01*
X39580Y53251D01*
X39557Y53255D01*
X39537Y53261D01*
X39521Y53267D01*
X39507Y53274D01*
X39502Y53278D01*
X39498Y53280D01*
X39494Y53282D01*
X39491Y53284D01*
X39490Y53286D01*
X39489D01*
X39473Y53302D01*
X39459Y53318D01*
X39447Y53337D01*
X39438Y53353D01*
X39430Y53369D01*
X39426Y53376D01*
X39425Y53382D01*
X39423Y53387D01*
X39421Y53390D01*
X39420Y53392D01*
Y53393D01*
X39415Y53407D01*
X39412Y53421D01*
X39406Y53451D01*
X39402Y53481D01*
X39399Y53511D01*
X39398Y53524D01*
X39397Y53536D01*
Y53547D01*
X39396Y53557D01*
Y53564D01*
Y53571D01*
Y53574D01*
Y53575D01*
Y53593D01*
X39397Y53610D01*
Y53624D01*
X39398Y53639D01*
X39400Y53652D01*
X39401Y53665D01*
X39402Y53676D01*
X39403Y53686D01*
X39404Y53696D01*
X39406Y53704D01*
X39407Y53710D01*
X39408Y53716D01*
X39409Y53721D01*
X39410Y53723D01*
X39411Y53725D01*
Y53726D01*
X39416Y53746D01*
X39423Y53765D01*
X39430Y53781D01*
X39436Y53794D01*
X39442Y53806D01*
X39446Y53815D01*
X39450Y53819D01*
X39451Y53821D01*
X39461Y53835D01*
X39471Y53847D01*
X39482Y53857D01*
X39492Y53867D01*
X39501Y53873D01*
X39509Y53878D01*
X39513Y53880D01*
X39514Y53881D01*
X39515D01*
X39530Y53889D01*
X39546Y53893D01*
X39561Y53897D01*
X39574Y53900D01*
X39586Y53902D01*
X39597Y53903D01*
X39605D01*
X39630Y53901D01*
D02*
G37*
G36*
X124898Y32278D02*
X124914Y32277D01*
X124928Y32274D01*
X124942Y32271D01*
X124955Y32268D01*
X124967Y32264D01*
X124978Y32259D01*
X124988Y32255D01*
X124998Y32250D01*
X125005Y32245D01*
X125012Y32242D01*
X125017Y32238D01*
X125022Y32235D01*
X125025Y32232D01*
X125026Y32231D01*
X125027Y32231D01*
X125037Y32221D01*
X125045Y32211D01*
X125053Y32200D01*
X125060Y32189D01*
X125071Y32167D01*
X125078Y32145D01*
X125081Y32134D01*
X125084Y32124D01*
X125086Y32116D01*
X125087Y32109D01*
X125088Y32102D01*
Y32097D01*
X125089Y32095D01*
Y32094D01*
X125009Y32085D01*
X125007Y32107D01*
X125003Y32125D01*
X124998Y32142D01*
X124991Y32155D01*
X124986Y32166D01*
X124980Y32173D01*
X124976Y32178D01*
X124975Y32180D01*
X124961Y32191D01*
X124946Y32199D01*
X124930Y32206D01*
X124916Y32209D01*
X124903Y32212D01*
X124892Y32213D01*
X124889Y32214D01*
X124883D01*
X124864Y32213D01*
X124846Y32209D01*
X124831Y32204D01*
X124818Y32198D01*
X124808Y32192D01*
X124802Y32187D01*
X124797Y32183D01*
X124795Y32182D01*
X124784Y32169D01*
X124776Y32156D01*
X124769Y32143D01*
X124766Y32130D01*
X124763Y32120D01*
X124762Y32110D01*
X124761Y32105D01*
Y32104D01*
Y32103D01*
X124763Y32086D01*
X124767Y32069D01*
X124773Y32053D01*
X124780Y32038D01*
X124787Y32026D01*
X124793Y32016D01*
X124795Y32012D01*
X124797Y32010D01*
X124799Y32009D01*
Y32008D01*
X124806Y31998D01*
X124816Y31987D01*
X124826Y31976D01*
X124837Y31965D01*
X124860Y31943D01*
X124883Y31921D01*
X124895Y31911D01*
X124905Y31901D01*
X124915Y31893D01*
X124924Y31886D01*
X124930Y31880D01*
X124936Y31876D01*
X124939Y31873D01*
X124940Y31872D01*
X124964Y31852D01*
X124985Y31834D01*
X125002Y31817D01*
X125016Y31803D01*
X125028Y31791D01*
X125037Y31783D01*
X125041Y31778D01*
X125043Y31777D01*
Y31776D01*
X125056Y31760D01*
X125066Y31745D01*
X125075Y31730D01*
X125083Y31717D01*
X125088Y31706D01*
X125092Y31698D01*
X125094Y31692D01*
X125095Y31692D01*
Y31691D01*
X125099Y31680D01*
X125100Y31671D01*
X125102Y31662D01*
X125103Y31654D01*
X125104Y31646D01*
Y31641D01*
Y31637D01*
Y31636D01*
X124680D01*
Y31712D01*
X124995D01*
X124984Y31728D01*
X124978Y31734D01*
X124974Y31741D01*
X124969Y31746D01*
X124965Y31750D01*
X124963Y31753D01*
X124962Y31753D01*
X124957Y31758D01*
X124951Y31763D01*
X124939Y31775D01*
X124924Y31789D01*
X124908Y31802D01*
X124893Y31815D01*
X124887Y31820D01*
X124881Y31826D01*
X124877Y31829D01*
X124873Y31832D01*
X124871Y31834D01*
X124870Y31835D01*
X124855Y31848D01*
X124841Y31860D01*
X124828Y31872D01*
X124816Y31882D01*
X124804Y31892D01*
X124795Y31901D01*
X124786Y31910D01*
X124779Y31917D01*
X124771Y31925D01*
X124766Y31930D01*
X124761Y31935D01*
X124756Y31939D01*
X124752Y31945D01*
X124750Y31947D01*
X124737Y31962D01*
X124726Y31976D01*
X124717Y31990D01*
X124709Y32001D01*
X124704Y32011D01*
X124700Y32019D01*
X124698Y32023D01*
X124697Y32025D01*
X124692Y32039D01*
X124688Y32053D01*
X124684Y32066D01*
X124682Y32077D01*
X124682Y32087D01*
X124681Y32095D01*
Y32099D01*
Y32101D01*
X124682Y32115D01*
X124683Y32128D01*
X124685Y32141D01*
X124689Y32152D01*
X124698Y32174D01*
X124707Y32192D01*
X124713Y32200D01*
X124718Y32207D01*
X124722Y32213D01*
X124727Y32218D01*
X124731Y32221D01*
X124732Y32225D01*
X124734Y32226D01*
X124735Y32227D01*
X124745Y32236D01*
X124756Y32244D01*
X124768Y32251D01*
X124780Y32256D01*
X124804Y32266D01*
X124829Y32272D01*
X124839Y32274D01*
X124849Y32276D01*
X124858Y32277D01*
X124866Y32278D01*
X124872Y32279D01*
X124881D01*
X124898Y32278D01*
D02*
G37*
G36*
X125705Y31906D02*
Y31888D01*
X125704Y31870D01*
X125703Y31853D01*
X125701Y31838D01*
X125699Y31824D01*
X125698Y31811D01*
X125695Y31799D01*
X125693Y31788D01*
X125691Y31778D01*
X125688Y31769D01*
X125687Y31762D01*
X125685Y31756D01*
X125683Y31752D01*
X125682Y31748D01*
X125681Y31746D01*
Y31745D01*
X125671Y31725D01*
X125658Y31706D01*
X125645Y31692D01*
X125631Y31679D01*
X125619Y31668D01*
X125609Y31661D01*
X125605Y31659D01*
X125602Y31657D01*
X125601Y31656D01*
X125600D01*
X125576Y31645D01*
X125552Y31638D01*
X125527Y31632D01*
X125504Y31629D01*
X125494Y31628D01*
X125484Y31627D01*
X125475Y31626D01*
X125467D01*
X125461Y31625D01*
X125453D01*
X125419Y31627D01*
X125405Y31629D01*
X125391Y31631D01*
X125377Y31633D01*
X125365Y31636D01*
X125354Y31639D01*
X125343Y31643D01*
X125334Y31646D01*
X125327Y31649D01*
X125319Y31652D01*
X125314Y31655D01*
X125309Y31657D01*
X125307Y31658D01*
X125305Y31660D01*
X125304D01*
X125283Y31674D01*
X125267Y31690D01*
X125254Y31705D01*
X125243Y31719D01*
X125234Y31732D01*
X125229Y31742D01*
X125227Y31746D01*
X125225Y31749D01*
X125224Y31751D01*
Y31752D01*
X125221Y31763D01*
X125217Y31775D01*
X125211Y31800D01*
X125208Y31826D01*
X125205Y31851D01*
X125204Y31862D01*
X125203Y31873D01*
Y31882D01*
X125202Y31890D01*
Y31897D01*
Y31901D01*
Y31905D01*
Y31906D01*
Y32276D01*
X125287D01*
Y31906D01*
Y31885D01*
X125289Y31864D01*
X125291Y31847D01*
X125294Y31830D01*
X125296Y31815D01*
X125300Y31802D01*
X125303Y31790D01*
X125307Y31779D01*
X125310Y31771D01*
X125314Y31763D01*
X125318Y31757D01*
X125320Y31752D01*
X125323Y31748D01*
X125325Y31745D01*
X125326Y31744D01*
X125327Y31743D01*
X125335Y31736D01*
X125344Y31729D01*
X125365Y31719D01*
X125386Y31712D01*
X125408Y31707D01*
X125429Y31704D01*
X125437Y31703D01*
X125445D01*
X125451Y31702D01*
X125460D01*
X125479Y31703D01*
X125497Y31705D01*
X125514Y31708D01*
X125527Y31713D01*
X125538Y31717D01*
X125546Y31719D01*
X125551Y31722D01*
X125552Y31723D01*
X125565Y31731D01*
X125576Y31741D01*
X125586Y31752D01*
X125592Y31761D01*
X125598Y31770D01*
X125602Y31777D01*
X125604Y31781D01*
X125605Y31783D01*
X125608Y31791D01*
X125610Y31800D01*
X125613Y31819D01*
X125616Y31839D01*
X125618Y31860D01*
X125619Y31877D01*
Y31886D01*
X125620Y31892D01*
Y31898D01*
Y31902D01*
Y31905D01*
Y31906D01*
Y32276D01*
X125705D01*
Y31906D01*
D02*
G37*
G36*
X134345Y38673D02*
X134377Y38669D01*
X134406Y38665D01*
X134420Y38661D01*
X134432Y38658D01*
X134443Y38656D01*
X134453Y38652D01*
X134463Y38649D01*
X134470Y38647D01*
X134475Y38645D01*
X134480Y38644D01*
X134483Y38642D01*
X134484D01*
X134512Y38628D01*
X134537Y38612D01*
X134558Y38596D01*
X134566Y38587D01*
X134574Y38580D01*
X134582Y38572D01*
X134588Y38565D01*
X134594Y38559D01*
X134598Y38553D01*
X134601Y38549D01*
X134604Y38546D01*
X134605Y38544D01*
X134606Y38543D01*
X134613Y38530D01*
X134620Y38517D01*
X134630Y38489D01*
X134637Y38461D01*
X134642Y38435D01*
X134644Y38422D01*
X134646Y38411D01*
X134647Y38400D01*
Y38392D01*
X134647Y38385D01*
Y38375D01*
X134647Y38356D01*
X134645Y38338D01*
X134643Y38322D01*
X134639Y38306D01*
X134635Y38291D01*
X134630Y38277D01*
X134625Y38265D01*
X134620Y38252D01*
X134615Y38242D01*
X134610Y38232D01*
X134606Y38225D01*
X134601Y38217D01*
X134598Y38213D01*
X134596Y38208D01*
X134594Y38206D01*
X134593Y38205D01*
X134582Y38192D01*
X134571Y38181D01*
X134558Y38171D01*
X134545Y38161D01*
X134519Y38144D01*
X134493Y38131D01*
X134481Y38126D01*
X134470Y38121D01*
X134460Y38118D01*
X134451Y38115D01*
X134444Y38112D01*
X134439Y38110D01*
X134435Y38109D01*
X134434D01*
X134413Y38194D01*
X134427Y38198D01*
X134441Y38203D01*
X134454Y38207D01*
X134466Y38212D01*
X134477Y38217D01*
X134487Y38223D01*
X134496Y38229D01*
X134504Y38235D01*
X134512Y38240D01*
X134517Y38245D01*
X134523Y38250D01*
X134527Y38253D01*
X134530Y38257D01*
X134533Y38260D01*
X134534Y38261D01*
X134535Y38262D01*
X134542Y38271D01*
X134548Y38281D01*
X134558Y38301D01*
X134565Y38321D01*
X134570Y38340D01*
X134574Y38357D01*
X134574Y38363D01*
Y38370D01*
X134575Y38375D01*
Y38382D01*
X134574Y38403D01*
X134571Y38424D01*
X134566Y38442D01*
X134561Y38459D01*
X134555Y38472D01*
X134552Y38477D01*
X134550Y38482D01*
X134549Y38485D01*
X134547Y38488D01*
X134546Y38490D01*
Y38491D01*
X134533Y38509D01*
X134519Y38523D01*
X134503Y38536D01*
X134488Y38547D01*
X134475Y38555D01*
X134464Y38560D01*
X134460Y38562D01*
X134457Y38564D01*
X134455Y38565D01*
X134454D01*
X134430Y38572D01*
X134406Y38578D01*
X134382Y38583D01*
X134360Y38585D01*
X134350Y38586D01*
X134341Y38587D01*
X134332D01*
X134326Y38588D01*
X134320D01*
X134316D01*
X134313D01*
X134312D01*
X134288Y38587D01*
X134266Y38585D01*
X134245Y38582D01*
X134227Y38578D01*
X134211Y38575D01*
X134205Y38573D01*
X134199Y38571D01*
X134194Y38571D01*
X134192Y38570D01*
X134190Y38569D01*
X134189D01*
X134168Y38559D01*
X134148Y38549D01*
X134132Y38538D01*
X134119Y38526D01*
X134108Y38516D01*
X134100Y38508D01*
X134096Y38501D01*
X134094Y38500D01*
Y38499D01*
X134082Y38480D01*
X134072Y38459D01*
X134066Y38438D01*
X134062Y38419D01*
X134059Y38401D01*
X134059Y38394D01*
Y38387D01*
X134058Y38383D01*
Y38375D01*
X134059Y38352D01*
X134062Y38331D01*
X134068Y38314D01*
X134073Y38298D01*
X134080Y38286D01*
X134084Y38277D01*
X134088Y38271D01*
X134090Y38269D01*
X134104Y38254D01*
X134120Y38240D01*
X134136Y38229D01*
X134153Y38220D01*
X134168Y38213D01*
X134175Y38210D01*
X134181Y38208D01*
X134185Y38206D01*
X134189Y38204D01*
X134191Y38203D01*
X134192D01*
X134172Y38120D01*
X134156Y38126D01*
X134141Y38131D01*
X134127Y38139D01*
X134113Y38145D01*
X134101Y38153D01*
X134090Y38161D01*
X134079Y38168D01*
X134070Y38176D01*
X134062Y38183D01*
X134055Y38190D01*
X134048Y38196D01*
X134044Y38201D01*
X134039Y38205D01*
X134036Y38209D01*
X134035Y38211D01*
X134034Y38212D01*
X134026Y38225D01*
X134018Y38238D01*
X134011Y38251D01*
X134006Y38265D01*
X133997Y38292D01*
X133992Y38317D01*
X133989Y38329D01*
X133988Y38339D01*
X133987Y38350D01*
X133986Y38358D01*
X133985Y38364D01*
Y38374D01*
X133987Y38404D01*
X133992Y38434D01*
X133997Y38460D01*
X134001Y38472D01*
X134005Y38483D01*
X134009Y38493D01*
X134012Y38502D01*
X134015Y38510D01*
X134018Y38517D01*
X134021Y38522D01*
X134022Y38525D01*
X134023Y38528D01*
X134024Y38529D01*
X134040Y38554D01*
X134059Y38575D01*
X134077Y38594D01*
X134096Y38609D01*
X134112Y38621D01*
X134120Y38626D01*
X134126Y38630D01*
X134131Y38633D01*
X134134Y38635D01*
X134137Y38636D01*
X134138Y38637D01*
X134167Y38650D01*
X134196Y38659D01*
X134226Y38666D01*
X134253Y38670D01*
X134265Y38672D01*
X134277Y38673D01*
X134286Y38674D01*
X134295D01*
X134302Y38675D01*
X134307D01*
X134311D01*
X134312D01*
X134345Y38673D01*
D02*
G37*
G36*
X134225Y37963D02*
X134218Y37949D01*
X134212Y37935D01*
X134206Y37922D01*
X134200Y37911D01*
X134195Y37902D01*
X134192Y37897D01*
X134191Y37896D01*
Y37895D01*
X134181Y37878D01*
X134170Y37863D01*
X134161Y37850D01*
X134153Y37840D01*
X134146Y37831D01*
X134141Y37825D01*
X134137Y37821D01*
X134136Y37820D01*
X134636D01*
Y37741D01*
X133994D01*
Y37792D01*
X134010Y37801D01*
X134024Y37811D01*
X134039Y37823D01*
X134052Y37835D01*
X134063Y37846D01*
X134072Y37854D01*
X134075Y37858D01*
X134078Y37860D01*
X134079Y37861D01*
X134080Y37862D01*
X134096Y37882D01*
X134110Y37901D01*
X134123Y37920D01*
X134133Y37938D01*
X134143Y37954D01*
X134146Y37960D01*
X134149Y37966D01*
X134152Y37971D01*
X134153Y37974D01*
X134155Y37976D01*
Y37977D01*
X134230D01*
X134225Y37963D01*
D02*
G37*
G36*
X134228Y37539D02*
X134243Y37537D01*
X134259Y37535D01*
X134274Y37531D01*
X134287Y37527D01*
X134300Y37522D01*
X134311Y37517D01*
X134321Y37512D01*
X134330Y37507D01*
X134339Y37503D01*
X134345Y37498D01*
X134352Y37493D01*
X134356Y37490D01*
X134359Y37488D01*
X134361Y37486D01*
X134362Y37485D01*
X134372Y37475D01*
X134380Y37464D01*
X134389Y37453D01*
X134395Y37441D01*
X134401Y37430D01*
X134405Y37419D01*
X134412Y37397D01*
X134414Y37388D01*
X134416Y37379D01*
X134417Y37371D01*
X134418Y37364D01*
X134419Y37358D01*
Y37351D01*
X134418Y37333D01*
X134415Y37317D01*
X134412Y37302D01*
X134407Y37288D01*
X134403Y37278D01*
X134400Y37270D01*
X134397Y37264D01*
X134396Y37262D01*
X134387Y37247D01*
X134377Y37235D01*
X134366Y37223D01*
X134357Y37214D01*
X134348Y37208D01*
X134341Y37202D01*
X134337Y37198D01*
X134335Y37198D01*
X134342D01*
X134347D01*
X134350D01*
X134351D01*
X134369Y37198D01*
X134387Y37199D01*
X134402Y37201D01*
X134417Y37203D01*
X134429Y37206D01*
X134439Y37208D01*
X134442Y37209D01*
X134445D01*
X134446Y37210D01*
X134447D01*
X134463Y37214D01*
X134478Y37219D01*
X134491Y37223D01*
X134502Y37228D01*
X134511Y37232D01*
X134517Y37235D01*
X134522Y37237D01*
X134523Y37238D01*
X134533Y37246D01*
X134541Y37253D01*
X134549Y37260D01*
X134555Y37268D01*
X134561Y37273D01*
X134564Y37279D01*
X134566Y37283D01*
X134567Y37284D01*
X134573Y37294D01*
X134576Y37305D01*
X134579Y37315D01*
X134581Y37325D01*
X134582Y37333D01*
X134583Y37340D01*
Y37346D01*
X134582Y37361D01*
X134579Y37375D01*
X134575Y37387D01*
X134571Y37397D01*
X134567Y37405D01*
X134563Y37411D01*
X134561Y37415D01*
X134560Y37416D01*
X134549Y37425D01*
X134537Y37432D01*
X134525Y37439D01*
X134512Y37444D01*
X134500Y37447D01*
X134490Y37450D01*
X134487Y37451D01*
X134485D01*
X134483Y37452D01*
X134482D01*
X134488Y37528D01*
X134515Y37522D01*
X134538Y37515D01*
X134559Y37505D01*
X134575Y37496D01*
X134588Y37487D01*
X134594Y37482D01*
X134598Y37479D01*
X134601Y37476D01*
X134604Y37473D01*
X134605Y37472D01*
X134606Y37471D01*
X134613Y37462D01*
X134620Y37452D01*
X134630Y37431D01*
X134637Y37411D01*
X134642Y37392D01*
X134646Y37374D01*
X134647Y37367D01*
Y37360D01*
X134647Y37356D01*
Y37348D01*
X134646Y37322D01*
X134642Y37299D01*
X134635Y37278D01*
X134628Y37260D01*
X134625Y37253D01*
X134622Y37246D01*
X134618Y37240D01*
X134615Y37235D01*
X134613Y37231D01*
X134611Y37228D01*
X134610Y37226D01*
Y37225D01*
X134594Y37207D01*
X134576Y37190D01*
X134558Y37177D01*
X134540Y37166D01*
X134525Y37157D01*
X134517Y37153D01*
X134512Y37150D01*
X134506Y37149D01*
X134502Y37147D01*
X134500Y37146D01*
X134500D01*
X134486Y37141D01*
X134470Y37137D01*
X134439Y37130D01*
X134405Y37125D01*
X134374Y37123D01*
X134360Y37121D01*
X134346Y37120D01*
X134334D01*
X134324Y37119D01*
X134316D01*
X134309D01*
X134304D01*
X134304D01*
X134282D01*
X134262Y37120D01*
X134243Y37122D01*
X134226Y37124D01*
X134210Y37125D01*
X134195Y37127D01*
X134181Y37130D01*
X134169Y37133D01*
X134159Y37136D01*
X134150Y37137D01*
X134142Y37140D01*
X134135Y37142D01*
X134131Y37144D01*
X134127Y37146D01*
X134125Y37147D01*
X134124D01*
X134102Y37158D01*
X134083Y37170D01*
X134066Y37184D01*
X134052Y37196D01*
X134042Y37208D01*
X134034Y37217D01*
X134032Y37221D01*
X134030Y37223D01*
X134028Y37224D01*
Y37225D01*
X134017Y37245D01*
X134009Y37264D01*
X134002Y37284D01*
X133998Y37301D01*
X133996Y37317D01*
X133995Y37323D01*
Y37328D01*
X133994Y37333D01*
Y37339D01*
X133995Y37355D01*
X133997Y37370D01*
X133999Y37384D01*
X134003Y37397D01*
X134013Y37422D01*
X134018Y37433D01*
X134023Y37443D01*
X134030Y37452D01*
X134034Y37459D01*
X134040Y37467D01*
X134045Y37472D01*
X134048Y37477D01*
X134051Y37480D01*
X134053Y37481D01*
X134054Y37482D01*
X134065Y37493D01*
X134078Y37501D01*
X134090Y37509D01*
X134103Y37516D01*
X134117Y37521D01*
X134130Y37526D01*
X134154Y37532D01*
X134166Y37535D01*
X134176Y37537D01*
X134186Y37538D01*
X134194Y37539D01*
X134201Y37540D01*
X134206D01*
X134209D01*
X134210D01*
X134228Y37539D01*
D02*
G37*
G36*
X131670Y38673D02*
X131702Y38669D01*
X131731Y38665D01*
X131745Y38661D01*
X131757Y38658D01*
X131768Y38656D01*
X131778Y38652D01*
X131788Y38649D01*
X131795Y38647D01*
X131800Y38645D01*
X131805Y38644D01*
X131808Y38642D01*
X131809D01*
X131837Y38628D01*
X131862Y38612D01*
X131883Y38596D01*
X131891Y38587D01*
X131899Y38580D01*
X131907Y38572D01*
X131913Y38565D01*
X131919Y38559D01*
X131923Y38553D01*
X131926Y38549D01*
X131929Y38546D01*
X131930Y38544D01*
X131931Y38543D01*
X131938Y38530D01*
X131945Y38517D01*
X131955Y38489D01*
X131962Y38461D01*
X131967Y38435D01*
X131969Y38422D01*
X131971Y38411D01*
X131972Y38400D01*
Y38392D01*
X131972Y38385D01*
Y38375D01*
X131972Y38356D01*
X131970Y38338D01*
X131968Y38322D01*
X131964Y38306D01*
X131960Y38291D01*
X131955Y38277D01*
X131950Y38265D01*
X131945Y38252D01*
X131940Y38242D01*
X131935Y38232D01*
X131931Y38225D01*
X131926Y38217D01*
X131923Y38213D01*
X131921Y38208D01*
X131919Y38206D01*
X131918Y38205D01*
X131907Y38192D01*
X131896Y38181D01*
X131883Y38171D01*
X131870Y38161D01*
X131844Y38144D01*
X131818Y38131D01*
X131806Y38126D01*
X131795Y38121D01*
X131785Y38118D01*
X131776Y38115D01*
X131769Y38112D01*
X131764Y38110D01*
X131760Y38109D01*
X131759D01*
X131738Y38194D01*
X131752Y38198D01*
X131766Y38203D01*
X131779Y38207D01*
X131791Y38212D01*
X131802Y38217D01*
X131812Y38223D01*
X131821Y38229D01*
X131829Y38235D01*
X131837Y38240D01*
X131842Y38245D01*
X131848Y38250D01*
X131852Y38253D01*
X131855Y38257D01*
X131858Y38260D01*
X131859Y38261D01*
X131860Y38262D01*
X131867Y38271D01*
X131873Y38281D01*
X131883Y38301D01*
X131890Y38321D01*
X131895Y38340D01*
X131898Y38357D01*
X131899Y38363D01*
Y38370D01*
X131900Y38375D01*
Y38382D01*
X131899Y38403D01*
X131896Y38424D01*
X131891Y38442D01*
X131886Y38459D01*
X131880Y38472D01*
X131877Y38477D01*
X131875Y38482D01*
X131874Y38485D01*
X131872Y38488D01*
X131871Y38490D01*
Y38491D01*
X131858Y38509D01*
X131844Y38523D01*
X131828Y38536D01*
X131813Y38547D01*
X131800Y38555D01*
X131789Y38560D01*
X131785Y38562D01*
X131782Y38564D01*
X131780Y38565D01*
X131779D01*
X131755Y38572D01*
X131731Y38578D01*
X131707Y38583D01*
X131685Y38585D01*
X131675Y38586D01*
X131666Y38587D01*
X131657D01*
X131651Y38588D01*
X131645D01*
X131641D01*
X131638D01*
X131637D01*
X131613Y38587D01*
X131591Y38585D01*
X131570Y38582D01*
X131552Y38578D01*
X131536Y38575D01*
X131530Y38573D01*
X131524Y38571D01*
X131519Y38571D01*
X131517Y38570D01*
X131515Y38569D01*
X131514D01*
X131493Y38559D01*
X131473Y38549D01*
X131457Y38538D01*
X131444Y38526D01*
X131433Y38516D01*
X131425Y38508D01*
X131421Y38501D01*
X131419Y38500D01*
Y38499D01*
X131407Y38480D01*
X131397Y38459D01*
X131391Y38438D01*
X131387Y38419D01*
X131384Y38401D01*
X131384Y38394D01*
Y38387D01*
X131383Y38383D01*
Y38375D01*
X131384Y38352D01*
X131387Y38331D01*
X131393Y38314D01*
X131398Y38298D01*
X131405Y38286D01*
X131409Y38277D01*
X131413Y38271D01*
X131415Y38269D01*
X131429Y38254D01*
X131445Y38240D01*
X131461Y38229D01*
X131478Y38220D01*
X131493Y38213D01*
X131500Y38210D01*
X131506Y38208D01*
X131510Y38206D01*
X131514Y38204D01*
X131516Y38203D01*
X131517D01*
X131497Y38120D01*
X131481Y38126D01*
X131466Y38131D01*
X131452Y38139D01*
X131438Y38145D01*
X131426Y38153D01*
X131415Y38161D01*
X131404Y38168D01*
X131395Y38176D01*
X131387Y38183D01*
X131380Y38190D01*
X131373Y38196D01*
X131369Y38201D01*
X131364Y38205D01*
X131361Y38209D01*
X131360Y38211D01*
X131359Y38212D01*
X131351Y38225D01*
X131343Y38238D01*
X131336Y38251D01*
X131331Y38265D01*
X131322Y38292D01*
X131317Y38317D01*
X131314Y38329D01*
X131313Y38339D01*
X131312Y38350D01*
X131311Y38358D01*
X131310Y38364D01*
Y38374D01*
X131312Y38404D01*
X131317Y38434D01*
X131322Y38460D01*
X131326Y38472D01*
X131330Y38483D01*
X131334Y38493D01*
X131337Y38502D01*
X131340Y38510D01*
X131343Y38517D01*
X131346Y38522D01*
X131347Y38525D01*
X131348Y38528D01*
X131349Y38529D01*
X131365Y38554D01*
X131384Y38575D01*
X131402Y38594D01*
X131421Y38609D01*
X131437Y38621D01*
X131445Y38626D01*
X131451Y38630D01*
X131456Y38633D01*
X131459Y38635D01*
X131462Y38636D01*
X131463Y38637D01*
X131492Y38650D01*
X131521Y38659D01*
X131551Y38666D01*
X131578Y38670D01*
X131590Y38672D01*
X131602Y38673D01*
X131611Y38674D01*
X131620D01*
X131627Y38675D01*
X131632D01*
X131636D01*
X131637D01*
X131670Y38673D01*
D02*
G37*
G36*
X131550Y37963D02*
X131543Y37949D01*
X131537Y37935D01*
X131531Y37922D01*
X131525Y37911D01*
X131520Y37902D01*
X131517Y37897D01*
X131516Y37896D01*
Y37895D01*
X131506Y37878D01*
X131495Y37863D01*
X131486Y37850D01*
X131478Y37840D01*
X131471Y37831D01*
X131466Y37825D01*
X131462Y37821D01*
X131461Y37820D01*
X131961D01*
Y37741D01*
X131319D01*
Y37792D01*
X131335Y37801D01*
X131349Y37811D01*
X131364Y37823D01*
X131377Y37835D01*
X131388Y37846D01*
X131397Y37854D01*
X131400Y37858D01*
X131403Y37860D01*
X131404Y37861D01*
X131405Y37862D01*
X131421Y37882D01*
X131435Y37901D01*
X131448Y37920D01*
X131458Y37938D01*
X131468Y37954D01*
X131471Y37960D01*
X131474Y37966D01*
X131477Y37971D01*
X131478Y37974D01*
X131480Y37976D01*
Y37977D01*
X131555D01*
X131550Y37963D01*
D02*
G37*
G36*
X131792Y37540D02*
X131807Y37538D01*
X131821Y37535D01*
X131835Y37531D01*
X131858Y37522D01*
X131869Y37517D01*
X131878Y37512D01*
X131887Y37506D01*
X131895Y37502D01*
X131901Y37496D01*
X131907Y37493D01*
X131911Y37489D01*
X131914Y37486D01*
X131916Y37484D01*
X131917Y37483D01*
X131927Y37472D01*
X131935Y37460D01*
X131943Y37447D01*
X131949Y37434D01*
X131954Y37422D01*
X131959Y37409D01*
X131965Y37384D01*
X131968Y37373D01*
X131970Y37363D01*
X131971Y37354D01*
X131972Y37345D01*
X131972Y37339D01*
Y37330D01*
X131972Y37312D01*
X131970Y37296D01*
X131967Y37281D01*
X131964Y37266D01*
X131960Y37253D01*
X131955Y37240D01*
X131950Y37228D01*
X131945Y37218D01*
X131939Y37209D01*
X131935Y37200D01*
X131930Y37194D01*
X131925Y37187D01*
X131923Y37183D01*
X131920Y37180D01*
X131918Y37178D01*
X131917Y37177D01*
X131906Y37167D01*
X131895Y37158D01*
X131884Y37150D01*
X131872Y37144D01*
X131861Y37137D01*
X131849Y37133D01*
X131827Y37126D01*
X131817Y37124D01*
X131808Y37122D01*
X131800Y37121D01*
X131793Y37120D01*
X131788Y37119D01*
X131783D01*
X131780D01*
X131779D01*
X131758Y37120D01*
X131739Y37124D01*
X131721Y37129D01*
X131706Y37135D01*
X131694Y37140D01*
X131685Y37146D01*
X131679Y37149D01*
X131678Y37150D01*
X131678D01*
X131663Y37163D01*
X131650Y37177D01*
X131640Y37192D01*
X131630Y37206D01*
X131624Y37219D01*
X131619Y37230D01*
X131617Y37234D01*
X131617Y37236D01*
X131616Y37238D01*
Y37239D01*
X131608Y37223D01*
X131600Y37209D01*
X131592Y37197D01*
X131583Y37186D01*
X131576Y37179D01*
X131570Y37174D01*
X131567Y37170D01*
X131565Y37169D01*
X131552Y37161D01*
X131539Y37155D01*
X131526Y37150D01*
X131513Y37148D01*
X131503Y37146D01*
X131494Y37145D01*
X131489D01*
X131488D01*
X131487D01*
X131474Y37146D01*
X131462Y37147D01*
X131439Y37153D01*
X131419Y37162D01*
X131401Y37171D01*
X131387Y37180D01*
X131382Y37185D01*
X131376Y37188D01*
X131372Y37192D01*
X131370Y37195D01*
X131369Y37196D01*
X131368Y37197D01*
X131359Y37207D01*
X131351Y37217D01*
X131345Y37228D01*
X131339Y37239D01*
X131331Y37261D01*
X131325Y37284D01*
X131322Y37293D01*
X131322Y37302D01*
X131321Y37310D01*
X131320Y37318D01*
X131319Y37323D01*
Y37332D01*
X131320Y37346D01*
X131321Y37361D01*
X131326Y37387D01*
X131330Y37399D01*
X131334Y37410D01*
X131338Y37420D01*
X131343Y37430D01*
X131347Y37437D01*
X131352Y37444D01*
X131356Y37451D01*
X131359Y37456D01*
X131362Y37459D01*
X131365Y37462D01*
X131366Y37464D01*
X131367Y37465D01*
X131376Y37473D01*
X131385Y37481D01*
X131396Y37488D01*
X131406Y37493D01*
X131425Y37503D01*
X131444Y37508D01*
X131459Y37512D01*
X131467Y37513D01*
X131472Y37514D01*
X131478Y37515D01*
X131482D01*
X131483D01*
X131484D01*
X131501Y37514D01*
X131517Y37511D01*
X131531Y37507D01*
X131543Y37503D01*
X131552Y37499D01*
X131559Y37495D01*
X131563Y37493D01*
X131565Y37492D01*
X131576Y37481D01*
X131586Y37470D01*
X131595Y37458D01*
X131603Y37446D01*
X131608Y37435D01*
X131612Y37427D01*
X131614Y37423D01*
X131615Y37420D01*
X131616Y37419D01*
Y37419D01*
X131622Y37440D01*
X131630Y37457D01*
X131641Y37473D01*
X131650Y37486D01*
X131659Y37496D01*
X131666Y37504D01*
X131671Y37507D01*
X131672Y37509D01*
X131673D01*
X131690Y37519D01*
X131707Y37528D01*
X131724Y37533D01*
X131740Y37537D01*
X131755Y37539D01*
X131762Y37540D01*
X131767D01*
X131771Y37541D01*
X131775D01*
X131776D01*
X131777D01*
X131792Y37540D01*
D02*
G37*
G36*
X57135Y20932D02*
X57151Y20930D01*
X57166Y20927D01*
X57180Y20924D01*
X57193Y20920D01*
X57206Y20915D01*
X57217Y20911D01*
X57227Y20905D01*
X57237Y20900D01*
X57245Y20895D01*
X57251Y20890D01*
X57258Y20886D01*
X57262Y20883D01*
X57265Y20880D01*
X57267Y20878D01*
X57268Y20877D01*
X57278Y20867D01*
X57287Y20856D01*
X57295Y20844D01*
X57301Y20833D01*
X57308Y20822D01*
X57312Y20811D01*
X57319Y20790D01*
X57322Y20780D01*
X57323Y20771D01*
X57324Y20764D01*
X57325Y20756D01*
X57326Y20751D01*
Y20743D01*
X57325Y20727D01*
X57323Y20711D01*
X57320Y20696D01*
X57316Y20683D01*
X57311Y20672D01*
X57309Y20664D01*
X57306Y20658D01*
X57305Y20657D01*
Y20656D01*
X57296Y20642D01*
X57286Y20629D01*
X57275Y20617D01*
X57264Y20607D01*
X57255Y20599D01*
X57248Y20593D01*
X57242Y20589D01*
X57241Y20588D01*
X57258D01*
X57274Y20589D01*
X57289Y20590D01*
X57304Y20592D01*
X57317Y20593D01*
X57329Y20594D01*
X57340Y20596D01*
X57350Y20599D01*
X57359Y20601D01*
X57367Y20603D01*
X57373Y20605D01*
X57379Y20606D01*
X57383Y20607D01*
X57385Y20608D01*
X57387Y20609D01*
X57388D01*
X57407Y20618D01*
X57423Y20628D01*
X57436Y20638D01*
X57447Y20647D01*
X57457Y20655D01*
X57463Y20662D01*
X57467Y20667D01*
X57468Y20668D01*
X57475Y20679D01*
X57480Y20691D01*
X57483Y20702D01*
X57486Y20713D01*
X57488Y20721D01*
X57489Y20728D01*
Y20735D01*
X57487Y20752D01*
X57483Y20767D01*
X57478Y20780D01*
X57472Y20792D01*
X57466Y20802D01*
X57460Y20808D01*
X57457Y20812D01*
X57455Y20814D01*
X57446Y20820D01*
X57436Y20826D01*
X57425Y20832D01*
X57414Y20836D01*
X57404Y20839D01*
X57396Y20842D01*
X57390Y20843D01*
X57389Y20844D01*
X57388D01*
X57395Y20923D01*
X57421Y20917D01*
X57444Y20909D01*
X57464Y20900D01*
X57481Y20889D01*
X57494Y20879D01*
X57499Y20875D01*
X57504Y20871D01*
X57507Y20868D01*
X57509Y20865D01*
X57510Y20864D01*
X57511Y20863D01*
X57519Y20854D01*
X57525Y20844D01*
X57536Y20824D01*
X57543Y20803D01*
X57548Y20784D01*
X57552Y20766D01*
X57553Y20759D01*
Y20753D01*
X57554Y20747D01*
Y20740D01*
X57553Y20721D01*
X57551Y20704D01*
X57547Y20687D01*
X57543Y20671D01*
X57536Y20657D01*
X57531Y20643D01*
X57523Y20631D01*
X57517Y20620D01*
X57510Y20611D01*
X57503Y20602D01*
X57497Y20594D01*
X57492Y20589D01*
X57486Y20584D01*
X57482Y20581D01*
X57481Y20579D01*
X57480Y20578D01*
X57463Y20566D01*
X57444Y20556D01*
X57423Y20546D01*
X57402Y20538D01*
X57380Y20532D01*
X57358Y20526D01*
X57335Y20521D01*
X57313Y20518D01*
X57292Y20515D01*
X57273Y20513D01*
X57255Y20511D01*
X57240Y20510D01*
X57227D01*
X57218Y20509D01*
X57214D01*
X57212D01*
X57211D01*
X57210D01*
X57180Y20510D01*
X57152Y20512D01*
X57126Y20515D01*
X57102Y20520D01*
X57081Y20524D01*
X57062Y20529D01*
X57044Y20534D01*
X57028Y20541D01*
X57016Y20546D01*
X57004Y20552D01*
X56994Y20557D01*
X56986Y20562D01*
X56979Y20566D01*
X56976Y20569D01*
X56973Y20570D01*
X56972Y20571D01*
X56959Y20583D01*
X56948Y20596D01*
X56939Y20609D01*
X56931Y20622D01*
X56923Y20636D01*
X56918Y20649D01*
X56913Y20662D01*
X56909Y20675D01*
X56906Y20686D01*
X56904Y20697D01*
X56902Y20706D01*
X56901Y20715D01*
Y20722D01*
X56900Y20727D01*
Y20731D01*
X56901Y20753D01*
X56905Y20772D01*
X56908Y20790D01*
X56914Y20805D01*
X56918Y20817D01*
X56923Y20826D01*
X56924Y20830D01*
X56926Y20833D01*
X56927Y20834D01*
Y20835D01*
X56938Y20851D01*
X56951Y20865D01*
X56964Y20877D01*
X56977Y20888D01*
X56989Y20896D01*
X56998Y20901D01*
X57002Y20903D01*
X57004Y20905D01*
X57005Y20906D01*
X57006D01*
X57026Y20915D01*
X57046Y20922D01*
X57065Y20926D01*
X57082Y20929D01*
X57097Y20932D01*
X57102D01*
X57108Y20933D01*
X57113D01*
X57115D01*
X57117D01*
X57118D01*
X57135Y20932D01*
D02*
G37*
G36*
Y20356D02*
X57120Y20352D01*
X57106Y20348D01*
X57093Y20343D01*
X57081Y20338D01*
X57070Y20333D01*
X57061Y20327D01*
X57052Y20321D01*
X57043Y20315D01*
X57036Y20311D01*
X57030Y20305D01*
X57025Y20300D01*
X57020Y20297D01*
X57017Y20293D01*
X57015Y20290D01*
X57014Y20289D01*
X57013Y20288D01*
X57005Y20279D01*
X57000Y20269D01*
X56990Y20249D01*
X56982Y20229D01*
X56978Y20210D01*
X56974Y20193D01*
X56973Y20187D01*
Y20180D01*
X56972Y20175D01*
Y20168D01*
X56973Y20147D01*
X56977Y20127D01*
X56981Y20108D01*
X56987Y20091D01*
X56992Y20079D01*
X56995Y20073D01*
X56997Y20068D01*
X56999Y20065D01*
X57001Y20062D01*
X57002Y20060D01*
Y20059D01*
X57015Y20042D01*
X57028Y20027D01*
X57044Y20014D01*
X57059Y20004D01*
X57072Y19995D01*
X57083Y19990D01*
X57088Y19988D01*
X57090Y19986D01*
X57092Y19985D01*
X57093D01*
X57117Y19978D01*
X57141Y19972D01*
X57165Y19968D01*
X57188Y19965D01*
X57198Y19964D01*
X57207Y19963D01*
X57215D01*
X57222Y19962D01*
X57227D01*
X57232D01*
X57235D01*
X57236D01*
X57260Y19963D01*
X57282Y19965D01*
X57302Y19969D01*
X57321Y19972D01*
X57336Y19975D01*
X57343Y19977D01*
X57348Y19979D01*
X57353Y19980D01*
X57356Y19981D01*
X57358Y19981D01*
X57359D01*
X57380Y19991D01*
X57399Y20001D01*
X57415Y20012D01*
X57429Y20024D01*
X57440Y20034D01*
X57447Y20042D01*
X57452Y20049D01*
X57454Y20050D01*
Y20051D01*
X57466Y20070D01*
X57475Y20091D01*
X57482Y20112D01*
X57485Y20131D01*
X57488Y20149D01*
X57489Y20156D01*
Y20163D01*
X57490Y20167D01*
Y20175D01*
X57489Y20198D01*
X57485Y20219D01*
X57480Y20237D01*
X57474Y20252D01*
X57468Y20264D01*
X57463Y20274D01*
X57459Y20279D01*
X57457Y20281D01*
X57444Y20296D01*
X57428Y20310D01*
X57411Y20321D01*
X57395Y20330D01*
X57380Y20337D01*
X57372Y20340D01*
X57367Y20342D01*
X57362Y20344D01*
X57359Y20346D01*
X57357Y20347D01*
X57356D01*
X57375Y20430D01*
X57392Y20424D01*
X57407Y20419D01*
X57421Y20411D01*
X57434Y20405D01*
X57446Y20397D01*
X57457Y20389D01*
X57469Y20382D01*
X57478Y20374D01*
X57485Y20367D01*
X57493Y20361D01*
X57499Y20354D01*
X57504Y20349D01*
X57508Y20345D01*
X57511Y20341D01*
X57512Y20339D01*
X57513Y20338D01*
X57521Y20325D01*
X57530Y20312D01*
X57536Y20299D01*
X57542Y20286D01*
X57550Y20258D01*
X57556Y20233D01*
X57558Y20221D01*
X57559Y20211D01*
X57560Y20201D01*
X57561Y20192D01*
X57562Y20186D01*
Y20177D01*
X57560Y20146D01*
X57556Y20116D01*
X57550Y20091D01*
X57546Y20079D01*
X57543Y20067D01*
X57539Y20057D01*
X57535Y20048D01*
X57532Y20041D01*
X57530Y20033D01*
X57527Y20029D01*
X57525Y20025D01*
X57524Y20022D01*
X57523Y20021D01*
X57507Y19996D01*
X57489Y19975D01*
X57470Y19956D01*
X57452Y19941D01*
X57435Y19929D01*
X57428Y19924D01*
X57421Y19920D01*
X57417Y19917D01*
X57413Y19915D01*
X57410Y19914D01*
X57409Y19913D01*
X57381Y19900D01*
X57351Y19891D01*
X57322Y19884D01*
X57295Y19880D01*
X57283Y19878D01*
X57271Y19877D01*
X57261Y19876D01*
X57252D01*
X57246Y19875D01*
X57240D01*
X57237D01*
X57236D01*
X57202Y19877D01*
X57170Y19881D01*
X57141Y19885D01*
X57127Y19889D01*
X57115Y19892D01*
X57104Y19895D01*
X57094Y19898D01*
X57085Y19901D01*
X57077Y19903D01*
X57072Y19906D01*
X57067Y19907D01*
X57065Y19908D01*
X57064D01*
X57036Y19922D01*
X57011Y19938D01*
X56990Y19955D01*
X56981Y19963D01*
X56973Y19970D01*
X56966Y19978D01*
X56959Y19985D01*
X56954Y19992D01*
X56950Y19997D01*
X56946Y20001D01*
X56943Y20005D01*
X56943Y20006D01*
X56942Y20007D01*
X56934Y20020D01*
X56928Y20033D01*
X56918Y20061D01*
X56910Y20089D01*
X56906Y20115D01*
X56904Y20128D01*
X56902Y20140D01*
X56901Y20150D01*
Y20158D01*
X56900Y20165D01*
Y20176D01*
X56901Y20194D01*
X56903Y20212D01*
X56905Y20228D01*
X56908Y20244D01*
X56913Y20259D01*
X56918Y20273D01*
X56922Y20286D01*
X56928Y20298D01*
X56932Y20308D01*
X56937Y20318D01*
X56942Y20325D01*
X56946Y20333D01*
X56950Y20337D01*
X56952Y20342D01*
X56954Y20344D01*
X56955Y20345D01*
X56966Y20358D01*
X56977Y20369D01*
X56990Y20379D01*
X57003Y20389D01*
X57028Y20406D01*
X57054Y20419D01*
X57066Y20424D01*
X57077Y20429D01*
X57088Y20433D01*
X57096Y20435D01*
X57103Y20438D01*
X57109Y20440D01*
X57113Y20441D01*
X57114D01*
X57135Y20356D01*
D02*
G37*
G36*
X32626Y50848D02*
X32659Y50844D01*
X32687Y50840D01*
X32701Y50836D01*
X32713Y50833D01*
X32724Y50830D01*
X32734Y50827D01*
X32744Y50824D01*
X32751Y50822D01*
X32757Y50819D01*
X32761Y50818D01*
X32764Y50817D01*
X32765D01*
X32793Y50803D01*
X32818Y50787D01*
X32839Y50770D01*
X32847Y50762D01*
X32855Y50755D01*
X32863Y50747D01*
X32869Y50740D01*
X32875Y50733D01*
X32879Y50728D01*
X32882Y50724D01*
X32885Y50720D01*
X32886Y50719D01*
X32887Y50718D01*
X32894Y50705D01*
X32901Y50692D01*
X32911Y50664D01*
X32918Y50636D01*
X32923Y50609D01*
X32925Y50596D01*
X32927Y50585D01*
X32928Y50575D01*
Y50567D01*
X32929Y50559D01*
Y50549D01*
X32928Y50531D01*
X32926Y50513D01*
X32924Y50497D01*
X32920Y50481D01*
X32916Y50466D01*
X32911Y50452D01*
X32906Y50439D01*
X32901Y50427D01*
X32896Y50417D01*
X32892Y50407D01*
X32887Y50400D01*
X32882Y50392D01*
X32879Y50388D01*
X32877Y50383D01*
X32875Y50381D01*
X32874Y50380D01*
X32863Y50367D01*
X32852Y50356D01*
X32839Y50346D01*
X32826Y50336D01*
X32800Y50319D01*
X32774Y50306D01*
X32762Y50301D01*
X32751Y50296D01*
X32741Y50292D01*
X32733Y50290D01*
X32725Y50287D01*
X32720Y50285D01*
X32716Y50284D01*
X32715D01*
X32694Y50369D01*
X32708Y50373D01*
X32722Y50377D01*
X32735Y50382D01*
X32747Y50387D01*
X32758Y50392D01*
X32768Y50398D01*
X32777Y50404D01*
X32785Y50410D01*
X32793Y50414D01*
X32798Y50420D01*
X32804Y50424D01*
X32808Y50428D01*
X32811Y50432D01*
X32814Y50435D01*
X32815Y50436D01*
X32816Y50437D01*
X32823Y50446D01*
X32829Y50456D01*
X32839Y50476D01*
X32846Y50496D01*
X32851Y50515D01*
X32855Y50532D01*
X32855Y50538D01*
Y50545D01*
X32856Y50550D01*
Y50557D01*
X32855Y50578D01*
X32852Y50598D01*
X32847Y50617D01*
X32842Y50633D01*
X32836Y50646D01*
X32833Y50652D01*
X32831Y50657D01*
X32830Y50660D01*
X32828Y50663D01*
X32827Y50665D01*
Y50666D01*
X32814Y50683D01*
X32800Y50698D01*
X32784Y50711D01*
X32769Y50721D01*
X32757Y50730D01*
X32745Y50735D01*
X32741Y50737D01*
X32738Y50739D01*
X32736Y50740D01*
X32735D01*
X32711Y50747D01*
X32687Y50753D01*
X32663Y50757D01*
X32641Y50760D01*
X32631Y50761D01*
X32622Y50762D01*
X32613D01*
X32607Y50763D01*
X32601D01*
X32597D01*
X32594D01*
X32593D01*
X32569Y50762D01*
X32547Y50760D01*
X32526Y50756D01*
X32508Y50753D01*
X32492Y50750D01*
X32486Y50748D01*
X32480Y50746D01*
X32475Y50745D01*
X32473Y50744D01*
X32471Y50743D01*
X32470D01*
X32449Y50734D01*
X32429Y50724D01*
X32414Y50713D01*
X32400Y50701D01*
X32389Y50691D01*
X32381Y50682D01*
X32377Y50676D01*
X32375Y50675D01*
Y50674D01*
X32363Y50655D01*
X32353Y50633D01*
X32347Y50613D01*
X32343Y50594D01*
X32340Y50576D01*
X32340Y50569D01*
Y50562D01*
X32339Y50558D01*
Y50550D01*
X32340Y50527D01*
X32343Y50506D01*
X32349Y50488D01*
X32354Y50473D01*
X32361Y50461D01*
X32365Y50451D01*
X32369Y50446D01*
X32371Y50444D01*
X32385Y50429D01*
X32401Y50415D01*
X32417Y50404D01*
X32434Y50395D01*
X32449Y50388D01*
X32456Y50385D01*
X32462Y50383D01*
X32466Y50381D01*
X32470Y50379D01*
X32472Y50378D01*
X32473D01*
X32453Y50295D01*
X32437Y50301D01*
X32422Y50306D01*
X32408Y50314D01*
X32394Y50320D01*
X32382Y50327D01*
X32371Y50336D01*
X32360Y50343D01*
X32351Y50351D01*
X32343Y50358D01*
X32336Y50364D01*
X32329Y50371D01*
X32325Y50375D01*
X32320Y50380D01*
X32317Y50384D01*
X32316Y50386D01*
X32316Y50387D01*
X32307Y50400D01*
X32299Y50412D01*
X32292Y50425D01*
X32287Y50439D01*
X32279Y50467D01*
X32273Y50492D01*
X32270Y50504D01*
X32269Y50514D01*
X32268Y50524D01*
X32267Y50533D01*
X32267Y50539D01*
Y50548D01*
X32268Y50579D01*
X32273Y50608D01*
X32279Y50634D01*
X32282Y50646D01*
X32286Y50657D01*
X32290Y50668D01*
X32293Y50677D01*
X32296Y50684D01*
X32299Y50692D01*
X32302Y50696D01*
X32304Y50700D01*
X32304Y50703D01*
X32305Y50704D01*
X32321Y50729D01*
X32340Y50750D01*
X32358Y50768D01*
X32377Y50784D01*
X32393Y50796D01*
X32401Y50801D01*
X32407Y50804D01*
X32412Y50808D01*
X32415Y50810D01*
X32418Y50811D01*
X32419Y50812D01*
X32448Y50825D01*
X32477Y50834D01*
X32507Y50841D01*
X32534Y50845D01*
X32546Y50847D01*
X32558Y50848D01*
X32567Y50849D01*
X32576D01*
X32583Y50850D01*
X32588D01*
X32592D01*
X32593D01*
X32626Y50848D01*
D02*
G37*
G36*
X32917Y49799D02*
X32842D01*
Y50114D01*
X32826Y50103D01*
X32819Y50097D01*
X32813Y50093D01*
X32807Y50088D01*
X32804Y50084D01*
X32801Y50081D01*
X32800Y50081D01*
X32795Y50076D01*
X32791Y50070D01*
X32779Y50057D01*
X32765Y50043D01*
X32751Y50027D01*
X32739Y50012D01*
X32733Y50006D01*
X32728Y50000D01*
X32724Y49995D01*
X32721Y49992D01*
X32720Y49990D01*
X32719Y49989D01*
X32706Y49974D01*
X32694Y49959D01*
X32682Y49946D01*
X32671Y49934D01*
X32661Y49923D01*
X32652Y49914D01*
X32644Y49905D01*
X32636Y49897D01*
X32629Y49890D01*
X32623Y49885D01*
X32619Y49880D01*
X32614Y49875D01*
X32609Y49871D01*
X32607Y49869D01*
X32591Y49856D01*
X32577Y49845D01*
X32563Y49836D01*
X32552Y49828D01*
X32542Y49823D01*
X32535Y49819D01*
X32530Y49817D01*
X32528Y49816D01*
X32514Y49811D01*
X32500Y49807D01*
X32487Y49803D01*
X32476Y49801D01*
X32466Y49800D01*
X32459Y49799D01*
X32454D01*
X32452D01*
X32438Y49800D01*
X32426Y49802D01*
X32413Y49804D01*
X32402Y49808D01*
X32379Y49817D01*
X32362Y49826D01*
X32353Y49832D01*
X32347Y49836D01*
X32340Y49841D01*
X32336Y49846D01*
X32332Y49849D01*
X32328Y49851D01*
X32328Y49853D01*
X32327Y49854D01*
X32317Y49864D01*
X32309Y49875D01*
X32303Y49887D01*
X32297Y49899D01*
X32288Y49923D01*
X32281Y49947D01*
X32279Y49958D01*
X32278Y49968D01*
X32277Y49977D01*
X32276Y49984D01*
X32275Y49991D01*
Y50000D01*
X32276Y50017D01*
X32277Y50032D01*
X32279Y50047D01*
X32282Y50061D01*
X32286Y50074D01*
X32290Y50086D01*
X32294Y50097D01*
X32299Y50107D01*
X32304Y50117D01*
X32308Y50124D01*
X32312Y50130D01*
X32316Y50136D01*
X32318Y50141D01*
X32321Y50143D01*
X32322Y50145D01*
X32323Y50146D01*
X32332Y50155D01*
X32342Y50164D01*
X32353Y50172D01*
X32365Y50179D01*
X32387Y50190D01*
X32409Y50197D01*
X32419Y50200D01*
X32429Y50203D01*
X32438Y50204D01*
X32445Y50206D01*
X32451Y50207D01*
X32456D01*
X32459Y50208D01*
X32460D01*
X32468Y50128D01*
X32447Y50126D01*
X32428Y50122D01*
X32412Y50117D01*
X32399Y50110D01*
X32388Y50105D01*
X32380Y50099D01*
X32376Y50095D01*
X32374Y50093D01*
X32363Y50080D01*
X32354Y50065D01*
X32348Y50049D01*
X32344Y50035D01*
X32341Y50022D01*
X32340Y50011D01*
X32340Y50008D01*
Y50002D01*
X32340Y49983D01*
X32344Y49965D01*
X32350Y49950D01*
X32355Y49937D01*
X32362Y49927D01*
X32366Y49921D01*
X32370Y49916D01*
X32372Y49914D01*
X32385Y49903D01*
X32398Y49895D01*
X32411Y49888D01*
X32424Y49885D01*
X32434Y49882D01*
X32443Y49881D01*
X32449Y49880D01*
X32450D01*
X32451D01*
X32467Y49882D01*
X32485Y49885D01*
X32500Y49892D01*
X32515Y49898D01*
X32527Y49906D01*
X32537Y49912D01*
X32541Y49914D01*
X32544Y49916D01*
X32545Y49918D01*
X32546D01*
X32556Y49925D01*
X32566Y49934D01*
X32577Y49945D01*
X32588Y49956D01*
X32610Y49979D01*
X32633Y50002D01*
X32643Y50014D01*
X32652Y50024D01*
X32660Y50034D01*
X32668Y50043D01*
X32673Y50049D01*
X32678Y50055D01*
X32681Y50058D01*
X32682Y50059D01*
X32701Y50082D01*
X32720Y50104D01*
X32736Y50121D01*
X32750Y50135D01*
X32762Y50147D01*
X32770Y50155D01*
X32776Y50160D01*
X32777Y50162D01*
X32778D01*
X32794Y50175D01*
X32808Y50185D01*
X32823Y50194D01*
X32836Y50202D01*
X32847Y50207D01*
X32855Y50211D01*
X32861Y50213D01*
X32862Y50214D01*
X32863D01*
X32873Y50217D01*
X32882Y50219D01*
X32892Y50221D01*
X32900Y50222D01*
X32907Y50223D01*
X32913D01*
X32917D01*
X32917D01*
Y49799D01*
D02*
G37*
G36*
X112327Y13551D02*
X112314Y13545D01*
X112299Y13540D01*
X112285Y13535D01*
X112271Y13530D01*
X112259Y13526D01*
X112250Y13523D01*
X112243Y13521D01*
X112242D01*
X112241Y13521D01*
X112222Y13516D01*
X112205Y13513D01*
X112189Y13510D01*
X112176Y13509D01*
X112165Y13507D01*
X112157D01*
X112151Y13506D01*
X112150D01*
X112503Y13153D01*
X112448Y13097D01*
X111993Y13552D01*
X112029Y13587D01*
X112047Y13583D01*
X112065Y13580D01*
X112084Y13578D01*
X112101Y13576D01*
X112116D01*
X112129Y13576D01*
X112133Y13576D01*
X112140D01*
X112165Y13579D01*
X112189Y13582D01*
X112211Y13586D01*
X112231Y13592D01*
X112249Y13597D01*
X112256Y13599D01*
X112262Y13601D01*
X112267Y13602D01*
X112271Y13604D01*
X112273D01*
X112274Y13604D01*
X112327Y13551D01*
D02*
G37*
G36*
X112679Y14094D02*
X112699Y14090D01*
X112708Y14088D01*
X112715Y14086D01*
X112721Y14086D01*
X112725Y14084D01*
X112728Y14083D01*
X112729D01*
X112758Y14072D01*
X112786Y14058D01*
X112811Y14041D01*
X112833Y14026D01*
X112843Y14018D01*
X112852Y14010D01*
X112860Y14005D01*
X112866Y13998D01*
X112871Y13994D01*
X112875Y13990D01*
X112878Y13988D01*
X112879Y13987D01*
X112901Y13962D01*
X112921Y13937D01*
X112938Y13913D01*
X112945Y13901D01*
X112952Y13890D01*
X112958Y13880D01*
X112962Y13871D01*
X112967Y13862D01*
X112971Y13856D01*
X112973Y13850D01*
X112975Y13846D01*
X112976Y13842D01*
X112977Y13842D01*
X112986Y13812D01*
X112993Y13784D01*
X112996Y13757D01*
Y13745D01*
X112997Y13734D01*
Y13723D01*
X112996Y13714D01*
X112996Y13705D01*
X112994Y13699D01*
Y13693D01*
X112994Y13689D01*
X112993Y13687D01*
Y13686D01*
X112989Y13671D01*
X112984Y13657D01*
X112972Y13631D01*
X112958Y13606D01*
X112942Y13584D01*
X112934Y13573D01*
X112928Y13564D01*
X112921Y13556D01*
X112915Y13550D01*
X112911Y13544D01*
X112903Y13537D01*
X112890Y13525D01*
X112876Y13514D01*
X112863Y13503D01*
X112849Y13495D01*
X112835Y13487D01*
X112822Y13481D01*
X112810Y13475D01*
X112797Y13470D01*
X112787Y13467D01*
X112777Y13463D01*
X112768Y13461D01*
X112760Y13459D01*
X112754Y13458D01*
X112749Y13456D01*
X112745D01*
X112728Y13455D01*
X112712D01*
X112696Y13457D01*
X112680Y13459D01*
X112650Y13465D01*
X112622Y13474D01*
X112610Y13479D01*
X112599Y13484D01*
X112589Y13488D01*
X112581Y13492D01*
X112574Y13495D01*
X112569Y13498D01*
X112565Y13500D01*
X112565Y13501D01*
X112610Y13576D01*
X112623Y13568D01*
X112636Y13561D01*
X112648Y13555D01*
X112660Y13550D01*
X112672Y13546D01*
X112682Y13544D01*
X112694Y13542D01*
X112703Y13540D01*
X112712Y13538D01*
X112720D01*
X112727Y13537D01*
X112733Y13537D01*
X112737Y13537D01*
X112744D01*
X112756Y13538D01*
X112767Y13542D01*
X112788Y13549D01*
X112807Y13557D01*
X112824Y13568D01*
X112839Y13577D01*
X112844Y13581D01*
X112848Y13586D01*
X112853Y13589D01*
X112858Y13593D01*
X112872Y13609D01*
X112884Y13626D01*
X112894Y13642D01*
X112901Y13658D01*
X112907Y13671D01*
X112909Y13677D01*
X112911Y13682D01*
X112912Y13686D01*
X112913Y13689D01*
X112913Y13691D01*
X112914Y13691D01*
X112917Y13713D01*
X112918Y13733D01*
X112916Y13754D01*
X112913Y13771D01*
X112909Y13786D01*
X112905Y13798D01*
X112903Y13803D01*
X112903Y13806D01*
X112902Y13808D01*
X112901Y13808D01*
X112890Y13831D01*
X112877Y13852D01*
X112863Y13872D01*
X112849Y13890D01*
X112843Y13897D01*
X112837Y13905D01*
X112831Y13910D01*
X112827Y13916D01*
X112823Y13920D01*
X112820Y13923D01*
X112818Y13925D01*
X112817Y13925D01*
X112799Y13942D01*
X112782Y13956D01*
X112765Y13968D01*
X112750Y13978D01*
X112737Y13988D01*
X112731Y13991D01*
X112726Y13993D01*
X112722Y13996D01*
X112719Y13997D01*
X112717Y13998D01*
X112716Y13999D01*
X112695Y14007D01*
X112674Y14014D01*
X112655Y14017D01*
X112637Y14018D01*
X112622Y14019D01*
X112610Y14018D01*
X112603Y14017D01*
X112601Y14018D01*
X112600Y14017D01*
X112578Y14012D01*
X112556Y14003D01*
X112537Y13993D01*
X112521Y13982D01*
X112507Y13972D01*
X112501Y13967D01*
X112496Y13963D01*
X112492Y13960D01*
X112487Y13955D01*
X112471Y13938D01*
X112459Y13920D01*
X112450Y13904D01*
X112443Y13889D01*
X112439Y13876D01*
X112436Y13866D01*
X112435Y13859D01*
Y13857D01*
X112434Y13837D01*
X112435Y13816D01*
X112439Y13796D01*
X112444Y13778D01*
X112450Y13762D01*
X112453Y13755D01*
X112456Y13750D01*
X112458Y13745D01*
X112459Y13741D01*
X112459Y13739D01*
X112460Y13739D01*
X112388Y13693D01*
X112380Y13709D01*
X112373Y13723D01*
X112369Y13739D01*
X112363Y13753D01*
X112360Y13767D01*
X112358Y13780D01*
X112356Y13793D01*
X112354Y13805D01*
Y13816D01*
X112354Y13825D01*
Y13835D01*
Y13841D01*
Y13848D01*
X112354Y13852D01*
X112355Y13854D01*
Y13856D01*
X112358Y13871D01*
X112361Y13886D01*
X112366Y13899D01*
X112372Y13913D01*
X112386Y13939D01*
X112399Y13960D01*
X112406Y13971D01*
X112412Y13978D01*
X112419Y13986D01*
X112424Y13993D01*
X112428Y13998D01*
X112435Y14005D01*
X112458Y14025D01*
X112482Y14043D01*
X112504Y14057D01*
X112515Y14063D01*
X112526Y14068D01*
X112535Y14073D01*
X112544Y14077D01*
X112552Y14080D01*
X112559Y14083D01*
X112564Y14084D01*
X112568Y14086D01*
X112571Y14087D01*
X112572D01*
X112601Y14094D01*
X112629Y14095D01*
X112655D01*
X112679Y14094D01*
D02*
G37*
G36*
X111857Y13316D02*
X111878Y13312D01*
X111896Y13306D01*
X111912Y13300D01*
X111919Y13299D01*
X111925Y13295D01*
X111930Y13293D01*
X111934Y13292D01*
X111936Y13291D01*
X111936Y13291D01*
X111949Y13283D01*
X111961Y13276D01*
X111987Y13259D01*
X112012Y13240D01*
X112034Y13222D01*
X112044Y13213D01*
X112053Y13205D01*
X112061Y13197D01*
X112069Y13191D01*
X112074Y13185D01*
X112079Y13181D01*
X112082Y13178D01*
X112082Y13178D01*
X112104Y13154D01*
X112125Y13131D01*
X112142Y13110D01*
X112157Y13088D01*
X112171Y13068D01*
X112182Y13049D01*
X112192Y13031D01*
X112200Y13015D01*
X112206Y13001D01*
X112211Y12987D01*
X112216Y12976D01*
X112218Y12967D01*
X112220Y12959D01*
X112222Y12953D01*
X112222Y12950D01*
Y12949D01*
X112223Y12934D01*
X112222Y12919D01*
X112220Y12904D01*
X112217Y12890D01*
X112213Y12877D01*
X112208Y12864D01*
X112203Y12853D01*
X112197Y12843D01*
X112191Y12833D01*
X112186Y12825D01*
X112180Y12817D01*
X112176Y12811D01*
X112172Y12806D01*
X112165Y12799D01*
X112146Y12783D01*
X112127Y12769D01*
X112109Y12760D01*
X112093Y12753D01*
X112078Y12747D01*
X112072Y12747D01*
X112067Y12745D01*
X112063Y12744D01*
X112060Y12743D01*
X112058Y12744D01*
X112057Y12743D01*
X112035Y12743D01*
X112013Y12745D01*
X111991Y12749D01*
X111973Y12755D01*
X111957Y12760D01*
X111950Y12762D01*
X111944Y12766D01*
X111939Y12768D01*
X111935Y12769D01*
X111933Y12770D01*
X111933Y12770D01*
X111919Y12777D01*
X111907Y12784D01*
X111882Y12801D01*
X111857Y12819D01*
X111834Y12838D01*
X111825Y12847D01*
X111816Y12855D01*
X111808Y12862D01*
X111800Y12869D01*
X111795Y12874D01*
X111790Y12879D01*
X111787Y12881D01*
X111787Y12882D01*
X111774Y12895D01*
X111763Y12907D01*
X111753Y12917D01*
X111743Y12929D01*
X111735Y12939D01*
X111727Y12949D01*
X111719Y12957D01*
X111714Y12966D01*
X111708Y12973D01*
X111703Y12980D01*
X111699Y12985D01*
X111696Y12990D01*
X111693Y12994D01*
X111692Y12997D01*
X111691Y12998D01*
X111691Y12999D01*
X111680Y13017D01*
X111672Y13035D01*
X111666Y13051D01*
X111660Y13065D01*
X111656Y13078D01*
X111653Y13087D01*
X111652Y13093D01*
X111651Y13095D01*
X111649Y13112D01*
X111648Y13127D01*
X111648Y13142D01*
X111649Y13156D01*
X111651Y13167D01*
X111653Y13176D01*
X111654Y13181D01*
Y13182D01*
X111655Y13183D01*
X111660Y13199D01*
X111668Y13213D01*
X111676Y13226D01*
X111683Y13238D01*
X111691Y13248D01*
X111697Y13255D01*
X111703Y13261D01*
X111722Y13278D01*
X111741Y13291D01*
X111759Y13300D01*
X111776Y13308D01*
X111791Y13312D01*
X111797Y13314D01*
X111802Y13315D01*
X111806Y13316D01*
X111810Y13317D01*
X111812Y13316D01*
X111812Y13317D01*
X111834Y13318D01*
X111857Y13316D01*
D02*
G37*
G36*
X124799Y35724D02*
X124817Y35722D01*
X124833Y35720D01*
X124849Y35717D01*
X124864Y35712D01*
X124878Y35707D01*
X124890Y35703D01*
X124903Y35697D01*
X124913Y35693D01*
X124923Y35688D01*
X124930Y35683D01*
X124938Y35679D01*
X124942Y35675D01*
X124947Y35673D01*
X124949Y35671D01*
X124950Y35670D01*
X124963Y35659D01*
X124974Y35648D01*
X124984Y35635D01*
X124994Y35622D01*
X125011Y35597D01*
X125024Y35571D01*
X125029Y35559D01*
X125034Y35548D01*
X125037Y35537D01*
X125040Y35529D01*
X125043Y35522D01*
X125045Y35516D01*
X125046Y35512D01*
Y35511D01*
X124961Y35490D01*
X124957Y35505D01*
X124952Y35519D01*
X124948Y35532D01*
X124943Y35544D01*
X124938Y35555D01*
X124932Y35564D01*
X124926Y35573D01*
X124920Y35582D01*
X124915Y35589D01*
X124910Y35595D01*
X124905Y35600D01*
X124902Y35605D01*
X124898Y35608D01*
X124895Y35610D01*
X124894Y35611D01*
X124893Y35612D01*
X124884Y35620D01*
X124874Y35625D01*
X124854Y35635D01*
X124834Y35643D01*
X124815Y35647D01*
X124798Y35651D01*
X124792Y35652D01*
X124785D01*
X124780Y35653D01*
X124773D01*
X124752Y35652D01*
X124731Y35648D01*
X124713Y35644D01*
X124696Y35638D01*
X124683Y35633D01*
X124678Y35630D01*
X124673Y35628D01*
X124670Y35626D01*
X124667Y35624D01*
X124665Y35623D01*
X124664D01*
X124646Y35610D01*
X124632Y35597D01*
X124619Y35581D01*
X124608Y35566D01*
X124600Y35553D01*
X124595Y35542D01*
X124593Y35537D01*
X124591Y35535D01*
X124590Y35533D01*
Y35532D01*
X124583Y35508D01*
X124577Y35484D01*
X124572Y35460D01*
X124570Y35437D01*
X124569Y35427D01*
X124568Y35418D01*
Y35410D01*
X124567Y35403D01*
Y35398D01*
Y35393D01*
Y35390D01*
Y35389D01*
X124568Y35365D01*
X124570Y35343D01*
X124573Y35323D01*
X124577Y35304D01*
X124580Y35289D01*
X124582Y35282D01*
X124584Y35277D01*
X124584Y35272D01*
X124585Y35269D01*
X124586Y35267D01*
Y35266D01*
X124596Y35245D01*
X124606Y35226D01*
X124617Y35210D01*
X124629Y35196D01*
X124639Y35185D01*
X124647Y35178D01*
X124654Y35173D01*
X124655Y35171D01*
X124656D01*
X124675Y35159D01*
X124696Y35150D01*
X124717Y35143D01*
X124736Y35140D01*
X124754Y35137D01*
X124761Y35136D01*
X124768D01*
X124772Y35135D01*
X124780D01*
X124803Y35136D01*
X124824Y35140D01*
X124841Y35145D01*
X124857Y35151D01*
X124869Y35157D01*
X124878Y35162D01*
X124884Y35166D01*
X124886Y35167D01*
X124901Y35181D01*
X124915Y35197D01*
X124926Y35214D01*
X124935Y35230D01*
X124942Y35245D01*
X124945Y35253D01*
X124947Y35258D01*
X124949Y35263D01*
X124951Y35266D01*
X124952Y35268D01*
Y35269D01*
X125035Y35250D01*
X125029Y35233D01*
X125024Y35218D01*
X125016Y35204D01*
X125010Y35191D01*
X125002Y35179D01*
X124994Y35167D01*
X124987Y35156D01*
X124979Y35147D01*
X124972Y35140D01*
X124965Y35132D01*
X124959Y35126D01*
X124954Y35121D01*
X124950Y35117D01*
X124946Y35114D01*
X124944Y35113D01*
X124943Y35112D01*
X124930Y35104D01*
X124917Y35095D01*
X124904Y35089D01*
X124890Y35083D01*
X124863Y35075D01*
X124838Y35069D01*
X124826Y35067D01*
X124816Y35066D01*
X124805Y35065D01*
X124797Y35064D01*
X124791Y35063D01*
X124781D01*
X124751Y35065D01*
X124721Y35069D01*
X124695Y35075D01*
X124683Y35079D01*
X124672Y35082D01*
X124662Y35086D01*
X124653Y35090D01*
X124645Y35093D01*
X124638Y35095D01*
X124633Y35098D01*
X124630Y35100D01*
X124627Y35101D01*
X124626Y35102D01*
X124601Y35118D01*
X124580Y35136D01*
X124561Y35155D01*
X124546Y35173D01*
X124534Y35190D01*
X124529Y35197D01*
X124525Y35204D01*
X124522Y35208D01*
X124520Y35212D01*
X124519Y35215D01*
X124518Y35216D01*
X124505Y35244D01*
X124496Y35274D01*
X124489Y35303D01*
X124485Y35330D01*
X124483Y35342D01*
X124482Y35354D01*
X124481Y35364D01*
Y35373D01*
X124480Y35379D01*
Y35385D01*
Y35388D01*
Y35389D01*
X124482Y35423D01*
X124486Y35455D01*
X124490Y35484D01*
X124494Y35498D01*
X124497Y35510D01*
X124499Y35521D01*
X124503Y35531D01*
X124506Y35540D01*
X124508Y35548D01*
X124510Y35553D01*
X124511Y35558D01*
X124513Y35560D01*
Y35561D01*
X124527Y35589D01*
X124543Y35614D01*
X124559Y35635D01*
X124568Y35644D01*
X124575Y35652D01*
X124583Y35659D01*
X124590Y35666D01*
X124596Y35671D01*
X124602Y35675D01*
X124606Y35679D01*
X124609Y35682D01*
X124611Y35682D01*
X124612Y35683D01*
X124625Y35691D01*
X124638Y35697D01*
X124666Y35707D01*
X124694Y35715D01*
X124720Y35719D01*
X124733Y35721D01*
X124744Y35723D01*
X124755Y35724D01*
X124763D01*
X124770Y35725D01*
X124780D01*
X124799Y35724D01*
D02*
G37*
G36*
X125414Y35071D02*
X125363D01*
X125354Y35087D01*
X125344Y35102D01*
X125331Y35117D01*
X125320Y35130D01*
X125309Y35141D01*
X125301Y35150D01*
X125297Y35153D01*
X125295Y35155D01*
X125294Y35156D01*
X125293Y35157D01*
X125273Y35173D01*
X125254Y35188D01*
X125235Y35201D01*
X125217Y35211D01*
X125201Y35220D01*
X125195Y35224D01*
X125189Y35227D01*
X125185Y35229D01*
X125181Y35230D01*
X125179Y35232D01*
X125178D01*
Y35308D01*
X125192Y35302D01*
X125206Y35296D01*
X125220Y35290D01*
X125233Y35283D01*
X125244Y35278D01*
X125253Y35273D01*
X125258Y35269D01*
X125259Y35268D01*
X125260D01*
X125277Y35258D01*
X125292Y35248D01*
X125305Y35239D01*
X125315Y35230D01*
X125324Y35224D01*
X125330Y35218D01*
X125334Y35215D01*
X125335Y35214D01*
Y35714D01*
X125414D01*
Y35071D01*
D02*
G37*
G36*
X126029Y35638D02*
X125713D01*
X125724Y35622D01*
X125730Y35616D01*
X125735Y35609D01*
X125739Y35604D01*
X125743Y35600D01*
X125746Y35597D01*
X125747Y35597D01*
X125751Y35592D01*
X125757Y35587D01*
X125770Y35575D01*
X125785Y35561D01*
X125800Y35548D01*
X125815Y35535D01*
X125822Y35530D01*
X125827Y35524D01*
X125832Y35521D01*
X125835Y35518D01*
X125837Y35516D01*
X125838Y35515D01*
X125853Y35502D01*
X125868Y35490D01*
X125881Y35478D01*
X125893Y35468D01*
X125904Y35458D01*
X125913Y35449D01*
X125922Y35440D01*
X125930Y35433D01*
X125937Y35425D01*
X125943Y35420D01*
X125947Y35415D01*
X125952Y35411D01*
X125956Y35405D01*
X125958Y35403D01*
X125971Y35388D01*
X125982Y35374D01*
X125992Y35360D01*
X125999Y35349D01*
X126005Y35339D01*
X126008Y35331D01*
X126010Y35327D01*
X126011Y35325D01*
X126017Y35311D01*
X126020Y35297D01*
X126024Y35284D01*
X126026Y35273D01*
X126027Y35263D01*
X126028Y35255D01*
Y35251D01*
Y35249D01*
X126027Y35235D01*
X126025Y35222D01*
X126023Y35209D01*
X126019Y35198D01*
X126010Y35176D01*
X126001Y35158D01*
X125995Y35150D01*
X125991Y35143D01*
X125986Y35137D01*
X125981Y35132D01*
X125978Y35129D01*
X125976Y35125D01*
X125974Y35124D01*
X125973Y35123D01*
X125963Y35114D01*
X125952Y35106D01*
X125940Y35099D01*
X125928Y35094D01*
X125904Y35084D01*
X125880Y35078D01*
X125870Y35076D01*
X125859Y35074D01*
X125850Y35073D01*
X125843Y35072D01*
X125836Y35071D01*
X125827D01*
X125810Y35072D01*
X125795Y35073D01*
X125780Y35076D01*
X125766Y35079D01*
X125753Y35082D01*
X125741Y35086D01*
X125730Y35091D01*
X125720Y35095D01*
X125711Y35100D01*
X125703Y35105D01*
X125697Y35108D01*
X125691Y35112D01*
X125687Y35115D01*
X125684Y35118D01*
X125682Y35118D01*
X125681Y35119D01*
X125672Y35129D01*
X125663Y35139D01*
X125655Y35150D01*
X125649Y35161D01*
X125638Y35183D01*
X125630Y35205D01*
X125627Y35216D01*
X125625Y35226D01*
X125623Y35234D01*
X125621Y35241D01*
X125620Y35248D01*
Y35253D01*
X125619Y35255D01*
Y35256D01*
X125699Y35265D01*
X125701Y35243D01*
X125705Y35225D01*
X125711Y35208D01*
X125717Y35195D01*
X125723Y35184D01*
X125728Y35177D01*
X125732Y35172D01*
X125734Y35170D01*
X125748Y35159D01*
X125762Y35151D01*
X125778Y35144D01*
X125792Y35141D01*
X125805Y35138D01*
X125816Y35137D01*
X125820Y35136D01*
X125825D01*
X125845Y35137D01*
X125862Y35141D01*
X125877Y35146D01*
X125890Y35152D01*
X125900Y35158D01*
X125907Y35163D01*
X125911Y35167D01*
X125913Y35168D01*
X125924Y35181D01*
X125932Y35194D01*
X125939Y35207D01*
X125943Y35220D01*
X125945Y35230D01*
X125946Y35240D01*
X125947Y35245D01*
Y35246D01*
Y35247D01*
X125945Y35264D01*
X125942Y35281D01*
X125935Y35297D01*
X125929Y35312D01*
X125921Y35324D01*
X125915Y35334D01*
X125913Y35338D01*
X125911Y35340D01*
X125909Y35341D01*
Y35342D01*
X125902Y35352D01*
X125893Y35363D01*
X125883Y35374D01*
X125871Y35385D01*
X125848Y35407D01*
X125825Y35429D01*
X125813Y35439D01*
X125803Y35449D01*
X125793Y35457D01*
X125785Y35464D01*
X125778Y35470D01*
X125773Y35474D01*
X125769Y35477D01*
X125768Y35478D01*
X125745Y35498D01*
X125724Y35516D01*
X125706Y35533D01*
X125692Y35547D01*
X125680Y35559D01*
X125672Y35567D01*
X125667Y35572D01*
X125665Y35573D01*
Y35574D01*
X125652Y35590D01*
X125642Y35605D01*
X125633Y35620D01*
X125626Y35633D01*
X125620Y35644D01*
X125616Y35652D01*
X125614Y35658D01*
X125613Y35658D01*
Y35659D01*
X125610Y35670D01*
X125608Y35679D01*
X125606Y35688D01*
X125605Y35696D01*
X125604Y35704D01*
Y35709D01*
Y35713D01*
Y35714D01*
X126029D01*
Y35638D01*
D02*
G37*
G36*
X35882Y47608D02*
X35902Y47605D01*
X35919Y47599D01*
X35934Y47593D01*
X35946Y47588D01*
X35955Y47582D01*
X35961Y47579D01*
X35962Y47578D01*
X35963D01*
X35977Y47565D01*
X35990Y47551D01*
X36001Y47536D01*
X36010Y47522D01*
X36016Y47509D01*
X36021Y47498D01*
X36023Y47494D01*
X36024Y47492D01*
X36025Y47490D01*
Y47489D01*
X36032Y47506D01*
X36040Y47519D01*
X36049Y47531D01*
X36057Y47542D01*
X36064Y47549D01*
X36070Y47555D01*
X36074Y47558D01*
X36075Y47559D01*
X36088Y47568D01*
X36101Y47573D01*
X36114Y47578D01*
X36127Y47580D01*
X36137Y47582D01*
X36146Y47583D01*
X36151D01*
X36152D01*
X36153D01*
X36166Y47582D01*
X36178Y47581D01*
X36201Y47575D01*
X36221Y47567D01*
X36239Y47557D01*
X36253Y47548D01*
X36258Y47543D01*
X36264Y47540D01*
X36268Y47536D01*
X36270Y47533D01*
X36271Y47532D01*
X36272Y47531D01*
X36281Y47521D01*
X36289Y47511D01*
X36295Y47500D01*
X36301Y47489D01*
X36309Y47467D01*
X36315Y47445D01*
X36318Y47435D01*
X36319Y47426D01*
X36319Y47418D01*
X36320Y47410D01*
X36321Y47405D01*
Y47396D01*
X36320Y47382D01*
X36319Y47367D01*
X36314Y47341D01*
X36310Y47329D01*
X36307Y47318D01*
X36302Y47308D01*
X36297Y47298D01*
X36293Y47291D01*
X36288Y47284D01*
X36284Y47277D01*
X36281Y47273D01*
X36278Y47269D01*
X36275Y47266D01*
X36274Y47264D01*
X36273Y47263D01*
X36264Y47255D01*
X36255Y47247D01*
X36245Y47240D01*
X36234Y47235D01*
X36215Y47225D01*
X36197Y47220D01*
X36181Y47216D01*
X36173Y47215D01*
X36168Y47214D01*
X36162Y47213D01*
X36159D01*
X36157D01*
X36156D01*
X36139Y47214D01*
X36123Y47217D01*
X36110Y47221D01*
X36098Y47225D01*
X36088Y47229D01*
X36081Y47233D01*
X36077Y47236D01*
X36075Y47237D01*
X36064Y47247D01*
X36054Y47258D01*
X36045Y47270D01*
X36037Y47282D01*
X36032Y47293D01*
X36028Y47301D01*
X36026Y47305D01*
X36025Y47308D01*
X36025Y47309D01*
Y47310D01*
X36018Y47288D01*
X36010Y47271D01*
X36000Y47255D01*
X35990Y47242D01*
X35981Y47232D01*
X35974Y47225D01*
X35969Y47221D01*
X35968Y47219D01*
X35967D01*
X35951Y47209D01*
X35933Y47200D01*
X35916Y47195D01*
X35900Y47191D01*
X35885Y47189D01*
X35878Y47188D01*
X35873D01*
X35869Y47188D01*
X35866D01*
X35864D01*
X35863D01*
X35848Y47188D01*
X35833Y47190D01*
X35819Y47193D01*
X35805Y47197D01*
X35782Y47206D01*
X35771Y47211D01*
X35762Y47216D01*
X35753Y47222D01*
X35745Y47226D01*
X35739Y47232D01*
X35733Y47236D01*
X35729Y47239D01*
X35726Y47242D01*
X35724Y47244D01*
X35723Y47245D01*
X35713Y47256D01*
X35705Y47268D01*
X35697Y47281D01*
X35691Y47294D01*
X35686Y47306D01*
X35682Y47319D01*
X35675Y47344D01*
X35672Y47355D01*
X35670Y47365D01*
X35670Y47374D01*
X35669Y47383D01*
X35668Y47389D01*
Y47398D01*
X35669Y47416D01*
X35670Y47432D01*
X35673Y47447D01*
X35676Y47462D01*
X35681Y47475D01*
X35685Y47488D01*
X35690Y47500D01*
X35695Y47510D01*
X35701Y47519D01*
X35706Y47528D01*
X35710Y47534D01*
X35715Y47541D01*
X35718Y47545D01*
X35720Y47548D01*
X35722Y47550D01*
X35723Y47551D01*
X35734Y47561D01*
X35745Y47570D01*
X35756Y47578D01*
X35768Y47584D01*
X35780Y47591D01*
X35792Y47595D01*
X35813Y47602D01*
X35823Y47605D01*
X35832Y47606D01*
X35841Y47607D01*
X35847Y47608D01*
X35853Y47609D01*
X35857D01*
X35860D01*
X35861D01*
X35882Y47608D01*
D02*
G37*
G36*
X35903Y47031D02*
X35888Y47028D01*
X35874Y47023D01*
X35861Y47018D01*
X35849Y47014D01*
X35838Y47008D01*
X35829Y47003D01*
X35819Y46996D01*
X35811Y46991D01*
X35804Y46986D01*
X35798Y46980D01*
X35792Y46976D01*
X35788Y46972D01*
X35785Y46968D01*
X35782Y46966D01*
X35781Y46965D01*
X35780Y46964D01*
X35773Y46955D01*
X35768Y46944D01*
X35757Y46924D01*
X35750Y46905D01*
X35745Y46885D01*
X35742Y46869D01*
X35741Y46862D01*
Y46856D01*
X35740Y46850D01*
Y46844D01*
X35741Y46822D01*
X35744Y46802D01*
X35749Y46784D01*
X35755Y46767D01*
X35760Y46754D01*
X35763Y46748D01*
X35765Y46744D01*
X35767Y46740D01*
X35768Y46737D01*
X35769Y46735D01*
Y46735D01*
X35782Y46717D01*
X35796Y46702D01*
X35812Y46689D01*
X35827Y46679D01*
X35840Y46671D01*
X35851Y46665D01*
X35855Y46663D01*
X35858Y46661D01*
X35860Y46661D01*
X35861D01*
X35885Y46653D01*
X35909Y46648D01*
X35933Y46643D01*
X35955Y46640D01*
X35965Y46639D01*
X35975Y46638D01*
X35983D01*
X35989Y46637D01*
X35995D01*
X36000D01*
X36002D01*
X36003D01*
X36027Y46638D01*
X36050Y46640D01*
X36070Y46644D01*
X36088Y46648D01*
X36104Y46650D01*
X36111Y46652D01*
X36116Y46654D01*
X36121Y46655D01*
X36123Y46656D01*
X36125Y46657D01*
X36126D01*
X36148Y46666D01*
X36167Y46676D01*
X36183Y46687D01*
X36197Y46699D01*
X36208Y46710D01*
X36215Y46718D01*
X36220Y46724D01*
X36221Y46725D01*
Y46726D01*
X36234Y46746D01*
X36243Y46767D01*
X36249Y46787D01*
X36253Y46807D01*
X36256Y46824D01*
X36257Y46832D01*
Y46838D01*
X36258Y46843D01*
Y46850D01*
X36257Y46873D01*
X36253Y46894D01*
X36247Y46912D01*
X36242Y46928D01*
X36235Y46940D01*
X36231Y46949D01*
X36227Y46955D01*
X36225Y46956D01*
X36211Y46971D01*
X36196Y46985D01*
X36179Y46996D01*
X36162Y47005D01*
X36148Y47013D01*
X36140Y47016D01*
X36135Y47017D01*
X36130Y47019D01*
X36126Y47021D01*
X36124Y47022D01*
X36123D01*
X36143Y47105D01*
X36160Y47100D01*
X36174Y47094D01*
X36188Y47087D01*
X36202Y47080D01*
X36214Y47073D01*
X36225Y47065D01*
X36236Y47057D01*
X36246Y47050D01*
X36253Y47042D01*
X36260Y47036D01*
X36267Y47029D01*
X36271Y47025D01*
X36276Y47020D01*
X36279Y47016D01*
X36280Y47015D01*
X36281Y47014D01*
X36289Y47001D01*
X36297Y46988D01*
X36304Y46975D01*
X36309Y46961D01*
X36318Y46933D01*
X36323Y46908D01*
X36326Y46896D01*
X36327Y46886D01*
X36328Y46876D01*
X36329Y46868D01*
X36330Y46861D01*
Y46852D01*
X36328Y46821D01*
X36323Y46792D01*
X36318Y46766D01*
X36314Y46754D01*
X36310Y46743D01*
X36307Y46733D01*
X36303Y46723D01*
X36300Y46716D01*
X36297Y46709D01*
X36295Y46704D01*
X36293Y46700D01*
X36292Y46698D01*
X36291Y46697D01*
X36275Y46672D01*
X36257Y46650D01*
X36238Y46632D01*
X36220Y46616D01*
X36203Y46604D01*
X36196Y46600D01*
X36189Y46596D01*
X36185Y46592D01*
X36181Y46590D01*
X36178Y46589D01*
X36177Y46588D01*
X36148Y46575D01*
X36119Y46566D01*
X36089Y46560D01*
X36062Y46555D01*
X36050Y46553D01*
X36038Y46552D01*
X36029Y46551D01*
X36020D01*
X36013Y46551D01*
X36008D01*
X36004D01*
X36003D01*
X35970Y46552D01*
X35938Y46556D01*
X35909Y46561D01*
X35895Y46564D01*
X35883Y46567D01*
X35872Y46570D01*
X35862Y46574D01*
X35853Y46576D01*
X35845Y46578D01*
X35840Y46581D01*
X35835Y46582D01*
X35832Y46584D01*
X35831D01*
X35804Y46598D01*
X35779Y46613D01*
X35757Y46630D01*
X35749Y46638D01*
X35741Y46646D01*
X35733Y46653D01*
X35727Y46661D01*
X35721Y46667D01*
X35718Y46673D01*
X35714Y46676D01*
X35711Y46680D01*
X35710Y46682D01*
X35709Y46683D01*
X35702Y46696D01*
X35695Y46709D01*
X35685Y46736D01*
X35678Y46764D01*
X35673Y46791D01*
X35671Y46804D01*
X35670Y46815D01*
X35669Y46825D01*
Y46833D01*
X35668Y46841D01*
Y46851D01*
X35669Y46869D01*
X35670Y46887D01*
X35672Y46904D01*
X35676Y46919D01*
X35681Y46934D01*
X35685Y46948D01*
X35690Y46961D01*
X35695Y46973D01*
X35700Y46983D01*
X35705Y46993D01*
X35709Y47001D01*
X35714Y47008D01*
X35718Y47013D01*
X35719Y47017D01*
X35721Y47019D01*
X35722Y47020D01*
X35733Y47033D01*
X35744Y47044D01*
X35757Y47054D01*
X35770Y47065D01*
X35796Y47081D01*
X35822Y47094D01*
X35834Y47100D01*
X35845Y47104D01*
X35855Y47108D01*
X35864Y47111D01*
X35871Y47114D01*
X35877Y47115D01*
X35880Y47116D01*
X35881D01*
X35903Y47031D01*
D02*
G37*
G36*
X42094Y42773D02*
X42112Y42771D01*
X42128Y42769D01*
X42144Y42766D01*
X42159Y42761D01*
X42173Y42756D01*
X42185Y42752D01*
X42198Y42746D01*
X42208Y42742D01*
X42218Y42737D01*
X42225Y42732D01*
X42233Y42728D01*
X42237Y42724D01*
X42242Y42722D01*
X42244Y42720D01*
X42245Y42719D01*
X42258Y42708D01*
X42269Y42697D01*
X42279Y42684D01*
X42289Y42671D01*
X42306Y42646D01*
X42319Y42620D01*
X42324Y42608D01*
X42329Y42597D01*
X42333Y42586D01*
X42335Y42578D01*
X42338Y42571D01*
X42340Y42565D01*
X42341Y42561D01*
Y42560D01*
X42256Y42539D01*
X42252Y42554D01*
X42247Y42568D01*
X42243Y42581D01*
X42238Y42593D01*
X42233Y42604D01*
X42227Y42613D01*
X42221Y42622D01*
X42215Y42631D01*
X42210Y42638D01*
X42205Y42644D01*
X42200Y42649D01*
X42197Y42654D01*
X42193Y42657D01*
X42190Y42659D01*
X42189Y42660D01*
X42188Y42661D01*
X42179Y42669D01*
X42169Y42674D01*
X42149Y42684D01*
X42129Y42692D01*
X42110Y42696D01*
X42093Y42700D01*
X42087Y42701D01*
X42080D01*
X42075Y42702D01*
X42068D01*
X42047Y42701D01*
X42026Y42697D01*
X42008Y42693D01*
X41991Y42687D01*
X41978Y42682D01*
X41973Y42679D01*
X41968Y42677D01*
X41965Y42675D01*
X41962Y42673D01*
X41960Y42672D01*
X41959D01*
X41941Y42659D01*
X41927Y42646D01*
X41914Y42630D01*
X41903Y42615D01*
X41895Y42602D01*
X41890Y42591D01*
X41888Y42586D01*
X41886Y42584D01*
X41885Y42582D01*
Y42581D01*
X41878Y42557D01*
X41872Y42533D01*
X41867Y42509D01*
X41865Y42486D01*
X41864Y42476D01*
X41863Y42467D01*
Y42459D01*
X41862Y42452D01*
Y42447D01*
Y42442D01*
Y42439D01*
Y42438D01*
X41863Y42414D01*
X41865Y42392D01*
X41868Y42372D01*
X41872Y42353D01*
X41875Y42338D01*
X41877Y42331D01*
X41879Y42326D01*
X41879Y42321D01*
X41880Y42318D01*
X41881Y42316D01*
Y42315D01*
X41891Y42294D01*
X41901Y42275D01*
X41912Y42259D01*
X41924Y42245D01*
X41934Y42234D01*
X41942Y42227D01*
X41949Y42222D01*
X41950Y42220D01*
X41951D01*
X41970Y42208D01*
X41991Y42199D01*
X42012Y42192D01*
X42031Y42189D01*
X42049Y42186D01*
X42056Y42185D01*
X42063D01*
X42067Y42184D01*
X42075D01*
X42098Y42185D01*
X42119Y42189D01*
X42136Y42194D01*
X42152Y42200D01*
X42164Y42206D01*
X42173Y42211D01*
X42179Y42215D01*
X42181Y42216D01*
X42196Y42230D01*
X42210Y42246D01*
X42221Y42263D01*
X42230Y42279D01*
X42237Y42294D01*
X42240Y42302D01*
X42242Y42307D01*
X42244Y42312D01*
X42246Y42315D01*
X42247Y42317D01*
Y42318D01*
X42330Y42299D01*
X42324Y42282D01*
X42319Y42267D01*
X42311Y42253D01*
X42305Y42240D01*
X42297Y42228D01*
X42289Y42216D01*
X42282Y42205D01*
X42274Y42196D01*
X42267Y42189D01*
X42260Y42181D01*
X42254Y42175D01*
X42249Y42170D01*
X42245Y42166D01*
X42241Y42163D01*
X42239Y42162D01*
X42238Y42161D01*
X42225Y42153D01*
X42212Y42144D01*
X42199Y42138D01*
X42185Y42132D01*
X42158Y42124D01*
X42133Y42118D01*
X42121Y42116D01*
X42111Y42115D01*
X42100Y42114D01*
X42092Y42113D01*
X42086Y42112D01*
X42076D01*
X42046Y42114D01*
X42016Y42118D01*
X41990Y42124D01*
X41978Y42128D01*
X41967Y42131D01*
X41957Y42135D01*
X41948Y42139D01*
X41940Y42142D01*
X41933Y42144D01*
X41928Y42147D01*
X41925Y42149D01*
X41922Y42150D01*
X41921Y42151D01*
X41896Y42167D01*
X41875Y42185D01*
X41856Y42204D01*
X41841Y42222D01*
X41829Y42239D01*
X41824Y42246D01*
X41820Y42253D01*
X41817Y42257D01*
X41815Y42261D01*
X41814Y42264D01*
X41813Y42265D01*
X41800Y42293D01*
X41791Y42323D01*
X41784Y42352D01*
X41780Y42379D01*
X41778Y42391D01*
X41777Y42403D01*
X41776Y42413D01*
Y42422D01*
X41775Y42428D01*
Y42434D01*
Y42437D01*
Y42438D01*
X41777Y42472D01*
X41781Y42504D01*
X41785Y42533D01*
X41789Y42547D01*
X41792Y42559D01*
X41794Y42570D01*
X41798Y42580D01*
X41801Y42589D01*
X41803Y42597D01*
X41806Y42602D01*
X41806Y42607D01*
X41808Y42609D01*
Y42610D01*
X41822Y42638D01*
X41838Y42663D01*
X41854Y42684D01*
X41863Y42693D01*
X41870Y42701D01*
X41878Y42708D01*
X41885Y42715D01*
X41891Y42720D01*
X41897Y42724D01*
X41901Y42728D01*
X41904Y42731D01*
X41906Y42731D01*
X41907Y42732D01*
X41920Y42740D01*
X41933Y42746D01*
X41961Y42756D01*
X41989Y42764D01*
X42015Y42768D01*
X42028Y42770D01*
X42039Y42772D01*
X42050Y42773D01*
X42058D01*
X42065Y42774D01*
X42075D01*
X42094Y42773D01*
D02*
G37*
G36*
X42591Y42728D02*
X42596Y42695D01*
X42601Y42666D01*
X42603Y42652D01*
X42606Y42639D01*
X42608Y42628D01*
X42611Y42618D01*
X42613Y42609D01*
X42614Y42601D01*
X42616Y42596D01*
X42617Y42591D01*
X42618Y42588D01*
Y42587D01*
X42632Y42545D01*
X42647Y42505D01*
X42654Y42486D01*
X42662Y42467D01*
X42670Y42450D01*
X42677Y42434D01*
X42684Y42419D01*
X42690Y42406D01*
X42696Y42395D01*
X42700Y42385D01*
X42705Y42376D01*
X42708Y42371D01*
X42710Y42367D01*
X42711Y42366D01*
X42722Y42347D01*
X42733Y42327D01*
X42744Y42310D01*
X42755Y42293D01*
X42765Y42278D01*
X42775Y42264D01*
X42786Y42251D01*
X42794Y42240D01*
X42802Y42229D01*
X42810Y42219D01*
X42817Y42212D01*
X42823Y42205D01*
X42826Y42200D01*
X42830Y42196D01*
X42832Y42194D01*
X42833Y42193D01*
Y42131D01*
X42418D01*
Y42207D01*
X42732D01*
X42710Y42234D01*
X42688Y42263D01*
X42670Y42290D01*
X42652Y42317D01*
X42645Y42329D01*
X42639Y42340D01*
X42632Y42351D01*
X42627Y42359D01*
X42624Y42366D01*
X42621Y42371D01*
X42619Y42375D01*
X42618Y42376D01*
X42600Y42413D01*
X42583Y42449D01*
X42569Y42485D01*
X42564Y42500D01*
X42558Y42516D01*
X42553Y42530D01*
X42549Y42543D01*
X42545Y42554D01*
X42542Y42563D01*
X42540Y42572D01*
X42538Y42577D01*
X42537Y42581D01*
Y42582D01*
X42528Y42620D01*
X42524Y42638D01*
X42521Y42655D01*
X42518Y42670D01*
X42516Y42686D01*
X42514Y42699D01*
X42512Y42712D01*
X42511Y42723D01*
X42510Y42733D01*
X42509Y42743D01*
Y42750D01*
X42508Y42756D01*
Y42759D01*
Y42762D01*
Y42763D01*
X42589D01*
X42591Y42728D01*
D02*
G37*
G36*
X33140Y47607D02*
X33160Y47604D01*
X33177Y47598D01*
X33192Y47592D01*
X33204Y47587D01*
X33214Y47581D01*
X33219Y47578D01*
X33221Y47577D01*
X33235Y47564D01*
X33247Y47550D01*
X33256Y47535D01*
X33263Y47520D01*
X33269Y47507D01*
X33273Y47497D01*
X33274Y47494D01*
X33275Y47491D01*
X33275Y47489D01*
Y47488D01*
X33284Y47504D01*
X33292Y47517D01*
X33301Y47528D01*
X33310Y47537D01*
X33317Y47544D01*
X33324Y47550D01*
X33327Y47553D01*
X33329Y47554D01*
X33342Y47561D01*
X33355Y47567D01*
X33368Y47571D01*
X33380Y47574D01*
X33390Y47576D01*
X33398Y47577D01*
X33403D01*
X33405D01*
X33421Y47576D01*
X33436Y47573D01*
X33450Y47569D01*
X33462Y47565D01*
X33472Y47560D01*
X33481Y47556D01*
X33485Y47554D01*
X33487Y47553D01*
X33501Y47543D01*
X33513Y47532D01*
X33523Y47521D01*
X33533Y47510D01*
X33539Y47501D01*
X33545Y47493D01*
X33547Y47487D01*
X33548Y47486D01*
Y47485D01*
X33556Y47469D01*
X33561Y47452D01*
X33566Y47435D01*
X33569Y47421D01*
X33570Y47409D01*
X33571Y47398D01*
Y47375D01*
X33569Y47362D01*
X33565Y47337D01*
X33557Y47316D01*
X33550Y47298D01*
X33545Y47289D01*
X33542Y47283D01*
X33538Y47276D01*
X33534Y47272D01*
X33532Y47268D01*
X33530Y47265D01*
X33529Y47263D01*
X33528Y47262D01*
X33510Y47245D01*
X33491Y47231D01*
X33471Y47220D01*
X33450Y47211D01*
X33433Y47205D01*
X33425Y47202D01*
X33419Y47200D01*
X33413Y47200D01*
X33410Y47199D01*
X33407Y47198D01*
X33406D01*
X33392Y47276D01*
X33412Y47280D01*
X33430Y47286D01*
X33445Y47292D01*
X33457Y47298D01*
X33466Y47305D01*
X33472Y47311D01*
X33477Y47314D01*
X33478Y47315D01*
X33487Y47327D01*
X33495Y47340D01*
X33499Y47352D01*
X33503Y47364D01*
X33505Y47375D01*
X33507Y47384D01*
Y47391D01*
X33506Y47408D01*
X33502Y47422D01*
X33497Y47435D01*
X33493Y47446D01*
X33487Y47455D01*
X33483Y47461D01*
X33479Y47466D01*
X33478Y47467D01*
X33467Y47477D01*
X33455Y47484D01*
X33443Y47489D01*
X33432Y47493D01*
X33422Y47494D01*
X33414Y47496D01*
X33409D01*
X33408D01*
X33407D01*
X33397D01*
X33387Y47494D01*
X33372Y47490D01*
X33358Y47483D01*
X33346Y47476D01*
X33337Y47469D01*
X33331Y47462D01*
X33327Y47458D01*
X33326Y47457D01*
Y47456D01*
X33318Y47440D01*
X33312Y47425D01*
X33307Y47409D01*
X33304Y47396D01*
X33302Y47384D01*
X33300Y47373D01*
Y47361D01*
X33301Y47358D01*
Y47353D01*
X33232Y47344D01*
X33235Y47356D01*
X33237Y47367D01*
X33238Y47376D01*
X33239Y47384D01*
X33240Y47391D01*
Y47399D01*
X33238Y47419D01*
X33235Y47436D01*
X33229Y47452D01*
X33223Y47465D01*
X33216Y47475D01*
X33211Y47482D01*
X33207Y47487D01*
X33205Y47489D01*
X33191Y47501D01*
X33177Y47510D01*
X33162Y47517D01*
X33147Y47520D01*
X33135Y47523D01*
X33125Y47524D01*
X33121Y47525D01*
X33118D01*
X33116D01*
X33116D01*
X33095Y47523D01*
X33077Y47519D01*
X33061Y47513D01*
X33047Y47506D01*
X33036Y47498D01*
X33028Y47493D01*
X33022Y47488D01*
X33020Y47486D01*
X33007Y47471D01*
X32998Y47456D01*
X32992Y47440D01*
X32987Y47425D01*
X32984Y47412D01*
X32983Y47402D01*
X32982Y47398D01*
Y47393D01*
X32983Y47376D01*
X32987Y47360D01*
X32992Y47347D01*
X32997Y47335D01*
X33002Y47326D01*
X33006Y47319D01*
X33010Y47315D01*
X33011Y47313D01*
X33024Y47302D01*
X33039Y47293D01*
X33055Y47285D01*
X33071Y47278D01*
X33085Y47274D01*
X33091Y47272D01*
X33097Y47271D01*
X33102Y47270D01*
X33105Y47269D01*
X33107Y47268D01*
X33108D01*
X33098Y47189D01*
X33083Y47191D01*
X33069Y47194D01*
X33043Y47202D01*
X33021Y47213D01*
X33012Y47218D01*
X33003Y47224D01*
X32994Y47229D01*
X32988Y47235D01*
X32981Y47239D01*
X32977Y47244D01*
X32973Y47247D01*
X32970Y47249D01*
X32969Y47251D01*
X32968Y47252D01*
X32959Y47263D01*
X32951Y47274D01*
X32944Y47286D01*
X32939Y47298D01*
X32930Y47321D01*
X32924Y47343D01*
X32922Y47353D01*
X32920Y47362D01*
X32920Y47371D01*
X32919Y47378D01*
X32918Y47384D01*
Y47392D01*
X32919Y47409D01*
X32920Y47425D01*
X32923Y47441D01*
X32927Y47456D01*
X32932Y47470D01*
X32936Y47482D01*
X32942Y47494D01*
X32947Y47504D01*
X32952Y47514D01*
X32957Y47522D01*
X32962Y47530D01*
X32967Y47535D01*
X32970Y47540D01*
X32973Y47543D01*
X32975Y47545D01*
X32976Y47546D01*
X32987Y47557D01*
X32999Y47567D01*
X33011Y47575D01*
X33023Y47582D01*
X33034Y47588D01*
X33046Y47593D01*
X33068Y47601D01*
X33079Y47603D01*
X33088Y47605D01*
X33096Y47606D01*
X33104Y47607D01*
X33109Y47608D01*
X33114D01*
X33116D01*
X33117D01*
X33140Y47607D01*
D02*
G37*
G36*
X33153Y47031D02*
X33138Y47028D01*
X33124Y47023D01*
X33111Y47018D01*
X33099Y47014D01*
X33088Y47008D01*
X33079Y47003D01*
X33069Y46996D01*
X33061Y46991D01*
X33054Y46986D01*
X33048Y46980D01*
X33042Y46976D01*
X33038Y46972D01*
X33035Y46968D01*
X33032Y46966D01*
X33031Y46965D01*
X33030Y46964D01*
X33023Y46955D01*
X33018Y46944D01*
X33007Y46924D01*
X33000Y46905D01*
X32995Y46885D01*
X32992Y46869D01*
X32991Y46862D01*
Y46856D01*
X32990Y46850D01*
Y46844D01*
X32991Y46822D01*
X32994Y46802D01*
X32999Y46784D01*
X33005Y46767D01*
X33010Y46754D01*
X33013Y46748D01*
X33015Y46744D01*
X33017Y46740D01*
X33018Y46737D01*
X33019Y46735D01*
Y46735D01*
X33032Y46717D01*
X33046Y46702D01*
X33062Y46689D01*
X33077Y46679D01*
X33090Y46671D01*
X33101Y46665D01*
X33105Y46663D01*
X33108Y46661D01*
X33110Y46661D01*
X33111D01*
X33135Y46653D01*
X33159Y46648D01*
X33183Y46643D01*
X33205Y46640D01*
X33215Y46639D01*
X33225Y46638D01*
X33233D01*
X33239Y46637D01*
X33245D01*
X33250D01*
X33252D01*
X33253D01*
X33277Y46638D01*
X33300Y46640D01*
X33320Y46644D01*
X33338Y46648D01*
X33354Y46650D01*
X33361Y46652D01*
X33366Y46654D01*
X33371Y46655D01*
X33373Y46656D01*
X33375Y46657D01*
X33376D01*
X33398Y46666D01*
X33417Y46676D01*
X33433Y46687D01*
X33447Y46699D01*
X33458Y46710D01*
X33465Y46718D01*
X33470Y46724D01*
X33471Y46725D01*
Y46726D01*
X33484Y46746D01*
X33493Y46767D01*
X33499Y46787D01*
X33503Y46807D01*
X33506Y46824D01*
X33507Y46832D01*
Y46838D01*
X33508Y46843D01*
Y46850D01*
X33507Y46873D01*
X33503Y46894D01*
X33497Y46912D01*
X33492Y46928D01*
X33485Y46940D01*
X33481Y46949D01*
X33477Y46955D01*
X33475Y46956D01*
X33461Y46971D01*
X33446Y46985D01*
X33429Y46996D01*
X33412Y47005D01*
X33398Y47013D01*
X33390Y47016D01*
X33385Y47017D01*
X33380Y47019D01*
X33376Y47021D01*
X33374Y47022D01*
X33373D01*
X33393Y47105D01*
X33410Y47100D01*
X33424Y47094D01*
X33438Y47087D01*
X33452Y47080D01*
X33464Y47073D01*
X33475Y47065D01*
X33486Y47057D01*
X33496Y47050D01*
X33503Y47042D01*
X33510Y47036D01*
X33517Y47029D01*
X33521Y47025D01*
X33526Y47020D01*
X33529Y47016D01*
X33530Y47015D01*
X33531Y47014D01*
X33539Y47001D01*
X33547Y46988D01*
X33554Y46975D01*
X33559Y46961D01*
X33568Y46933D01*
X33573Y46908D01*
X33576Y46896D01*
X33577Y46886D01*
X33578Y46876D01*
X33579Y46868D01*
X33580Y46861D01*
Y46852D01*
X33578Y46821D01*
X33573Y46792D01*
X33568Y46766D01*
X33564Y46754D01*
X33560Y46743D01*
X33557Y46733D01*
X33553Y46723D01*
X33550Y46716D01*
X33547Y46709D01*
X33545Y46704D01*
X33543Y46700D01*
X33542Y46698D01*
X33541Y46697D01*
X33525Y46672D01*
X33507Y46650D01*
X33488Y46632D01*
X33470Y46616D01*
X33453Y46604D01*
X33446Y46600D01*
X33439Y46596D01*
X33435Y46592D01*
X33431Y46590D01*
X33428Y46589D01*
X33427Y46588D01*
X33398Y46575D01*
X33369Y46566D01*
X33339Y46560D01*
X33312Y46555D01*
X33300Y46553D01*
X33288Y46552D01*
X33279Y46551D01*
X33270D01*
X33263Y46551D01*
X33258D01*
X33254D01*
X33253D01*
X33220Y46552D01*
X33188Y46556D01*
X33159Y46561D01*
X33145Y46564D01*
X33133Y46567D01*
X33122Y46570D01*
X33112Y46574D01*
X33103Y46576D01*
X33095Y46578D01*
X33090Y46581D01*
X33085Y46582D01*
X33082Y46584D01*
X33081D01*
X33054Y46598D01*
X33029Y46613D01*
X33007Y46630D01*
X32999Y46638D01*
X32991Y46646D01*
X32983Y46653D01*
X32977Y46661D01*
X32971Y46667D01*
X32968Y46673D01*
X32964Y46676D01*
X32961Y46680D01*
X32960Y46682D01*
X32959Y46683D01*
X32952Y46696D01*
X32945Y46709D01*
X32935Y46736D01*
X32928Y46764D01*
X32923Y46791D01*
X32921Y46804D01*
X32920Y46815D01*
X32919Y46825D01*
Y46833D01*
X32918Y46841D01*
Y46851D01*
X32919Y46869D01*
X32920Y46887D01*
X32922Y46904D01*
X32926Y46919D01*
X32931Y46934D01*
X32935Y46948D01*
X32940Y46961D01*
X32945Y46973D01*
X32950Y46983D01*
X32955Y46993D01*
X32959Y47001D01*
X32964Y47008D01*
X32968Y47013D01*
X32969Y47017D01*
X32971Y47019D01*
X32972Y47020D01*
X32983Y47033D01*
X32994Y47044D01*
X33007Y47054D01*
X33020Y47065D01*
X33046Y47081D01*
X33072Y47094D01*
X33084Y47100D01*
X33095Y47104D01*
X33105Y47108D01*
X33114Y47111D01*
X33121Y47114D01*
X33127Y47115D01*
X33130Y47116D01*
X33131D01*
X33153Y47031D01*
D02*
G37*
%LPC*%
G36*
X57437Y26688D02*
X57235D01*
X57437Y26402D01*
Y26688D01*
D02*
G37*
G36*
X39611Y53838D02*
X39606D01*
X39596Y53837D01*
X39585Y53836D01*
X39576Y53833D01*
X39568Y53830D01*
X39552Y53821D01*
X39538Y53812D01*
X39528Y53802D01*
X39520Y53794D01*
X39517Y53790D01*
X39515Y53787D01*
X39513Y53786D01*
Y53785D01*
X39507Y53774D01*
X39501Y53761D01*
X39496Y53746D01*
X39492Y53731D01*
X39488Y53714D01*
X39486Y53696D01*
X39481Y53661D01*
X39479Y53644D01*
X39478Y53628D01*
X39477Y53613D01*
Y53601D01*
X39476Y53590D01*
Y53582D01*
Y53577D01*
Y53576D01*
Y53575D01*
Y53547D01*
X39478Y53521D01*
X39480Y53498D01*
X39482Y53475D01*
X39485Y53457D01*
X39488Y53439D01*
X39492Y53425D01*
X39495Y53411D01*
X39499Y53400D01*
X39502Y53390D01*
X39505Y53382D01*
X39509Y53376D01*
X39511Y53371D01*
X39512Y53368D01*
X39514Y53366D01*
Y53365D01*
X39522Y53356D01*
X39529Y53349D01*
X39536Y53341D01*
X39544Y53336D01*
X39560Y53327D01*
X39573Y53320D01*
X39586Y53316D01*
X39596Y53315D01*
X39599Y53314D01*
X39605D01*
X39615Y53315D01*
X39624Y53316D01*
X39642Y53322D01*
X39658Y53330D01*
X39671Y53340D01*
X39682Y53349D01*
X39690Y53357D01*
X39695Y53364D01*
X39696Y53365D01*
Y53365D01*
X39703Y53377D01*
X39708Y53390D01*
X39714Y53404D01*
X39718Y53420D01*
X39721Y53437D01*
X39724Y53454D01*
X39729Y53490D01*
X39731Y53507D01*
X39732Y53523D01*
X39733Y53537D01*
Y53549D01*
X39733Y53561D01*
Y53569D01*
Y53574D01*
Y53575D01*
X39733Y53604D01*
X39732Y53630D01*
X39730Y53654D01*
X39727Y53676D01*
X39724Y53696D01*
X39720Y53713D01*
X39717Y53729D01*
X39713Y53743D01*
X39709Y53755D01*
X39707Y53765D01*
X39703Y53773D01*
X39700Y53781D01*
X39697Y53785D01*
X39696Y53789D01*
X39694Y53791D01*
Y53792D01*
X39687Y53800D01*
X39681Y53807D01*
X39673Y53813D01*
X39666Y53819D01*
X39651Y53827D01*
X39637Y53832D01*
X39625Y53835D01*
X39615Y53837D01*
X39611Y53838D01*
D02*
G37*
G36*
X134218Y37459D02*
X134216D01*
X134214D01*
X134213D01*
X134189Y37457D01*
X134167Y37454D01*
X134147Y37447D01*
X134132Y37440D01*
X134119Y37433D01*
X134109Y37427D01*
X134107Y37425D01*
X134104Y37423D01*
X134103Y37421D01*
X134102D01*
X134095Y37414D01*
X134087Y37407D01*
X134077Y37391D01*
X134069Y37375D01*
X134064Y37360D01*
X134060Y37348D01*
X134059Y37338D01*
X134059Y37334D01*
Y37320D01*
X134060Y37310D01*
X134065Y37294D01*
X134071Y37279D01*
X134078Y37266D01*
X134085Y37256D01*
X134092Y37248D01*
X134096Y37244D01*
X134097Y37242D01*
X134098D01*
X134114Y37230D01*
X134132Y37221D01*
X134150Y37214D01*
X134168Y37211D01*
X134182Y37208D01*
X134189Y37207D01*
X134195D01*
X134200Y37206D01*
X134204D01*
X134206D01*
X134206D01*
X134230Y37208D01*
X134252Y37211D01*
X134269Y37217D01*
X134284Y37223D01*
X134296Y37231D01*
X134304Y37236D01*
X134310Y37240D01*
X134312Y37242D01*
X134325Y37256D01*
X134334Y37271D01*
X134341Y37285D01*
X134345Y37300D01*
X134348Y37312D01*
X134349Y37322D01*
X134350Y37326D01*
Y37332D01*
X134348Y37351D01*
X134344Y37369D01*
X134338Y37384D01*
X134330Y37398D01*
X134324Y37408D01*
X134317Y37417D01*
X134314Y37421D01*
X134312Y37423D01*
X134297Y37435D01*
X134280Y37444D01*
X134264Y37450D01*
X134248Y37455D01*
X134234Y37457D01*
X134229Y37458D01*
X134223D01*
X134218Y37459D01*
D02*
G37*
G36*
X131484Y37434D02*
X131483D01*
X131482D01*
X131468Y37433D01*
X131455Y37430D01*
X131443Y37425D01*
X131433Y37419D01*
X131424Y37415D01*
X131418Y37410D01*
X131414Y37407D01*
X131413Y37406D01*
X131403Y37394D01*
X131396Y37382D01*
X131391Y37369D01*
X131387Y37357D01*
X131385Y37345D01*
X131384Y37337D01*
Y37330D01*
X131384Y37314D01*
X131388Y37299D01*
X131393Y37287D01*
X131398Y37276D01*
X131404Y37268D01*
X131408Y37261D01*
X131412Y37257D01*
X131413Y37256D01*
X131425Y37246D01*
X131437Y37238D01*
X131449Y37233D01*
X131460Y37229D01*
X131470Y37227D01*
X131479Y37225D01*
X131484D01*
X131485D01*
X131486D01*
X131501Y37226D01*
X131515Y37230D01*
X131527Y37235D01*
X131537Y37240D01*
X131545Y37246D01*
X131551Y37250D01*
X131555Y37254D01*
X131556Y37255D01*
X131566Y37266D01*
X131573Y37279D01*
X131578Y37291D01*
X131581Y37303D01*
X131583Y37314D01*
X131584Y37322D01*
X131585Y37328D01*
Y37330D01*
X131584Y37346D01*
X131580Y37361D01*
X131576Y37374D01*
X131570Y37385D01*
X131566Y37394D01*
X131561Y37400D01*
X131557Y37405D01*
X131556Y37406D01*
X131545Y37415D01*
X131532Y37422D01*
X131520Y37427D01*
X131508Y37431D01*
X131498Y37432D01*
X131490Y37433D01*
X131484Y37434D01*
D02*
G37*
G36*
X131783Y37460D02*
X131779D01*
X131777D01*
X131758Y37458D01*
X131740Y37455D01*
X131725Y37449D01*
X131711Y37442D01*
X131701Y37435D01*
X131692Y37430D01*
X131688Y37426D01*
X131686Y37424D01*
X131674Y37410D01*
X131665Y37394D01*
X131658Y37380D01*
X131653Y37365D01*
X131651Y37352D01*
X131650Y37342D01*
X131649Y37338D01*
Y37333D01*
X131651Y37312D01*
X131654Y37294D01*
X131661Y37277D01*
X131667Y37263D01*
X131675Y37252D01*
X131681Y37244D01*
X131685Y37239D01*
X131687Y37237D01*
X131702Y37224D01*
X131717Y37215D01*
X131733Y37209D01*
X131747Y37204D01*
X131761Y37201D01*
X131771Y37200D01*
X131775Y37199D01*
X131777D01*
X131779D01*
X131780D01*
X131800Y37201D01*
X131818Y37205D01*
X131834Y37211D01*
X131847Y37218D01*
X131857Y37224D01*
X131865Y37231D01*
X131870Y37235D01*
X131872Y37236D01*
X131884Y37251D01*
X131893Y37266D01*
X131898Y37282D01*
X131903Y37296D01*
X131906Y37309D01*
X131907Y37321D01*
X131908Y37324D01*
Y37330D01*
X131907Y37343D01*
X131905Y37356D01*
X131902Y37368D01*
X131899Y37378D01*
X131897Y37386D01*
X131894Y37393D01*
X131892Y37396D01*
X131891Y37398D01*
X131884Y37409D01*
X131876Y37419D01*
X131868Y37427D01*
X131860Y37433D01*
X131853Y37439D01*
X131848Y37443D01*
X131843Y37444D01*
X131842Y37445D01*
X131830Y37450D01*
X131819Y37454D01*
X131808Y37456D01*
X131798Y37458D01*
X131789Y37459D01*
X131783Y37460D01*
D02*
G37*
G36*
X57120Y20852D02*
X57116D01*
X57114D01*
X57114D01*
X57089Y20851D01*
X57067Y20847D01*
X57049Y20841D01*
X57033Y20835D01*
X57021Y20827D01*
X57012Y20822D01*
X57006Y20818D01*
X57005Y20816D01*
X57004D01*
X56997Y20810D01*
X56992Y20802D01*
X56981Y20788D01*
X56975Y20773D01*
X56969Y20760D01*
X56967Y20748D01*
X56966Y20739D01*
X56965Y20735D01*
Y20730D01*
X56966Y20717D01*
X56967Y20705D01*
X56971Y20694D01*
X56975Y20685D01*
X56978Y20677D01*
X56981Y20670D01*
X56983Y20667D01*
X56984Y20665D01*
X56992Y20654D01*
X57001Y20644D01*
X57011Y20636D01*
X57019Y20630D01*
X57028Y20624D01*
X57034Y20620D01*
X57039Y20618D01*
X57041Y20617D01*
X57054Y20611D01*
X57068Y20607D01*
X57081Y20604D01*
X57093Y20602D01*
X57103Y20601D01*
X57112Y20600D01*
X57116D01*
X57118D01*
X57140Y20602D01*
X57160Y20606D01*
X57177Y20612D01*
X57191Y20618D01*
X57203Y20625D01*
X57212Y20631D01*
X57216Y20635D01*
X57218Y20637D01*
X57231Y20652D01*
X57240Y20667D01*
X57248Y20682D01*
X57252Y20696D01*
X57255Y20709D01*
X57256Y20718D01*
X57257Y20722D01*
Y20728D01*
X57255Y20747D01*
X57250Y20765D01*
X57245Y20779D01*
X57237Y20792D01*
X57230Y20802D01*
X57225Y20810D01*
X57220Y20814D01*
X57218Y20816D01*
X57202Y20828D01*
X57186Y20838D01*
X57168Y20844D01*
X57151Y20848D01*
X57137Y20851D01*
X57130Y20851D01*
X57125D01*
X57120Y20852D01*
D02*
G37*
G36*
X111824Y13248D02*
X111815Y13246D01*
X111806Y13245D01*
X111789Y13240D01*
X111776Y13234D01*
X111765Y13228D01*
X111757Y13222D01*
X111753Y13220D01*
X111749Y13216D01*
X111743Y13208D01*
X111736Y13200D01*
X111732Y13192D01*
X111729Y13183D01*
X111723Y13166D01*
X111720Y13150D01*
Y13136D01*
Y13124D01*
X111721Y13119D01*
X111721Y13116D01*
X111721Y13114D01*
X111721Y13114D01*
X111725Y13101D01*
X111730Y13088D01*
X111736Y13074D01*
X111745Y13060D01*
X111754Y13046D01*
X111765Y13031D01*
X111786Y13003D01*
X111797Y12989D01*
X111808Y12978D01*
X111817Y12966D01*
X111826Y12958D01*
X111833Y12949D01*
X111839Y12944D01*
X111842Y12940D01*
X111843Y12940D01*
X111844Y12939D01*
X111864Y12919D01*
X111884Y12902D01*
X111901Y12887D01*
X111918Y12872D01*
X111933Y12861D01*
X111948Y12851D01*
X111961Y12844D01*
X111973Y12836D01*
X111984Y12830D01*
X111993Y12827D01*
X112001Y12823D01*
X112008Y12821D01*
X112012Y12819D01*
X112016Y12818D01*
X112018D01*
X112019Y12817D01*
X112031Y12816D01*
X112052D01*
X112061Y12817D01*
X112078Y12822D01*
X112093Y12827D01*
X112104Y12834D01*
X112112Y12839D01*
X112116Y12841D01*
X112120Y12845D01*
X112126Y12853D01*
X112132Y12860D01*
X112140Y12877D01*
X112145Y12894D01*
X112148Y12910D01*
X112149Y12924D01*
Y12936D01*
X112148Y12944D01*
X112148Y12946D01*
X112148Y12946D01*
X112144Y12959D01*
X112139Y12972D01*
X112133Y12986D01*
X112124Y13000D01*
X112115Y13014D01*
X112104Y13029D01*
X112082Y13057D01*
X112072Y13070D01*
X112061Y13082D01*
X112052Y13093D01*
X112043Y13102D01*
X112036Y13110D01*
X112030Y13116D01*
X112027Y13119D01*
X112025Y13121D01*
X112004Y13140D01*
X111985Y13158D01*
X111967Y13174D01*
X111950Y13187D01*
X111934Y13199D01*
X111919Y13209D01*
X111905Y13217D01*
X111893Y13225D01*
X111882Y13231D01*
X111872Y13236D01*
X111864Y13239D01*
X111857Y13242D01*
X111851Y13244D01*
X111848Y13245D01*
X111845D01*
X111844Y13246D01*
X111834Y13247D01*
X111824Y13248D01*
D02*
G37*
G36*
X36161Y47503D02*
X36156D01*
X36155D01*
X36154D01*
X36139Y47502D01*
X36125Y47498D01*
X36113Y47494D01*
X36103Y47488D01*
X36095Y47482D01*
X36089Y47478D01*
X36085Y47474D01*
X36084Y47473D01*
X36074Y47462D01*
X36067Y47449D01*
X36062Y47437D01*
X36059Y47425D01*
X36057Y47414D01*
X36056Y47406D01*
X36055Y47400D01*
Y47398D01*
X36056Y47382D01*
X36060Y47367D01*
X36064Y47354D01*
X36070Y47343D01*
X36074Y47335D01*
X36079Y47328D01*
X36083Y47323D01*
X36084Y47323D01*
X36095Y47313D01*
X36108Y47306D01*
X36120Y47301D01*
X36132Y47298D01*
X36142Y47296D01*
X36150Y47295D01*
X36156Y47294D01*
X36157D01*
X36158D01*
X36172Y47295D01*
X36185Y47298D01*
X36197Y47303D01*
X36208Y47309D01*
X36216Y47313D01*
X36222Y47318D01*
X36226Y47322D01*
X36227Y47323D01*
X36237Y47335D01*
X36245Y47347D01*
X36249Y47360D01*
X36253Y47372D01*
X36255Y47383D01*
X36257Y47391D01*
Y47398D01*
X36256Y47414D01*
X36252Y47429D01*
X36247Y47441D01*
X36242Y47452D01*
X36236Y47460D01*
X36232Y47467D01*
X36228Y47471D01*
X36227Y47472D01*
X36215Y47482D01*
X36203Y47490D01*
X36191Y47495D01*
X36180Y47499D01*
X36170Y47501D01*
X36161Y47503D01*
D02*
G37*
G36*
X35866Y47529D02*
X35863D01*
X35861D01*
X35860D01*
X35841Y47527D01*
X35822Y47523D01*
X35806Y47517D01*
X35793Y47510D01*
X35783Y47504D01*
X35775Y47497D01*
X35770Y47494D01*
X35768Y47492D01*
X35756Y47477D01*
X35747Y47462D01*
X35742Y47446D01*
X35737Y47432D01*
X35734Y47419D01*
X35733Y47408D01*
X35732Y47404D01*
Y47398D01*
X35733Y47385D01*
X35735Y47372D01*
X35738Y47360D01*
X35741Y47350D01*
X35743Y47342D01*
X35746Y47335D01*
X35748Y47332D01*
X35749Y47330D01*
X35756Y47319D01*
X35764Y47310D01*
X35772Y47301D01*
X35780Y47295D01*
X35787Y47289D01*
X35792Y47286D01*
X35797Y47284D01*
X35798Y47283D01*
X35810Y47278D01*
X35821Y47274D01*
X35832Y47272D01*
X35842Y47270D01*
X35851Y47269D01*
X35857Y47268D01*
X35861D01*
X35863D01*
X35882Y47270D01*
X35900Y47274D01*
X35915Y47279D01*
X35929Y47286D01*
X35939Y47293D01*
X35948Y47298D01*
X35952Y47302D01*
X35954Y47304D01*
X35966Y47318D01*
X35976Y47334D01*
X35982Y47348D01*
X35987Y47363D01*
X35989Y47376D01*
X35990Y47386D01*
X35991Y47390D01*
Y47396D01*
X35989Y47416D01*
X35986Y47434D01*
X35979Y47451D01*
X35973Y47465D01*
X35965Y47476D01*
X35959Y47484D01*
X35955Y47489D01*
X35953Y47491D01*
X35939Y47504D01*
X35923Y47513D01*
X35907Y47519D01*
X35893Y47524D01*
X35879Y47527D01*
X35869Y47528D01*
X35866Y47529D01*
D02*
G37*
%LPD*%
D102*
X125205Y41850D02*
Y44950D01*
Y41850D02*
X128405D01*
Y44950D01*
X125205D02*
X128405D01*
X124933Y41272D02*
Y45578D01*
X122377D02*
X124933D01*
X122377Y41272D02*
Y45578D01*
Y41272D02*
X124933D01*
X53897Y25647D02*
X58203D01*
Y28203D01*
X53897D02*
X58203D01*
X53897Y25647D02*
Y28203D01*
X38796Y54527D02*
X43102D01*
X38796Y51971D02*
Y54527D01*
Y51971D02*
X43102D01*
Y54527D01*
X129058Y29075D02*
Y34175D01*
X122352Y29075D02*
X129058D01*
X122352D02*
Y34175D01*
X129058D01*
X133369Y40828D02*
X135926D01*
Y36522D02*
Y40828D01*
X133369Y36522D02*
X135926D01*
X133369D02*
Y40828D01*
X130694D02*
X133251D01*
Y36522D02*
Y40828D01*
X130694Y36522D02*
X133251D01*
X130694D02*
Y40828D01*
X55622Y17722D02*
X58178D01*
X55622D02*
Y22028D01*
X58178D01*
Y17722D02*
Y22028D01*
X31650Y53003D02*
X34207D01*
Y48697D02*
Y53003D01*
X31650Y48697D02*
X34207D01*
X31650D02*
Y53003D01*
X113735Y16176D02*
X115542Y14368D01*
X112497Y11323D02*
X115542Y14368D01*
X110690Y13131D02*
X112497Y11323D01*
X110690Y13131D02*
X113735Y16176D01*
X122327Y34447D02*
Y37003D01*
X126633D01*
Y34447D02*
Y37003D01*
X122327Y34447D02*
X126633D01*
X34390Y44397D02*
X36946D01*
X34390D02*
Y48704D01*
X36946D01*
Y44397D02*
Y48704D01*
X39622Y41496D02*
Y44052D01*
X43928D01*
Y41496D02*
Y44052D01*
X39622Y41496D02*
X43928D01*
X31640Y44397D02*
X34196D01*
X31640D02*
Y48704D01*
X34196D01*
Y44397D02*
Y48704D01*
D139*
X42350Y48720D02*
G03*
X42350Y47520I0J-600D01*
G01*
X28000Y6975D02*
Y15500D01*
X32100Y6975D02*
Y15500D01*
X28000D02*
X32100D01*
X28000Y6975D02*
X32100D01*
X36025Y2325D02*
X40125D01*
X36025Y10850D02*
X40125D01*
Y2325D02*
Y10850D01*
X36025Y2325D02*
Y10850D01*
X53775Y30675D02*
Y33675D01*
X60425Y30675D02*
Y33675D01*
X53775Y30675D02*
X60425D01*
X53775Y33675D02*
X60425D01*
X123905Y40375D02*
X128605D01*
X123905Y38025D02*
X128605D01*
Y40375D01*
X123905Y38025D02*
Y40375D01*
X105044Y55915D02*
Y57439D01*
X108092Y55915D02*
Y57439D01*
X105044Y55915D02*
X108092D01*
X105044Y57439D02*
X108092D01*
X133188Y49676D02*
X134712D01*
X133188Y52724D02*
X134712D01*
Y49676D02*
Y52724D01*
X133188Y49676D02*
Y52724D01*
X108058Y57610D02*
Y59134D01*
X105010Y57610D02*
Y59134D01*
X108058D01*
X105010Y57610D02*
X108058D01*
X146947Y22075D02*
X147297D01*
X145172D02*
X145447D01*
X145172D02*
Y26675D01*
X147297Y22075D02*
Y26675D01*
X145172D02*
X147297D01*
X145447Y22075D02*
X146947D01*
X37250Y44470D02*
X42350D01*
X37250Y51770D02*
X42350D01*
Y48720D02*
Y51770D01*
X37250Y44470D02*
Y51770D01*
X42350Y44470D02*
Y47520D01*
X13950Y41675D02*
Y48325D01*
X16950Y41675D02*
Y48325D01*
X13950D02*
X16950D01*
X13950Y41675D02*
X16950D01*
X13726Y54062D02*
X16774D01*
X13726Y52538D02*
X16774D01*
Y54062D01*
X13726Y52538D02*
Y54062D01*
X45350Y2325D02*
Y10850D01*
X49450Y2325D02*
Y10850D01*
X45350D02*
X49450D01*
X45350Y2325D02*
X49450D01*
X44775Y2350D02*
Y10875D01*
X40675Y2350D02*
Y10875D01*
Y2350D02*
X44775D01*
X40675Y10875D02*
X44775D01*
X139513Y22651D02*
Y25699D01*
X141037Y22651D02*
Y25699D01*
X139513D02*
X141037D01*
X139513Y22651D02*
X141037D01*
X120657Y38676D02*
Y41724D01*
X122181Y38676D02*
Y41724D01*
X120657D02*
X122181D01*
X120657Y38676D02*
X122181D01*
X118893Y38676D02*
Y41724D01*
X120417Y38676D02*
Y41724D01*
X118893D02*
X120417D01*
X118893Y38676D02*
X120417D01*
X122181Y41901D02*
Y44949D01*
X120657Y41901D02*
Y44949D01*
Y41901D02*
X122181D01*
X120657Y44949D02*
X122181D01*
X127731Y54503D02*
X130779D01*
X127731Y56027D02*
X130779D01*
X127731Y54503D02*
Y56027D01*
X130779Y54503D02*
Y56027D01*
X49738Y41250D02*
Y44298D01*
X51262Y41250D02*
Y44298D01*
X49738D02*
X51262D01*
X49738Y41250D02*
X51262D01*
X39587Y40950D02*
Y43998D01*
X38063Y40950D02*
Y43998D01*
Y40950D02*
X39587D01*
X38063Y43998D02*
X39587D01*
X40326Y39712D02*
X43374D01*
X40326Y41236D02*
X43374D01*
X40326Y39712D02*
Y41236D01*
X43374Y39712D02*
Y41236D01*
X42662Y48250D02*
Y51298D01*
X44186Y48250D02*
Y51298D01*
X42662D02*
X44186D01*
X42662Y48250D02*
X44186D01*
X34938Y49225D02*
Y52273D01*
X36462Y49225D02*
Y52273D01*
X34938D02*
X36462D01*
X34938Y49225D02*
X36462D01*
X40376Y35462D02*
X43424D01*
X40376Y36986D02*
X43424D01*
X40376Y35462D02*
Y36986D01*
X43424Y35462D02*
Y36986D01*
X121494Y28275D02*
X121844D01*
X119719D02*
X119994D01*
X119719D02*
Y32875D01*
X121844Y28275D02*
Y32875D01*
X119719D02*
X121844D01*
X119994Y28275D02*
X121494D01*
X133430Y45525D02*
Y45875D01*
Y43750D02*
Y44025D01*
X128830Y43750D02*
X133430D01*
X128830Y45875D02*
X133430D01*
X128830Y43750D02*
Y45875D01*
X133430Y44025D02*
Y45525D01*
Y41575D02*
Y43075D01*
X128830Y41300D02*
Y43425D01*
X133430D01*
X128830Y41300D02*
X133430D01*
Y41575D01*
Y43075D02*
Y43425D01*
X129700Y28300D02*
X131200D01*
X129425Y32900D02*
X131550D01*
Y28300D02*
Y32900D01*
X129425Y28300D02*
Y32900D01*
Y28300D02*
X129700D01*
X131200D02*
X131550D01*
X34725Y16225D02*
Y19225D01*
X41375Y16225D02*
Y19225D01*
X34725Y16225D02*
X41375D01*
X34725Y19225D02*
X41375D01*
X52750Y14325D02*
Y17325D01*
X59400Y14325D02*
Y17325D01*
X52750Y14325D02*
X59400D01*
X52750Y17325D02*
X59400D01*
X30050Y11250D02*
X30750D01*
Y11600D01*
X30633Y11717D01*
X30400D01*
X30283Y11600D01*
Y11250D01*
Y11483D02*
X30050Y11717D01*
Y11950D02*
Y12183D01*
Y12066D01*
X30750D01*
X30633Y11950D01*
Y12533D02*
X30750Y12650D01*
Y12883D01*
X30633Y12999D01*
X30167D01*
X30050Y12883D01*
Y12650D01*
X30167Y12533D01*
X30633D01*
X38075Y6600D02*
X38775D01*
Y6950D01*
X38658Y7067D01*
X38425D01*
X38308Y6950D01*
Y6600D01*
Y6833D02*
X38075Y7067D01*
Y7300D02*
Y7533D01*
Y7416D01*
X38775D01*
X38658Y7300D01*
X38075Y7883D02*
Y8116D01*
Y8000D01*
X38775D01*
X38658Y7883D01*
X56125Y31825D02*
Y32292D01*
X56358Y32525D01*
X56592Y32292D01*
Y31825D01*
X56825D02*
Y32525D01*
X57175D01*
X57291Y32408D01*
Y31942D01*
X57175Y31825D01*
X56825D01*
X57525Y32525D02*
X57758D01*
X57641D01*
Y31825D01*
X57525Y31942D01*
X125797Y38942D02*
X125680Y38825D01*
X125447D01*
X125330Y38942D01*
Y39408D01*
X125447Y39525D01*
X125680D01*
X125797Y39408D01*
X126496Y39525D02*
X126030D01*
X126496Y39058D01*
Y38942D01*
X126380Y38825D01*
X126146D01*
X126030Y38942D01*
X126730Y39525D02*
X126963D01*
X126846D01*
Y38825D01*
X126730Y38942D01*
X105593Y57027D02*
Y56327D01*
X105943D01*
X106060Y56444D01*
Y56677D01*
X105943Y56794D01*
X105593D01*
X105826D02*
X106060Y57027D01*
X106759D02*
X106293D01*
X106759Y56560D01*
Y56444D01*
X106643Y56327D01*
X106409D01*
X106293Y56444D01*
X107342Y57027D02*
Y56327D01*
X106993Y56677D01*
X107459D01*
X133600Y50225D02*
X134300D01*
Y50575D01*
X134183Y50692D01*
X133950D01*
X133833Y50575D01*
Y50225D01*
Y50458D02*
X133600Y50692D01*
Y50925D02*
Y51158D01*
Y51041D01*
X134300D01*
X134183Y50925D01*
X134300Y51508D02*
Y51974D01*
X134183D01*
X133717Y51508D01*
X133600D01*
X107509Y58022D02*
Y58722D01*
X107159D01*
X107042Y58606D01*
Y58372D01*
X107159Y58256D01*
X107509D01*
X107276D02*
X107042Y58022D01*
X106343D02*
X106809D01*
X106343Y58489D01*
Y58606D01*
X106459Y58722D01*
X106692D01*
X106809Y58606D01*
X105643Y58722D02*
X106109D01*
Y58372D01*
X105876Y58489D01*
X105759D01*
X105643Y58372D01*
Y58139D01*
X105759Y58022D01*
X105993D01*
X106109Y58139D01*
X146947Y24325D02*
X146480D01*
X146247Y24558D01*
X146480Y24792D01*
X146947D01*
Y25025D02*
X146247D01*
Y25375D01*
X146364Y25491D01*
X146830D01*
X146947Y25375D01*
Y25025D01*
Y26191D02*
Y25725D01*
X146597D01*
X146714Y25958D01*
Y26074D01*
X146597Y26191D01*
X146364D01*
X146247Y26074D01*
Y25841D01*
X146364Y25725D01*
X40150Y47195D02*
X39450D01*
Y47545D01*
X39567Y47661D01*
X40033D01*
X40150Y47545D01*
Y47195D01*
X39450Y47895D02*
X39917D01*
X40150Y48128D01*
X39917Y48361D01*
X39450D01*
X39800D01*
Y47895D01*
X39450Y49061D02*
Y48594D01*
X39917Y49061D01*
X40033D01*
X40150Y48944D01*
Y48711D01*
X40033Y48594D01*
X15800Y44025D02*
X15333D01*
X15100Y44258D01*
X15333Y44492D01*
X15800D01*
Y44725D02*
X15100D01*
Y45075D01*
X15217Y45191D01*
X15683D01*
X15800Y45075D01*
Y44725D01*
Y45891D02*
X15683Y45658D01*
X15450Y45425D01*
X15217D01*
X15100Y45541D01*
Y45774D01*
X15217Y45891D01*
X15333D01*
X15450Y45774D01*
Y45425D01*
X14275Y53650D02*
Y52950D01*
X14625D01*
X14742Y53067D01*
Y53300D01*
X14625Y53417D01*
X14275D01*
X14508D02*
X14742Y53650D01*
X14975Y53067D02*
X15091Y52950D01*
X15325D01*
X15441Y53067D01*
Y53183D01*
X15325Y53300D01*
X15208D01*
X15325D01*
X15441Y53417D01*
Y53533D01*
X15325Y53650D01*
X15091D01*
X14975Y53533D01*
X47400Y6600D02*
X48100D01*
Y6950D01*
X47983Y7067D01*
X47750D01*
X47633Y6950D01*
Y6600D01*
Y6833D02*
X47400Y7067D01*
Y7300D02*
Y7533D01*
Y7416D01*
X48100D01*
X47983Y7300D01*
Y7883D02*
X48100Y8000D01*
Y8233D01*
X47983Y8349D01*
X47867D01*
X47750Y8233D01*
Y8116D01*
Y8233D01*
X47633Y8349D01*
X47517D01*
X47400Y8233D01*
Y8000D01*
X47517Y7883D01*
X42725Y6600D02*
X42025D01*
Y6250D01*
X42142Y6133D01*
X42375D01*
X42492Y6250D01*
Y6600D01*
Y6367D02*
X42725Y6133D01*
Y5900D02*
Y5667D01*
Y5784D01*
X42025D01*
X42142Y5900D01*
X42725Y4851D02*
Y5317D01*
X42258Y4851D01*
X42142D01*
X42025Y4967D01*
Y5200D01*
X42142Y5317D01*
X139925Y23200D02*
X140625D01*
Y23550D01*
X140508Y23667D01*
X140275D01*
X140158Y23550D01*
Y23200D01*
Y23433D02*
X139925Y23667D01*
Y24366D02*
Y23900D01*
X140392Y24366D01*
X140508D01*
X140625Y24250D01*
Y24016D01*
X140508Y23900D01*
Y24600D02*
X140625Y24716D01*
Y24949D01*
X140508Y25066D01*
X140392D01*
X140275Y24949D01*
Y24833D01*
Y24949D01*
X140158Y25066D01*
X140042D01*
X139925Y24949D01*
Y24716D01*
X140042Y24600D01*
X121069Y39225D02*
X121769D01*
Y39575D01*
X121652Y39692D01*
X121419D01*
X121302Y39575D01*
Y39225D01*
Y39458D02*
X121069Y39692D01*
Y40391D02*
Y39925D01*
X121535Y40391D01*
X121652D01*
X121769Y40275D01*
Y40041D01*
X121652Y39925D01*
X121069Y41091D02*
Y40625D01*
X121535Y41091D01*
X121652D01*
X121769Y40974D01*
Y40741D01*
X121652Y40625D01*
X119305Y39225D02*
X120005D01*
Y39575D01*
X119888Y39692D01*
X119655D01*
X119538Y39575D01*
Y39225D01*
Y39458D02*
X119305Y39692D01*
Y40391D02*
Y39925D01*
X119772Y40391D01*
X119888D01*
X120005Y40275D01*
Y40041D01*
X119888Y39925D01*
X119305Y40625D02*
Y40858D01*
Y40741D01*
X120005D01*
X119888Y40625D01*
X121769Y44400D02*
X121069D01*
Y44050D01*
X121186Y43933D01*
X121419D01*
X121536Y44050D01*
Y44400D01*
Y44167D02*
X121769Y43933D01*
Y43700D02*
Y43467D01*
Y43584D01*
X121069D01*
X121186Y43700D01*
X121652Y43117D02*
X121769Y43000D01*
Y42767D01*
X121652Y42651D01*
X121186D01*
X121069Y42767D01*
Y43000D01*
X121186Y43117D01*
X121302D01*
X121419Y43000D01*
Y42651D01*
X130230Y54915D02*
Y55615D01*
X129880D01*
X129763Y55498D01*
Y55265D01*
X129880Y55148D01*
X130230D01*
X129997D02*
X129763Y54915D01*
X129530D02*
X129297D01*
X129414D01*
Y55615D01*
X129530Y55498D01*
X128947D02*
X128830Y55615D01*
X128597D01*
X128481Y55498D01*
Y55382D01*
X128597Y55265D01*
X128481Y55148D01*
Y55032D01*
X128597Y54915D01*
X128830D01*
X128947Y55032D01*
Y55148D01*
X128830Y55265D01*
X128947Y55382D01*
Y55498D01*
X128830Y55265D02*
X128597D01*
X50150Y41799D02*
X50850D01*
Y42149D01*
X50733Y42266D01*
X50500D01*
X50383Y42149D01*
Y41799D01*
Y42032D02*
X50150Y42266D01*
X50267Y42499D02*
X50150Y42615D01*
Y42849D01*
X50267Y42965D01*
X50733D01*
X50850Y42849D01*
Y42615D01*
X50733Y42499D01*
X50617D01*
X50500Y42615D01*
Y42965D01*
X39175Y43449D02*
X38475D01*
Y43099D01*
X38592Y42982D01*
X38825D01*
X38942Y43099D01*
Y43449D01*
Y43216D02*
X39175Y42982D01*
X38475Y42283D02*
X38592Y42516D01*
X38825Y42749D01*
X39058D01*
X39175Y42633D01*
Y42399D01*
X39058Y42283D01*
X38942D01*
X38825Y42399D01*
Y42749D01*
X42825Y40124D02*
Y40824D01*
X42475D01*
X42358Y40707D01*
Y40474D01*
X42475Y40357D01*
X42825D01*
X42592D02*
X42358Y40124D01*
X41659Y40824D02*
X42125D01*
Y40474D01*
X41892Y40590D01*
X41775D01*
X41659Y40474D01*
Y40240D01*
X41775Y40124D01*
X42009D01*
X42125Y40240D01*
X43074Y48799D02*
X43774D01*
Y49149D01*
X43657Y49266D01*
X43424D01*
X43307Y49149D01*
Y48799D01*
Y49032D02*
X43074Y49266D01*
Y49849D02*
X43774D01*
X43424Y49499D01*
Y49965D01*
X35350Y49774D02*
X36050D01*
Y50124D01*
X35933Y50241D01*
X35700D01*
X35583Y50124D01*
Y49774D01*
Y50007D02*
X35350Y50241D01*
Y50940D02*
Y50474D01*
X35817Y50940D01*
X35933D01*
X36050Y50824D01*
Y50590D01*
X35933Y50474D01*
X42875Y35874D02*
Y36574D01*
X42525D01*
X42408Y36457D01*
Y36224D01*
X42525Y36107D01*
X42875D01*
X42642D02*
X42408Y35874D01*
X42175D02*
X41942D01*
X42059D01*
Y36574D01*
X42175Y36457D01*
X121494Y30525D02*
X121027D01*
X120794Y30758D01*
X121027Y30992D01*
X121494D01*
Y31225D02*
X120794D01*
Y31575D01*
X120910Y31691D01*
X121377D01*
X121494Y31575D01*
Y31225D01*
X120794Y31925D02*
Y32158D01*
Y32041D01*
X121494D01*
X121377Y31925D01*
X121494Y32974D02*
X121377Y32741D01*
X121144Y32508D01*
X120910D01*
X120794Y32624D01*
Y32858D01*
X120910Y32974D01*
X121027D01*
X121144Y32858D01*
Y32508D01*
X131180Y45525D02*
Y45058D01*
X130946Y44825D01*
X130713Y45058D01*
Y45525D01*
X130480D02*
Y44825D01*
X130130D01*
X130013Y44942D01*
Y45408D01*
X130130Y45525D01*
X130480D01*
X129780Y44942D02*
X129663Y44825D01*
X129430D01*
X129314Y44942D01*
Y45408D01*
X129430Y45525D01*
X129663D01*
X129780Y45408D01*
Y45292D01*
X129663Y45175D01*
X129314D01*
X131180Y43075D02*
Y42608D01*
X130946Y42375D01*
X130713Y42608D01*
Y43075D01*
X130480D02*
Y42375D01*
X130130D01*
X130013Y42492D01*
Y42958D01*
X130130Y43075D01*
X130480D01*
X129780Y42375D02*
X129547D01*
X129663D01*
Y43075D01*
X129780Y42958D01*
X128730Y43075D02*
X129197D01*
Y42725D01*
X128964Y42842D01*
X128847D01*
X128730Y42725D01*
Y42492D01*
X128847Y42375D01*
X129080D01*
X129197Y42492D01*
X131200Y30550D02*
X130733D01*
X130500Y30783D01*
X130733Y31017D01*
X131200D01*
Y31250D02*
X130500D01*
Y31600D01*
X130617Y31716D01*
X131083D01*
X131200Y31600D01*
Y31250D01*
X130500Y31950D02*
Y32183D01*
Y32066D01*
X131200D01*
X131083Y31950D01*
X131200Y32533D02*
Y32999D01*
X131083D01*
X130617Y32533D01*
X130500D01*
X37123Y17025D02*
Y17492D01*
X37356Y17725D01*
X37590Y17492D01*
Y17025D01*
X37823D02*
Y17725D01*
X38173D01*
X38289Y17608D01*
Y17142D01*
X38173Y17025D01*
X37823D01*
X38523Y17725D02*
X38756D01*
X38639D01*
Y17025D01*
X38523Y17142D01*
X39106D02*
X39223Y17025D01*
X39456D01*
X39572Y17142D01*
Y17258D01*
X39456Y17375D01*
X39339D01*
X39456D01*
X39572Y17492D01*
Y17608D01*
X39456Y17725D01*
X39223D01*
X39106Y17608D01*
X55100Y15475D02*
Y15942D01*
X55333Y16175D01*
X55567Y15942D01*
Y15475D01*
X55800D02*
Y16175D01*
X56150D01*
X56266Y16058D01*
Y15592D01*
X56150Y15475D01*
X55800D01*
X56500Y15592D02*
X56616Y15475D01*
X56849D01*
X56966Y15592D01*
Y15708D01*
X56849Y15825D01*
X56733D01*
X56849D01*
X56966Y15942D01*
Y16058D01*
X56849Y16175D01*
X56616D01*
X56500Y16058D01*
D148*
X54900Y32176D02*
D03*
X35850Y17726D02*
D03*
X53875Y15826D02*
D03*
D149*
X146222Y22600D02*
D03*
X120769Y28800D02*
D03*
X130475Y28824D02*
D03*
D150*
X15450Y42800D02*
D03*
D151*
X132905Y44800D02*
D03*
X132905Y42350D02*
D03*
%TF.MD5,2e9d414706c4fb4b1e4559d5fade15ce*%
M02*
