%TF.GenerationSoftware,Altium Limited,Altium Designer,21.6.4 (81)*%
G04 Layer_Color=32896*
%FSLAX43Y43*%
%MOMM*%
%TF.SameCoordinates,00D99F87-3ADF-4980-A611-A04F0DE90361*%
%TF.FilePolarity,Positive*%
%TF.FileFunction,Other,Bottom_3D_Body*%
%TF.Part,Single*%
G01*
G75*
%TA.AperFunction,NonConductor*%
%ADD66C,0.200*%
D66*
X43975Y2502D02*
Y4502D01*
X42725D02*
X43975D01*
X42725Y2502D02*
Y4502D01*
Y2502D02*
X43975D01*
X132674Y16175D02*
Y17425D01*
X134674D01*
Y16175D02*
Y17425D01*
X132674Y16175D02*
X134674D01*
X121225Y807D02*
Y5767D01*
X131005D01*
Y807D02*
Y5767D01*
X121225Y807D02*
X131005D01*
X132674Y20075D02*
X134674D01*
X132674Y18825D02*
Y20075D01*
Y18825D02*
X134674D01*
Y20075D01*
X131360Y812D02*
Y5772D01*
X141140D01*
Y812D02*
Y5772D01*
X131360Y812D02*
X141140D01*
X140352Y17750D02*
Y19000D01*
X142352D01*
Y17750D02*
Y19000D01*
X140352Y17750D02*
X142352D01*
X93050Y6191D02*
X94300D01*
Y4191D02*
Y6191D01*
X93050Y4191D02*
X94300D01*
X93050D02*
Y6191D01*
X33061Y7126D02*
Y8376D01*
X35061D01*
Y7126D02*
Y8376D01*
X33061Y7126D02*
X35061D01*
X46775Y44600D02*
X48025D01*
X46775D02*
Y46600D01*
X48025D01*
Y44600D02*
Y46600D01*
X66629Y38026D02*
Y39276D01*
X64629Y38026D02*
X66629D01*
X64629D02*
Y39276D01*
X66629D01*
X70905Y33600D02*
X72155D01*
X70905D02*
Y35600D01*
X72155D01*
Y33600D02*
Y35600D01*
X109675Y7850D02*
Y9100D01*
X107675Y7850D02*
X109675D01*
X107675D02*
Y9100D01*
X109675D01*
X63474Y5775D02*
Y7025D01*
X61474Y5775D02*
X63474D01*
X61474D02*
Y7025D01*
X63474D01*
X45400Y2575D02*
X46650D01*
X45400D02*
Y4575D01*
X46650D01*
Y2575D02*
Y4575D01*
X58725Y1800D02*
Y3050D01*
X56725Y1800D02*
X58725D01*
X56725D02*
Y3050D01*
X58725D01*
X24952Y8951D02*
Y10201D01*
X22952Y8951D02*
X24952D01*
X22952D02*
Y10201D01*
X24952D01*
X25025Y4351D02*
Y5601D01*
X23025Y4351D02*
X25025D01*
X23025D02*
Y5601D01*
X25025D01*
X132692Y13664D02*
Y14914D01*
X134692D01*
Y13664D02*
Y14914D01*
X132692Y13664D02*
X134692D01*
X140352Y10050D02*
Y11300D01*
X142352D01*
Y10050D02*
Y11300D01*
X140352Y10050D02*
X142352D01*
X133975Y9625D02*
X135225D01*
X133975D02*
Y11625D01*
X135225D01*
Y9625D02*
Y11625D01*
X111070Y830D02*
Y5790D01*
X120850D01*
Y830D02*
Y5790D01*
X111070Y830D02*
X120850D01*
X108925Y3716D02*
X110175D01*
X108925D02*
Y5716D01*
X110175D01*
Y3716D02*
Y5716D01*
X77675Y9775D02*
X79675D01*
Y11025D01*
X77675D02*
X79675D01*
X77675Y9775D02*
Y11025D01*
X73757Y7350D02*
X75007D01*
Y5350D02*
Y7350D01*
X73757Y5350D02*
X75007D01*
X73757D02*
Y7350D01*
X91750Y975D02*
Y2225D01*
X93750D01*
Y975D02*
Y2225D01*
X91750Y975D02*
X93750D01*
X76696Y13036D02*
Y15036D01*
Y13036D02*
X77946D01*
Y15036D01*
X76696D02*
X77946D01*
%TF.MD5,3349734dfac767f2080f35f8a0281417*%
M02*
