%TF.GenerationSoftware,Altium Limited,Altium Designer,21.6.4 (81)*%
G04 Layer_Color=16711935*
%FSLAX43Y43*%
%MOMM*%
%TF.SameCoordinates,45A01B4D-518A-40F9-B883-98BDF5CD3DE6*%
%TF.FilePolarity,Positive*%
%TF.FileFunction,Other,Top_Courtyard*%
%TF.Part,Single*%
G01*
G75*
%TA.AperFunction,NonConductor*%
%ADD102C,0.200*%
%ADD156C,0.050*%
D102*
X138400Y12671D02*
Y24271D01*
X129400Y12671D02*
X138400D01*
X129400D02*
Y24271D01*
X138400D01*
X102250Y25330D02*
X107750D01*
Y48670D01*
X102250D02*
X107750D01*
X102250Y25330D02*
Y48670D01*
X91600Y750D02*
Y13650D01*
X62400D02*
X91600D01*
X62400Y750D02*
Y13650D01*
Y750D02*
X91600D01*
X108250Y37825D02*
X110150D01*
X108250Y29275D02*
Y37825D01*
Y29275D02*
X110150D01*
Y37825D01*
D156*
X138550Y18325D02*
Y29925D01*
X147950D01*
Y18325D02*
Y29925D01*
X138550Y18325D02*
X147950D01*
X94975Y4665D02*
X95975D01*
X95475Y4165D02*
Y5165D01*
X92300Y485D02*
Y8845D01*
X98650D01*
Y485D02*
Y8845D01*
X92300Y485D02*
X98650D01*
X138551Y28350D02*
X147951D01*
Y39950D01*
X138551D02*
X147951D01*
X138551Y28350D02*
Y39950D01*
Y38375D02*
X147951D01*
Y49975D01*
X138551D02*
X147951D01*
X138551Y38375D02*
Y49975D01*
X120150Y5275D02*
Y6275D01*
X119650Y5775D02*
X120650D01*
X114950Y825D02*
X125350D01*
X114950D02*
Y10725D01*
X125350D01*
Y825D02*
Y10725D01*
X10500Y35000D02*
Y46600D01*
X1100Y35000D02*
X10500D01*
X1100D02*
Y46600D01*
X10500D01*
%TF.MD5,6659ae29ee22e753fd295e76a10f01cc*%
M02*
