%TF.GenerationSoftware,Altium Limited,Altium Designer,21.6.4 (81)*%
G04 Layer_Color=255*
%FSLAX43Y43*%
%MOMM*%
%TF.SameCoordinates,00D99F87-3ADF-4980-A611-A04F0DE90361*%
%TF.FilePolarity,Positive*%
%TF.FileFunction,Pads,Top*%
%TF.Part,Single*%
G01*
G75*
%TA.AperFunction,SMDPad,CuDef*%
%ADD10R,3.750X9.500*%
%ADD11R,0.900X0.850*%
%ADD12R,2.000X4.000*%
%ADD13R,9.500X3.750*%
%ADD14R,1.600X1.000*%
%TA.AperFunction,ComponentPad*%
%ADD25C,2.286*%
%ADD26C,2.000*%
%ADD27R,1.500X1.500*%
%ADD28C,1.500*%
%ADD29R,1.200X1.200*%
%ADD30C,1.200*%
%ADD31C,1.250*%
%ADD32R,1.250X1.250*%
%ADD33O,2.286X1.778*%
%ADD34C,4.572*%
%ADD35C,1.524*%
%ADD36O,3.048X2.794*%
%ADD37C,1.950*%
G04:AMPARAMS|DCode=38|XSize=1.95mm|YSize=1.95mm|CornerRadius=0.488mm|HoleSize=0mm|Usage=FLASHONLY|Rotation=270.000|XOffset=0mm|YOffset=0mm|HoleType=Round|Shape=RoundedRectangle|*
%AMROUNDEDRECTD38*
21,1,1.950,0.975,0,0,270.0*
21,1,0.975,1.950,0,0,270.0*
1,1,0.975,-0.488,-0.488*
1,1,0.975,-0.488,0.488*
1,1,0.975,0.488,0.488*
1,1,0.975,0.488,-0.488*
%
%ADD38ROUNDEDRECTD38*%
%ADD39C,4.000*%
D10*
X131083Y27025D02*
D03*
X124833D02*
D03*
D11*
X107575Y5725D02*
D03*
Y4175D02*
D03*
X134450Y24275D02*
D03*
Y25825D02*
D03*
D12*
X44141Y12325D02*
D03*
Y19425D02*
D03*
D13*
X107125Y50900D02*
D03*
Y57150D02*
D03*
D14*
X96147Y1626D02*
D03*
X105297Y4166D02*
D03*
X96147D02*
D03*
X105297Y1626D02*
D03*
D25*
X121412Y21725D02*
D03*
X117900Y7468D02*
D03*
X52275Y1848D02*
D03*
X120955Y12479D02*
D03*
X135650Y12700D02*
D03*
X113875Y50761D02*
D03*
X117325Y48750D02*
D03*
X120775Y7440D02*
D03*
X147175Y46150D02*
D03*
X77675Y2725D02*
D03*
X109475Y1626D02*
D03*
X82975Y7475D02*
D03*
X89500D02*
D03*
X78022Y38650D02*
D03*
X42450Y49975D02*
D03*
X52400Y10225D02*
D03*
X84700Y56125D02*
D03*
X88625Y53636D02*
D03*
X137450Y54700D02*
D03*
X61573Y1525D02*
D03*
X36215Y12837D02*
D03*
X131216Y7400D02*
D03*
X136250Y7440D02*
D03*
X127150Y15400D02*
D03*
X131260Y11300D02*
D03*
D26*
X131375Y52950D02*
D03*
X126375D02*
D03*
X49641Y3697D02*
D03*
X37641D02*
D03*
X126280Y39373D02*
D03*
X131280D02*
D03*
X29340Y9852D02*
D03*
Y4852D02*
D03*
X42450Y42024D02*
D03*
Y45124D02*
D03*
X59505Y38650D02*
D03*
X71505D02*
D03*
X15340Y25849D02*
D03*
X28340D02*
D03*
X15340Y35849D02*
D03*
X28340D02*
D03*
X34768Y24448D02*
D03*
X47568D02*
D03*
X35553Y18225D02*
D03*
X13153D02*
D03*
X47594Y33008D02*
D03*
X34794D02*
D03*
X47568Y28741D02*
D03*
X34768D02*
D03*
X34794Y37275D02*
D03*
X47594D02*
D03*
X35427Y43524D02*
D03*
X13027D02*
D03*
X74961Y43850D02*
D03*
X55961D02*
D03*
X37641Y7837D02*
D03*
X49641D02*
D03*
D27*
X145274Y12135D02*
D03*
D28*
Y14675D02*
D03*
Y17215D02*
D03*
D29*
X128655Y3292D02*
D03*
X138790Y3297D02*
D03*
X118500Y3315D02*
D03*
D30*
X126115Y3292D02*
D03*
X123575D02*
D03*
X136250Y3297D02*
D03*
X133710D02*
D03*
X115960Y3315D02*
D03*
X113420D02*
D03*
D31*
X130318Y17700D02*
D03*
Y19825D02*
D03*
D32*
X123218Y17700D02*
D03*
Y19825D02*
D03*
D33*
X80793Y56144D02*
D03*
Y53604D02*
D03*
Y51064D02*
D03*
D34*
X60600Y53604D02*
D03*
D35*
X103197Y8230D02*
D03*
X98247D02*
D03*
X47400Y48025D02*
D03*
Y43075D02*
D03*
D36*
X113975Y44298D02*
D03*
Y39345D02*
D03*
Y34138D02*
D03*
Y29058D02*
D03*
Y24105D02*
D03*
Y19025D02*
D03*
Y13945D02*
D03*
X88575Y44425D02*
D03*
Y39218D02*
D03*
Y34265D02*
D03*
Y24105D02*
D03*
Y19025D02*
D03*
Y13818D02*
D03*
D37*
X5127Y20525D02*
D03*
X144136Y41075D02*
D03*
Y29400D02*
D03*
X5068Y35825D02*
D03*
D38*
X5127Y25525D02*
D03*
X144136Y36075D02*
D03*
Y24400D02*
D03*
X5068Y40825D02*
D03*
D39*
X65725Y26150D02*
D03*
Y16150D02*
D03*
%TF.MD5,0e0d37f9d9cdd57f78e30d9d961a3832*%
M02*
