%TF.GenerationSoftware,Altium Limited,Altium Designer,21.6.4 (81)*%
G04 Layer_Color=255*
%FSLAX43Y43*%
%MOMM*%
%TF.SameCoordinates,45A01B4D-518A-40F9-B883-98BDF5CD3DE6*%
%TF.FilePolarity,Positive*%
%TF.FileFunction,Pads,Top*%
%TF.Part,Single*%
G01*
G75*
%TA.AperFunction,SMDPad,CuDef*%
%ADD10R,0.850X0.900*%
%ADD11R,2.000X4.000*%
%ADD12R,1.600X1.000*%
%ADD13R,0.900X0.850*%
%ADD14R,3.750X9.500*%
%TA.AperFunction,ComponentPad*%
%ADD39C,2.286*%
%ADD40C,4.500*%
%ADD41C,4.000*%
%ADD42O,4.000X3.600*%
%ADD43C,1.950*%
G04:AMPARAMS|DCode=44|XSize=1.95mm|YSize=1.95mm|CornerRadius=0.488mm|HoleSize=0mm|Usage=FLASHONLY|Rotation=90.000|XOffset=0mm|YOffset=0mm|HoleType=Round|Shape=RoundedRectangle|*
%AMROUNDEDRECTD44*
21,1,1.950,0.975,0,0,90.0*
21,1,0.975,1.950,0,0,90.0*
1,1,0.975,0.488,0.488*
1,1,0.975,0.488,-0.488*
1,1,0.975,-0.488,-0.488*
1,1,0.975,-0.488,0.488*
%
%ADD44ROUNDEDRECTD44*%
G04:AMPARAMS|DCode=45|XSize=1.5mm|YSize=1.5mm|CornerRadius=0.375mm|HoleSize=0mm|Usage=FLASHONLY|Rotation=90.000|XOffset=0mm|YOffset=0mm|HoleType=Round|Shape=RoundedRectangle|*
%AMROUNDEDRECTD45*
21,1,1.500,0.750,0,0,90.0*
21,1,0.750,1.500,0,0,90.0*
1,1,0.750,0.375,0.375*
1,1,0.750,0.375,-0.375*
1,1,0.750,-0.375,-0.375*
1,1,0.750,-0.375,0.375*
%
%ADD45ROUNDEDRECTD45*%
%ADD46C,1.500*%
%ADD47R,1.500X1.500*%
%ADD48C,2.500*%
%ADD49C,2.000*%
%ADD50C,3.500*%
%ADD51C,2.200*%
%ADD52R,2.200X2.200*%
%ADD53O,1.778X2.286*%
%ADD54C,3.302*%
%ADD55C,3.000*%
%ADD56O,1.778X2.032*%
%ADD57C,2.794*%
%ADD58O,2.286X1.778*%
%ADD59C,3.048*%
%ADD60R,3.048X3.048*%
%ADD61R,1.200X1.200*%
%ADD62C,1.200*%
%ADD63C,1.250*%
%ADD64R,1.250X1.250*%
%ADD65C,1.524*%
D10*
X107309Y56727D02*
D03*
X105759D02*
D03*
D11*
X133900Y22021D02*
D03*
Y14921D02*
D03*
D12*
X85575Y55930D02*
D03*
X76425Y58470D02*
D03*
X85575D02*
D03*
X76425Y55930D02*
D03*
D13*
X146849Y14400D02*
D03*
Y15950D02*
D03*
D14*
X123275Y5775D02*
D03*
X117025D02*
D03*
D39*
X44225Y58000D02*
D03*
X109250Y44475D02*
D03*
X111814Y29448D02*
D03*
X136603Y45532D02*
D03*
X136684Y26306D02*
D03*
X111814Y26575D02*
D03*
X72800Y56950D02*
D03*
X59100Y2450D02*
D03*
X45600Y26681D02*
D03*
X36800Y58075D02*
D03*
X43625Y45451D02*
D03*
X33100Y58075D02*
D03*
X45825Y34925D02*
D03*
X47250Y38375D02*
D03*
X109250Y39650D02*
D03*
X136550Y35299D02*
D03*
X111814Y32275D02*
D03*
X142346Y14546D02*
D03*
X27675Y58075D02*
D03*
X97125Y58375D02*
D03*
X8650Y48500D02*
D03*
X68458Y56500D02*
D03*
X140775Y9100D02*
D03*
X24450Y58125D02*
D03*
X66506Y16092D02*
D03*
X136603Y29349D02*
D03*
X111814Y37100D02*
D03*
X136603Y32275D02*
D03*
D40*
X99045Y21759D02*
D03*
Y31919D02*
D03*
Y41952D02*
D03*
Y52112D02*
D03*
D41*
X63045Y31919D02*
D03*
Y21632D02*
D03*
Y41952D02*
D03*
Y52112D02*
D03*
D42*
X93999D02*
D03*
Y47159D02*
D03*
Y41952D02*
D03*
Y36872D02*
D03*
Y31919D02*
D03*
Y26839D02*
D03*
Y21759D02*
D03*
X68599Y52239D02*
D03*
Y47032D02*
D03*
Y42079D02*
D03*
Y31919D02*
D03*
Y26839D02*
D03*
Y21632D02*
D03*
D43*
X143750Y26625D02*
D03*
X143751Y36650D02*
D03*
Y46675D02*
D03*
X5300Y38300D02*
D03*
D44*
X143750Y21625D02*
D03*
X143751Y31650D02*
D03*
Y41675D02*
D03*
X5300Y43300D02*
D03*
D45*
X95175Y7205D02*
D03*
D46*
Y4665D02*
D03*
Y2125D02*
D03*
X131825Y50235D02*
D03*
Y52775D02*
D03*
D47*
Y55315D02*
D03*
D48*
X135800Y3000D02*
D03*
Y8000D02*
D03*
X129450Y3000D02*
D03*
Y8000D02*
D03*
D49*
X111401Y18850D02*
D03*
X106401D02*
D03*
X122575Y16350D02*
D03*
Y21350D02*
D03*
X50500Y38375D02*
D03*
Y26375D02*
D03*
X29928Y47467D02*
D03*
Y52467D02*
D03*
X34500Y7900D02*
D03*
Y4800D02*
D03*
X28928Y32525D02*
D03*
Y20525D02*
D03*
X37500Y25000D02*
D03*
Y30000D02*
D03*
X5500Y21000D02*
D03*
X18500D02*
D03*
X5500Y31000D02*
D03*
X18500D02*
D03*
X25700Y13800D02*
D03*
X3300D02*
D03*
X35352Y38300D02*
D03*
X12952D02*
D03*
X25077Y20525D02*
D03*
Y32525D02*
D03*
D50*
X52186Y8839D02*
D03*
X45114Y15911D02*
D03*
D51*
X105000Y47470D02*
D03*
D52*
Y26530D02*
D03*
D53*
X55540Y55150D02*
D03*
X53000D02*
D03*
X50460D02*
D03*
D54*
X53000Y48800D02*
D03*
X106750Y8200D02*
D03*
D55*
X57075Y43400D02*
D03*
X57025Y23425D02*
D03*
X13500Y4000D02*
D03*
X28500D02*
D03*
X23500D02*
D03*
X18500D02*
D03*
D56*
X109290Y1850D02*
D03*
X106750D02*
D03*
X104210D02*
D03*
D57*
X18275Y50701D02*
D03*
D58*
X11925Y48161D02*
D03*
Y50701D02*
D03*
Y53241D02*
D03*
D59*
X74100Y3450D02*
D03*
X69100D02*
D03*
X64100D02*
D03*
Y10950D02*
D03*
X69100D02*
D03*
X74100D02*
D03*
X89100Y3450D02*
D03*
D60*
Y10950D02*
D03*
D61*
X120315Y54390D02*
D03*
X125330D02*
D03*
X115275D02*
D03*
D62*
X120315Y51850D02*
D03*
Y49310D02*
D03*
X125330Y51850D02*
D03*
Y49310D02*
D03*
X115275Y51850D02*
D03*
Y49310D02*
D03*
D63*
X109200Y30000D02*
D03*
D64*
Y37100D02*
D03*
D65*
X83326Y16725D02*
D03*
X78376D02*
D03*
X33750Y17675D02*
D03*
Y12725D02*
D03*
%TF.MD5,22c639b618ae55df446a1fc6f224ff65*%
M02*
