%TF.GenerationSoftware,Altium Limited,Altium Designer,21.6.4 (81)*%
G04 Layer_Color=32896*
%FSLAX43Y43*%
%MOMM*%
%TF.SameCoordinates,45A01B4D-518A-40F9-B883-98BDF5CD3DE6*%
%TF.FilePolarity,Positive*%
%TF.FileFunction,Legend,Bot*%
%TF.Part,Single*%
G01*
G75*
%TA.AperFunction,NonConductor*%
%ADD102C,0.200*%
%ADD103C,0.250*%
%ADD104C,0.762*%
%ADD105C,0.254*%
%ADD106R,3.100X13.700*%
%ADD107R,0.900X0.600*%
D102*
X42350Y48715D02*
G03*
X42350Y47515I0J-600D01*
G01*
X28000Y6975D02*
Y15500D01*
X28050D02*
X32100D01*
X28000Y6975D02*
X32100D01*
Y15500D01*
X40125Y2325D02*
Y10850D01*
X36025Y2325D02*
X40125D01*
X36075Y10850D02*
X40125D01*
X36025Y2325D02*
Y10850D01*
X56125Y32175D02*
X56725D01*
Y32875D01*
Y32175D02*
X58025D01*
X56725Y31475D02*
Y32175D01*
X57432Y31468D02*
Y32882D01*
X56725Y32175D02*
X57432Y32882D01*
X56725Y32175D02*
X57432Y31468D01*
X53725Y30675D02*
Y33675D01*
X60425Y30675D02*
Y33675D01*
X53725D02*
X60425D01*
X53725Y30675D02*
X60425D01*
X129255Y37400D02*
Y37800D01*
X123255Y37400D02*
Y37800D01*
X129255Y40600D02*
Y41000D01*
X123255Y37400D02*
X129255D01*
X123255Y40600D02*
Y41000D01*
X129255D01*
X105044Y55915D02*
X108092D01*
X105044D02*
Y57439D01*
X108092Y55915D02*
Y57439D01*
X105044D02*
X108092D01*
X134712Y49676D02*
Y52724D01*
X133188Y49676D02*
X134712D01*
X133188Y52724D02*
X134712D01*
X133188Y49676D02*
Y52724D01*
X125305Y42700D02*
Y43575D01*
X127580Y42700D02*
X128305D01*
X125305D02*
X126030D01*
X128305D02*
Y43575D01*
X126630Y44100D02*
X126980D01*
X105010Y59134D02*
X108058D01*
Y57610D02*
Y59134D01*
X105010Y57610D02*
Y59134D01*
Y57610D02*
X108058D01*
X122477Y41772D02*
Y45078D01*
X124833Y41772D02*
Y45078D01*
X146247Y23425D02*
Y24025D01*
X145540Y24732D02*
X146247Y24025D01*
X145547D02*
X146247D01*
X146954Y24732D01*
X145540D02*
X146954D01*
X146247Y24025D02*
X146947D01*
X146247D02*
Y25325D01*
X147272Y21950D02*
Y26675D01*
X145172Y21950D02*
Y26675D01*
X147272D01*
X145172Y21950D02*
X147272D01*
X54397Y28103D02*
X57703D01*
X54397Y25747D02*
X57703D01*
X37250Y44470D02*
X42350D01*
X37250D02*
Y51770D01*
X42350Y44470D02*
Y47515D01*
X37250Y51770D02*
X42350D01*
Y48715D02*
Y51770D01*
X39296Y52071D02*
X42602D01*
X39296Y54427D02*
X42602D01*
X16950Y41625D02*
Y48325D01*
X13950Y41625D02*
Y48325D01*
X16950D01*
X13950Y41625D02*
X16950D01*
X15450Y44625D02*
X16157Y45332D01*
X14743D02*
X15450Y44625D01*
X14743Y45332D02*
X16157D01*
X15450Y44625D02*
X16150D01*
X15450D02*
Y45925D01*
X14750Y44625D02*
X15450D01*
Y44025D02*
Y44625D01*
X13726Y54062D02*
X16774D01*
Y52538D02*
Y54062D01*
X13726Y52538D02*
Y54062D01*
Y52538D02*
X16774D01*
X45350Y2325D02*
Y10850D01*
X45400D02*
X49450D01*
X45350Y2325D02*
X49450D01*
Y10850D01*
X44775Y2350D02*
Y10875D01*
X40675Y2350D02*
X44725D01*
X40675Y10875D02*
X44775D01*
X40675Y2350D02*
Y10875D01*
X139513Y22651D02*
Y25699D01*
X141037D01*
X139513Y22651D02*
X141037D01*
Y25699D01*
X120657Y38676D02*
Y41724D01*
X122181D01*
X120657Y38676D02*
X122181D01*
Y41724D01*
X118893Y38676D02*
Y41724D01*
X120417D01*
X118893Y38676D02*
X120417D01*
Y41724D01*
X122181Y41901D02*
Y44949D01*
X120657Y41901D02*
X122181D01*
X120657Y44949D02*
X122181D01*
X120657Y41901D02*
Y44949D01*
X127731Y54503D02*
X130779D01*
X127731D02*
Y56027D01*
X130779Y54503D02*
Y56027D01*
X127731D02*
X130779D01*
X49738Y41250D02*
Y44298D01*
X51262D01*
X49738Y41250D02*
X51262D01*
Y44298D01*
X39587Y40950D02*
Y43998D01*
X38063Y40950D02*
X39587D01*
X38063Y43998D02*
X39587D01*
X38063Y40950D02*
Y43998D01*
X40326Y39712D02*
X43374D01*
X40326D02*
Y41236D01*
X43374Y39712D02*
Y41236D01*
X40326D02*
X43374D01*
X42662Y48250D02*
Y51298D01*
X44186D01*
X42662Y48250D02*
X44186D01*
Y51298D01*
X34938Y49225D02*
Y52273D01*
X36462D01*
X34938Y49225D02*
X36462D01*
Y52273D01*
X40376Y35462D02*
X43424D01*
X40376D02*
Y36986D01*
X43424Y35462D02*
Y36986D01*
X40376D02*
X43424D01*
X120794Y29625D02*
Y30225D01*
X120087Y30932D02*
X120794Y30225D01*
X120094D02*
X120794D01*
X121501Y30932D01*
X120087D02*
X121501D01*
X120794Y30225D02*
X121494D01*
X120794D02*
Y31525D01*
X121819Y28150D02*
Y32875D01*
X119719Y28150D02*
Y32875D01*
X121819D01*
X119719Y28150D02*
X121819D01*
X126584Y29175D02*
Y34075D01*
X124826Y29175D02*
X126584D01*
X124826D02*
Y34075D01*
X126584D01*
X131480Y44825D02*
X132080D01*
X130772Y44118D02*
X131480Y44825D01*
Y44125D02*
Y44825D01*
X130772Y45532D02*
X131480Y44825D01*
X130772Y44118D02*
Y45532D01*
X131480Y44825D02*
Y45525D01*
X130180Y44825D02*
X131480D01*
X128830Y45850D02*
X133555D01*
X128830Y43750D02*
X133555D01*
X128830D02*
Y45850D01*
X133555Y43750D02*
Y45850D01*
X133469Y37022D02*
Y40328D01*
X135826Y37022D02*
Y40328D01*
X130794Y37022D02*
Y40328D01*
X133151Y37022D02*
Y40328D01*
X133555Y41300D02*
Y43400D01*
X128830Y41300D02*
Y43400D01*
Y41300D02*
X133555D01*
X128830Y43400D02*
X133555D01*
X130180Y42375D02*
X131480D01*
Y43075D01*
X130772Y41668D02*
Y43082D01*
X131480Y42375D01*
Y41675D02*
Y42375D01*
X130772Y41668D02*
X131480Y42375D01*
X132080D01*
X129425Y28175D02*
X131525D01*
X129425Y32900D02*
X131525D01*
X129425Y28175D02*
Y32900D01*
X131525Y28175D02*
Y32900D01*
X130500Y30250D02*
Y31550D01*
Y30250D02*
X131200D01*
X129793Y30957D02*
X131207D01*
X130500Y30250D02*
X131207Y30957D01*
X129800Y30250D02*
X130500D01*
X129793Y30957D02*
X130500Y30250D01*
Y29650D02*
Y30250D01*
X58078Y18222D02*
Y21528D01*
X55722Y18222D02*
Y21528D01*
X40877Y56200D02*
X41022D01*
X40877Y54950D02*
X41022D01*
X31750Y49197D02*
Y52503D01*
X34107Y49197D02*
Y52503D01*
X111114Y13414D02*
X113452Y15752D01*
X112780Y11748D02*
X115118Y14086D01*
X122827Y34547D02*
X126133D01*
X122827Y36903D02*
X126133D01*
X36846Y44897D02*
Y48204D01*
X34490Y44897D02*
Y48204D01*
X40122Y41596D02*
X43428D01*
X40122Y43952D02*
X43428D01*
X34096Y44897D02*
Y48204D01*
X31740Y44897D02*
Y48204D01*
X41702Y39099D02*
X41848D01*
X41702Y37849D02*
X41848D01*
X37075Y17725D02*
X37675D01*
Y18425D01*
Y17725D02*
X38975D01*
X37675Y17025D02*
Y17725D01*
X38382Y17018D02*
Y18432D01*
X37675Y17725D02*
X38382Y18432D01*
X37675Y17725D02*
X38382Y17018D01*
X34675Y16225D02*
Y19225D01*
X41375Y16225D02*
Y19225D01*
X34675D02*
X41375D01*
X34675Y16225D02*
X41375D01*
X55100Y15825D02*
X55700D01*
Y16525D01*
Y15825D02*
X57000D01*
X55700Y15125D02*
Y15825D01*
X56407Y15118D02*
Y16532D01*
X55700Y15825D02*
X56407Y16532D01*
X55700Y15825D02*
X56407Y15118D01*
X52700Y14325D02*
Y17325D01*
X59400Y14325D02*
Y17325D01*
X52700D02*
X59400D01*
X52700Y14325D02*
X59400D01*
D103*
X129683Y33530D02*
G03*
X129683Y33530I-125J0D01*
G01*
D104*
X61360Y19473D02*
X101873D01*
X61360Y54779D02*
X101873D01*
X61360Y19473D02*
Y54779D01*
X101873Y19473D02*
Y54779D01*
D105*
X79902Y19727D02*
Y54906D01*
X82188Y19727D02*
Y54906D01*
X79902D02*
X82188D01*
X79902Y19727D02*
X82188D01*
X129861Y36916D02*
X129994Y37050D01*
X130260D01*
X130394Y36916D01*
Y36383D01*
X130260Y36250D01*
X129994D01*
X129861Y36383D01*
X129061Y36250D02*
X129594D01*
X129061Y36783D01*
Y36916D01*
X129194Y37050D01*
X129461D01*
X129594Y36916D01*
X128794Y36250D02*
X128528D01*
X128661D01*
Y37050D01*
X128794Y36916D01*
X16516Y41050D02*
Y40517D01*
X16250Y40250D01*
X15983Y40517D01*
Y41050D01*
X15717D02*
Y40250D01*
X15317D01*
X15183Y40383D01*
Y40917D01*
X15317Y41050D01*
X15717D01*
X14384D02*
X14650Y40917D01*
X14917Y40650D01*
Y40383D01*
X14784Y40250D01*
X14517D01*
X14384Y40383D01*
Y40517D01*
X14517Y40650D01*
X14917D01*
X110716Y58125D02*
Y58925D01*
X110316D01*
X110183Y58792D01*
Y58525D01*
X110316Y58392D01*
X110716D01*
X110450D02*
X110183Y58125D01*
X109383D02*
X109917D01*
X109383Y58658D01*
Y58792D01*
X109517Y58925D01*
X109783D01*
X109917Y58792D01*
X108584Y58925D02*
X109117D01*
Y58525D01*
X108850Y58658D01*
X108717D01*
X108584Y58525D01*
Y58258D01*
X108717Y58125D01*
X108984D01*
X109117Y58258D01*
X135575Y50100D02*
X136375D01*
Y50500D01*
X136242Y50633D01*
X135975D01*
X135842Y50500D01*
Y50100D01*
Y50367D02*
X135575Y50633D01*
Y50900D02*
Y51167D01*
Y51033D01*
X136375D01*
X136242Y50900D01*
X136375Y51567D02*
Y52100D01*
X136242D01*
X135708Y51567D01*
X135575D01*
X127521Y46225D02*
Y45558D01*
X127388Y45425D01*
X127122D01*
X126988Y45558D01*
Y46225D01*
X126722Y46092D02*
X126588Y46225D01*
X126322D01*
X126189Y46092D01*
Y45958D01*
X126322Y45825D01*
X126455D01*
X126322D01*
X126189Y45692D01*
Y45558D01*
X126322Y45425D01*
X126588D01*
X126722Y45558D01*
X124238Y46567D02*
X124371Y46700D01*
X124638D01*
X124771Y46567D01*
Y46033D01*
X124638Y45900D01*
X124371D01*
X124238Y46033D01*
X123438Y45900D02*
X123972D01*
X123438Y46433D01*
Y46567D01*
X123572Y46700D01*
X123838D01*
X123972Y46567D01*
X122639Y45900D02*
X123172D01*
X122639Y46433D01*
Y46567D01*
X122772Y46700D01*
X123039D01*
X123172Y46567D01*
X44608Y53442D02*
X44741Y53575D01*
X45008D01*
X45141Y53442D01*
Y52908D01*
X45008Y52775D01*
X44741D01*
X44608Y52908D01*
X43808Y52775D02*
X44342D01*
X43808Y53308D01*
Y53442D01*
X43942Y53575D01*
X44208D01*
X44342Y53442D01*
X43542D02*
X43409Y53575D01*
X43142D01*
X43009Y53442D01*
Y52908D01*
X43142Y52775D01*
X43409D01*
X43542Y52908D01*
Y53442D01*
X132872Y29150D02*
X132339D01*
X132073Y29417D01*
X132339Y29684D01*
X132872D01*
Y29950D02*
X132073D01*
Y30350D01*
X132206Y30483D01*
X132739D01*
X132872Y30350D01*
Y29950D01*
X132073Y30750D02*
Y31017D01*
Y30883D01*
X132872D01*
X132739Y30750D01*
X132872Y31416D02*
Y31950D01*
X132739D01*
X132206Y31416D01*
X132073D01*
X119050Y29075D02*
X118517D01*
X118250Y29342D01*
X118517Y29609D01*
X119050D01*
Y29875D02*
X118250D01*
Y30275D01*
X118383Y30408D01*
X118917D01*
X119050Y30275D01*
Y29875D01*
X118250Y30675D02*
Y30942D01*
Y30808D01*
X119050D01*
X118917Y30675D01*
X119050Y31875D02*
X118917Y31608D01*
X118650Y31341D01*
X118383D01*
X118250Y31475D01*
Y31741D01*
X118383Y31875D01*
X118517D01*
X118650Y31741D01*
Y31341D01*
X136900Y42550D02*
Y42017D01*
X136633Y41750D01*
X136366Y42017D01*
Y42550D01*
X136100D02*
Y41750D01*
X135700D01*
X135567Y41883D01*
Y42417D01*
X135700Y42550D01*
X136100D01*
X135300Y41750D02*
X135033D01*
X135167D01*
Y42550D01*
X135300Y42417D01*
X134100Y42550D02*
X134634D01*
Y42150D01*
X134367Y42283D01*
X134234D01*
X134100Y42150D01*
Y41883D01*
X134234Y41750D01*
X134500D01*
X134634Y41883D01*
X132216Y47250D02*
Y46717D01*
X131950Y46450D01*
X131683Y46717D01*
Y47250D01*
X131417D02*
Y46450D01*
X131017D01*
X130883Y46583D01*
Y47117D01*
X131017Y47250D01*
X131417D01*
X130617Y46583D02*
X130484Y46450D01*
X130217D01*
X130084Y46583D01*
Y47117D01*
X130217Y47250D01*
X130484D01*
X130617Y47117D01*
Y46983D01*
X130484Y46850D01*
X130084D01*
X134817Y34640D02*
X134950Y34506D01*
Y34240D01*
X134817Y34106D01*
X134283D01*
X134150Y34240D01*
Y34506D01*
X134283Y34640D01*
X134150Y34906D02*
Y35173D01*
Y35040D01*
X134950D01*
X134817Y34906D01*
X134283Y35573D02*
X134150Y35706D01*
Y35973D01*
X134283Y36106D01*
X134817D01*
X134950Y35973D01*
Y35706D01*
X134817Y35573D01*
X134683D01*
X134550Y35706D01*
Y36106D01*
X132228Y34640D02*
X132361Y34506D01*
Y34240D01*
X132228Y34106D01*
X131695D01*
X131562Y34240D01*
Y34506D01*
X131695Y34640D01*
X131562Y34906D02*
Y35173D01*
Y35040D01*
X132361D01*
X132228Y34906D01*
Y35573D02*
X132361Y35706D01*
Y35973D01*
X132228Y36106D01*
X132095D01*
X131962Y35973D01*
X131828Y36106D01*
X131695D01*
X131562Y35973D01*
Y35706D01*
X131695Y35573D01*
X131828D01*
X131962Y35706D01*
X132095Y35573D01*
X132228D01*
X131962Y35706D02*
Y35973D01*
X53392Y27048D02*
X53525Y27181D01*
X53791D01*
X53925Y27048D01*
Y26515D01*
X53791Y26381D01*
X53525D01*
X53392Y26515D01*
X53125Y26381D02*
X52858D01*
X52992D01*
Y27181D01*
X53125Y27048D01*
X52059Y26381D02*
Y27181D01*
X52458Y26781D01*
X51925D01*
X39400Y20675D02*
Y20142D01*
X39133Y19875D01*
X38866Y20142D01*
Y20675D01*
X38600D02*
Y19875D01*
X38200D01*
X38067Y20008D01*
Y20542D01*
X38200Y20675D01*
X38600D01*
X37800Y19875D02*
X37533D01*
X37667D01*
Y20675D01*
X37800Y20542D01*
X37134D02*
X37000Y20675D01*
X36734D01*
X36600Y20542D01*
Y20408D01*
X36734Y20275D01*
X36867D01*
X36734D01*
X36600Y20142D01*
Y20008D01*
X36734Y19875D01*
X37000D01*
X37134Y20008D01*
X148800Y22959D02*
X148267D01*
X148000Y23225D01*
X148267Y23492D01*
X148800D01*
Y23758D02*
X148000D01*
Y24158D01*
X148133Y24292D01*
X148667D01*
X148800Y24158D01*
Y23758D01*
Y25091D02*
Y24558D01*
X148400D01*
X148533Y24825D01*
Y24958D01*
X148400Y25091D01*
X148133D01*
X148000Y24958D01*
Y24691D01*
X148133Y24558D01*
X56985Y13475D02*
Y12942D01*
X56719Y12675D01*
X56452Y12942D01*
Y13475D01*
X56186D02*
Y12675D01*
X55786D01*
X55653Y12808D01*
Y13342D01*
X55786Y13475D01*
X56186D01*
X55386Y13342D02*
X55253Y13475D01*
X54986D01*
X54853Y13342D01*
Y13208D01*
X54986Y13075D01*
X55119D01*
X54986D01*
X54853Y12942D01*
Y12808D01*
X54986Y12675D01*
X55253D01*
X55386Y12808D01*
X57958Y35225D02*
Y34692D01*
X57691Y34425D01*
X57425Y34692D01*
Y35225D01*
X57158D02*
Y34425D01*
X56758D01*
X56625Y34558D01*
Y35092D01*
X56758Y35225D01*
X57158D01*
X56359Y34425D02*
X56092D01*
X56225D01*
Y35225D01*
X56359Y35092D01*
X128616Y28500D02*
Y27833D01*
X128483Y27700D01*
X128217D01*
X128083Y27833D01*
Y28500D01*
X127284Y27700D02*
X127817D01*
X127284Y28233D01*
Y28367D01*
X127417Y28500D01*
X127683D01*
X127817Y28367D01*
X107516Y54668D02*
Y55468D01*
X107116D01*
X106983Y55334D01*
Y55068D01*
X107116Y54935D01*
X107516D01*
X107250D02*
X106983Y54668D01*
X106183D02*
X106717D01*
X106183Y55201D01*
Y55334D01*
X106317Y55468D01*
X106583D01*
X106717Y55334D01*
X105517Y54668D02*
Y55468D01*
X105917Y55068D01*
X105384D01*
X141550Y23134D02*
X142350D01*
Y23534D01*
X142217Y23667D01*
X141950D01*
X141817Y23534D01*
Y23134D01*
Y23400D02*
X141550Y23667D01*
Y24467D02*
Y23933D01*
X142083Y24467D01*
X142217D01*
X142350Y24333D01*
Y24067D01*
X142217Y23933D01*
Y24733D02*
X142350Y24866D01*
Y25133D01*
X142217Y25266D01*
X142083D01*
X141950Y25133D01*
Y25000D01*
Y25133D01*
X141817Y25266D01*
X141683D01*
X141550Y25133D01*
Y24866D01*
X141683Y24733D01*
X120935Y35515D02*
X121735D01*
Y35915D01*
X121602Y36048D01*
X121335D01*
X121202Y35915D01*
Y35515D01*
Y35782D02*
X120935Y36048D01*
Y36848D02*
Y36315D01*
X121468Y36848D01*
X121602D01*
X121735Y36715D01*
Y36448D01*
X121602Y36315D01*
X120935Y37648D02*
Y37115D01*
X121468Y37648D01*
X121602D01*
X121735Y37515D01*
Y37248D01*
X121602Y37115D01*
X119100Y35942D02*
X119900D01*
Y36342D01*
X119767Y36475D01*
X119500D01*
X119367Y36342D01*
Y35942D01*
Y36209D02*
X119100Y36475D01*
Y37275D02*
Y36742D01*
X119633Y37275D01*
X119767D01*
X119900Y37142D01*
Y36875D01*
X119767Y36742D01*
X119100Y37541D02*
Y37808D01*
Y37675D01*
X119900D01*
X119767Y37541D01*
X121820Y45475D02*
Y46275D01*
X121420D01*
X121287Y46142D01*
Y45875D01*
X121420Y45742D01*
X121820D01*
X121553D02*
X121287Y45475D01*
X121020D02*
X120753D01*
X120887D01*
Y46275D01*
X121020Y46142D01*
X120353Y45608D02*
X120220Y45475D01*
X119954D01*
X119820Y45608D01*
Y46142D01*
X119954Y46275D01*
X120220D01*
X120353Y46142D01*
Y46008D01*
X120220Y45875D01*
X119820D01*
X130380Y56565D02*
Y57365D01*
X129980D01*
X129847Y57232D01*
Y56965D01*
X129980Y56832D01*
X130380D01*
X130113D02*
X129847Y56565D01*
X129580D02*
X129313D01*
X129447D01*
Y57365D01*
X129580Y57232D01*
X128913D02*
X128780Y57365D01*
X128514D01*
X128380Y57232D01*
Y57098D01*
X128514Y56965D01*
X128380Y56832D01*
Y56698D01*
X128514Y56565D01*
X128780D01*
X128913Y56698D01*
Y56832D01*
X128780Y56965D01*
X128913Y57098D01*
Y57232D01*
X128780Y56965D02*
X128514D01*
X48373Y725D02*
Y1525D01*
X47973D01*
X47839Y1392D01*
Y1125D01*
X47973Y992D01*
X48373D01*
X48106D02*
X47839Y725D01*
X47573D02*
X47306D01*
X47440D01*
Y1525D01*
X47573Y1392D01*
X46906D02*
X46773Y1525D01*
X46507D01*
X46373Y1392D01*
Y1258D01*
X46507Y1125D01*
X46640D01*
X46507D01*
X46373Y992D01*
Y858D01*
X46507Y725D01*
X46773D01*
X46906Y858D01*
X43776Y782D02*
Y1582D01*
X43376D01*
X43243Y1449D01*
Y1182D01*
X43376Y1049D01*
X43776D01*
X43509D02*
X43243Y782D01*
X42976D02*
X42709D01*
X42843D01*
Y1582D01*
X42976Y1449D01*
X41776Y782D02*
X42310D01*
X41776Y1315D01*
Y1449D01*
X41910Y1582D01*
X42176D01*
X42310Y1449D01*
X38816Y875D02*
Y1675D01*
X38417D01*
X38283Y1542D01*
Y1275D01*
X38417Y1142D01*
X38816D01*
X38550D02*
X38283Y875D01*
X38017D02*
X37750D01*
X37883D01*
Y1675D01*
X38017Y1542D01*
X37350Y875D02*
X37084D01*
X37217D01*
Y1675D01*
X37350Y1542D01*
X26653Y10400D02*
X27452D01*
Y10800D01*
X27319Y10933D01*
X27053D01*
X26919Y10800D01*
Y10400D01*
Y10667D02*
X26653Y10933D01*
Y11200D02*
Y11467D01*
Y11333D01*
X27452D01*
X27319Y11200D01*
Y11867D02*
X27452Y12000D01*
Y12266D01*
X27319Y12400D01*
X26786D01*
X26653Y12266D01*
Y12000D01*
X26786Y11867D01*
X27319D01*
X51875Y42159D02*
X52675D01*
Y42558D01*
X52542Y42692D01*
X52275D01*
X52142Y42558D01*
Y42159D01*
Y42425D02*
X51875Y42692D01*
X52008Y42958D02*
X51875Y43092D01*
Y43358D01*
X52008Y43491D01*
X52542D01*
X52675Y43358D01*
Y43092D01*
X52542Y42958D01*
X52408D01*
X52275Y43092D01*
Y43491D01*
X39666Y37900D02*
Y38700D01*
X39267D01*
X39133Y38567D01*
Y38300D01*
X39267Y38167D01*
X39666D01*
X39400D02*
X39133Y37900D01*
X38867Y38567D02*
X38733Y38700D01*
X38467D01*
X38334Y38567D01*
Y38433D01*
X38467Y38300D01*
X38334Y38167D01*
Y38033D01*
X38467Y37900D01*
X38733D01*
X38867Y38033D01*
Y38167D01*
X38733Y38300D01*
X38867Y38433D01*
Y38567D01*
X38733Y38300D02*
X38467D01*
X40566Y56675D02*
Y57475D01*
X40167D01*
X40033Y57342D01*
Y57075D01*
X40167Y56942D01*
X40566D01*
X40300D02*
X40033Y56675D01*
X39767Y57475D02*
X39234D01*
Y57342D01*
X39767Y56808D01*
Y56675D01*
X36750Y41759D02*
X37550D01*
Y42158D01*
X37417Y42292D01*
X37150D01*
X37017Y42158D01*
Y41759D01*
Y42025D02*
X36750Y42292D01*
X37550Y43091D02*
X37417Y42825D01*
X37150Y42558D01*
X36883D01*
X36750Y42692D01*
Y42958D01*
X36883Y43091D01*
X37017D01*
X37150Y42958D01*
Y42558D01*
X45366Y40100D02*
Y40900D01*
X44967D01*
X44833Y40767D01*
Y40500D01*
X44967Y40367D01*
X45366D01*
X45100D02*
X44833Y40100D01*
X44034Y40900D02*
X44567D01*
Y40500D01*
X44300Y40633D01*
X44167D01*
X44034Y40500D01*
Y40233D01*
X44167Y40100D01*
X44433D01*
X44567Y40233D01*
X44750Y49184D02*
X45550D01*
Y49583D01*
X45417Y49717D01*
X45150D01*
X45017Y49583D01*
Y49184D01*
Y49450D02*
X44750Y49717D01*
Y50383D02*
X45550D01*
X45150Y49983D01*
Y50516D01*
X18791Y53000D02*
Y53800D01*
X18392D01*
X18258Y53667D01*
Y53400D01*
X18392Y53267D01*
X18791D01*
X18525D02*
X18258Y53000D01*
X17992Y53667D02*
X17858Y53800D01*
X17592D01*
X17459Y53667D01*
Y53533D01*
X17592Y53400D01*
X17725D01*
X17592D01*
X17459Y53267D01*
Y53133D01*
X17592Y53000D01*
X17858D01*
X17992Y53133D01*
X36316Y53175D02*
Y53975D01*
X35917D01*
X35783Y53842D01*
Y53575D01*
X35917Y53442D01*
X36316D01*
X36050D02*
X35783Y53175D01*
X34984D02*
X35517D01*
X34984Y53708D01*
Y53842D01*
X35117Y53975D01*
X35383D01*
X35517Y53842D01*
X42458Y34200D02*
Y35000D01*
X42058D01*
X41925Y34867D01*
Y34600D01*
X42058Y34467D01*
X42458D01*
X42192D02*
X41925Y34200D01*
X41658D02*
X41392D01*
X41525D01*
Y35000D01*
X41658Y34867D01*
X38375Y52384D02*
X37575D01*
Y52784D01*
X37708Y52917D01*
X38242D01*
X38375Y52784D01*
Y52384D01*
X37575Y53183D02*
X38108D01*
X38375Y53450D01*
X38108Y53717D01*
X37575D01*
X37975D01*
Y53183D01*
X37575Y54516D02*
Y53983D01*
X38108Y54516D01*
X38242D01*
X38375Y54383D01*
Y54116D01*
X38242Y53983D01*
X128017Y35417D02*
X128150Y35550D01*
X128416D01*
X128550Y35417D01*
Y34883D01*
X128416Y34750D01*
X128150D01*
X128017Y34883D01*
X127750Y34750D02*
X127483D01*
X127617D01*
Y35550D01*
X127750Y35417D01*
X126550Y34750D02*
X127083D01*
X126550Y35283D01*
Y35417D01*
X126684Y35550D01*
X126950D01*
X127083Y35417D01*
X114649Y11632D02*
Y11443D01*
X114461Y11255D01*
X114272Y11255D01*
X113895Y11632D01*
Y11820D01*
X114084Y12009D01*
X114272Y12009D01*
X114367Y12291D02*
X114555Y12480D01*
X114461Y12386D01*
X115026Y11820D01*
X114838Y11820D01*
X115309Y12291D02*
X115498Y12291D01*
X115686Y12480D01*
Y12668D01*
X115309Y13045D01*
X115121Y13045D01*
X114932Y12857D01*
Y12668D01*
X115309Y12291D01*
X35833Y43992D02*
X35967Y44125D01*
X36233D01*
X36366Y43992D01*
Y43458D01*
X36233Y43325D01*
X35967D01*
X35833Y43458D01*
X35567Y43992D02*
X35433Y44125D01*
X35167D01*
X35034Y43992D01*
Y43858D01*
X35167Y43725D01*
X35034Y43592D01*
Y43458D01*
X35167Y43325D01*
X35433D01*
X35567Y43458D01*
Y43592D01*
X35433Y43725D01*
X35567Y43858D01*
Y43992D01*
X35433Y43725D02*
X35167D01*
X44908Y43092D02*
X45042Y43225D01*
X45308D01*
X45441Y43092D01*
Y42558D01*
X45308Y42425D01*
X45042D01*
X44908Y42558D01*
X44642Y43225D02*
X44109D01*
Y43092D01*
X44642Y42558D01*
Y42425D01*
X55192Y19445D02*
X55325Y19311D01*
Y19045D01*
X55192Y18911D01*
X54658D01*
X54525Y19045D01*
Y19311D01*
X54658Y19445D01*
X55325Y20244D02*
X55192Y19978D01*
X54925Y19711D01*
X54658D01*
X54525Y19845D01*
Y20111D01*
X54658Y20244D01*
X54792D01*
X54925Y20111D01*
Y19711D01*
X33033Y43967D02*
X33167Y44100D01*
X33433D01*
X33566Y43967D01*
Y43433D01*
X33433Y43300D01*
X33167D01*
X33033Y43433D01*
X32767Y43967D02*
X32633Y44100D01*
X32367D01*
X32234Y43967D01*
Y43833D01*
X32367Y43700D01*
X32500D01*
X32367D01*
X32234Y43567D01*
Y43433D01*
X32367Y43300D01*
X32633D01*
X32767Y43433D01*
X33155Y53792D02*
X33288Y53925D01*
X33555D01*
X33688Y53792D01*
Y53258D01*
X33555Y53125D01*
X33288D01*
X33155Y53258D01*
X32355Y53125D02*
X32888D01*
X32355Y53658D01*
Y53792D01*
X32488Y53925D01*
X32755D01*
X32888Y53792D01*
D106*
X81075Y7000D02*
D03*
D107*
X122905Y40800D02*
D03*
Y37600D02*
D03*
%TF.MD5,12118817d047022aeee8d28c4b592fd3*%
M02*
