M48
;Layer_Color=9474304
;FILE_FORMAT=4:3
METRIC,LZ
;TYPE=PLATED
T1F00S00C0.300
T2F00S00C0.400
T3F00S00C0.700
T4F00S00C0.750
T5F00S00C0.762
T6F00S00C1.000
T7F00S00C1.143
T8F00S00C1.200
T9F00S00C1.300
T10F00S00C2.000
T11F00S00C2.540
%
T01
X0127004Y0011572
X0139136Y00159
X0134743Y0020875
T02
X0021915Y0007251
X005595Y0006925
X0065725Y000505
X0067675Y00095
Y0010775
X007295Y000735
X0081025Y00104
X0071533Y00315
X0093738Y0002998
X0107575Y0006875
X012628Y0013628
X013265Y0020525
T03
X011342Y0003315
X011596
X01185
X0123575Y0003292
X0126115
X0128655
X013371Y0003297
X013625
X013879
T04
X0123218Y00177
Y0019825
X0130318
Y00177
T05
X0036215Y0012837
X00524Y0010225
X0052275Y0001848
X0061573Y0001525
X0077675Y0002725
X0082975Y0007475
X00895
X0098247Y000823
X0103197
X0109475Y0001626
X01179Y0007468
X0120775Y000744
X0120955Y0012479
X0121412Y0021725
X012715Y00154
X013126Y00113
X0131216Y00074
X013625Y000744
X013565Y00127
X013745Y00547
X0147175Y004615
X0117325Y004875
X0113875Y0050761
X0088625Y0053636
X00847Y0056125
X0078022Y003865
X00474Y0043075
Y0048025
X004245Y0049975
T06
X0013153Y0018225
X001534Y0025849
X002834
X0034768Y0024448
Y0028741
X0035553Y0018225
X002934Y0009852
Y0004852
X0047568Y0024448
Y0028741
X0145274Y0017215
Y0014675
Y0012135
X013128Y0039373
X012628
X0126375Y005295
X0131375
X0047594Y0037275
Y0033008
X0034794
Y0037275
X0035427Y0043524
X004245Y0042024
Y0045124
X002834Y0035849
X001534
X0013027Y0043524
T07
X0088575Y0013818
Y0019025
Y0024105
X0113975
Y0029058
Y0019025
Y0013945
Y0034138
Y0039345
Y0044298
X0088575Y0044425
Y0039218
Y0034265
X0080793Y0051064
Y0053604
Y0056144
T08
X0055961Y004385
X0074961
T09
X0005127Y0020525
Y0025525
X0037641Y0007837
Y0003697
X0049641
Y0007837
X0144136Y00244
Y00294
Y0036075
Y0041075
X0071505Y003865
X0059505
X0005068Y0040825
Y0035825
T10
X0065725Y001615
Y002615
T11
X00606Y0053604
M30
