%TF.GenerationSoftware,Altium Limited,Altium Designer,21.6.4 (81)*%
G04 Layer_Color=32768*
%FSLAX43Y43*%
%MOMM*%
%TF.SameCoordinates,45A01B4D-518A-40F9-B883-98BDF5CD3DE6*%
%TF.FilePolarity,Positive*%
%TF.FileFunction,Other,Mechanical_15*%
%TF.Part,Single*%
G01*
G75*
%TA.AperFunction,NonConductor*%
%ADD102C,0.200*%
%ADD139C,0.100*%
%ADD156C,0.050*%
D102*
X117740Y46860D02*
X122900D01*
X117740D02*
Y56840D01*
X122900D01*
Y46860D02*
Y56840D01*
X122755Y46860D02*
X127915D01*
X122755D02*
Y56840D01*
X127915D01*
Y46860D02*
Y56840D01*
X38795Y54321D02*
Y56829D01*
X43103D01*
Y54321D02*
Y56829D01*
X38795Y54321D02*
X43103D01*
X112700Y46860D02*
X117860D01*
X112700D02*
Y56840D01*
X117860D01*
Y46860D02*
Y56840D01*
X39621Y37220D02*
Y39728D01*
X43929D01*
Y37220D02*
Y39728D01*
X39621Y37220D02*
X43929D01*
D139*
X119820Y51850D02*
X120820D01*
X120320Y51350D02*
Y52350D01*
X124835Y51850D02*
X125835D01*
X125335Y51350D02*
Y52350D01*
X40949Y55075D02*
Y56075D01*
X40449Y55575D02*
X41449D01*
X114780Y51850D02*
X115780D01*
X115280Y51350D02*
Y52350D01*
X41775Y37974D02*
Y38974D01*
X41275Y38474D02*
X42275D01*
D156*
X128950Y48595D02*
X135300D01*
Y56955D01*
X128950D02*
X135300D01*
X128950Y48595D02*
Y56955D01*
X132125Y52275D02*
Y53275D01*
X131625Y52775D02*
X132625D01*
%TF.MD5,8f7a6831c6dacf94622b9bc4ddd604d9*%
M02*
