%TF.GenerationSoftware,Altium Limited,Altium Designer,21.6.4 (81)*%
G04 Layer_Color=32768*
%FSLAX43Y43*%
%MOMM*%
%TF.SameCoordinates,B74C4539-8C7F-4592-B280-35368C4CFDA8*%
%TF.FilePolarity,Positive*%
%TF.FileFunction,Other,Top_Component_Outline*%
%TF.Part,Single*%
G01*
G75*
%TA.AperFunction,NonConductor*%
%ADD93C,0.100*%
D93*
X129708Y22525D02*
G03*
X129708Y31525I-1490J4500D01*
G01*
X126208D02*
G03*
X126208Y22525I1490J-4500D01*
G01*
X124658Y27025D02*
G03*
X124658Y27025I-500J0D01*
G01*
X107625Y50225D02*
G03*
X107625Y50225I-500J0D01*
G01*
X102625Y52275D02*
G03*
X111625Y52275I4500J1490D01*
G01*
Y55775D02*
G03*
X102625Y55775I-4500J-1490D01*
G01*
X126208Y22525D02*
X129708D01*
X126208Y31525D02*
X129708D01*
X102625Y52275D02*
Y55775D01*
X111625Y52275D02*
Y55775D01*
X8227Y17425D02*
X8477Y18025D01*
X8227Y17425D02*
X9427D01*
X9177Y18025D02*
X9427Y17425D01*
X3977Y28025D02*
X4227Y28625D01*
X3027D02*
X3277Y28025D01*
X3027Y28625D02*
X4227D01*
X3977Y28025D02*
X10127D01*
X1127D02*
X3277D01*
X1127Y18025D02*
Y28025D01*
X10127Y18025D02*
Y28025D01*
X9177Y18025D02*
X10127D01*
X1127D02*
X8477D01*
X140787Y43575D02*
X141036Y44175D01*
X139836D02*
X141036D01*
X139836D02*
X140086Y43575D01*
X145036Y32975D02*
X145286Y33575D01*
X145986D02*
X146236Y32975D01*
X145036D02*
X146236D01*
X139136Y33575D02*
X145286D01*
X145986D02*
X148136D01*
Y43575D01*
X139136Y33575D02*
Y43575D01*
X140086D01*
X140786D02*
X148136D01*
X140787Y31900D02*
X141036Y32500D01*
X139836D02*
X141036D01*
X139836D02*
X140086Y31900D01*
X145036Y21300D02*
X145286Y21900D01*
X145986D02*
X146236Y21300D01*
X145036D02*
X146236D01*
X139136Y21900D02*
X145286D01*
X145986D02*
X148136D01*
Y31900D01*
X139136Y21900D02*
Y31900D01*
X140086D01*
X140786D02*
X148136D01*
X8167Y32725D02*
X8417Y33325D01*
X8167Y32725D02*
X9367D01*
X9118Y33325D02*
X9367Y32725D01*
X3918Y43325D02*
X4168Y43925D01*
X2968D02*
X3217Y43325D01*
X2968Y43925D02*
X4168D01*
X3918Y43325D02*
X10068D01*
X1068D02*
X3218D01*
X1068Y33325D02*
Y43325D01*
X10068Y33325D02*
Y43325D01*
X9118Y33325D02*
X10068D01*
X1068D02*
X8418D01*
%TF.MD5,3d093c56a7e13783b3922801e5054f62*%
M02*
