%TF.GenerationSoftware,Altium Limited,Altium Designer,21.6.4 (81)*%
G04 Layer_Color=65535*
%FSLAX43Y43*%
%MOMM*%
%TF.SameCoordinates,45A01B4D-518A-40F9-B883-98BDF5CD3DE6*%
%TF.FilePolarity,Positive*%
%TF.FileFunction,Legend,Top*%
%TF.Part,Single*%
G01*
G75*
%TA.AperFunction,NonConductor*%
%ADD102C,0.200*%
%ADD103C,0.250*%
%ADD104C,0.762*%
%ADD105C,0.254*%
%ADD106R,3.100X13.700*%
%ADD136C,0.300*%
%ADD137C,1.000*%
%ADD138C,0.500*%
%ADD139C,0.100*%
%ADD140C,0.508*%
%ADD141R,5.334X2.032*%
%ADD142R,15.240X8.382*%
%ADD143R,8.382X15.240*%
G36*
X128134Y44254D02*
X128150Y44237D01*
X128167D01*
X128234Y44204D01*
X128250Y44187D01*
X128317Y44154D01*
X128333Y44137D01*
X128350D01*
X128400Y44104D01*
X128417Y44087D01*
X128433D01*
X128517Y44037D01*
X128550Y44021D01*
X128567D01*
X128633Y43987D01*
X128650Y43971D01*
X128667Y43954D01*
X129250Y43621D01*
X129933D01*
Y43138D01*
X129233D01*
X128650Y42804D01*
X128567Y42754D01*
X128550Y42738D01*
X128533D01*
X128450Y42704D01*
X128417Y42688D01*
Y42671D01*
X128350Y42621D01*
X128333Y42604D01*
X128267Y42588D01*
X128234Y42571D01*
X128184Y42538D01*
X128150Y42521D01*
X128084Y42488D01*
X128050Y42471D01*
X128034D01*
Y42488D01*
X128017Y42504D01*
Y42754D01*
X128034Y43021D01*
X128383Y43188D01*
X128467Y43238D01*
X128500Y43254D01*
X128517D01*
X128600Y43321D01*
X128633Y43354D01*
X128650D01*
X128667Y43371D01*
Y43438D01*
X128650Y43454D01*
X128633D01*
X128517Y43521D01*
X128483Y43538D01*
X128467D01*
X128350Y43604D01*
X128317Y43621D01*
X128300D01*
X128017Y43788D01*
Y44237D01*
X128034Y44254D01*
Y44304D01*
X128050D01*
X128067D01*
X128084D01*
X128134Y44254D01*
D02*
G37*
G36*
X129150Y42488D02*
X129217Y42471D01*
X129250Y42454D01*
X129267D01*
X129383Y42421D01*
X129433Y42404D01*
X129450D01*
X129533Y42321D01*
X129567Y42304D01*
X129583Y42288D01*
X129667Y42204D01*
X129683Y42188D01*
X129700Y42171D01*
X129750Y42138D01*
X129783Y42088D01*
X129817Y42054D01*
Y42038D01*
X129867Y41938D01*
X129883Y41904D01*
Y41888D01*
X129900Y41804D01*
X129917Y41721D01*
X129933Y41654D01*
Y41371D01*
X129917Y41288D01*
X129900Y41204D01*
X129883Y41154D01*
Y41138D01*
X129833Y41054D01*
X129800Y40988D01*
X129767Y40938D01*
X129750Y40921D01*
X129650Y40805D01*
X129617Y40771D01*
X129600Y40755D01*
X129517Y40705D01*
X129450Y40655D01*
X129400Y40638D01*
X129383Y40621D01*
X129300Y40588D01*
X129217Y40571D01*
X129167Y40555D01*
X129150D01*
X129050D01*
X128967D01*
X128917D01*
X128900D01*
X128800Y40571D01*
X128767D01*
X128750D01*
X128650Y40605D01*
X128617Y40621D01*
X128600D01*
X128500Y40671D01*
X128483Y40688D01*
X128467D01*
X128383Y40755D01*
X128350Y40771D01*
Y40788D01*
X128283Y40854D01*
X128267Y40888D01*
X128200Y40971D01*
X128184Y40988D01*
Y41004D01*
X128134Y41071D01*
X128117Y41104D01*
X128100Y41138D01*
Y41154D01*
X128067Y41254D01*
X128050Y41288D01*
Y41371D01*
X128034Y41438D01*
Y41588D01*
X128050Y41621D01*
Y41671D01*
X128067Y41704D01*
Y41771D01*
X128084Y41788D01*
Y41854D01*
X128100Y41871D01*
X128117Y41938D01*
X128134Y41954D01*
X128234Y42138D01*
X128350Y42054D01*
X128367Y42021D01*
X128383Y42004D01*
X128400Y41988D01*
X128417D01*
X128433Y41971D01*
X128450Y41954D01*
X128467D01*
X128483Y41938D01*
X128500D01*
X128517Y41921D01*
X128533D01*
Y41904D01*
X128550D01*
Y41888D01*
X128567D01*
Y41821D01*
X128550D01*
Y41754D01*
X128533Y41721D01*
X128517Y41704D01*
Y41654D01*
X128483Y41621D01*
X128467Y41604D01*
Y41454D01*
X128483Y41438D01*
X128500Y41404D01*
Y41388D01*
X128533Y41304D01*
X128550Y41271D01*
X128567Y41254D01*
X128617Y41188D01*
X128633Y41171D01*
X128650Y41154D01*
X128733Y41104D01*
X128767Y41088D01*
X128783Y41071D01*
X128867Y41038D01*
X128900Y41021D01*
X128917D01*
X129017D01*
X129050D01*
X129067D01*
X129150Y41038D01*
X129183Y41054D01*
X129200D01*
X129283Y41121D01*
X129300Y41138D01*
X129317D01*
X129383Y41204D01*
X129400Y41238D01*
X129417D01*
X129433Y41254D01*
X129450Y41271D01*
X129467Y41304D01*
Y41321D01*
X129483Y41338D01*
Y41354D01*
X129500Y41371D01*
Y41638D01*
X129483Y41688D01*
Y41704D01*
X129467Y41738D01*
Y41754D01*
X129433Y41804D01*
X129417Y41821D01*
X129400Y41838D01*
X129383Y41854D01*
X129367Y41871D01*
X129350Y41888D01*
X129317Y41921D01*
X129300Y41938D01*
X129250Y41954D01*
X129233Y41971D01*
X129133Y42021D01*
Y41471D01*
X128683D01*
Y42371D01*
X128700Y42404D01*
Y42438D01*
X128717Y42454D01*
Y42471D01*
X128733D01*
X128750Y42488D01*
X128767D01*
X128883Y42504D01*
X128917D01*
X128933D01*
X129033D01*
X129067D01*
X129083D01*
X129150Y42488D01*
D02*
G37*
G36*
X129933Y40405D02*
Y39905D01*
X129583Y39688D01*
X129500Y39638D01*
X129467Y39621D01*
X129383Y39571D01*
X129350Y39555D01*
X129333D01*
X129317Y39538D01*
X129283Y39521D01*
X129267Y39505D01*
X129250Y39471D01*
Y39455D01*
X129233Y39438D01*
Y39421D01*
X129217Y39388D01*
Y39371D01*
X129200Y39355D01*
Y39205D01*
X129933D01*
Y38721D01*
X128967D01*
X128000D01*
X128017Y39305D01*
Y39655D01*
X128034Y39705D01*
Y39821D01*
X128050Y39838D01*
Y39921D01*
X128067Y39955D01*
X128084Y40021D01*
X128100Y40038D01*
X128134Y40088D01*
X128150Y40105D01*
X128167D01*
X128217Y40155D01*
X128234Y40171D01*
X128283Y40221D01*
X128300Y40238D01*
X128367Y40271D01*
X128383Y40288D01*
X128400D01*
X128467Y40305D01*
X128483D01*
X128500D01*
X128583Y40321D01*
X128617D01*
X128633D01*
X128700D01*
X128717Y40305D01*
X128733D01*
X128817Y40288D01*
X128833Y40271D01*
X128850D01*
X128917Y40255D01*
X128933Y40238D01*
X128950D01*
X129017Y40188D01*
X129033Y40171D01*
X129067Y40121D01*
X129083Y40105D01*
Y40088D01*
X129100Y40071D01*
Y40055D01*
X129117Y40038D01*
X129133D01*
Y40005D01*
X129150D01*
Y39988D01*
X129200Y40005D01*
X129217Y40021D01*
X129233Y40038D01*
X129250Y40055D01*
X129300Y40071D01*
X129317Y40088D01*
X129350Y40121D01*
X129367Y40138D01*
X129417Y40155D01*
X129433Y40171D01*
X129450D01*
X129517Y40188D01*
X129533Y40205D01*
X129583Y40238D01*
X129600Y40255D01*
X129650Y40271D01*
X129667Y40288D01*
X129700Y40305D01*
X129717Y40321D01*
X129767Y40338D01*
X129783Y40355D01*
X129800D01*
X129833Y40371D01*
X129850Y40388D01*
X129883Y40405D01*
X129900Y40421D01*
X129917D01*
X129933Y40405D01*
D02*
G37*
G36*
Y37022D02*
X128967D01*
X128000D01*
X128017Y38405D01*
X128450Y38421D01*
Y37488D01*
X128667D01*
X128683Y38171D01*
X129083D01*
X129133Y37488D01*
X129500D01*
X129517Y38405D01*
X129933Y38421D01*
Y37022D01*
D02*
G37*
G36*
Y36472D02*
X129917Y36438D01*
Y36422D01*
X129900Y36388D01*
Y36372D01*
X129883Y36355D01*
X129867Y36338D01*
X129833Y36288D01*
X129817Y36272D01*
Y36255D01*
X129767Y36222D01*
X129733Y36205D01*
X129633Y36088D01*
X129600Y36055D01*
X129583Y36038D01*
X129467Y35938D01*
X129417Y35905D01*
X129400Y35888D01*
X128900Y35405D01*
X129933Y35388D01*
Y34905D01*
X128967D01*
X128017D01*
Y35105D01*
X128034Y35122D01*
X128050Y35138D01*
X128067Y35155D01*
X128084Y35205D01*
X128100Y35222D01*
X128150Y35272D01*
X128167Y35288D01*
X128184D01*
X128234Y35355D01*
X128250Y35372D01*
X128350Y35472D01*
X128383Y35505D01*
X128400Y35522D01*
X128500Y35638D01*
X128550Y35672D01*
X128567Y35688D01*
X129100Y36205D01*
X128000D01*
X128034Y36672D01*
X129933Y36688D01*
Y36472D01*
D02*
G37*
G36*
Y33205D02*
X128967D01*
Y33189D01*
X128000D01*
X128017Y34572D01*
X128433Y34605D01*
Y33672D01*
X128667D01*
Y34389D01*
X129100D01*
Y33672D01*
X129500D01*
X129517Y34588D01*
X129933Y34605D01*
Y33205D01*
D02*
G37*
G36*
X122467Y39188D02*
X122567D01*
X122634Y39171D01*
X122684D01*
X122701D01*
X122984Y39121D01*
X123101Y39105D01*
X123217Y39071D01*
X123317Y39038D01*
X123384Y39021D01*
X123434Y39005D01*
X123451D01*
X123717Y38905D01*
X123834Y38855D01*
X123934Y38805D01*
X124017Y38755D01*
X124084Y38721D01*
X124134Y38705D01*
X124151Y38688D01*
X124384Y38538D01*
X124584Y38405D01*
X124667Y38338D01*
X124717Y38288D01*
X124751Y38271D01*
X124767Y38255D01*
X124984Y38055D01*
X125150Y37871D01*
X125217Y37805D01*
X125250Y37738D01*
X125284Y37705D01*
X125300Y37688D01*
X125450Y37455D01*
X125584Y37255D01*
X125634Y37172D01*
X125667Y37105D01*
X125684Y37055D01*
X125700Y37038D01*
X125734Y36955D01*
X125767Y36888D01*
X125784Y36838D01*
X125800Y36822D01*
X125834Y36738D01*
X125850Y36672D01*
X125867Y36622D01*
X125884Y36605D01*
X125917Y36538D01*
X125950Y36472D01*
X125967Y36422D01*
Y36405D01*
X125984Y36322D01*
X126000Y36255D01*
X126017Y36205D01*
Y36188D01*
X126034Y36105D01*
Y36038D01*
X126050Y35988D01*
Y35972D01*
X126067Y35905D01*
Y35772D01*
X126084Y35688D01*
Y34955D01*
X126067Y34872D01*
Y34805D01*
X126050Y34738D01*
Y34605D01*
X126034Y34538D01*
X126017Y34472D01*
X126000Y34422D01*
Y34405D01*
X125984Y34339D01*
Y34272D01*
X125967Y34222D01*
Y34205D01*
X125900Y34089D01*
X125884Y34039D01*
X125867Y34022D01*
X125834Y33939D01*
X125817Y33872D01*
X125800Y33822D01*
Y33805D01*
X125767Y33722D01*
X125734Y33655D01*
X125700Y33605D01*
Y33589D01*
X125634Y33472D01*
X125617Y33439D01*
Y33422D01*
X125550Y33339D01*
X125517Y33305D01*
Y33289D01*
X125450Y33172D01*
X125417Y33122D01*
Y33105D01*
X125334Y32989D01*
X125300Y32955D01*
Y32939D01*
X125217Y32822D01*
X125184Y32789D01*
Y32772D01*
X125084Y32655D01*
X125067Y32622D01*
X125050Y32605D01*
X125034Y32589D01*
X125017Y32572D01*
X125001D01*
X124984D01*
X124967D01*
X124917Y32639D01*
X124901Y32672D01*
X124867Y32755D01*
X124851Y32789D01*
X124817Y32855D01*
X124801Y32889D01*
X124767Y32972D01*
X124751Y32989D01*
Y33005D01*
X124701Y33105D01*
X124684Y33122D01*
Y33139D01*
X124634Y33239D01*
X124601Y33255D01*
Y33272D01*
X124284Y33972D01*
X124384Y34155D01*
X124451Y34272D01*
X124467Y34322D01*
X124484Y34339D01*
X124501Y34405D01*
X124517Y34472D01*
X124534Y34522D01*
Y34538D01*
X124551Y34622D01*
X124584Y34688D01*
X124601Y34738D01*
Y34755D01*
X124617Y34838D01*
X124634Y34922D01*
X124651Y34972D01*
Y34988D01*
X124667Y35072D01*
Y35622D01*
X124651Y35705D01*
X124634Y35772D01*
X124601Y35822D01*
Y35838D01*
X124567Y35972D01*
X124551Y36072D01*
X124517Y36138D01*
Y36172D01*
X124467Y36288D01*
X124417Y36388D01*
X124401Y36455D01*
X124384Y36472D01*
X124317Y36588D01*
X124251Y36688D01*
X124201Y36755D01*
X124184Y36772D01*
X124101Y36872D01*
X124034Y36955D01*
X123967Y37022D01*
X123951Y37038D01*
X123867Y37122D01*
X123784Y37188D01*
X123717Y37238D01*
X123701Y37255D01*
X123601Y37338D01*
X123501Y37405D01*
X123434Y37438D01*
X123417Y37455D01*
X123301Y37522D01*
X123201Y37571D01*
X123134Y37588D01*
X123101Y37605D01*
X122984Y37655D01*
X122884Y37688D01*
X122817Y37705D01*
X122784D01*
X122667Y37721D01*
X122617Y37738D01*
X122601D01*
X122534Y37755D01*
X122467D01*
X122434D01*
X122417D01*
X122317D01*
X122251D01*
X122201D01*
X122184D01*
X122101D01*
X122017D01*
X121951Y37738D01*
X121934D01*
X121851D01*
X121784D01*
X121734Y37721D01*
X121718D01*
X121634Y37705D01*
X121568Y37688D01*
X121518Y37671D01*
X121501D01*
X121401Y37638D01*
X121384Y37621D01*
X121368D01*
X121284Y37588D01*
X121251Y37571D01*
X121234Y37555D01*
Y37538D01*
X121218Y37522D01*
Y37455D01*
X121234Y37405D01*
X121251Y37388D01*
Y37355D01*
X121268Y37338D01*
X121301Y37238D01*
X121318Y37205D01*
Y37188D01*
X121368Y37088D01*
X121384Y37055D01*
Y37038D01*
X121434Y36972D01*
X121451Y36955D01*
Y36938D01*
X121468Y36872D01*
X121484Y36855D01*
X121518Y36788D01*
X121534Y36772D01*
X121551Y36722D01*
X121568Y36705D01*
X121584Y36655D01*
X121601Y36638D01*
X121618Y36588D01*
X121634Y36572D01*
Y36538D01*
X121651D01*
X121668D01*
X121684Y36555D01*
X121718D01*
X121734D01*
X121751Y36572D01*
X121768Y36588D01*
X121784D01*
X121801D01*
X121818Y36605D01*
X121834D01*
X121951Y36622D01*
X122001Y36638D01*
X122017D01*
X122134Y36655D01*
X122167D01*
X122184D01*
X122301D01*
X122351Y36638D01*
X122367D01*
X122484Y36622D01*
X122534Y36605D01*
X122551D01*
X122667Y36538D01*
X122717Y36522D01*
X122734D01*
X122834Y36472D01*
X122867Y36455D01*
X122884D01*
X123001Y36388D01*
X123034Y36372D01*
X123051Y36355D01*
X123134Y36272D01*
X123151Y36238D01*
X123167Y36222D01*
X123234Y36155D01*
X123251Y36138D01*
X123267Y36122D01*
X123317Y36055D01*
X123334Y36038D01*
X123351Y36022D01*
X123401Y35938D01*
X123417Y35922D01*
Y35905D01*
X123434Y35838D01*
X123451Y35822D01*
Y35805D01*
X123467Y35722D01*
X123484Y35705D01*
Y35688D01*
X123501Y35605D01*
X123517Y35588D01*
Y35488D01*
X123534Y35455D01*
Y35072D01*
X123517Y35038D01*
Y34955D01*
X123501Y34922D01*
X123484Y34905D01*
X123467Y34855D01*
X123451Y34838D01*
X123434Y34788D01*
X123417Y34772D01*
X123301Y34522D01*
X124434Y32139D01*
X124351Y32039D01*
X124267Y31989D01*
X124234Y31972D01*
X124167Y31939D01*
X124134Y31922D01*
X124017Y31872D01*
X123984Y31855D01*
X123967D01*
X123851Y31805D01*
X123817Y31789D01*
X123801D01*
X123701Y31722D01*
X123667Y31689D01*
X123651D01*
X123584Y31672D01*
X123517Y31655D01*
X123484Y31639D01*
X123467D01*
X123367Y31605D01*
X123334Y31589D01*
X123317D01*
X123217Y31555D01*
X123184Y31539D01*
X123167D01*
X123101Y31522D01*
X123067Y31505D01*
X122967D01*
X122951Y31489D01*
X122934D01*
X122884D01*
X122867Y31472D01*
X122801D01*
X122767D01*
X122701Y31455D01*
X122667D01*
X122584D01*
X122551D01*
X122434D01*
X122401D01*
X122384D01*
X122317D01*
X122251D01*
X122217D01*
X122201D01*
X122084D01*
X122051D01*
X122034D01*
X121918D01*
X121884D01*
X121868D01*
X121801D01*
X121768D01*
X121684Y31472D01*
X121651D01*
X121584D01*
X121568D01*
X121501Y31489D01*
X121484D01*
X121401Y31505D01*
X121368D01*
X121284Y31522D01*
X121251Y31539D01*
X121168Y31572D01*
X121084Y31589D01*
X121018Y31605D01*
X121001D01*
X120901Y31639D01*
X120801Y31672D01*
X120734Y31705D01*
X120718D01*
X120634Y31755D01*
X120551Y31789D01*
X120501Y31822D01*
X120484D01*
X120384Y31872D01*
X120318Y31922D01*
X120268Y31939D01*
X120251Y31955D01*
X120168Y32005D01*
X120084Y32055D01*
X120034Y32089D01*
X120018Y32105D01*
X119934Y32172D01*
X119851Y32222D01*
X119801Y32255D01*
X119784Y32272D01*
X119718Y32339D01*
X119651Y32389D01*
X119601Y32439D01*
X119584Y32455D01*
X119501Y32522D01*
X119434Y32589D01*
X119384Y32639D01*
X119368Y32655D01*
X119301Y32722D01*
X119251Y32789D01*
X119218Y32839D01*
X119201Y32855D01*
X119134Y32939D01*
X119084Y33005D01*
X119051Y33055D01*
X119034Y33072D01*
X118984Y33155D01*
X118934Y33222D01*
X118918Y33272D01*
X118901Y33289D01*
X118834Y33372D01*
X118801Y33455D01*
X118768Y33505D01*
X118751Y33522D01*
X118718Y33605D01*
X118685Y33672D01*
X118651Y33722D01*
Y33739D01*
X118618Y33839D01*
X118585Y33922D01*
X118551Y33972D01*
Y33989D01*
X118518Y34089D01*
X118485Y34172D01*
X118468Y34222D01*
Y34239D01*
X118435Y34339D01*
X118418Y34422D01*
X118401Y34472D01*
Y34505D01*
X118385Y34588D01*
X118368Y34672D01*
X118351Y34722D01*
Y34738D01*
X118335Y34822D01*
Y35705D01*
X118351Y35772D01*
Y35788D01*
X118368Y35888D01*
Y35988D01*
X118385Y36055D01*
Y36072D01*
X118401Y36155D01*
X118418Y36238D01*
X118435Y36288D01*
Y36305D01*
X118451Y36388D01*
X118485Y36472D01*
X118501Y36522D01*
Y36538D01*
X118535Y36605D01*
X118568Y36672D01*
X118585Y36722D01*
Y36738D01*
X118618Y36805D01*
X118634Y36872D01*
X118651Y36922D01*
X118668Y36938D01*
X118701Y37005D01*
X118734Y37072D01*
X118751Y37122D01*
X118768Y37138D01*
X118801Y37222D01*
X118851Y37288D01*
X118884Y37338D01*
X118901Y37355D01*
X118984Y37472D01*
X119001Y37522D01*
X119018Y37538D01*
X119051Y37605D01*
X119101Y37671D01*
X119118Y37705D01*
X119134Y37721D01*
X119218Y37821D01*
X119251Y37838D01*
X119268Y37855D01*
X119334Y37955D01*
X119351Y37971D01*
X119368Y37988D01*
X119468Y38071D01*
X119534Y37955D01*
Y37921D01*
X119551Y37905D01*
Y37871D01*
X119568Y37855D01*
X119584Y37805D01*
X119601Y37788D01*
Y37771D01*
X119634Y37721D01*
X119651Y37705D01*
Y37688D01*
X119684Y37605D01*
X119701Y37588D01*
Y37571D01*
X119718Y37505D01*
X119734Y37488D01*
Y37472D01*
X119784Y37388D01*
X119801Y37372D01*
Y37355D01*
X119834Y37272D01*
X119851Y37255D01*
Y37238D01*
X120134Y36655D01*
X120001Y36405D01*
X119968Y36322D01*
X119951Y36288D01*
Y36272D01*
X119901Y36188D01*
X119884Y36155D01*
Y36138D01*
X119868Y36055D01*
X119851Y36022D01*
Y36005D01*
X119834Y35922D01*
X119818Y35888D01*
Y35872D01*
X119784Y35788D01*
Y35755D01*
X119768Y35655D01*
Y35605D01*
X119751Y35505D01*
Y35022D01*
X119768Y34938D01*
X119784Y34905D01*
Y34888D01*
X119801Y34805D01*
X119818Y34788D01*
Y34688D01*
X119834Y34672D01*
Y34655D01*
X119868Y34572D01*
X119884Y34555D01*
Y34538D01*
X119918Y34455D01*
X119934Y34422D01*
Y34405D01*
X119968Y34305D01*
X119984Y34272D01*
Y34255D01*
X120034Y34172D01*
X120084Y34089D01*
X120118Y34022D01*
X120134Y34005D01*
X120184Y33922D01*
X120234Y33855D01*
X120268Y33805D01*
X120284Y33789D01*
X120351Y33705D01*
X120401Y33639D01*
X120451Y33589D01*
X120468Y33572D01*
X120534Y33505D01*
X120601Y33455D01*
X120651Y33422D01*
X120668Y33405D01*
X120751Y33339D01*
X120834Y33289D01*
X120884Y33255D01*
X120901Y33239D01*
X120984Y33189D01*
X121051Y33155D01*
X121118Y33122D01*
X121134Y33105D01*
X121218Y33072D01*
X121301Y33039D01*
X121368Y33022D01*
X121384Y33005D01*
X121484Y32972D01*
X121568Y32939D01*
X121634Y32922D01*
X121651D01*
X121751Y32905D01*
X121784Y32889D01*
X121801D01*
X121884D01*
X121918Y32872D01*
X121934D01*
X122051D01*
X122101D01*
X122117D01*
X122184D01*
X122251D01*
X122284D01*
X122301D01*
X122367Y32889D01*
X122434D01*
X122484D01*
X122501D01*
X122617Y32905D01*
X122651D01*
X122667D01*
X122767Y32922D01*
X122801Y32939D01*
X122817D01*
X122901Y32955D01*
X122934Y32972D01*
X122951D01*
X123001D01*
X123017D01*
X123051Y32989D01*
X123067Y33005D01*
X123101D01*
X123117D01*
X123134Y33039D01*
X123151Y33055D01*
X123167D01*
X123184D01*
X123201Y33072D01*
X123217D01*
Y33089D01*
X123234Y33105D01*
Y33122D01*
X123201Y33205D01*
X123167Y33272D01*
X123134Y33322D01*
Y33339D01*
X123101Y33422D01*
X123067Y33489D01*
X123051Y33539D01*
Y33555D01*
X123001Y33622D01*
X122967Y33689D01*
X122951Y33739D01*
Y33755D01*
X122917Y33822D01*
X122884Y33889D01*
X122851Y33939D01*
Y33955D01*
X122834Y34005D01*
Y34022D01*
X122801Y34072D01*
X122784Y34089D01*
X122767D01*
X122751D01*
X122734D01*
X122717D01*
X122701Y34072D01*
X122684D01*
X122651D01*
X122634D01*
X122617Y34055D01*
X122601D01*
X122584D01*
X122567Y34039D01*
X122484Y34005D01*
X122401Y33989D01*
X122351Y33972D01*
X122334D01*
X122251D01*
X122184Y33989D01*
X122134D01*
X122117D01*
X122017D01*
X121951Y34005D01*
X121901Y34022D01*
X121884D01*
X121801Y34055D01*
X121718Y34089D01*
X121668Y34105D01*
X121651D01*
X121584Y34139D01*
X121518Y34189D01*
X121468Y34205D01*
X121451Y34222D01*
X121384Y34272D01*
X121318Y34322D01*
X121284Y34355D01*
X121268Y34372D01*
X121168Y34488D01*
X121134Y34522D01*
X121118Y34538D01*
X121068Y34622D01*
X121034Y34688D01*
X121001Y34738D01*
Y34755D01*
X120984Y34788D01*
X120968Y34805D01*
X120951Y34855D01*
Y34872D01*
X120934Y34905D01*
Y34922D01*
X120918Y34972D01*
Y35055D01*
X120901Y35105D01*
Y35555D01*
X120918Y35572D01*
Y35688D01*
X120934Y35705D01*
Y35738D01*
X120951Y35755D01*
Y35805D01*
X120968Y35822D01*
X120984Y35872D01*
X121001Y35888D01*
X121118Y36122D01*
X120551Y37322D01*
X120484Y37455D01*
X120434Y37571D01*
X120384Y37655D01*
X120368Y37671D01*
Y37688D01*
X120301Y37838D01*
X120234Y37955D01*
X120201Y38038D01*
X120184Y38071D01*
X120151Y38171D01*
X120134Y38188D01*
Y38205D01*
X120084Y38305D01*
X120068Y38338D01*
Y38355D01*
X120051Y38405D01*
X120034Y38421D01*
X120018Y38471D01*
Y38521D01*
X120034Y38538D01*
Y38555D01*
X120051Y38571D01*
X120068D01*
X120084Y38588D01*
X120151Y38605D01*
X120168Y38621D01*
X120201Y38638D01*
X120218Y38655D01*
X120268Y38671D01*
X120284Y38688D01*
X120318Y38705D01*
X120334Y38721D01*
X120384Y38738D01*
X120401Y38755D01*
X120418D01*
X120484Y38771D01*
X120501Y38788D01*
X120751Y38905D01*
X120968Y39005D01*
X121068Y39038D01*
X121134Y39055D01*
X121184Y39071D01*
X121201D01*
X121468Y39138D01*
X121601Y39171D01*
X121718Y39188D01*
X121818D01*
X121884Y39205D01*
X121934D01*
X121951D01*
X122217D01*
X122351D01*
X122467Y39188D01*
D02*
G37*
G36*
X129917Y32272D02*
X129933Y32255D01*
Y31772D01*
X129567Y31555D01*
X129483Y31505D01*
X129467Y31489D01*
X129450D01*
X129350Y31439D01*
X129333Y31422D01*
X129317Y31405D01*
X129300Y31389D01*
X129283Y31372D01*
X129267Y31355D01*
X129250Y31339D01*
X129233D01*
Y31322D01*
X129217Y31305D01*
Y31239D01*
X129200Y31222D01*
Y31205D01*
X129217Y31056D01*
X129933Y31039D01*
Y30572D01*
X128983D01*
X128017D01*
Y31172D01*
X128034Y31255D01*
Y31605D01*
X128050Y31689D01*
X128067Y31705D01*
Y31805D01*
X128084Y31839D01*
Y31889D01*
X128100Y31905D01*
X128134Y31955D01*
X128150Y31972D01*
X128167D01*
X128217Y32005D01*
X128234Y32022D01*
X128267Y32072D01*
X128283Y32105D01*
X128367Y32139D01*
X128383Y32155D01*
X128400D01*
X128483Y32172D01*
X128500Y32189D01*
X128517D01*
X128600D01*
X128633D01*
X128650D01*
X128717D01*
X128733D01*
X128750D01*
X128833Y32155D01*
X128850Y32139D01*
X128867D01*
X128933Y32105D01*
X128950Y32089D01*
X128967D01*
X129033Y32022D01*
X129050Y32005D01*
X129100Y31955D01*
X129117Y31939D01*
X129133Y31922D01*
Y31905D01*
X129150Y31889D01*
X129167D01*
X129183D01*
X129200D01*
Y31905D01*
X129217D01*
X129250Y31922D01*
X129267D01*
X129300Y31939D01*
X129317D01*
X129400Y31989D01*
X129417Y32005D01*
X129433D01*
X129500Y32039D01*
X129517Y32055D01*
X129533D01*
X129583Y32105D01*
X129600Y32122D01*
X129650Y32139D01*
X129667Y32155D01*
X129700Y32172D01*
X129717Y32189D01*
X129767Y32205D01*
X129783Y32222D01*
X129800D01*
X129833Y32239D01*
X129850Y32255D01*
X129883Y32272D01*
X129900Y32289D01*
X129917D01*
Y32272D01*
D02*
G37*
G36*
X129183Y30272D02*
X129233Y30256D01*
X129250D01*
X129333Y30222D01*
X129417Y30189D01*
X129467Y30172D01*
X129483Y30156D01*
X129550Y30106D01*
X129617Y30072D01*
X129650Y30039D01*
X129667Y30022D01*
X129767Y29906D01*
X129800Y29856D01*
X129817Y29839D01*
X129850Y29756D01*
X129883Y29689D01*
X129900Y29639D01*
Y29622D01*
X129917Y29572D01*
X129933Y29556D01*
Y29356D01*
X129917Y29289D01*
Y29139D01*
X129900Y29072D01*
Y29039D01*
X129883Y28989D01*
Y28956D01*
X129867Y28906D01*
X129850Y28889D01*
X129800Y28789D01*
X129767Y28756D01*
Y28739D01*
X129683Y28672D01*
X129667Y28656D01*
X129650Y28639D01*
X129567Y28556D01*
X129550Y28539D01*
X129533Y28522D01*
X129433Y28456D01*
X129400Y28439D01*
X129383D01*
X129283Y28406D01*
X129267Y28389D01*
X129250D01*
X129133Y28372D01*
X129083Y28356D01*
X129067D01*
X128967D01*
X128933D01*
X128917D01*
X128800Y28372D01*
X128767D01*
X128750D01*
X128667Y28389D01*
X128633Y28406D01*
X128550Y28439D01*
X128517Y28456D01*
X128433Y28506D01*
X128400Y28539D01*
X128333Y28606D01*
X128317Y28622D01*
X128250Y28689D01*
X128234Y28722D01*
X128184Y28789D01*
X128167Y28822D01*
X128117Y28906D01*
X128100Y28939D01*
X128067Y29039D01*
X128050Y29056D01*
Y29072D01*
X128034Y29172D01*
Y29206D01*
X128017Y29306D01*
Y29339D01*
X128034Y29439D01*
X128050Y29456D01*
Y29572D01*
X128067Y29606D01*
Y29622D01*
X128100Y29706D01*
X128117Y29739D01*
X128150Y29839D01*
X128167Y29856D01*
X128184Y29872D01*
X128234Y29939D01*
X128250Y29972D01*
X128267D01*
X128333Y30039D01*
X128350Y30072D01*
X128483Y30156D01*
X128533Y30189D01*
X128550D01*
X128633Y30239D01*
X128700Y30272D01*
X128750Y30289D01*
X128767D01*
X128867D01*
X128950D01*
X129017D01*
X129033D01*
X129117D01*
X129183Y30272D01*
D02*
G37*
G36*
X129367Y28172D02*
X129417Y28156D01*
X129433Y28139D01*
X129450D01*
X129500Y28106D01*
X129517Y28089D01*
X129567Y28039D01*
X129583Y28022D01*
X129600D01*
X129650Y27972D01*
X129667Y27956D01*
X129717Y27889D01*
X129733Y27873D01*
Y27856D01*
X129800Y27806D01*
X129817Y27789D01*
Y27773D01*
X129833Y27723D01*
X129850Y27706D01*
Y27689D01*
X129883Y27606D01*
X129900Y27589D01*
Y27573D01*
X129917Y27489D01*
X129933Y27456D01*
Y27339D01*
X129950Y27306D01*
Y27289D01*
X129933Y27206D01*
Y27156D01*
X129917Y27073D01*
Y27023D01*
X129883Y26939D01*
X129867Y26906D01*
Y26889D01*
X129833Y26806D01*
X129817Y26789D01*
Y26773D01*
X129767Y26706D01*
X129733Y26689D01*
Y26673D01*
X129700Y26606D01*
X129650Y26556D01*
X129633Y26523D01*
X129617Y26506D01*
X129517Y26439D01*
X129483Y26423D01*
X129467D01*
X129400Y26389D01*
X129333Y26356D01*
X129300Y26339D01*
X129283D01*
X129217Y26323D01*
X129150D01*
X129100Y26306D01*
X129083D01*
X129017D01*
X128950D01*
X128900D01*
X128883D01*
X128817Y26323D01*
X128750Y26339D01*
X128717Y26356D01*
X128700D01*
X128633Y26373D01*
X128567Y26389D01*
X128533Y26423D01*
X128517D01*
X128400Y26489D01*
X128367Y26523D01*
X128350D01*
X128317Y26556D01*
X128300Y26573D01*
X128250Y26623D01*
X128234Y26656D01*
X128217Y26689D01*
X128200Y26706D01*
X128184Y26756D01*
X128167Y26773D01*
X128134Y26806D01*
X128117Y26823D01*
X128100Y26873D01*
X128084Y26889D01*
X128067Y26939D01*
Y26973D01*
X128050Y27039D01*
Y27056D01*
X128034Y27156D01*
Y27439D01*
X128050Y27473D01*
Y27489D01*
X128084Y27589D01*
X128100Y27623D01*
Y27639D01*
X128134Y27723D01*
X128150Y27756D01*
X128167D01*
X128217Y27839D01*
X128234Y27873D01*
X128300Y27956D01*
X128317Y27989D01*
X128333D01*
X128383Y28056D01*
X128400Y28072D01*
X128417D01*
X128450Y28089D01*
X128467D01*
X128500Y28106D01*
X128517D01*
X128533Y28122D01*
X128550D01*
Y28139D01*
X128567Y28156D01*
X128583D01*
X128600D01*
X128617Y28172D01*
X128633D01*
X128650D01*
Y28189D01*
X128667D01*
X128683Y28172D01*
Y28156D01*
X128700Y28139D01*
X128717Y28122D01*
Y28106D01*
X128733Y28089D01*
Y28072D01*
X128750Y28056D01*
Y28039D01*
X128767Y28022D01*
Y27989D01*
X128783Y27972D01*
X128867Y27756D01*
X128733Y27706D01*
X128700Y27689D01*
X128683Y27673D01*
X128633Y27639D01*
X128617Y27623D01*
X128600Y27589D01*
X128583Y27573D01*
X128567Y27539D01*
X128550Y27523D01*
X128533Y27473D01*
Y27456D01*
X128517Y27423D01*
X128500Y27406D01*
X128483Y27356D01*
Y27339D01*
X128467Y27289D01*
Y27206D01*
X128483Y27189D01*
X128500Y27139D01*
Y27123D01*
X128517Y27073D01*
X128533Y27056D01*
Y27023D01*
X128550Y27006D01*
X128567Y26973D01*
X128583Y26956D01*
X128600Y26923D01*
X128617Y26906D01*
X128667Y26889D01*
X128683Y26873D01*
X128717Y26856D01*
X128733Y26839D01*
X128817Y26806D01*
X128850Y26789D01*
X128867D01*
X128950Y26773D01*
X128983D01*
X129000D01*
X129083Y26789D01*
X129117D01*
X129133D01*
X129217Y26823D01*
X129233Y26839D01*
X129250D01*
X129317Y26889D01*
X129333Y26923D01*
X129350D01*
X129400Y26989D01*
X129417Y27023D01*
X129467Y27106D01*
X129483Y27123D01*
Y27139D01*
X129500Y27239D01*
Y27423D01*
X129483Y27439D01*
Y27456D01*
X129467Y27473D01*
X129450Y27489D01*
Y27506D01*
X129417Y27539D01*
X129400Y27556D01*
X129367Y27589D01*
X129350Y27606D01*
X129333Y27623D01*
X129317Y27639D01*
X129300Y27656D01*
X129283Y27673D01*
X129267Y27689D01*
X129250Y27706D01*
X129233D01*
X129217Y27723D01*
X129200Y27739D01*
X129183Y27756D01*
X129167D01*
X129150Y27773D01*
Y27856D01*
X129167Y27889D01*
Y27956D01*
X129183Y27989D01*
X129200Y28039D01*
X129217Y28056D01*
X129233Y28122D01*
X129250Y28139D01*
Y28156D01*
X129267Y28172D01*
X129283Y28189D01*
X129300D01*
X129350D01*
X129367Y28172D01*
D02*
G37*
%LPC*%
G36*
X128683Y39838D02*
X128667D01*
X128650D01*
X128633D01*
X128617D01*
X128600D01*
X128583D01*
Y39821D01*
X128567D01*
X128550D01*
Y39805D01*
X128533D01*
X128517D01*
Y39771D01*
X128500D01*
Y39755D01*
X128483D01*
Y39738D01*
X128467Y39721D01*
Y39671D01*
X128450Y39655D01*
Y39221D01*
X128783D01*
Y39521D01*
X128767Y39588D01*
Y39671D01*
X128750Y39721D01*
Y39738D01*
X128733Y39755D01*
Y39771D01*
X128717Y39805D01*
X128700Y39821D01*
X128683Y39838D01*
D02*
G37*
G36*
X128633Y31705D02*
X128617D01*
X128600D01*
X128583D01*
X128567D01*
X128550Y31689D01*
X128533Y31672D01*
Y31655D01*
X128517D01*
X128500Y31639D01*
X128483Y31622D01*
Y31605D01*
X128467D01*
Y31555D01*
X128450Y31539D01*
Y31039D01*
X128767Y31056D01*
Y31289D01*
X128783Y31322D01*
Y31455D01*
X128767Y31489D01*
Y31539D01*
X128750Y31555D01*
Y31589D01*
X128733Y31605D01*
Y31622D01*
X128717Y31639D01*
Y31655D01*
X128700Y31672D01*
X128683Y31689D01*
X128667D01*
X128650D01*
X128633Y31705D01*
D02*
G37*
G36*
X129000Y29806D02*
X128983D01*
X128967D01*
X128867D01*
X128850Y29789D01*
X128833D01*
X128750Y29772D01*
X128717Y29756D01*
X128650Y29722D01*
X128633Y29706D01*
X128567Y29656D01*
X128550Y29639D01*
Y29622D01*
X128533Y29572D01*
X128517Y29556D01*
Y29539D01*
X128483Y29472D01*
X128467Y29456D01*
Y29256D01*
X128500Y29189D01*
X128517Y29172D01*
Y29156D01*
X128533Y29089D01*
X128550Y29072D01*
Y29056D01*
X128600Y29006D01*
X128617Y28989D01*
X128650Y28939D01*
X128667Y28922D01*
X128683D01*
X128717Y28906D01*
X128733Y28889D01*
X128767Y28872D01*
X128783Y28856D01*
X128850D01*
X128867Y28839D01*
X128883D01*
X128933D01*
X128950D01*
X129017D01*
X129033D01*
X129100Y28856D01*
X129117D01*
X129133D01*
X129183Y28872D01*
X129200D01*
X129250Y28906D01*
X129267Y28922D01*
X129317Y28956D01*
X129333Y28972D01*
X129383Y29022D01*
X129400Y29039D01*
X129433Y29089D01*
X129450Y29122D01*
X129483Y29206D01*
Y29239D01*
X129500Y29306D01*
Y29439D01*
X129483Y29506D01*
X129467Y29539D01*
X129433Y29606D01*
X129400Y29622D01*
X129350Y29689D01*
X129333Y29706D01*
X129250Y29739D01*
X129233Y29756D01*
X129217D01*
X129133Y29789D01*
X129117D01*
X129100D01*
X129000Y29806D01*
D02*
G37*
%LPD*%
D102*
X140400Y29125D02*
X147750D01*
X138750D02*
X139700D01*
X138750Y19125D02*
Y29125D01*
X147750Y19125D02*
Y29125D01*
X145600Y19125D02*
X147750D01*
X138750D02*
X144900D01*
X144650Y18525D02*
X145850D01*
X145600Y19125D02*
X145850Y18525D01*
X144650D02*
X144900Y19125D01*
X139450Y29725D02*
X139700Y29125D01*
X139450Y29725D02*
X140650D01*
X140400Y29125D02*
X140650Y29725D01*
X92500Y685D02*
X98450D01*
X92500D02*
Y8645D01*
X98450D01*
Y685D02*
Y8645D01*
X107959Y56052D02*
Y57402D01*
X105084Y56052D02*
Y57402D01*
X107959D01*
X105084Y56052D02*
X107959D01*
X135100Y48795D02*
Y56755D01*
X129150D02*
X135100D01*
X129150Y48795D02*
Y56755D01*
Y48795D02*
X135100D01*
X135300Y22721D02*
X138150D01*
X129650D02*
X132500D01*
X138150Y15221D02*
Y22721D01*
X137150Y14221D02*
X138150Y15221D01*
X135300Y14221D02*
X137150D01*
X130650D02*
X132500D01*
X129650Y15221D02*
X130650Y14221D01*
X129650Y15221D02*
Y22721D01*
X102500Y34300D02*
X107500D01*
X105000Y41750D02*
Y44000D01*
Y30000D02*
Y32250D01*
X102350D02*
X107650D01*
Y41750D01*
X102350D02*
X107650D01*
X102350Y32250D02*
Y41750D01*
X75400Y54800D02*
Y59600D01*
X86600D01*
Y54800D02*
Y59600D01*
X75400Y54800D02*
X86600D01*
X54100Y25400D02*
Y41425D01*
Y25400D02*
X59975D01*
X54100Y41425D02*
X59975D01*
Y25400D02*
Y41425D01*
X48650Y25225D02*
X52325D01*
X48650D02*
Y39575D01*
X52325Y25225D02*
Y39575D01*
X48650D02*
X52325D01*
X50500Y32725D02*
X51207Y32018D01*
X49793D02*
X50500Y32725D01*
X49793Y32018D02*
X51207D01*
X50500Y32725D02*
X51200D01*
X50500Y31425D02*
Y32725D01*
X49800D02*
X50500D01*
Y33325D01*
X91500Y850D02*
Y13550D01*
X62500D02*
X91500D01*
X62500Y850D02*
Y13550D01*
Y850D02*
X91500D01*
X33200Y3300D02*
Y9300D01*
Y3300D02*
X35800D01*
X33200Y9300D02*
X35800D01*
Y3300D02*
Y9300D01*
X9100Y1800D02*
X33000D01*
Y9300D01*
X9100D02*
X33000D01*
X9100Y1800D02*
Y9300D01*
X140401Y39150D02*
X140651Y39750D01*
X139451D02*
X140651D01*
X139451D02*
X139701Y39150D01*
X144651Y28550D02*
X144900Y29150D01*
X145601D02*
X145851Y28550D01*
X144651D02*
X145851D01*
X138751Y29150D02*
X144900D01*
X145601D02*
X147751D01*
Y39150D01*
X138751Y29150D02*
Y39150D01*
X139701D01*
X140401D02*
X147751D01*
X140401Y49175D02*
X140651Y49775D01*
X139451D02*
X140651D01*
X139451D02*
X139701Y49175D01*
X144651Y38575D02*
X144900Y39175D01*
X145601D02*
X145851Y38575D01*
X144651D02*
X145851D01*
X138751Y39175D02*
X144900D01*
X145601D02*
X147751D01*
Y49175D01*
X138751Y39175D02*
Y49175D01*
X139701D01*
X140401D02*
X147751D01*
X27078Y19375D02*
X30753D01*
X27078D02*
Y33725D01*
X30753Y19375D02*
Y33725D01*
X27078D02*
X30753D01*
X28928Y26875D02*
X29635Y26168D01*
X28221D02*
X28928Y26875D01*
X28221Y26168D02*
X29635D01*
X28928Y26875D02*
X29628D01*
X28928Y25575D02*
Y26875D01*
X28228D02*
X28928D01*
Y27475D01*
X117840Y46960D02*
X122800D01*
X117840D02*
Y56740D01*
X122800D01*
Y46960D02*
Y56740D01*
X122855Y46960D02*
X127815D01*
X122855D02*
Y56740D01*
X127815D01*
Y46960D02*
Y56740D01*
X108420Y34525D02*
X109980D01*
X109200Y31025D02*
Y31600D01*
Y35500D02*
Y36075D01*
X108350Y35500D02*
X110050D01*
X108350Y31600D02*
Y35500D01*
Y31600D02*
X110050D01*
Y35500D01*
X112800Y46960D02*
X117760D01*
X112800D02*
Y56740D01*
X117760D01*
Y46960D02*
Y56740D01*
X147524Y13725D02*
Y16600D01*
X146174Y13725D02*
Y16600D01*
Y13725D02*
X147524D01*
X146174Y16600D02*
X147524D01*
X75201Y14025D02*
X86476D01*
X75201D02*
Y19475D01*
X86476D01*
Y14025D02*
Y19475D01*
X31050Y9575D02*
X36500D01*
Y20850D01*
X31050D02*
X36500D01*
X31050Y9575D02*
Y20850D01*
X25077Y26875D02*
Y27475D01*
X24377Y26875D02*
X25077D01*
Y25575D02*
Y26875D01*
X25777D01*
X24370Y26168D02*
X25784D01*
X24370D02*
X25077Y26875D01*
X25784Y26168D01*
X23227Y33725D02*
X26902D01*
Y19375D02*
Y33725D01*
X23227Y19375D02*
Y33725D01*
Y19375D02*
X26902D01*
X1300Y35800D02*
X8650D01*
X9350D02*
X10300D01*
Y45800D01*
X1300Y35800D02*
Y45800D01*
X3450D01*
X4150D02*
X10300D01*
X3200Y46400D02*
X4400D01*
X3200D02*
X3450Y45800D01*
X4150D02*
X4400Y46400D01*
X9350Y35800D02*
X9600Y35200D01*
X8400D02*
X9600D01*
X8400D02*
X8650Y35800D01*
D103*
X99000Y7205D02*
G03*
X99000Y7205I-125J0D01*
G01*
X135650Y55315D02*
G03*
X135650Y55315I-125J0D01*
G01*
X134025Y24621D02*
G03*
X134025Y24621I-125J0D01*
G01*
X92225Y10950D02*
G03*
X92225Y10950I-125J0D01*
G01*
X125775Y5775D02*
G03*
X125775Y5775I-125J0D01*
G01*
D104*
X60334Y12375D02*
G03*
X60334Y12375I-11684J0D01*
G01*
X61360Y19346D02*
X101873D01*
X61360Y54652D02*
X101873D01*
X61360Y19346D02*
Y54652D01*
X101873Y19346D02*
Y54652D01*
D105*
X79902Y19473D02*
Y54652D01*
X82188Y19473D02*
Y54652D01*
X79902D02*
X82188D01*
X79902Y19473D02*
X82188D01*
X64408Y19346D02*
X72155D01*
X64408Y54652D02*
X72155D01*
X64408Y19346D02*
Y54652D01*
X72155Y19346D02*
Y54652D01*
X90316Y19346D02*
X96666D01*
X90316Y54525D02*
X96666D01*
X90316Y19346D02*
Y54525D01*
X96666Y19346D02*
Y54525D01*
X45380Y56420D02*
X60620D01*
X45380Y45244D02*
X60620D01*
X45380D02*
Y56420D01*
X60620Y45244D02*
Y56420D01*
X45380Y53626D02*
X60620D01*
X45380Y45244D02*
X60620D01*
X45380D02*
Y53626D01*
X60620Y45244D02*
Y53626D01*
X99130Y580D02*
X114370D01*
X99130Y11756D02*
X114370D01*
Y580D02*
Y11756D01*
X99130Y580D02*
Y11756D01*
Y3374D02*
X114370D01*
X99130Y11756D02*
X114370D01*
Y3374D02*
Y11756D01*
X99130Y3374D02*
Y11756D01*
X10655Y43081D02*
Y58321D01*
X21831Y43081D02*
Y58321D01*
X10655Y43081D02*
X21831D01*
X10655Y58321D02*
X21831D01*
X13449Y43081D02*
Y58321D01*
X21831Y43081D02*
Y58321D01*
X13449Y43081D02*
X21831D01*
X13449Y58321D02*
X21831D01*
X32500Y1900D02*
Y9200D01*
X31977Y1839D02*
Y9200D01*
X22925Y17975D02*
Y34100D01*
X950D02*
X22925D01*
X950Y17975D02*
Y34100D01*
Y17975D02*
X22925D01*
X27900Y9900D02*
Y17700D01*
X1000Y9900D02*
X27900D01*
X1000D02*
Y17700D01*
X27900D01*
X37552Y34400D02*
Y42200D01*
X10652Y34400D02*
X37552D01*
X10652D02*
Y42200D01*
X37552D01*
X136990Y48279D02*
X135991D01*
Y48779D01*
X136157Y48945D01*
X136491D01*
X136657Y48779D01*
Y48279D01*
X135991Y49279D02*
X136990D01*
X136657Y49612D01*
X136990Y49945D01*
X135991D01*
X136990Y50278D02*
X135991D01*
X136324Y50612D01*
X135991Y50945D01*
X136990D01*
X137157Y51278D02*
Y51944D01*
X135991Y52278D02*
Y52611D01*
Y52444D01*
X136990D01*
Y52278D01*
Y52611D01*
X137157Y53111D02*
Y53777D01*
X136157Y54777D02*
X135991Y54610D01*
Y54277D01*
X136157Y54110D01*
X136824D01*
X136990Y54277D01*
Y54610D01*
X136824Y54777D01*
X136491D01*
Y54444D01*
X137157Y55110D02*
Y55777D01*
X135991Y56110D02*
X136657D01*
X136990Y56443D01*
X136657Y56776D01*
X135991D01*
X112754Y58187D02*
Y57654D01*
X113021Y57387D01*
X113287Y57654D01*
Y58187D01*
X113554Y57254D02*
X114087D01*
X114353Y57387D02*
Y58187D01*
X114753D01*
X114887Y58054D01*
Y57787D01*
X114753Y57654D01*
X114353D01*
X114620D02*
X114887Y57387D01*
X115686Y58187D02*
X115153D01*
Y57387D01*
X115686D01*
X115153Y57787D02*
X115420D01*
X116486Y58187D02*
X115953D01*
Y57787D01*
X116220D01*
X115953D01*
Y57387D01*
X54218Y11836D02*
X55654Y10400D01*
X47033Y19739D02*
X48470Y18302D01*
X48470Y19739D02*
X47033Y18302D01*
X148771Y20654D02*
Y21320D01*
X148438Y20987D02*
X149104D01*
X148271Y22320D02*
Y21654D01*
X148771D01*
X148605Y21987D01*
Y22154D01*
X148771Y22320D01*
X149104D01*
X149271Y22154D01*
Y21820D01*
X149104Y21654D01*
X148271Y22653D02*
X148938D01*
X149271Y22987D01*
X148938Y23320D01*
X148271D01*
X148438Y25319D02*
X148271Y25153D01*
Y24819D01*
X148438Y24653D01*
X149104D01*
X149271Y24819D01*
Y25153D01*
X149104Y25319D01*
X148771D01*
Y24986D01*
X149271Y25652D02*
X148271D01*
X149271Y26319D01*
X148271D01*
Y26652D02*
X149271D01*
Y27152D01*
X149104Y27319D01*
X148438D01*
X148271Y27152D01*
Y26652D01*
X17379Y879D02*
X17912D01*
X18978Y479D02*
Y1012D01*
X19245Y1279D01*
X19512Y1012D01*
Y479D01*
Y879D01*
X18978D01*
X20311Y1145D02*
X20178Y1279D01*
X19912D01*
X19778Y1145D01*
Y612D01*
X19912Y479D01*
X20178D01*
X20311Y612D01*
X21378Y479D02*
Y1012D01*
X21644Y1279D01*
X21911Y1012D01*
Y479D01*
Y879D01*
X21378D01*
X22711Y1145D02*
X22577Y1279D01*
X22311D01*
X22177Y1145D01*
Y612D01*
X22311Y479D01*
X22577D01*
X22711Y612D01*
X23777Y879D02*
X24310D01*
X24044Y1145D02*
Y612D01*
X1440Y50946D02*
X1973D01*
X2240Y50679D01*
X1973Y50413D01*
X1440D01*
X1840D01*
Y50946D01*
X2107Y49613D02*
X2240Y49746D01*
Y50013D01*
X2107Y50146D01*
X1573D01*
X1440Y50013D01*
Y49746D01*
X1573Y49613D01*
X1307Y49347D02*
Y48813D01*
X2240Y48547D02*
Y48280D01*
Y48413D01*
X1440D01*
Y48547D01*
Y48280D01*
Y47880D02*
X2240D01*
X1440Y47347D01*
X2240D01*
X118679Y58162D02*
X118946D01*
X118812D01*
Y57362D01*
X118679D01*
X118946D01*
X119345Y57229D02*
X119879D01*
X120678Y58029D02*
X120545Y58162D01*
X120278D01*
X120145Y58029D01*
Y57895D01*
X120278Y57762D01*
X120545D01*
X120678Y57629D01*
Y57496D01*
X120545Y57362D01*
X120278D01*
X120145Y57496D01*
X121478Y58162D02*
X120945D01*
Y57362D01*
X121478D01*
X120945Y57762D02*
X121212D01*
X121745Y58162D02*
X122278D01*
X122011D01*
Y57362D01*
X124308Y58162D02*
Y57629D01*
X124575Y57362D01*
X124841Y57629D01*
Y58162D01*
X125108Y57229D02*
X125641D01*
X126441Y58029D02*
X126308Y58162D01*
X126041D01*
X125908Y58029D01*
Y57895D01*
X126041Y57762D01*
X126308D01*
X126441Y57629D01*
Y57496D01*
X126308Y57362D01*
X126041D01*
X125908Y57496D01*
X127241Y58162D02*
X126707D01*
Y57362D01*
X127241D01*
X126707Y57762D02*
X126974D01*
X127507Y58162D02*
X128040D01*
X127774D01*
Y57362D01*
X148346Y41329D02*
X149013D01*
X149346Y41662D01*
X149013Y41995D01*
X148346D01*
X148513Y42995D02*
X148346Y42829D01*
Y42495D01*
X148513Y42329D01*
X149179D01*
X149346Y42495D01*
Y42829D01*
X149179Y42995D01*
X148513Y43995D02*
X148346Y43828D01*
Y43495D01*
X148513Y43328D01*
X149179D01*
X149346Y43495D01*
Y43828D01*
X149179Y43995D01*
X148513Y45994D02*
X148346Y45828D01*
Y45494D01*
X148513Y45328D01*
X149179D01*
X149346Y45494D01*
Y45828D01*
X149179Y45994D01*
X148846D01*
Y45661D01*
X149346Y46327D02*
X148346D01*
X149346Y46994D01*
X148346D01*
Y47327D02*
X149346D01*
Y47827D01*
X149179Y47994D01*
X148513D01*
X148346Y47827D01*
Y47327D01*
X148346Y32054D02*
X149013D01*
X149346Y32387D01*
X149013Y32720D01*
X148346D01*
X148513Y33720D02*
X148346Y33554D01*
Y33220D01*
X148513Y33054D01*
X149179D01*
X149346Y33220D01*
Y33554D01*
X149179Y33720D01*
X148513Y34720D02*
X148346Y34553D01*
Y34220D01*
X148513Y34053D01*
X149179D01*
X149346Y34220D01*
Y34553D01*
X149179Y34720D01*
X148513Y36719D02*
X148346Y36553D01*
Y36219D01*
X148513Y36053D01*
X149179D01*
X149346Y36219D01*
Y36553D01*
X149179Y36719D01*
X148846D01*
Y36386D01*
X149346Y37052D02*
X148346D01*
X149346Y37719D01*
X148346D01*
Y38052D02*
X149346D01*
Y38552D01*
X149179Y38719D01*
X148513D01*
X148346Y38552D01*
Y38052D01*
X46192Y59025D02*
X46725D01*
X46459D01*
Y58225D01*
X46992D02*
Y59025D01*
X47392D01*
X47525Y58892D01*
Y58625D01*
X47392Y58492D01*
X46992D01*
X47791Y58225D02*
X48058D01*
X47925D01*
Y59025D01*
X47791Y58892D01*
X61232Y57445D02*
X62247D01*
X61740D01*
Y55921D01*
X62755D02*
X63263D01*
X63009D01*
Y57445D01*
X62755Y57191D01*
X38684Y3593D02*
Y3782D01*
X38495Y3970D01*
X38307Y3970D01*
X37930Y3593D01*
Y3405D01*
X38118Y3216D01*
X38307Y3216D01*
X38401Y2934D02*
X38589Y2745D01*
X38495Y2839D01*
X39061Y3405D01*
X38872Y3405D01*
X39815Y2651D02*
X39532Y2745D01*
X39155D01*
X38966Y2557D01*
Y2368D01*
X39155Y2180D01*
X39343Y2180D01*
X39438Y2274D01*
Y2462D01*
X39155Y2745D01*
X136359Y11600D02*
Y12400D01*
X136758D01*
X136892Y12267D01*
Y12000D01*
X136758Y11867D01*
X136359D01*
X136625D02*
X136892Y11600D01*
X137158D02*
X137425D01*
X137292D01*
Y12400D01*
X137158Y12267D01*
X138358Y12400D02*
X138091Y12267D01*
X137825Y12000D01*
Y11733D01*
X137958Y11600D01*
X138225D01*
X138358Y11733D01*
Y11867D01*
X138225Y12000D01*
X137825D01*
X127009Y11600D02*
Y12400D01*
X127409D01*
X127543Y12267D01*
Y12000D01*
X127409Y11867D01*
X127009D01*
X127276D02*
X127543Y11600D01*
X127809D02*
X128076D01*
X127942D01*
Y12400D01*
X127809Y12267D01*
X129009Y12400D02*
X128476D01*
Y12000D01*
X128742Y12133D01*
X128875D01*
X129009Y12000D01*
Y11733D01*
X128875Y11600D01*
X128609D01*
X128476Y11733D01*
X52875Y41975D02*
Y42775D01*
X53275D01*
X53408Y42642D01*
Y42375D01*
X53275Y42242D01*
X52875D01*
X53142D02*
X53408Y41975D01*
X53675D02*
X53942D01*
X53808D01*
Y42775D01*
X53675Y42642D01*
X54741Y41975D02*
Y42775D01*
X54342Y42375D01*
X54875D01*
X139567Y18425D02*
X139300D01*
X139433D01*
Y17758D01*
X139300Y17625D01*
X139167D01*
X139034Y17758D01*
X140366Y18425D02*
X139833D01*
Y18025D01*
X140100Y18158D01*
X140233D01*
X140366Y18025D01*
Y17758D01*
X140233Y17625D01*
X139967D01*
X139833Y17758D01*
X52309Y58077D02*
Y57544D01*
X52576Y57277D01*
X52842Y57544D01*
Y58077D01*
X53109D02*
X53642D01*
X53375D01*
Y57277D01*
X53908D02*
X54175D01*
X54042D01*
Y58077D01*
X53908Y57944D01*
X8992Y57550D02*
Y56883D01*
X9125Y56750D01*
X9392D01*
X9525Y56883D01*
Y57550D01*
X9792Y56750D02*
X10058D01*
X9925D01*
Y57550D01*
X9792Y57417D01*
X110709Y43600D02*
X111242D01*
X110975D01*
Y42800D01*
X111509D02*
Y43600D01*
X111908D01*
X112042Y43467D01*
Y43200D01*
X111908Y43067D01*
X111509D01*
X112841Y42800D02*
X112308D01*
X112841Y43333D01*
Y43467D01*
X112708Y43600D01*
X112442D01*
X112308Y43467D01*
X113108Y42933D02*
X113241Y42800D01*
X113508D01*
X113641Y42933D01*
Y43467D01*
X113508Y43600D01*
X113241D01*
X113108Y43467D01*
Y43333D01*
X113241Y43200D01*
X113641D01*
X38084Y58900D02*
X38617D01*
X38350D01*
Y58100D01*
X38884D02*
Y58900D01*
X39283D01*
X39417Y58767D01*
Y58500D01*
X39283Y58367D01*
X38884D01*
X40216Y58100D02*
X39683D01*
X40216Y58633D01*
Y58767D01*
X40083Y58900D01*
X39817D01*
X39683Y58767D01*
X40483D02*
X40616Y58900D01*
X40883D01*
X41016Y58767D01*
Y58633D01*
X40883Y58500D01*
X41016Y58367D01*
Y58233D01*
X40883Y58100D01*
X40616D01*
X40483Y58233D01*
Y58367D01*
X40616Y58500D01*
X40483Y58633D01*
Y58767D01*
X40616Y58500D02*
X40883D01*
X58659Y4836D02*
X59192D01*
X58925D01*
Y4037D01*
X59459D02*
Y4836D01*
X59858D01*
X59992Y4703D01*
Y4436D01*
X59858Y4303D01*
X59459D01*
X60791Y4037D02*
X60258D01*
X60791Y4570D01*
Y4703D01*
X60658Y4836D01*
X60392D01*
X60258Y4703D01*
X61058Y4836D02*
X61591D01*
Y4703D01*
X61058Y4170D01*
Y4037D01*
X33409Y56575D02*
X33942D01*
X33675D01*
Y55775D01*
X34209D02*
Y56575D01*
X34608D01*
X34742Y56442D01*
Y56175D01*
X34608Y56042D01*
X34209D01*
X35541Y55775D02*
X35008D01*
X35541Y56308D01*
Y56442D01*
X35408Y56575D01*
X35142D01*
X35008Y56442D01*
X36341Y56575D02*
X36075Y56442D01*
X35808Y56175D01*
Y55908D01*
X35941Y55775D01*
X36208D01*
X36341Y55908D01*
Y56042D01*
X36208Y56175D01*
X35808D01*
X111086Y1225D02*
Y2025D01*
X111486D01*
X111619Y1892D01*
Y1625D01*
X111486Y1492D01*
X111086D01*
X111353D02*
X111619Y1225D01*
X112419Y1892D02*
X112286Y2025D01*
X112019D01*
X111886Y1892D01*
Y1358D01*
X112019Y1225D01*
X112286D01*
X112419Y1358D01*
Y1625D01*
X112152D01*
X112685Y1225D02*
X112952D01*
X112819D01*
Y2025D01*
X112685Y1892D01*
X94309Y9601D02*
Y10401D01*
X94708D01*
X94842Y10268D01*
Y10001D01*
X94708Y9868D01*
X94309D01*
X95641Y9601D02*
X95108D01*
X95641Y10134D01*
Y10268D01*
X95508Y10401D01*
X95242D01*
X95108Y10268D01*
X60542Y7050D02*
Y6250D01*
Y6517D01*
X61075Y7050D01*
X60675Y6650D01*
X61075Y6250D01*
X61342D02*
X61608D01*
X61475D01*
Y7050D01*
X61342Y6917D01*
X104334Y50075D02*
Y49275D01*
X104733D01*
X104867Y49408D01*
Y49942D01*
X104733Y50075D01*
X104334D01*
X105666D02*
X105400Y49942D01*
X105133Y49675D01*
Y49408D01*
X105267Y49275D01*
X105533D01*
X105666Y49408D01*
Y49542D01*
X105533Y49675D01*
X105133D01*
X136367Y23788D02*
X136233Y23921D01*
X135967D01*
X135834Y23788D01*
Y23255D01*
X135967Y23121D01*
X136233D01*
X136367Y23255D01*
X137166Y23121D02*
X136633D01*
X137166Y23655D01*
Y23788D01*
X137033Y23921D01*
X136767D01*
X136633Y23788D01*
X137833Y23121D02*
Y23921D01*
X137433Y23521D01*
X137966D01*
X27506Y18975D02*
Y18442D01*
X27773Y18175D01*
X28039Y18442D01*
Y18975D01*
X28306D02*
Y18175D01*
X28706D01*
X28839Y18308D01*
Y18842D01*
X28706Y18975D01*
X28306D01*
X29106Y18175D02*
X29372D01*
X29239D01*
Y18975D01*
X29106Y18842D01*
X29772D02*
X29905Y18975D01*
X30172D01*
X30305Y18842D01*
Y18708D01*
X30172Y18575D01*
X30305Y18442D01*
Y18308D01*
X30172Y18175D01*
X29905D01*
X29772Y18308D01*
Y18442D01*
X29905Y18575D01*
X29772Y18708D01*
Y18842D01*
X29905Y18575D02*
X30172D01*
X131911Y35773D02*
X132444D01*
X132177D01*
Y34974D01*
X132711D02*
Y35773D01*
X133110D01*
X133244Y35640D01*
Y35373D01*
X133110Y35240D01*
X132711D01*
X134043Y34974D02*
X133510D01*
X134043Y35507D01*
Y35640D01*
X133910Y35773D01*
X133644D01*
X133510Y35640D01*
X134843Y35773D02*
X134310D01*
Y35373D01*
X134577Y35507D01*
X134710D01*
X134843Y35373D01*
Y35107D01*
X134710Y34974D01*
X134443D01*
X134310Y35107D01*
X113484Y32516D02*
X114017D01*
X113750D01*
Y31716D01*
X114284D02*
Y32516D01*
X114683D01*
X114817Y32383D01*
Y32116D01*
X114683Y31983D01*
X114284D01*
X115616Y31716D02*
X115083D01*
X115616Y32249D01*
Y32383D01*
X115483Y32516D01*
X115217D01*
X115083Y32383D01*
X116283Y31716D02*
Y32516D01*
X115883Y32116D01*
X116416D01*
X132284Y26706D02*
X132817D01*
X132550D01*
Y25906D01*
X133084D02*
Y26706D01*
X133483D01*
X133617Y26573D01*
Y26306D01*
X133483Y26173D01*
X133084D01*
X134416Y25906D02*
X133883D01*
X134416Y26439D01*
Y26573D01*
X134283Y26706D01*
X134017D01*
X133883Y26573D01*
X134683D02*
X134816Y26706D01*
X135083D01*
X135216Y26573D01*
Y26439D01*
X135083Y26306D01*
X134950D01*
X135083D01*
X135216Y26173D01*
Y26039D01*
X135083Y25906D01*
X134816D01*
X134683Y26039D01*
X113423Y27050D02*
X113956D01*
X113690D01*
Y26250D01*
X114223D02*
Y27050D01*
X114623D01*
X114756Y26917D01*
Y26650D01*
X114623Y26517D01*
X114223D01*
X115556Y26250D02*
X115022D01*
X115556Y26783D01*
Y26917D01*
X115422Y27050D01*
X115156D01*
X115022Y26917D01*
X116355Y26250D02*
X115822D01*
X116355Y26783D01*
Y26917D01*
X116222Y27050D01*
X115955D01*
X115822Y26917D01*
X135270Y43944D02*
X135803D01*
X135537D01*
Y43144D01*
X136070D02*
Y43944D01*
X136470D01*
X136603Y43811D01*
Y43544D01*
X136470Y43411D01*
X136070D01*
X137403Y43144D02*
X136869D01*
X137403Y43677D01*
Y43811D01*
X137269Y43944D01*
X137003D01*
X136869Y43811D01*
X137669Y43144D02*
X137936D01*
X137803D01*
Y43944D01*
X137669Y43811D01*
X108209Y42172D02*
X108742D01*
X108475D01*
Y41372D01*
X109009D02*
Y42172D01*
X109408D01*
X109542Y42038D01*
Y41772D01*
X109408Y41639D01*
X109009D01*
X110341Y41372D02*
X109808D01*
X110341Y41905D01*
Y42038D01*
X110208Y42172D01*
X109942D01*
X109808Y42038D01*
X110608D02*
X110741Y42172D01*
X111008D01*
X111141Y42038D01*
Y41505D01*
X111008Y41372D01*
X110741D01*
X110608Y41505D01*
Y42038D01*
X142162Y17000D02*
X142695D01*
X142428D01*
Y16200D01*
X142961D02*
Y17000D01*
X143361D01*
X143495Y16867D01*
Y16600D01*
X143361Y16467D01*
X142961D01*
X143761Y16200D02*
X144028D01*
X143894D01*
Y17000D01*
X143761Y16867D01*
X144428Y16333D02*
X144561Y16200D01*
X144828D01*
X144961Y16333D01*
Y16867D01*
X144828Y17000D01*
X144561D01*
X144428Y16867D01*
Y16733D01*
X144561Y16600D01*
X144961D01*
X113525Y29928D02*
X114059D01*
X113792D01*
Y29128D01*
X114325D02*
Y29928D01*
X114725D01*
X114858Y29794D01*
Y29528D01*
X114725Y29395D01*
X114325D01*
X115125Y29128D02*
X115392D01*
X115258D01*
Y29928D01*
X115125Y29794D01*
X115791D02*
X115925Y29928D01*
X116191D01*
X116325Y29794D01*
Y29661D01*
X116191Y29528D01*
X116325Y29395D01*
Y29261D01*
X116191Y29128D01*
X115925D01*
X115791Y29261D01*
Y29395D01*
X115925Y29528D01*
X115791Y29661D01*
Y29794D01*
X115925Y29528D02*
X116191D01*
X119351Y45675D02*
Y46475D01*
X119751D01*
X119884Y46342D01*
Y46075D01*
X119751Y45942D01*
X119351D01*
X119617D02*
X119884Y45675D01*
X120150Y46342D02*
X120284Y46475D01*
X120550D01*
X120684Y46342D01*
Y46208D01*
X120550Y46075D01*
X120417D01*
X120550D01*
X120684Y45942D01*
Y45808D01*
X120550Y45675D01*
X120284D01*
X120150Y45808D01*
X120950Y46342D02*
X121083Y46475D01*
X121350D01*
X121483Y46342D01*
Y45808D01*
X121350Y45675D01*
X121083D01*
X120950Y45808D01*
Y46342D01*
X124319Y45600D02*
Y46400D01*
X124719D01*
X124852Y46267D01*
Y46000D01*
X124719Y45867D01*
X124319D01*
X124585D02*
X124852Y45600D01*
X125652D02*
X125118D01*
X125652Y46133D01*
Y46267D01*
X125518Y46400D01*
X125252D01*
X125118Y46267D01*
X125918Y45733D02*
X126051Y45600D01*
X126318D01*
X126451Y45733D01*
Y46267D01*
X126318Y46400D01*
X126051D01*
X125918Y46267D01*
Y46133D01*
X126051Y46000D01*
X126451D01*
X129267Y47425D02*
Y48225D01*
X129667D01*
X129800Y48092D01*
Y47825D01*
X129667Y47692D01*
X129267D01*
X130067Y47425D02*
X130333D01*
X130200D01*
Y48225D01*
X130067Y48092D01*
X73618Y17192D02*
X73485Y17325D01*
X73218D01*
X73085Y17192D01*
Y16658D01*
X73218Y16525D01*
X73485D01*
X73618Y16658D01*
X73884D02*
X74018Y16525D01*
X74284D01*
X74418Y16658D01*
Y17192D01*
X74284Y17325D01*
X74018D01*
X73884Y17192D01*
Y17058D01*
X74018Y16925D01*
X74418D01*
X31783Y22017D02*
X31650Y22150D01*
X31384D01*
X31250Y22017D01*
Y21483D01*
X31384Y21350D01*
X31650D01*
X31783Y21483D01*
X32050Y21350D02*
X32317D01*
X32183D01*
Y22150D01*
X32050Y22017D01*
X32717D02*
X32850Y22150D01*
X33116D01*
X33250Y22017D01*
Y21883D01*
X33116Y21750D01*
X32983D01*
X33116D01*
X33250Y21617D01*
Y21483D01*
X33116Y21350D01*
X32850D01*
X32717Y21483D01*
X33667Y1725D02*
Y2525D01*
X34067D01*
X34200Y2392D01*
Y2125D01*
X34067Y1992D01*
X33667D01*
X33934D02*
X34200Y1725D01*
X34467Y2525D02*
X35000D01*
X34733D01*
Y1725D01*
X35266D02*
X35533D01*
X35400D01*
Y2525D01*
X35266Y2392D01*
X116833Y25117D02*
X116700Y25250D01*
X116433D01*
X116300Y25117D01*
Y24583D01*
X116433Y24450D01*
X116700D01*
X116833Y24583D01*
X117100Y24450D02*
X117366D01*
X117233D01*
Y25250D01*
X117100Y25117D01*
X117766Y25250D02*
X118299D01*
Y25117D01*
X117766Y24583D01*
Y24450D01*
X137592Y38275D02*
X137325D01*
X137458D01*
Y37608D01*
X137325Y37475D01*
X137192D01*
X137059Y37608D01*
X138258Y37475D02*
Y38275D01*
X137858Y37875D01*
X138391D01*
X50109Y40874D02*
Y40341D01*
X50376Y40074D01*
X50642Y40341D01*
Y40874D01*
X50909D02*
Y40074D01*
X51309D01*
X51442Y40207D01*
Y40740D01*
X51309Y40874D01*
X50909D01*
X52108Y40074D02*
Y40874D01*
X51708Y40474D01*
X52242D01*
X23813Y18925D02*
Y18392D01*
X24080Y18125D01*
X24346Y18392D01*
Y18925D01*
X24613D02*
Y18125D01*
X25013D01*
X25146Y18258D01*
Y18792D01*
X25013Y18925D01*
X24613D01*
X25946Y18125D02*
X25413D01*
X25946Y18658D01*
Y18792D01*
X25812Y18925D01*
X25546D01*
X25413Y18792D01*
X105134Y58750D02*
Y58217D01*
X105401Y57950D01*
X105667Y58217D01*
Y58750D01*
X105934D02*
Y57950D01*
X106334D01*
X106467Y58083D01*
Y58617D01*
X106334Y58750D01*
X105934D01*
X106734Y57950D02*
X107000D01*
X106867D01*
Y58750D01*
X106734Y58617D01*
X107800Y57950D02*
Y58750D01*
X107400Y58350D01*
X107933D01*
X147949Y13900D02*
X148482D01*
X148749Y14167D01*
X148482Y14434D01*
X147949D01*
Y14700D02*
X148749D01*
Y15100D01*
X148616Y15233D01*
X148082D01*
X147949Y15100D01*
Y14700D01*
X148749Y15500D02*
Y15767D01*
Y15633D01*
X147949D01*
X148082Y15500D01*
Y16166D02*
X147949Y16300D01*
Y16566D01*
X148082Y16700D01*
X148616D01*
X148749Y16566D01*
Y16300D01*
X148616Y16166D01*
X148082D01*
X115209Y12075D02*
Y11275D01*
X115742D01*
X116541D02*
X116008D01*
X116541Y11808D01*
Y11942D01*
X116408Y12075D01*
X116142D01*
X116008Y11942D01*
X100543Y16567D02*
X100409Y16700D01*
X100143D01*
X100009Y16567D01*
Y16033D01*
X100143Y15900D01*
X100409D01*
X100543Y16033D01*
X100809Y15900D02*
X101076D01*
X100943D01*
Y16700D01*
X100809Y16567D01*
X101476Y15900D02*
X101742D01*
X101609D01*
Y16700D01*
X101476Y16567D01*
X98825Y58925D02*
X99359D01*
X99092D01*
Y58125D01*
X99625D02*
Y58925D01*
X100025D01*
X100158Y58792D01*
Y58525D01*
X100025Y58392D01*
X99625D01*
X100425Y58125D02*
X100692D01*
X100558D01*
Y58925D01*
X100425Y58792D01*
X101091Y58925D02*
X101625D01*
Y58792D01*
X101091Y58258D01*
Y58125D01*
X141150Y11500D02*
X141684D01*
X141417D01*
Y10700D01*
X141950D02*
Y11500D01*
X142350D01*
X142483Y11367D01*
Y11100D01*
X142350Y10967D01*
X141950D01*
X142750Y10700D02*
X143017D01*
X142883D01*
Y11500D01*
X142750Y11367D01*
X143950Y11500D02*
X143683Y11367D01*
X143416Y11100D01*
Y10833D01*
X143550Y10700D01*
X143816D01*
X143950Y10833D01*
Y10967D01*
X143816Y11100D01*
X143416D01*
X113600Y37535D02*
X114134D01*
X113867D01*
Y36735D01*
X114400D02*
Y37535D01*
X114800D01*
X114933Y37402D01*
Y37135D01*
X114800Y37002D01*
X114400D01*
X115200Y36735D02*
X115467D01*
X115333D01*
Y37535D01*
X115200Y37402D01*
X116400Y37535D02*
X115866D01*
Y37135D01*
X116133Y37268D01*
X116266D01*
X116400Y37135D01*
Y36868D01*
X116266Y36735D01*
X116000D01*
X115866Y36868D01*
X132073Y29799D02*
X132606D01*
X132339D01*
Y29000D01*
X132872D02*
Y29799D01*
X133272D01*
X133406Y29666D01*
Y29399D01*
X133272Y29266D01*
X132872D01*
X133672Y29000D02*
X133939D01*
X133805D01*
Y29799D01*
X133672Y29666D01*
X134339D02*
X134472Y29799D01*
X134738D01*
X134872Y29666D01*
Y29533D01*
X134738Y29399D01*
X134605D01*
X134738D01*
X134872Y29266D01*
Y29133D01*
X134738Y29000D01*
X134472D01*
X134339Y29133D01*
X132030Y32791D02*
X132563D01*
X132297D01*
Y31991D01*
X132830D02*
Y32791D01*
X133230D01*
X133363Y32657D01*
Y32391D01*
X133230Y32258D01*
X132830D01*
X133630Y31991D02*
X133896D01*
X133763D01*
Y32791D01*
X133630Y32657D01*
X134829Y31991D02*
X134296D01*
X134829Y32524D01*
Y32657D01*
X134696Y32791D01*
X134429D01*
X134296Y32657D01*
X45884Y28981D02*
X46417D01*
X46150D01*
Y28181D01*
X46683D02*
Y28981D01*
X47083D01*
X47217Y28848D01*
Y28581D01*
X47083Y28448D01*
X46683D01*
X47483Y28181D02*
X47750D01*
X47617D01*
Y28981D01*
X47483Y28848D01*
X48150Y28181D02*
X48416D01*
X48283D01*
Y28981D01*
X48150Y28848D01*
X41262Y35450D02*
X41796D01*
X41529D01*
Y34650D01*
X42062D02*
Y35450D01*
X42462D01*
X42595Y35317D01*
Y35050D01*
X42462Y34917D01*
X42062D01*
X42862Y34650D02*
X43129D01*
X42995D01*
Y35450D01*
X42862Y35317D01*
X43528D02*
X43662Y35450D01*
X43928D01*
X44062Y35317D01*
Y34783D01*
X43928Y34650D01*
X43662D01*
X43528Y34783D01*
Y35317D01*
X64459Y56871D02*
X64992D01*
X64725D01*
Y56071D01*
X65258D02*
Y56871D01*
X65658D01*
X65792Y56737D01*
Y56471D01*
X65658Y56338D01*
X65258D01*
X66058Y56204D02*
X66191Y56071D01*
X66458D01*
X66591Y56204D01*
Y56737D01*
X66458Y56871D01*
X66191D01*
X66058Y56737D01*
Y56604D01*
X66191Y56471D01*
X66591D01*
X46159Y40750D02*
X46692D01*
X46425D01*
Y39950D01*
X46958D02*
Y40750D01*
X47358D01*
X47492Y40617D01*
Y40350D01*
X47358Y40217D01*
X46958D01*
X47758Y40617D02*
X47891Y40750D01*
X48158D01*
X48291Y40617D01*
Y40483D01*
X48158Y40350D01*
X48291Y40217D01*
Y40083D01*
X48158Y39950D01*
X47891D01*
X47758Y40083D01*
Y40217D01*
X47891Y40350D01*
X47758Y40483D01*
Y40617D01*
X47891Y40350D02*
X48158D01*
X42559Y43800D02*
X43092D01*
X42825D01*
Y43000D01*
X43358D02*
Y43800D01*
X43758D01*
X43892Y43666D01*
Y43400D01*
X43758Y43266D01*
X43358D01*
X44158Y43800D02*
X44691D01*
Y43666D01*
X44158Y43133D01*
Y43000D01*
X68134Y16357D02*
X68667D01*
X68400D01*
Y15557D01*
X68933D02*
Y16357D01*
X69333D01*
X69467Y16224D01*
Y15957D01*
X69333Y15824D01*
X68933D01*
X70266Y16357D02*
X70000Y16224D01*
X69733Y15957D01*
Y15691D01*
X69866Y15557D01*
X70133D01*
X70266Y15691D01*
Y15824D01*
X70133Y15957D01*
X69733D01*
X29134Y58475D02*
X29667D01*
X29400D01*
Y57675D01*
X29933D02*
Y58475D01*
X30333D01*
X30467Y58342D01*
Y58075D01*
X30333Y57942D01*
X29933D01*
X31266Y58475D02*
X30733D01*
Y58075D01*
X31000Y58208D01*
X31133D01*
X31266Y58075D01*
Y57808D01*
X31133Y57675D01*
X30866D01*
X30733Y57808D01*
X7734Y50925D02*
X8267D01*
X8000D01*
Y50125D01*
X8533D02*
Y50925D01*
X8933D01*
X9067Y50792D01*
Y50525D01*
X8933Y50392D01*
X8533D01*
X9733Y50125D02*
Y50925D01*
X9333Y50525D01*
X9866D01*
X71934Y59427D02*
X72467D01*
X72200D01*
Y58627D01*
X72733D02*
Y59427D01*
X73133D01*
X73267Y59293D01*
Y59027D01*
X73133Y58893D01*
X72733D01*
X73533Y59293D02*
X73666Y59427D01*
X73933D01*
X74066Y59293D01*
Y59160D01*
X73933Y59027D01*
X73800D01*
X73933D01*
X74066Y58893D01*
Y58760D01*
X73933Y58627D01*
X73666D01*
X73533Y58760D01*
X23359Y56450D02*
X23892D01*
X23625D01*
Y55650D01*
X24158D02*
Y56450D01*
X24558D01*
X24692Y56317D01*
Y56050D01*
X24558Y55917D01*
X24158D01*
X25491Y55650D02*
X24958D01*
X25491Y56183D01*
Y56317D01*
X25358Y56450D01*
X25091D01*
X24958Y56317D01*
X114214Y45675D02*
Y46475D01*
X114614D01*
X114747Y46342D01*
Y46075D01*
X114614Y45942D01*
X114214D01*
X114480D02*
X114747Y45675D01*
X115547D02*
X115013D01*
X115547Y46208D01*
Y46342D01*
X115413Y46475D01*
X115147D01*
X115013Y46342D01*
X115813D02*
X115946Y46475D01*
X116213D01*
X116346Y46342D01*
Y45808D01*
X116213Y45675D01*
X115946D01*
X115813Y45808D01*
Y46342D01*
X142692Y51375D02*
X142425D01*
X142558D01*
Y50708D01*
X142425Y50575D01*
X142292D01*
X142159Y50708D01*
X143491Y50575D02*
X142958D01*
X143491Y51108D01*
Y51242D01*
X143358Y51375D01*
X143092D01*
X142958Y51242D01*
X5200Y48200D02*
X4933D01*
X5067D01*
Y47533D01*
X4933Y47400D01*
X4800D01*
X4667Y47533D01*
X5467Y47400D02*
X5733D01*
X5600D01*
Y48200D01*
X5467Y48067D01*
X1925Y35350D02*
X1392D01*
Y34950D01*
X1658D01*
X1392D01*
Y34550D01*
X2192D02*
X2458D01*
X2325D01*
Y35350D01*
X2192Y35217D01*
X87106Y58870D02*
Y58070D01*
X87506D01*
X87640Y58203D01*
Y58737D01*
X87506Y58870D01*
X87106D01*
X87906Y58070D02*
Y58603D01*
X88173Y58870D01*
X88439Y58603D01*
Y58070D01*
Y58470D01*
X87906D01*
X88706Y58070D02*
X88972D01*
X88839D01*
Y58870D01*
X88706Y58737D01*
X108677Y28592D02*
Y27792D01*
X109076D01*
X109210Y27925D01*
Y28459D01*
X109076Y28592D01*
X108677D01*
X110009Y27792D02*
X109476D01*
X110009Y28325D01*
Y28459D01*
X109876Y28592D01*
X109610D01*
X109476Y28459D01*
X7167Y8775D02*
Y7975D01*
X7567D01*
X7700Y8108D01*
Y8642D01*
X7567Y8775D01*
X7167D01*
X7967Y7975D02*
X8233D01*
X8100D01*
Y8775D01*
X7967Y8642D01*
X29858Y14361D02*
X29725Y14228D01*
Y13962D01*
X29858Y13828D01*
X30392D01*
X30525Y13962D01*
Y14228D01*
X30392Y14361D01*
X30525Y14628D02*
Y14895D01*
Y14761D01*
X29725D01*
X29858Y14628D01*
X29725Y15828D02*
Y15294D01*
X30125D01*
X29992Y15561D01*
Y15694D01*
X30125Y15828D01*
X30392D01*
X30525Y15694D01*
Y15428D01*
X30392Y15294D01*
X24717Y43833D02*
X24850Y43967D01*
Y44233D01*
X24717Y44366D01*
X24183D01*
X24050Y44233D01*
Y43967D01*
X24183Y43833D01*
X24850Y43034D02*
Y43567D01*
X24450D01*
X24583Y43300D01*
Y43167D01*
X24450Y43034D01*
X24183D01*
X24050Y43167D01*
Y43433D01*
X24183Y43567D01*
X1642Y9092D02*
X1508Y9225D01*
X1242D01*
X1109Y9092D01*
Y8558D01*
X1242Y8425D01*
X1508D01*
X1642Y8558D01*
X2308Y8425D02*
Y9225D01*
X1908Y8825D01*
X2441D01*
X34875Y44017D02*
X34742Y44150D01*
X34475D01*
X34342Y44017D01*
Y43483D01*
X34475Y43350D01*
X34742D01*
X34875Y43483D01*
X35142Y43350D02*
X35408D01*
X35275D01*
Y44150D01*
X35142Y44017D01*
D106*
X81050Y7175D02*
D03*
D136*
X115401Y18850D02*
G03*
X115401Y18850I-6500J0D01*
G01*
X129075D02*
G03*
X129075Y18850I-6500J0D01*
G01*
X36428Y49967D02*
G03*
X36428Y49967I-6500J0D01*
G01*
X44000Y27500D02*
G03*
X44000Y27500I-6500J0D01*
G01*
D137*
X147200Y55000D02*
G03*
X147200Y55000I-2200J0D01*
G01*
Y5000D02*
G03*
X147200Y5000I-2200J0D01*
G01*
X7200D02*
G03*
X7200Y5000I-2200J0D01*
G01*
Y55000D02*
G03*
X7200Y55000I-2200J0D01*
G01*
D138*
X132950Y1075D02*
X138750D01*
X132950Y10950D02*
X138750D01*
X132950Y1075D02*
Y10950D01*
X138750Y1075D02*
Y10950D01*
X126600Y1075D02*
X132400D01*
X126600Y10950D02*
X132400D01*
X126600Y1075D02*
Y10950D01*
X132400Y1075D02*
Y10950D01*
X59975Y25400D02*
Y41425D01*
X54100Y25400D02*
Y41425D01*
X59975D01*
X54100Y25400D02*
X59975D01*
D139*
X111151Y17225D02*
X111651D01*
X111401Y16975D02*
Y17475D01*
X120950Y16100D02*
Y16600D01*
X120700Y16350D02*
X121200D01*
X31303Y52467D02*
X31803D01*
X31553Y52217D02*
Y52717D01*
X38875Y30000D02*
X39375D01*
X39125Y29750D02*
Y30250D01*
D140*
X62268Y13677D02*
X91732D01*
X62268Y723D02*
X91732D01*
X62268D02*
Y13677D01*
X91732Y723D02*
Y13677D01*
D141*
X105000Y33317D02*
D03*
D142*
X52999Y49435D02*
D03*
X106750Y7565D02*
D03*
D143*
X17640Y50702D02*
D03*
%TF.MD5,d299ed71d593b9eea597aa9430f5ba06*%
M02*
