%TF.GenerationSoftware,Altium Limited,Altium Designer,21.6.4 (81)*%
G04 Layer_Color=0*
%FSLAX43Y43*%
%MOMM*%
%TF.SameCoordinates,45A01B4D-518A-40F9-B883-98BDF5CD3DE6*%
%TF.FilePolarity,Positive*%
%TF.FileFunction,Other,Top_Designator*%
%TF.Part,Single*%
G01*
G75*
%TA.AperFunction,NonConductor*%
%ADD152C,0.150*%
D152*
X142475Y24200D02*
Y23700D01*
Y23950D01*
X143725D01*
X143975Y23700D01*
Y23450D01*
X143725Y23200D01*
X142475Y25700D02*
Y24700D01*
X143225D01*
X142975Y25200D01*
Y25450D01*
X143225Y25700D01*
X143725D01*
X143975Y25450D01*
Y24950D01*
X143725Y24700D01*
X96225Y3415D02*
X94725D01*
Y4165D01*
X94975Y4415D01*
X95475D01*
X95725Y4165D01*
Y3415D01*
X96225Y5915D02*
Y4915D01*
X95225Y5915D01*
X94975D01*
X94725Y5665D01*
Y5165D01*
X94975Y4915D01*
X142501Y33900D02*
Y33400D01*
Y33650D01*
X143750D01*
X144000Y33400D01*
Y33150D01*
X143750Y32900D01*
X144000Y35150D02*
X142501D01*
X143251Y34400D01*
Y35400D01*
X142501Y43925D02*
Y43425D01*
Y43675D01*
X143750D01*
X144000Y43425D01*
Y43175D01*
X143750Y42925D01*
X144000Y45425D02*
Y44425D01*
X143001Y45425D01*
X142751D01*
X142501Y45175D01*
Y44675D01*
X142751Y44425D01*
X121400Y5025D02*
Y6525D01*
X120400D01*
X118900D02*
X119900D01*
X118900Y5525D01*
Y5275D01*
X119150Y5025D01*
X119650D01*
X119900Y5275D01*
X6550Y40800D02*
Y41300D01*
Y41050D01*
X5300D01*
X5050Y41300D01*
Y41550D01*
X5300Y41800D01*
X5050Y40300D02*
Y39800D01*
Y40050D01*
X6550D01*
X6300Y40300D01*
%TF.MD5,af7e634bff6ce744c97d9a64b43d0e33*%
M02*
