%TF.GenerationSoftware,Altium Limited,Altium Designer,21.6.4 (81)*%
G04 Layer_Physical_Order=2*
G04 Layer_Color=16711680*
%FSLAX43Y43*%
%MOMM*%
%TF.SameCoordinates,45A01B4D-518A-40F9-B883-98BDF5CD3DE6*%
%TF.FilePolarity,Positive*%
%TF.FileFunction,Copper,L2,Bot,Signal*%
%TF.Part,Single*%
G01*
G75*
%TA.AperFunction,Conductor*%
%ADD15C,3.000*%
%ADD16C,0.800*%
%ADD17C,0.500*%
%ADD18C,1.500*%
%ADD19C,1.900*%
%ADD20C,2.000*%
%ADD21C,1.000*%
%ADD23C,4.000*%
%ADD25C,0.600*%
%ADD26C,0.700*%
%ADD29C,0.900*%
%TA.AperFunction,ComponentPad*%
%ADD39C,2.286*%
%ADD40C,4.500*%
%ADD41C,4.000*%
%ADD42O,4.000X3.600*%
%ADD43C,1.950*%
G04:AMPARAMS|DCode=44|XSize=1.95mm|YSize=1.95mm|CornerRadius=0.488mm|HoleSize=0mm|Usage=FLASHONLY|Rotation=90.000|XOffset=0mm|YOffset=0mm|HoleType=Round|Shape=RoundedRectangle|*
%AMROUNDEDRECTD44*
21,1,1.950,0.975,0,0,90.0*
21,1,0.975,1.950,0,0,90.0*
1,1,0.975,0.488,0.488*
1,1,0.975,0.488,-0.488*
1,1,0.975,-0.488,-0.488*
1,1,0.975,-0.488,0.488*
%
%ADD44ROUNDEDRECTD44*%
G04:AMPARAMS|DCode=45|XSize=1.5mm|YSize=1.5mm|CornerRadius=0.375mm|HoleSize=0mm|Usage=FLASHONLY|Rotation=90.000|XOffset=0mm|YOffset=0mm|HoleType=Round|Shape=RoundedRectangle|*
%AMROUNDEDRECTD45*
21,1,1.500,0.750,0,0,90.0*
21,1,0.750,1.500,0,0,90.0*
1,1,0.750,0.375,0.375*
1,1,0.750,0.375,-0.375*
1,1,0.750,-0.375,-0.375*
1,1,0.750,-0.375,0.375*
%
%ADD45ROUNDEDRECTD45*%
%ADD46C,1.500*%
%ADD47R,1.500X1.500*%
%ADD48C,2.500*%
%ADD49C,2.000*%
%ADD50C,3.500*%
%ADD51C,2.200*%
%ADD52R,2.200X2.200*%
%ADD53O,1.778X2.286*%
%ADD54C,3.302*%
%ADD55C,3.000*%
%ADD56O,1.778X2.032*%
%ADD57C,2.794*%
%ADD58O,2.286X1.778*%
%ADD59C,3.048*%
%ADD60R,3.048X3.048*%
%ADD61R,1.200X1.200*%
%ADD62C,1.200*%
%ADD63C,1.250*%
%ADD64R,1.250X1.250*%
%ADD65C,1.524*%
%TA.AperFunction,ViaPad*%
%ADD66C,0.800*%
%ADD67C,1.800*%
%ADD68C,1.270*%
%ADD69C,1.200*%
%TA.AperFunction,SMDPad,CuDef*%
%ADD70R,1.450X1.800*%
%ADD71R,2.000X2.300*%
%ADD72R,2.300X2.300*%
%ADD73R,0.800X1.250*%
%ADD74R,1.250X0.800*%
%ADD75R,0.800X0.900*%
%ADD76R,1.556X1.505*%
%ADD77R,0.700X1.000*%
%ADD78R,1.505X1.556*%
%ADD79R,0.600X1.500*%
%ADD80R,2.300X2.000*%
G04:AMPARAMS|DCode=81|XSize=1.874mm|YSize=0.543mm|CornerRadius=0.272mm|HoleSize=0mm|Usage=FLASHONLY|Rotation=180.000|XOffset=0mm|YOffset=0mm|HoleType=Round|Shape=RoundedRectangle|*
%AMROUNDEDRECTD81*
21,1,1.874,0.000,0,0,180.0*
21,1,1.331,0.543,0,0,180.0*
1,1,0.543,-0.665,0.000*
1,1,0.543,0.665,0.000*
1,1,0.543,0.665,0.000*
1,1,0.543,-0.665,0.000*
%
%ADD81ROUNDEDRECTD81*%
%ADD82R,1.874X0.543*%
%ADD83R,1.000X0.700*%
%ADD84R,1.207X1.508*%
G04:AMPARAMS|DCode=85|XSize=1.505mm|YSize=1.556mm|CornerRadius=0mm|HoleSize=0mm|Usage=FLASHONLY|Rotation=225.000|XOffset=0mm|YOffset=0mm|HoleType=Round|Shape=Rectangle|*
%AMROTATEDRECTD85*
4,1,4,-0.018,1.082,1.082,-0.018,0.018,-1.082,-1.082,0.018,-0.018,1.082,0.0*
%
%ADD85ROTATEDRECTD85*%

%TA.AperFunction,Conductor*%
%ADD86C,1.300*%
%ADD87C,0.300*%
%ADD88C,1.200*%
%ADD89C,4.200*%
%ADD90R,3.035X3.014*%
%ADD91R,3.296X3.106*%
%ADD92R,4.174X3.648*%
%ADD93R,2.090X3.300*%
%ADD94R,1.000X2.087*%
%ADD95R,0.780X1.556*%
%ADD96R,4.756X3.425*%
%ADD97R,2.254X2.207*%
%ADD98R,2.825X3.450*%
%ADD99R,6.545X2.625*%
%ADD100R,4.100X4.125*%
%ADD101R,4.925X2.809*%
G36*
X140011Y59491D02*
X140069Y59433D01*
X140011Y53655D01*
X143598Y50194D01*
X149646Y50194D01*
Y50100D01*
X149667D01*
Y10100D01*
X149554D01*
X149433Y9980D01*
X143624Y10038D01*
X140163Y6451D01*
X140163Y354D01*
Y333D01*
X91974D01*
X91941Y460D01*
X92059Y551D01*
X95223Y3715D01*
X95300D01*
X95542Y3780D01*
X95758Y3905D01*
X95935Y4082D01*
X96060Y4298D01*
X96125Y4540D01*
Y4790D01*
X96060Y5032D01*
X95935Y5248D01*
X95758Y5425D01*
X95542Y5550D01*
X95300Y5615D01*
X95050D01*
X94808Y5550D01*
X94592Y5425D01*
X94415Y5248D01*
X94290Y5032D01*
X94225Y4790D01*
Y4713D01*
X91268Y1756D01*
X89847D01*
X89822Y1883D01*
X89917Y1922D01*
X90199Y2111D01*
X90439Y2351D01*
X90628Y2633D01*
X90758Y2947D01*
X90824Y3280D01*
Y3620D01*
X90758Y3953D01*
X90628Y4267D01*
X90439Y4549D01*
X90199Y4789D01*
X89917Y4978D01*
X89603Y5108D01*
X89270Y5174D01*
X88930D01*
X88597Y5108D01*
X88283Y4978D01*
X88001Y4789D01*
X87761Y4549D01*
X87572Y4267D01*
X87442Y3953D01*
X87376Y3620D01*
Y3280D01*
X87442Y2947D01*
X87572Y2633D01*
X87761Y2351D01*
X88001Y2111D01*
X88283Y1922D01*
X88378Y1883D01*
X88353Y1756D01*
X85894D01*
Y6499D01*
X94330D01*
X94385Y6415D01*
X94576Y6288D01*
X94800Y6244D01*
X95550D01*
X95774Y6288D01*
X95965Y6415D01*
X96092Y6606D01*
X96136Y6830D01*
Y7580D01*
X96092Y7804D01*
X95965Y7995D01*
X95774Y8122D01*
X95550Y8166D01*
X94800D01*
X94576Y8122D01*
X94385Y7995D01*
X94330Y7911D01*
X85894D01*
Y13850D01*
X101951D01*
Y57660D01*
X104844D01*
X104934Y57570D01*
Y57548D01*
X104968Y57435D01*
Y57385D01*
X104862Y57314D01*
X104844Y57322D01*
X104606D01*
X104385Y57230D01*
X104305Y57150D01*
X104216Y57062D01*
X104125Y56841D01*
Y56602D01*
X104216Y56382D01*
X104385Y56213D01*
X104606Y56122D01*
X104844D01*
X104862Y56129D01*
X104874Y56122D01*
X104968D01*
Y55852D01*
X106168D01*
Y57435D01*
X106168Y57502D01*
X106134Y57615D01*
Y58149D01*
D01*
D01*
Y58149D01*
X106148Y58183D01*
X106172Y58366D01*
X106148Y58549D01*
X106134Y58583D01*
Y58583D01*
Y59198D01*
X104934D01*
Y59124D01*
Y59072D01*
X101951D01*
Y59667D01*
X140011D01*
Y59491D01*
D02*
G37*
G36*
X40026Y52561D02*
X39936Y52471D01*
X38946D01*
X38275Y51800D01*
Y49581D01*
X36450Y47756D01*
Y47225D01*
X32225D01*
X31424Y46424D01*
X31419Y46423D01*
X31237Y46317D01*
X31088Y46168D01*
X30982Y45986D01*
X30981Y45981D01*
X30347Y45347D01*
X27928D01*
Y47982D01*
X30596Y50650D01*
X36427D01*
X37150Y51373D01*
Y52570D01*
X38600Y54020D01*
X40025D01*
X40026Y52561D01*
D02*
G37*
G36*
X51799Y23124D02*
X49425Y20750D01*
X34500D01*
X30400Y16650D01*
X25850D01*
X16125Y6925D01*
X16125Y1900D01*
X9725D01*
Y9300D01*
X27825Y27400D01*
X40425Y27400D01*
X43239Y24586D01*
X48286D01*
X48900Y25200D01*
Y27700D01*
X51799D01*
Y23124D01*
D02*
G37*
%LPC*%
G36*
X108134Y59198D02*
X106934D01*
Y58432D01*
X106922Y58373D01*
Y58148D01*
X106934Y58088D01*
Y58028D01*
Y57548D01*
X106959D01*
Y57514D01*
X106968Y57502D01*
Y57195D01*
X106956Y57136D01*
Y56585D01*
X106968Y56526D01*
Y56466D01*
D01*
Y55852D01*
X108168D01*
Y55936D01*
Y55973D01*
X109200D01*
X109259Y55985D01*
X109319D01*
X109375Y56008D01*
X109434Y56020D01*
X109484Y56053D01*
X109540Y56076D01*
X109582Y56119D01*
X109633Y56152D01*
X109666Y56203D01*
X109709Y56245D01*
X109732Y56301D01*
X109765Y56351D01*
X109777Y56410D01*
X109800Y56466D01*
Y56526D01*
X109812Y56585D01*
X109800Y56644D01*
Y56704D01*
X109777Y56760D01*
X109765Y56819D01*
X109732Y56869D01*
X109709Y56925D01*
X109666Y56967D01*
X109633Y57018D01*
X109582Y57051D01*
X109540Y57094D01*
X109484Y57117D01*
X109434Y57150D01*
X109375Y57162D01*
X109319Y57185D01*
X109259D01*
X109200Y57197D01*
X108220D01*
Y58073D01*
X108185Y58248D01*
X108183Y58252D01*
Y58257D01*
X108173Y58307D01*
X108146Y58349D01*
Y58373D01*
X108134Y58432D01*
Y58492D01*
Y59198D01*
D02*
G37*
G36*
X116075Y55190D02*
X114475D01*
Y53590D01*
X116075D01*
Y55190D01*
D02*
G37*
G36*
X125435Y52650D02*
X125225D01*
X125021Y52595D01*
X124839Y52490D01*
X124690Y52341D01*
X124585Y52159D01*
X124530Y51955D01*
Y51745D01*
X124585Y51541D01*
X124690Y51359D01*
X124839Y51210D01*
X125021Y51105D01*
X125225Y51050D01*
X125435D01*
X125639Y51105D01*
X125821Y51210D01*
X125970Y51359D01*
X126075Y51541D01*
X126130Y51745D01*
Y51955D01*
X126075Y52159D01*
X125970Y52341D01*
X125821Y52490D01*
X125639Y52595D01*
X125435Y52650D01*
D02*
G37*
G36*
X120420D02*
X120210D01*
X120006Y52595D01*
X119824Y52490D01*
X119675Y52341D01*
X119570Y52159D01*
X119515Y51955D01*
Y51745D01*
X119570Y51541D01*
X119675Y51359D01*
X119824Y51210D01*
X120006Y51105D01*
X120210Y51050D01*
X120420D01*
X120624Y51105D01*
X120806Y51210D01*
X120955Y51359D01*
X121060Y51541D01*
X121115Y51745D01*
Y51955D01*
X121060Y52159D01*
X120955Y52341D01*
X120806Y52490D01*
X120624Y52595D01*
X120420Y52650D01*
D02*
G37*
G36*
X131950Y51185D02*
X131700D01*
X131458Y51120D01*
X131242Y50995D01*
X131065Y50818D01*
X130940Y50602D01*
X130875Y50360D01*
Y50110D01*
X130940Y49868D01*
X131065Y49652D01*
X131242Y49475D01*
X131458Y49350D01*
X131700Y49285D01*
X131950D01*
X132192Y49350D01*
X132408Y49475D01*
X132539Y49606D01*
X133125D01*
Y49600D01*
X134775D01*
Y50800D01*
X134080D01*
X133933Y50829D01*
X132574D01*
X132408Y50995D01*
X132192Y51120D01*
X131950Y51185D01*
D02*
G37*
G36*
X105171Y48770D02*
X104829D01*
X104498Y48681D01*
X104202Y48510D01*
X103960Y48268D01*
X103789Y47972D01*
X103700Y47641D01*
Y47299D01*
X103789Y46968D01*
X103960Y46672D01*
X104202Y46430D01*
X104498Y46259D01*
X104829Y46170D01*
X105171D01*
X105502Y46259D01*
X105798Y46430D01*
X106040Y46672D01*
X106211Y46968D01*
X106300Y47299D01*
Y47641D01*
X106211Y47972D01*
X106040Y48268D01*
X105798Y48510D01*
X105502Y48681D01*
X105171Y48770D01*
D02*
G37*
G36*
X143905Y47850D02*
X143596D01*
X143297Y47770D01*
X143029Y47615D01*
X142810Y47396D01*
X142656Y47128D01*
X142576Y46829D01*
Y46520D01*
X142656Y46221D01*
X142810Y45953D01*
X143029Y45735D01*
X143297Y45580D01*
X143596Y45500D01*
X143905D01*
X144204Y45580D01*
X144472Y45735D01*
X144691Y45953D01*
X144846Y46221D01*
X144926Y46520D01*
Y46829D01*
X144846Y47128D01*
X144691Y47396D01*
X144472Y47615D01*
X144204Y47770D01*
X143905Y47850D01*
D02*
G37*
G36*
X129430Y45386D02*
X128215D01*
X128055Y45354D01*
X127955Y45312D01*
X127819Y45222D01*
X127647Y45050D01*
X127155D01*
Y44958D01*
Y44924D01*
X126455D01*
Y44958D01*
Y45050D01*
X125255D01*
Y44958D01*
Y44924D01*
X124633D01*
Y44958D01*
Y45278D01*
X122677D01*
Y45051D01*
Y45017D01*
X122244D01*
Y45025D01*
X120594D01*
Y45001D01*
X113735D01*
X113603Y45056D01*
X113364D01*
X113144Y44965D01*
X112975Y44796D01*
X112884Y44575D01*
Y44337D01*
X112975Y44116D01*
X113144Y43947D01*
X113364Y43856D01*
X113603D01*
X113661Y43880D01*
X120594D01*
Y43845D01*
Y43825D01*
X122244D01*
Y43861D01*
Y43895D01*
X122677D01*
Y43861D01*
Y43373D01*
X124633D01*
Y43768D01*
Y43802D01*
X125255D01*
Y43768D01*
Y43750D01*
X126455D01*
Y43768D01*
Y43802D01*
X127155D01*
Y43768D01*
Y43750D01*
X128355D01*
Y44123D01*
Y44172D01*
X128447Y44264D01*
X128869D01*
Y42925D01*
X128730D01*
Y41825D01*
X129375D01*
X129430Y41814D01*
X129484Y41825D01*
X130130D01*
Y42925D01*
X129990D01*
Y44275D01*
X130130D01*
Y45375D01*
X129484D01*
X129430Y45386D01*
D02*
G37*
G36*
X109427Y45818D02*
X109073D01*
X108732Y45726D01*
X108425Y45550D01*
X108175Y45300D01*
X107999Y44993D01*
X107907Y44652D01*
Y44298D01*
X107999Y43957D01*
X108175Y43650D01*
X108425Y43400D01*
X108732Y43224D01*
X109073Y43132D01*
X109427D01*
X109768Y43224D01*
X110075Y43400D01*
X110325Y43650D01*
X110501Y43957D01*
X110593Y44298D01*
Y44652D01*
X110501Y44993D01*
X110325Y45300D01*
X110075Y45550D01*
X109768Y45726D01*
X109427Y45818D01*
D02*
G37*
G36*
X132575Y57734D02*
X123200D01*
X123069Y57708D01*
X122987Y57674D01*
X122876Y57599D01*
X120466Y55190D01*
X119515D01*
Y53590D01*
X121115D01*
Y54501D01*
Y54541D01*
X123390Y56816D01*
X132385D01*
X132833Y56368D01*
X132757Y56265D01*
X132656Y56265D01*
X132472D01*
D01*
X130875D01*
D01*
Y56209D01*
X130855Y56090D01*
X129655D01*
Y55633D01*
X129644Y55618D01*
X129608Y55533D01*
X129573Y55448D01*
X129549Y55265D01*
X129573Y55082D01*
X129608Y54997D01*
X129644Y54912D01*
X129655Y54897D01*
Y54885D01*
Y54440D01*
X130855D01*
X130875Y54365D01*
X132775D01*
Y55962D01*
D01*
Y56139D01*
X132775Y56247D01*
X132878Y56323D01*
X133491Y55710D01*
Y52800D01*
X133125D01*
Y51600D01*
X134775D01*
Y51647D01*
Y51741D01*
X135060D01*
X135417Y51384D01*
Y48891D01*
X134126Y47599D01*
X134051Y47488D01*
X134017Y47406D01*
X133991Y47275D01*
Y42987D01*
X132930D01*
X132755Y42952D01*
X132690Y42925D01*
X132249D01*
Y42925D01*
X132230D01*
X132212Y43045D01*
Y43291D01*
X133196Y44275D01*
X133630D01*
Y45375D01*
X133095D01*
X128867Y49603D01*
Y55068D01*
X128855Y55127D01*
Y55187D01*
Y56090D01*
X127655D01*
Y55717D01*
Y55680D01*
X126058D01*
X125883Y55645D01*
X125774Y55600D01*
X125625Y55500D01*
X125315Y55190D01*
X124530D01*
Y53590D01*
X126130D01*
Y54221D01*
Y54275D01*
X126311Y54456D01*
X127643D01*
Y49350D01*
X127678Y49175D01*
X127723Y49065D01*
X127822Y48917D01*
X131965Y44774D01*
X131167Y43977D01*
X131068Y43828D01*
X131023Y43719D01*
X130988Y43544D01*
Y39928D01*
X130994Y39897D01*
Y39822D01*
Y38623D01*
X132951D01*
Y40528D01*
X132212D01*
Y41705D01*
X132230Y41825D01*
X132249D01*
Y41825D01*
X132690D01*
X132755Y41798D01*
X132930Y41763D01*
X133838D01*
Y40528D01*
X133669D01*
Y38623D01*
X135626D01*
Y40528D01*
X135062D01*
Y42350D01*
X135059Y42362D01*
X135062Y42375D01*
X135027Y42550D01*
X134982Y42659D01*
X134909Y42768D01*
Y47085D01*
X136200Y48376D01*
X136274Y48488D01*
X136308Y48569D01*
X136334Y48701D01*
Y51574D01*
X136308Y51705D01*
X136274Y51787D01*
X136200Y51898D01*
X135574Y52524D01*
X135463Y52599D01*
X135381Y52633D01*
X135250Y52659D01*
X134775D01*
Y52687D01*
Y52800D01*
X134409D01*
Y55900D01*
X134383Y56031D01*
X134349Y56113D01*
X134275Y56224D01*
X132899Y57599D01*
X132788Y57674D01*
X132706Y57708D01*
X132575Y57734D01*
D02*
G37*
G36*
X120200Y43037D02*
X120141Y43025D01*
X120081D01*
X120025Y43002D01*
X119966Y42990D01*
X119916Y42957D01*
X119860Y42934D01*
X119818Y42891D01*
X119767Y42858D01*
X119734Y42807D01*
X119691Y42765D01*
X119668Y42709D01*
X119635Y42659D01*
X119623Y42600D01*
X119600Y42544D01*
Y42484D01*
X119588Y42425D01*
X119600Y42366D01*
Y42306D01*
X119623Y42250D01*
X119635Y42191D01*
X119668Y42141D01*
X119691Y42085D01*
X119734Y42043D01*
X119767Y41992D01*
Y41992D01*
X119818Y41959D01*
X119849Y41927D01*
X119844Y41878D01*
X119811Y41800D01*
X118830D01*
Y40600D01*
X120029D01*
X120152Y40576D01*
X120275Y40600D01*
X120480D01*
Y40600D01*
X120594Y40600D01*
Y40600D01*
X121361D01*
X121419Y40588D01*
X121477Y40600D01*
X122099D01*
X122205Y40550D01*
X122205Y40478D01*
Y39800D01*
X120594D01*
Y39800D01*
X120594D01*
X120480Y39800D01*
X120480D01*
Y39800D01*
X119714D01*
X119655Y39812D01*
X119225D01*
X119166Y39800D01*
X118830D01*
Y39658D01*
X118792Y39633D01*
X118067Y38908D01*
X118034Y38857D01*
X117991Y38815D01*
X117968Y38759D01*
X117935Y38709D01*
X117923Y38650D01*
X117900Y38594D01*
Y38534D01*
X117888Y38475D01*
X117900Y38416D01*
Y38356D01*
X117923Y38300D01*
X117935Y38241D01*
X117968Y38191D01*
X117991Y38135D01*
X118034Y38093D01*
X118067Y38042D01*
X118118Y38009D01*
X118160Y37966D01*
X118216Y37943D01*
X118231Y37933D01*
X118193Y37806D01*
X112957D01*
X112889Y37925D01*
X112639Y38175D01*
X112332Y38351D01*
X111991Y38443D01*
X111637D01*
X111296Y38351D01*
X110990Y38175D01*
X110739Y37925D01*
X110671Y37806D01*
X110025D01*
Y37858D01*
Y37925D01*
X108375D01*
Y36275D01*
X110025D01*
Y36342D01*
Y36394D01*
X110671D01*
X110739Y36275D01*
X110990Y36025D01*
X111296Y35849D01*
X111637Y35757D01*
X111991D01*
X112332Y35849D01*
X112639Y36025D01*
X112889Y36275D01*
X112957Y36394D01*
X122627D01*
Y36342D01*
Y34747D01*
X122896D01*
Y34011D01*
X122724D01*
X122586Y33984D01*
X122500Y33948D01*
X122384Y33870D01*
X122306Y33753D01*
X122270Y33668D01*
X122243Y33530D01*
X122270Y33392D01*
X122306Y33307D01*
X122384Y33190D01*
X122500Y33112D01*
X122586Y33076D01*
X122724Y33049D01*
X124054D01*
X124238Y33086D01*
X124394Y33190D01*
X124499Y33346D01*
X124535Y33530D01*
X124504Y33687D01*
X124500Y33686D01*
X124472Y33753D01*
X124394Y33870D01*
X124278Y33948D01*
X124192Y33984D01*
X124054Y34011D01*
X123814D01*
Y34747D01*
X124532D01*
Y36703D01*
X124261D01*
Y37850D01*
X124905D01*
Y40550D01*
X122350D01*
X122244Y40600D01*
X122244Y40672D01*
Y41698D01*
Y41700D01*
Y41800D01*
X122244D01*
D01*
X122244D01*
X122244Y41825D01*
D01*
X122244D01*
D01*
Y43025D01*
X121478D01*
X121419Y43037D01*
X120200D01*
X120200Y43037D01*
D02*
G37*
G36*
X109427Y40993D02*
X109073D01*
X108732Y40901D01*
X108425Y40725D01*
X108175Y40475D01*
X107999Y40168D01*
X107907Y39827D01*
Y39473D01*
X107999Y39132D01*
X108175Y38825D01*
X108425Y38575D01*
X108732Y38399D01*
X109073Y38307D01*
X109427D01*
X109768Y38399D01*
X110075Y38575D01*
X110325Y38825D01*
X110501Y39132D01*
X110593Y39473D01*
Y39827D01*
X110501Y40168D01*
X110325Y40475D01*
X110075Y40725D01*
X109768Y40901D01*
X109427Y40993D01*
D02*
G37*
G36*
X143905Y37825D02*
X143596D01*
X143297Y37745D01*
X143029Y37590D01*
X142810Y37371D01*
X142656Y37103D01*
X142576Y36804D01*
Y36495D01*
X142656Y36196D01*
X142810Y35928D01*
X143029Y35710D01*
X143297Y35555D01*
X143596Y35475D01*
X143905D01*
X144204Y35555D01*
X144472Y35710D01*
X144691Y35928D01*
X144846Y36196D01*
X144926Y36495D01*
Y36804D01*
X144846Y37103D01*
X144691Y37371D01*
X144472Y37590D01*
X144204Y37745D01*
X143905Y37825D01*
D02*
G37*
G36*
X136727Y36642D02*
X136373D01*
X136032Y36551D01*
X135725Y36374D01*
X135475Y36124D01*
X135299Y35818D01*
X135283Y35758D01*
X133900D01*
X133769Y35732D01*
X133687Y35698D01*
X133575Y35624D01*
X131941Y33989D01*
X129158D01*
Y34002D01*
X126884D01*
Y33058D01*
X129158D01*
Y33071D01*
X129852D01*
X129950Y33000D01*
D01*
Y31600D01*
X131050D01*
Y33000D01*
D01*
D01*
X131148Y33071D01*
X132131D01*
X132262Y33097D01*
X132344Y33131D01*
X132455Y33206D01*
X134090Y34840D01*
X135283D01*
X135299Y34781D01*
X135475Y34475D01*
X135725Y34225D01*
X136032Y34048D01*
X136373Y33956D01*
X136727D01*
X137068Y34048D01*
X137375Y34225D01*
X137625Y34475D01*
X137801Y34781D01*
X137893Y35122D01*
Y35476D01*
X137801Y35818D01*
X137625Y36124D01*
X137375Y36374D01*
X137068Y36551D01*
X136727Y36642D01*
D02*
G37*
G36*
X126749Y32860D02*
X126511D01*
X126290Y32769D01*
X126187Y32666D01*
X126121Y32600D01*
X126030Y32379D01*
Y32141D01*
X126121Y31920D01*
X126290Y31751D01*
X126327Y31736D01*
Y31667D01*
X126336Y31656D01*
X126327Y31647D01*
Y31599D01*
X126244Y31565D01*
X126075Y31396D01*
X125984Y31175D01*
Y30937D01*
X126075Y30716D01*
X126244Y30547D01*
X126465Y30456D01*
X126703D01*
X126905Y30539D01*
X127203D01*
X127356Y30509D01*
X128686D01*
X128756Y30523D01*
X129004D01*
X129776Y29751D01*
X129925Y29651D01*
X130046Y29627D01*
X130034Y29500D01*
X129950D01*
Y28749D01*
X129593Y28392D01*
X129461D01*
X129240Y28301D01*
X129071Y28132D01*
X128980Y27911D01*
Y27673D01*
X129071Y27452D01*
X129240Y27283D01*
X129461Y27192D01*
X129699D01*
X129920Y27283D01*
X130089Y27452D01*
X130180Y27673D01*
Y27681D01*
X130599Y28100D01*
X131050D01*
Y29489D01*
X131050Y29498D01*
Y29500D01*
D01*
Y29500D01*
X131076Y29616D01*
X131609D01*
X132200Y29025D01*
X132311Y28951D01*
X132393Y28917D01*
X132524Y28891D01*
X135335D01*
X135351Y28831D01*
X135528Y28525D01*
X135778Y28275D01*
X136085Y28098D01*
X136426Y28006D01*
X136780D01*
X137121Y28098D01*
X137428Y28275D01*
X137678Y28525D01*
X137854Y28831D01*
X137946Y29173D01*
Y29526D01*
X137854Y29868D01*
X137678Y30174D01*
X137651Y30201D01*
X137428Y30424D01*
X137121Y30601D01*
X136780Y30692D01*
X136426D01*
X136085Y30601D01*
X135778Y30424D01*
X135555Y30201D01*
X135528Y30174D01*
X135351Y29868D01*
X135335Y29808D01*
X132714D01*
X132123Y30399D01*
X132012Y30474D01*
X131930Y30508D01*
X131799Y30534D01*
X130291D01*
X129518Y31306D01*
X129407Y31380D01*
X129325Y31414D01*
X129194Y31441D01*
X128839D01*
X128686Y31471D01*
X127356D01*
X127286Y31457D01*
X127031D01*
X126924Y31565D01*
X126887Y31580D01*
Y31717D01*
X126970Y31751D01*
X127020Y31801D01*
X127245D01*
X127356Y31779D01*
X128686D01*
X128824Y31806D01*
X128910Y31842D01*
X129026Y31920D01*
X129104Y32037D01*
X129140Y32122D01*
X129167Y32260D01*
X129140Y32398D01*
X129104Y32483D01*
X129026Y32600D01*
X128910Y32678D01*
X128824Y32714D01*
X128686Y32741D01*
X127356D01*
X127245Y32719D01*
X127020D01*
X126970Y32769D01*
X126749Y32860D01*
D02*
G37*
G36*
X125519Y34150D02*
X125281D01*
X125060Y34059D01*
X124891Y33890D01*
X124800Y33669D01*
Y33431D01*
X124891Y33210D01*
X124941Y33160D01*
Y32190D01*
X124208Y31457D01*
X124124D01*
X124054Y31471D01*
X122724D01*
X122612Y31449D01*
X121346D01*
X121344Y31575D01*
X121344Y31576D01*
Y31809D01*
X122575D01*
X122724Y31779D01*
X124054D01*
X124238Y31816D01*
X124394Y31920D01*
X124499Y32076D01*
X124535Y32260D01*
X124499Y32444D01*
X124394Y32600D01*
X124238Y32704D01*
X124054Y32741D01*
X122724D01*
X122650Y32726D01*
X121344D01*
Y32755D01*
Y32975D01*
X120244D01*
Y32762D01*
Y32734D01*
X113082D01*
X113066Y32793D01*
X112889Y33100D01*
X112639Y33350D01*
X112332Y33526D01*
X111991Y33618D01*
X111637D01*
X111296Y33526D01*
X110990Y33350D01*
X110739Y33100D01*
X110563Y32793D01*
X110471Y32452D01*
Y32098D01*
X110563Y31757D01*
X110739Y31450D01*
X110990Y31200D01*
X111296Y31024D01*
X111637Y30932D01*
X111991D01*
X112332Y31024D01*
X112639Y31200D01*
X112889Y31450D01*
X113066Y31757D01*
X113082Y31816D01*
X120244D01*
Y31576D01*
X120244Y31575D01*
X120242Y31449D01*
X118915D01*
X118784Y31423D01*
X118702Y31389D01*
X118591Y31314D01*
X117183Y29907D01*
X113082D01*
X113066Y29967D01*
X112889Y30273D01*
X112639Y30523D01*
X112332Y30700D01*
X111991Y30791D01*
X111637D01*
X111296Y30700D01*
X110990Y30523D01*
X110739Y30273D01*
X110563Y29967D01*
X110471Y29625D01*
Y29271D01*
X110563Y28930D01*
X110739Y28624D01*
X110990Y28374D01*
X111296Y28197D01*
X111637Y28105D01*
X111991D01*
X112332Y28197D01*
X112639Y28374D01*
X112889Y28624D01*
X113066Y28930D01*
X113082Y28989D01*
X117373D01*
X117505Y29016D01*
X117586Y29050D01*
X117698Y29124D01*
X119105Y30531D01*
X122612D01*
X122724Y30509D01*
X124054D01*
X124207Y30539D01*
X124398D01*
X124530Y30566D01*
X124611Y30600D01*
X124723Y30674D01*
X125724Y31676D01*
X125799Y31787D01*
X125811Y31816D01*
X125819Y31818D01*
X125824Y31824D01*
X125859Y32000D01*
Y33160D01*
X125887Y33189D01*
X125909Y33210D01*
X126000Y33431D01*
Y33669D01*
X125909Y33890D01*
X125740Y34059D01*
X125519Y34150D01*
D02*
G37*
G36*
X136780Y33618D02*
X136426D01*
X136085Y33526D01*
X135778Y33350D01*
X135528Y33100D01*
X135351Y32793D01*
X135260Y32452D01*
Y32098D01*
X135351Y31757D01*
X135528Y31450D01*
X135573Y31406D01*
X135778Y31200D01*
X136085Y31024D01*
X136426Y30932D01*
X136780D01*
X137121Y31024D01*
X137428Y31200D01*
X137678Y31450D01*
X137854Y31757D01*
X137946Y32098D01*
Y32452D01*
X137854Y32793D01*
X137678Y33100D01*
X137428Y33350D01*
X137121Y33526D01*
X136780Y33618D01*
D02*
G37*
G36*
X121344Y29475D02*
X120244D01*
Y28075D01*
X120695D01*
X121282Y27487D01*
X121335Y27360D01*
X121504Y27191D01*
X121724Y27100D01*
X121963D01*
X122184Y27191D01*
X122352Y27360D01*
X122444Y27581D01*
Y27819D01*
X122352Y28040D01*
X122184Y28209D01*
X121963Y28300D01*
X121768D01*
X121344Y28724D01*
Y28764D01*
Y29475D01*
D02*
G37*
G36*
X111991Y27918D02*
X111637D01*
X111296Y27826D01*
X110990Y27650D01*
X110739Y27400D01*
X110563Y27093D01*
X110471Y26752D01*
Y26398D01*
X110563Y26057D01*
X110739Y25750D01*
X110990Y25500D01*
X111296Y25324D01*
X111637Y25232D01*
X111991D01*
X112332Y25324D01*
X112639Y25500D01*
X112889Y25750D01*
X113066Y26057D01*
X113157Y26398D01*
Y26752D01*
X113066Y27093D01*
X112889Y27400D01*
X112639Y27650D01*
X112332Y27826D01*
X111991Y27918D01*
D02*
G37*
G36*
X106300Y27830D02*
X103700D01*
Y25230D01*
X106300D01*
Y27830D01*
D02*
G37*
G36*
X136861Y27649D02*
X136507D01*
X136166Y27557D01*
X135859Y27381D01*
X135609Y27131D01*
X135432Y26824D01*
X135341Y26483D01*
Y26129D01*
X135432Y25788D01*
X135609Y25481D01*
X135859Y25231D01*
X136166Y25055D01*
X136507Y24963D01*
X136861D01*
X137202Y25055D01*
X137509Y25231D01*
X137759Y25481D01*
X137935Y25788D01*
X138027Y26129D01*
Y26483D01*
X137935Y26824D01*
X137759Y27131D01*
X137509Y27381D01*
X137202Y27557D01*
X136861Y27649D01*
D02*
G37*
G36*
X144238Y42856D02*
X143263D01*
X143084Y42832D01*
X142916Y42763D01*
X142773Y42653D01*
X142663Y42509D01*
X142593Y42342D01*
X142570Y42162D01*
Y41187D01*
X142593Y41008D01*
X142663Y40841D01*
X142773Y40697D01*
X142916Y40587D01*
X143084Y40517D01*
X143263Y40494D01*
X143576D01*
X145581Y38489D01*
Y34835D01*
X143576Y32831D01*
X143263D01*
X143084Y32807D01*
X142916Y32738D01*
X142773Y32628D01*
X142663Y32484D01*
X142593Y32317D01*
X142570Y32137D01*
Y31334D01*
X139843Y28607D01*
X139743Y28458D01*
X139698Y28349D01*
X139663Y28174D01*
Y25775D01*
X139450D01*
Y24575D01*
X140216D01*
X140275Y24563D01*
X140334Y24575D01*
X141100D01*
Y25775D01*
X140887D01*
Y27921D01*
X143435Y30469D01*
X144238D01*
X144418Y30492D01*
X144585Y30562D01*
X144728Y30672D01*
X144839Y30816D01*
X144908Y30983D01*
X144932Y31162D01*
Y31476D01*
X147217Y33761D01*
X147369Y33959D01*
X147465Y34190D01*
X147498Y34438D01*
Y38886D01*
X147465Y39134D01*
X147369Y39365D01*
X147217Y39564D01*
X144932Y41849D01*
Y42162D01*
X144908Y42342D01*
X144839Y42509D01*
X144728Y42653D01*
X144585Y42763D01*
X144418Y42832D01*
X144238Y42856D01*
D02*
G37*
G36*
X146247Y23281D02*
X146201Y23275D01*
X145697D01*
Y23023D01*
X145230Y22556D01*
X144764D01*
X144728Y22603D01*
X144584Y22713D01*
X144417Y22782D01*
X144238Y22806D01*
X143262D01*
X143083Y22782D01*
X142916Y22713D01*
X142772Y22603D01*
X142662Y22459D01*
X142593Y22292D01*
X142569Y22112D01*
Y21138D01*
X142593Y20958D01*
X142662Y20791D01*
X142772Y20647D01*
X142916Y20537D01*
X143083Y20468D01*
X143262Y20444D01*
X144238D01*
X144417Y20468D01*
X144584Y20537D01*
X144728Y20647D01*
X144838Y20791D01*
X144907Y20958D01*
X144931Y21138D01*
Y21144D01*
X145522D01*
X145705Y21168D01*
X145790Y21203D01*
X145875Y21239D01*
X146021Y21351D01*
X146546Y21875D01*
X146797D01*
Y22074D01*
Y22142D01*
X146859Y22222D01*
X146894Y22307D01*
X146929Y22392D01*
X146953Y22575D01*
X146929Y22758D01*
X146894Y22843D01*
X146859Y22928D01*
X146797Y23008D01*
Y23076D01*
Y23275D01*
X146293D01*
X146247Y23281D01*
D02*
G37*
G36*
X122733Y17550D02*
X122417D01*
X122112Y17468D01*
X121838Y17310D01*
X121614Y17087D01*
X121456Y16813D01*
X121375Y16508D01*
Y16192D01*
X121456Y15887D01*
X121614Y15613D01*
X121838Y15390D01*
X122112Y15232D01*
X122417Y15150D01*
X122733D01*
X123038Y15232D01*
X123312Y15390D01*
X123535Y15613D01*
X123693Y15887D01*
X123775Y16192D01*
Y16508D01*
X123693Y16813D01*
X123535Y17087D01*
X123312Y17310D01*
X123038Y17468D01*
X122733Y17550D01*
D02*
G37*
G36*
X141100Y23775D02*
X139450D01*
Y22575D01*
X139816D01*
Y19775D01*
X139842Y19644D01*
X139876Y19562D01*
X139951Y19450D01*
X145050Y14351D01*
Y14281D01*
X145141Y14060D01*
X145310Y13891D01*
X145531Y13800D01*
X145769D01*
X145990Y13891D01*
X146159Y14060D01*
X146250Y14281D01*
Y14519D01*
X146159Y14740D01*
X145990Y14909D01*
X145769Y15000D01*
X145699D01*
X140734Y19965D01*
Y22575D01*
X141100D01*
Y23775D01*
D02*
G37*
G36*
X142523Y15889D02*
X142170D01*
X141828Y15798D01*
X141522Y15621D01*
X141272Y15371D01*
X141095Y15065D01*
X141003Y14723D01*
Y14370D01*
X141095Y14028D01*
X141272Y13722D01*
X141522Y13472D01*
X141828Y13295D01*
X142170Y13203D01*
X142523D01*
X142865Y13295D01*
X143171Y13472D01*
X143421Y13722D01*
X143598Y14028D01*
X143689Y14370D01*
Y14723D01*
X143598Y15065D01*
X143421Y15371D01*
X143171Y15621D01*
X142865Y15798D01*
X142523Y15889D01*
D02*
G37*
G36*
X111325Y20258D02*
X110992Y20225D01*
X110752Y20153D01*
X110597Y20089D01*
X110376Y19970D01*
X110117Y19758D01*
X109905Y19499D01*
X109786Y19278D01*
X109722Y19123D01*
X109650Y18883D01*
X109617Y18550D01*
X109650Y18217D01*
X109722Y17977D01*
X109786Y17822D01*
X109905Y17601D01*
X110117Y17342D01*
X112442Y15017D01*
X112650Y14847D01*
X112673Y14690D01*
X112552Y14570D01*
X112388Y14405D01*
X113771Y13022D01*
X114049Y13299D01*
X114142Y13392D01*
X116442Y11092D01*
X116701Y10880D01*
X116922Y10761D01*
X117077Y10697D01*
X117317Y10625D01*
X117650Y10592D01*
X121517D01*
X122017Y10092D01*
X122276Y9880D01*
X122497Y9761D01*
X122652Y9697D01*
X122892Y9625D01*
X123225Y9592D01*
X123558Y9625D01*
X123798Y9697D01*
X123953Y9761D01*
X124174Y9880D01*
X124433Y10092D01*
X124645Y10351D01*
X124764Y10572D01*
X124828Y10727D01*
X124900Y10967D01*
X124933Y11300D01*
X124900Y11633D01*
X124828Y11873D01*
X124764Y12028D01*
X124645Y12249D01*
X124433Y12508D01*
X123433Y13508D01*
X123174Y13720D01*
X122953Y13839D01*
X122798Y13903D01*
X122558Y13975D01*
X122225Y14008D01*
X118358D01*
X115866Y16500D01*
X115607Y16712D01*
X115386Y16831D01*
X115232Y16894D01*
X115218Y16899D01*
X115216Y16901D01*
X115209Y16904D01*
X115189Y16953D01*
X115070Y17174D01*
X114858Y17433D01*
X112533Y19758D01*
X112274Y19970D01*
X112053Y20089D01*
X111898Y20153D01*
X111658Y20225D01*
X111325Y20258D01*
D02*
G37*
G36*
X124054Y30201D02*
X122724D01*
X122586Y30174D01*
X122500Y30138D01*
X122384Y30060D01*
X122306Y29943D01*
X122270Y29858D01*
X122243Y29720D01*
X122270Y29582D01*
X122306Y29497D01*
X122384Y29380D01*
X122500Y29302D01*
X122586Y29266D01*
X122724Y29239D01*
X124054D01*
X124165Y29261D01*
X124365D01*
X124746Y28880D01*
Y21989D01*
X124772Y21857D01*
X124806Y21776D01*
X124881Y21664D01*
X132166Y14379D01*
Y8390D01*
X132116Y8340D01*
X132025Y8119D01*
Y7881D01*
X132116Y7660D01*
X132285Y7491D01*
X132506Y7400D01*
X132744D01*
X132965Y7491D01*
X133134Y7660D01*
X133225Y7881D01*
Y8119D01*
X133134Y8340D01*
X133112Y8361D01*
X133084Y8390D01*
Y14569D01*
X133058Y14700D01*
X133024Y14782D01*
X132949Y14893D01*
X125664Y22179D01*
Y29070D01*
X125638Y29201D01*
X125604Y29283D01*
X125529Y29394D01*
X124879Y30044D01*
X124768Y30119D01*
X124686Y30153D01*
X124555Y30179D01*
X124165D01*
X124054Y30201D01*
D02*
G37*
G36*
X135991Y9450D02*
X135609D01*
X135240Y9351D01*
X134910Y9160D01*
X134640Y8890D01*
X134449Y8560D01*
X134350Y8191D01*
Y7809D01*
X134449Y7440D01*
X134640Y7110D01*
X134910Y6840D01*
X135240Y6649D01*
X135609Y6550D01*
X135991D01*
X136360Y6649D01*
X136690Y6840D01*
X136960Y7110D01*
X137151Y7440D01*
X137250Y7809D01*
Y8191D01*
X137151Y8560D01*
X136960Y8890D01*
X136690Y9160D01*
X136360Y9351D01*
X135991Y9450D01*
D02*
G37*
G36*
X129641D02*
X129259D01*
X128890Y9351D01*
X128560Y9160D01*
X128290Y8890D01*
X128099Y8560D01*
X128000Y8191D01*
Y7809D01*
X128099Y7440D01*
X128290Y7110D01*
X128560Y6840D01*
X128890Y6649D01*
X129259Y6550D01*
X129641D01*
X130010Y6649D01*
X130340Y6840D01*
X130610Y7110D01*
X130801Y7440D01*
X130900Y7809D01*
Y8191D01*
X130801Y8560D01*
X130610Y8890D01*
X130340Y9160D01*
X130010Y9351D01*
X129641Y9450D01*
D02*
G37*
G36*
X130095Y14875D02*
X129805D01*
X129525Y14800D01*
X129275Y14655D01*
X129070Y14450D01*
X128925Y14200D01*
X128890Y14070D01*
X120203Y5383D01*
X109965D01*
X109905Y5430D01*
X109848Y5453D01*
X109848D01*
X109625Y5545D01*
X109325Y5585D01*
X109025Y5545D01*
X108802Y5453D01*
X108802D01*
X108745Y5430D01*
X108685Y5383D01*
X104047D01*
X97910Y11520D01*
X97875Y11650D01*
X97730Y11900D01*
X97525Y12105D01*
X97275Y12250D01*
X96995Y12325D01*
X96705D01*
X96425Y12250D01*
X96175Y12105D01*
X95970Y11900D01*
X95825Y11650D01*
X95750Y11370D01*
Y11080D01*
X95825Y10800D01*
X95970Y10550D01*
X96175Y10345D01*
X96425Y10200D01*
X96555Y10165D01*
X102972Y3747D01*
X103171Y3595D01*
X103402Y3499D01*
X103650Y3467D01*
X108165D01*
Y2116D01*
X108130Y1850D01*
X108170Y1550D01*
X108285Y1270D01*
X108315Y1232D01*
X108339Y1174D01*
X108513Y946D01*
X108741Y772D01*
X108873Y717D01*
X109006Y662D01*
X109290Y625D01*
X109574Y662D01*
X109707Y717D01*
X109839Y772D01*
X110067Y946D01*
X110241Y1174D01*
X110256Y1209D01*
X110330Y1305D01*
X110445Y1585D01*
X110485Y1885D01*
Y3467D01*
X120600D01*
X120848Y3499D01*
X121079Y3595D01*
X121278Y3747D01*
X130245Y12715D01*
X130375Y12750D01*
X130625Y12895D01*
X130830Y13100D01*
X130975Y13350D01*
X131050Y13630D01*
Y13920D01*
X130975Y14200D01*
X130830Y14450D01*
X130625Y14655D01*
X130375Y14800D01*
X130095Y14875D01*
D02*
G37*
G36*
X95300Y3075D02*
X95050D01*
X94808Y3010D01*
X94592Y2885D01*
X94415Y2708D01*
X94290Y2492D01*
X94225Y2250D01*
Y2000D01*
X94290Y1758D01*
X94415Y1542D01*
X94592Y1365D01*
X94808Y1240D01*
X95050Y1175D01*
X95300D01*
X95542Y1240D01*
X95758Y1365D01*
X95935Y1542D01*
X96060Y1758D01*
X96125Y2000D01*
Y2250D01*
X96060Y2492D01*
X95935Y2708D01*
X95758Y2885D01*
X95542Y3010D01*
X95300Y3075D01*
D02*
G37*
G36*
X104210Y3075D02*
X103926Y3038D01*
X103793Y2983D01*
X103661Y2928D01*
X103433Y2754D01*
X103259Y2526D01*
X103204Y2394D01*
X103149Y2261D01*
X103112Y1977D01*
Y1723D01*
X103149Y1439D01*
X103204Y1306D01*
X103259Y1174D01*
X103433Y946D01*
X103661Y772D01*
X103793Y717D01*
X103926Y662D01*
X104210Y625D01*
X104494Y662D01*
X104627Y717D01*
X104759Y772D01*
X104987Y946D01*
X105161Y1174D01*
X105216Y1306D01*
X105271Y1439D01*
X105308Y1723D01*
Y1977D01*
X105271Y2261D01*
X105216Y2394D01*
X105161Y2526D01*
X104987Y2754D01*
X104759Y2928D01*
X104627Y2983D01*
X104494Y3038D01*
X104210Y3075D01*
D02*
G37*
%LPD*%
G36*
X120303Y38600D02*
X120323D01*
X120467D01*
X120478Y38600D01*
X120480D01*
D01*
X120480D01*
X120594Y38600D01*
X120607Y38600D01*
X122205D01*
Y37858D01*
D01*
Y37850D01*
X122096Y37806D01*
X118807D01*
X118769Y37933D01*
X118784Y37943D01*
X118840Y37966D01*
X118882Y38009D01*
X118933Y38042D01*
X119478Y38588D01*
X119655D01*
X119714Y38600D01*
X119774D01*
D01*
X120303D01*
D02*
G37*
D15*
X122225Y12300D02*
X123225Y11300D01*
X114658Y15292D02*
X117650Y12300D01*
X122225D01*
X16250Y50701D02*
X18275D01*
X111325Y18550D02*
X113650Y16225D01*
D16*
X107568Y56585D02*
Y57136D01*
Y56585D02*
X109200D01*
X39300Y36000D02*
X40900D01*
X119225Y39200D02*
X119655D01*
X118500Y38475D02*
X119225Y39200D01*
X121419Y42088D02*
Y42425D01*
Y41200D02*
Y42088D01*
X120152Y41187D02*
X120189Y41225D01*
X121394D01*
X39250Y35950D02*
X39300Y36000D01*
X32904Y51749D02*
X35700D01*
X29970Y52425D02*
X32228D01*
X32904Y51749D01*
X40850Y40474D02*
Y42675D01*
Y38600D02*
Y40474D01*
X40900Y36000D02*
Y36175D01*
X49300Y43825D02*
X49351Y43774D01*
X50500D01*
X102500Y56100D02*
X104550Y54050D01*
X107568Y57136D02*
X107608Y57176D01*
X107534Y58148D02*
X107608Y58073D01*
X107534Y58148D02*
Y58373D01*
X107608Y57176D02*
Y58073D01*
X120200Y42425D02*
X120200Y42425D01*
X121419D01*
X125380Y54440D02*
X125530Y54590D01*
X125580D02*
X126058Y55068D01*
X125530Y54590D02*
X125580D01*
X126058Y55068D02*
X128255D01*
X125380Y54390D02*
Y54440D01*
X132830Y44774D02*
Y44825D01*
X132780D02*
X132830D01*
X128255Y49350D02*
X132780Y44825D01*
X128255Y49350D02*
Y55068D01*
X134450Y39773D02*
Y42350D01*
Y39773D02*
X134647Y39576D01*
X132930Y42375D02*
X134450D01*
X134450Y42375D01*
X104550Y54050D02*
X107309D01*
X131952Y39576D02*
X131972D01*
X131600Y39928D02*
Y43544D01*
Y39928D02*
X131952Y39576D01*
X131600Y43544D02*
X132830Y44774D01*
X131768Y50217D02*
X133933D01*
X123779Y42400D02*
X126805D01*
X140275Y28174D02*
X143751Y31650D01*
X140275Y25175D02*
Y28174D01*
X37926Y47052D02*
X38849Y47975D01*
X37926Y45451D02*
Y47052D01*
X38849Y47975D02*
X42426D01*
X43049Y48598D01*
X41705Y50820D02*
Y53143D01*
X42826Y38474D02*
X42900Y38400D01*
X40435Y49635D02*
Y50820D01*
X40724Y38474D02*
X40850Y38600D01*
X42900Y36224D02*
Y38400D01*
X41751Y50774D02*
X43424D01*
X35898Y45420D02*
X37895D01*
D17*
X121419Y42088D02*
X121419Y42088D01*
X121264Y42243D02*
X121419Y42088D01*
X121419Y41200D02*
Y42088D01*
X42000Y55800D02*
X42310Y55490D01*
X44639Y34550D02*
X44672Y34583D01*
X38450Y41324D02*
X38600Y41474D01*
X38450Y41099D02*
Y41324D01*
X38600Y41474D02*
X38825D01*
X44197Y57786D02*
X45411Y59000D01*
X48575D01*
X41705Y53143D02*
X42047Y53484D01*
X42826Y38474D02*
X42989Y38637D01*
X47250Y38375D02*
X47275Y38400D01*
X135876Y48701D02*
Y51574D01*
X134450Y42375D02*
Y47275D01*
X135876Y48701D01*
X135250Y52200D02*
X135876Y51574D01*
X133950Y52200D02*
X135250D01*
X133950D02*
Y55900D01*
X132575Y57275D02*
X133950Y55900D01*
X123200Y57275D02*
X132575D01*
X131775Y55265D02*
X131825Y55315D01*
X120315Y54390D02*
X123200Y57275D01*
X125400Y32000D02*
Y33550D01*
X124398Y30998D02*
X125400Y32000D01*
X118915Y30990D02*
X123389D01*
X123397Y30998D01*
X124398D01*
X104747Y56699D02*
X105546D01*
X105568Y56677D01*
X104725Y56722D02*
X104747Y56699D01*
X126723Y30998D02*
X128013D01*
X126584Y31056D02*
X126665D01*
X128013Y30998D02*
X128021Y30990D01*
X126665Y31056D02*
X126723Y30998D01*
X123555Y35749D02*
X123579Y35725D01*
X130345Y33530D02*
X130500Y33375D01*
Y32300D02*
Y33375D01*
X128021Y33530D02*
X130500D01*
X132131D01*
X133900Y35299D02*
X136550D01*
X132131Y33530D02*
X133900Y35299D01*
X126630Y32260D02*
X128021D01*
X117373Y29448D02*
X118915Y30990D01*
X111814Y29448D02*
X117373D01*
X124555Y29720D02*
X125205Y29070D01*
Y21989D02*
X132625Y14569D01*
X125205Y21989D02*
Y29070D01*
X120794Y28625D02*
Y28775D01*
X121661Y27758D02*
X121786D01*
X120794Y28625D02*
X121661Y27758D01*
X121786D02*
X121844Y27700D01*
X129580Y27792D02*
X129642D01*
X130500Y28650D01*
Y28800D01*
X132625Y8000D02*
Y14569D01*
X123389Y29720D02*
X124555D01*
X130101Y30075D02*
X131799D01*
X132524Y29349D01*
X136603D01*
X129194Y30982D02*
X130101Y30075D01*
X128029Y30982D02*
X129194D01*
X128021Y30990D02*
X128029Y30982D01*
X111814Y32275D02*
X120794D01*
X120801Y32268D01*
X123381D02*
X123389Y32260D01*
X120801Y32268D02*
X123381D01*
X133933Y50217D02*
X133950Y50200D01*
X131750Y50235D02*
X131768Y50217D01*
X140275Y19775D02*
Y23175D01*
Y19775D02*
X145650Y14400D01*
X105534Y58373D02*
X105628Y58467D01*
X97125Y58375D02*
X97134Y58366D01*
X123355Y33550D02*
Y35501D01*
X123579Y35725D01*
X72800Y56950D02*
Y57125D01*
X42751Y42774D02*
X42850Y42675D01*
X40850D02*
X40949Y42774D01*
X43049Y48624D02*
X43199Y48774D01*
X43424D01*
X43049Y48598D02*
Y48624D01*
X37895Y45420D02*
X37926Y45451D01*
X35668Y45650D02*
X35898Y45420D01*
D18*
X55775Y3175D02*
X58162D01*
X48650Y3200D02*
X55750D01*
X55775Y3175D01*
X58162D02*
X58887Y2450D01*
X59100D01*
X109325Y4425D02*
X120600D01*
X103650D02*
X109325D01*
X120600D02*
X129950Y13775D01*
X96850Y11225D02*
X103650Y4425D01*
X143629Y46675D02*
X143751D01*
Y31650D02*
X146539Y34438D01*
X143751Y41675D02*
X146539Y38886D01*
Y34438D02*
Y38886D01*
D19*
X109325Y1885D02*
Y4425D01*
X109290Y1850D02*
X109325Y1885D01*
D20*
X65625Y7325D02*
X69100Y10800D01*
X59875Y7325D02*
X65625D01*
X55750Y3200D02*
X59875Y7325D01*
X53825Y26673D02*
Y28300D01*
X52125Y30000D02*
X53825Y28300D01*
X34325Y30000D02*
X52125D01*
X53825Y15689D02*
Y26673D01*
X56950Y43400D02*
Y49650D01*
X50460Y55150D02*
Y55430D01*
Y53090D02*
Y55150D01*
X15600Y40350D02*
X23425Y32525D01*
X15600Y40350D02*
Y42825D01*
X23425Y32525D02*
X25077D01*
X66570Y16106D02*
X66727Y15949D01*
X73899Y11151D02*
Y13000D01*
X66443Y16106D02*
X66570D01*
X73899Y11151D02*
X74100Y10950D01*
X66887Y15914D02*
X70985D01*
X73899Y13000D01*
X66851Y15949D02*
X66887Y15914D01*
X66727Y15949D02*
X66851D01*
X58200Y15889D02*
X66101D01*
X66249Y16037D02*
X66374D01*
X66101Y15889D02*
X66249Y16037D01*
X66374D02*
X66443Y16106D01*
X29035Y8075D02*
X31275D01*
X59229Y32179D02*
X63045D01*
X15450Y42825D02*
X15600D01*
X31350Y7900D02*
X34500D01*
X28928Y32525D02*
X31800D01*
X34325Y30000D01*
X54525Y52075D02*
X56950Y49650D01*
X51475Y52075D02*
X54525D01*
X50460Y53090D02*
X51475Y52075D01*
X11925Y50701D02*
X15400D01*
X15450Y47125D02*
Y50651D01*
X35875Y17650D02*
Y17725D01*
D21*
X37025Y9475D02*
Y9651D01*
X34500Y7900D02*
Y8050D01*
X35925Y9475D02*
X37025D01*
X37250Y9875D02*
X39700D01*
X56950Y39850D02*
Y43400D01*
X57779Y16246D02*
X58200Y15825D01*
X56926Y18974D02*
X57178Y18722D01*
Y18696D02*
X57779Y18096D01*
Y16246D02*
Y18096D01*
X57178Y18696D02*
Y18722D01*
X56900Y18974D02*
X56926D01*
X56802Y23773D02*
X57088Y23487D01*
X56985Y20825D02*
Y23465D01*
X56802Y23773D02*
Y26681D01*
X56985Y23465D02*
X57008Y23442D01*
X42089Y53527D02*
X42792D01*
X48265Y59000D01*
X42047Y53484D02*
X42089Y53527D01*
X45825Y34925D02*
X52025D01*
X56950Y39850D01*
X42310Y55490D02*
X43103D01*
X38400Y55575D02*
X39898D01*
X31275Y14525D02*
X31493Y14743D01*
X32804D02*
X33750Y15689D01*
Y17675D01*
X31493Y14743D02*
X32804D01*
X31050Y14925D02*
X31500D01*
X31050Y14525D02*
Y14925D01*
X29050Y14525D02*
X31050D01*
X29050Y14525D02*
X29050Y14525D01*
X33750Y17675D02*
X36025D01*
X48575Y59000D02*
X70925D01*
X143750Y26625D02*
X143932Y26443D01*
X145879D01*
X146247Y26075D01*
X90655Y58470D02*
X93025Y56100D01*
X102500D01*
X16250Y50701D02*
Y53300D01*
X15400Y50701D02*
X16250D01*
X15400D02*
X15450Y50651D01*
X11954Y53271D02*
X14221D01*
X11925Y53241D02*
X11954Y53271D01*
X14221D02*
X14250Y53300D01*
X8896Y45879D02*
Y48254D01*
Y45879D02*
X11950Y42825D01*
X8650Y48500D02*
X8896Y48254D01*
X11950Y42825D02*
X15450D01*
X50500Y38375D02*
Y41774D01*
X50500Y38375D02*
X50500Y38375D01*
X59225Y32175D02*
X59229Y32179D01*
X130255Y55265D02*
X131775D01*
X123555Y37225D02*
Y39200D01*
Y35749D02*
Y37225D01*
X123430Y37100D02*
X123555Y37225D01*
X111814Y37100D02*
X123430D01*
X109200D02*
X111814D01*
X123655Y42524D02*
X123779Y42400D01*
X97134Y58366D02*
X105466D01*
X143975Y21850D02*
X145522D01*
X143750Y21625D02*
X143975Y21850D01*
X145522D02*
X146247Y22575D01*
X71500Y1050D02*
X91560D01*
X69100Y3450D02*
X71500Y1050D01*
X91560D02*
X95175Y4665D01*
X74100Y3450D02*
X77855Y7205D01*
X95175D01*
X70925Y59000D02*
X72800Y57125D01*
X47250Y38375D02*
X50500D01*
X68550Y32179D02*
X68554Y32182D01*
X40175Y17725D02*
Y19600D01*
D23*
X99045Y41952D02*
X102595D01*
X93999D02*
X99045D01*
X93999Y52112D02*
X99045D01*
X25127Y32475D02*
X28878D01*
X63045Y31919D02*
X68599D01*
X63108Y42015D02*
X68535D01*
X9250Y35075D02*
Y39350D01*
X5300Y43300D02*
X9250Y39350D01*
Y35075D02*
X13325Y31000D01*
X18500D01*
D25*
X39146Y49197D02*
X39165Y49216D01*
Y50820D01*
X40435Y43314D02*
Y46915D01*
X40425Y46925D02*
X40435Y46915D01*
X43610Y45435D02*
X43625Y45451D01*
X41705Y45420D02*
Y45435D01*
X43610D01*
X41705Y45347D02*
Y45495D01*
Y44970D02*
Y45347D01*
X42574Y42951D02*
X42751Y42774D01*
X42850Y40474D02*
Y42675D01*
X40425Y49625D02*
X40435Y49635D01*
Y43314D02*
X40949Y42800D01*
Y42774D02*
Y42800D01*
X42574Y42951D02*
Y44101D01*
X41705Y44970D02*
X42574Y44101D01*
X39165Y43524D02*
Y45420D01*
D26*
X44672Y34583D02*
X44711Y34622D01*
X38000Y35715D02*
Y40164D01*
X38450Y40614D02*
Y41099D01*
X38000Y40164D02*
X38450Y40614D01*
X45522Y34622D02*
X45825Y34925D01*
X44711Y34622D02*
X45522D01*
X38000Y35715D02*
X39165Y34550D01*
X44639D01*
X32904Y45664D02*
X33022Y45546D01*
X31728Y45677D02*
X31742Y45664D01*
X32904D01*
X113484Y44456D02*
X113499Y44440D01*
X121372D01*
X121388Y44425D01*
X121419Y44456D01*
X123525D01*
X123655Y44326D01*
X123692Y44363D02*
X127718D01*
X129430Y42375D02*
Y44825D01*
X127755Y44450D02*
X127805Y44500D01*
X127890D02*
X128215Y44825D01*
X127755Y44400D02*
Y44450D01*
X127805Y44500D02*
X127890D01*
X128215Y44825D02*
X129430D01*
X121419Y39200D02*
X123555D01*
X127718Y44363D02*
X127755Y44400D01*
X123655Y44326D02*
X123692Y44363D01*
X33022Y44257D02*
Y45546D01*
Y44257D02*
X33805Y43474D01*
X38825D01*
D29*
X48675Y57800D02*
X62800D01*
X46107Y43232D02*
Y55232D01*
X48675Y57800D01*
X47950Y49075D02*
Y54950D01*
Y49075D02*
X52300Y44725D01*
X43886Y38637D02*
X44800Y39551D01*
Y41925D02*
X46107Y43232D01*
X44800Y39551D02*
Y41925D01*
X42989Y38637D02*
X43886D01*
X52300Y42275D02*
Y44725D01*
X51799Y41774D02*
X52300Y42275D01*
X50500Y41774D02*
X51799D01*
D39*
X44225Y58000D02*
D03*
X109250Y44475D02*
D03*
X111814Y29448D02*
D03*
X136603Y45532D02*
D03*
X136684Y26306D02*
D03*
X111814Y26575D02*
D03*
X72800Y56950D02*
D03*
X59100Y2450D02*
D03*
X45600Y26681D02*
D03*
X36800Y58075D02*
D03*
X43625Y45451D02*
D03*
X33100Y58075D02*
D03*
X45825Y34925D02*
D03*
X47250Y38375D02*
D03*
X109250Y39650D02*
D03*
X136550Y35299D02*
D03*
X111814Y32275D02*
D03*
X142346Y14546D02*
D03*
X27675Y58075D02*
D03*
X97125Y58375D02*
D03*
X8650Y48500D02*
D03*
X68458Y56500D02*
D03*
X140775Y9100D02*
D03*
X24450Y58125D02*
D03*
X66506Y16092D02*
D03*
X136603Y29349D02*
D03*
X111814Y37100D02*
D03*
X136603Y32275D02*
D03*
D40*
X99045Y21759D02*
D03*
Y31919D02*
D03*
Y41952D02*
D03*
Y52112D02*
D03*
D41*
X63045Y31919D02*
D03*
Y21632D02*
D03*
Y41952D02*
D03*
Y52112D02*
D03*
D42*
X93999D02*
D03*
Y47159D02*
D03*
Y41952D02*
D03*
Y36872D02*
D03*
Y31919D02*
D03*
Y26839D02*
D03*
Y21759D02*
D03*
X68599Y52239D02*
D03*
Y47032D02*
D03*
Y42079D02*
D03*
Y31919D02*
D03*
Y26839D02*
D03*
Y21632D02*
D03*
D43*
X143750Y26625D02*
D03*
X143751Y36650D02*
D03*
Y46675D02*
D03*
X5300Y38300D02*
D03*
D44*
X143750Y21625D02*
D03*
X143751Y31650D02*
D03*
Y41675D02*
D03*
X5300Y43300D02*
D03*
D45*
X95175Y7205D02*
D03*
D46*
Y4665D02*
D03*
Y2125D02*
D03*
X131825Y50235D02*
D03*
Y52775D02*
D03*
D47*
Y55315D02*
D03*
D48*
X135800Y3000D02*
D03*
Y8000D02*
D03*
X129450Y3000D02*
D03*
Y8000D02*
D03*
D49*
X111401Y18850D02*
D03*
X106401D02*
D03*
X122575Y16350D02*
D03*
Y21350D02*
D03*
X50500Y38375D02*
D03*
Y26375D02*
D03*
X29928Y47467D02*
D03*
Y52467D02*
D03*
X34500Y7900D02*
D03*
Y4800D02*
D03*
X28928Y32525D02*
D03*
Y20525D02*
D03*
X37500Y25000D02*
D03*
Y30000D02*
D03*
X5500Y21000D02*
D03*
X18500D02*
D03*
X5500Y31000D02*
D03*
X18500D02*
D03*
X25700Y13800D02*
D03*
X3300D02*
D03*
X35352Y38300D02*
D03*
X12952D02*
D03*
X25077Y20525D02*
D03*
Y32525D02*
D03*
D50*
X52186Y8839D02*
D03*
X45114Y15911D02*
D03*
D51*
X105000Y47470D02*
D03*
D52*
Y26530D02*
D03*
D53*
X55540Y55150D02*
D03*
X53000D02*
D03*
X50460D02*
D03*
D54*
X53000Y48800D02*
D03*
X106750Y8200D02*
D03*
D55*
X57075Y43400D02*
D03*
X57025Y23425D02*
D03*
X13500Y4000D02*
D03*
X28500D02*
D03*
X23500D02*
D03*
X18500D02*
D03*
D56*
X109290Y1850D02*
D03*
X106750D02*
D03*
X104210D02*
D03*
D57*
X18275Y50701D02*
D03*
D58*
X11925Y48161D02*
D03*
Y50701D02*
D03*
Y53241D02*
D03*
D59*
X74100Y3450D02*
D03*
X69100D02*
D03*
X64100D02*
D03*
Y10950D02*
D03*
X69100D02*
D03*
X74100D02*
D03*
X89100Y3450D02*
D03*
D60*
Y10950D02*
D03*
D61*
X120315Y54390D02*
D03*
X125330D02*
D03*
X115275D02*
D03*
D62*
X120315Y51850D02*
D03*
Y49310D02*
D03*
X125330Y51850D02*
D03*
Y49310D02*
D03*
X115275Y51850D02*
D03*
Y49310D02*
D03*
D63*
X109200Y30000D02*
D03*
D64*
Y37100D02*
D03*
D65*
X83326Y16725D02*
D03*
X78376D02*
D03*
X33750Y17675D02*
D03*
Y12725D02*
D03*
D66*
X132625Y8000D02*
D03*
X109200Y56585D02*
D03*
X47950Y54950D02*
D03*
X39146Y49197D02*
D03*
X39250Y35950D02*
D03*
X43103Y55490D02*
D03*
X38400Y55575D02*
D03*
X40425Y46925D02*
D03*
X31728Y45677D02*
D03*
X49300Y43825D02*
D03*
X118500Y38475D02*
D03*
X120200Y42425D02*
D03*
X107309Y54050D02*
D03*
X113484Y44456D02*
D03*
X125400Y33550D02*
D03*
X104725Y56722D02*
D03*
X90655Y58470D02*
D03*
X126584Y31056D02*
D03*
X126630Y32260D02*
D03*
X121844Y27700D02*
D03*
X129580Y27792D02*
D03*
X145650Y14400D02*
D03*
X62800Y57800D02*
D03*
X38825Y47900D02*
D03*
X40425Y49625D02*
D03*
D67*
X96850Y11225D02*
D03*
X129950Y13775D02*
D03*
X123225Y11300D02*
D03*
D68*
X129855Y35299D02*
D03*
X103372Y30144D02*
D03*
X110199Y47599D02*
D03*
X111227Y52150D02*
D03*
D69*
X40175Y19600D02*
D03*
D70*
X31275Y14525D02*
D03*
Y7975D02*
D03*
X28825Y14525D02*
D03*
Y7975D02*
D03*
X36850Y3325D02*
D03*
Y9875D02*
D03*
X39300Y3325D02*
D03*
Y9875D02*
D03*
X48625D02*
D03*
Y3325D02*
D03*
X46175Y9875D02*
D03*
Y3325D02*
D03*
X41500D02*
D03*
Y9875D02*
D03*
X43950Y3325D02*
D03*
Y9875D02*
D03*
D71*
X59225Y32175D02*
D03*
X54925D02*
D03*
X40175Y17725D02*
D03*
X35875D02*
D03*
X58200Y15825D02*
D03*
X53900D02*
D03*
D72*
X128955Y39200D02*
D03*
X123555D02*
D03*
D73*
X105568Y56677D02*
D03*
X107568D02*
D03*
X107534Y58373D02*
D03*
X105534D02*
D03*
X16250Y53300D02*
D03*
X14250D02*
D03*
X128255Y55265D02*
D03*
X130255D02*
D03*
X40850Y40474D02*
D03*
X42850D02*
D03*
X40900Y36224D02*
D03*
X42900D02*
D03*
D74*
X133950Y50200D02*
D03*
Y52200D02*
D03*
X140275Y25175D02*
D03*
Y23175D02*
D03*
X121419Y41200D02*
D03*
Y39200D02*
D03*
X119655Y41200D02*
D03*
Y39200D02*
D03*
X121419Y42425D02*
D03*
Y44425D02*
D03*
X50500Y43774D02*
D03*
Y41774D02*
D03*
X38825Y41474D02*
D03*
Y43474D02*
D03*
X43424Y50774D02*
D03*
Y48774D02*
D03*
X35700Y51749D02*
D03*
Y49749D02*
D03*
D75*
X125855Y44400D02*
D03*
X127755D02*
D03*
X126805Y42400D02*
D03*
D76*
X123655Y42524D02*
D03*
Y44326D02*
D03*
X134647Y37774D02*
D03*
Y39576D02*
D03*
X131972Y37774D02*
D03*
Y39576D02*
D03*
X56900Y20776D02*
D03*
Y18974D02*
D03*
X32929Y49949D02*
D03*
Y51751D02*
D03*
X35668Y47451D02*
D03*
Y45650D02*
D03*
X32918Y47451D02*
D03*
Y45650D02*
D03*
D77*
X146247Y26075D02*
D03*
Y22575D02*
D03*
X120794Y32275D02*
D03*
Y28775D02*
D03*
X130500Y28800D02*
D03*
Y32300D02*
D03*
D78*
X55149Y26925D02*
D03*
X56951D02*
D03*
X41850Y53249D02*
D03*
X40048D02*
D03*
X125381Y35725D02*
D03*
X123579D02*
D03*
X42676Y42774D02*
D03*
X40874D02*
D03*
D79*
X37895Y50820D02*
D03*
X39165D02*
D03*
X40435D02*
D03*
X41705D02*
D03*
X37895Y45420D02*
D03*
X39165D02*
D03*
X40435D02*
D03*
X41705D02*
D03*
D80*
X15450Y42825D02*
D03*
Y47125D02*
D03*
D81*
X123389Y33530D02*
D03*
Y32260D02*
D03*
Y30990D02*
D03*
Y29720D02*
D03*
X128021D02*
D03*
Y30990D02*
D03*
Y32260D02*
D03*
D82*
Y33530D02*
D03*
D83*
X129430Y44825D02*
D03*
X132930D02*
D03*
Y42375D02*
D03*
X129430D02*
D03*
D84*
X42000Y55575D02*
D03*
X39898D02*
D03*
X42826Y38474D02*
D03*
X40724D02*
D03*
D85*
X112479Y13113D02*
D03*
X113753Y14387D02*
D03*
D86*
X34500Y8050D02*
X35925Y9475D01*
X37250Y3525D02*
X39700D01*
X39750Y3475D02*
X41725D01*
X44175D01*
X46175Y3450D02*
X48600D01*
X46175Y10025D02*
X48625D01*
X44175D02*
X46175D01*
X41725D02*
X44175D01*
D87*
X39700Y3525D02*
X39750Y3475D01*
X46107Y3407D02*
X46175Y3475D01*
X53825Y26673D02*
X54848D01*
X55100Y26925D01*
X55149D01*
X38045Y50970D02*
Y51570D01*
X38071Y51596D02*
Y52149D01*
X38602Y52681D02*
X38999D01*
X39171Y52853D02*
Y53249D01*
X40048D01*
X37895Y50820D02*
X38045Y50970D01*
Y51570D02*
X38071Y51596D01*
Y52149D02*
X38602Y52681D01*
X38999D02*
X39171Y52853D01*
X39446Y52621D02*
X40048Y53223D01*
Y53249D01*
X63045Y52239D02*
X63108Y52175D01*
X63045Y21575D02*
X63102Y21632D01*
X63045Y21575D02*
Y21632D01*
X102595Y41952D02*
X102832Y41716D01*
X68535Y52175D02*
X68599Y52239D01*
X63045Y52112D02*
Y52239D01*
Y41952D02*
X63108Y42015D01*
X68535D02*
X68599Y42079D01*
D88*
X36015Y32175D02*
X54925D01*
X26300Y41890D02*
Y48675D01*
Y41890D02*
X36015Y32175D01*
X29928Y52303D02*
Y52467D01*
X26300Y48675D02*
X29928Y52303D01*
D89*
X63102Y21632D02*
X68599D01*
X63108Y52175D02*
X68535D01*
D90*
X122107Y21243D02*
D03*
D91*
X106198Y18772D02*
D03*
D92*
X89513Y10600D02*
D03*
D93*
X50455Y26000D02*
D03*
D94*
X37775Y50757D02*
D03*
D95*
X39239Y53249D02*
D03*
D96*
X34335Y48938D02*
D03*
D97*
X29048Y46879D02*
D03*
D98*
X37287Y24775D02*
D03*
D99*
X26972Y20688D02*
D03*
D100*
X13300Y4137D02*
D03*
D101*
X144738Y26636D02*
D03*
%TF.MD5,90a683a76eb0806601152eb1656e5e16*%
M02*
