%TF.GenerationSoftware,Altium Limited,Altium Designer,21.6.4 (81)*%
G04 Layer_Physical_Order=1*
G04 Layer_Color=255*
%FSLAX43Y43*%
%MOMM*%
%TF.SameCoordinates,00D99F87-3ADF-4980-A611-A04F0DE90361*%
%TF.FilePolarity,Positive*%
%TF.FileFunction,Copper,L1,Top,Signal*%
%TF.Part,Single*%
G01*
G75*
%TA.AperFunction,SMDPad,CuDef*%
%ADD10R,3.750X9.500*%
%ADD11R,0.900X0.850*%
%ADD12R,2.000X4.000*%
%ADD13R,9.500X3.750*%
%ADD14R,1.600X1.000*%
%TA.AperFunction,Conductor*%
%ADD15C,2.000*%
%ADD16C,3.000*%
%ADD17C,1.000*%
%ADD18C,0.700*%
%ADD19C,0.500*%
%ADD20C,1.500*%
%ADD21C,0.800*%
%ADD22R,4.330X1.168*%
%ADD23R,4.780X1.250*%
%ADD24R,19.812X10.160*%
%TA.AperFunction,ComponentPad*%
%ADD25C,2.286*%
%ADD26C,2.000*%
%ADD27R,1.500X1.500*%
%ADD28C,1.500*%
%ADD29R,1.200X1.200*%
%ADD30C,1.200*%
%ADD31C,1.250*%
%ADD32R,1.250X1.250*%
%ADD33O,2.286X1.778*%
%ADD34C,4.572*%
%ADD35C,1.524*%
%ADD36O,3.048X2.794*%
%ADD37C,1.950*%
G04:AMPARAMS|DCode=38|XSize=1.95mm|YSize=1.95mm|CornerRadius=0.488mm|HoleSize=0mm|Usage=FLASHONLY|Rotation=270.000|XOffset=0mm|YOffset=0mm|HoleType=Round|Shape=RoundedRectangle|*
%AMROUNDEDRECTD38*
21,1,1.950,0.975,0,0,270.0*
21,1,0.975,1.950,0,0,270.0*
1,1,0.975,-0.488,-0.488*
1,1,0.975,-0.488,0.488*
1,1,0.975,0.488,0.488*
1,1,0.975,0.488,-0.488*
%
%ADD38ROUNDEDRECTD38*%
%ADD39C,4.000*%
%TA.AperFunction,ViaPad*%
%ADD40C,0.800*%
G36*
X140080Y59576D02*
X140020Y53636D01*
X143607Y50175D01*
X149667Y50175D01*
X149667Y10010D01*
X149576Y9920D01*
X143636Y9980D01*
X140175Y6393D01*
X140175Y333D01*
X110177Y333D01*
X110143Y460D01*
X110300Y551D01*
X110550Y801D01*
X110726Y1107D01*
X110818Y1449D01*
Y1802D01*
X110726Y2144D01*
X110550Y2450D01*
X110300Y2700D01*
X109993Y2877D01*
X109652Y2969D01*
X109298D01*
X108957Y2877D01*
X108650Y2700D01*
X108400Y2450D01*
X108332Y2332D01*
X105297D01*
X105251Y2326D01*
X104297D01*
Y926D01*
X105251D01*
X105297Y920D01*
X108332D01*
X108400Y801D01*
X108650Y551D01*
X108807Y460D01*
X108773Y333D01*
X100725Y333D01*
Y3279D01*
X100784Y3287D01*
X100889Y3289D01*
X100915Y3294D01*
X100942Y3296D01*
X101022Y3319D01*
X101071Y3325D01*
X101126Y3348D01*
X101225Y3375D01*
X101249Y3387D01*
X101274Y3396D01*
X101347Y3439D01*
X101394Y3459D01*
X101440Y3494D01*
X101527Y3545D01*
X101547Y3563D01*
X101569Y3578D01*
X101630Y3640D01*
X101671Y3671D01*
X101706Y3717D01*
X101776Y3787D01*
X101790Y3809D01*
X101808Y3829D01*
X101852Y3907D01*
X101884Y3949D01*
X101906Y4001D01*
X101954Y4085D01*
X101962Y4110D01*
X101974Y4134D01*
X101997Y4222D01*
X102018Y4271D01*
X102025Y4327D01*
X102049Y4418D01*
X102051Y4445D01*
X102056Y4471D01*
Y4564D01*
X102063Y4618D01*
X102058D01*
Y10252D01*
X120000D01*
Y11369D01*
X120117Y11418D01*
X120130Y11404D01*
X120437Y11228D01*
X120778Y11136D01*
X121132D01*
X121473Y11228D01*
X121780Y11404D01*
X122030Y11654D01*
X122207Y11961D01*
X122298Y12302D01*
Y12656D01*
X122207Y12997D01*
X122030Y13304D01*
X121780Y13554D01*
X121473Y13731D01*
X121132Y13822D01*
X120778D01*
X120437Y13731D01*
X120130Y13554D01*
X120117Y13541D01*
X120000Y13589D01*
Y21317D01*
X120127Y21334D01*
X120161Y21207D01*
X120338Y20900D01*
X120588Y20650D01*
X120894Y20474D01*
X121236Y20382D01*
X121589D01*
X121931Y20474D01*
X122237Y20650D01*
X122286Y20699D01*
X122393Y20626D01*
X122393Y20533D01*
Y19000D01*
X124043D01*
Y20650D01*
X122517D01*
X122416Y20650D01*
X122343Y20757D01*
X122487Y20900D01*
X122664Y21207D01*
X122756Y21548D01*
Y21902D01*
X122741Y21955D01*
X122841Y22075D01*
X126908D01*
Y31975D01*
X122758D01*
Y28058D01*
X120000D01*
Y48000D01*
X118570D01*
X118506Y48110D01*
X118576Y48232D01*
X118668Y48573D01*
Y48927D01*
X118576Y49268D01*
X118400Y49575D01*
X118150Y49825D01*
X117843Y50001D01*
X117502Y50093D01*
X117148D01*
X116807Y50001D01*
X116500Y49825D01*
X116250Y49575D01*
X116074Y49268D01*
X115982Y48927D01*
Y48573D01*
X116074Y48232D01*
X116144Y48110D01*
X116080Y48000D01*
X100725D01*
Y59667D01*
X139990Y59667D01*
X140080Y59576D01*
D02*
G37*
%LPC*%
G36*
X137620Y55993D02*
X137600D01*
Y54850D01*
X138743D01*
Y54870D01*
X138655Y55199D01*
X138485Y55494D01*
X138244Y55735D01*
X137949Y55905D01*
X137620Y55993D01*
D02*
G37*
G36*
X137300D02*
X137280D01*
X136951Y55905D01*
X136656Y55735D01*
X136415Y55494D01*
X136245Y55199D01*
X136157Y54870D01*
Y54850D01*
X137300D01*
Y55993D01*
D02*
G37*
G36*
X138743Y54550D02*
X137600D01*
Y53407D01*
X137620D01*
X137949Y53495D01*
X138244Y53665D01*
X138485Y53906D01*
X138655Y54201D01*
X138743Y54530D01*
Y54550D01*
D02*
G37*
G36*
X137300D02*
X136157D01*
Y54530D01*
X136245Y54201D01*
X136415Y53906D01*
X136656Y53665D01*
X136951Y53495D01*
X137280Y53407D01*
X137300D01*
Y54550D01*
D02*
G37*
G36*
X131526Y54100D02*
X131525D01*
Y53100D01*
X132525D01*
Y53101D01*
X132447Y53394D01*
X132295Y53656D01*
X132081Y53870D01*
X131819Y54022D01*
X131526Y54100D01*
D02*
G37*
G36*
X131225D02*
X131224D01*
X130931Y54022D01*
X130669Y53870D01*
X130455Y53656D01*
X130303Y53394D01*
X130225Y53101D01*
Y53100D01*
X131225D01*
Y54100D01*
D02*
G37*
G36*
X132525Y52800D02*
X131525D01*
Y51800D01*
X131526D01*
X131819Y51878D01*
X132081Y52030D01*
X132295Y52244D01*
X132447Y52506D01*
X132525Y52799D01*
Y52800D01*
D02*
G37*
G36*
X131225D02*
X130225D01*
Y52799D01*
X130303Y52506D01*
X130455Y52244D01*
X130669Y52030D01*
X130931Y51878D01*
X131224Y51800D01*
X131225D01*
Y52800D01*
D02*
G37*
G36*
X112075Y52975D02*
X102175D01*
Y48825D01*
X112075D01*
Y49730D01*
X113007D01*
X113050Y49687D01*
X113357Y49510D01*
X113698Y49418D01*
X114052D01*
X114393Y49510D01*
X114700Y49687D01*
X114950Y49937D01*
X115126Y50243D01*
X115218Y50585D01*
Y50938D01*
X115126Y51280D01*
X114950Y51586D01*
X114700Y51836D01*
X114393Y52013D01*
X114052Y52104D01*
X113698D01*
X113357Y52013D01*
X113050Y51836D01*
X112861Y51647D01*
X112075D01*
Y52975D01*
D02*
G37*
G36*
X144291Y42250D02*
X143982D01*
X143683Y42170D01*
X143415Y42015D01*
X143196Y41796D01*
X143041Y41528D01*
X142961Y41229D01*
Y40920D01*
X143041Y40621D01*
X143196Y40353D01*
X143415Y40135D01*
X143683Y39980D01*
X143982Y39900D01*
X144291D01*
X144590Y39980D01*
X144858Y40135D01*
X145077Y40353D01*
X145231Y40621D01*
X145311Y40920D01*
Y41229D01*
X145231Y41528D01*
X145077Y41796D01*
X144858Y42015D01*
X144590Y42170D01*
X144291Y42250D01*
D02*
G37*
G36*
X131431Y40523D02*
X131430D01*
Y39523D01*
X132430D01*
Y39524D01*
X132352Y39817D01*
X132200Y40079D01*
X131986Y40293D01*
X131724Y40445D01*
X131431Y40523D01*
D02*
G37*
G36*
X131130D02*
X131129D01*
X130836Y40445D01*
X130574Y40293D01*
X130360Y40079D01*
X130208Y39817D01*
X130130Y39524D01*
Y39523D01*
X131130D01*
Y40523D01*
D02*
G37*
G36*
X132430Y39223D02*
X131430D01*
Y38223D01*
X131431D01*
X131724Y38301D01*
X131986Y38453D01*
X132200Y38667D01*
X132352Y38929D01*
X132430Y39222D01*
Y39223D01*
D02*
G37*
G36*
X131130D02*
X130130D01*
Y39222D01*
X130208Y38929D01*
X130360Y38667D01*
X130574Y38453D01*
X130836Y38301D01*
X131129Y38223D01*
X131130D01*
Y39223D01*
D02*
G37*
G36*
X112075Y59225D02*
X102175D01*
Y55075D01*
X112075D01*
Y55465D01*
X122149D01*
X125165Y52449D01*
Y39841D01*
X125162Y39836D01*
X125141Y39760D01*
X125111Y39686D01*
X125101Y39608D01*
X125080Y39531D01*
Y39452D01*
X125070Y39373D01*
X125080Y39294D01*
Y39215D01*
X125101Y39138D01*
X125111Y39060D01*
X125141Y38986D01*
X125162Y38910D01*
X125201Y38841D01*
X125232Y38768D01*
X125280Y38705D01*
X125320Y38636D01*
X125376Y38580D01*
X125424Y38517D01*
X125487Y38469D01*
X125543Y38413D01*
X125612Y38373D01*
X125675Y38325D01*
X125748Y38294D01*
X125817Y38255D01*
X125893Y38234D01*
X125967Y38204D01*
X126045Y38194D01*
X126122Y38173D01*
X126201D01*
X126280Y38163D01*
X126359Y38173D01*
X126438D01*
X126515Y38194D01*
X126593Y38204D01*
X126667Y38234D01*
X126743Y38255D01*
X126812Y38294D01*
X126885Y38325D01*
X126948Y38373D01*
X127017Y38413D01*
X127073Y38469D01*
X127136Y38517D01*
X127231Y38612D01*
X127423Y38863D01*
X127544Y39155D01*
X127585Y39468D01*
Y52950D01*
X127575Y53029D01*
Y53108D01*
X127554Y53185D01*
X127544Y53263D01*
X127514Y53337D01*
X127493Y53413D01*
X127454Y53482D01*
X127423Y53555D01*
X127375Y53618D01*
X127335Y53687D01*
X127279Y53743D01*
X127231Y53806D01*
X123506Y57531D01*
X123255Y57723D01*
X122963Y57844D01*
X122650Y57885D01*
X112075D01*
Y59225D01*
D02*
G37*
G36*
X144624Y37256D02*
X143649D01*
X143469Y37232D01*
X143302Y37163D01*
X143158Y37053D01*
X143048Y36909D01*
X142979Y36742D01*
X142955Y36562D01*
Y35587D01*
X142979Y35408D01*
X143048Y35241D01*
X143158Y35097D01*
X143302Y34987D01*
X143469Y34917D01*
X143649Y34894D01*
X144624D01*
X144803Y34917D01*
X144971Y34987D01*
X145114Y35097D01*
X145224Y35241D01*
X145294Y35408D01*
X145317Y35587D01*
Y36562D01*
X145294Y36742D01*
X145224Y36909D01*
X145114Y37053D01*
X144971Y37163D01*
X144803Y37232D01*
X144624Y37256D01*
D02*
G37*
G36*
X144291Y30575D02*
X143982D01*
X143683Y30495D01*
X143415Y30340D01*
X143196Y30121D01*
X143041Y29854D01*
X142961Y29555D01*
Y29245D01*
X143041Y28946D01*
X143196Y28679D01*
X143415Y28460D01*
X143683Y28305D01*
X143982Y28225D01*
X144291D01*
X144590Y28305D01*
X144858Y28460D01*
X145077Y28679D01*
X145231Y28946D01*
X145311Y29245D01*
Y29555D01*
X145231Y29854D01*
X145077Y30121D01*
X144858Y30340D01*
X144590Y30495D01*
X144291Y30575D01*
D02*
G37*
G36*
X133108Y31925D02*
X131233D01*
Y27175D01*
X133108D01*
Y31925D01*
D02*
G37*
G36*
X130933D02*
X129058D01*
Y27175D01*
X130933D01*
Y31925D01*
D02*
G37*
G36*
X135050Y26400D02*
X134600D01*
Y25975D01*
X135050D01*
Y26400D01*
D02*
G37*
G36*
X134300D02*
X133850D01*
Y25975D01*
X134300D01*
Y26400D01*
D02*
G37*
G36*
X135050Y25675D02*
X134600D01*
Y25250D01*
X135050D01*
Y25675D01*
D02*
G37*
G36*
X134300D02*
X133850D01*
Y25250D01*
X134300D01*
Y25675D01*
D02*
G37*
G36*
X144624Y25581D02*
X143649D01*
X143469Y25557D01*
X143302Y25488D01*
X143158Y25378D01*
X143048Y25234D01*
X143017Y25159D01*
X138321D01*
X138138Y25135D01*
X137968Y25065D01*
X137822Y24952D01*
X135000Y22130D01*
X134882Y22193D01*
X134909Y22325D01*
Y23650D01*
X135100D01*
Y24900D01*
X133800D01*
Y23650D01*
X133991D01*
Y22515D01*
X132601Y21125D01*
X132531D01*
X132310Y21034D01*
X132141Y20865D01*
X132050Y20644D01*
Y20406D01*
X132141Y20185D01*
X132310Y20016D01*
X132531Y19925D01*
X132769D01*
X132990Y20016D01*
X133159Y20185D01*
X133250Y20406D01*
Y20476D01*
X133989Y21215D01*
X134096Y21143D01*
X134061Y21058D01*
X134037Y20875D01*
X134061Y20692D01*
X134132Y20522D01*
X134244Y20376D01*
X134390Y20264D01*
X134560Y20193D01*
X134743Y20169D01*
X134926Y20193D01*
X135096Y20264D01*
X135242Y20376D01*
X138614Y23747D01*
X142977D01*
X142979Y23733D01*
X143048Y23566D01*
X143158Y23422D01*
X143302Y23312D01*
X143469Y23243D01*
X143649Y23219D01*
X144624D01*
X144803Y23243D01*
X144971Y23312D01*
X145114Y23422D01*
X145224Y23566D01*
X145294Y23733D01*
X145317Y23913D01*
Y24888D01*
X145294Y25067D01*
X145224Y25234D01*
X145114Y25378D01*
X144971Y25488D01*
X144803Y25557D01*
X144624Y25581D01*
D02*
G37*
G36*
X133108Y26875D02*
X131233D01*
Y22125D01*
X133108D01*
Y26875D01*
D02*
G37*
G36*
X130933D02*
X129058D01*
Y22125D01*
X130933D01*
Y26875D01*
D02*
G37*
G36*
X130468Y20587D02*
Y19975D01*
X131080D01*
X131040Y20124D01*
X130938Y20301D01*
X130793Y20445D01*
X130617Y20547D01*
X130468Y20587D01*
D02*
G37*
G36*
X130168D02*
X130018Y20547D01*
X129842Y20445D01*
X129697Y20301D01*
X129595Y20124D01*
X129555Y19975D01*
X130168D01*
Y20587D01*
D02*
G37*
G36*
X131080Y19675D02*
X130468D01*
Y19063D01*
X130617Y19103D01*
X130793Y19205D01*
X130938Y19349D01*
X131040Y19526D01*
X131080Y19675D01*
D02*
G37*
G36*
X130168D02*
X129555D01*
X129595Y19526D01*
X129697Y19349D01*
X129842Y19205D01*
X130018Y19103D01*
X130168Y19063D01*
Y19675D01*
D02*
G37*
G36*
X130468Y18462D02*
Y17850D01*
X131080D01*
X131040Y17999D01*
X130938Y18176D01*
X130793Y18320D01*
X130617Y18422D01*
X130468Y18462D01*
D02*
G37*
G36*
X130168D02*
X130018Y18422D01*
X129842Y18320D01*
X129697Y18176D01*
X129595Y17999D01*
X129555Y17850D01*
X130168D01*
Y18462D01*
D02*
G37*
G36*
X131080Y17550D02*
X130468D01*
Y16938D01*
X130617Y16978D01*
X130793Y17080D01*
X130938Y17224D01*
X131040Y17401D01*
X131080Y17550D01*
D02*
G37*
G36*
X130168D02*
X129555D01*
X129595Y17401D01*
X129697Y17224D01*
X129842Y17080D01*
X130018Y16978D01*
X130168Y16938D01*
Y17550D01*
D02*
G37*
G36*
X124043Y18525D02*
X122393D01*
Y16875D01*
X124043D01*
Y18525D01*
D02*
G37*
G36*
X145399Y18165D02*
X145149D01*
X144907Y18100D01*
X144690Y17975D01*
X144513Y17798D01*
X144388Y17582D01*
X144324Y17340D01*
Y17090D01*
X144388Y16848D01*
X144513Y16632D01*
X144690Y16455D01*
X144907Y16330D01*
X145149Y16265D01*
X145399D01*
X145640Y16330D01*
X145857Y16455D01*
X146034Y16632D01*
X146159Y16848D01*
X146224Y17090D01*
Y17340D01*
X146159Y17582D01*
X146034Y17798D01*
X145857Y17975D01*
X145640Y18100D01*
X145399Y18165D01*
D02*
G37*
G36*
X139255Y16500D02*
X139017D01*
X138796Y16409D01*
X138746Y16359D01*
X133000D01*
X132824Y16324D01*
X132676Y16224D01*
X128331Y11879D01*
X128231Y11731D01*
X128196Y11555D01*
Y4092D01*
X127855D01*
Y2492D01*
X129455D01*
Y4092D01*
X129114D01*
Y11365D01*
X133190Y15441D01*
X138746D01*
X138796Y15391D01*
X139017Y15300D01*
X139255D01*
X139476Y15391D01*
X139645Y15560D01*
X139736Y15781D01*
Y16019D01*
X139645Y16240D01*
X139476Y16409D01*
X139255Y16500D01*
D02*
G37*
G36*
X145424Y15567D02*
Y14825D01*
X146165D01*
X146112Y15022D01*
X145994Y15228D01*
X145826Y15395D01*
X145621Y15514D01*
X145424Y15567D01*
D02*
G37*
G36*
X145124Y15567D02*
X144926Y15514D01*
X144721Y15395D01*
X144553Y15228D01*
X144435Y15022D01*
X144382Y14825D01*
X145124D01*
Y15567D01*
D02*
G37*
G36*
X127327Y16743D02*
X126973D01*
X126632Y16651D01*
X126325Y16475D01*
X126075Y16225D01*
X125899Y15918D01*
X125807Y15577D01*
Y15223D01*
X125899Y14882D01*
X126075Y14575D01*
X126325Y14325D01*
X126632Y14149D01*
X126973Y14057D01*
X127327D01*
X127668Y14149D01*
X127975Y14325D01*
X128225Y14575D01*
X128401Y14882D01*
X128493Y15223D01*
Y15577D01*
X128401Y15918D01*
X128225Y16225D01*
X127975Y16475D01*
X127668Y16651D01*
X127327Y16743D01*
D02*
G37*
G36*
X145124Y14525D02*
X144382D01*
X144435Y14328D01*
X144553Y14122D01*
X144721Y13955D01*
X144926Y13836D01*
X145124Y13783D01*
Y14525D01*
D02*
G37*
G36*
X146165D02*
X145424D01*
Y13783D01*
X145621Y13836D01*
X145826Y13955D01*
X145994Y14122D01*
X146112Y14328D01*
X146165Y14525D01*
D02*
G37*
G36*
X135827Y14043D02*
X135473D01*
X135132Y13951D01*
X134825Y13775D01*
X134575Y13525D01*
X134399Y13218D01*
X134307Y12877D01*
Y12523D01*
X134399Y12182D01*
X134575Y11875D01*
X134825Y11625D01*
X135132Y11449D01*
X135473Y11357D01*
X135827D01*
X136168Y11449D01*
X136475Y11625D01*
X136725Y11875D01*
X136901Y12182D01*
X136993Y12523D01*
Y12877D01*
X136901Y13218D01*
X136725Y13525D01*
X136475Y13775D01*
X136168Y13951D01*
X135827Y14043D01*
D02*
G37*
G36*
X146224Y13085D02*
X144324D01*
Y11185D01*
X146224D01*
Y13085D01*
D02*
G37*
G36*
X147352Y47493D02*
X146998D01*
X146657Y47401D01*
X146350Y47225D01*
X146100Y46975D01*
X145924Y46668D01*
X145832Y46327D01*
Y45973D01*
X145924Y45632D01*
X146100Y45325D01*
X146350Y45075D01*
X146657Y44899D01*
X146716Y44883D01*
Y23616D01*
X142509Y19409D01*
X134349D01*
X134174Y19374D01*
X134025Y19274D01*
X126922Y12172D01*
X126885D01*
X126664Y12081D01*
X126495Y11912D01*
X126404Y11691D01*
Y11453D01*
X126495Y11232D01*
X126664Y11063D01*
X126885Y10972D01*
X127123D01*
X127344Y11063D01*
X127513Y11232D01*
X127604Y11453D01*
Y11556D01*
X134539Y18491D01*
X142699D01*
X142874Y18526D01*
X143023Y18626D01*
X147499Y23102D01*
X147599Y23251D01*
X147634Y23426D01*
Y44883D01*
X147693Y44899D01*
X148000Y45075D01*
X148250Y45325D01*
X148426Y45632D01*
X148518Y45973D01*
Y46327D01*
X148426Y46668D01*
X148250Y46975D01*
X148000Y47225D01*
X147693Y47401D01*
X147352Y47493D01*
D02*
G37*
G36*
X103347Y9134D02*
Y8380D01*
X104101D01*
X104047Y8582D01*
X103927Y8790D01*
X103757Y8959D01*
X103549Y9079D01*
X103347Y9134D01*
D02*
G37*
G36*
X103047D02*
X102845Y9079D01*
X102637Y8959D01*
X102467Y8790D01*
X102347Y8582D01*
X102293Y8380D01*
X103047D01*
Y9134D01*
D02*
G37*
G36*
X136420Y8733D02*
X136400D01*
Y7590D01*
X137543D01*
Y7610D01*
X137455Y7939D01*
X137285Y8234D01*
X137044Y8475D01*
X136749Y8645D01*
X136420Y8733D01*
D02*
G37*
G36*
X136100D02*
X136080D01*
X135751Y8645D01*
X135456Y8475D01*
X135215Y8234D01*
X135045Y7939D01*
X134957Y7610D01*
Y7590D01*
X136100D01*
Y8733D01*
D02*
G37*
G36*
X104101Y8080D02*
X103347D01*
Y7326D01*
X103549Y7380D01*
X103757Y7500D01*
X103927Y7670D01*
X104047Y7878D01*
X104101Y8080D01*
D02*
G37*
G36*
X103047D02*
X102293D01*
X102347Y7878D01*
X102467Y7670D01*
X102637Y7500D01*
X102845Y7380D01*
X103047Y7326D01*
Y8080D01*
D02*
G37*
G36*
X137543Y7290D02*
X136400D01*
Y6147D01*
X136420D01*
X136749Y6235D01*
X137044Y6405D01*
X137285Y6646D01*
X137455Y6941D01*
X137543Y7270D01*
Y7290D01*
D02*
G37*
G36*
X136100D02*
X134957D01*
Y7270D01*
X135045Y6941D01*
X135215Y6646D01*
X135456Y6405D01*
X135751Y6235D01*
X136080Y6147D01*
X136100D01*
Y7290D01*
D02*
G37*
G36*
X118077Y8811D02*
X117723D01*
X117382Y8719D01*
X117075Y8542D01*
X116825Y8292D01*
X116649Y7986D01*
X116557Y7644D01*
Y7291D01*
X116649Y6949D01*
X116825Y6643D01*
X117075Y6393D01*
X117382Y6216D01*
X117723Y6125D01*
X118077D01*
X118418Y6216D01*
X118725Y6393D01*
X118975Y6643D01*
X119151Y6949D01*
X119243Y7291D01*
Y7644D01*
X119151Y7986D01*
X118975Y8292D01*
X118725Y8542D01*
X118418Y8719D01*
X118077Y8811D01*
D02*
G37*
G36*
X107575Y7487D02*
X107516Y7475D01*
X107456D01*
X107400Y7452D01*
X107341Y7440D01*
X107291Y7407D01*
X107235Y7384D01*
X107193Y7341D01*
X107142Y7308D01*
X107109Y7257D01*
X107066Y7215D01*
X107043Y7159D01*
X107010Y7109D01*
X106998Y7050D01*
X106975Y6994D01*
Y6934D01*
X106963Y6875D01*
Y6350D01*
X106925D01*
Y5100D01*
X108225D01*
Y6350D01*
X108187D01*
Y6875D01*
X108175Y6934D01*
Y6994D01*
X108152Y7050D01*
X108140Y7109D01*
X108107Y7159D01*
X108084Y7215D01*
X108041Y7257D01*
X108008Y7308D01*
X107957Y7341D01*
X107915Y7384D01*
X107859Y7407D01*
X107809Y7440D01*
X107750Y7452D01*
X107694Y7475D01*
X107634D01*
X107575Y7487D01*
D02*
G37*
G36*
X108175Y4750D02*
X107725D01*
Y4325D01*
X108175D01*
Y4750D01*
D02*
G37*
G36*
X107425D02*
X106975D01*
Y4325D01*
X107425D01*
Y4750D01*
D02*
G37*
G36*
X106247Y4816D02*
X105447D01*
Y4316D01*
X106247D01*
Y4816D01*
D02*
G37*
G36*
X105147D02*
X104347D01*
Y4316D01*
X105147D01*
Y4816D01*
D02*
G37*
G36*
X108175Y4025D02*
X107725D01*
Y3600D01*
X108175D01*
Y4025D01*
D02*
G37*
G36*
X107425D02*
X106975D01*
Y3600D01*
X107425D01*
Y4025D01*
D02*
G37*
G36*
X106247Y4016D02*
X105447D01*
Y3516D01*
X106247D01*
Y4016D01*
D02*
G37*
G36*
X105147D02*
X104347D01*
Y3516D01*
X105147D01*
Y4016D01*
D02*
G37*
G36*
X116110Y4051D02*
Y3465D01*
X116696D01*
X116659Y3604D01*
X116560Y3775D01*
X116421Y3915D01*
X116249Y4014D01*
X116110Y4051D01*
D02*
G37*
G36*
X113570D02*
Y3465D01*
X114156D01*
X114119Y3604D01*
X114020Y3775D01*
X113881Y3915D01*
X113709Y4014D01*
X113570Y4051D01*
D02*
G37*
G36*
X113270Y4051D02*
X113131Y4014D01*
X112959Y3915D01*
X112820Y3775D01*
X112721Y3604D01*
X112684Y3465D01*
X113270D01*
Y4051D01*
D02*
G37*
G36*
X115810D02*
X115671Y4014D01*
X115499Y3915D01*
X115360Y3775D01*
X115261Y3604D01*
X115224Y3465D01*
X115810D01*
Y4051D01*
D02*
G37*
G36*
X133860Y4033D02*
Y3447D01*
X134446D01*
X134409Y3586D01*
X134310Y3757D01*
X134171Y3897D01*
X133999Y3996D01*
X133860Y4033D01*
D02*
G37*
G36*
X133560Y4033D02*
X133421Y3996D01*
X133249Y3897D01*
X133110Y3757D01*
X133011Y3586D01*
X132974Y3447D01*
X133560D01*
Y4033D01*
D02*
G37*
G36*
X123725Y4028D02*
Y3442D01*
X124311D01*
X124274Y3581D01*
X124175Y3752D01*
X124036Y3892D01*
X123864Y3991D01*
X123725Y4028D01*
D02*
G37*
G36*
X123425Y4028D02*
X123286Y3991D01*
X123114Y3892D01*
X122975Y3752D01*
X122876Y3581D01*
X122839Y3442D01*
X123425D01*
Y4028D01*
D02*
G37*
G36*
X113270Y3165D02*
X112684D01*
X112721Y3025D01*
X112820Y2854D01*
X112959Y2715D01*
X113131Y2616D01*
X113270Y2579D01*
Y3165D01*
D02*
G37*
G36*
X115810D02*
X115224D01*
X115261Y3025D01*
X115360Y2854D01*
X115499Y2715D01*
X115671Y2616D01*
X115810Y2579D01*
Y3165D01*
D02*
G37*
G36*
X116696D02*
X116110D01*
Y2579D01*
X116249Y2616D01*
X116421Y2715D01*
X116560Y2854D01*
X116659Y3025D01*
X116696Y3165D01*
D02*
G37*
G36*
X114156D02*
X113570D01*
Y2579D01*
X113709Y2616D01*
X113881Y2715D01*
X114020Y2854D01*
X114119Y3025D01*
X114156Y3165D01*
D02*
G37*
G36*
X133560Y3147D02*
X132974D01*
X133011Y3007D01*
X133110Y2836D01*
X133249Y2697D01*
X133421Y2598D01*
X133560Y2561D01*
Y3147D01*
D02*
G37*
G36*
X134446D02*
X133860D01*
Y2561D01*
X133999Y2598D01*
X134171Y2697D01*
X134310Y2836D01*
X134409Y3007D01*
X134446Y3147D01*
D02*
G37*
G36*
X123425Y3142D02*
X122839D01*
X122876Y3002D01*
X122975Y2831D01*
X123114Y2692D01*
X123286Y2593D01*
X123425Y2556D01*
Y3142D01*
D02*
G37*
G36*
X124311D02*
X123725D01*
Y2556D01*
X123864Y2593D01*
X124036Y2692D01*
X124175Y2831D01*
X124274Y3002D01*
X124311Y3142D01*
D02*
G37*
G36*
X139590Y4097D02*
X137990D01*
Y2497D01*
X139590D01*
Y4097D01*
D02*
G37*
G36*
X131437Y12643D02*
X131083D01*
X130742Y12551D01*
X130435Y12375D01*
X130185Y12125D01*
X130009Y11818D01*
X129917Y11477D01*
Y11123D01*
X130009Y10782D01*
X130185Y10475D01*
X130435Y10225D01*
X130742Y10049D01*
X131083Y9957D01*
X131437D01*
X131778Y10049D01*
X131876Y10105D01*
X133306Y8675D01*
Y5782D01*
X133341Y5607D01*
X133440Y5458D01*
X135460Y3438D01*
X135450Y3402D01*
Y3192D01*
X135505Y2988D01*
X135610Y2806D01*
X135759Y2657D01*
X135941Y2551D01*
X136145Y2497D01*
X136355D01*
X136559Y2551D01*
X136741Y2657D01*
X136890Y2806D01*
X136995Y2988D01*
X137050Y3192D01*
Y3402D01*
X136995Y3606D01*
X136890Y3788D01*
X136741Y3937D01*
X136559Y4042D01*
X136355Y4097D01*
X136145D01*
X136109Y4087D01*
X134224Y5972D01*
Y8865D01*
X134189Y9041D01*
X134089Y9190D01*
X132506Y10773D01*
X132511Y10782D01*
X132603Y11123D01*
Y11477D01*
X132511Y11818D01*
X132335Y12125D01*
X132085Y12375D01*
X131778Y12551D01*
X131437Y12643D01*
D02*
G37*
G36*
X120952Y8783D02*
X120598D01*
X120257Y8691D01*
X119950Y8515D01*
X119700Y8265D01*
X119524Y7958D01*
X119432Y7617D01*
Y7263D01*
X119524Y6922D01*
X119700Y6615D01*
X119950Y6365D01*
X120257Y6189D01*
X120598Y6097D01*
X120952D01*
X121293Y6189D01*
X121600Y6365D01*
X121850Y6615D01*
X122026Y6922D01*
X122038Y6963D01*
X123219D01*
X125554Y4628D01*
Y3863D01*
X125475Y3783D01*
X125370Y3601D01*
X125315Y3397D01*
Y3187D01*
X125370Y2983D01*
X125475Y2801D01*
X125624Y2652D01*
X125806Y2546D01*
X126010Y2492D01*
X126220D01*
X126424Y2546D01*
X126606Y2652D01*
X126755Y2801D01*
X126860Y2983D01*
X126915Y3187D01*
Y3397D01*
X126860Y3601D01*
X126755Y3783D01*
X126676Y3863D01*
Y4860D01*
X126633Y5075D01*
X126512Y5257D01*
X123848Y7920D01*
X123666Y8042D01*
X123451Y8085D01*
X121954D01*
X121850Y8265D01*
X121600Y8515D01*
X121293Y8691D01*
X120952Y8783D01*
D02*
G37*
G36*
X131393Y8743D02*
X131040D01*
X130698Y8651D01*
X130392Y8475D01*
X130142Y8225D01*
X129965Y7918D01*
X129873Y7577D01*
Y7223D01*
X129965Y6882D01*
X130142Y6575D01*
X130392Y6325D01*
X130698Y6149D01*
X130741Y6137D01*
Y3340D01*
X129335Y1934D01*
X122661D01*
X120955Y3639D01*
X120806Y3739D01*
X120631Y3774D01*
X119300D01*
Y4115D01*
X117700D01*
Y2515D01*
X119300D01*
Y2856D01*
X120441D01*
X122146Y1151D01*
X122295Y1051D01*
X122471Y1016D01*
X129525D01*
X129701Y1051D01*
X129849Y1151D01*
X131524Y2826D01*
X131624Y2974D01*
X131659Y3150D01*
Y6128D01*
X131735Y6149D01*
X132041Y6325D01*
X132291Y6575D01*
X132468Y6882D01*
X132559Y7223D01*
Y7577D01*
X132468Y7918D01*
X132291Y8225D01*
X132041Y8475D01*
X131735Y8651D01*
X131393Y8743D01*
D02*
G37*
%LPD*%
D10*
X131083Y27025D02*
D03*
X124833D02*
D03*
D11*
X107575Y5725D02*
D03*
Y4175D02*
D03*
X134450Y24275D02*
D03*
Y25825D02*
D03*
D12*
X44141Y12325D02*
D03*
Y19425D02*
D03*
D13*
X107125Y50900D02*
D03*
Y57150D02*
D03*
D14*
X96147Y1626D02*
D03*
X105297Y4166D02*
D03*
X96147D02*
D03*
X105297Y1626D02*
D03*
D15*
X64675Y14559D02*
X65725Y15609D01*
X64675Y6100D02*
X65725Y5050D01*
Y15609D02*
Y16150D01*
X5068Y40825D02*
X10766Y46524D01*
X121350Y21990D02*
X121358Y21982D01*
X121350Y21990D02*
Y26350D01*
X121358Y21857D02*
Y21982D01*
X37641Y3697D02*
Y7837D01*
X80793Y53604D02*
X88600D01*
Y53611D01*
Y44450D02*
Y53604D01*
Y53611D02*
X88625Y53636D01*
X88575Y44425D02*
X88600Y44450D01*
X88625Y53604D02*
Y53636D01*
X49641Y3697D02*
Y7837D01*
X126375Y39468D02*
Y52950D01*
X126280Y39373D02*
X126375Y39468D01*
X122650Y56675D02*
X126375Y52950D01*
X107250Y56675D02*
X122650D01*
X33489Y46524D02*
X35427Y44586D01*
Y42202D02*
Y44586D01*
X1975Y37733D02*
X5068Y40825D01*
X80793Y41421D02*
Y51064D01*
X78022Y38650D02*
X80793Y41421D01*
X5127Y20525D02*
X8825Y24223D01*
X5068Y32757D02*
X8825Y29000D01*
Y24223D02*
Y29000D01*
X15750Y18225D02*
X26266Y28741D01*
X34768D01*
X38280Y20911D02*
Y31445D01*
X35595Y18225D02*
X38280Y20911D01*
X35553Y18225D02*
X35595D01*
X1975Y28677D02*
Y37733D01*
Y28677D02*
X5127Y25525D01*
X13027Y43524D02*
X15340Y41211D01*
Y35849D02*
Y41211D01*
X33375Y40150D02*
X35427Y42202D01*
X30650Y40150D02*
X33375D01*
X60600Y53604D02*
X80793D01*
X42400Y18425D02*
X44141D01*
X88093Y13982D02*
Y13982D01*
X37968Y7837D02*
X40125Y9994D01*
Y16150D01*
X37641Y7837D02*
X37968D01*
X44141Y19425D02*
Y19534D01*
Y18425D02*
Y19425D01*
Y12325D02*
Y12434D01*
Y9834D02*
Y12325D01*
X40125Y16150D02*
X42400Y18425D01*
X46138Y7837D02*
X49599D01*
X44141Y9834D02*
X46138Y7837D01*
X107025Y56900D02*
X107250Y56675D01*
X55961Y42194D02*
X59505Y38650D01*
X55961Y42194D02*
Y43850D01*
X45367Y33008D02*
X47594D01*
X42450Y35925D02*
Y42024D01*
Y35925D02*
X45367Y33008D01*
X44141Y19534D02*
Y22491D01*
X32000Y18225D02*
X35553D01*
X34794Y33008D02*
X36717D01*
X38280Y31445D01*
X34794Y32931D02*
Y33008D01*
Y32931D02*
Y37275D01*
X28340Y21885D02*
Y25849D01*
Y21885D02*
X32000Y18225D01*
X13153D02*
X15750D01*
X34768Y24448D02*
Y28741D01*
X13153Y23662D02*
X15340Y25849D01*
X13153Y18225D02*
Y23662D01*
X28340Y37840D02*
X30650Y40150D01*
X28340Y35849D02*
Y37840D01*
X5068Y32757D02*
Y35825D01*
X15316D02*
X15340Y35849D01*
X5068Y35825D02*
X15316D01*
D16*
X64675Y6100D02*
Y14559D01*
X121350Y26350D02*
X125150D01*
X113925D02*
X121350D01*
X45357Y45124D02*
X47403Y43078D01*
X113875Y26350D02*
X113925D01*
X52750Y35750D02*
Y37725D01*
Y35750D02*
X62350Y26150D01*
X65725D01*
X47400Y43075D02*
X52750Y37725D01*
X10766Y46524D02*
X33489D01*
X46098Y24448D02*
X51427D01*
X59685Y16190D02*
X65685D01*
X51427Y24448D02*
X59685Y16190D01*
X113925Y26350D02*
Y29008D01*
X113875Y24205D02*
Y26350D01*
X42450Y45124D02*
X45357D01*
X44141Y22491D02*
X46098Y24448D01*
D17*
X55950Y5450D02*
Y6925D01*
X52348Y1848D02*
X55950Y5450D01*
X138321Y24453D02*
X144437D01*
X134743Y20875D02*
X138321Y24453D01*
X80525Y7425D02*
X82925D01*
X67675Y9500D02*
X78450D01*
X80525Y7425D01*
X74961Y16464D02*
X81025Y10400D01*
X74961Y16464D02*
Y43850D01*
X21915Y7251D02*
Y7294D01*
X27481Y12860D01*
X82950Y7500D02*
Y21207D01*
X85848Y24105D02*
X88575D01*
X82950Y21207D02*
X85848Y24105D01*
X27481Y12860D02*
X37000D01*
X105297Y1626D02*
X109326D01*
X109450Y1750D01*
X107566Y4166D02*
X107575Y4175D01*
X105297Y4166D02*
X107566D01*
X103197Y8230D02*
X105297Y6130D01*
Y4166D02*
Y6130D01*
D18*
X120209Y7524D02*
X123451D01*
X126115Y3292D02*
Y4860D01*
X123451Y7524D02*
X126115Y4860D01*
X120226Y7580D02*
X120284Y7639D01*
X71533Y31500D02*
X71550Y31483D01*
Y14650D02*
Y31483D01*
X67675Y10775D02*
X71550Y14650D01*
D19*
X134450Y24275D02*
Y24350D01*
Y22325D02*
Y24275D01*
X132650Y20525D02*
X134450Y22325D01*
X127004Y11605D02*
X134349Y18950D01*
X142699D02*
X147175Y23426D01*
X134349Y18950D02*
X142699D01*
X147175Y23426D02*
Y46150D01*
X128655Y3292D02*
Y11555D01*
X133000Y15900D02*
X139136D01*
X128655Y11555D02*
X133000Y15900D01*
X133765Y5782D02*
Y8865D01*
X131330Y11300D02*
X133765Y8865D01*
X131260Y11300D02*
X131330D01*
X122471Y1475D02*
X129525D01*
X131200Y3150D02*
Y7384D01*
X129525Y1475D02*
X131200Y3150D01*
X118500Y3315D02*
X120631D01*
X122471Y1475D01*
X131200Y7384D02*
X131216Y7400D01*
X127004Y11572D02*
Y11605D01*
X133765Y5782D02*
X136250Y3297D01*
D20*
X107125Y50900D02*
X107336Y50689D01*
X113802D02*
X113875Y50761D01*
X107336Y50689D02*
X113802D01*
D21*
X107575Y5725D02*
Y6875D01*
X72950Y7350D02*
X77346D01*
X83071Y1626D01*
X96069Y4088D02*
X96147Y4166D01*
X93738Y2998D02*
X94827Y4088D01*
X96069D01*
X83071Y1626D02*
X96147D01*
D22*
X130815Y22359D02*
D03*
D23*
X131137Y31300D02*
D03*
D24*
X67331Y53604D02*
D03*
D25*
X121412Y21725D02*
D03*
X117900Y7468D02*
D03*
X52275Y1848D02*
D03*
X120955Y12479D02*
D03*
X135650Y12700D02*
D03*
X113875Y50761D02*
D03*
X117325Y48750D02*
D03*
X120775Y7440D02*
D03*
X147175Y46150D02*
D03*
X77675Y2725D02*
D03*
X109475Y1626D02*
D03*
X82975Y7475D02*
D03*
X89500D02*
D03*
X78022Y38650D02*
D03*
X42450Y49975D02*
D03*
X52400Y10225D02*
D03*
X84700Y56125D02*
D03*
X88625Y53636D02*
D03*
X137450Y54700D02*
D03*
X61573Y1525D02*
D03*
X36215Y12837D02*
D03*
X131216Y7400D02*
D03*
X136250Y7440D02*
D03*
X127150Y15400D02*
D03*
X131260Y11300D02*
D03*
D26*
X131375Y52950D02*
D03*
X126375D02*
D03*
X49641Y3697D02*
D03*
X37641D02*
D03*
X126280Y39373D02*
D03*
X131280D02*
D03*
X29340Y9852D02*
D03*
Y4852D02*
D03*
X42450Y42024D02*
D03*
Y45124D02*
D03*
X59505Y38650D02*
D03*
X71505D02*
D03*
X15340Y25849D02*
D03*
X28340D02*
D03*
X15340Y35849D02*
D03*
X28340D02*
D03*
X34768Y24448D02*
D03*
X47568D02*
D03*
X35553Y18225D02*
D03*
X13153D02*
D03*
X47594Y33008D02*
D03*
X34794D02*
D03*
X47568Y28741D02*
D03*
X34768D02*
D03*
X34794Y37275D02*
D03*
X47594D02*
D03*
X35427Y43524D02*
D03*
X13027D02*
D03*
X74961Y43850D02*
D03*
X55961D02*
D03*
X37641Y7837D02*
D03*
X49641D02*
D03*
D27*
X145274Y12135D02*
D03*
D28*
Y14675D02*
D03*
Y17215D02*
D03*
D29*
X128655Y3292D02*
D03*
X138790Y3297D02*
D03*
X118500Y3315D02*
D03*
D30*
X126115Y3292D02*
D03*
X123575D02*
D03*
X136250Y3297D02*
D03*
X133710D02*
D03*
X115960Y3315D02*
D03*
X113420D02*
D03*
D31*
X130318Y17700D02*
D03*
Y19825D02*
D03*
D32*
X123218Y17700D02*
D03*
Y19825D02*
D03*
D33*
X80793Y56144D02*
D03*
Y53604D02*
D03*
Y51064D02*
D03*
D34*
X60600Y53604D02*
D03*
D35*
X103197Y8230D02*
D03*
X98247D02*
D03*
X47400Y48025D02*
D03*
Y43075D02*
D03*
D36*
X113975Y44298D02*
D03*
Y39345D02*
D03*
Y34138D02*
D03*
Y29058D02*
D03*
Y24105D02*
D03*
Y19025D02*
D03*
Y13945D02*
D03*
X88575Y44425D02*
D03*
Y39218D02*
D03*
Y34265D02*
D03*
Y24105D02*
D03*
Y19025D02*
D03*
Y13818D02*
D03*
D37*
X5127Y20525D02*
D03*
X144136Y41075D02*
D03*
Y29400D02*
D03*
X5068Y35825D02*
D03*
D38*
X5127Y25525D02*
D03*
X144136Y36075D02*
D03*
Y24400D02*
D03*
X5068Y40825D02*
D03*
D39*
X65725Y26150D02*
D03*
Y16150D02*
D03*
D40*
X132650Y20525D02*
D03*
X139136Y15900D02*
D03*
X134743Y20875D02*
D03*
X127004Y11572D02*
D03*
X107575Y6875D02*
D03*
X72950Y7350D02*
D03*
X81025Y10400D02*
D03*
X71533Y31500D02*
D03*
X55950Y6925D02*
D03*
X67675Y10775D02*
D03*
X126280Y13628D02*
D03*
X21915Y7251D02*
D03*
X65725Y5050D02*
D03*
X67675Y9500D02*
D03*
X93738Y2998D02*
D03*
%TF.MD5,171c8aeac05b5a161dd7b5f717d91d40*%
M02*
