%TF.GenerationSoftware,Altium Limited,Altium Designer,21.6.4 (81)*%
G04 Layer_Color=32768*
%FSLAX43Y43*%
%MOMM*%
%TF.SameCoordinates,45A01B4D-518A-40F9-B883-98BDF5CD3DE6*%
%TF.FilePolarity,Positive*%
%TF.FileFunction,Other,Top_Component_Outline*%
%TF.Part,Single*%
G01*
G75*
%TA.AperFunction,NonConductor*%
%ADD139C,0.100*%
D139*
X124450Y5775D02*
G03*
X124450Y5775I-500J0D01*
G01*
X121900Y1275D02*
G03*
X121900Y10275I-1490J4500D01*
G01*
X118400D02*
G03*
X118400Y1275I1490J-4500D01*
G01*
X140400Y29125D02*
X140650Y29725D01*
X139450D02*
X140650D01*
X139450D02*
X139700Y29125D01*
X144650Y18525D02*
X144900Y19125D01*
X145600D02*
X145850Y18525D01*
X144650D02*
X145850D01*
X138750Y19125D02*
X144900D01*
X145600D02*
X147750D01*
Y29125D01*
X138750Y19125D02*
Y29125D01*
X139700D01*
X140400D02*
X147750D01*
X98375Y835D02*
Y8495D01*
X92575D02*
X98375D01*
X92575Y835D02*
Y8495D01*
Y835D02*
X98375D01*
X140401Y39150D02*
X147751D01*
X138751D02*
X139701D01*
X138751Y29150D02*
Y39150D01*
X147751Y29150D02*
Y39150D01*
X145601Y29150D02*
X147751D01*
X138751D02*
X144900D01*
X144651Y28550D02*
X145851D01*
X145601Y29150D02*
X145851Y28550D01*
X144651D02*
X144900Y29150D01*
X139451Y39750D02*
X139701Y39150D01*
X139451Y39750D02*
X140651D01*
X140401Y39150D02*
X140651Y39750D01*
X140401Y49175D02*
X147751D01*
X138751D02*
X139701D01*
X138751Y39175D02*
Y49175D01*
X147751Y39175D02*
Y49175D01*
X145601Y39175D02*
X147751D01*
X138751D02*
X144900D01*
X144651Y38575D02*
X145851D01*
X145601Y39175D02*
X145851Y38575D01*
X144651D02*
X144900Y39175D01*
X139451Y49775D02*
X139701Y49175D01*
X139451Y49775D02*
X140651D01*
X140401Y49175D02*
X140651Y49775D01*
X118400Y1275D02*
X121900D01*
X118400Y10275D02*
X121900D01*
X8400Y35200D02*
X8650Y35800D01*
X8400Y35200D02*
X9600D01*
X9350Y35800D02*
X9600Y35200D01*
X4150Y45800D02*
X4400Y46400D01*
X3200D02*
X3450Y45800D01*
X3200Y46400D02*
X4400D01*
X4150Y45800D02*
X10300D01*
X1300D02*
X3450D01*
X1300Y35800D02*
Y45800D01*
X10300Y35800D02*
Y45800D01*
X9350Y35800D02*
X10300D01*
X1300D02*
X8650D01*
%TF.MD5,cef4b4f69446ad7ede4a42965d42096c*%
M02*
