%TF.GenerationSoftware,Altium Limited,Altium Designer,21.6.4 (81)*%
G04 Layer_Color=32896*
%FSLAX43Y43*%
%MOMM*%
%TF.SameCoordinates,00D99F87-3ADF-4980-A611-A04F0DE90361*%
%TF.FilePolarity,Positive*%
%TF.FileFunction,Legend,Bot*%
%TF.Part,Single*%
G01*
G75*
%TA.AperFunction,NonConductor*%
%ADD65C,0.250*%
%ADD66C,0.200*%
%ADD67C,0.254*%
D65*
X129603Y9980D02*
G03*
X129603Y9980I-125J0D01*
G01*
X56975Y4150D02*
G03*
X56975Y4150I-125J0D01*
G01*
X55125Y7750D02*
G03*
X55125Y7750I-125J0D01*
G01*
D66*
X71484Y14000D02*
G03*
X72684Y14000I600J0D01*
G01*
X128175Y50568D02*
X136700D01*
Y46468D02*
Y50518D01*
X128175Y46468D02*
Y50568D01*
Y46468D02*
X136700D01*
X136950Y50550D02*
X145475D01*
Y46450D02*
Y50500D01*
X136950Y46450D02*
Y50550D01*
Y46450D02*
X145475D01*
X128175Y46250D02*
X136700D01*
Y42150D02*
Y46200D01*
X128175Y42150D02*
Y46250D01*
Y42150D02*
X136700D01*
X112975Y8375D02*
X113575D01*
X114282Y9082D01*
X113575Y8375D02*
Y9075D01*
Y8375D02*
X114282Y7668D01*
Y9082D01*
X113575Y7675D02*
Y8375D01*
X114875D01*
X111500Y7350D02*
X116225D01*
X111500Y9450D02*
X116225D01*
Y7350D02*
Y9450D01*
X111500Y7350D02*
Y9450D01*
X126504Y5625D02*
Y10525D01*
X124746Y5625D02*
X126504D01*
X124746D02*
Y10525D01*
X126504D01*
X134242Y22825D02*
X134842D01*
X133535Y22118D02*
X134242Y22825D01*
Y22125D02*
Y22825D01*
X133535Y23532D02*
X134242Y22825D01*
X133535Y22118D02*
Y23532D01*
X134242Y22825D02*
Y23525D01*
X132942Y22825D02*
X134242D01*
X131592Y23850D02*
X136317D01*
X131592Y21750D02*
X136317D01*
X131592D02*
Y23850D01*
X136317Y21750D02*
Y23850D01*
X43975Y3430D02*
Y3575D01*
X42725Y3430D02*
Y3575D01*
X68429Y14000D02*
X71484D01*
X68429Y8900D02*
Y14000D01*
X72684D02*
X75729D01*
X68429Y8900D02*
X75729D01*
Y14000D01*
X115825Y49863D02*
Y56563D01*
X118825Y49863D02*
Y56563D01*
X115825Y49863D02*
X118825D01*
X115825Y56563D02*
X118825D01*
X116618Y52856D02*
X117325Y53563D01*
X118032Y52856D01*
X116618D02*
X118032D01*
X116625Y53563D02*
X117325D01*
Y52263D02*
Y53563D01*
X118025D01*
X117325D02*
Y54163D01*
X139698Y14697D02*
X143005D01*
X139698Y17053D02*
X143005D01*
X139698Y12022D02*
X143005D01*
X139698Y14378D02*
X143005D01*
X133602Y17425D02*
X133747D01*
X133602Y16175D02*
X133747D01*
X133602Y20075D02*
X133747D01*
X133602Y18825D02*
X133747D01*
X136317Y24078D02*
Y26178D01*
X131592Y24078D02*
Y26178D01*
Y24078D02*
X136317D01*
X131592Y26178D02*
X136317D01*
X132942Y25153D02*
X134242D01*
Y25853D01*
X133535Y24446D02*
Y25860D01*
X134242Y25153D01*
Y24453D02*
Y25153D01*
X133535Y24446D02*
X134242Y25153D01*
X134842D01*
X111550Y4953D02*
Y7053D01*
X116275Y4953D02*
Y7053D01*
X111550D02*
X116275D01*
X111550Y4953D02*
X116275D01*
X113625Y5978D02*
X114925D01*
X113625Y5278D02*
Y5978D01*
X114332Y5271D02*
Y6685D01*
X113625Y5978D02*
X114332Y5271D01*
X113625Y5978D02*
Y6678D01*
Y5978D02*
X114332Y6685D01*
X113025Y5978D02*
X113625D01*
X141279Y19000D02*
X141424D01*
X141279Y17750D02*
X141424D01*
X136950Y46250D02*
X145475D01*
Y42150D02*
Y46200D01*
X136950Y42150D02*
Y46250D01*
Y42150D02*
X145475D01*
X94300Y5119D02*
Y5264D01*
X93050Y5119D02*
Y5264D01*
X33988Y8376D02*
X34134D01*
X33988Y7126D02*
X34134D01*
X39147Y10197D02*
Y13503D01*
X41503Y10197D02*
Y13503D01*
X46775Y45527D02*
Y45673D01*
X48025Y45527D02*
Y45673D01*
X65556Y38026D02*
X65701D01*
X65556Y39276D02*
X65701D01*
X70905Y34527D02*
Y34673D01*
X72155Y34527D02*
Y34673D01*
X108602Y7850D02*
X108748D01*
X108602Y9100D02*
X108748D01*
X24939Y15171D02*
X29511D01*
X24939D02*
Y17203D01*
X29511Y15171D02*
Y17203D01*
X24939D02*
X29511D01*
X60821Y2519D02*
X64127D01*
X60821Y4875D02*
X64127D01*
X58000Y7975D02*
X64700D01*
X58000Y10975D02*
X64700D01*
Y7975D02*
Y10975D01*
X58000Y7975D02*
Y10975D01*
X61000Y9475D02*
X61707Y8768D01*
X61000Y9475D02*
X61707Y10182D01*
Y8768D02*
Y10182D01*
X61000Y8775D02*
Y9475D01*
X62300D01*
X61000D02*
Y10175D01*
X60400Y9475D02*
X61000D01*
X62402Y5775D02*
X62547D01*
X62402Y7025D02*
X62547D01*
X57800Y4450D02*
X58700D01*
Y5250D01*
X57800Y7450D02*
X58700D01*
Y6650D02*
Y7450D01*
X45400Y3502D02*
Y3648D01*
X46650Y3502D02*
Y3648D01*
X57652Y1800D02*
X57798D01*
X57652Y3050D02*
X57798D01*
X53150Y7450D02*
X54050D01*
X53150Y6650D02*
Y7450D01*
Y4450D02*
X54050D01*
X53150D02*
Y5250D01*
X22183Y12301D02*
Y16873D01*
X24215D01*
X22183Y12301D02*
X24215D01*
Y16873D01*
X18465Y12276D02*
Y16848D01*
X16433Y12276D02*
X18465D01*
X16433Y16848D02*
X18465D01*
X16433Y12276D02*
Y16848D01*
X21340Y12276D02*
Y16848D01*
X19308Y12276D02*
X21340D01*
X19308Y16848D02*
X21340D01*
X19308Y12276D02*
Y16848D01*
X21075Y3976D02*
Y10576D01*
X12675D02*
X21075D01*
X12675Y3976D02*
X21075D01*
X12675D02*
Y10576D01*
X23880Y8951D02*
X24025D01*
X23880Y10201D02*
X24025D01*
X23952Y4351D02*
X24098D01*
X23952Y5601D02*
X24098D01*
X133620Y14914D02*
X133765D01*
X133620Y13664D02*
X133765D01*
X141279Y11300D02*
X141424D01*
X141279Y10050D02*
X141424D01*
X133975Y10552D02*
Y10698D01*
X135225Y10552D02*
Y10698D01*
X108925Y4644D02*
Y4789D01*
X110175Y4644D02*
Y4789D01*
X115158Y52797D02*
Y56103D01*
X112802Y52797D02*
Y56103D01*
X122522Y11172D02*
X125828D01*
X122522Y13528D02*
X125828D01*
X78602Y9775D02*
X78748D01*
X78602Y11025D02*
X78748D01*
X68954Y5653D02*
X72260D01*
X68954Y3297D02*
X72260D01*
X75007Y6277D02*
Y6423D01*
X73757Y6277D02*
Y6423D01*
X81274Y12398D02*
Y15704D01*
X78917Y12398D02*
Y15704D01*
X68979Y8478D02*
X72285D01*
X68979Y6122D02*
X72285D01*
X68954Y2903D02*
X72260D01*
X68954Y547D02*
X72260D01*
X92677Y2225D02*
X92823D01*
X92677Y975D02*
X92823D01*
X76696Y13963D02*
Y14108D01*
X77946Y13963D02*
Y14108D01*
X48600Y53600D02*
X49200D01*
Y54300D01*
Y53600D02*
X50500D01*
X49200Y52900D02*
Y53600D01*
X49907Y52893D02*
Y54307D01*
X49200Y53600D02*
X49907Y54307D01*
X49200Y53600D02*
X49907Y52893D01*
X46200Y52100D02*
Y55100D01*
X52900Y52100D02*
Y55100D01*
X46200D02*
X52900D01*
X46200Y52100D02*
X52900D01*
X120525Y53550D02*
Y54150D01*
Y53550D02*
X121225D01*
X120525Y52250D02*
Y53550D01*
X119825D02*
X120525D01*
X119818Y52843D02*
X121232D01*
X120525Y53550D02*
X121232Y52843D01*
X119818D02*
X120525Y53550D01*
X119025Y56550D02*
X122025D01*
X119025Y49850D02*
X122025D01*
Y56550D01*
X119025Y49850D02*
Y56550D01*
X44850Y9803D02*
Y10403D01*
X44150D02*
X44850D01*
Y11703D01*
Y10403D02*
X45550D01*
X44143Y11110D02*
X45557D01*
X44143D02*
X44850Y10403D01*
X45557Y11110D01*
X43350Y7403D02*
X46350D01*
X43350Y14103D02*
X46350D01*
X43350Y7403D02*
Y14103D01*
X46350Y7403D02*
Y14103D01*
D67*
X148316Y48425D02*
Y49225D01*
X147916D01*
X147783Y49092D01*
Y48825D01*
X147916Y48692D01*
X148316D01*
X148050D02*
X147783Y48425D01*
X147517Y49092D02*
X147383Y49225D01*
X147117D01*
X146983Y49092D01*
Y48958D01*
X147117Y48825D01*
X147250D01*
X147117D01*
X146983Y48692D01*
Y48558D01*
X147117Y48425D01*
X147383D01*
X147517Y48558D01*
X146317Y48425D02*
Y49225D01*
X146717Y48825D01*
X146184D01*
X127241Y48375D02*
Y49175D01*
X126841D01*
X126708Y49042D01*
Y48775D01*
X126841Y48642D01*
X127241D01*
X126975D02*
X126708Y48375D01*
X126442Y49042D02*
X126308Y49175D01*
X126042D01*
X125908Y49042D01*
Y48908D01*
X126042Y48775D01*
X126175D01*
X126042D01*
X125908Y48642D01*
Y48508D01*
X126042Y48375D01*
X126308D01*
X126442Y48508D01*
X125642Y49042D02*
X125509Y49175D01*
X125242D01*
X125109Y49042D01*
Y48908D01*
X125242Y48775D01*
X125375D01*
X125242D01*
X125109Y48642D01*
Y48508D01*
X125242Y48375D01*
X125509D01*
X125642Y48508D01*
X127191Y43875D02*
Y44675D01*
X126791D01*
X126658Y44542D01*
Y44275D01*
X126791Y44142D01*
X127191D01*
X126925D02*
X126658Y43875D01*
X126392Y44542D02*
X126258Y44675D01*
X125992D01*
X125858Y44542D01*
Y44408D01*
X125992Y44275D01*
X126125D01*
X125992D01*
X125858Y44142D01*
Y44008D01*
X125992Y43875D01*
X126258D01*
X126392Y44008D01*
X125059Y43875D02*
X125592D01*
X125059Y44408D01*
Y44542D01*
X125192Y44675D01*
X125459D01*
X125592Y44542D01*
X44392Y6518D02*
Y7318D01*
X43992D01*
X43858Y7185D01*
Y6918D01*
X43992Y6785D01*
X44392D01*
X44125D02*
X43858Y6518D01*
X43592Y7185D02*
X43459Y7318D01*
X43192D01*
X43059Y7185D01*
Y7051D01*
X43192Y6918D01*
X43325D01*
X43192D01*
X43059Y6785D01*
Y6651D01*
X43192Y6518D01*
X43459D01*
X43592Y6651D01*
X42259Y7318D02*
X42792D01*
Y6918D01*
X42526Y7051D01*
X42392D01*
X42259Y6918D01*
Y6651D01*
X42392Y6518D01*
X42659D01*
X42792Y6651D01*
X115126Y10474D02*
Y9940D01*
X114859Y9674D01*
X114592Y9940D01*
Y10474D01*
X114326D02*
Y9674D01*
X113926D01*
X113793Y9807D01*
Y10340D01*
X113926Y10474D01*
X114326D01*
X113526Y9674D02*
X113259D01*
X113393D01*
Y10474D01*
X113526Y10340D01*
X112860Y10474D02*
X112326D01*
Y10340D01*
X112860Y9807D01*
Y9674D01*
X115101Y11920D02*
Y11387D01*
X114834Y11121D01*
X114567Y11387D01*
Y11920D01*
X114301D02*
Y11121D01*
X113901D01*
X113768Y11254D01*
Y11787D01*
X113901Y11920D01*
X114301D01*
X113501Y11121D02*
X113234D01*
X113368D01*
Y11920D01*
X113501Y11787D01*
X112301Y11920D02*
X112568Y11787D01*
X112835Y11520D01*
Y11254D01*
X112701Y11121D01*
X112435D01*
X112301Y11254D01*
Y11387D01*
X112435Y11520D01*
X112835D01*
X130892Y25700D02*
Y25167D01*
X130625Y24900D01*
X130359Y25167D01*
Y25700D01*
X130092D02*
Y24900D01*
X129692D01*
X129559Y25033D01*
Y25567D01*
X129692Y25700D01*
X130092D01*
X129292Y24900D02*
X129026D01*
X129159D01*
Y25700D01*
X129292Y25567D01*
X128093Y25700D02*
X128626D01*
Y25300D01*
X128359Y25433D01*
X128226D01*
X128093Y25300D01*
Y25033D01*
X128226Y24900D01*
X128492D01*
X128626Y25033D01*
X130858Y23278D02*
Y22745D01*
X130592Y22478D01*
X130325Y22745D01*
Y23278D01*
X130059D02*
Y22478D01*
X129659D01*
X129526Y22612D01*
Y23145D01*
X129659Y23278D01*
X130059D01*
X129259Y22612D02*
X129126Y22478D01*
X128859D01*
X128726Y22612D01*
Y23145D01*
X128859Y23278D01*
X129126D01*
X129259Y23145D01*
Y23011D01*
X129126Y22878D01*
X128726D01*
X148083Y43675D02*
Y44475D01*
X147683D01*
X147550Y44342D01*
Y44075D01*
X147683Y43942D01*
X148083D01*
X147816D02*
X147550Y43675D01*
X147283Y44342D02*
X147150Y44475D01*
X146883D01*
X146750Y44342D01*
Y44208D01*
X146883Y44075D01*
X147017D01*
X146883D01*
X146750Y43942D01*
Y43808D01*
X146883Y43675D01*
X147150D01*
X147283Y43808D01*
X146484Y43675D02*
X146217D01*
X146350D01*
Y44475D01*
X146484Y44342D01*
X131216Y15950D02*
Y16750D01*
X130816D01*
X130683Y16617D01*
Y16350D01*
X130816Y16217D01*
X131216D01*
X130950D02*
X130683Y15950D01*
X129883D02*
X130417D01*
X129883Y16483D01*
Y16617D01*
X130017Y16750D01*
X130283D01*
X130417Y16617D01*
X129617D02*
X129484Y16750D01*
X129217D01*
X129084Y16617D01*
Y16483D01*
X129217Y16350D01*
X129084Y16217D01*
Y16083D01*
X129217Y15950D01*
X129484D01*
X129617Y16083D01*
Y16217D01*
X129484Y16350D01*
X129617Y16483D01*
Y16617D01*
X129484Y16350D02*
X129217D01*
X139256Y17875D02*
Y18675D01*
X138856D01*
X138723Y18542D01*
Y18275D01*
X138856Y18142D01*
X139256D01*
X138990D02*
X138723Y17875D01*
X137923D02*
X138457D01*
X137923Y18408D01*
Y18542D01*
X138057Y18675D01*
X138323D01*
X138457Y18542D01*
X137657Y18675D02*
X137124D01*
Y18542D01*
X137657Y18008D01*
Y17875D01*
X138417Y16142D02*
X138550Y16275D01*
X138816D01*
X138950Y16142D01*
Y15608D01*
X138816Y15475D01*
X138550D01*
X138417Y15608D01*
X138150Y15475D02*
X137883D01*
X138017D01*
Y16275D01*
X138150Y16142D01*
X137483Y15608D02*
X137350Y15475D01*
X137084D01*
X136950Y15608D01*
Y16142D01*
X137084Y16275D01*
X137350D01*
X137483Y16142D01*
Y16008D01*
X137350Y15875D01*
X136950D01*
X138542Y13442D02*
X138675Y13575D01*
X138941D01*
X139075Y13442D01*
Y12908D01*
X138941Y12775D01*
X138675D01*
X138542Y12908D01*
X138275Y12775D02*
X138008D01*
X138142D01*
Y13575D01*
X138275Y13442D01*
X137608D02*
X137475Y13575D01*
X137209D01*
X137075Y13442D01*
Y13308D01*
X137209Y13175D01*
X137075Y13042D01*
Y12908D01*
X137209Y12775D01*
X137475D01*
X137608Y12908D01*
Y13042D01*
X137475Y13175D01*
X137608Y13308D01*
Y13442D01*
X137475Y13175D02*
X137209D01*
X53630Y8158D02*
Y8692D01*
X53763Y8825D01*
X54030D01*
X54163Y8692D01*
Y8158D01*
X54030Y8025D01*
X53763D01*
X53897Y8292D02*
X53630Y8025D01*
X53763D02*
X53630Y8158D01*
X52830Y8025D02*
X53363D01*
X52830Y8558D01*
Y8692D01*
X52964Y8825D01*
X53230D01*
X53363Y8692D01*
X57050Y8017D02*
Y8550D01*
X57183Y8683D01*
X57450D01*
X57583Y8550D01*
Y8017D01*
X57450Y7883D01*
X57183D01*
X57317Y8150D02*
X57050Y7883D01*
X57183D02*
X57050Y8017D01*
X56783Y7883D02*
X56517D01*
X56650D01*
Y8683D01*
X56783Y8550D01*
X14791Y11975D02*
Y11442D01*
X14525Y11175D01*
X14258Y11442D01*
Y11975D01*
X13992D02*
X13458D01*
X13725D01*
Y11175D01*
X12659D02*
X13192D01*
X12659Y11708D01*
Y11842D01*
X12792Y11975D01*
X13059D01*
X13192Y11842D01*
X50875Y56625D02*
Y56092D01*
X50608Y55825D01*
X50341Y56092D01*
Y56625D01*
X50075D02*
Y55825D01*
X49675D01*
X49542Y55958D01*
Y56492D01*
X49675Y56625D01*
X50075D01*
X49275Y55825D02*
X49008D01*
X49142D01*
Y56625D01*
X49275Y56492D01*
X48609D02*
X48475Y56625D01*
X48209D01*
X48075Y56492D01*
Y56358D01*
X48209Y56225D01*
X48342D01*
X48209D01*
X48075Y56092D01*
Y55958D01*
X48209Y55825D01*
X48475D01*
X48609Y55958D01*
X123450Y51713D02*
X122917D01*
X122650Y51980D01*
X122917Y52247D01*
X123450D01*
Y52513D02*
X122650D01*
Y52913D01*
X122783Y53046D01*
X123317D01*
X123450Y52913D01*
Y52513D01*
X122650Y53313D02*
Y53579D01*
Y53446D01*
X123450D01*
X123317Y53313D01*
X122650Y54513D02*
Y53979D01*
X123183Y54513D01*
X123317D01*
X123450Y54379D01*
Y54113D01*
X123317Y53979D01*
X124875Y51720D02*
X124342D01*
X124075Y51987D01*
X124342Y52254D01*
X124875D01*
Y52520D02*
X124075D01*
Y52920D01*
X124208Y53053D01*
X124742D01*
X124875Y52920D01*
Y52520D01*
X124075Y53320D02*
Y53586D01*
Y53453D01*
X124875D01*
X124742Y53320D01*
X124075Y53986D02*
Y54253D01*
Y54120D01*
X124875D01*
X124742Y53986D01*
X45916Y15525D02*
Y14992D01*
X45650Y14725D01*
X45383Y14992D01*
Y15525D01*
X45117D02*
Y14725D01*
X44717D01*
X44583Y14858D01*
Y15392D01*
X44717Y15525D01*
X45117D01*
X44317Y15392D02*
X44184Y15525D01*
X43917D01*
X43784Y15392D01*
Y15258D01*
X43917Y15125D01*
X44050D01*
X43917D01*
X43784Y14992D01*
Y14858D01*
X43917Y14725D01*
X44184D01*
X44317Y14858D01*
X62233Y12525D02*
Y11992D01*
X61966Y11725D01*
X61700Y11992D01*
Y12525D01*
X61433D02*
Y11725D01*
X61033D01*
X60900Y11858D01*
Y12392D01*
X61033Y12525D01*
X61433D01*
X60634Y11725D02*
X60367D01*
X60500D01*
Y12525D01*
X60634Y12392D01*
X121891Y10458D02*
Y9792D01*
X121758Y9658D01*
X121492D01*
X121358Y9792D01*
Y10458D01*
X120559Y9658D02*
X121092D01*
X120559Y10192D01*
Y10325D01*
X120692Y10458D01*
X120958D01*
X121092Y10325D01*
X109766Y9658D02*
Y10458D01*
X109366D01*
X109233Y10325D01*
Y10058D01*
X109366Y9925D01*
X109766D01*
X109500D02*
X109233Y9658D01*
X108433D02*
X108967D01*
X108433Y10192D01*
Y10325D01*
X108567Y10458D01*
X108833D01*
X108967Y10325D01*
X107634Y10458D02*
X107900Y10325D01*
X108167Y10058D01*
Y9792D01*
X108034Y9658D01*
X107767D01*
X107634Y9792D01*
Y9925D01*
X107767Y10058D01*
X108167D01*
X28166Y17824D02*
Y18624D01*
X27766D01*
X27633Y18491D01*
Y18224D01*
X27766Y18091D01*
X28166D01*
X27900D02*
X27633Y17824D01*
X26833D02*
X27367D01*
X26833Y18357D01*
Y18491D01*
X26967Y18624D01*
X27233D01*
X27367Y18491D01*
X26034Y18624D02*
X26567D01*
Y18224D01*
X26300Y18357D01*
X26167D01*
X26034Y18224D01*
Y17957D01*
X26167Y17824D01*
X26434D01*
X26567Y17957D01*
X134740Y20525D02*
Y21325D01*
X134341D01*
X134207Y21192D01*
Y20925D01*
X134341Y20792D01*
X134740D01*
X134474D02*
X134207Y20525D01*
X133408D02*
X133941D01*
X133408Y21058D01*
Y21192D01*
X133541Y21325D01*
X133807D01*
X133941Y21192D01*
X132741Y20525D02*
Y21325D01*
X133141Y20925D01*
X132608D01*
X48575Y44484D02*
X49375D01*
Y44884D01*
X49242Y45017D01*
X48975D01*
X48842Y44884D01*
Y44484D01*
Y44750D02*
X48575Y45017D01*
Y45817D02*
Y45283D01*
X49108Y45817D01*
X49242D01*
X49375Y45683D01*
Y45417D01*
X49242Y45283D01*
Y46083D02*
X49375Y46216D01*
Y46483D01*
X49242Y46616D01*
X49108D01*
X48975Y46483D01*
Y46350D01*
Y46483D01*
X48842Y46616D01*
X48708D01*
X48575Y46483D01*
Y46216D01*
X48708Y46083D01*
X107525Y3650D02*
X108325D01*
Y4050D01*
X108192Y4183D01*
X107925D01*
X107792Y4050D01*
Y3650D01*
Y3917D02*
X107525Y4183D01*
Y4983D02*
Y4450D01*
X108058Y4983D01*
X108192D01*
X108325Y4850D01*
Y4583D01*
X108192Y4450D01*
X107525Y5783D02*
Y5250D01*
X108058Y5783D01*
X108192D01*
X108325Y5649D01*
Y5383D01*
X108192Y5250D01*
X131567Y14644D02*
Y15443D01*
X131167D01*
X131034Y15310D01*
Y15043D01*
X131167Y14910D01*
X131567D01*
X131301D02*
X131034Y14644D01*
X130234D02*
X130768D01*
X130234Y15177D01*
Y15310D01*
X130368Y15443D01*
X130634D01*
X130768Y15310D01*
X129968Y14644D02*
X129701D01*
X129835D01*
Y15443D01*
X129968Y15310D01*
X136650Y11491D02*
X135850D01*
Y11092D01*
X135983Y10958D01*
X136250D01*
X136383Y11092D01*
Y11491D01*
Y11225D02*
X136650Y10958D01*
Y10692D02*
Y10425D01*
Y10558D01*
X135850D01*
X135983Y10692D01*
X136517Y10025D02*
X136650Y9892D01*
Y9625D01*
X136517Y9492D01*
X135983D01*
X135850Y9625D01*
Y9892D01*
X135983Y10025D01*
X136117D01*
X136250Y9892D01*
Y9492D01*
X139321Y10326D02*
Y11126D01*
X138921D01*
X138788Y10992D01*
Y10726D01*
X138921Y10593D01*
X139321D01*
X139054D02*
X138788Y10326D01*
X138521D02*
X138254D01*
X138388D01*
Y11126D01*
X138521Y10992D01*
X137855D02*
X137721Y11126D01*
X137455D01*
X137321Y10992D01*
Y10859D01*
X137455Y10726D01*
X137321Y10593D01*
Y10459D01*
X137455Y10326D01*
X137721D01*
X137855Y10459D01*
Y10593D01*
X137721Y10726D01*
X137855Y10859D01*
Y10992D01*
X137721Y10726D02*
X137455D01*
X34988Y9140D02*
Y9939D01*
X34588D01*
X34455Y9806D01*
Y9540D01*
X34588Y9406D01*
X34988D01*
X34722D02*
X34455Y9140D01*
X34188D02*
X33922D01*
X34055D01*
Y9939D01*
X34188Y9806D01*
X33522Y9939D02*
X32989D01*
Y9806D01*
X33522Y9273D01*
Y9140D01*
X24850Y7500D02*
Y8300D01*
X24450D01*
X24317Y8167D01*
Y7900D01*
X24450Y7767D01*
X24850D01*
X24583D02*
X24317Y7500D01*
X24050D02*
X23783D01*
X23917D01*
Y8300D01*
X24050Y8167D01*
X22850Y8300D02*
X23117Y8167D01*
X23383Y7900D01*
Y7633D01*
X23250Y7500D01*
X22984D01*
X22850Y7633D01*
Y7767D01*
X22984Y7900D01*
X23383D01*
X24952Y3000D02*
Y3800D01*
X24552D01*
X24419Y3667D01*
Y3400D01*
X24552Y3267D01*
X24952D01*
X24685D02*
X24419Y3000D01*
X24152D02*
X23886D01*
X24019D01*
Y3800D01*
X24152Y3667D01*
X22953Y3800D02*
X23486D01*
Y3400D01*
X23219Y3533D01*
X23086D01*
X22953Y3400D01*
Y3133D01*
X23086Y3000D01*
X23353D01*
X23486Y3133D01*
X18375Y17475D02*
Y18275D01*
X17975D01*
X17842Y18142D01*
Y17875D01*
X17975Y17742D01*
X18375D01*
X18108D02*
X17842Y17475D01*
X17575D02*
X17308D01*
X17442D01*
Y18275D01*
X17575Y18142D01*
X16908D02*
X16775Y18275D01*
X16509D01*
X16375Y18142D01*
Y18008D01*
X16509Y17875D01*
X16642D01*
X16509D01*
X16375Y17742D01*
Y17608D01*
X16509Y17475D01*
X16775D01*
X16908Y17608D01*
X21324Y17512D02*
Y18312D01*
X20924D01*
X20791Y18179D01*
Y17912D01*
X20924Y17779D01*
X21324D01*
X21057D02*
X20791Y17512D01*
X20524D02*
X20257D01*
X20391D01*
Y18312D01*
X20524Y18179D01*
X19324Y17512D02*
X19858D01*
X19324Y18045D01*
Y18179D01*
X19458Y18312D01*
X19724D01*
X19858Y18179D01*
X24016Y17537D02*
Y18337D01*
X23616D01*
X23482Y18204D01*
Y17937D01*
X23616Y17804D01*
X24016D01*
X23749D02*
X23482Y17537D01*
X23216D02*
X22949D01*
X23083D01*
Y18337D01*
X23216Y18204D01*
X22549Y17537D02*
X22283D01*
X22416D01*
Y18337D01*
X22549Y18204D01*
X78169Y16350D02*
Y17150D01*
X77770D01*
X77636Y17017D01*
Y16750D01*
X77770Y16617D01*
X78169D01*
X77903D02*
X77636Y16350D01*
X77370D02*
X77103D01*
X77236D01*
Y17150D01*
X77370Y17017D01*
X76703D02*
X76570Y17150D01*
X76303D01*
X76170Y17017D01*
Y16484D01*
X76303Y16350D01*
X76570D01*
X76703Y16484D01*
Y17017D01*
X66466Y39900D02*
Y40700D01*
X66067D01*
X65933Y40567D01*
Y40300D01*
X66067Y40167D01*
X66466D01*
X66200D02*
X65933Y39900D01*
X65667Y40033D02*
X65533Y39900D01*
X65267D01*
X65134Y40033D01*
Y40567D01*
X65267Y40700D01*
X65533D01*
X65667Y40567D01*
Y40433D01*
X65533Y40300D01*
X65134D01*
X90416Y1182D02*
Y1982D01*
X90017D01*
X89883Y1849D01*
Y1582D01*
X90017Y1449D01*
X90416D01*
X90150D02*
X89883Y1182D01*
X89617Y1849D02*
X89483Y1982D01*
X89217D01*
X89084Y1849D01*
Y1715D01*
X89217Y1582D01*
X89084Y1449D01*
Y1316D01*
X89217Y1182D01*
X89483D01*
X89617Y1316D01*
Y1449D01*
X89483Y1582D01*
X89617Y1715D01*
Y1849D01*
X89483Y1582D02*
X89217D01*
X74141Y34075D02*
Y34875D01*
X73742D01*
X73608Y34742D01*
Y34475D01*
X73742Y34342D01*
X74141D01*
X73875D02*
X73608Y34075D01*
X73342Y34875D02*
X72809D01*
Y34742D01*
X73342Y34208D01*
Y34075D01*
X79341Y7925D02*
Y8725D01*
X78942D01*
X78808Y8592D01*
Y8325D01*
X78942Y8192D01*
X79341D01*
X79075D02*
X78808Y7925D01*
X78009Y8725D02*
X78275Y8592D01*
X78542Y8325D01*
Y8058D01*
X78408Y7925D01*
X78142D01*
X78009Y8058D01*
Y8192D01*
X78142Y8325D01*
X78542D01*
X48025Y4142D02*
X47225D01*
Y3742D01*
X47358Y3609D01*
X47625D01*
X47758Y3742D01*
Y4142D01*
Y3876D02*
X48025Y3609D01*
X47225Y2809D02*
Y3343D01*
X47625D01*
X47492Y3076D01*
Y2943D01*
X47625Y2809D01*
X47892D01*
X48025Y2943D01*
Y3209D01*
X47892Y3343D01*
X74966Y2725D02*
Y3525D01*
X74567D01*
X74433Y3392D01*
Y3125D01*
X74567Y2992D01*
X74966D01*
X74700D02*
X74433Y2725D01*
X73767D02*
Y3525D01*
X74167Y3125D01*
X73634D01*
X58266Y425D02*
Y1225D01*
X57867D01*
X57733Y1092D01*
Y825D01*
X57867Y692D01*
X58266D01*
X58000D02*
X57733Y425D01*
X57467Y1092D02*
X57333Y1225D01*
X57067D01*
X56934Y1092D01*
Y958D01*
X57067Y825D01*
X57200D01*
X57067D01*
X56934Y692D01*
Y558D01*
X57067Y425D01*
X57333D01*
X57467Y558D01*
X65991Y6000D02*
Y6800D01*
X65592D01*
X65458Y6667D01*
Y6400D01*
X65592Y6267D01*
X65991D01*
X65725D02*
X65458Y6000D01*
X64659D02*
X65192D01*
X64659Y6533D01*
Y6667D01*
X64792Y6800D01*
X65058D01*
X65192Y6667D01*
X94208Y7321D02*
Y8121D01*
X93808D01*
X93675Y7987D01*
Y7721D01*
X93808Y7588D01*
X94208D01*
X93942D02*
X93675Y7321D01*
X93408D02*
X93142D01*
X93275D01*
Y8121D01*
X93408Y7987D01*
X73091Y15450D02*
Y14650D01*
X72691D01*
X72558Y14783D01*
Y15317D01*
X72691Y15450D01*
X73091D01*
X72292Y14650D02*
Y15183D01*
X72025Y15450D01*
X71758Y15183D01*
Y14650D01*
Y15050D01*
X72292D01*
X70959Y14650D02*
X71492D01*
X70959Y15183D01*
Y15317D01*
X71092Y15450D01*
X71359D01*
X71492Y15317D01*
X124542Y14817D02*
X124675Y14950D01*
X124941D01*
X125075Y14817D01*
Y14283D01*
X124941Y14150D01*
X124675D01*
X124542Y14283D01*
X124275Y14150D02*
X124008D01*
X124142D01*
Y14950D01*
X124275Y14817D01*
X123075Y14150D02*
X123608D01*
X123075Y14683D01*
Y14817D01*
X123209Y14950D01*
X123475D01*
X123608Y14817D01*
X114392Y57567D02*
X114525Y57700D01*
X114791D01*
X114925Y57567D01*
Y57033D01*
X114791Y56900D01*
X114525D01*
X114392Y57033D01*
X114125Y56900D02*
X113858D01*
X113992D01*
Y57700D01*
X114125Y57567D01*
X113458D02*
X113325Y57700D01*
X113059D01*
X112925Y57567D01*
Y57033D01*
X113059Y56900D01*
X113325D01*
X113458Y57033D01*
Y57567D01*
X67835Y4717D02*
X67969Y4850D01*
X68235D01*
X68369Y4717D01*
Y4183D01*
X68235Y4050D01*
X67969D01*
X67835Y4183D01*
X67569Y4717D02*
X67435Y4850D01*
X67169D01*
X67036Y4717D01*
Y4583D01*
X67169Y4450D01*
X67036Y4317D01*
Y4183D01*
X67169Y4050D01*
X67435D01*
X67569Y4183D01*
Y4317D01*
X67435Y4450D01*
X67569Y4583D01*
Y4717D01*
X67435Y4450D02*
X67169D01*
X79958Y17017D02*
X80092Y17150D01*
X80358D01*
X80491Y17017D01*
Y16483D01*
X80358Y16350D01*
X80092D01*
X79958Y16483D01*
X79692Y17150D02*
X79159D01*
Y17017D01*
X79692Y16483D01*
Y16350D01*
X40483Y14767D02*
X40617Y14900D01*
X40883D01*
X41016Y14767D01*
Y14233D01*
X40883Y14100D01*
X40617D01*
X40483Y14233D01*
X39684Y14900D02*
X39950Y14767D01*
X40217Y14500D01*
Y14233D01*
X40083Y14100D01*
X39817D01*
X39684Y14233D01*
Y14367D01*
X39817Y14500D01*
X40217D01*
X68008Y7517D02*
X68142Y7650D01*
X68408D01*
X68541Y7517D01*
Y6983D01*
X68408Y6850D01*
X68142D01*
X68008Y6983D01*
X67209Y7650D02*
X67742D01*
Y7250D01*
X67475Y7383D01*
X67342D01*
X67209Y7250D01*
Y6983D01*
X67342Y6850D01*
X67608D01*
X67742Y6983D01*
X67835Y1937D02*
X67969Y2071D01*
X68235D01*
X68369Y1937D01*
Y1404D01*
X68235Y1271D01*
X67969D01*
X67835Y1404D01*
X67569Y1937D02*
X67435Y2071D01*
X67169D01*
X67036Y1937D01*
Y1804D01*
X67169Y1671D01*
X67302D01*
X67169D01*
X67036Y1538D01*
Y1404D01*
X67169Y1271D01*
X67435D01*
X67569Y1404D01*
X65283Y4042D02*
X65417Y4175D01*
X65683D01*
X65816Y4042D01*
Y3508D01*
X65683Y3375D01*
X65417D01*
X65283Y3508D01*
X64484Y3375D02*
X65017D01*
X64484Y3908D01*
Y4042D01*
X64617Y4175D01*
X64883D01*
X65017Y4042D01*
%TF.MD5,f16f8fb3805f877bf66920f0887a439c*%
M02*
