%TF.GenerationSoftware,Altium Limited,Altium Designer,21.6.4 (81)*%
G04 Layer_Physical_Order=1*
G04 Layer_Color=255*
%FSLAX43Y43*%
%MOMM*%
%TF.SameCoordinates,45A01B4D-518A-40F9-B883-98BDF5CD3DE6*%
%TF.FilePolarity,Positive*%
%TF.FileFunction,Copper,L1,Top,Signal*%
%TF.Part,Single*%
G01*
G75*
%TA.AperFunction,SMDPad,CuDef*%
%ADD10R,0.850X0.900*%
%ADD11R,2.000X4.000*%
%ADD12R,1.600X1.000*%
%ADD13R,0.900X0.850*%
%ADD14R,3.750X9.500*%
%TA.AperFunction,Conductor*%
%ADD15C,3.000*%
%ADD16C,0.800*%
%ADD17C,0.500*%
%ADD18C,1.500*%
%ADD19C,1.900*%
%ADD20C,2.000*%
%ADD21C,1.000*%
%ADD22C,2.500*%
%ADD23C,4.000*%
%ADD24C,3.200*%
%ADD25C,0.600*%
%ADD26C,0.700*%
%ADD27C,0.254*%
%ADD28C,2.200*%
%ADD29C,0.900*%
%ADD30R,2.950X2.610*%
%ADD31R,7.225X2.400*%
%ADD32R,2.638X2.857*%
%ADD33R,3.650X4.150*%
%ADD34R,4.307X4.100*%
%ADD35R,3.597X1.225*%
%ADD36R,2.725X2.486*%
%ADD37R,3.225X3.276*%
%ADD38R,2.893X2.965*%
%TA.AperFunction,ComponentPad*%
%ADD39C,2.286*%
%ADD40C,4.500*%
%ADD41C,4.000*%
%ADD42O,4.000X3.600*%
%ADD43C,1.950*%
G04:AMPARAMS|DCode=44|XSize=1.95mm|YSize=1.95mm|CornerRadius=0.488mm|HoleSize=0mm|Usage=FLASHONLY|Rotation=90.000|XOffset=0mm|YOffset=0mm|HoleType=Round|Shape=RoundedRectangle|*
%AMROUNDEDRECTD44*
21,1,1.950,0.975,0,0,90.0*
21,1,0.975,1.950,0,0,90.0*
1,1,0.975,0.488,0.488*
1,1,0.975,0.488,-0.488*
1,1,0.975,-0.488,-0.488*
1,1,0.975,-0.488,0.488*
%
%ADD44ROUNDEDRECTD44*%
G04:AMPARAMS|DCode=45|XSize=1.5mm|YSize=1.5mm|CornerRadius=0.375mm|HoleSize=0mm|Usage=FLASHONLY|Rotation=90.000|XOffset=0mm|YOffset=0mm|HoleType=Round|Shape=RoundedRectangle|*
%AMROUNDEDRECTD45*
21,1,1.500,0.750,0,0,90.0*
21,1,0.750,1.500,0,0,90.0*
1,1,0.750,0.375,0.375*
1,1,0.750,0.375,-0.375*
1,1,0.750,-0.375,-0.375*
1,1,0.750,-0.375,0.375*
%
%ADD45ROUNDEDRECTD45*%
%ADD46C,1.500*%
%ADD47R,1.500X1.500*%
%ADD48C,2.500*%
%ADD49C,2.000*%
%ADD50C,3.500*%
%ADD51C,2.200*%
%ADD52R,2.200X2.200*%
%ADD53O,1.778X2.286*%
%ADD54C,3.302*%
%ADD55C,3.000*%
%ADD56O,1.778X2.032*%
%ADD57C,2.794*%
%ADD58O,2.286X1.778*%
%ADD59C,3.048*%
%ADD60R,3.048X3.048*%
%ADD61R,1.200X1.200*%
%ADD62C,1.200*%
%ADD63C,1.250*%
%ADD64R,1.250X1.250*%
%ADD65C,1.524*%
%TA.AperFunction,ViaPad*%
%ADD66C,0.800*%
%ADD67C,1.800*%
%ADD68C,1.270*%
%ADD69C,1.200*%
G36*
X140011Y59615D02*
X140070Y59556D01*
X140011Y53655D01*
X143598Y50194D01*
X149646Y50194D01*
Y50100D01*
X149667D01*
Y10100D01*
X149646D01*
Y10043D01*
X149556Y9954D01*
X143721Y10012D01*
D01*
X143667Y10013D01*
X140206Y6426D01*
X140206Y354D01*
X140206D01*
Y333D01*
X92017D01*
X91964Y460D01*
X92923Y1419D01*
X94538D01*
X94592Y1365D01*
X94808Y1240D01*
X95050Y1175D01*
X95300D01*
X95542Y1240D01*
X95758Y1365D01*
X95935Y1542D01*
X96060Y1758D01*
X96125Y2000D01*
Y2250D01*
X96060Y2492D01*
X95935Y2708D01*
X95758Y2885D01*
X95542Y3010D01*
X95300Y3075D01*
X95050D01*
X94808Y3010D01*
X94592Y2885D01*
X94538Y2831D01*
X92630D01*
X92448Y2807D01*
X92277Y2736D01*
X92131Y2624D01*
X91102Y1596D01*
X85894D01*
Y13700D01*
X101951D01*
Y49138D01*
D01*
Y49184D01*
X102068Y49233D01*
X102789Y48511D01*
Y43900D01*
X102821Y43577D01*
X102863Y43365D01*
X102958Y43054D01*
X103111Y42768D01*
X103231Y42588D01*
X103437Y42337D01*
X103688Y42131D01*
X103868Y42011D01*
X104154Y41858D01*
X104465Y41763D01*
X104677Y41721D01*
X104772Y41712D01*
X108042Y38442D01*
X108236Y38283D01*
X108375Y38190D01*
X108596Y38072D01*
X108662Y38052D01*
X108643Y37925D01*
X108375D01*
Y36275D01*
X110025D01*
Y37925D01*
X109857D01*
X109838Y38052D01*
X109904Y38072D01*
X110125Y38190D01*
X110264Y38283D01*
X110458Y38442D01*
X110617Y38636D01*
X110710Y38775D01*
X110828Y38996D01*
X110901Y39236D01*
X110934Y39400D01*
X110958Y39650D01*
X110934Y39900D01*
X110901Y40064D01*
X110828Y40304D01*
X110710Y40525D01*
X110617Y40664D01*
X110458Y40858D01*
X107211Y44105D01*
Y49427D01*
X107211Y49427D01*
X107179Y49750D01*
X107137Y49962D01*
X107042Y50273D01*
X106889Y50559D01*
X106769Y50739D01*
X106563Y50990D01*
X106563Y50990D01*
X104076Y53477D01*
X103825Y53683D01*
X103646Y53803D01*
X103359Y53956D01*
X103049Y54050D01*
X102837Y54092D01*
X102513Y54124D01*
X101951D01*
Y54157D01*
Y59646D01*
Y59667D01*
X140011D01*
Y59615D01*
D02*
G37*
G36*
X39725Y26972D02*
Y22875D01*
X37547Y20697D01*
X32574D01*
X30278Y18400D01*
X23225D01*
X22050Y19575D01*
Y24250D01*
X25650Y27850D01*
X38847Y27850D01*
X39725Y26972D01*
D02*
G37*
G36*
X58550Y11225D02*
X53825Y6500D01*
X49325Y6500D01*
Y27575D01*
X49325Y27575D01*
X58550D01*
Y11225D01*
D02*
G37*
%LPC*%
G36*
X106384Y57377D02*
X105134D01*
Y57329D01*
X105132Y57326D01*
X105007Y57254D01*
X104844Y57322D01*
X104606D01*
X104385Y57230D01*
X104216Y57062D01*
X104125Y56841D01*
Y56602D01*
X104216Y56382D01*
X104385Y56213D01*
X104606Y56122D01*
X104844D01*
X105007Y56189D01*
X105132Y56117D01*
X105134Y56115D01*
Y56102D01*
D01*
Y56077D01*
X106384D01*
Y57377D01*
D02*
G37*
G36*
X132775Y56265D02*
X130875D01*
Y54365D01*
X132775D01*
Y56265D01*
D02*
G37*
G36*
X126130Y55190D02*
X124530D01*
Y53590D01*
X126130D01*
Y55190D01*
D02*
G37*
G36*
X121115D02*
X119515D01*
Y53590D01*
X121115D01*
Y55190D01*
D02*
G37*
G36*
X131950Y51185D02*
X131700D01*
X131458Y51120D01*
X131242Y50995D01*
X131065Y50818D01*
X130940Y50602D01*
X130875Y50360D01*
Y50110D01*
X130940Y49868D01*
X131065Y49652D01*
X131242Y49475D01*
X131458Y49350D01*
X131700Y49285D01*
X131950D01*
X132192Y49350D01*
X132408Y49475D01*
X132585Y49652D01*
X132710Y49868D01*
X132775Y50110D01*
Y50360D01*
X132710Y50602D01*
X132585Y50818D01*
X132408Y50995D01*
X132192Y51120D01*
X131950Y51185D01*
D02*
G37*
G36*
X109427Y45818D02*
X109073D01*
X108817Y45749D01*
X108655Y45682D01*
X108425Y45550D01*
X108175Y45300D01*
X108043Y45070D01*
X107976Y44908D01*
X107907Y44652D01*
Y44298D01*
X107976Y44042D01*
X108043Y43880D01*
X108175Y43650D01*
X108425Y43400D01*
X108655Y43268D01*
X108817Y43201D01*
X109073Y43132D01*
X109427D01*
X109683Y43201D01*
X109845Y43268D01*
X110075Y43400D01*
X110325Y43650D01*
X110471Y43905D01*
X113247D01*
X113364Y43856D01*
X113603D01*
X113824Y43947D01*
X113992Y44116D01*
X114084Y44337D01*
Y44575D01*
X113992Y44796D01*
X113824Y44965D01*
X113603Y45056D01*
X113364D01*
X113293Y45026D01*
X110483D01*
X110463Y45061D01*
X110461D01*
X110457Y45070D01*
X110325Y45300D01*
X110075Y45550D01*
X109845Y45682D01*
X109683Y45749D01*
X109427Y45818D01*
D02*
G37*
G36*
X116075Y55190D02*
X114475D01*
Y53590D01*
X115296D01*
X116566Y52320D01*
Y39950D01*
X116592Y39819D01*
X116626Y39737D01*
X116701Y39626D01*
X117900Y38426D01*
Y38356D01*
X117991Y38135D01*
X118160Y37966D01*
X118381Y37875D01*
X118501D01*
X125639Y30737D01*
X125750Y30663D01*
X125832Y30629D01*
X125963Y30603D01*
X126189D01*
X126244Y30547D01*
X126465Y30456D01*
X126703D01*
X126924Y30547D01*
X127093Y30716D01*
X127184Y30937D01*
Y31175D01*
X127093Y31396D01*
X126933Y31556D01*
X126924Y31565D01*
X126887Y31580D01*
Y31643D01*
X126879Y31660D01*
X126887Y31669D01*
Y31717D01*
X126970Y31751D01*
X127020Y31801D01*
X135339D01*
X135347Y31773D01*
X135357D01*
X135396Y31680D01*
X135528Y31450D01*
X135778Y31200D01*
X136008Y31068D01*
X136170Y31001D01*
X136426Y30932D01*
X136780D01*
X137036Y31001D01*
X137198Y31068D01*
X137428Y31200D01*
X137678Y31450D01*
X137810Y31680D01*
X137877Y31842D01*
X137946Y32098D01*
Y32452D01*
X137877Y32708D01*
X137810Y32870D01*
X137678Y33100D01*
X137428Y33350D01*
X137198Y33482D01*
X137036Y33549D01*
X136780Y33618D01*
X136426D01*
X136170Y33549D01*
X136008Y33482D01*
X135778Y33350D01*
X135528Y33100D01*
X135396Y32870D01*
X135345Y32747D01*
X135339D01*
X135331Y32719D01*
X127034D01*
Y34643D01*
X127008Y34774D01*
X126974Y34856D01*
X126899Y34967D01*
X120169Y41698D01*
X120221Y41825D01*
X120319D01*
X120540Y41916D01*
X120561Y41938D01*
X120590Y41966D01*
X138723D01*
X139339Y41350D01*
X139450Y41276D01*
X139532Y41242D01*
X139663Y41216D01*
X142570D01*
Y41187D01*
X142593Y41008D01*
X142663Y40841D01*
X142773Y40697D01*
X142916Y40587D01*
X143084Y40517D01*
X143263Y40494D01*
X144238D01*
X144418Y40517D01*
X144585Y40587D01*
X144728Y40697D01*
X144839Y40841D01*
X144908Y41008D01*
X144932Y41187D01*
Y42162D01*
X144908Y42342D01*
X144839Y42509D01*
X144728Y42653D01*
X144585Y42763D01*
X144418Y42832D01*
X144238Y42856D01*
X143263D01*
X143084Y42832D01*
X142916Y42763D01*
X142773Y42653D01*
X142663Y42509D01*
X142593Y42342D01*
X142570Y42162D01*
Y42134D01*
X139853D01*
X139237Y42749D01*
X139126Y42824D01*
X139044Y42858D01*
X138913Y42884D01*
X120590D01*
X120561Y42912D01*
X120540Y42934D01*
X120319Y43025D01*
X120081D01*
X119860Y42934D01*
X119736Y42809D01*
X119609Y42862D01*
Y45360D01*
X125299Y51050D01*
X125435D01*
X125639Y51105D01*
X125821Y51210D01*
X125970Y51359D01*
X126075Y51541D01*
X126130Y51745D01*
Y51955D01*
X126075Y52159D01*
X125970Y52341D01*
X125821Y52490D01*
X125639Y52595D01*
X125435Y52650D01*
X125225D01*
X125021Y52595D01*
X124839Y52490D01*
X124690Y52341D01*
X124585Y52159D01*
X124530Y51955D01*
Y51745D01*
X124565Y51614D01*
X118826Y45874D01*
X118751Y45763D01*
X118717Y45681D01*
X118691Y45550D01*
Y42068D01*
X118717Y41937D01*
X118751Y41855D01*
X118826Y41744D01*
X126116Y34453D01*
Y33721D01*
X125989Y33695D01*
X125909Y33890D01*
X125740Y34059D01*
X125519Y34150D01*
X125449D01*
X118534Y41065D01*
Y49420D01*
X120174Y51060D01*
X120210Y51050D01*
X120420D01*
X120624Y51105D01*
X120806Y51210D01*
X120955Y51359D01*
X121060Y51541D01*
X121115Y51745D01*
Y51955D01*
X121060Y52159D01*
X120955Y52341D01*
X120806Y52490D01*
X120624Y52595D01*
X120420Y52650D01*
X120210D01*
X120006Y52595D01*
X119824Y52490D01*
X119675Y52341D01*
X119570Y52159D01*
X119515Y51955D01*
Y51745D01*
X119525Y51709D01*
X117751Y49934D01*
X117676Y49823D01*
X117642Y49741D01*
X117616Y49610D01*
Y40875D01*
X117642Y40744D01*
X117676Y40662D01*
X117751Y40551D01*
X124800Y33501D01*
Y33431D01*
X124891Y33210D01*
X125060Y33041D01*
X125281Y32950D01*
X125519D01*
X125740Y33041D01*
X125909Y33210D01*
X125989Y33405D01*
X126116Y33379D01*
Y32587D01*
X126030Y32379D01*
Y32141D01*
X126121Y31920D01*
X126290Y31751D01*
X126327Y31736D01*
Y31599D01*
X126244Y31565D01*
X126200Y31520D01*
X126153D01*
X119100Y38574D01*
Y38594D01*
X119009Y38815D01*
X118840Y38984D01*
X118619Y39075D01*
X118549D01*
X117484Y40140D01*
Y52510D01*
X117458Y52641D01*
X117424Y52723D01*
X117349Y52834D01*
X116075Y54109D01*
Y54149D01*
Y55190D01*
D02*
G37*
G36*
X111991Y38443D02*
X111637D01*
X111382Y38374D01*
X111219Y38307D01*
X110990Y38175D01*
X110739Y37925D01*
X110607Y37695D01*
X110540Y37533D01*
X110471Y37277D01*
Y36923D01*
X110540Y36667D01*
X110607Y36505D01*
X110739Y36275D01*
X110990Y36025D01*
X111219Y35893D01*
X111382Y35826D01*
X111637Y35757D01*
X111991D01*
X112247Y35826D01*
X112409Y35893D01*
X112639Y36025D01*
X112889Y36275D01*
X113021Y36505D01*
X113089Y36667D01*
X113157Y36923D01*
Y37277D01*
X113089Y37533D01*
X113021Y37695D01*
X112889Y37925D01*
X112639Y38175D01*
X112409Y38307D01*
X112247Y38374D01*
X111991Y38443D01*
D02*
G37*
G36*
X136727Y36642D02*
X136373D01*
X136117Y36574D01*
X135955Y36506D01*
X135725Y36374D01*
X135475Y36124D01*
X135343Y35894D01*
X135276Y35732D01*
X135207Y35476D01*
Y35122D01*
X135276Y34867D01*
X135343Y34704D01*
X135475Y34475D01*
X135725Y34225D01*
X135955Y34092D01*
X136117Y34025D01*
X136373Y33956D01*
X136727D01*
X136983Y34025D01*
X137145Y34092D01*
X137375Y34225D01*
X137625Y34475D01*
X137757Y34704D01*
X137824Y34867D01*
X137893Y35122D01*
Y35476D01*
X137824Y35732D01*
X137757Y35894D01*
X137625Y36124D01*
X137375Y36374D01*
X137145Y36506D01*
X136983Y36574D01*
X136727Y36642D01*
D02*
G37*
G36*
X111991Y33618D02*
X111637D01*
X111382Y33549D01*
X111219Y33482D01*
X110990Y33350D01*
X110739Y33100D01*
X110607Y32870D01*
X110540Y32708D01*
X110471Y32452D01*
Y32098D01*
X110540Y31842D01*
X110607Y31680D01*
X110739Y31450D01*
X110990Y31200D01*
X111219Y31068D01*
X111382Y31001D01*
X111637Y30932D01*
X111991D01*
X112247Y31001D01*
X112409Y31068D01*
X112639Y31200D01*
X112889Y31450D01*
X113021Y31680D01*
X113089Y31842D01*
X113157Y32098D01*
Y32452D01*
X113089Y32708D01*
X113021Y32870D01*
X112889Y33100D01*
X112639Y33350D01*
X112409Y33482D01*
X112247Y33549D01*
X111991Y33618D01*
D02*
G37*
G36*
Y30791D02*
X111637D01*
X111382Y30723D01*
X111219Y30655D01*
X110990Y30523D01*
X110739Y30273D01*
X110607Y30044D01*
X110540Y29881D01*
X110471Y29625D01*
Y29271D01*
X110540Y29016D01*
X110607Y28853D01*
X110739Y28624D01*
X110990Y28374D01*
X111219Y28241D01*
X111382Y28174D01*
X111637Y28105D01*
X111991D01*
X112247Y28174D01*
X112409Y28241D01*
X112639Y28374D01*
X112889Y28624D01*
X113021Y28853D01*
X113089Y29016D01*
X113157Y29271D01*
Y29625D01*
X113089Y29881D01*
X113021Y30044D01*
X112889Y30273D01*
X112639Y30523D01*
X112409Y30655D01*
X112247Y30723D01*
X111991Y30791D01*
D02*
G37*
G36*
X136780Y30692D02*
X136426D01*
X136170Y30624D01*
X136008Y30557D01*
X135778Y30424D01*
X135528Y30174D01*
X135396Y29945D01*
X135328Y29782D01*
X135260Y29526D01*
Y29173D01*
X135328Y28917D01*
X135396Y28754D01*
X135528Y28525D01*
X135778Y28275D01*
X136008Y28142D01*
X136170Y28075D01*
X136426Y28006D01*
X136780D01*
X137036Y28075D01*
X137198Y28142D01*
X137428Y28275D01*
X137678Y28525D01*
X137810Y28754D01*
X137877Y28917D01*
X137946Y29173D01*
Y29526D01*
X137877Y29782D01*
X137810Y29945D01*
X137678Y30174D01*
X137428Y30424D01*
X137198Y30557D01*
X137036Y30624D01*
X136780Y30692D01*
D02*
G37*
G36*
X143751Y32860D02*
X143527Y32831D01*
X143263D01*
X143084Y32807D01*
X142916Y32738D01*
X142773Y32628D01*
X142663Y32484D01*
X142593Y32317D01*
X142576Y32187D01*
X137960Y27571D01*
X137152D01*
X136861Y27649D01*
X136507D01*
X136251Y27580D01*
X136089Y27513D01*
X135954Y27435D01*
X132350D01*
X132154Y27410D01*
X132000Y27379D01*
X131781Y27288D01*
X131650Y27201D01*
X131494Y27081D01*
X121719Y17306D01*
X121675Y17249D01*
X121619Y17206D01*
X117040Y12627D01*
X116920Y12471D01*
X116833Y12340D01*
X116742Y12122D01*
X116712Y11967D01*
X116686Y11771D01*
Y10725D01*
X114950D01*
Y5823D01*
Y5810D01*
X105466D01*
X105279Y5785D01*
X105131Y5756D01*
X104921Y5669D01*
X104796Y5585D01*
X104646Y5470D01*
X103401Y4225D01*
X103286Y4075D01*
X103202Y3950D01*
X103115Y3740D01*
X103086Y3592D01*
X103061Y3405D01*
Y1675D01*
X103086Y1488D01*
X103115Y1340D01*
X103202Y1130D01*
X103286Y1005D01*
X103401Y855D01*
X103551Y740D01*
X103676Y656D01*
X103886Y569D01*
X104034Y540D01*
X104221Y515D01*
X104409Y540D01*
X104557Y569D01*
X104766Y656D01*
X104891Y740D01*
X105041Y855D01*
X105156Y1005D01*
X105240Y1130D01*
X105327Y1340D01*
X105356Y1488D01*
X105381Y1675D01*
Y2925D01*
X105947Y3490D01*
X114950D01*
Y3477D01*
Y825D01*
X119100D01*
Y6547D01*
Y6597D01*
X119107Y6646D01*
Y11270D01*
X123109Y15272D01*
X123143Y15287D01*
X123143Y15287D01*
X123180Y15302D01*
X123243Y15350D01*
X123312Y15390D01*
X123368Y15446D01*
X123431Y15494D01*
X123479Y15557D01*
X123535Y15613D01*
X123575Y15682D01*
X123623Y15745D01*
X123638Y15782D01*
X123638Y15782D01*
X123652Y15816D01*
X132851Y25015D01*
X136314D01*
X136507Y24963D01*
X136861D01*
X137117Y25032D01*
X137279Y25099D01*
X137368Y25150D01*
X138462D01*
X138657Y25176D01*
X138812Y25207D01*
X139030Y25297D01*
X139161Y25385D01*
X139317Y25505D01*
X144288Y30475D01*
X144418Y30492D01*
X144585Y30562D01*
X144728Y30672D01*
X144839Y30816D01*
X144908Y30983D01*
X144932Y31162D01*
Y31426D01*
X144961Y31650D01*
X144932Y31873D01*
Y32137D01*
X144908Y32317D01*
X144839Y32484D01*
X144728Y32628D01*
X144585Y32738D01*
X144418Y32807D01*
X144238Y32831D01*
X143974D01*
X143751Y32860D01*
D02*
G37*
G36*
X109319Y57185D02*
X109081D01*
X108860Y57094D01*
X108691Y56925D01*
X108600Y56704D01*
Y56466D01*
X108691Y56245D01*
X108741Y56195D01*
Y51325D01*
X108767Y51194D01*
X108801Y51112D01*
X108876Y51001D01*
X114601Y45275D01*
Y34484D01*
X114627Y34353D01*
X114661Y34271D01*
X114736Y34159D01*
X121244Y27651D01*
Y27581D01*
X121335Y27360D01*
X121504Y27191D01*
X121724Y27100D01*
X121963D01*
X122184Y27191D01*
X122251Y27259D01*
X122279Y27287D01*
X129236D01*
X129240Y27283D01*
X129461Y27192D01*
X129699D01*
X129920Y27283D01*
X130089Y27452D01*
X130180Y27673D01*
Y27911D01*
X130089Y28132D01*
X129920Y28301D01*
X129699Y28392D01*
X129461D01*
X129240Y28301D01*
X129173Y28233D01*
X129144Y28205D01*
X122188D01*
X122184Y28209D01*
X121963Y28300D01*
X121893D01*
X115519Y34674D01*
Y45465D01*
X115493Y45596D01*
X115459Y45678D01*
X115384Y45789D01*
X109659Y51515D01*
Y56195D01*
X109687Y56224D01*
X109709Y56245D01*
X109800Y56466D01*
Y56704D01*
X109709Y56925D01*
X109540Y57094D01*
X109319Y57185D01*
D02*
G37*
G36*
X111991Y27918D02*
X111637D01*
X111382Y27849D01*
X111219Y27782D01*
X110990Y27650D01*
X110739Y27400D01*
X110607Y27170D01*
X110540Y27008D01*
X110471Y26752D01*
Y26398D01*
X110540Y26142D01*
X110607Y25980D01*
X110739Y25750D01*
X110990Y25500D01*
X111011Y25488D01*
Y21249D01*
X110893Y21200D01*
X106310Y25783D01*
Y26430D01*
X106300Y26509D01*
Y26548D01*
Y27830D01*
X103700D01*
Y25230D01*
X103896D01*
X103915Y25086D01*
X103946Y24932D01*
X104037Y24714D01*
X104124Y24583D01*
X104244Y24426D01*
X110282Y18388D01*
X110283Y18387D01*
X110322Y18318D01*
X110337Y18282D01*
X110337Y18282D01*
X110353Y18245D01*
X110401Y18182D01*
X110441Y18113D01*
X110497Y18057D01*
X110545Y17994D01*
X110608Y17946D01*
X110664Y17890D01*
X110733Y17850D01*
X110796Y17802D01*
X110832Y17787D01*
X110832Y17787D01*
X110869Y17771D01*
X110938Y17732D01*
X111014Y17711D01*
X111051Y17696D01*
X111051D01*
X111088Y17681D01*
X111166Y17671D01*
X111243Y17650D01*
X111322D01*
X111401Y17640D01*
X111480Y17650D01*
X111559D01*
X111635Y17671D01*
X111714Y17681D01*
X111751Y17696D01*
X111751D01*
X111787Y17711D01*
X111864Y17732D01*
X111933Y17771D01*
X111969Y17787D01*
X111969Y17787D01*
X112006Y17802D01*
X112069Y17850D01*
X112138Y17890D01*
X112194Y17946D01*
X112257Y17994D01*
X112305Y18057D01*
X112361Y18113D01*
X112401Y18182D01*
X112449Y18245D01*
X112464Y18282D01*
X112464Y18282D01*
X112479Y18318D01*
X112519Y18387D01*
X112540Y18463D01*
X112555Y18500D01*
Y18500D01*
X112570Y18537D01*
X112580Y18615D01*
X112601Y18692D01*
Y18732D01*
Y18771D01*
X112611Y18850D01*
Y18981D01*
X112585Y19177D01*
X112555Y19331D01*
X112464Y19550D01*
X112388Y19664D01*
X112388Y19665D01*
D01*
X112399Y19690D01*
X112423Y19873D01*
Y25376D01*
X112639Y25500D01*
X112889Y25750D01*
X113021Y25980D01*
X113089Y26142D01*
X113157Y26398D01*
Y26752D01*
X113089Y27008D01*
X113021Y27170D01*
X112889Y27400D01*
X112639Y27650D01*
X112409Y27782D01*
X112247Y27849D01*
X111991Y27918D01*
D02*
G37*
G36*
X144238Y22806D02*
X143262D01*
X143083Y22782D01*
X142916Y22713D01*
X142772Y22603D01*
X142757Y22583D01*
X141275D01*
X141027Y22551D01*
X140796Y22455D01*
X140597Y22303D01*
X135282Y16987D01*
X135100D01*
Y17057D01*
Y17121D01*
X132700D01*
Y14861D01*
Y14791D01*
X130391D01*
X130375Y14800D01*
X130095Y14875D01*
X129805D01*
X129525Y14800D01*
X129275Y14655D01*
X129070Y14450D01*
X128925Y14200D01*
X128850Y13920D01*
Y13630D01*
X128925Y13350D01*
X129070Y13100D01*
X129275Y12895D01*
X129525Y12750D01*
X129805Y12675D01*
X130095D01*
X130375Y12750D01*
X130590Y12874D01*
X132700D01*
Y12804D01*
Y12721D01*
X135100D01*
Y15000D01*
Y15070D01*
X135678D01*
X135926Y15103D01*
X136158Y15199D01*
X136356Y15351D01*
X141672Y20667D01*
X142757D01*
X142772Y20647D01*
X142916Y20537D01*
X143083Y20468D01*
X143262Y20444D01*
X144238D01*
X144417Y20468D01*
X144584Y20537D01*
X144728Y20647D01*
X144838Y20791D01*
X144907Y20958D01*
X144931Y21138D01*
Y22112D01*
X144907Y22292D01*
X144838Y22459D01*
X144728Y22603D01*
X144584Y22713D01*
X144417Y22782D01*
X144238Y22806D01*
D02*
G37*
G36*
X147499Y15025D02*
X146199D01*
Y14887D01*
Y14859D01*
X146040D01*
X146011Y14887D01*
X145990Y14909D01*
X145769Y15000D01*
X145531D01*
X145310Y14909D01*
X145141Y14740D01*
X145050Y14519D01*
Y14281D01*
X145141Y14060D01*
X145310Y13891D01*
X145531Y13800D01*
X145769D01*
X145990Y13891D01*
X146011Y13913D01*
X146040Y13941D01*
X146199D01*
Y13913D01*
Y13775D01*
X147499D01*
Y15025D01*
D02*
G37*
G36*
X96995Y12325D02*
X96705D01*
X96425Y12250D01*
X96310Y12183D01*
X95293D01*
X95045Y12151D01*
X94814Y12055D01*
X94615Y11903D01*
X91122Y8410D01*
X90970Y8211D01*
X90874Y7980D01*
X90842Y7732D01*
Y6547D01*
X89436Y5141D01*
X89270Y5174D01*
X88930D01*
X88597Y5108D01*
X88283Y4978D01*
X88001Y4789D01*
X87761Y4549D01*
X87572Y4267D01*
X87442Y3953D01*
X87376Y3620D01*
Y3280D01*
X87442Y2947D01*
X87572Y2633D01*
X87761Y2351D01*
X88001Y2111D01*
X88283Y1922D01*
X88597Y1792D01*
X88930Y1726D01*
X89270D01*
X89603Y1792D01*
X89917Y1922D01*
X90199Y2111D01*
X90439Y2351D01*
X90628Y2633D01*
X90758Y2947D01*
X90824Y3280D01*
Y3620D01*
X90791Y3786D01*
X92478Y5472D01*
X92630Y5671D01*
X92726Y5902D01*
X92758Y6150D01*
Y7335D01*
X95690Y10267D01*
X96310D01*
X96425Y10200D01*
X96705Y10125D01*
X96995D01*
X97275Y10200D01*
X97525Y10345D01*
X97730Y10550D01*
X97875Y10800D01*
X97950Y11080D01*
Y11370D01*
X97875Y11650D01*
X97730Y11900D01*
X97525Y12105D01*
X97275Y12250D01*
X96995Y12325D01*
D02*
G37*
G36*
X143905Y47850D02*
X143596D01*
X143372Y47790D01*
X143230Y47731D01*
X143029Y47615D01*
X142810Y47396D01*
X142695Y47196D01*
X142636Y47053D01*
X142576Y46829D01*
Y46520D01*
X142636Y46296D01*
X142695Y46154D01*
X142810Y45953D01*
X143029Y45735D01*
X143230Y45619D01*
X143372Y45560D01*
X143561Y45509D01*
X145667Y43403D01*
Y39921D01*
X143561Y37815D01*
X143372Y37765D01*
X143230Y37706D01*
X143029Y37590D01*
X142810Y37371D01*
X142695Y37171D01*
X142636Y37028D01*
X142576Y36804D01*
Y36495D01*
X142636Y36271D01*
X142695Y36129D01*
X142810Y35928D01*
X143029Y35710D01*
X143230Y35594D01*
X143372Y35535D01*
X143561Y35484D01*
X146140Y32905D01*
Y19570D01*
X142459Y15889D01*
X142170D01*
X141914Y15821D01*
X141751Y15753D01*
X141522Y15621D01*
X141272Y15371D01*
X141139Y15142D01*
X141072Y14979D01*
X141003Y14723D01*
Y14558D01*
X135895Y9450D01*
X135609D01*
X135333Y9376D01*
X135157Y9303D01*
X134910Y9160D01*
X134778Y9028D01*
X134708Y8958D01*
X130542D01*
X130472Y9028D01*
X130340Y9160D01*
X130093Y9303D01*
X129917Y9376D01*
X129641Y9450D01*
X129259D01*
X128983Y9376D01*
X128807Y9303D01*
X128560Y9160D01*
X128290Y8890D01*
X128147Y8643D01*
X128074Y8467D01*
X128000Y8191D01*
Y7809D01*
X128074Y7533D01*
X128147Y7357D01*
X128290Y7110D01*
X128560Y6840D01*
X128807Y6697D01*
X128983Y6624D01*
X129259Y6550D01*
X129641D01*
X129917Y6624D01*
X130093Y6697D01*
X130340Y6840D01*
X130472Y6972D01*
X130542Y7042D01*
X134708D01*
X134910Y6840D01*
X135157Y6697D01*
X135333Y6624D01*
X135609Y6550D01*
X135991D01*
X136267Y6624D01*
X136443Y6697D01*
X136690Y6840D01*
X136960Y7110D01*
X137103Y7357D01*
X137176Y7533D01*
X137250Y7809D01*
Y7996D01*
Y8095D01*
X142358Y13203D01*
X142523D01*
X142779Y13272D01*
X142942Y13339D01*
X143171Y13472D01*
X143421Y13722D01*
X143553Y13951D01*
X143621Y14114D01*
X143689Y14370D01*
Y14409D01*
X147776Y18496D01*
X147928Y18694D01*
X148024Y18925D01*
X148056Y19173D01*
Y33302D01*
X148024Y33550D01*
X147928Y33781D01*
X147776Y33980D01*
X145106Y36650D01*
X147303Y38847D01*
X147455Y39045D01*
X147551Y39276D01*
X147583Y39524D01*
Y43800D01*
X147551Y44048D01*
X147455Y44279D01*
X147303Y44478D01*
X144916Y46864D01*
X144866Y47053D01*
X144807Y47196D01*
X144691Y47396D01*
X144472Y47615D01*
X144271Y47731D01*
X144129Y47790D01*
X143905Y47850D01*
D02*
G37*
G36*
X95550Y8166D02*
X94800D01*
X94576Y8122D01*
X94385Y7995D01*
X94258Y7804D01*
X94214Y7580D01*
Y6830D01*
X94258Y6606D01*
X94385Y6415D01*
X94576Y6288D01*
X94800Y6244D01*
X95550D01*
X95774Y6288D01*
X95965Y6415D01*
X96092Y6606D01*
X96136Y6830D01*
Y7580D01*
X96092Y7804D01*
X95965Y7995D01*
X95774Y8122D01*
X95550Y8166D01*
D02*
G37*
G36*
X95300Y5615D02*
X95050D01*
X94808Y5550D01*
X94592Y5425D01*
X94415Y5248D01*
X94290Y5032D01*
X94225Y4790D01*
Y4540D01*
X94290Y4298D01*
X94415Y4082D01*
X94592Y3905D01*
X94808Y3780D01*
X95050Y3715D01*
X95300D01*
X95542Y3780D01*
X95758Y3905D01*
X95935Y4082D01*
X96060Y4298D01*
X96125Y4540D01*
Y4790D01*
X96060Y5032D01*
X95935Y5248D01*
X95758Y5425D01*
X95542Y5550D01*
X95300Y5615D01*
D02*
G37*
G36*
X123225Y12510D02*
X123029Y12485D01*
X122875Y12454D01*
X122657Y12363D01*
X122526Y12276D01*
X122369Y12156D01*
X122249Y11999D01*
X122162Y11868D01*
X122071Y11650D01*
X122040Y11496D01*
X122015Y11300D01*
Y10725D01*
X121200D01*
Y825D01*
X125350D01*
Y10725D01*
X124435D01*
Y11300D01*
X124410Y11496D01*
X124379Y11650D01*
X124288Y11868D01*
X124201Y11999D01*
X124081Y12156D01*
X123924Y12276D01*
X123793Y12363D01*
X123575Y12454D01*
X123421Y12485D01*
X123225Y12510D01*
D02*
G37*
G36*
X109290Y3075D02*
X109006Y3038D01*
X108873Y2983D01*
X108741Y2928D01*
X108513Y2754D01*
X108339Y2526D01*
X108284Y2394D01*
X108229Y2261D01*
X108192Y1977D01*
Y1723D01*
X108229Y1439D01*
X108284Y1306D01*
X108339Y1174D01*
X108513Y946D01*
X108741Y772D01*
X108873Y717D01*
X109006Y662D01*
X109290Y625D01*
X109574Y662D01*
X109707Y717D01*
X109839Y772D01*
X110067Y946D01*
X110241Y1174D01*
X110296Y1306D01*
X110351Y1439D01*
X110388Y1723D01*
Y1977D01*
X110351Y2261D01*
X110296Y2394D01*
X110241Y2526D01*
X110067Y2754D01*
X109839Y2928D01*
X109707Y2983D01*
X109574Y3038D01*
X109290Y3075D01*
D02*
G37*
%LPD*%
D10*
X107309Y56727D02*
D03*
X105759D02*
D03*
D11*
X133900Y22021D02*
D03*
Y14921D02*
D03*
D12*
X85575Y55930D02*
D03*
X76425Y58470D02*
D03*
X85575D02*
D03*
X76425Y55930D02*
D03*
D13*
X146849Y14400D02*
D03*
Y15950D02*
D03*
D14*
X123275Y5775D02*
D03*
X117025D02*
D03*
D15*
X58601Y39551D02*
X59868D01*
X45731Y26681D02*
X58601Y39551D01*
X45114Y15775D02*
Y16046D01*
X45763Y16694D02*
Y26518D01*
X45114Y16046D02*
X45763Y16694D01*
X68754Y21895D02*
X73924Y16725D01*
X59868Y39551D02*
X61269Y40952D01*
X106133Y33067D02*
Y34802D01*
X105134Y35801D02*
X106133Y34802D01*
X44864Y15525D02*
X45114Y15775D01*
X42068Y12725D02*
X44864Y15522D01*
Y15525D01*
X34500Y12725D02*
X42068D01*
X33700Y4000D02*
X34500Y4800D01*
X18745Y4245D02*
Y6730D01*
Y3925D02*
Y4245D01*
X18500Y4000D02*
X18745Y4245D01*
X13675Y11800D02*
X18745Y6730D01*
X105000Y43900D02*
X109250Y39650D01*
X53050Y48850D02*
Y52375D01*
X62853Y52303D02*
X63045Y52112D01*
X62074Y52375D02*
X62146Y52303D01*
X62853D01*
X53050Y52375D02*
X62074D01*
X67165Y21895D02*
X68554D01*
X67135Y21925D02*
X67165Y21895D01*
X106133Y33067D02*
X108400Y30800D01*
X21974Y38300D02*
X35352D01*
X18500Y34826D02*
X21974Y38300D01*
X18500Y31000D02*
Y34826D01*
X3300Y13800D02*
X5300Y11800D01*
X13675D01*
X23500Y8875D02*
X25700Y11075D01*
X23500Y4000D02*
Y8875D01*
X25700Y11075D02*
Y13800D01*
X18500Y18725D02*
X21600Y15625D01*
X18500Y18725D02*
Y21000D01*
X21600Y15625D02*
X23875D01*
X25700Y13800D01*
X3300D02*
Y18800D01*
X5500Y21000D01*
Y31000D02*
X7975D01*
X12952Y35977D01*
Y38300D01*
D16*
X40907Y20332D02*
Y25739D01*
X53000Y37832D02*
Y48800D01*
X40907Y25739D02*
X53000Y37832D01*
X40175Y19600D02*
X40907Y20332D01*
X37500Y30000D02*
X41375Y33875D01*
X40425Y49571D02*
X41375Y48621D01*
Y33875D02*
Y48621D01*
X107309Y54050D02*
Y56727D01*
X75025Y55875D02*
X76370D01*
X72800Y56950D02*
X72937D01*
X74012Y55875D02*
X75025D01*
X72937Y56950D02*
X74012Y55875D01*
X62800Y57800D02*
X64000Y59000D01*
X76125Y58470D02*
X76425D01*
X75595Y59000D02*
X76125Y58470D01*
X64000Y59000D02*
X75595D01*
D17*
X109200Y51325D02*
Y56585D01*
Y51325D02*
X115060Y45465D01*
X118075Y40875D02*
X125400Y33550D01*
X118075Y40875D02*
Y49610D01*
X120315Y51850D01*
X118607Y38418D02*
X125963Y31062D01*
X126578D02*
X126584Y31056D01*
X125963Y31062D02*
X126578D01*
X117025Y39950D02*
Y52510D01*
Y39950D02*
X118557Y38418D01*
X119150Y42068D02*
X126575Y34643D01*
Y32315D02*
Y34643D01*
X119150Y42068D02*
Y45550D01*
X125330Y51730D01*
Y51850D01*
X126575Y32315D02*
X126630Y32260D01*
X120200Y42425D02*
X138913D01*
X139663Y41675D01*
X143751D01*
X115116Y54419D02*
X117025Y52510D01*
X115060Y34484D02*
Y45465D01*
Y34484D02*
X121844Y27700D01*
X104728Y56724D02*
X105756D01*
X104725Y56722D02*
X104728Y56724D01*
X105756D02*
X105759Y56727D01*
X126630Y32260D02*
X136410D01*
X136550Y32400D01*
X121844Y27700D02*
X121890Y27746D01*
X129534D02*
X129580Y27792D01*
X121890Y27746D02*
X129534D01*
X145650Y14400D02*
X146849D01*
X68458Y56500D02*
X68506Y56452D01*
X36800Y49925D02*
X38825Y47900D01*
X36800Y49925D02*
Y58075D01*
X68458Y56500D02*
X68483Y56525D01*
D18*
X133750Y16028D02*
X135678D01*
X133750Y13932D02*
Y16028D01*
X89100Y3450D02*
X91800Y6150D01*
Y7732D01*
X95293Y11225D01*
X96850D01*
X56900Y22774D02*
Y25600D01*
X68554Y21895D02*
X68754D01*
X115900Y4650D02*
X117025Y5775D01*
X133650Y13832D02*
X133750Y13932D01*
X130007Y13832D02*
X133650D01*
X24450Y57945D02*
X29850Y52545D01*
X29850D01*
X24450Y57945D02*
Y58125D01*
X29678Y52053D02*
Y52082D01*
X108400Y30800D02*
X109200Y30000D01*
X129950Y13775D02*
X130007Y13832D01*
X104210Y1850D02*
X104221Y1861D01*
X56900Y22774D02*
X57779Y21895D01*
X50525Y26350D02*
X55744D01*
X56494Y25600D01*
X56900D01*
X50500Y26375D02*
X50525Y26350D01*
X143751Y36650D02*
X146625Y39524D01*
X143751Y46675D02*
X146625Y43800D01*
Y39524D02*
Y43800D01*
X143665Y36736D02*
X147098Y33302D01*
X132625Y8000D02*
X135800D01*
X129450D02*
X132625D01*
X141275Y21625D02*
X143750D01*
X135678Y16028D02*
X141275Y21625D01*
X135800Y8000D02*
X142346Y14546D01*
X147098Y19173D02*
Y33302D01*
X142471Y14546D02*
X147098Y19173D01*
D19*
X104221Y1861D02*
Y3405D01*
Y1675D02*
Y1861D01*
X105466Y4650D02*
X115900D01*
X104221Y3405D02*
X105466Y4650D01*
D20*
X53050Y52375D02*
Y55430D01*
X38750Y23775D02*
Y27575D01*
X43282Y32107D01*
X138462Y26361D02*
X143751Y31650D01*
X136739Y26361D02*
X138462D01*
X136684Y26306D02*
X136739Y26361D01*
X117025Y5775D02*
X117896Y6646D01*
Y11771D01*
X132350Y26225D02*
X136603D01*
X117896Y11771D02*
X122475Y16350D01*
X122575Y16450D02*
X132350Y26225D01*
X122475Y16350D02*
X122575D01*
X62503Y41952D02*
X63045D01*
X61503Y40952D02*
X62503Y41952D01*
X61269Y40952D02*
X61503D01*
X33750Y12725D02*
X34500D01*
X105100Y25282D02*
Y26430D01*
Y25282D02*
X111401Y18981D01*
Y18850D02*
Y18981D01*
X11925Y48161D02*
X11957D01*
X13095Y47024D01*
X24649D01*
X29678Y52053D01*
X43282Y32107D02*
Y39482D01*
X47625Y43825D01*
X39250Y35950D02*
X39350Y36050D01*
X33625Y30325D02*
X39250Y35950D01*
X39350Y36050D02*
Y39300D01*
X33625Y24200D02*
Y30325D01*
X36725Y41925D02*
X39350Y39300D01*
X29928Y41925D02*
X36725D01*
X29928D02*
Y47467D01*
X47625Y43825D02*
X49300D01*
X83477Y16727D02*
X86363D01*
X89100Y13990D01*
Y10950D02*
Y13990D01*
X123225Y5825D02*
X123275Y5775D01*
X123225Y5825D02*
Y11300D01*
X105000Y26530D02*
X105100Y26430D01*
X5500Y21000D02*
Y21000D01*
X12952Y38300D02*
X12952Y38300D01*
D21*
X47410Y55490D02*
X47950Y54950D01*
X46187Y55490D02*
X47410D01*
X45976Y55701D02*
X48275Y58000D01*
X45865Y55590D02*
X45976Y55701D01*
X43103Y55490D02*
X46187D01*
X48275Y58000D02*
X54450D01*
X64100Y3450D02*
X66660Y890D01*
X91395D02*
X92630Y2125D01*
X66660Y890D02*
X91395D01*
X111592Y19041D02*
Y19748D01*
X111717Y19873D02*
Y26367D01*
X111925Y26575D01*
X111401Y18850D02*
X111592Y19041D01*
Y19748D02*
X111717Y19873D01*
X38400Y49943D02*
Y55521D01*
Y49943D02*
X39146Y49197D01*
X55540Y55150D02*
Y56910D01*
X54450Y58000D02*
X55540Y56910D01*
X85575Y58470D02*
X90655D01*
X92630Y2125D02*
X95175D01*
X68506Y52550D02*
Y56452D01*
D22*
X34500Y7900D02*
Y11975D01*
X33750Y12725D02*
Y12725D01*
Y12725D02*
X34500Y11975D01*
D23*
X99276Y41856D02*
Y41952D01*
X99430Y41702D02*
X99607D01*
X99276Y41856D02*
X99430Y41702D01*
X99607D02*
X105134Y36175D01*
X93999Y41952D02*
X99045D01*
X63045Y31919D02*
X68599D01*
X93625Y51967D02*
X99045D01*
X63068Y41975D02*
X68495D01*
X105000Y43900D02*
Y49427D01*
X99045Y51967D02*
X99094Y52016D01*
X99494D02*
X99597Y51914D01*
X102513D02*
X105000Y49427D01*
X99597Y51914D02*
X102513D01*
X99094Y52016D02*
X99494D01*
X63068Y52135D02*
X68495D01*
X63251Y21838D02*
X68392D01*
X57779Y21895D02*
X63000D01*
X5300Y38300D02*
X12952D01*
D24*
X28500Y4000D02*
X33700D01*
D25*
X34938Y49162D02*
X37175Y46925D01*
X40425D01*
Y49571D02*
Y49625D01*
X34938Y49162D02*
Y56069D01*
X33100Y57907D02*
Y58075D01*
Y57907D02*
X34938Y56069D01*
X76397Y55903D02*
X76425Y55930D01*
X75025Y55875D02*
X75052Y55903D01*
D26*
X27759Y58075D02*
X31728Y54106D01*
Y45677D02*
Y54106D01*
X109250Y44475D02*
X109260Y44465D01*
X113474D01*
X113484Y44456D01*
X27675Y58075D02*
X27759D01*
D27*
X68599Y21632D02*
X68726Y21759D01*
D28*
X73924Y16725D02*
X78376D01*
D29*
X94650Y58375D02*
X97125D01*
X92205Y55930D02*
X94650Y58375D01*
X85575Y55930D02*
X92205D01*
D30*
X37450Y24930D02*
D03*
D31*
X27038Y20550D02*
D03*
D32*
X50819Y25947D02*
D03*
D33*
X56725Y23675D02*
D03*
D34*
X52078Y8850D02*
D03*
D35*
X133474Y21788D02*
D03*
D36*
X143688Y26668D02*
D03*
D37*
X122080Y21237D02*
D03*
D38*
X106379Y18507D02*
D03*
D39*
X44225Y58000D02*
D03*
X109250Y44475D02*
D03*
X111814Y29448D02*
D03*
X136603Y45532D02*
D03*
X136684Y26306D02*
D03*
X111814Y26575D02*
D03*
X72800Y56950D02*
D03*
X59100Y2450D02*
D03*
X45600Y26681D02*
D03*
X36800Y58075D02*
D03*
X43625Y45451D02*
D03*
X33100Y58075D02*
D03*
X45825Y34925D02*
D03*
X47250Y38375D02*
D03*
X109250Y39650D02*
D03*
X136550Y35299D02*
D03*
X111814Y32275D02*
D03*
X142346Y14546D02*
D03*
X27675Y58075D02*
D03*
X97125Y58375D02*
D03*
X8650Y48500D02*
D03*
X68458Y56500D02*
D03*
X140775Y9100D02*
D03*
X24450Y58125D02*
D03*
X66506Y16092D02*
D03*
X136603Y29349D02*
D03*
X111814Y37100D02*
D03*
X136603Y32275D02*
D03*
D40*
X99045Y21759D02*
D03*
Y31919D02*
D03*
Y41952D02*
D03*
Y52112D02*
D03*
D41*
X63045Y31919D02*
D03*
Y21632D02*
D03*
Y41952D02*
D03*
Y52112D02*
D03*
D42*
X93999D02*
D03*
Y47159D02*
D03*
Y41952D02*
D03*
Y36872D02*
D03*
Y31919D02*
D03*
Y26839D02*
D03*
Y21759D02*
D03*
X68599Y52239D02*
D03*
Y47032D02*
D03*
Y42079D02*
D03*
Y31919D02*
D03*
Y26839D02*
D03*
Y21632D02*
D03*
D43*
X143750Y26625D02*
D03*
X143751Y36650D02*
D03*
Y46675D02*
D03*
X5300Y38300D02*
D03*
D44*
X143750Y21625D02*
D03*
X143751Y31650D02*
D03*
Y41675D02*
D03*
X5300Y43300D02*
D03*
D45*
X95175Y7205D02*
D03*
D46*
Y4665D02*
D03*
Y2125D02*
D03*
X131825Y50235D02*
D03*
Y52775D02*
D03*
D47*
Y55315D02*
D03*
D48*
X135800Y3000D02*
D03*
Y8000D02*
D03*
X129450Y3000D02*
D03*
Y8000D02*
D03*
D49*
X111401Y18850D02*
D03*
X106401D02*
D03*
X122575Y16350D02*
D03*
Y21350D02*
D03*
X50500Y38375D02*
D03*
Y26375D02*
D03*
X29928Y47467D02*
D03*
Y52467D02*
D03*
X34500Y7900D02*
D03*
Y4800D02*
D03*
X28928Y32525D02*
D03*
Y20525D02*
D03*
X37500Y25000D02*
D03*
Y30000D02*
D03*
X5500Y21000D02*
D03*
X18500D02*
D03*
X5500Y31000D02*
D03*
X18500D02*
D03*
X25700Y13800D02*
D03*
X3300D02*
D03*
X35352Y38300D02*
D03*
X12952D02*
D03*
X25077Y20525D02*
D03*
Y32525D02*
D03*
D50*
X52186Y8839D02*
D03*
X45114Y15911D02*
D03*
D51*
X105000Y47470D02*
D03*
D52*
Y26530D02*
D03*
D53*
X55540Y55150D02*
D03*
X53000D02*
D03*
X50460D02*
D03*
D54*
X53000Y48800D02*
D03*
X106750Y8200D02*
D03*
D55*
X57075Y43400D02*
D03*
X57025Y23425D02*
D03*
X13500Y4000D02*
D03*
X28500D02*
D03*
X23500D02*
D03*
X18500D02*
D03*
D56*
X109290Y1850D02*
D03*
X106750D02*
D03*
X104210D02*
D03*
D57*
X18275Y50701D02*
D03*
D58*
X11925Y48161D02*
D03*
Y50701D02*
D03*
Y53241D02*
D03*
D59*
X74100Y3450D02*
D03*
X69100D02*
D03*
X64100D02*
D03*
Y10950D02*
D03*
X69100D02*
D03*
X74100D02*
D03*
X89100Y3450D02*
D03*
D60*
Y10950D02*
D03*
D61*
X120315Y54390D02*
D03*
X125330D02*
D03*
X115275D02*
D03*
D62*
X120315Y51850D02*
D03*
Y49310D02*
D03*
X125330Y51850D02*
D03*
Y49310D02*
D03*
X115275Y51850D02*
D03*
Y49310D02*
D03*
D63*
X109200Y30000D02*
D03*
D64*
Y37100D02*
D03*
D65*
X83326Y16725D02*
D03*
X78376D02*
D03*
X33750Y17675D02*
D03*
Y12725D02*
D03*
D66*
X132625Y8000D02*
D03*
X109200Y56585D02*
D03*
X47950Y54950D02*
D03*
X39146Y49197D02*
D03*
X39250Y35950D02*
D03*
X43103Y55490D02*
D03*
X38400Y55575D02*
D03*
X40425Y46925D02*
D03*
X31728Y45677D02*
D03*
X49300Y43825D02*
D03*
X118500Y38475D02*
D03*
X120200Y42425D02*
D03*
X107309Y54050D02*
D03*
X113484Y44456D02*
D03*
X125400Y33550D02*
D03*
X104725Y56722D02*
D03*
X90655Y58470D02*
D03*
X126584Y31056D02*
D03*
X126630Y32260D02*
D03*
X121844Y27700D02*
D03*
X129580Y27792D02*
D03*
X145650Y14400D02*
D03*
X62800Y57800D02*
D03*
X38825Y47900D02*
D03*
X40425Y49625D02*
D03*
D67*
X96850Y11225D02*
D03*
X129950Y13775D02*
D03*
X123225Y11300D02*
D03*
D68*
X129855Y35299D02*
D03*
X103372Y30144D02*
D03*
X110199Y47599D02*
D03*
X111227Y52150D02*
D03*
D69*
X40175Y19600D02*
D03*
%TF.MD5,bcc2c09f43031f6b17bee7cd69a25987*%
M02*
