%TF.GenerationSoftware,Altium Limited,Altium Designer,21.6.4 (81)*%
G04 Layer_Color=65535*
%FSLAX43Y43*%
%MOMM*%
%TF.SameCoordinates,B74C4539-8C7F-4592-B280-35368C4CFDA8*%
%TF.FilePolarity,Positive*%
%TF.FileFunction,Legend,Top*%
%TF.Part,Single*%
G01*
G75*
%TA.AperFunction,NonConductor*%
%ADD67C,0.250*%
%ADD68C,0.200*%
%ADD69C,0.254*%
%ADD91C,0.300*%
%ADD92C,1.000*%
%ADD93C,0.100*%
%ADD94C,0.635*%
%ADD95C,0.762*%
D67*
X122583Y27025D02*
G03*
X122583Y27025I-125J0D01*
G01*
X141699Y12135D02*
G03*
X141699Y12135I-125J0D01*
G01*
X44266Y22025D02*
G03*
X44266Y22025I-125J0D01*
G01*
X107250Y48525D02*
G03*
X107250Y48525I-125J0D01*
G01*
D68*
X36491Y1872D02*
Y5547D01*
X50841D01*
X36491Y1872D02*
X50841D01*
Y5547D01*
X43284Y2990D02*
X43991Y3697D01*
X43284Y4404D02*
X43991Y3697D01*
X43284Y2990D02*
Y4404D01*
X43991Y2997D02*
Y3697D01*
X42691D02*
X43991D01*
Y4397D01*
Y3697D02*
X44591D01*
X141999Y18655D02*
X147949D01*
Y10695D02*
Y18655D01*
X141999Y10695D02*
X147949D01*
X141999D02*
Y18655D01*
X121225Y807D02*
Y5767D01*
X131005D01*
Y807D02*
Y5767D01*
X121225Y807D02*
X131005D01*
X131360Y812D02*
Y5772D01*
X141140D01*
Y812D02*
Y5772D01*
X131360Y812D02*
X141140D01*
X106900Y3525D02*
Y6400D01*
X108250Y3525D02*
Y6400D01*
X106900D02*
X108250D01*
X106900Y3525D02*
X108250D01*
X125793Y16920D02*
Y18480D01*
X128718Y17700D02*
X129293D01*
X124243D02*
X124818D01*
Y16850D02*
Y18550D01*
Y16850D02*
X128718D01*
Y18550D01*
X124818D02*
X128718D01*
X39891Y12625D02*
Y20125D01*
Y12625D02*
X40891Y11625D01*
X42741D01*
X45541D02*
X47391D01*
X48391Y12625D01*
Y20125D01*
X39891D02*
X42741D01*
X45541D02*
X48391D01*
X111070Y830D02*
Y5790D01*
X120850D01*
Y830D02*
Y5790D01*
X111070Y830D02*
X120850D01*
X125793Y19045D02*
Y20605D01*
X128718Y19825D02*
X129293D01*
X124243D02*
X124818D01*
Y18975D02*
Y20675D01*
Y18975D02*
X128718D01*
Y20675D01*
X124818D02*
X128718D01*
X135125Y23600D02*
Y26475D01*
X133775Y23600D02*
Y26475D01*
Y23600D02*
X135125D01*
X133775Y26475D02*
X135125D01*
X95072Y5530D02*
X106347D01*
X95072D02*
Y10980D01*
X106347D01*
Y5530D02*
Y10980D01*
X43750Y40524D02*
Y46524D01*
X41150D02*
X43750D01*
X41150Y40524D02*
X43750D01*
X41150D02*
Y46524D01*
X1127Y18025D02*
X8477D01*
X9177D02*
X10127D01*
Y28025D01*
X1127Y18025D02*
Y28025D01*
X3277D01*
X3977D02*
X10127D01*
X3027Y28625D02*
X4227D01*
X3027D02*
X3277Y28025D01*
X3977D02*
X4227Y28625D01*
X9177Y18025D02*
X9427Y17425D01*
X8227D02*
X9427D01*
X8227D02*
X8477Y18025D01*
X65855Y38650D02*
X66455D01*
X65855D02*
Y39350D01*
X64555Y38650D02*
X65855D01*
Y37950D02*
Y38650D01*
X65148Y37943D02*
Y39357D01*
X65855Y38650D01*
X65148Y37943D02*
X65855Y38650D01*
X72705Y36825D02*
Y40500D01*
X58355Y36825D02*
X72705D01*
X58355Y40500D02*
X72705D01*
X58355Y36825D02*
Y40500D01*
X44700Y39925D02*
X50150D01*
Y51200D01*
X44700D02*
X50150D01*
X44700Y39925D02*
Y51200D01*
X58461Y46800D02*
X72461D01*
X58461Y40925D02*
Y46800D01*
X72461Y40925D02*
Y46800D01*
X58461Y40925D02*
X72461D01*
X43991Y7837D02*
X44591D01*
X43991D02*
Y8537D01*
X42691Y7837D02*
X43991D01*
Y7137D02*
Y7837D01*
X43284Y7130D02*
Y8544D01*
X43991Y7837D01*
X43284Y7130D02*
X43991Y7837D01*
X50841Y6012D02*
Y9687D01*
X36491Y6012D02*
X50841D01*
X36491Y9687D02*
X50841D01*
X36491Y6012D02*
Y9687D01*
X95122Y496D02*
X106322D01*
Y5296D01*
X95122D02*
X106322D01*
X95122Y496D02*
Y5296D01*
X140786Y43575D02*
X148136D01*
X139136D02*
X140086D01*
X139136Y33575D02*
Y43575D01*
X148136Y33575D02*
Y43575D01*
X145986Y33575D02*
X148136D01*
X139136D02*
X145286D01*
X145036Y32975D02*
X146236D01*
X145986Y33575D02*
X146236Y32975D01*
X145036D02*
X145286Y33575D01*
X139836Y44175D02*
X140086Y43575D01*
X139836Y44175D02*
X141036D01*
X140787Y43575D02*
X141036Y44175D01*
X140786Y31900D02*
X148136D01*
X139136D02*
X140086D01*
X139136Y21900D02*
Y31900D01*
X148136Y21900D02*
Y31900D01*
X145986Y21900D02*
X148136D01*
X139136D02*
X145286D01*
X145036Y21300D02*
X146236D01*
X145986Y21900D02*
X146236Y21300D01*
X145036D02*
X145286Y21900D01*
X139836Y32500D02*
X140086Y31900D01*
X139836Y32500D02*
X141036D01*
X140787Y31900D02*
X141036Y32500D01*
X1068Y33325D02*
X8418D01*
X9118D02*
X10068D01*
Y43325D01*
X1068Y33325D02*
Y43325D01*
X3218D01*
X3918D02*
X10068D01*
X2968Y43925D02*
X4168D01*
X2968D02*
X3217Y43325D01*
X3918D02*
X4168Y43925D01*
X9118Y33325D02*
X9367Y32725D01*
X8167D02*
X9367D01*
X8167D02*
X8417Y33325D01*
D69*
X112324Y11532D02*
X118801D01*
X112324Y46711D02*
X118801D01*
X112324Y11532D02*
Y46711D01*
X118801Y11532D02*
Y46711D01*
X83749Y11532D02*
X90226D01*
X83749Y46838D02*
X90226D01*
X83749Y11532D02*
Y46838D01*
X90226Y11532D02*
Y46838D01*
X60325Y7150D02*
X71125D01*
X58225Y8150D02*
X73125D01*
X56725Y9150D02*
X74725D01*
X54725Y11150D02*
X55725Y10150D01*
X54725Y11150D02*
X76925D01*
X55725Y10150D02*
X75725D01*
X74725Y9150D02*
X75725Y10150D01*
X32765Y22824D02*
Y38949D01*
X10790D02*
X32765D01*
X10790Y22824D02*
Y38949D01*
Y22824D02*
X32765D01*
X33568Y22448D02*
Y26448D01*
Y22448D02*
X48768D01*
Y26448D01*
X33568D02*
X48768D01*
X40268Y22948D02*
Y25948D01*
Y24448D02*
X41768Y25948D01*
Y22948D02*
Y25948D01*
X40268Y24448D02*
X41768Y22948D01*
Y24448D02*
X43968D01*
X38768D02*
X40268D01*
X37753Y14325D02*
Y22125D01*
X10853Y14325D02*
X37753D01*
X10853D02*
Y22125D01*
X37753D01*
X48794Y31008D02*
Y35008D01*
X33594D02*
X48794D01*
X33594Y31008D02*
Y35008D01*
Y31008D02*
X48794D01*
X42094Y31508D02*
Y34508D01*
X40594Y31508D02*
X42094Y33008D01*
X40594Y31508D02*
Y34508D01*
X42094Y33008D01*
X38394D02*
X40594D01*
X42094D02*
X43594D01*
X48768Y26741D02*
Y30741D01*
X33568D02*
X48768D01*
X33568Y26741D02*
Y30741D01*
Y26741D02*
X48768D01*
X42068Y27241D02*
Y30241D01*
X40568Y27241D02*
X42068Y28741D01*
X40568Y27241D02*
Y30241D01*
X42068Y28741D01*
X38368D02*
X40568D01*
X42068D02*
X43568D01*
X33594Y35275D02*
Y39275D01*
Y35275D02*
X48794D01*
Y39275D01*
X33594D02*
X48794D01*
X40294Y35775D02*
Y38775D01*
Y37275D02*
X41794Y38775D01*
Y35775D02*
Y38775D01*
X40294Y37275D02*
X41794Y35775D01*
Y37275D02*
X43994D01*
X38794D02*
X40294D01*
X37627Y39624D02*
Y47424D01*
X10727Y39624D02*
X37627D01*
X10727D02*
Y47424D01*
X37627D01*
X1783Y16321D02*
X2799D01*
X3306Y15813D01*
X2799Y15305D01*
X1783D01*
X2545D01*
Y16321D01*
X3053Y13782D02*
X3306Y14036D01*
Y14544D01*
X3053Y14797D01*
X2037D01*
X1783Y14544D01*
Y14036D01*
X2037Y13782D01*
X1529Y13274D02*
Y12258D01*
X3306Y11750D02*
Y11243D01*
Y11497D01*
X1783D01*
Y11750D01*
Y11243D01*
Y10481D02*
X3306D01*
X1783Y9465D01*
X3306D01*
X1058Y52446D02*
X2074D01*
X2581Y51938D01*
X2074Y51430D01*
X1058D01*
X1820D01*
Y52446D01*
X2328Y49907D02*
X2581Y50161D01*
Y50669D01*
X2328Y50922D01*
X1312D01*
X1058Y50669D01*
Y50161D01*
X1312Y49907D01*
X804Y49399D02*
Y48383D01*
X2581Y47875D02*
Y47368D01*
Y47622D01*
X1058D01*
Y47875D01*
Y47368D01*
Y46606D02*
X2581D01*
X1058Y45590D01*
X2581D01*
X109304Y8860D02*
Y8194D01*
X109637Y7861D01*
X109970Y8194D01*
Y8860D01*
X110304Y7694D02*
X110970D01*
X111303Y7861D02*
Y8860D01*
X111970Y7861D01*
Y8860D01*
X112303D02*
X112636D01*
X112470D01*
Y7861D01*
X112303D01*
X112636D01*
X113136Y7694D02*
X113803D01*
X114802Y8694D02*
X114636Y8860D01*
X114302D01*
X114136Y8694D01*
Y8527D01*
X114302Y8360D01*
X114636D01*
X114802Y8194D01*
Y8027D01*
X114636Y7861D01*
X114302D01*
X114136Y8027D01*
X115802Y8860D02*
X115135D01*
Y7861D01*
X115802D01*
X115135Y8360D02*
X115469D01*
X116135Y8860D02*
X116802D01*
X116468D01*
Y7861D01*
X123504Y8945D02*
X123837D01*
X123671D01*
Y7946D01*
X123504D01*
X123837D01*
X124337Y7779D02*
X125004D01*
X126003Y8779D02*
X125837Y8945D01*
X125503D01*
X125337Y8779D01*
Y8612D01*
X125503Y8445D01*
X125837D01*
X126003Y8279D01*
Y8112D01*
X125837Y7946D01*
X125503D01*
X125337Y8112D01*
X127003Y8945D02*
X126336D01*
Y7946D01*
X127003D01*
X126336Y8445D02*
X126670D01*
X127336Y8945D02*
X128003D01*
X127669D01*
Y7946D01*
X138179Y8995D02*
Y8329D01*
X138512Y7996D01*
X138845Y8329D01*
Y8995D01*
X139179Y7829D02*
X139845D01*
X140845Y8829D02*
X140678Y8995D01*
X140345D01*
X140178Y8829D01*
Y8662D01*
X140345Y8495D01*
X140678D01*
X140845Y8329D01*
Y8162D01*
X140678Y7996D01*
X140345D01*
X140178Y8162D01*
X141844Y8995D02*
X141178D01*
Y7996D01*
X141844D01*
X141178Y8495D02*
X141511D01*
X142178Y8995D02*
X142844D01*
X142511D01*
Y7996D01*
X149429Y10379D02*
X148430D01*
Y10879D01*
X148596Y11045D01*
X148930D01*
X149096Y10879D01*
Y10379D01*
X148430Y11379D02*
X149429D01*
X149096Y11712D01*
X149429Y12045D01*
X148430D01*
X149429Y12378D02*
X148430D01*
X148763Y12712D01*
X148430Y13045D01*
X149429D01*
X149596Y13378D02*
Y14044D01*
X148430Y14378D02*
X149096D01*
X149429Y14711D01*
X149096Y15044D01*
X148430D01*
X149596Y15377D02*
Y16044D01*
X148596Y17044D02*
X148430Y16877D01*
Y16544D01*
X148596Y16377D01*
X149263D01*
X149429Y16544D01*
Y16877D01*
X149263Y17044D01*
X148930D01*
Y16710D01*
X149596Y17377D02*
Y18043D01*
X148430Y18376D02*
Y18710D01*
Y18543D01*
X149429D01*
Y18376D01*
Y18710D01*
X148521Y35604D02*
X149188D01*
X149521Y35937D01*
X149188Y36270D01*
X148521D01*
X148688Y37270D02*
X148521Y37104D01*
Y36770D01*
X148688Y36604D01*
X149354D01*
X149521Y36770D01*
Y37104D01*
X149354Y37270D01*
X148688Y38270D02*
X148521Y38103D01*
Y37770D01*
X148688Y37603D01*
X149354D01*
X149521Y37770D01*
Y38103D01*
X149354Y38270D01*
X148688Y40269D02*
X148521Y40103D01*
Y39769D01*
X148688Y39603D01*
X149354D01*
X149521Y39769D01*
Y40103D01*
X149354Y40269D01*
X149021D01*
Y39936D01*
X149521Y40602D02*
X148521D01*
X149521Y41269D01*
X148521D01*
Y41602D02*
X149521D01*
Y42102D01*
X149354Y42269D01*
X148688D01*
X148521Y42102D01*
Y41602D01*
X148546Y23304D02*
X149213D01*
X149546Y23637D01*
X149213Y23970D01*
X148546D01*
X148713Y24970D02*
X148546Y24804D01*
Y24470D01*
X148713Y24304D01*
X149379D01*
X149546Y24470D01*
Y24804D01*
X149379Y24970D01*
X148713Y25970D02*
X148546Y25803D01*
Y25470D01*
X148713Y25303D01*
X149379D01*
X149546Y25470D01*
Y25803D01*
X149379Y25970D01*
X148713Y27969D02*
X148546Y27803D01*
Y27469D01*
X148713Y27303D01*
X149379D01*
X149546Y27469D01*
Y27803D01*
X149379Y27969D01*
X149046D01*
Y27636D01*
X149546Y28302D02*
X148546D01*
X149546Y28969D01*
X148546D01*
Y29302D02*
X149546D01*
Y29802D01*
X149379Y29969D01*
X148713D01*
X148546Y29802D01*
Y29302D01*
X36948Y1375D02*
Y842D01*
X37215Y575D01*
X37482Y842D01*
Y1375D01*
X37748D02*
Y575D01*
X38148D01*
X38281Y708D01*
Y1242D01*
X38148Y1375D01*
X37748D01*
X38548Y575D02*
X38814D01*
X38681D01*
Y1375D01*
X38548Y1242D01*
X39214D02*
X39348Y1375D01*
X39614D01*
X39747Y1242D01*
Y1108D01*
X39614Y975D01*
X39747Y842D01*
Y708D01*
X39614Y575D01*
X39348D01*
X39214Y708D01*
Y842D01*
X39348Y975D01*
X39214Y1108D01*
Y1242D01*
X39348Y975D02*
X39614D01*
X116259Y10300D02*
X116792D01*
X116525D01*
Y9500D01*
X117059D02*
Y10300D01*
X117458D01*
X117592Y10167D01*
Y9900D01*
X117458Y9767D01*
X117059D01*
X118391Y9500D02*
X117858D01*
X118391Y10033D01*
Y10167D01*
X118258Y10300D01*
X117992D01*
X117858Y10167D01*
X119191Y10300D02*
X118658D01*
Y9900D01*
X118925Y10033D01*
X119058D01*
X119191Y9900D01*
Y9633D01*
X119058Y9500D01*
X118791D01*
X118658Y9633D01*
X119920Y15086D02*
X120454D01*
X120187D01*
Y14286D01*
X120720D02*
Y15086D01*
X121120D01*
X121253Y14953D01*
Y14686D01*
X121120Y14553D01*
X120720D01*
X122053Y14286D02*
X121520D01*
X122053Y14819D01*
Y14953D01*
X121920Y15086D01*
X121653D01*
X121520Y14953D01*
X122720Y14286D02*
Y15086D01*
X122320Y14686D01*
X122853D01*
X134663Y15497D02*
X135196D01*
X134930D01*
Y14697D01*
X135463D02*
Y15497D01*
X135863D01*
X135996Y15363D01*
Y15097D01*
X135863Y14964D01*
X135463D01*
X136796Y14697D02*
X136263D01*
X136796Y15230D01*
Y15363D01*
X136663Y15497D01*
X136396D01*
X136263Y15363D01*
X137062D02*
X137196Y15497D01*
X137462D01*
X137596Y15363D01*
Y15230D01*
X137462Y15097D01*
X137329D01*
X137462D01*
X137596Y14964D01*
Y14830D01*
X137462Y14697D01*
X137196D01*
X137062Y14830D01*
X112895Y53571D02*
X113429D01*
X113162D01*
Y52772D01*
X113695D02*
Y53571D01*
X114095D01*
X114228Y53438D01*
Y53171D01*
X114095Y53038D01*
X113695D01*
X115028Y52772D02*
X114495D01*
X115028Y53305D01*
Y53438D01*
X114895Y53571D01*
X114628D01*
X114495Y53438D01*
X115828Y52772D02*
X115295D01*
X115828Y53305D01*
Y53438D01*
X115694Y53571D01*
X115428D01*
X115295Y53438D01*
X119960Y24275D02*
X120494D01*
X120227D01*
Y23475D01*
X120760D02*
Y24275D01*
X121160D01*
X121293Y24142D01*
Y23875D01*
X121160Y23742D01*
X120760D01*
X122093Y23475D02*
X121560D01*
X122093Y24008D01*
Y24142D01*
X121960Y24275D01*
X121693D01*
X121560Y24142D01*
X122360Y23475D02*
X122626D01*
X122493D01*
Y24275D01*
X122360Y24142D01*
X116324Y51565D02*
X116858D01*
X116591D01*
Y50765D01*
X117124D02*
Y51565D01*
X117524D01*
X117657Y51431D01*
Y51165D01*
X117524Y51032D01*
X117124D01*
X118457Y50765D02*
X117924D01*
X118457Y51298D01*
Y51431D01*
X118324Y51565D01*
X118057D01*
X117924Y51431D01*
X118724D02*
X118857Y51565D01*
X119123D01*
X119257Y51431D01*
Y50898D01*
X119123Y50765D01*
X118857D01*
X118724Y50898D01*
Y51431D01*
X145425Y48975D02*
X145959D01*
X145692D01*
Y48175D01*
X146225D02*
Y48975D01*
X146625D01*
X146758Y48842D01*
Y48575D01*
X146625Y48442D01*
X146225D01*
X147025Y48175D02*
X147292D01*
X147158D01*
Y48975D01*
X147025Y48842D01*
X147691Y48308D02*
X147825Y48175D01*
X148091D01*
X148225Y48308D01*
Y48842D01*
X148091Y48975D01*
X147825D01*
X147691Y48842D01*
Y48708D01*
X147825Y48575D01*
X148225D01*
X119980Y9821D02*
X120514D01*
X120247D01*
Y9021D01*
X120780D02*
Y9821D01*
X121180D01*
X121313Y9687D01*
Y9421D01*
X121180Y9288D01*
X120780D01*
X121580Y9021D02*
X121847D01*
X121713D01*
Y9821D01*
X121580Y9687D01*
X122246D02*
X122380Y9821D01*
X122646D01*
X122780Y9687D01*
Y9554D01*
X122646Y9421D01*
X122780Y9288D01*
Y9154D01*
X122646Y9021D01*
X122380D01*
X122246Y9154D01*
Y9288D01*
X122380Y9421D01*
X122246Y9554D01*
Y9687D01*
X122380Y9421D02*
X122646D01*
X124726Y6350D02*
Y7150D01*
X125126D01*
X125259Y7017D01*
Y6750D01*
X125126Y6617D01*
X124726D01*
X124993D02*
X125259Y6350D01*
X125526Y7017D02*
X125659Y7150D01*
X125926D01*
X126059Y7017D01*
Y6883D01*
X125926Y6750D01*
X125793D01*
X125926D01*
X126059Y6617D01*
Y6483D01*
X125926Y6350D01*
X125659D01*
X125526Y6483D01*
X126326Y7017D02*
X126459Y7150D01*
X126726D01*
X126859Y7017D01*
Y6483D01*
X126726Y6350D01*
X126459D01*
X126326Y6483D01*
Y7017D01*
X138359Y6350D02*
Y7150D01*
X138759D01*
X138892Y7017D01*
Y6750D01*
X138759Y6617D01*
X138359D01*
X138625D02*
X138892Y6350D01*
X139692D02*
X139158D01*
X139692Y6883D01*
Y7017D01*
X139558Y7150D01*
X139292D01*
X139158Y7017D01*
X139958Y6483D02*
X140091Y6350D01*
X140358D01*
X140491Y6483D01*
Y7017D01*
X140358Y7150D01*
X140091D01*
X139958Y7017D01*
Y6883D01*
X140091Y6750D01*
X140491D01*
X140217Y16450D02*
Y17250D01*
X140617D01*
X140750Y17117D01*
Y16850D01*
X140617Y16717D01*
X140217D01*
X141017Y16450D02*
X141283D01*
X141150D01*
Y17250D01*
X141017Y17117D01*
X54267Y59050D02*
Y58517D01*
X54534Y58250D01*
X54800Y58517D01*
Y59050D01*
X55067D02*
X55600D01*
X55333D01*
Y58250D01*
X55866D02*
X56133D01*
X56000D01*
Y59050D01*
X55866Y58917D01*
X11383Y13617D02*
X11250Y13750D01*
X10984D01*
X10850Y13617D01*
Y13083D01*
X10984Y12950D01*
X11250D01*
X11383Y13083D01*
X11650Y12950D02*
X11917D01*
X11783D01*
Y13750D01*
X11650Y13617D01*
X12716Y12950D02*
Y13750D01*
X12317Y13350D01*
X12850D01*
X93542Y10518D02*
X93408Y10652D01*
X93142D01*
X93009Y10518D01*
Y9985D01*
X93142Y9852D01*
X93408D01*
X93542Y9985D01*
X93808D02*
X93942Y9852D01*
X94208D01*
X94341Y9985D01*
Y10518D01*
X94208Y10652D01*
X93942D01*
X93808Y10518D01*
Y10385D01*
X93942Y10252D01*
X94341D01*
X22448Y12894D02*
X22315Y13027D01*
X22048D01*
X21915Y12894D01*
Y12361D01*
X22048Y12227D01*
X22315D01*
X22448Y12361D01*
X22715Y12227D02*
X22981D01*
X22848D01*
Y13027D01*
X22715Y12894D01*
X23381D02*
X23514Y13027D01*
X23781D01*
X23914Y12894D01*
Y12761D01*
X23781Y12627D01*
X23648D01*
X23781D01*
X23914Y12494D01*
Y12361D01*
X23781Y12227D01*
X23514D01*
X23381Y12361D01*
X41293Y47387D02*
Y48187D01*
X41693D01*
X41826Y48053D01*
Y47787D01*
X41693Y47653D01*
X41293D01*
X41559D02*
X41826Y47387D01*
X42093Y48187D02*
X42626D01*
X42359D01*
Y47387D01*
X42892D02*
X43159D01*
X43026D01*
Y48187D01*
X42892Y48053D01*
X122831Y58703D02*
X122698Y58836D01*
X122431D01*
X122298Y58703D01*
Y58170D01*
X122431Y58037D01*
X122698D01*
X122831Y58170D01*
X123098Y58037D02*
X123364D01*
X123231D01*
Y58836D01*
X123098Y58703D01*
X123764Y58836D02*
X124297D01*
Y58703D01*
X123764Y58170D01*
Y58037D01*
X81717Y46660D02*
X82250D01*
X81983D01*
Y45861D01*
X82517D02*
X82783D01*
X82650D01*
Y46660D01*
X82517Y46527D01*
X52977Y32967D02*
X52844Y33100D01*
X52577D01*
X52444Y32967D01*
Y32433D01*
X52577Y32300D01*
X52844D01*
X52977Y32433D01*
X53244Y32300D02*
X53510D01*
X53377D01*
Y33100D01*
X53244Y32967D01*
X54443Y33100D02*
X54177Y32967D01*
X53910Y32700D01*
Y32433D01*
X54044Y32300D01*
X54310D01*
X54443Y32433D01*
Y32567D01*
X54310Y32700D01*
X53910D01*
X137554Y23004D02*
X137288D01*
X137421D01*
Y22338D01*
X137288Y22205D01*
X137154D01*
X137021Y22338D01*
X138221Y22205D02*
Y23004D01*
X137821Y22605D01*
X138354D01*
X8692Y16650D02*
X8425D01*
X8558D01*
Y15983D01*
X8425Y15850D01*
X8292D01*
X8159Y15983D01*
X8958Y16517D02*
X9092Y16650D01*
X9358D01*
X9491Y16517D01*
Y16383D01*
X9358Y16250D01*
X9225D01*
X9358D01*
X9491Y16117D01*
Y15983D01*
X9358Y15850D01*
X9092D01*
X8958Y15983D01*
X55559Y39050D02*
Y38517D01*
X55825Y38250D01*
X56092Y38517D01*
Y39050D01*
X56358D02*
Y38250D01*
X56758D01*
X56892Y38383D01*
Y38917D01*
X56758Y39050D01*
X56358D01*
X57558Y38250D02*
Y39050D01*
X57158Y38650D01*
X57691D01*
X48159Y11375D02*
Y10842D01*
X48425Y10575D01*
X48692Y10842D01*
Y11375D01*
X48958D02*
Y10575D01*
X49358D01*
X49492Y10708D01*
Y11242D01*
X49358Y11375D01*
X48958D01*
X50291Y10575D02*
X49758D01*
X50291Y11108D01*
Y11242D01*
X50158Y11375D01*
X49891D01*
X49758Y11242D01*
X55625Y45925D02*
Y46725D01*
X56025D01*
X56158Y46592D01*
Y46325D01*
X56025Y46192D01*
X55625D01*
X55892D02*
X56158Y45925D01*
X56425D02*
X56692D01*
X56558D01*
Y46725D01*
X56425Y46592D01*
X57491Y45925D02*
Y46725D01*
X57092Y46325D01*
X57625D01*
X107150Y7650D02*
X107683D01*
X107950Y7917D01*
X107683Y8184D01*
X107150D01*
Y8450D02*
X107950D01*
Y8850D01*
X107817Y8983D01*
X107283D01*
X107150Y8850D01*
Y8450D01*
X107950Y9250D02*
Y9517D01*
Y9383D01*
X107150D01*
X107283Y9250D01*
X107950Y10316D02*
X107150D01*
X107550Y9916D01*
Y10450D01*
X135650Y23650D02*
X136183D01*
X136450Y23917D01*
X136183Y24184D01*
X135650D01*
Y24450D02*
X136450D01*
Y24850D01*
X136317Y24983D01*
X135783D01*
X135650Y24850D01*
Y24450D01*
X136450Y25250D02*
Y25517D01*
Y25383D01*
X135650D01*
X135783Y25250D01*
Y25916D02*
X135650Y26050D01*
Y26316D01*
X135783Y26450D01*
X136317D01*
X136450Y26316D01*
Y26050D01*
X136317Y25916D01*
X135783D01*
X112540Y58911D02*
Y58112D01*
X113073D01*
X113873D02*
X113339D01*
X113873Y58645D01*
Y58778D01*
X113739Y58911D01*
X113473D01*
X113339Y58778D01*
X122913Y21405D02*
Y20605D01*
X123446D01*
X123712D02*
X123979D01*
X123846D01*
Y21405D01*
X123712Y21272D01*
X122523Y44999D02*
X122390Y45132D01*
X122123D01*
X121990Y44999D01*
Y44466D01*
X122123Y44333D01*
X122390D01*
X122523Y44466D01*
X122790Y44333D02*
X123056D01*
X122923D01*
Y45132D01*
X122790Y44999D01*
X123456Y44333D02*
X123723D01*
X123590D01*
Y45132D01*
X123456Y44999D01*
X50129Y34075D02*
X49596D01*
X49329Y33808D01*
X49596Y33541D01*
X50129D01*
Y33275D02*
X49329D01*
Y32875D01*
X49462Y32742D01*
X49995D01*
X50129Y32875D01*
Y33275D01*
X49995Y32475D02*
X50129Y32342D01*
Y32075D01*
X49995Y31942D01*
X49862D01*
X49729Y32075D01*
X49596Y31942D01*
X49462D01*
X49329Y32075D01*
Y32342D01*
X49462Y32475D01*
X49596D01*
X49729Y32342D01*
X49862Y32475D01*
X49995D01*
X49729Y32342D02*
Y32075D01*
X50179Y29706D02*
X49646D01*
X49380Y29439D01*
X49646Y29173D01*
X50179D01*
Y28906D02*
X49380D01*
Y28506D01*
X49513Y28373D01*
X50046D01*
X50179Y28506D01*
Y28906D01*
Y28106D02*
Y27573D01*
X50046D01*
X49513Y28106D01*
X49380D01*
X50179Y38342D02*
X49646D01*
X49380Y38075D01*
X49646Y37809D01*
X50179D01*
Y37542D02*
X49380D01*
Y37142D01*
X49513Y37009D01*
X50046D01*
X50179Y37142D01*
Y37542D01*
Y36209D02*
X50046Y36476D01*
X49780Y36742D01*
X49513D01*
X49380Y36609D01*
Y36342D01*
X49513Y36209D01*
X49646D01*
X49780Y36342D01*
Y36742D01*
X50129Y25515D02*
X49596D01*
X49329Y25248D01*
X49596Y24982D01*
X50129D01*
Y24715D02*
X49329D01*
Y24315D01*
X49462Y24182D01*
X49995D01*
X50129Y24315D01*
Y24715D01*
Y23382D02*
Y23915D01*
X49729D01*
X49862Y23649D01*
Y23515D01*
X49729Y23382D01*
X49462D01*
X49329Y23515D01*
Y23782D01*
X49462Y23915D01*
X109113Y3292D02*
Y3825D01*
Y3558D01*
X109912D01*
Y4092D02*
X109113D01*
Y4492D01*
X109246Y4625D01*
X109512D01*
X109646Y4492D01*
Y4092D01*
X109912Y4891D02*
Y5158D01*
Y5025D01*
X109113D01*
X109246Y4891D01*
X109113Y5558D02*
Y6091D01*
X109246D01*
X109779Y5558D01*
X109912D01*
X136050Y57375D02*
X136584D01*
X136317D01*
Y56575D01*
X136850D02*
Y57375D01*
X137250D01*
X137383Y57242D01*
Y56975D01*
X137250Y56842D01*
X136850D01*
X137650Y56575D02*
X137917D01*
X137783D01*
Y57375D01*
X137650Y57242D01*
X138850Y57375D02*
X138583Y57242D01*
X138316Y56975D01*
Y56708D01*
X138450Y56575D01*
X138716D01*
X138850Y56708D01*
Y56842D01*
X138716Y56975D01*
X138316D01*
X122725Y15875D02*
X123259D01*
X122992D01*
Y15075D01*
X123525D02*
Y15875D01*
X123925D01*
X124058Y15742D01*
Y15475D01*
X123925Y15342D01*
X123525D01*
X124325Y15075D02*
X124592D01*
X124458D01*
Y15875D01*
X124325Y15742D01*
X125525Y15875D02*
X124991D01*
Y15475D01*
X125258Y15608D01*
X125391D01*
X125525Y15475D01*
Y15208D01*
X125391Y15075D01*
X125125D01*
X124991Y15208D01*
X134925Y9850D02*
X135459D01*
X135192D01*
Y9050D01*
X135725D02*
Y9850D01*
X136125D01*
X136258Y9717D01*
Y9450D01*
X136125Y9317D01*
X135725D01*
X136525Y9050D02*
X136792D01*
X136658D01*
Y9850D01*
X136525Y9717D01*
X137591Y9050D02*
Y9850D01*
X137191Y9450D01*
X137725D01*
X129775Y9775D02*
X130309D01*
X130042D01*
Y8975D01*
X130575D02*
Y9775D01*
X130975D01*
X131108Y9642D01*
Y9375D01*
X130975Y9242D01*
X130575D01*
X131375Y8975D02*
X131642D01*
X131508D01*
Y9775D01*
X131375Y9642D01*
X132041D02*
X132175Y9775D01*
X132441D01*
X132575Y9642D01*
Y9508D01*
X132441Y9375D01*
X132308D01*
X132441D01*
X132575Y9242D01*
Y9108D01*
X132441Y8975D01*
X132175D01*
X132041Y9108D01*
X129775Y13675D02*
X130309D01*
X130042D01*
Y12875D01*
X130575D02*
Y13675D01*
X130975D01*
X131108Y13542D01*
Y13275D01*
X130975Y13142D01*
X130575D01*
X131375Y12875D02*
X131642D01*
X131508D01*
Y13675D01*
X131375Y13542D01*
X132575Y12875D02*
X132041D01*
X132575Y13408D01*
Y13542D01*
X132441Y13675D01*
X132175D01*
X132041Y13542D01*
X41184Y52325D02*
X41717D01*
X41450D01*
Y51525D01*
X41983D02*
Y52325D01*
X42383D01*
X42517Y52192D01*
Y51925D01*
X42383Y51792D01*
X41983D01*
X42783Y51525D02*
X43050D01*
X42917D01*
Y52325D01*
X42783Y52192D01*
X43450Y51525D02*
X43716D01*
X43583D01*
Y52325D01*
X43450Y52192D01*
X82898Y58931D02*
X83431D01*
X83165D01*
Y58131D01*
X83698D02*
Y58931D01*
X84098D01*
X84231Y58797D01*
Y58531D01*
X84098Y58398D01*
X83698D01*
X84497Y58131D02*
X84764D01*
X84631D01*
Y58931D01*
X84497Y58797D01*
X85164D02*
X85297Y58931D01*
X85564D01*
X85697Y58797D01*
Y58264D01*
X85564Y58131D01*
X85297D01*
X85164Y58264D01*
Y58797D01*
X87659Y56461D02*
X88192D01*
X87925D01*
Y55661D01*
X88458D02*
Y56461D01*
X88858D01*
X88992Y56327D01*
Y56061D01*
X88858Y55927D01*
X88458D01*
X89258Y55794D02*
X89391Y55661D01*
X89658D01*
X89791Y55794D01*
Y56327D01*
X89658Y56461D01*
X89391D01*
X89258Y56327D01*
Y56194D01*
X89391Y56061D01*
X89791D01*
X76878Y41456D02*
X77411D01*
X77145D01*
Y40656D01*
X77678D02*
Y41456D01*
X78078D01*
X78211Y41322D01*
Y41056D01*
X78078Y40922D01*
X77678D01*
X78478Y41322D02*
X78611Y41456D01*
X78878D01*
X79011Y41322D01*
Y41189D01*
X78878Y41056D01*
X79011Y40922D01*
Y40789D01*
X78878Y40656D01*
X78611D01*
X78478Y40789D01*
Y40922D01*
X78611Y41056D01*
X78478Y41189D01*
Y41322D01*
X78611Y41056D02*
X78878D01*
X88359Y10290D02*
X88892D01*
X88626D01*
Y9490D01*
X89159D02*
Y10290D01*
X89559D01*
X89692Y10156D01*
Y9890D01*
X89559Y9757D01*
X89159D01*
X89958Y10290D02*
X90492D01*
Y10156D01*
X89958Y9623D01*
Y9490D01*
X36009Y11252D02*
X36542D01*
X36275D01*
Y10452D01*
X36808D02*
Y11252D01*
X37208D01*
X37342Y11119D01*
Y10852D01*
X37208Y10719D01*
X36808D01*
X38141Y11252D02*
X37875Y11119D01*
X37608Y10852D01*
Y10586D01*
X37741Y10452D01*
X38008D01*
X38141Y10586D01*
Y10719D01*
X38008Y10852D01*
X37608D01*
X79409Y2919D02*
X79942D01*
X79675D01*
Y2119D01*
X80208D02*
Y2919D01*
X80608D01*
X80742Y2785D01*
Y2519D01*
X80608Y2386D01*
X80208D01*
X81541Y2919D02*
X81008D01*
Y2519D01*
X81275Y2652D01*
X81408D01*
X81541Y2519D01*
Y2252D01*
X81408Y2119D01*
X81141D01*
X81008Y2252D01*
X51334Y8700D02*
X51867D01*
X51600D01*
Y7900D01*
X52133D02*
Y8700D01*
X52533D01*
X52667Y8567D01*
Y8300D01*
X52533Y8167D01*
X52133D01*
X53333Y7900D02*
Y8700D01*
X52933Y8300D01*
X53466D01*
X51409Y4325D02*
X51942D01*
X51675D01*
Y3525D01*
X52208D02*
Y4325D01*
X52608D01*
X52742Y4192D01*
Y3925D01*
X52608Y3792D01*
X52208D01*
X53008Y4192D02*
X53141Y4325D01*
X53408D01*
X53541Y4192D01*
Y4058D01*
X53408Y3925D01*
X53275D01*
X53408D01*
X53541Y3792D01*
Y3658D01*
X53408Y3525D01*
X53141D01*
X53008Y3658D01*
X63309Y1850D02*
X63842D01*
X63575D01*
Y1050D01*
X64108D02*
Y1850D01*
X64508D01*
X64642Y1717D01*
Y1450D01*
X64508Y1317D01*
X64108D01*
X65441Y1050D02*
X64908D01*
X65441Y1583D01*
Y1717D01*
X65308Y1850D01*
X65041D01*
X64908Y1717D01*
X82111Y10290D02*
X82644D01*
X82377D01*
Y9490D01*
X82910D02*
Y10290D01*
X83310D01*
X83443Y10156D01*
Y9890D01*
X83310Y9757D01*
X82910D01*
X83710Y9490D02*
X83977D01*
X83843D01*
Y10290D01*
X83710Y10156D01*
X111209Y6175D02*
Y6975D01*
X111609D01*
X111742Y6842D01*
Y6575D01*
X111609Y6442D01*
X111209D01*
X111475D02*
X111742Y6175D01*
X112542D02*
X112008D01*
X112542Y6708D01*
Y6842D01*
X112408Y6975D01*
X112142D01*
X112008Y6842D01*
X112808D02*
X112941Y6975D01*
X113208D01*
X113341Y6842D01*
Y6308D01*
X113208Y6175D01*
X112941D01*
X112808Y6308D01*
Y6842D01*
X137542Y34649D02*
X137275D01*
X137408D01*
Y33983D01*
X137275Y33849D01*
X137142D01*
X137009Y33983D01*
X138341Y33849D02*
X137808D01*
X138341Y34383D01*
Y34516D01*
X138208Y34649D01*
X137942D01*
X137808Y34516D01*
X8825Y45350D02*
X8558D01*
X8692D01*
Y44683D01*
X8558Y44550D01*
X8425D01*
X8292Y44683D01*
X9092Y44550D02*
X9358D01*
X9225D01*
Y45350D01*
X9092Y45217D01*
X9475Y31249D02*
X8942D01*
Y30849D01*
X9208D01*
X8942D01*
Y30449D01*
X9742D02*
X10008D01*
X9875D01*
Y31249D01*
X9742Y31116D01*
X92038Y2000D02*
Y1200D01*
X92438D01*
X92571Y1333D01*
Y1867D01*
X92438Y2000D01*
X92038D01*
X92838Y1200D02*
Y1733D01*
X93104Y2000D01*
X93371Y1733D01*
Y1200D01*
Y1600D01*
X92838D01*
X93638Y1200D02*
X93904D01*
X93771D01*
Y2000D01*
X93638Y1867D01*
X131490Y18150D02*
Y17350D01*
X131890D01*
X132023Y17483D01*
Y18017D01*
X131890Y18150D01*
X131490D01*
X132823Y17350D02*
X132290D01*
X132823Y17883D01*
Y18017D01*
X132690Y18150D01*
X132423D01*
X132290Y18017D01*
X131459Y20225D02*
Y19425D01*
X131858D01*
X131992Y19558D01*
Y20092D01*
X131858Y20225D01*
X131459D01*
X132258Y19425D02*
X132525D01*
X132392D01*
Y20225D01*
X132258Y20092D01*
X45308Y52542D02*
X45175Y52675D01*
X44909D01*
X44775Y52542D01*
Y52008D01*
X44909Y51875D01*
X45175D01*
X45308Y52008D01*
X45575Y51875D02*
X45842D01*
X45708D01*
Y52675D01*
X45575Y52542D01*
X46775Y52675D02*
X46242D01*
Y52275D01*
X46508Y52408D01*
X46641D01*
X46775Y52275D01*
Y52008D01*
X46641Y51875D01*
X46375D01*
X46242Y52008D01*
X38842Y21467D02*
X38708Y21600D01*
X38442D01*
X38309Y21467D01*
Y20933D01*
X38442Y20800D01*
X38708D01*
X38842Y20933D01*
X39508Y20800D02*
Y21600D01*
X39108Y21200D01*
X39641D01*
X38725Y47167D02*
X38592Y47300D01*
X38325D01*
X38192Y47167D01*
Y46633D01*
X38325Y46500D01*
X38592D01*
X38725Y46633D01*
X38992Y46500D02*
X39258D01*
X39125D01*
Y47300D01*
X38992Y47167D01*
D91*
X135375Y52950D02*
G03*
X135375Y52950I-6500J0D01*
G01*
X135280Y39373D02*
G03*
X135280Y39373I-6500J0D01*
G01*
X35840Y7352D02*
G03*
X35840Y7352I-6500J0D01*
G01*
X80725Y21150D02*
G03*
X80725Y21150I-15000J0D01*
G01*
D92*
X147200Y55000D02*
G03*
X147200Y55000I-2200J0D01*
G01*
Y5000D02*
G03*
X147200Y5000I-2200J0D01*
G01*
X7200D02*
G03*
X7200Y5000I-2200J0D01*
G01*
Y55000D02*
G03*
X7200Y55000I-2200J0D01*
G01*
D93*
X126375Y54325D02*
Y54825D01*
X126125Y54575D02*
X126625D01*
X126030Y40998D02*
X126530D01*
X126280Y40748D02*
Y41248D01*
X27465Y4852D02*
X27965D01*
X27715Y4602D02*
Y5102D01*
X67350Y23400D02*
Y23900D01*
X67100Y23650D02*
X67600D01*
D94*
X57044Y48143D02*
X77364D01*
X57044Y59065D02*
X77364D01*
X57044Y48143D02*
Y59065D01*
X77364Y48143D02*
Y59065D01*
D95*
X83749Y11532D02*
X118801D01*
X83749Y46838D02*
X118801D01*
X83749Y11532D02*
Y46838D01*
X118801Y11532D02*
Y46838D01*
%TF.MD5,818251a9fcb28ea538b5f2b311380e01*%
M02*
