%TF.GenerationSoftware,Altium Limited,Altium Designer,21.6.4 (81)*%
G04 Layer_Color=0*
%FSLAX43Y43*%
%MOMM*%
%TF.SameCoordinates,B74C4539-8C7F-4592-B280-35368C4CFDA8*%
%TF.FilePolarity,Positive*%
%TF.FileFunction,Other,Top_Designator*%
%TF.Part,Single*%
G01*
G75*
%TA.AperFunction,NonConductor*%
%ADD103C,0.150*%
D103*
X126959Y27775D02*
Y26275D01*
X127958D01*
X128458D02*
X128958D01*
X128708D01*
Y27775D01*
X128458Y27525D01*
X106375Y52775D02*
X107875D01*
Y53775D01*
Y55275D02*
Y54275D01*
X106875Y55275D01*
X106625D01*
X106375Y55025D01*
Y54525D01*
X106625Y54275D01*
X6377Y23275D02*
Y23775D01*
Y23525D01*
X5127D01*
X4878Y23775D01*
Y24024D01*
X5127Y24274D01*
X6127Y22775D02*
X6377Y22525D01*
Y22025D01*
X6127Y21775D01*
X5877D01*
X5627Y22025D01*
Y22275D01*
Y22025D01*
X5377Y21775D01*
X5127D01*
X4878Y22025D01*
Y22525D01*
X5127Y22775D01*
X142887Y38325D02*
Y37825D01*
Y38075D01*
X144136D01*
X144386Y37825D01*
Y37575D01*
X144136Y37325D01*
X144386Y39825D02*
Y38825D01*
X143386Y39825D01*
X143136D01*
X142887Y39575D01*
Y39075D01*
X143136Y38825D01*
X142887Y26650D02*
Y26150D01*
Y26400D01*
X144136D01*
X144386Y26150D01*
Y25901D01*
X144136Y25651D01*
X144386Y27900D02*
X142887D01*
X143636Y27150D01*
Y28150D01*
X6317Y38325D02*
Y38825D01*
Y38575D01*
X5068D01*
X4818Y38825D01*
Y39075D01*
X5068Y39325D01*
X4818Y37825D02*
Y37325D01*
Y37575D01*
X6317D01*
X6067Y37825D01*
%TF.MD5,7db77f61fae324483895fa6b5ee90bbf*%
M02*
