%TF.GenerationSoftware,Altium Limited,Altium Designer,21.6.4 (81)*%
G04 Layer_Color=32896*
%FSLAX43Y43*%
%MOMM*%
%TF.SameCoordinates,B74C4539-8C7F-4592-B280-35368C4CFDA8*%
%TF.FilePolarity,Positive*%
%TF.FileFunction,Other,Bottom_Assembly*%
%TF.Part,Single*%
G01*
G75*
%TA.AperFunction,NonConductor*%
%ADD68C,0.200*%
%ADD93C,0.100*%
%ADD100R,1.050X2.150*%
%ADD101R,3.000X2.250*%
%ADD102R,2.250X3.000*%
G36*
X124818Y8728D02*
X124834Y8727D01*
X124848Y8724D01*
X124862Y8721D01*
X124875Y8718D01*
X124887Y8714D01*
X124898Y8709D01*
X124908Y8705D01*
X124918Y8700D01*
X124925Y8695D01*
X124932Y8692D01*
X124937Y8688D01*
X124942Y8685D01*
X124945Y8682D01*
X124946Y8682D01*
X124947Y8681D01*
X124957Y8671D01*
X124965Y8661D01*
X124973Y8650D01*
X124980Y8639D01*
X124991Y8617D01*
X124998Y8595D01*
X125001Y8584D01*
X125004Y8574D01*
X125006Y8566D01*
X125007Y8559D01*
X125008Y8552D01*
Y8547D01*
X125009Y8545D01*
Y8544D01*
X124929Y8535D01*
X124927Y8557D01*
X124923Y8575D01*
X124918Y8592D01*
X124911Y8605D01*
X124906Y8616D01*
X124900Y8623D01*
X124896Y8628D01*
X124895Y8630D01*
X124881Y8641D01*
X124866Y8649D01*
X124850Y8656D01*
X124836Y8659D01*
X124823Y8662D01*
X124812Y8663D01*
X124809Y8664D01*
X124803D01*
X124784Y8663D01*
X124766Y8659D01*
X124751Y8654D01*
X124738Y8648D01*
X124728Y8642D01*
X124722Y8637D01*
X124717Y8633D01*
X124715Y8632D01*
X124704Y8619D01*
X124696Y8606D01*
X124689Y8593D01*
X124686Y8580D01*
X124683Y8570D01*
X124682Y8560D01*
X124681Y8555D01*
Y8554D01*
Y8553D01*
X124683Y8536D01*
X124687Y8519D01*
X124693Y8503D01*
X124700Y8488D01*
X124707Y8476D01*
X124713Y8466D01*
X124715Y8462D01*
X124717Y8460D01*
X124719Y8459D01*
Y8458D01*
X124726Y8448D01*
X124736Y8437D01*
X124746Y8426D01*
X124757Y8415D01*
X124780Y8393D01*
X124803Y8371D01*
X124815Y8361D01*
X124825Y8351D01*
X124835Y8343D01*
X124844Y8336D01*
X124850Y8330D01*
X124856Y8326D01*
X124859Y8323D01*
X124860Y8322D01*
X124884Y8302D01*
X124905Y8284D01*
X124922Y8267D01*
X124936Y8253D01*
X124948Y8241D01*
X124957Y8233D01*
X124961Y8228D01*
X124963Y8227D01*
Y8226D01*
X124976Y8210D01*
X124986Y8195D01*
X124995Y8180D01*
X125003Y8167D01*
X125008Y8156D01*
X125012Y8148D01*
X125014Y8142D01*
X125015Y8142D01*
Y8141D01*
X125019Y8130D01*
X125020Y8121D01*
X125022Y8112D01*
X125023Y8104D01*
X125024Y8096D01*
Y8091D01*
Y8087D01*
Y8086D01*
X124600D01*
Y8162D01*
X124915D01*
X124904Y8178D01*
X124898Y8184D01*
X124894Y8191D01*
X124889Y8196D01*
X124885Y8200D01*
X124883Y8203D01*
X124882Y8203D01*
X124877Y8208D01*
X124871Y8213D01*
X124859Y8225D01*
X124844Y8239D01*
X124828Y8252D01*
X124813Y8265D01*
X124807Y8270D01*
X124801Y8276D01*
X124797Y8279D01*
X124793Y8282D01*
X124791Y8284D01*
X124790Y8285D01*
X124775Y8298D01*
X124761Y8310D01*
X124748Y8322D01*
X124736Y8332D01*
X124724Y8342D01*
X124715Y8351D01*
X124706Y8360D01*
X124699Y8367D01*
X124691Y8375D01*
X124686Y8380D01*
X124681Y8385D01*
X124676Y8389D01*
X124672Y8395D01*
X124670Y8397D01*
X124657Y8412D01*
X124646Y8426D01*
X124637Y8440D01*
X124629Y8451D01*
X124624Y8461D01*
X124620Y8469D01*
X124618Y8473D01*
X124617Y8475D01*
X124612Y8489D01*
X124608Y8503D01*
X124604Y8516D01*
X124602Y8527D01*
X124602Y8537D01*
X124601Y8545D01*
Y8549D01*
Y8551D01*
X124602Y8565D01*
X124603Y8578D01*
X124605Y8591D01*
X124609Y8602D01*
X124618Y8624D01*
X124627Y8642D01*
X124633Y8650D01*
X124638Y8657D01*
X124642Y8663D01*
X124647Y8668D01*
X124651Y8671D01*
X124652Y8675D01*
X124654Y8676D01*
X124655Y8677D01*
X124665Y8686D01*
X124676Y8694D01*
X124688Y8701D01*
X124700Y8706D01*
X124724Y8716D01*
X124749Y8722D01*
X124759Y8724D01*
X124769Y8726D01*
X124778Y8727D01*
X124786Y8728D01*
X124792Y8729D01*
X124801D01*
X124818Y8728D01*
D02*
G37*
G36*
X125625Y8356D02*
Y8338D01*
X125624Y8320D01*
X125623Y8303D01*
X125621Y8288D01*
X125619Y8274D01*
X125618Y8261D01*
X125615Y8249D01*
X125613Y8238D01*
X125611Y8228D01*
X125608Y8219D01*
X125607Y8212D01*
X125605Y8206D01*
X125603Y8202D01*
X125602Y8198D01*
X125601Y8196D01*
Y8195D01*
X125591Y8175D01*
X125578Y8156D01*
X125565Y8142D01*
X125551Y8129D01*
X125539Y8118D01*
X125529Y8111D01*
X125525Y8109D01*
X125522Y8107D01*
X125521Y8106D01*
X125520D01*
X125496Y8095D01*
X125472Y8088D01*
X125448Y8082D01*
X125424Y8079D01*
X125414Y8078D01*
X125404Y8077D01*
X125395Y8076D01*
X125387D01*
X125381Y8075D01*
X125373D01*
X125339Y8077D01*
X125325Y8079D01*
X125311Y8081D01*
X125297Y8083D01*
X125285Y8086D01*
X125274Y8089D01*
X125264Y8093D01*
X125254Y8096D01*
X125247Y8099D01*
X125239Y8102D01*
X125234Y8105D01*
X125229Y8107D01*
X125227Y8108D01*
X125225Y8110D01*
X125224D01*
X125203Y8124D01*
X125187Y8140D01*
X125174Y8155D01*
X125163Y8169D01*
X125154Y8182D01*
X125149Y8192D01*
X125147Y8196D01*
X125145Y8199D01*
X125144Y8201D01*
Y8202D01*
X125141Y8213D01*
X125137Y8225D01*
X125131Y8250D01*
X125128Y8276D01*
X125125Y8301D01*
X125124Y8312D01*
X125123Y8323D01*
Y8332D01*
X125122Y8340D01*
Y8347D01*
Y8351D01*
Y8355D01*
Y8356D01*
Y8726D01*
X125207D01*
Y8356D01*
Y8335D01*
X125209Y8314D01*
X125211Y8297D01*
X125214Y8280D01*
X125216Y8265D01*
X125220Y8252D01*
X125223Y8240D01*
X125227Y8229D01*
X125230Y8221D01*
X125234Y8213D01*
X125238Y8207D01*
X125240Y8202D01*
X125243Y8198D01*
X125245Y8195D01*
X125246Y8194D01*
X125247Y8193D01*
X125255Y8186D01*
X125264Y8179D01*
X125285Y8169D01*
X125306Y8162D01*
X125328Y8157D01*
X125349Y8154D01*
X125357Y8153D01*
X125365D01*
X125371Y8152D01*
X125380D01*
X125399Y8153D01*
X125417Y8155D01*
X125434Y8158D01*
X125447Y8163D01*
X125458Y8167D01*
X125466Y8169D01*
X125471Y8172D01*
X125472Y8173D01*
X125485Y8181D01*
X125496Y8191D01*
X125506Y8202D01*
X125512Y8211D01*
X125518Y8220D01*
X125522Y8227D01*
X125524Y8231D01*
X125525Y8233D01*
X125528Y8241D01*
X125530Y8250D01*
X125533Y8269D01*
X125536Y8289D01*
X125538Y8310D01*
X125539Y8327D01*
Y8336D01*
X125540Y8342D01*
Y8348D01*
Y8352D01*
Y8355D01*
Y8356D01*
Y8726D01*
X125625D01*
Y8356D01*
D02*
G37*
G36*
X141670Y15874D02*
X141688Y15872D01*
X141705Y15870D01*
X141720Y15867D01*
X141735Y15862D01*
X141749Y15857D01*
X141762Y15853D01*
X141774Y15847D01*
X141784Y15843D01*
X141794Y15838D01*
X141802Y15833D01*
X141809Y15829D01*
X141814Y15825D01*
X141818Y15823D01*
X141820Y15821D01*
X141821Y15820D01*
X141834Y15809D01*
X141845Y15798D01*
X141855Y15785D01*
X141866Y15772D01*
X141882Y15747D01*
X141895Y15721D01*
X141901Y15709D01*
X141905Y15698D01*
X141909Y15687D01*
X141912Y15679D01*
X141915Y15672D01*
X141916Y15666D01*
X141917Y15662D01*
Y15661D01*
X141832Y15640D01*
X141829Y15655D01*
X141824Y15669D01*
X141819Y15682D01*
X141815Y15694D01*
X141809Y15705D01*
X141804Y15714D01*
X141797Y15723D01*
X141792Y15732D01*
X141787Y15739D01*
X141781Y15745D01*
X141777Y15750D01*
X141773Y15755D01*
X141769Y15758D01*
X141767Y15760D01*
X141766Y15761D01*
X141765Y15762D01*
X141756Y15770D01*
X141745Y15775D01*
X141725Y15785D01*
X141706Y15793D01*
X141686Y15797D01*
X141670Y15801D01*
X141663Y15802D01*
X141657D01*
X141651Y15803D01*
X141645D01*
X141623Y15802D01*
X141603Y15798D01*
X141585Y15794D01*
X141568Y15788D01*
X141555Y15783D01*
X141549Y15780D01*
X141545Y15778D01*
X141541Y15776D01*
X141538Y15774D01*
X141536Y15773D01*
X141536D01*
X141518Y15760D01*
X141503Y15747D01*
X141490Y15731D01*
X141480Y15716D01*
X141472Y15703D01*
X141466Y15692D01*
X141464Y15687D01*
X141462Y15685D01*
X141462Y15683D01*
Y15682D01*
X141454Y15658D01*
X141449Y15634D01*
X141444Y15610D01*
X141441Y15587D01*
X141440Y15577D01*
X141439Y15568D01*
Y15560D01*
X141438Y15553D01*
Y15548D01*
Y15543D01*
Y15540D01*
Y15539D01*
X141439Y15515D01*
X141441Y15493D01*
X141445Y15473D01*
X141449Y15454D01*
X141451Y15439D01*
X141453Y15432D01*
X141455Y15427D01*
X141456Y15422D01*
X141457Y15419D01*
X141458Y15417D01*
Y15416D01*
X141467Y15395D01*
X141477Y15376D01*
X141488Y15360D01*
X141500Y15346D01*
X141511Y15335D01*
X141519Y15328D01*
X141525Y15323D01*
X141526Y15321D01*
X141527D01*
X141547Y15309D01*
X141568Y15300D01*
X141588Y15293D01*
X141608Y15290D01*
X141625Y15287D01*
X141633Y15286D01*
X141639D01*
X141644Y15285D01*
X141651D01*
X141674Y15286D01*
X141695Y15290D01*
X141713Y15295D01*
X141729Y15301D01*
X141741Y15307D01*
X141750Y15312D01*
X141756Y15316D01*
X141757Y15318D01*
X141772Y15331D01*
X141786Y15347D01*
X141797Y15364D01*
X141806Y15380D01*
X141814Y15395D01*
X141817Y15403D01*
X141818Y15408D01*
X141820Y15413D01*
X141822Y15416D01*
X141823Y15418D01*
Y15419D01*
X141906Y15400D01*
X141901Y15383D01*
X141895Y15368D01*
X141888Y15354D01*
X141881Y15341D01*
X141874Y15329D01*
X141866Y15318D01*
X141858Y15306D01*
X141851Y15297D01*
X141843Y15290D01*
X141837Y15282D01*
X141830Y15276D01*
X141826Y15271D01*
X141821Y15267D01*
X141817Y15264D01*
X141816Y15263D01*
X141815Y15262D01*
X141802Y15254D01*
X141789Y15245D01*
X141776Y15239D01*
X141762Y15233D01*
X141734Y15225D01*
X141709Y15219D01*
X141697Y15217D01*
X141687Y15216D01*
X141677Y15215D01*
X141669Y15214D01*
X141662Y15213D01*
X141653D01*
X141622Y15215D01*
X141593Y15219D01*
X141567Y15225D01*
X141555Y15229D01*
X141544Y15232D01*
X141534Y15236D01*
X141524Y15240D01*
X141517Y15243D01*
X141510Y15245D01*
X141505Y15248D01*
X141501Y15250D01*
X141499Y15251D01*
X141498Y15252D01*
X141473Y15268D01*
X141451Y15286D01*
X141433Y15305D01*
X141417Y15323D01*
X141405Y15340D01*
X141401Y15347D01*
X141397Y15354D01*
X141393Y15358D01*
X141391Y15362D01*
X141390Y15365D01*
X141389Y15366D01*
X141376Y15394D01*
X141367Y15424D01*
X141361Y15453D01*
X141356Y15480D01*
X141354Y15492D01*
X141353Y15504D01*
X141352Y15514D01*
Y15523D01*
X141352Y15529D01*
Y15535D01*
Y15538D01*
Y15539D01*
X141353Y15573D01*
X141357Y15605D01*
X141362Y15634D01*
X141365Y15648D01*
X141368Y15660D01*
X141371Y15671D01*
X141375Y15681D01*
X141377Y15690D01*
X141379Y15698D01*
X141382Y15703D01*
X141383Y15708D01*
X141385Y15710D01*
Y15711D01*
X141399Y15739D01*
X141414Y15764D01*
X141431Y15785D01*
X141439Y15794D01*
X141447Y15802D01*
X141454Y15809D01*
X141462Y15816D01*
X141468Y15821D01*
X141474Y15825D01*
X141477Y15829D01*
X141481Y15832D01*
X141483Y15832D01*
X141484Y15833D01*
X141497Y15841D01*
X141510Y15847D01*
X141537Y15857D01*
X141565Y15865D01*
X141592Y15869D01*
X141605Y15871D01*
X141616Y15873D01*
X141626Y15874D01*
X141634D01*
X141642Y15875D01*
X141652D01*
X141670Y15874D01*
D02*
G37*
G36*
X142704Y15873D02*
X142727Y15869D01*
X142749Y15863D01*
X142766Y15856D01*
X142773Y15853D01*
X142781Y15849D01*
X142786Y15845D01*
X142792Y15843D01*
X142796Y15841D01*
X142798Y15839D01*
X142800Y15837D01*
X142801D01*
X142820Y15821D01*
X142836Y15804D01*
X142849Y15785D01*
X142860Y15768D01*
X142870Y15752D01*
X142873Y15745D01*
X142876Y15739D01*
X142878Y15734D01*
X142880Y15730D01*
X142881Y15728D01*
Y15727D01*
X142885Y15713D01*
X142890Y15698D01*
X142896Y15666D01*
X142901Y15633D01*
X142904Y15601D01*
X142906Y15587D01*
X142907Y15574D01*
Y15562D01*
X142908Y15551D01*
Y15543D01*
Y15537D01*
Y15532D01*
Y15531D01*
Y15510D01*
X142907Y15489D01*
X142905Y15471D01*
X142903Y15453D01*
X142901Y15438D01*
X142899Y15423D01*
X142896Y15409D01*
X142894Y15397D01*
X142891Y15387D01*
X142889Y15378D01*
X142886Y15369D01*
X142884Y15363D01*
X142883Y15358D01*
X142881Y15354D01*
X142880Y15353D01*
Y15352D01*
X142869Y15330D01*
X142857Y15310D01*
X142843Y15293D01*
X142831Y15280D01*
X142819Y15269D01*
X142810Y15262D01*
X142806Y15259D01*
X142803Y15257D01*
X142802Y15256D01*
X142801D01*
X142782Y15244D01*
X142762Y15236D01*
X142743Y15230D01*
X142725Y15226D01*
X142710Y15223D01*
X142703Y15222D01*
X142699D01*
X142694Y15221D01*
X142688D01*
X142672Y15222D01*
X142657Y15224D01*
X142642Y15227D01*
X142629Y15231D01*
X142604Y15241D01*
X142593Y15245D01*
X142584Y15251D01*
X142575Y15257D01*
X142567Y15262D01*
X142560Y15268D01*
X142554Y15272D01*
X142550Y15276D01*
X142547Y15279D01*
X142545Y15281D01*
X142544Y15281D01*
X142534Y15293D01*
X142526Y15305D01*
X142517Y15318D01*
X142511Y15330D01*
X142505Y15344D01*
X142501Y15357D01*
X142494Y15381D01*
X142492Y15393D01*
X142490Y15403D01*
X142489Y15414D01*
X142488Y15422D01*
X142487Y15428D01*
Y15433D01*
Y15437D01*
Y15438D01*
X142488Y15455D01*
X142490Y15471D01*
X142492Y15487D01*
X142495Y15501D01*
X142500Y15514D01*
X142504Y15527D01*
X142509Y15538D01*
X142515Y15549D01*
X142519Y15558D01*
X142524Y15566D01*
X142528Y15573D01*
X142533Y15579D01*
X142537Y15584D01*
X142539Y15587D01*
X142540Y15588D01*
X142541Y15589D01*
X142552Y15599D01*
X142563Y15608D01*
X142574Y15616D01*
X142586Y15623D01*
X142597Y15628D01*
X142608Y15633D01*
X142629Y15639D01*
X142639Y15642D01*
X142648Y15644D01*
X142655Y15645D01*
X142663Y15646D01*
X142668Y15647D01*
X142675D01*
X142693Y15646D01*
X142710Y15643D01*
X142724Y15639D01*
X142738Y15635D01*
X142749Y15631D01*
X142757Y15627D01*
X142762Y15624D01*
X142764Y15624D01*
X142779Y15614D01*
X142792Y15604D01*
X142803Y15594D01*
X142812Y15585D01*
X142819Y15575D01*
X142824Y15569D01*
X142828Y15564D01*
X142829Y15563D01*
Y15570D01*
Y15575D01*
Y15577D01*
Y15578D01*
X142828Y15597D01*
X142827Y15614D01*
X142825Y15630D01*
X142823Y15645D01*
X142821Y15657D01*
X142819Y15666D01*
X142818Y15670D01*
Y15673D01*
X142817Y15673D01*
Y15674D01*
X142812Y15691D01*
X142808Y15706D01*
X142803Y15719D01*
X142798Y15730D01*
X142795Y15738D01*
X142791Y15745D01*
X142789Y15749D01*
X142788Y15750D01*
X142781Y15760D01*
X142773Y15769D01*
X142766Y15776D01*
X142759Y15783D01*
X142753Y15788D01*
X142748Y15792D01*
X142744Y15794D01*
X142743Y15795D01*
X142733Y15800D01*
X142722Y15804D01*
X142712Y15807D01*
X142701Y15808D01*
X142693Y15809D01*
X142687Y15810D01*
X142680D01*
X142665Y15809D01*
X142651Y15807D01*
X142639Y15803D01*
X142629Y15798D01*
X142622Y15795D01*
X142615Y15791D01*
X142612Y15788D01*
X142611Y15787D01*
X142602Y15777D01*
X142594Y15765D01*
X142588Y15752D01*
X142583Y15739D01*
X142579Y15728D01*
X142577Y15718D01*
X142576Y15714D01*
Y15712D01*
X142575Y15710D01*
Y15710D01*
X142499Y15716D01*
X142504Y15743D01*
X142512Y15766D01*
X142521Y15786D01*
X142530Y15803D01*
X142540Y15816D01*
X142544Y15821D01*
X142548Y15826D01*
X142551Y15829D01*
X142553Y15832D01*
X142554Y15832D01*
X142555Y15833D01*
X142565Y15841D01*
X142575Y15847D01*
X142595Y15857D01*
X142615Y15865D01*
X142635Y15869D01*
X142652Y15873D01*
X142660Y15874D01*
X142666D01*
X142671Y15875D01*
X142678D01*
X142704Y15873D01*
D02*
G37*
G36*
X142285Y15221D02*
X142234D01*
X142225Y15237D01*
X142215Y15252D01*
X142203Y15267D01*
X142192Y15280D01*
X142181Y15291D01*
X142173Y15300D01*
X142169Y15303D01*
X142166Y15305D01*
X142165Y15306D01*
X142164Y15307D01*
X142145Y15323D01*
X142125Y15338D01*
X142107Y15351D01*
X142088Y15361D01*
X142073Y15370D01*
X142066Y15374D01*
X142061Y15377D01*
X142056Y15379D01*
X142052Y15380D01*
X142050Y15382D01*
X142050D01*
Y15458D01*
X142063Y15452D01*
X142077Y15446D01*
X142091Y15440D01*
X142104Y15433D01*
X142115Y15428D01*
X142124Y15423D01*
X142130Y15419D01*
X142131Y15418D01*
X142132D01*
X142148Y15408D01*
X142163Y15398D01*
X142176Y15389D01*
X142186Y15380D01*
X142196Y15374D01*
X142201Y15368D01*
X142206Y15365D01*
X142207Y15364D01*
Y15864D01*
X142285D01*
Y15221D01*
D02*
G37*
G36*
X141670Y13199D02*
X141688Y13197D01*
X141705Y13195D01*
X141720Y13192D01*
X141735Y13187D01*
X141749Y13182D01*
X141762Y13178D01*
X141774Y13172D01*
X141784Y13168D01*
X141794Y13163D01*
X141802Y13158D01*
X141809Y13154D01*
X141814Y13150D01*
X141818Y13148D01*
X141820Y13146D01*
X141821Y13145D01*
X141834Y13134D01*
X141845Y13123D01*
X141855Y13110D01*
X141866Y13097D01*
X141882Y13071D01*
X141895Y13046D01*
X141901Y13034D01*
X141905Y13023D01*
X141909Y13012D01*
X141912Y13004D01*
X141915Y12997D01*
X141916Y12991D01*
X141917Y12987D01*
Y12986D01*
X141832Y12965D01*
X141829Y12980D01*
X141824Y12994D01*
X141819Y13007D01*
X141815Y13019D01*
X141809Y13030D01*
X141804Y13039D01*
X141797Y13048D01*
X141792Y13057D01*
X141787Y13064D01*
X141781Y13070D01*
X141777Y13075D01*
X141773Y13080D01*
X141769Y13083D01*
X141767Y13085D01*
X141766Y13086D01*
X141765Y13087D01*
X141756Y13095D01*
X141745Y13100D01*
X141725Y13110D01*
X141706Y13118D01*
X141686Y13122D01*
X141670Y13126D01*
X141663Y13127D01*
X141657D01*
X141651Y13128D01*
X141645D01*
X141623Y13127D01*
X141603Y13123D01*
X141585Y13119D01*
X141568Y13113D01*
X141555Y13108D01*
X141549Y13105D01*
X141545Y13103D01*
X141541Y13101D01*
X141538Y13099D01*
X141536Y13098D01*
X141536D01*
X141518Y13085D01*
X141503Y13071D01*
X141490Y13056D01*
X141480Y13041D01*
X141472Y13028D01*
X141466Y13017D01*
X141464Y13012D01*
X141462Y13010D01*
X141462Y13008D01*
Y13007D01*
X141454Y12983D01*
X141449Y12959D01*
X141444Y12935D01*
X141441Y12912D01*
X141440Y12902D01*
X141439Y12893D01*
Y12885D01*
X141438Y12878D01*
Y12873D01*
Y12868D01*
Y12865D01*
Y12864D01*
X141439Y12840D01*
X141441Y12818D01*
X141445Y12798D01*
X141449Y12779D01*
X141451Y12764D01*
X141453Y12757D01*
X141455Y12752D01*
X141456Y12747D01*
X141457Y12744D01*
X141458Y12742D01*
Y12741D01*
X141467Y12720D01*
X141477Y12701D01*
X141488Y12685D01*
X141500Y12671D01*
X141511Y12660D01*
X141519Y12653D01*
X141525Y12648D01*
X141526Y12646D01*
X141527D01*
X141547Y12634D01*
X141568Y12625D01*
X141588Y12618D01*
X141608Y12615D01*
X141625Y12612D01*
X141633Y12611D01*
X141639D01*
X141644Y12610D01*
X141651D01*
X141674Y12611D01*
X141695Y12615D01*
X141713Y12620D01*
X141729Y12626D01*
X141741Y12632D01*
X141750Y12637D01*
X141756Y12641D01*
X141757Y12642D01*
X141772Y12656D01*
X141786Y12672D01*
X141797Y12689D01*
X141806Y12705D01*
X141814Y12720D01*
X141817Y12728D01*
X141818Y12733D01*
X141820Y12738D01*
X141822Y12741D01*
X141823Y12743D01*
Y12744D01*
X141906Y12725D01*
X141901Y12708D01*
X141895Y12693D01*
X141888Y12679D01*
X141881Y12666D01*
X141874Y12654D01*
X141866Y12642D01*
X141858Y12631D01*
X141851Y12622D01*
X141843Y12615D01*
X141837Y12607D01*
X141830Y12601D01*
X141826Y12596D01*
X141821Y12592D01*
X141817Y12589D01*
X141816Y12588D01*
X141815Y12587D01*
X141802Y12579D01*
X141789Y12570D01*
X141776Y12564D01*
X141762Y12558D01*
X141734Y12550D01*
X141709Y12545D01*
X141697Y12542D01*
X141687Y12541D01*
X141677Y12540D01*
X141669Y12539D01*
X141662Y12538D01*
X141653D01*
X141622Y12540D01*
X141593Y12545D01*
X141567Y12550D01*
X141555Y12554D01*
X141544Y12557D01*
X141534Y12561D01*
X141524Y12565D01*
X141517Y12568D01*
X141510Y12570D01*
X141505Y12573D01*
X141501Y12575D01*
X141499Y12576D01*
X141498Y12577D01*
X141473Y12593D01*
X141451Y12611D01*
X141433Y12630D01*
X141417Y12648D01*
X141405Y12665D01*
X141401Y12672D01*
X141397Y12679D01*
X141393Y12683D01*
X141391Y12687D01*
X141390Y12690D01*
X141389Y12691D01*
X141376Y12719D01*
X141367Y12749D01*
X141361Y12778D01*
X141356Y12805D01*
X141354Y12817D01*
X141353Y12829D01*
X141352Y12839D01*
Y12848D01*
X141352Y12854D01*
Y12860D01*
Y12863D01*
Y12864D01*
X141353Y12898D01*
X141357Y12930D01*
X141362Y12959D01*
X141365Y12973D01*
X141368Y12985D01*
X141371Y12996D01*
X141375Y13006D01*
X141377Y13015D01*
X141379Y13023D01*
X141382Y13028D01*
X141383Y13033D01*
X141385Y13035D01*
Y13036D01*
X141399Y13064D01*
X141414Y13089D01*
X141431Y13110D01*
X141439Y13119D01*
X141447Y13127D01*
X141454Y13134D01*
X141462Y13141D01*
X141468Y13146D01*
X141474Y13150D01*
X141477Y13154D01*
X141481Y13157D01*
X141483Y13157D01*
X141484Y13158D01*
X141497Y13166D01*
X141510Y13172D01*
X141537Y13182D01*
X141565Y13190D01*
X141592Y13194D01*
X141605Y13196D01*
X141616Y13198D01*
X141626Y13199D01*
X141634D01*
X141642Y13200D01*
X141652D01*
X141670Y13199D01*
D02*
G37*
G36*
X142285Y12546D02*
X142234D01*
X142225Y12562D01*
X142215Y12577D01*
X142203Y12592D01*
X142192Y12605D01*
X142181Y12616D01*
X142173Y12625D01*
X142169Y12628D01*
X142166Y12630D01*
X142165Y12631D01*
X142164Y12632D01*
X142145Y12648D01*
X142125Y12663D01*
X142107Y12676D01*
X142088Y12686D01*
X142073Y12695D01*
X142066Y12699D01*
X142061Y12702D01*
X142056Y12704D01*
X142052Y12705D01*
X142050Y12707D01*
X142050D01*
Y12783D01*
X142063Y12777D01*
X142077Y12771D01*
X142091Y12765D01*
X142104Y12758D01*
X142115Y12753D01*
X142124Y12748D01*
X142130Y12744D01*
X142131Y12743D01*
X142132D01*
X142148Y12733D01*
X142163Y12723D01*
X142176Y12714D01*
X142186Y12705D01*
X142196Y12699D01*
X142201Y12693D01*
X142206Y12690D01*
X142207Y12689D01*
Y13189D01*
X142285D01*
Y12546D01*
D02*
G37*
G36*
X142714Y13199D02*
X142730Y13197D01*
X142746Y13194D01*
X142761Y13192D01*
X142773Y13187D01*
X142786Y13182D01*
X142798Y13178D01*
X142809Y13172D01*
X142818Y13167D01*
X142826Y13162D01*
X142833Y13157D01*
X142839Y13153D01*
X142844Y13150D01*
X142847Y13147D01*
X142848Y13145D01*
X142849Y13145D01*
X142859Y13133D01*
X142869Y13122D01*
X142876Y13111D01*
X142883Y13099D01*
X142889Y13088D01*
X142894Y13076D01*
X142900Y13055D01*
X142903Y13045D01*
X142905Y13035D01*
X142906Y13027D01*
X142907Y13021D01*
X142908Y13015D01*
Y13010D01*
Y13008D01*
Y13007D01*
X142907Y12986D01*
X142903Y12966D01*
X142897Y12949D01*
X142892Y12934D01*
X142886Y12922D01*
X142881Y12912D01*
X142877Y12907D01*
X142876Y12906D01*
Y12905D01*
X142863Y12890D01*
X142849Y12877D01*
X142835Y12867D01*
X142821Y12858D01*
X142808Y12851D01*
X142797Y12847D01*
X142793Y12845D01*
X142790Y12844D01*
X142788Y12843D01*
X142787D01*
X142804Y12836D01*
X142818Y12827D01*
X142830Y12819D01*
X142840Y12811D01*
X142847Y12803D01*
X142853Y12798D01*
X142857Y12794D01*
X142858Y12792D01*
X142866Y12779D01*
X142871Y12766D01*
X142876Y12753D01*
X142879Y12741D01*
X142881Y12730D01*
X142882Y12722D01*
Y12716D01*
Y12716D01*
Y12715D01*
X142881Y12702D01*
X142880Y12690D01*
X142873Y12667D01*
X142865Y12646D01*
X142856Y12629D01*
X142847Y12615D01*
X142842Y12609D01*
X142838Y12604D01*
X142835Y12600D01*
X142832Y12597D01*
X142831Y12596D01*
X142830Y12595D01*
X142820Y12587D01*
X142810Y12579D01*
X142798Y12572D01*
X142787Y12567D01*
X142765Y12558D01*
X142743Y12553D01*
X142734Y12550D01*
X142724Y12549D01*
X142716Y12548D01*
X142709Y12547D01*
X142703Y12546D01*
X142695D01*
X142680Y12547D01*
X142665Y12548D01*
X142639Y12554D01*
X142627Y12557D01*
X142616Y12561D01*
X142606Y12566D01*
X142597Y12570D01*
X142589Y12575D01*
X142582Y12580D01*
X142576Y12583D01*
X142571Y12587D01*
X142567Y12590D01*
X142565Y12593D01*
X142563Y12594D01*
X142562Y12594D01*
X142553Y12604D01*
X142545Y12613D01*
X142539Y12623D01*
X142533Y12633D01*
X142524Y12653D01*
X142518Y12671D01*
X142515Y12687D01*
X142514Y12694D01*
X142513Y12700D01*
X142512Y12705D01*
Y12709D01*
Y12711D01*
Y12712D01*
X142513Y12728D01*
X142516Y12744D01*
X142519Y12758D01*
X142524Y12770D01*
X142528Y12779D01*
X142531Y12787D01*
X142534Y12790D01*
X142535Y12792D01*
X142545Y12803D01*
X142556Y12814D01*
X142568Y12823D01*
X142580Y12830D01*
X142591Y12836D01*
X142600Y12839D01*
X142603Y12841D01*
X142606Y12842D01*
X142607Y12843D01*
X142608D01*
X142587Y12850D01*
X142569Y12858D01*
X142553Y12868D01*
X142540Y12877D01*
X142530Y12887D01*
X142523Y12894D01*
X142519Y12899D01*
X142517Y12900D01*
Y12900D01*
X142507Y12917D01*
X142499Y12935D01*
X142493Y12951D01*
X142490Y12968D01*
X142488Y12983D01*
X142487Y12989D01*
Y12995D01*
X142486Y12998D01*
Y13002D01*
Y13004D01*
Y13005D01*
X142487Y13020D01*
X142489Y13035D01*
X142492Y13048D01*
X142495Y13062D01*
X142504Y13085D01*
X142509Y13096D01*
X142515Y13106D01*
X142520Y13115D01*
X142525Y13122D01*
X142530Y13129D01*
X142534Y13134D01*
X142538Y13139D01*
X142540Y13142D01*
X142542Y13144D01*
X142543Y13145D01*
X142554Y13155D01*
X142566Y13163D01*
X142579Y13170D01*
X142592Y13177D01*
X142604Y13182D01*
X142617Y13186D01*
X142642Y13193D01*
X142653Y13195D01*
X142663Y13197D01*
X142673Y13198D01*
X142681Y13199D01*
X142688Y13200D01*
X142697D01*
X142714Y13199D01*
D02*
G37*
G36*
X40023Y11848D02*
X40055Y11844D01*
X40084Y11840D01*
X40098Y11836D01*
X40110Y11833D01*
X40121Y11831D01*
X40131Y11827D01*
X40140Y11824D01*
X40147Y11822D01*
X40153Y11819D01*
X40158Y11819D01*
X40160Y11817D01*
X40161D01*
X40189Y11803D01*
X40214Y11787D01*
X40235Y11771D01*
X40244Y11762D01*
X40252Y11755D01*
X40259Y11747D01*
X40266Y11740D01*
X40271Y11734D01*
X40275Y11728D01*
X40279Y11724D01*
X40282Y11721D01*
X40282Y11719D01*
X40283Y11718D01*
X40291Y11705D01*
X40297Y11692D01*
X40307Y11664D01*
X40315Y11636D01*
X40319Y11610D01*
X40321Y11597D01*
X40323Y11586D01*
X40324Y11575D01*
Y11567D01*
X40325Y11560D01*
Y11550D01*
X40324Y11531D01*
X40322Y11513D01*
X40320Y11497D01*
X40317Y11481D01*
X40312Y11466D01*
X40307Y11452D01*
X40303Y11440D01*
X40297Y11427D01*
X40293Y11417D01*
X40288Y11407D01*
X40283Y11400D01*
X40279Y11392D01*
X40275Y11388D01*
X40273Y11383D01*
X40271Y11381D01*
X40270Y11380D01*
X40259Y11367D01*
X40248Y11356D01*
X40235Y11346D01*
X40222Y11336D01*
X40196Y11319D01*
X40171Y11306D01*
X40159Y11301D01*
X40147Y11296D01*
X40137Y11292D01*
X40129Y11290D01*
X40122Y11287D01*
X40116Y11285D01*
X40112Y11284D01*
X40111D01*
X40090Y11369D01*
X40105Y11373D01*
X40119Y11378D01*
X40132Y11382D01*
X40144Y11387D01*
X40155Y11392D01*
X40164Y11398D01*
X40173Y11404D01*
X40182Y11410D01*
X40189Y11415D01*
X40195Y11420D01*
X40200Y11425D01*
X40205Y11428D01*
X40208Y11432D01*
X40210Y11435D01*
X40211Y11436D01*
X40212Y11437D01*
X40220Y11446D01*
X40225Y11456D01*
X40235Y11476D01*
X40243Y11496D01*
X40247Y11515D01*
X40251Y11532D01*
X40252Y11538D01*
Y11545D01*
X40253Y11550D01*
Y11557D01*
X40252Y11578D01*
X40248Y11599D01*
X40244Y11617D01*
X40238Y11634D01*
X40233Y11647D01*
X40230Y11652D01*
X40228Y11657D01*
X40226Y11660D01*
X40224Y11663D01*
X40223Y11665D01*
Y11666D01*
X40210Y11684D01*
X40196Y11698D01*
X40181Y11711D01*
X40166Y11722D01*
X40153Y11730D01*
X40142Y11735D01*
X40137Y11737D01*
X40135Y11739D01*
X40133Y11740D01*
X40132D01*
X40108Y11747D01*
X40084Y11753D01*
X40060Y11758D01*
X40037Y11760D01*
X40027Y11761D01*
X40018Y11762D01*
X40010D01*
X40003Y11763D01*
X39998D01*
X39993D01*
X39990D01*
X39989D01*
X39965Y11762D01*
X39943Y11760D01*
X39923Y11757D01*
X39904Y11753D01*
X39889Y11750D01*
X39882Y11748D01*
X39877Y11746D01*
X39872Y11746D01*
X39869Y11745D01*
X39867Y11744D01*
X39866D01*
X39845Y11734D01*
X39826Y11724D01*
X39810Y11713D01*
X39796Y11701D01*
X39785Y11691D01*
X39778Y11683D01*
X39773Y11676D01*
X39771Y11675D01*
Y11674D01*
X39759Y11655D01*
X39750Y11634D01*
X39743Y11613D01*
X39740Y11594D01*
X39737Y11576D01*
X39736Y11569D01*
Y11562D01*
X39735Y11558D01*
Y11550D01*
X39736Y11527D01*
X39740Y11506D01*
X39745Y11489D01*
X39751Y11473D01*
X39757Y11461D01*
X39762Y11452D01*
X39766Y11446D01*
X39768Y11444D01*
X39781Y11429D01*
X39797Y11415D01*
X39814Y11404D01*
X39830Y11395D01*
X39845Y11388D01*
X39853Y11385D01*
X39858Y11383D01*
X39863Y11381D01*
X39866Y11379D01*
X39868Y11378D01*
X39869D01*
X39850Y11295D01*
X39833Y11301D01*
X39818Y11306D01*
X39804Y11314D01*
X39791Y11320D01*
X39779Y11328D01*
X39768Y11336D01*
X39756Y11343D01*
X39747Y11351D01*
X39740Y11358D01*
X39732Y11365D01*
X39726Y11371D01*
X39721Y11376D01*
X39717Y11380D01*
X39714Y11384D01*
X39713Y11386D01*
X39712Y11387D01*
X39704Y11400D01*
X39695Y11413D01*
X39689Y11426D01*
X39683Y11440D01*
X39675Y11467D01*
X39669Y11492D01*
X39667Y11504D01*
X39666Y11514D01*
X39665Y11525D01*
X39664Y11533D01*
X39663Y11539D01*
Y11549D01*
X39665Y11579D01*
X39669Y11609D01*
X39675Y11635D01*
X39679Y11647D01*
X39682Y11658D01*
X39686Y11668D01*
X39690Y11677D01*
X39693Y11685D01*
X39695Y11692D01*
X39698Y11697D01*
X39700Y11700D01*
X39701Y11703D01*
X39702Y11704D01*
X39718Y11729D01*
X39736Y11750D01*
X39755Y11769D01*
X39773Y11784D01*
X39790Y11796D01*
X39797Y11801D01*
X39804Y11805D01*
X39808Y11808D01*
X39812Y11810D01*
X39815Y11811D01*
X39816Y11812D01*
X39844Y11825D01*
X39874Y11834D01*
X39903Y11841D01*
X39930Y11845D01*
X39942Y11847D01*
X39954Y11848D01*
X39964Y11849D01*
X39973D01*
X39979Y11850D01*
X39985D01*
X39988D01*
X39989D01*
X40023Y11848D01*
D02*
G37*
G36*
X40045Y11215D02*
X40073Y11213D01*
X40098Y11210D01*
X40123Y11206D01*
X40144Y11201D01*
X40163Y11196D01*
X40181Y11191D01*
X40196Y11184D01*
X40209Y11179D01*
X40221Y11173D01*
X40231Y11169D01*
X40239Y11163D01*
X40245Y11159D01*
X40249Y11157D01*
X40252Y11155D01*
X40253Y11154D01*
X40266Y11142D01*
X40277Y11129D01*
X40286Y11116D01*
X40294Y11103D01*
X40302Y11089D01*
X40307Y11076D01*
X40312Y11063D01*
X40316Y11050D01*
X40319Y11039D01*
X40321Y11028D01*
X40323Y11019D01*
X40324Y11011D01*
Y11003D01*
X40325Y10998D01*
Y10994D01*
X40324Y10973D01*
X40320Y10953D01*
X40317Y10936D01*
X40311Y10920D01*
X40307Y10908D01*
X40302Y10899D01*
X40301Y10895D01*
X40299Y10892D01*
X40298Y10891D01*
Y10890D01*
X40287Y10875D01*
X40274Y10860D01*
X40261Y10848D01*
X40248Y10838D01*
X40236Y10829D01*
X40227Y10824D01*
X40223Y10822D01*
X40221Y10820D01*
X40220Y10819D01*
X40219D01*
X40199Y10810D01*
X40179Y10803D01*
X40160Y10799D01*
X40143Y10796D01*
X40128Y10793D01*
X40123D01*
X40117Y10792D01*
X40112D01*
X40110D01*
X40108D01*
X40107D01*
X40090Y10793D01*
X40074Y10795D01*
X40059Y10798D01*
X40045Y10801D01*
X40032Y10805D01*
X40019Y10810D01*
X40008Y10814D01*
X39998Y10820D01*
X39988Y10826D01*
X39980Y10830D01*
X39974Y10835D01*
X39967Y10839D01*
X39963Y10842D01*
X39960Y10845D01*
X39958Y10847D01*
X39957Y10848D01*
X39947Y10858D01*
X39938Y10869D01*
X39930Y10881D01*
X39924Y10892D01*
X39917Y10903D01*
X39913Y10914D01*
X39906Y10936D01*
X39903Y10945D01*
X39902Y10954D01*
X39901Y10962D01*
X39900Y10969D01*
X39899Y10974D01*
Y10982D01*
X39900Y10998D01*
X39902Y11014D01*
X39905Y11029D01*
X39909Y11042D01*
X39914Y11053D01*
X39916Y11061D01*
X39919Y11067D01*
X39920Y11068D01*
Y11069D01*
X39929Y11084D01*
X39939Y11097D01*
X39950Y11109D01*
X39961Y11118D01*
X39970Y11126D01*
X39977Y11133D01*
X39983Y11136D01*
X39984Y11137D01*
X39967D01*
X39951Y11136D01*
X39936Y11135D01*
X39921Y11133D01*
X39908Y11133D01*
X39896Y11131D01*
X39885Y11129D01*
X39875Y11126D01*
X39866Y11124D01*
X39858Y11122D01*
X39852Y11121D01*
X39846Y11120D01*
X39842Y11118D01*
X39840Y11117D01*
X39838Y11116D01*
X39837D01*
X39818Y11107D01*
X39802Y11097D01*
X39789Y11087D01*
X39778Y11078D01*
X39768Y11070D01*
X39762Y11063D01*
X39758Y11059D01*
X39757Y11057D01*
X39750Y11046D01*
X39745Y11035D01*
X39742Y11023D01*
X39739Y11012D01*
X39737Y11004D01*
X39736Y10997D01*
Y10990D01*
X39738Y10974D01*
X39742Y10958D01*
X39747Y10945D01*
X39753Y10933D01*
X39759Y10924D01*
X39765Y10917D01*
X39768Y10913D01*
X39770Y10912D01*
X39779Y10905D01*
X39789Y10899D01*
X39800Y10893D01*
X39811Y10889D01*
X39821Y10886D01*
X39829Y10883D01*
X39835Y10882D01*
X39836Y10881D01*
X39837D01*
X39830Y10802D01*
X39804Y10808D01*
X39781Y10816D01*
X39761Y10826D01*
X39744Y10836D01*
X39731Y10846D01*
X39726Y10850D01*
X39721Y10854D01*
X39718Y10857D01*
X39716Y10860D01*
X39715Y10861D01*
X39714Y10862D01*
X39706Y10871D01*
X39700Y10881D01*
X39689Y10901D01*
X39682Y10922D01*
X39677Y10941D01*
X39673Y10959D01*
X39672Y10966D01*
Y10973D01*
X39671Y10978D01*
Y10986D01*
X39672Y11004D01*
X39674Y11022D01*
X39678Y11038D01*
X39682Y11054D01*
X39689Y11068D01*
X39694Y11082D01*
X39702Y11094D01*
X39708Y11105D01*
X39715Y11114D01*
X39722Y11123D01*
X39728Y11131D01*
X39733Y11136D01*
X39739Y11141D01*
X39743Y11145D01*
X39744Y11146D01*
X39745Y11147D01*
X39762Y11159D01*
X39781Y11170D01*
X39802Y11179D01*
X39823Y11187D01*
X39845Y11194D01*
X39867Y11199D01*
X39890Y11204D01*
X39912Y11207D01*
X39933Y11210D01*
X39952Y11212D01*
X39970Y11214D01*
X39985Y11215D01*
X39998D01*
X40007Y11216D01*
X40011D01*
X40013D01*
X40014D01*
X40015D01*
X40045Y11215D01*
D02*
G37*
G36*
X62793Y3696D02*
X62811Y3694D01*
X62827Y3692D01*
X62843Y3689D01*
X62858Y3684D01*
X62872Y3679D01*
X62885Y3675D01*
X62897Y3669D01*
X62907Y3665D01*
X62917Y3660D01*
X62924Y3655D01*
X62932Y3651D01*
X62936Y3647D01*
X62941Y3645D01*
X62943Y3643D01*
X62944Y3642D01*
X62957Y3631D01*
X62968Y3620D01*
X62978Y3607D01*
X62988Y3594D01*
X63005Y3568D01*
X63018Y3543D01*
X63023Y3530D01*
X63028Y3519D01*
X63032Y3509D01*
X63034Y3501D01*
X63037Y3494D01*
X63039Y3488D01*
X63040Y3484D01*
Y3483D01*
X62955Y3462D01*
X62951Y3477D01*
X62947Y3491D01*
X62942Y3504D01*
X62937Y3516D01*
X62932Y3527D01*
X62926Y3536D01*
X62920Y3545D01*
X62914Y3554D01*
X62910Y3561D01*
X62904Y3567D01*
X62899Y3572D01*
X62896Y3577D01*
X62892Y3579D01*
X62889Y3582D01*
X62888Y3583D01*
X62887Y3584D01*
X62878Y3592D01*
X62868Y3597D01*
X62848Y3607D01*
X62828Y3615D01*
X62809Y3619D01*
X62792Y3623D01*
X62786Y3624D01*
X62779D01*
X62774Y3625D01*
X62767D01*
X62746Y3624D01*
X62726Y3620D01*
X62707Y3616D01*
X62690Y3610D01*
X62678Y3604D01*
X62672Y3602D01*
X62667Y3600D01*
X62664Y3598D01*
X62661Y3596D01*
X62659Y3595D01*
X62658D01*
X62641Y3582D01*
X62626Y3568D01*
X62613Y3553D01*
X62603Y3538D01*
X62594Y3525D01*
X62589Y3514D01*
X62587Y3509D01*
X62585Y3506D01*
X62584Y3505D01*
Y3504D01*
X62577Y3480D01*
X62571Y3456D01*
X62567Y3432D01*
X62564Y3409D01*
X62563Y3399D01*
X62562Y3390D01*
Y3382D01*
X62561Y3375D01*
Y3370D01*
Y3365D01*
Y3362D01*
Y3361D01*
X62562Y3337D01*
X62564Y3315D01*
X62567Y3295D01*
X62571Y3276D01*
X62574Y3261D01*
X62576Y3254D01*
X62578Y3249D01*
X62579Y3244D01*
X62579Y3241D01*
X62580Y3239D01*
Y3238D01*
X62590Y3217D01*
X62600Y3198D01*
X62611Y3182D01*
X62623Y3168D01*
X62633Y3157D01*
X62641Y3150D01*
X62648Y3145D01*
X62649Y3143D01*
X62650D01*
X62669Y3131D01*
X62690Y3122D01*
X62711Y3115D01*
X62730Y3112D01*
X62748Y3109D01*
X62755Y3108D01*
X62762D01*
X62766Y3107D01*
X62774D01*
X62797Y3108D01*
X62818Y3112D01*
X62836Y3117D01*
X62851Y3123D01*
X62863Y3129D01*
X62873Y3134D01*
X62878Y3138D01*
X62880Y3139D01*
X62895Y3153D01*
X62909Y3169D01*
X62920Y3186D01*
X62929Y3202D01*
X62936Y3217D01*
X62939Y3224D01*
X62941Y3230D01*
X62943Y3235D01*
X62945Y3238D01*
X62946Y3240D01*
Y3241D01*
X63029Y3222D01*
X63023Y3205D01*
X63018Y3190D01*
X63010Y3176D01*
X63004Y3163D01*
X62996Y3150D01*
X62988Y3139D01*
X62981Y3128D01*
X62973Y3119D01*
X62966Y3112D01*
X62959Y3104D01*
X62953Y3098D01*
X62948Y3093D01*
X62944Y3089D01*
X62940Y3086D01*
X62938Y3085D01*
X62937Y3084D01*
X62924Y3076D01*
X62911Y3067D01*
X62898Y3061D01*
X62885Y3055D01*
X62857Y3047D01*
X62832Y3041D01*
X62820Y3039D01*
X62810Y3038D01*
X62800Y3037D01*
X62791Y3036D01*
X62785Y3035D01*
X62776D01*
X62745Y3037D01*
X62715Y3041D01*
X62690Y3047D01*
X62678Y3051D01*
X62666Y3054D01*
X62656Y3058D01*
X62647Y3062D01*
X62640Y3065D01*
X62632Y3067D01*
X62628Y3070D01*
X62624Y3072D01*
X62621Y3073D01*
X62620Y3074D01*
X62595Y3089D01*
X62574Y3108D01*
X62555Y3126D01*
X62540Y3145D01*
X62528Y3162D01*
X62523Y3169D01*
X62519Y3175D01*
X62516Y3180D01*
X62514Y3184D01*
X62513Y3187D01*
X62512Y3187D01*
X62499Y3216D01*
X62490Y3246D01*
X62483Y3275D01*
X62479Y3302D01*
X62477Y3314D01*
X62476Y3326D01*
X62475Y3335D01*
Y3345D01*
X62474Y3351D01*
Y3357D01*
Y3360D01*
Y3361D01*
X62476Y3395D01*
X62480Y3427D01*
X62484Y3456D01*
X62488Y3469D01*
X62491Y3481D01*
X62494Y3493D01*
X62497Y3503D01*
X62500Y3512D01*
X62502Y3519D01*
X62505Y3525D01*
X62506Y3530D01*
X62507Y3532D01*
Y3533D01*
X62521Y3561D01*
X62537Y3586D01*
X62554Y3607D01*
X62562Y3616D01*
X62569Y3624D01*
X62577Y3631D01*
X62584Y3638D01*
X62591Y3643D01*
X62596Y3647D01*
X62600Y3651D01*
X62604Y3653D01*
X62605Y3654D01*
X62606Y3655D01*
X62619Y3663D01*
X62632Y3669D01*
X62660Y3679D01*
X62688Y3687D01*
X62714Y3691D01*
X62727Y3693D01*
X62739Y3695D01*
X62749Y3696D01*
X62757D01*
X62764Y3697D01*
X62775D01*
X62793Y3696D01*
D02*
G37*
G36*
X63525Y3610D02*
X63210D01*
X63221Y3594D01*
X63227Y3588D01*
X63231Y3581D01*
X63236Y3576D01*
X63240Y3572D01*
X63242Y3569D01*
X63243Y3568D01*
X63248Y3564D01*
X63254Y3559D01*
X63266Y3547D01*
X63281Y3533D01*
X63297Y3519D01*
X63312Y3507D01*
X63318Y3502D01*
X63324Y3496D01*
X63328Y3493D01*
X63332Y3490D01*
X63334Y3488D01*
X63335Y3487D01*
X63350Y3474D01*
X63364Y3462D01*
X63377Y3450D01*
X63389Y3440D01*
X63401Y3430D01*
X63410Y3420D01*
X63419Y3412D01*
X63426Y3405D01*
X63434Y3397D01*
X63439Y3392D01*
X63444Y3387D01*
X63449Y3383D01*
X63453Y3377D01*
X63455Y3375D01*
X63468Y3359D01*
X63479Y3346D01*
X63488Y3332D01*
X63496Y3321D01*
X63501Y3310D01*
X63505Y3303D01*
X63507Y3298D01*
X63508Y3297D01*
X63513Y3283D01*
X63517Y3269D01*
X63521Y3256D01*
X63523Y3245D01*
X63523Y3235D01*
X63524Y3227D01*
Y3223D01*
Y3221D01*
X63523Y3207D01*
X63522Y3194D01*
X63520Y3181D01*
X63516Y3170D01*
X63507Y3148D01*
X63498Y3130D01*
X63492Y3122D01*
X63487Y3115D01*
X63483Y3109D01*
X63478Y3104D01*
X63474Y3101D01*
X63473Y3097D01*
X63471Y3096D01*
X63470Y3095D01*
X63460Y3086D01*
X63449Y3077D01*
X63437Y3071D01*
X63425Y3065D01*
X63401Y3056D01*
X63376Y3050D01*
X63366Y3048D01*
X63356Y3046D01*
X63347Y3045D01*
X63339Y3044D01*
X63333Y3043D01*
X63324D01*
X63307Y3044D01*
X63291Y3045D01*
X63277Y3048D01*
X63263Y3051D01*
X63250Y3054D01*
X63238Y3058D01*
X63227Y3063D01*
X63217Y3067D01*
X63207Y3072D01*
X63200Y3077D01*
X63193Y3080D01*
X63188Y3084D01*
X63183Y3087D01*
X63180Y3089D01*
X63179Y3090D01*
X63178Y3091D01*
X63168Y3101D01*
X63160Y3111D01*
X63152Y3122D01*
X63145Y3133D01*
X63134Y3155D01*
X63127Y3177D01*
X63124Y3187D01*
X63121Y3198D01*
X63119Y3206D01*
X63118Y3213D01*
X63117Y3220D01*
Y3224D01*
X63116Y3227D01*
Y3228D01*
X63196Y3236D01*
X63198Y3215D01*
X63202Y3197D01*
X63207Y3180D01*
X63214Y3167D01*
X63219Y3156D01*
X63225Y3149D01*
X63229Y3144D01*
X63230Y3142D01*
X63244Y3131D01*
X63259Y3123D01*
X63275Y3116D01*
X63289Y3113D01*
X63302Y3110D01*
X63313Y3109D01*
X63316Y3108D01*
X63322D01*
X63341Y3109D01*
X63359Y3113D01*
X63374Y3118D01*
X63387Y3124D01*
X63397Y3130D01*
X63403Y3135D01*
X63408Y3138D01*
X63410Y3140D01*
X63421Y3153D01*
X63429Y3166D01*
X63436Y3179D01*
X63439Y3192D01*
X63442Y3202D01*
X63443Y3212D01*
X63444Y3217D01*
Y3218D01*
Y3219D01*
X63442Y3236D01*
X63438Y3253D01*
X63432Y3269D01*
X63425Y3284D01*
X63418Y3296D01*
X63412Y3306D01*
X63410Y3310D01*
X63408Y3312D01*
X63406Y3313D01*
Y3314D01*
X63399Y3324D01*
X63389Y3334D01*
X63379Y3346D01*
X63368Y3357D01*
X63345Y3379D01*
X63322Y3401D01*
X63310Y3411D01*
X63300Y3420D01*
X63290Y3429D01*
X63281Y3436D01*
X63275Y3442D01*
X63269Y3446D01*
X63266Y3449D01*
X63265Y3450D01*
X63241Y3469D01*
X63220Y3488D01*
X63203Y3505D01*
X63189Y3518D01*
X63177Y3530D01*
X63168Y3539D01*
X63164Y3544D01*
X63162Y3545D01*
Y3546D01*
X63149Y3562D01*
X63139Y3577D01*
X63130Y3592D01*
X63122Y3604D01*
X63117Y3616D01*
X63113Y3624D01*
X63111Y3629D01*
X63110Y3630D01*
Y3631D01*
X63106Y3641D01*
X63105Y3651D01*
X63103Y3660D01*
X63102Y3668D01*
X63101Y3676D01*
Y3681D01*
Y3685D01*
Y3686D01*
X63525D01*
Y3610D01*
D02*
G37*
G36*
X114340Y56002D02*
X114355D01*
X114370Y56001D01*
X114383Y56000D01*
X114396Y55999D01*
X114407Y55998D01*
X114417Y55996D01*
X114426Y55995D01*
X114435Y55993D01*
X114441Y55992D01*
X114447Y55991D01*
X114451Y55990D01*
X114454Y55989D01*
X114456Y55988D01*
X114457D01*
X114477Y55983D01*
X114496Y55976D01*
X114511Y55969D01*
X114525Y55963D01*
X114537Y55957D01*
X114545Y55953D01*
X114550Y55950D01*
X114552Y55949D01*
X114566Y55939D01*
X114578Y55928D01*
X114588Y55917D01*
X114597Y55907D01*
X114604Y55898D01*
X114608Y55890D01*
X114611Y55886D01*
X114612Y55885D01*
Y55884D01*
X114619Y55869D01*
X114624Y55853D01*
X114628Y55839D01*
X114631Y55825D01*
X114632Y55813D01*
X114633Y55803D01*
Y55794D01*
X114631Y55769D01*
X114628Y55746D01*
X114621Y55727D01*
X114615Y55710D01*
X114607Y55696D01*
X114605Y55691D01*
X114601Y55686D01*
X114599Y55682D01*
X114597Y55680D01*
X114595Y55679D01*
Y55678D01*
X114581Y55661D01*
X114563Y55647D01*
X114545Y55635D01*
X114529Y55626D01*
X114513Y55619D01*
X114507Y55615D01*
X114500Y55613D01*
X114496Y55611D01*
X114492Y55609D01*
X114490Y55608D01*
X114489D01*
X114475Y55605D01*
X114461Y55601D01*
X114431Y55596D01*
X114400Y55591D01*
X114372Y55588D01*
X114358Y55587D01*
X114346Y55586D01*
X114335D01*
X114324Y55585D01*
X114317D01*
X114311D01*
X114307D01*
X114306D01*
X114274Y55586D01*
X114243Y55588D01*
X114215Y55591D01*
X114189Y55596D01*
X114165Y55600D01*
X114144Y55606D01*
X114125Y55611D01*
X114108Y55617D01*
X114093Y55622D01*
X114080Y55629D01*
X114069Y55633D01*
X114061Y55638D01*
X114054Y55643D01*
X114049Y55645D01*
X114046Y55647D01*
X114045Y55648D01*
X114034Y55658D01*
X114024Y55669D01*
X114015Y55681D01*
X114007Y55694D01*
X114001Y55706D01*
X113995Y55718D01*
X113992Y55730D01*
X113988Y55741D01*
X113985Y55752D01*
X113983Y55762D01*
X113981Y55771D01*
X113981Y55779D01*
X113980Y55785D01*
Y55794D01*
X113981Y55819D01*
X113985Y55842D01*
X113992Y55862D01*
X113998Y55878D01*
X114005Y55892D01*
X114008Y55897D01*
X114011Y55902D01*
X114013Y55905D01*
X114015Y55908D01*
X114017Y55909D01*
Y55910D01*
X114032Y55927D01*
X114049Y55940D01*
X114067Y55952D01*
X114084Y55962D01*
X114100Y55969D01*
X114106Y55973D01*
X114113Y55975D01*
X114117Y55976D01*
X114121Y55978D01*
X114123Y55979D01*
X114124D01*
X114138Y55984D01*
X114152Y55988D01*
X114181Y55993D01*
X114212Y55998D01*
X114241Y56000D01*
X114254Y56001D01*
X114266Y56002D01*
X114277D01*
X114287Y56003D01*
X114295D01*
X114301D01*
X114305D01*
X114306D01*
X114324D01*
X114340Y56002D01*
D02*
G37*
G36*
X114633Y55333D02*
X114618Y55324D01*
X114603Y55314D01*
X114588Y55301D01*
X114575Y55290D01*
X114564Y55279D01*
X114555Y55271D01*
X114552Y55267D01*
X114549Y55265D01*
X114548Y55264D01*
X114547Y55263D01*
X114532Y55243D01*
X114517Y55224D01*
X114504Y55205D01*
X114494Y55187D01*
X114484Y55171D01*
X114481Y55165D01*
X114478Y55159D01*
X114475Y55154D01*
X114474Y55151D01*
X114472Y55149D01*
Y55148D01*
X114397D01*
X114402Y55162D01*
X114409Y55176D01*
X114415Y55190D01*
X114422Y55203D01*
X114427Y55214D01*
X114432Y55223D01*
X114435Y55228D01*
X114436Y55229D01*
Y55230D01*
X114447Y55247D01*
X114457Y55262D01*
X114466Y55275D01*
X114474Y55285D01*
X114481Y55294D01*
X114486Y55300D01*
X114490Y55304D01*
X114491Y55305D01*
X113991D01*
Y55384D01*
X114633D01*
Y55333D01*
D02*
G37*
G36*
X114214Y54931D02*
X114200Y54927D01*
X114186Y54922D01*
X114173Y54918D01*
X114161Y54913D01*
X114150Y54908D01*
X114141Y54902D01*
X114131Y54896D01*
X114123Y54890D01*
X114116Y54885D01*
X114110Y54880D01*
X114104Y54875D01*
X114100Y54872D01*
X114097Y54868D01*
X114094Y54865D01*
X114093Y54864D01*
X114092Y54863D01*
X114085Y54854D01*
X114079Y54844D01*
X114069Y54824D01*
X114062Y54804D01*
X114057Y54785D01*
X114054Y54768D01*
X114053Y54762D01*
Y54755D01*
X114052Y54750D01*
Y54743D01*
X114053Y54722D01*
X114056Y54701D01*
X114061Y54683D01*
X114067Y54666D01*
X114072Y54653D01*
X114075Y54648D01*
X114077Y54643D01*
X114079Y54640D01*
X114080Y54637D01*
X114081Y54635D01*
Y54634D01*
X114094Y54616D01*
X114108Y54602D01*
X114124Y54589D01*
X114139Y54578D01*
X114152Y54570D01*
X114163Y54565D01*
X114167Y54563D01*
X114170Y54561D01*
X114172Y54560D01*
X114173D01*
X114197Y54553D01*
X114221Y54547D01*
X114245Y54542D01*
X114267Y54540D01*
X114277Y54539D01*
X114287Y54538D01*
X114295D01*
X114301Y54537D01*
X114307D01*
X114312D01*
X114314D01*
X114315D01*
X114339Y54538D01*
X114361Y54540D01*
X114382Y54543D01*
X114400Y54547D01*
X114416Y54550D01*
X114422Y54552D01*
X114428Y54554D01*
X114433Y54554D01*
X114435Y54555D01*
X114437Y54556D01*
X114438D01*
X114459Y54566D01*
X114479Y54576D01*
X114495Y54587D01*
X114508Y54599D01*
X114520Y54609D01*
X114527Y54617D01*
X114532Y54624D01*
X114533Y54625D01*
Y54626D01*
X114545Y54645D01*
X114555Y54666D01*
X114561Y54687D01*
X114565Y54706D01*
X114568Y54724D01*
X114569Y54731D01*
Y54738D01*
X114569Y54742D01*
Y54750D01*
X114569Y54773D01*
X114565Y54794D01*
X114559Y54811D01*
X114554Y54827D01*
X114547Y54839D01*
X114543Y54848D01*
X114539Y54854D01*
X114537Y54856D01*
X114523Y54871D01*
X114508Y54885D01*
X114491Y54896D01*
X114474Y54905D01*
X114459Y54912D01*
X114452Y54915D01*
X114447Y54917D01*
X114442Y54919D01*
X114438Y54921D01*
X114436Y54922D01*
X114435D01*
X114455Y55005D01*
X114471Y54999D01*
X114486Y54994D01*
X114500Y54986D01*
X114514Y54980D01*
X114526Y54972D01*
X114537Y54964D01*
X114548Y54957D01*
X114557Y54949D01*
X114565Y54942D01*
X114572Y54935D01*
X114579Y54929D01*
X114583Y54924D01*
X114588Y54920D01*
X114591Y54916D01*
X114592Y54914D01*
X114593Y54913D01*
X114601Y54900D01*
X114609Y54887D01*
X114616Y54874D01*
X114621Y54860D01*
X114630Y54833D01*
X114635Y54808D01*
X114638Y54796D01*
X114639Y54786D01*
X114640Y54775D01*
X114641Y54767D01*
X114642Y54761D01*
Y54751D01*
X114640Y54721D01*
X114635Y54691D01*
X114630Y54665D01*
X114626Y54653D01*
X114622Y54642D01*
X114618Y54632D01*
X114615Y54623D01*
X114612Y54615D01*
X114609Y54608D01*
X114606Y54603D01*
X114605Y54600D01*
X114604Y54597D01*
X114603Y54596D01*
X114587Y54571D01*
X114569Y54550D01*
X114550Y54531D01*
X114532Y54516D01*
X114515Y54504D01*
X114508Y54499D01*
X114501Y54495D01*
X114496Y54492D01*
X114493Y54490D01*
X114490Y54489D01*
X114489Y54488D01*
X114460Y54475D01*
X114431Y54466D01*
X114401Y54459D01*
X114374Y54455D01*
X114362Y54453D01*
X114350Y54452D01*
X114341Y54451D01*
X114332D01*
X114325Y54450D01*
X114320D01*
X114316D01*
X114315D01*
X114282Y54452D01*
X114250Y54456D01*
X114221Y54460D01*
X114207Y54464D01*
X114195Y54467D01*
X114184Y54469D01*
X114174Y54473D01*
X114165Y54476D01*
X114157Y54478D01*
X114152Y54480D01*
X114147Y54481D01*
X114144Y54483D01*
X114143D01*
X114116Y54497D01*
X114091Y54513D01*
X114069Y54529D01*
X114061Y54538D01*
X114053Y54545D01*
X114045Y54553D01*
X114039Y54560D01*
X114033Y54566D01*
X114030Y54572D01*
X114026Y54576D01*
X114023Y54579D01*
X114022Y54581D01*
X114021Y54582D01*
X114014Y54595D01*
X114007Y54608D01*
X113997Y54636D01*
X113990Y54664D01*
X113985Y54690D01*
X113983Y54703D01*
X113981Y54714D01*
X113981Y54725D01*
Y54733D01*
X113980Y54740D01*
Y54750D01*
X113981Y54769D01*
X113982Y54787D01*
X113984Y54803D01*
X113988Y54819D01*
X113993Y54834D01*
X113997Y54848D01*
X114002Y54860D01*
X114007Y54873D01*
X114012Y54883D01*
X114017Y54893D01*
X114021Y54900D01*
X114026Y54908D01*
X114030Y54912D01*
X114031Y54917D01*
X114033Y54919D01*
X114034Y54920D01*
X114045Y54933D01*
X114056Y54944D01*
X114069Y54954D01*
X114082Y54964D01*
X114108Y54981D01*
X114134Y54994D01*
X114146Y54999D01*
X114157Y55004D01*
X114167Y55007D01*
X114176Y55010D01*
X114183Y55013D01*
X114189Y55015D01*
X114192Y55016D01*
X114193D01*
X114214Y54931D01*
D02*
G37*
G36*
X124494Y12349D02*
X124512Y12347D01*
X124528Y12345D01*
X124544Y12342D01*
X124559Y12337D01*
X124573Y12332D01*
X124585Y12328D01*
X124598Y12322D01*
X124608Y12318D01*
X124618Y12313D01*
X124625Y12308D01*
X124633Y12304D01*
X124637Y12300D01*
X124642Y12298D01*
X124644Y12296D01*
X124645Y12295D01*
X124658Y12284D01*
X124669Y12273D01*
X124679Y12260D01*
X124689Y12247D01*
X124706Y12221D01*
X124719Y12196D01*
X124724Y12184D01*
X124729Y12172D01*
X124732Y12162D01*
X124735Y12154D01*
X124738Y12147D01*
X124740Y12141D01*
X124741Y12137D01*
Y12136D01*
X124656Y12115D01*
X124652Y12130D01*
X124647Y12144D01*
X124643Y12157D01*
X124638Y12169D01*
X124633Y12180D01*
X124627Y12189D01*
X124621Y12198D01*
X124615Y12207D01*
X124610Y12214D01*
X124605Y12220D01*
X124600Y12225D01*
X124597Y12230D01*
X124593Y12233D01*
X124590Y12235D01*
X124589Y12236D01*
X124588Y12237D01*
X124579Y12245D01*
X124569Y12250D01*
X124549Y12260D01*
X124529Y12268D01*
X124510Y12272D01*
X124493Y12276D01*
X124487Y12277D01*
X124480D01*
X124475Y12278D01*
X124468D01*
X124447Y12277D01*
X124426Y12273D01*
X124408Y12269D01*
X124391Y12263D01*
X124378Y12258D01*
X124373Y12255D01*
X124368Y12253D01*
X124365Y12251D01*
X124362Y12249D01*
X124360Y12248D01*
X124359D01*
X124341Y12235D01*
X124327Y12221D01*
X124314Y12206D01*
X124303Y12191D01*
X124295Y12178D01*
X124290Y12167D01*
X124288Y12162D01*
X124286Y12160D01*
X124285Y12158D01*
Y12157D01*
X124278Y12133D01*
X124272Y12109D01*
X124267Y12085D01*
X124265Y12062D01*
X124264Y12052D01*
X124263Y12043D01*
Y12035D01*
X124262Y12028D01*
Y12023D01*
Y12018D01*
Y12015D01*
Y12014D01*
X124263Y11990D01*
X124265Y11968D01*
X124268Y11948D01*
X124272Y11929D01*
X124275Y11914D01*
X124277Y11907D01*
X124279Y11902D01*
X124279Y11897D01*
X124280Y11894D01*
X124281Y11892D01*
Y11891D01*
X124291Y11870D01*
X124301Y11851D01*
X124312Y11835D01*
X124324Y11821D01*
X124334Y11810D01*
X124342Y11803D01*
X124349Y11798D01*
X124350Y11796D01*
X124351D01*
X124370Y11784D01*
X124391Y11775D01*
X124412Y11768D01*
X124431Y11765D01*
X124449Y11762D01*
X124456Y11761D01*
X124463D01*
X124467Y11760D01*
X124475D01*
X124498Y11761D01*
X124519Y11765D01*
X124536Y11770D01*
X124552Y11776D01*
X124564Y11782D01*
X124573Y11787D01*
X124579Y11791D01*
X124581Y11792D01*
X124596Y11806D01*
X124610Y11822D01*
X124621Y11839D01*
X124630Y11855D01*
X124637Y11870D01*
X124640Y11878D01*
X124642Y11883D01*
X124644Y11888D01*
X124646Y11891D01*
X124647Y11893D01*
Y11894D01*
X124730Y11875D01*
X124724Y11858D01*
X124719Y11843D01*
X124711Y11829D01*
X124705Y11816D01*
X124697Y11804D01*
X124689Y11792D01*
X124682Y11781D01*
X124674Y11772D01*
X124667Y11765D01*
X124660Y11757D01*
X124654Y11751D01*
X124649Y11746D01*
X124645Y11742D01*
X124641Y11739D01*
X124639Y11738D01*
X124638Y11737D01*
X124625Y11729D01*
X124612Y11720D01*
X124599Y11714D01*
X124585Y11708D01*
X124558Y11700D01*
X124533Y11694D01*
X124521Y11692D01*
X124511Y11691D01*
X124500Y11690D01*
X124492Y11689D01*
X124486Y11688D01*
X124476D01*
X124446Y11690D01*
X124416Y11694D01*
X124390Y11700D01*
X124378Y11704D01*
X124367Y11707D01*
X124357Y11711D01*
X124348Y11715D01*
X124340Y11718D01*
X124333Y11720D01*
X124328Y11723D01*
X124325Y11725D01*
X124322Y11726D01*
X124321Y11727D01*
X124296Y11743D01*
X124275Y11761D01*
X124256Y11780D01*
X124241Y11798D01*
X124229Y11815D01*
X124224Y11822D01*
X124220Y11829D01*
X124217Y11833D01*
X124215Y11837D01*
X124214Y11840D01*
X124213Y11841D01*
X124200Y11869D01*
X124191Y11899D01*
X124184Y11928D01*
X124180Y11955D01*
X124178Y11967D01*
X124177Y11979D01*
X124176Y11989D01*
Y11998D01*
X124175Y12004D01*
Y12010D01*
Y12013D01*
Y12014D01*
X124177Y12048D01*
X124181Y12080D01*
X124185Y12109D01*
X124189Y12123D01*
X124192Y12135D01*
X124194Y12146D01*
X124198Y12156D01*
X124201Y12165D01*
X124203Y12172D01*
X124205Y12178D01*
X124206Y12183D01*
X124208Y12185D01*
Y12186D01*
X124222Y12214D01*
X124238Y12239D01*
X124254Y12260D01*
X124263Y12269D01*
X124270Y12277D01*
X124278Y12284D01*
X124285Y12291D01*
X124291Y12296D01*
X124297Y12300D01*
X124301Y12304D01*
X124304Y12307D01*
X124306Y12307D01*
X124307Y12308D01*
X124320Y12316D01*
X124333Y12322D01*
X124361Y12332D01*
X124389Y12340D01*
X124415Y12344D01*
X124428Y12346D01*
X124439Y12348D01*
X124450Y12349D01*
X124458D01*
X124465Y12350D01*
X124475D01*
X124494Y12349D01*
D02*
G37*
G36*
X125109Y11696D02*
X125058D01*
X125049Y11712D01*
X125039Y11727D01*
X125026Y11742D01*
X125015Y11755D01*
X125004Y11766D01*
X124996Y11775D01*
X124992Y11778D01*
X124990Y11780D01*
X124989Y11781D01*
X124988Y11782D01*
X124968Y11798D01*
X124949Y11813D01*
X124930Y11826D01*
X124912Y11836D01*
X124896Y11845D01*
X124890Y11849D01*
X124884Y11852D01*
X124880Y11854D01*
X124876Y11855D01*
X124874Y11857D01*
X124873D01*
Y11933D01*
X124887Y11927D01*
X124901Y11921D01*
X124915Y11915D01*
X124928Y11908D01*
X124939Y11903D01*
X124948Y11898D01*
X124953Y11894D01*
X124954Y11893D01*
X124955D01*
X124972Y11883D01*
X124987Y11873D01*
X125000Y11864D01*
X125010Y11855D01*
X125019Y11849D01*
X125025Y11843D01*
X125029Y11840D01*
X125030Y11839D01*
Y12339D01*
X125109D01*
Y11696D01*
D02*
G37*
G36*
X125724Y12263D02*
X125408D01*
X125419Y12247D01*
X125425Y12241D01*
X125430Y12234D01*
X125434Y12229D01*
X125438Y12225D01*
X125441Y12222D01*
X125442Y12221D01*
X125446Y12217D01*
X125452Y12212D01*
X125465Y12200D01*
X125480Y12186D01*
X125495Y12172D01*
X125510Y12160D01*
X125517Y12155D01*
X125522Y12149D01*
X125527Y12146D01*
X125530Y12143D01*
X125532Y12141D01*
X125533Y12140D01*
X125548Y12127D01*
X125563Y12115D01*
X125576Y12103D01*
X125588Y12093D01*
X125599Y12083D01*
X125608Y12074D01*
X125617Y12065D01*
X125625Y12058D01*
X125632Y12050D01*
X125638Y12045D01*
X125642Y12040D01*
X125647Y12036D01*
X125651Y12030D01*
X125653Y12028D01*
X125666Y12013D01*
X125677Y11999D01*
X125687Y11985D01*
X125694Y11974D01*
X125700Y11964D01*
X125703Y11956D01*
X125705Y11952D01*
X125706Y11950D01*
X125712Y11936D01*
X125715Y11922D01*
X125719Y11909D01*
X125721Y11898D01*
X125722Y11888D01*
X125723Y11880D01*
Y11876D01*
Y11874D01*
X125722Y11860D01*
X125720Y11847D01*
X125718Y11834D01*
X125714Y11823D01*
X125705Y11801D01*
X125696Y11783D01*
X125690Y11775D01*
X125686Y11768D01*
X125681Y11762D01*
X125676Y11757D01*
X125673Y11754D01*
X125671Y11750D01*
X125669Y11749D01*
X125668Y11748D01*
X125658Y11739D01*
X125647Y11731D01*
X125635Y11724D01*
X125623Y11719D01*
X125599Y11709D01*
X125575Y11703D01*
X125565Y11701D01*
X125554Y11699D01*
X125545Y11698D01*
X125538Y11697D01*
X125531Y11696D01*
X125522D01*
X125505Y11697D01*
X125490Y11698D01*
X125475Y11701D01*
X125461Y11704D01*
X125448Y11707D01*
X125436Y11711D01*
X125425Y11716D01*
X125415Y11720D01*
X125406Y11725D01*
X125398Y11730D01*
X125392Y11733D01*
X125386Y11737D01*
X125382Y11740D01*
X125379Y11743D01*
X125377Y11743D01*
X125376Y11744D01*
X125367Y11754D01*
X125358Y11764D01*
X125350Y11775D01*
X125344Y11786D01*
X125333Y11808D01*
X125325Y11830D01*
X125322Y11841D01*
X125320Y11851D01*
X125318Y11859D01*
X125316Y11866D01*
X125315Y11873D01*
Y11878D01*
X125314Y11880D01*
Y11881D01*
X125394Y11890D01*
X125396Y11868D01*
X125400Y11850D01*
X125406Y11833D01*
X125412Y11820D01*
X125418Y11809D01*
X125423Y11802D01*
X125427Y11797D01*
X125429Y11795D01*
X125443Y11784D01*
X125457Y11776D01*
X125473Y11769D01*
X125487Y11766D01*
X125500Y11763D01*
X125511Y11762D01*
X125515Y11761D01*
X125520D01*
X125540Y11762D01*
X125557Y11766D01*
X125572Y11771D01*
X125585Y11777D01*
X125595Y11783D01*
X125602Y11788D01*
X125606Y11792D01*
X125608Y11793D01*
X125619Y11806D01*
X125627Y11819D01*
X125634Y11832D01*
X125638Y11845D01*
X125640Y11855D01*
X125641Y11865D01*
X125642Y11870D01*
Y11871D01*
Y11872D01*
X125640Y11889D01*
X125637Y11906D01*
X125630Y11922D01*
X125624Y11937D01*
X125616Y11949D01*
X125610Y11959D01*
X125608Y11963D01*
X125606Y11965D01*
X125604Y11966D01*
Y11967D01*
X125597Y11977D01*
X125588Y11988D01*
X125578Y11999D01*
X125566Y12010D01*
X125543Y12032D01*
X125520Y12054D01*
X125508Y12064D01*
X125498Y12074D01*
X125488Y12082D01*
X125480Y12089D01*
X125473Y12095D01*
X125468Y12099D01*
X125464Y12102D01*
X125463Y12103D01*
X125440Y12123D01*
X125419Y12141D01*
X125401Y12158D01*
X125387Y12172D01*
X125375Y12184D01*
X125367Y12192D01*
X125362Y12197D01*
X125360Y12198D01*
Y12199D01*
X125347Y12215D01*
X125337Y12230D01*
X125328Y12245D01*
X125321Y12258D01*
X125315Y12269D01*
X125311Y12277D01*
X125309Y12283D01*
X125308Y12283D01*
Y12284D01*
X125305Y12295D01*
X125303Y12304D01*
X125301Y12313D01*
X125300Y12321D01*
X125299Y12329D01*
Y12334D01*
Y12338D01*
Y12339D01*
X125724D01*
Y12263D01*
D02*
G37*
G36*
X70336Y5135D02*
X70366Y5130D01*
X70392Y5125D01*
X70404Y5121D01*
X70415Y5118D01*
X70425Y5114D01*
X70434Y5110D01*
X70441Y5107D01*
X70449Y5105D01*
X70453Y5102D01*
X70457Y5100D01*
X70460Y5099D01*
X70461Y5098D01*
X70486Y5082D01*
X70507Y5064D01*
X70526Y5045D01*
X70541Y5027D01*
X70553Y5010D01*
X70558Y5003D01*
X70562Y4996D01*
X70565Y4992D01*
X70567Y4988D01*
X70568Y4985D01*
X70569Y4984D01*
X70582Y4956D01*
X70591Y4926D01*
X70598Y4897D01*
X70602Y4870D01*
X70604Y4858D01*
X70605Y4846D01*
X70606Y4836D01*
Y4827D01*
X70607Y4821D01*
Y4815D01*
Y4812D01*
Y4811D01*
X70605Y4777D01*
X70601Y4745D01*
X70597Y4716D01*
X70593Y4702D01*
X70590Y4690D01*
X70588Y4679D01*
X70584Y4669D01*
X70581Y4660D01*
X70579Y4653D01*
X70576Y4647D01*
X70576Y4642D01*
X70574Y4640D01*
Y4639D01*
X70560Y4611D01*
X70544Y4586D01*
X70527Y4565D01*
X70519Y4556D01*
X70512Y4548D01*
X70504Y4541D01*
X70497Y4534D01*
X70490Y4529D01*
X70485Y4525D01*
X70481Y4521D01*
X70478Y4518D01*
X70476Y4518D01*
X70475Y4517D01*
X70462Y4509D01*
X70449Y4503D01*
X70421Y4493D01*
X70393Y4485D01*
X70367Y4481D01*
X70354Y4479D01*
X70343Y4477D01*
X70332Y4476D01*
X70324D01*
X70317Y4475D01*
X70306D01*
X70288Y4476D01*
X70270Y4478D01*
X70254Y4480D01*
X70238Y4483D01*
X70223Y4488D01*
X70209Y4493D01*
X70196Y4497D01*
X70184Y4503D01*
X70174Y4507D01*
X70164Y4512D01*
X70157Y4517D01*
X70149Y4521D01*
X70145Y4525D01*
X70140Y4527D01*
X70138Y4529D01*
X70137Y4530D01*
X70124Y4541D01*
X70113Y4552D01*
X70103Y4565D01*
X70093Y4578D01*
X70076Y4603D01*
X70063Y4629D01*
X70058Y4641D01*
X70053Y4653D01*
X70049Y4663D01*
X70047Y4671D01*
X70044Y4678D01*
X70042Y4684D01*
X70041Y4688D01*
Y4689D01*
X70126Y4710D01*
X70130Y4695D01*
X70135Y4681D01*
X70139Y4668D01*
X70144Y4656D01*
X70149Y4645D01*
X70155Y4636D01*
X70161Y4627D01*
X70167Y4618D01*
X70171Y4611D01*
X70177Y4605D01*
X70182Y4600D01*
X70185Y4595D01*
X70189Y4592D01*
X70192Y4590D01*
X70193Y4589D01*
X70194Y4588D01*
X70203Y4580D01*
X70213Y4575D01*
X70233Y4565D01*
X70253Y4557D01*
X70272Y4553D01*
X70289Y4549D01*
X70295Y4548D01*
X70302D01*
X70307Y4547D01*
X70314D01*
X70335Y4548D01*
X70355Y4552D01*
X70374Y4556D01*
X70391Y4562D01*
X70404Y4567D01*
X70409Y4570D01*
X70414Y4572D01*
X70417Y4574D01*
X70420Y4576D01*
X70422Y4577D01*
X70423D01*
X70441Y4590D01*
X70455Y4603D01*
X70468Y4619D01*
X70478Y4634D01*
X70487Y4647D01*
X70492Y4658D01*
X70494Y4663D01*
X70496Y4665D01*
X70497Y4667D01*
Y4668D01*
X70504Y4692D01*
X70510Y4716D01*
X70515Y4740D01*
X70517Y4763D01*
X70518Y4773D01*
X70519Y4782D01*
Y4790D01*
X70520Y4797D01*
Y4802D01*
Y4807D01*
Y4810D01*
Y4811D01*
X70519Y4835D01*
X70517Y4857D01*
X70514Y4877D01*
X70510Y4896D01*
X70507Y4911D01*
X70505Y4918D01*
X70503Y4923D01*
X70502Y4928D01*
X70502Y4931D01*
X70501Y4933D01*
Y4934D01*
X70491Y4955D01*
X70481Y4974D01*
X70470Y4990D01*
X70458Y5004D01*
X70448Y5015D01*
X70440Y5022D01*
X70433Y5027D01*
X70432Y5029D01*
X70431D01*
X70412Y5041D01*
X70391Y5050D01*
X70370Y5057D01*
X70351Y5060D01*
X70333Y5063D01*
X70326Y5064D01*
X70319D01*
X70315Y5065D01*
X70307D01*
X70284Y5064D01*
X70263Y5060D01*
X70245Y5055D01*
X70230Y5049D01*
X70218Y5043D01*
X70208Y5038D01*
X70203Y5034D01*
X70201Y5032D01*
X70186Y5019D01*
X70172Y5003D01*
X70161Y4986D01*
X70152Y4970D01*
X70145Y4955D01*
X70142Y4947D01*
X70140Y4942D01*
X70138Y4937D01*
X70136Y4934D01*
X70135Y4932D01*
Y4931D01*
X70052Y4950D01*
X70058Y4967D01*
X70063Y4982D01*
X70071Y4996D01*
X70077Y5009D01*
X70085Y5021D01*
X70093Y5032D01*
X70100Y5044D01*
X70108Y5053D01*
X70115Y5060D01*
X70122Y5068D01*
X70128Y5074D01*
X70133Y5079D01*
X70137Y5083D01*
X70141Y5086D01*
X70143Y5087D01*
X70144Y5088D01*
X70157Y5096D01*
X70170Y5105D01*
X70183Y5111D01*
X70196Y5117D01*
X70224Y5125D01*
X70249Y5130D01*
X70261Y5133D01*
X70271Y5134D01*
X70282Y5135D01*
X70290Y5136D01*
X70296Y5137D01*
X70306D01*
X70336Y5135D01*
D02*
G37*
G36*
X69776Y5128D02*
X69791Y5127D01*
X69816Y5121D01*
X69828Y5118D01*
X69840Y5114D01*
X69850Y5109D01*
X69859Y5105D01*
X69866Y5100D01*
X69874Y5095D01*
X69880Y5092D01*
X69885Y5088D01*
X69889Y5085D01*
X69891Y5082D01*
X69893Y5082D01*
X69894Y5081D01*
X69902Y5071D01*
X69911Y5062D01*
X69917Y5052D01*
X69923Y5042D01*
X69932Y5022D01*
X69938Y5004D01*
X69941Y4988D01*
X69942Y4981D01*
X69943Y4975D01*
X69944Y4970D01*
Y4966D01*
Y4964D01*
Y4963D01*
X69943Y4947D01*
X69940Y4931D01*
X69937Y4917D01*
X69932Y4905D01*
X69928Y4896D01*
X69925Y4888D01*
X69922Y4885D01*
X69921Y4883D01*
X69911Y4872D01*
X69900Y4861D01*
X69888Y4852D01*
X69876Y4845D01*
X69865Y4839D01*
X69856Y4836D01*
X69853Y4834D01*
X69850Y4833D01*
X69849Y4832D01*
X69848D01*
X69869Y4825D01*
X69887Y4817D01*
X69902Y4807D01*
X69915Y4798D01*
X69926Y4788D01*
X69933Y4781D01*
X69937Y4776D01*
X69938Y4775D01*
Y4775D01*
X69949Y4758D01*
X69957Y4740D01*
X69963Y4724D01*
X69966Y4707D01*
X69968Y4692D01*
X69969Y4686D01*
Y4680D01*
X69970Y4677D01*
Y4673D01*
Y4671D01*
Y4670D01*
X69969Y4655D01*
X69967Y4640D01*
X69964Y4627D01*
X69961Y4613D01*
X69951Y4590D01*
X69947Y4579D01*
X69941Y4569D01*
X69936Y4560D01*
X69931Y4553D01*
X69926Y4546D01*
X69922Y4541D01*
X69918Y4536D01*
X69915Y4533D01*
X69914Y4531D01*
X69913Y4530D01*
X69902Y4520D01*
X69890Y4512D01*
X69877Y4505D01*
X69864Y4498D01*
X69852Y4493D01*
X69839Y4489D01*
X69814Y4482D01*
X69803Y4480D01*
X69792Y4478D01*
X69783Y4477D01*
X69775Y4476D01*
X69768Y4475D01*
X69759D01*
X69742Y4476D01*
X69726Y4478D01*
X69710Y4481D01*
X69695Y4483D01*
X69682Y4488D01*
X69669Y4493D01*
X69657Y4497D01*
X69647Y4503D01*
X69638Y4508D01*
X69630Y4513D01*
X69623Y4518D01*
X69617Y4522D01*
X69612Y4525D01*
X69609Y4528D01*
X69608Y4530D01*
X69607Y4530D01*
X69596Y4542D01*
X69587Y4553D01*
X69580Y4564D01*
X69573Y4576D01*
X69567Y4587D01*
X69562Y4599D01*
X69556Y4620D01*
X69553Y4630D01*
X69551Y4640D01*
X69550Y4648D01*
X69549Y4654D01*
X69548Y4660D01*
Y4665D01*
Y4667D01*
Y4668D01*
X69549Y4689D01*
X69553Y4709D01*
X69559Y4726D01*
X69564Y4741D01*
X69570Y4753D01*
X69575Y4763D01*
X69579Y4768D01*
X69580Y4769D01*
Y4770D01*
X69593Y4785D01*
X69607Y4798D01*
X69621Y4808D01*
X69635Y4817D01*
X69648Y4824D01*
X69659Y4828D01*
X69663Y4830D01*
X69666Y4831D01*
X69668Y4832D01*
X69669D01*
X69652Y4839D01*
X69638Y4848D01*
X69626Y4856D01*
X69616Y4864D01*
X69608Y4872D01*
X69603Y4877D01*
X69599Y4881D01*
X69598Y4883D01*
X69590Y4896D01*
X69584Y4909D01*
X69580Y4922D01*
X69577Y4935D01*
X69575Y4945D01*
X69574Y4953D01*
Y4959D01*
Y4959D01*
Y4960D01*
X69575Y4973D01*
X69576Y4985D01*
X69583Y5008D01*
X69591Y5029D01*
X69600Y5046D01*
X69609Y5060D01*
X69614Y5066D01*
X69618Y5071D01*
X69621Y5075D01*
X69624Y5078D01*
X69625Y5079D01*
X69626Y5080D01*
X69636Y5088D01*
X69646Y5096D01*
X69657Y5103D01*
X69669Y5108D01*
X69691Y5117D01*
X69713Y5122D01*
X69722Y5125D01*
X69731Y5126D01*
X69740Y5127D01*
X69747Y5128D01*
X69753Y5129D01*
X69761D01*
X69776Y5128D01*
D02*
G37*
G36*
X80738Y14694D02*
X80662D01*
Y15008D01*
X80635Y14986D01*
X80607Y14964D01*
X80579Y14946D01*
X80552Y14928D01*
X80540Y14921D01*
X80529Y14914D01*
X80519Y14908D01*
X80511Y14903D01*
X80503Y14900D01*
X80499Y14897D01*
X80495Y14895D01*
X80494Y14894D01*
X80457Y14875D01*
X80420Y14859D01*
X80385Y14845D01*
X80369Y14839D01*
X80354Y14834D01*
X80340Y14828D01*
X80327Y14825D01*
X80316Y14821D01*
X80306Y14818D01*
X80298Y14815D01*
X80292Y14814D01*
X80289Y14813D01*
X80288D01*
X80250Y14803D01*
X80231Y14800D01*
X80215Y14797D01*
X80199Y14794D01*
X80183Y14791D01*
X80170Y14789D01*
X80158Y14788D01*
X80146Y14787D01*
X80136Y14786D01*
X80127Y14785D01*
X80120D01*
X80114Y14784D01*
X80110D01*
X80108D01*
X80107D01*
Y14864D01*
X80142Y14867D01*
X80174Y14872D01*
X80204Y14876D01*
X80218Y14879D01*
X80231Y14882D01*
X80242Y14884D01*
X80252Y14887D01*
X80261Y14888D01*
X80268Y14890D01*
X80274Y14892D01*
X80279Y14893D01*
X80281Y14894D01*
X80282D01*
X80325Y14908D01*
X80365Y14923D01*
X80384Y14930D01*
X80403Y14937D01*
X80419Y14946D01*
X80436Y14953D01*
X80451Y14960D01*
X80464Y14966D01*
X80475Y14972D01*
X80485Y14976D01*
X80493Y14981D01*
X80499Y14984D01*
X80502Y14986D01*
X80503Y14986D01*
X80523Y14998D01*
X80542Y15009D01*
X80560Y15020D01*
X80576Y15031D01*
X80591Y15041D01*
X80606Y15051D01*
X80619Y15061D01*
X80630Y15070D01*
X80641Y15078D01*
X80650Y15085D01*
X80658Y15093D01*
X80664Y15098D01*
X80670Y15102D01*
X80673Y15106D01*
X80675Y15108D01*
X80676Y15108D01*
X80738D01*
Y14694D01*
D02*
G37*
G36*
X80330Y14532D02*
X80316Y14528D01*
X80302Y14523D01*
X80289Y14519D01*
X80277Y14514D01*
X80266Y14508D01*
X80256Y14503D01*
X80247Y14496D01*
X80239Y14491D01*
X80231Y14486D01*
X80226Y14481D01*
X80220Y14476D01*
X80216Y14472D01*
X80213Y14469D01*
X80210Y14466D01*
X80209Y14465D01*
X80208Y14464D01*
X80201Y14455D01*
X80195Y14445D01*
X80185Y14424D01*
X80178Y14405D01*
X80173Y14385D01*
X80170Y14369D01*
X80169Y14362D01*
Y14356D01*
X80168Y14350D01*
Y14344D01*
X80169Y14323D01*
X80172Y14302D01*
X80177Y14284D01*
X80182Y14267D01*
X80188Y14254D01*
X80191Y14249D01*
X80193Y14244D01*
X80194Y14240D01*
X80196Y14238D01*
X80197Y14236D01*
Y14235D01*
X80210Y14217D01*
X80224Y14202D01*
X80240Y14189D01*
X80255Y14179D01*
X80268Y14171D01*
X80279Y14165D01*
X80283Y14164D01*
X80286Y14162D01*
X80288Y14161D01*
X80289D01*
X80313Y14153D01*
X80337Y14148D01*
X80361Y14143D01*
X80383Y14140D01*
X80393Y14140D01*
X80403Y14139D01*
X80411D01*
X80417Y14138D01*
X80423D01*
X80427D01*
X80430D01*
X80431D01*
X80455Y14139D01*
X80477Y14140D01*
X80498Y14144D01*
X80516Y14148D01*
X80532Y14151D01*
X80538Y14152D01*
X80544Y14154D01*
X80549Y14155D01*
X80551Y14156D01*
X80553Y14157D01*
X80554D01*
X80575Y14166D01*
X80595Y14177D01*
X80611Y14188D01*
X80624Y14200D01*
X80635Y14210D01*
X80643Y14218D01*
X80648Y14225D01*
X80649Y14226D01*
Y14226D01*
X80661Y14246D01*
X80671Y14267D01*
X80677Y14287D01*
X80681Y14307D01*
X80684Y14324D01*
X80685Y14332D01*
Y14338D01*
X80685Y14343D01*
Y14350D01*
X80685Y14373D01*
X80681Y14395D01*
X80675Y14412D01*
X80670Y14428D01*
X80663Y14440D01*
X80659Y14449D01*
X80655Y14455D01*
X80653Y14457D01*
X80639Y14471D01*
X80623Y14485D01*
X80607Y14496D01*
X80590Y14506D01*
X80575Y14513D01*
X80568Y14516D01*
X80562Y14518D01*
X80558Y14520D01*
X80554Y14521D01*
X80552Y14522D01*
X80551D01*
X80571Y14606D01*
X80587Y14600D01*
X80602Y14594D01*
X80616Y14587D01*
X80630Y14581D01*
X80642Y14573D01*
X80653Y14565D01*
X80664Y14557D01*
X80673Y14550D01*
X80681Y14543D01*
X80688Y14536D01*
X80695Y14530D01*
X80699Y14525D01*
X80704Y14520D01*
X80707Y14517D01*
X80708Y14515D01*
X80709Y14514D01*
X80717Y14501D01*
X80725Y14488D01*
X80732Y14475D01*
X80737Y14461D01*
X80746Y14434D01*
X80751Y14409D01*
X80754Y14397D01*
X80755Y14386D01*
X80756Y14376D01*
X80757Y14368D01*
X80758Y14361D01*
Y14352D01*
X80756Y14322D01*
X80751Y14292D01*
X80746Y14266D01*
X80742Y14254D01*
X80738Y14243D01*
X80734Y14233D01*
X80731Y14224D01*
X80728Y14216D01*
X80725Y14209D01*
X80722Y14204D01*
X80721Y14201D01*
X80720Y14198D01*
X80719Y14197D01*
X80703Y14172D01*
X80685Y14151D01*
X80666Y14132D01*
X80648Y14116D01*
X80631Y14104D01*
X80623Y14100D01*
X80617Y14096D01*
X80612Y14092D01*
X80609Y14091D01*
X80606Y14090D01*
X80605Y14089D01*
X80576Y14076D01*
X80547Y14066D01*
X80517Y14060D01*
X80490Y14055D01*
X80478Y14054D01*
X80466Y14053D01*
X80457Y14052D01*
X80448D01*
X80441Y14051D01*
X80436D01*
X80432D01*
X80431D01*
X80398Y14053D01*
X80366Y14056D01*
X80337Y14061D01*
X80323Y14065D01*
X80311Y14067D01*
X80300Y14070D01*
X80290Y14074D01*
X80280Y14077D01*
X80273Y14078D01*
X80268Y14081D01*
X80263Y14082D01*
X80260Y14084D01*
X80259D01*
X80231Y14098D01*
X80206Y14114D01*
X80185Y14130D01*
X80177Y14139D01*
X80169Y14146D01*
X80161Y14153D01*
X80155Y14161D01*
X80149Y14167D01*
X80145Y14173D01*
X80142Y14177D01*
X80139Y14180D01*
X80138Y14182D01*
X80137Y14183D01*
X80130Y14196D01*
X80123Y14209D01*
X80113Y14237D01*
X80106Y14264D01*
X80101Y14291D01*
X80099Y14304D01*
X80097Y14315D01*
X80096Y14325D01*
Y14334D01*
X80096Y14341D01*
Y14351D01*
X80096Y14370D01*
X80098Y14387D01*
X80100Y14404D01*
X80104Y14420D01*
X80108Y14434D01*
X80113Y14448D01*
X80118Y14461D01*
X80123Y14473D01*
X80128Y14483D01*
X80133Y14494D01*
X80137Y14501D01*
X80142Y14508D01*
X80145Y14513D01*
X80147Y14518D01*
X80149Y14520D01*
X80150Y14520D01*
X80161Y14533D01*
X80172Y14544D01*
X80185Y14555D01*
X80198Y14565D01*
X80224Y14581D01*
X80250Y14594D01*
X80262Y14600D01*
X80273Y14605D01*
X80283Y14608D01*
X80292Y14611D01*
X80299Y14614D01*
X80304Y14616D01*
X80308Y14617D01*
X80309D01*
X80330Y14532D01*
D02*
G37*
G36*
X69980Y7613D02*
X69906Y7603D01*
X69900Y7613D01*
X69891Y7622D01*
X69884Y7630D01*
X69877Y7637D01*
X69869Y7641D01*
X69864Y7646D01*
X69860Y7648D01*
X69859Y7649D01*
X69847Y7654D01*
X69835Y7659D01*
X69824Y7661D01*
X69813Y7664D01*
X69804Y7665D01*
X69796Y7666D01*
X69779D01*
X69767Y7664D01*
X69748Y7660D01*
X69731Y7653D01*
X69717Y7647D01*
X69706Y7639D01*
X69697Y7633D01*
X69693Y7628D01*
X69691Y7627D01*
Y7626D01*
X69678Y7611D01*
X69669Y7594D01*
X69662Y7576D01*
X69657Y7559D01*
X69655Y7544D01*
X69654Y7538D01*
Y7532D01*
X69653Y7527D01*
Y7524D01*
Y7522D01*
Y7521D01*
Y7508D01*
X69655Y7496D01*
X69659Y7473D01*
X69666Y7453D01*
X69672Y7438D01*
X69680Y7425D01*
X69686Y7415D01*
X69689Y7412D01*
X69691Y7409D01*
X69692Y7408D01*
X69693Y7407D01*
X69700Y7400D01*
X69707Y7393D01*
X69724Y7382D01*
X69740Y7375D01*
X69755Y7370D01*
X69768Y7367D01*
X69780Y7366D01*
X69783Y7365D01*
X69789D01*
X69806Y7366D01*
X69822Y7369D01*
X69836Y7374D01*
X69847Y7379D01*
X69857Y7385D01*
X69865Y7390D01*
X69868Y7393D01*
X69870Y7394D01*
X69881Y7407D01*
X69890Y7421D01*
X69898Y7437D01*
X69903Y7451D01*
X69907Y7465D01*
X69910Y7475D01*
X69911Y7479D01*
X69912Y7482D01*
Y7484D01*
Y7485D01*
X69994Y7478D01*
X69992Y7464D01*
X69989Y7450D01*
X69981Y7424D01*
X69971Y7402D01*
X69965Y7392D01*
X69960Y7383D01*
X69955Y7375D01*
X69950Y7367D01*
X69945Y7362D01*
X69940Y7357D01*
X69937Y7354D01*
X69935Y7350D01*
X69933Y7349D01*
X69932Y7348D01*
X69921Y7340D01*
X69910Y7332D01*
X69898Y7326D01*
X69886Y7320D01*
X69863Y7312D01*
X69840Y7306D01*
X69829Y7304D01*
X69819Y7303D01*
X69811Y7302D01*
X69804Y7301D01*
X69797Y7300D01*
X69789D01*
X69769Y7301D01*
X69751Y7304D01*
X69733Y7307D01*
X69718Y7312D01*
X69703Y7318D01*
X69689Y7325D01*
X69676Y7331D01*
X69665Y7339D01*
X69655Y7346D01*
X69645Y7353D01*
X69638Y7360D01*
X69632Y7366D01*
X69627Y7370D01*
X69623Y7374D01*
X69621Y7377D01*
X69620Y7378D01*
X69611Y7390D01*
X69604Y7403D01*
X69596Y7415D01*
X69591Y7428D01*
X69582Y7453D01*
X69576Y7477D01*
X69574Y7487D01*
X69572Y7497D01*
X69571Y7505D01*
X69571Y7513D01*
X69570Y7519D01*
Y7524D01*
Y7527D01*
Y7527D01*
X69571Y7544D01*
X69572Y7560D01*
X69575Y7576D01*
X69579Y7589D01*
X69584Y7602D01*
X69588Y7615D01*
X69594Y7626D01*
X69598Y7637D01*
X69604Y7646D01*
X69609Y7654D01*
X69614Y7661D01*
X69619Y7667D01*
X69622Y7672D01*
X69625Y7674D01*
X69627Y7676D01*
X69628Y7677D01*
X69639Y7687D01*
X69650Y7697D01*
X69662Y7704D01*
X69674Y7710D01*
X69686Y7717D01*
X69698Y7722D01*
X69720Y7728D01*
X69731Y7731D01*
X69740Y7733D01*
X69748Y7734D01*
X69755Y7735D01*
X69761Y7735D01*
X69781D01*
X69792Y7734D01*
X69815Y7729D01*
X69835Y7723D01*
X69853Y7715D01*
X69868Y7708D01*
X69875Y7704D01*
X69880Y7701D01*
X69885Y7698D01*
X69888Y7697D01*
X69890Y7696D01*
X69890Y7695D01*
X69856Y7868D01*
X69600D01*
Y7943D01*
X69918D01*
X69980Y7613D01*
D02*
G37*
G36*
X70361Y7960D02*
X70391Y7956D01*
X70417Y7950D01*
X70429Y7946D01*
X70440Y7943D01*
X70450Y7939D01*
X70459Y7935D01*
X70466Y7932D01*
X70474Y7930D01*
X70478Y7927D01*
X70482Y7925D01*
X70485Y7924D01*
X70486Y7923D01*
X70511Y7907D01*
X70532Y7889D01*
X70551Y7870D01*
X70566Y7852D01*
X70578Y7835D01*
X70583Y7828D01*
X70587Y7821D01*
X70590Y7817D01*
X70592Y7813D01*
X70593Y7810D01*
X70594Y7809D01*
X70607Y7781D01*
X70616Y7751D01*
X70623Y7722D01*
X70627Y7695D01*
X70629Y7683D01*
X70630Y7671D01*
X70631Y7661D01*
Y7652D01*
X70632Y7646D01*
Y7640D01*
Y7637D01*
Y7636D01*
X70630Y7602D01*
X70626Y7570D01*
X70622Y7541D01*
X70618Y7527D01*
X70615Y7515D01*
X70613Y7504D01*
X70609Y7494D01*
X70606Y7485D01*
X70604Y7477D01*
X70601Y7472D01*
X70601Y7467D01*
X70599Y7465D01*
Y7464D01*
X70585Y7436D01*
X70569Y7411D01*
X70552Y7390D01*
X70544Y7381D01*
X70537Y7373D01*
X70529Y7366D01*
X70522Y7359D01*
X70515Y7354D01*
X70510Y7350D01*
X70506Y7346D01*
X70503Y7343D01*
X70501Y7343D01*
X70500Y7342D01*
X70487Y7334D01*
X70474Y7328D01*
X70446Y7318D01*
X70418Y7310D01*
X70392Y7306D01*
X70379Y7304D01*
X70368Y7302D01*
X70357Y7301D01*
X70349D01*
X70342Y7300D01*
X70331D01*
X70313Y7301D01*
X70295Y7303D01*
X70279Y7305D01*
X70263Y7308D01*
X70248Y7313D01*
X70234Y7318D01*
X70221Y7322D01*
X70209Y7328D01*
X70199Y7332D01*
X70189Y7337D01*
X70182Y7342D01*
X70174Y7346D01*
X70170Y7350D01*
X70165Y7352D01*
X70163Y7354D01*
X70162Y7355D01*
X70149Y7366D01*
X70138Y7377D01*
X70128Y7390D01*
X70118Y7403D01*
X70101Y7429D01*
X70088Y7454D01*
X70083Y7466D01*
X70078Y7477D01*
X70074Y7488D01*
X70072Y7496D01*
X70069Y7503D01*
X70067Y7509D01*
X70066Y7513D01*
Y7514D01*
X70151Y7535D01*
X70155Y7520D01*
X70160Y7506D01*
X70164Y7493D01*
X70169Y7481D01*
X70174Y7470D01*
X70180Y7461D01*
X70186Y7452D01*
X70192Y7443D01*
X70196Y7436D01*
X70202Y7430D01*
X70207Y7425D01*
X70210Y7420D01*
X70214Y7417D01*
X70217Y7415D01*
X70218Y7414D01*
X70219Y7413D01*
X70228Y7405D01*
X70238Y7400D01*
X70258Y7390D01*
X70278Y7382D01*
X70297Y7378D01*
X70314Y7374D01*
X70320Y7373D01*
X70327D01*
X70332Y7372D01*
X70339D01*
X70360Y7373D01*
X70380Y7377D01*
X70399Y7381D01*
X70416Y7387D01*
X70429Y7392D01*
X70434Y7395D01*
X70439Y7397D01*
X70442Y7399D01*
X70445Y7401D01*
X70447Y7402D01*
X70448D01*
X70466Y7415D01*
X70480Y7429D01*
X70493Y7444D01*
X70503Y7459D01*
X70512Y7472D01*
X70517Y7483D01*
X70519Y7488D01*
X70521Y7490D01*
X70522Y7492D01*
Y7493D01*
X70529Y7517D01*
X70535Y7541D01*
X70539Y7565D01*
X70542Y7588D01*
X70543Y7598D01*
X70544Y7607D01*
Y7615D01*
X70545Y7622D01*
Y7627D01*
Y7632D01*
Y7635D01*
Y7636D01*
X70544Y7660D01*
X70542Y7682D01*
X70539Y7702D01*
X70535Y7721D01*
X70532Y7736D01*
X70530Y7743D01*
X70528Y7748D01*
X70527Y7753D01*
X70527Y7756D01*
X70526Y7758D01*
Y7759D01*
X70516Y7780D01*
X70506Y7799D01*
X70495Y7815D01*
X70483Y7829D01*
X70473Y7840D01*
X70465Y7847D01*
X70458Y7852D01*
X70457Y7854D01*
X70456D01*
X70437Y7866D01*
X70416Y7875D01*
X70395Y7882D01*
X70376Y7885D01*
X70358Y7888D01*
X70351Y7889D01*
X70344D01*
X70340Y7890D01*
X70332D01*
X70309Y7889D01*
X70288Y7885D01*
X70270Y7880D01*
X70255Y7874D01*
X70243Y7868D01*
X70233Y7863D01*
X70228Y7859D01*
X70226Y7858D01*
X70211Y7844D01*
X70197Y7828D01*
X70186Y7811D01*
X70177Y7795D01*
X70170Y7780D01*
X70167Y7772D01*
X70165Y7767D01*
X70163Y7762D01*
X70161Y7759D01*
X70160Y7757D01*
Y7756D01*
X70077Y7775D01*
X70083Y7792D01*
X70088Y7807D01*
X70096Y7821D01*
X70102Y7834D01*
X70110Y7846D01*
X70118Y7858D01*
X70125Y7869D01*
X70133Y7878D01*
X70140Y7885D01*
X70147Y7893D01*
X70153Y7899D01*
X70158Y7904D01*
X70162Y7908D01*
X70166Y7911D01*
X70168Y7912D01*
X70169Y7913D01*
X70182Y7921D01*
X70195Y7930D01*
X70208Y7936D01*
X70221Y7942D01*
X70249Y7950D01*
X70274Y7956D01*
X70286Y7958D01*
X70296Y7959D01*
X70307Y7960D01*
X70315Y7961D01*
X70321Y7962D01*
X70331D01*
X70361Y7960D01*
D02*
G37*
G36*
X69795Y2377D02*
X69820Y2372D01*
X69841Y2365D01*
X69860Y2357D01*
X69868Y2353D01*
X69875Y2349D01*
X69881Y2345D01*
X69886Y2342D01*
X69890Y2339D01*
X69892Y2337D01*
X69894Y2336D01*
X69895Y2335D01*
X69913Y2318D01*
X69926Y2298D01*
X69938Y2278D01*
X69947Y2258D01*
X69952Y2240D01*
X69955Y2233D01*
X69957Y2226D01*
X69958Y2221D01*
X69959Y2217D01*
X69960Y2214D01*
Y2213D01*
X69881Y2199D01*
X69877Y2220D01*
X69872Y2237D01*
X69865Y2252D01*
X69859Y2264D01*
X69853Y2273D01*
X69847Y2280D01*
X69843Y2284D01*
X69842Y2285D01*
X69830Y2295D01*
X69817Y2302D01*
X69805Y2307D01*
X69793Y2310D01*
X69782Y2312D01*
X69774Y2314D01*
X69767D01*
X69750Y2313D01*
X69735Y2309D01*
X69722Y2305D01*
X69711Y2300D01*
X69703Y2295D01*
X69696Y2290D01*
X69692Y2286D01*
X69691Y2285D01*
X69681Y2274D01*
X69673Y2262D01*
X69669Y2250D01*
X69665Y2239D01*
X69663Y2229D01*
X69661Y2221D01*
Y2216D01*
Y2215D01*
Y2214D01*
Y2204D01*
X69663Y2195D01*
X69668Y2179D01*
X69674Y2165D01*
X69681Y2153D01*
X69689Y2145D01*
X69695Y2138D01*
X69700Y2135D01*
X69701Y2134D01*
X69702D01*
X69718Y2125D01*
X69732Y2119D01*
X69748Y2114D01*
X69762Y2111D01*
X69774Y2110D01*
X69784Y2108D01*
X69796D01*
X69800Y2109D01*
X69804D01*
X69814Y2039D01*
X69802Y2042D01*
X69791Y2044D01*
X69781Y2046D01*
X69773Y2047D01*
X69767Y2048D01*
X69758D01*
X69739Y2046D01*
X69721Y2042D01*
X69706Y2037D01*
X69693Y2030D01*
X69682Y2024D01*
X69675Y2018D01*
X69670Y2014D01*
X69669Y2013D01*
X69657Y1999D01*
X69647Y1984D01*
X69641Y1969D01*
X69637Y1954D01*
X69634Y1942D01*
X69633Y1932D01*
X69632Y1928D01*
Y1926D01*
Y1924D01*
Y1923D01*
X69634Y1903D01*
X69639Y1884D01*
X69644Y1868D01*
X69652Y1854D01*
X69659Y1843D01*
X69665Y1835D01*
X69669Y1829D01*
X69671Y1828D01*
X69686Y1815D01*
X69702Y1805D01*
X69718Y1799D01*
X69732Y1794D01*
X69745Y1792D01*
X69755Y1791D01*
X69759Y1790D01*
X69765D01*
X69781Y1791D01*
X69797Y1794D01*
X69811Y1799D01*
X69822Y1804D01*
X69831Y1809D01*
X69839Y1814D01*
X69842Y1817D01*
X69844Y1818D01*
X69855Y1831D01*
X69865Y1846D01*
X69873Y1862D01*
X69879Y1878D01*
X69884Y1892D01*
X69886Y1899D01*
X69887Y1904D01*
X69888Y1909D01*
X69889Y1913D01*
X69890Y1915D01*
Y1915D01*
X69968Y1905D01*
X69966Y1890D01*
X69963Y1877D01*
X69955Y1851D01*
X69945Y1829D01*
X69939Y1819D01*
X69934Y1810D01*
X69928Y1802D01*
X69923Y1795D01*
X69918Y1789D01*
X69914Y1784D01*
X69911Y1780D01*
X69908Y1778D01*
X69906Y1776D01*
X69905Y1775D01*
X69894Y1767D01*
X69883Y1758D01*
X69872Y1752D01*
X69860Y1746D01*
X69837Y1737D01*
X69815Y1731D01*
X69804Y1730D01*
X69795Y1728D01*
X69787Y1727D01*
X69779Y1726D01*
X69774Y1725D01*
X69766D01*
X69748Y1726D01*
X69732Y1728D01*
X69717Y1731D01*
X69702Y1734D01*
X69688Y1739D01*
X69676Y1743D01*
X69664Y1749D01*
X69654Y1755D01*
X69644Y1759D01*
X69635Y1765D01*
X69628Y1769D01*
X69622Y1774D01*
X69618Y1778D01*
X69614Y1780D01*
X69612Y1782D01*
X69611Y1783D01*
X69600Y1794D01*
X69591Y1806D01*
X69583Y1818D01*
X69575Y1830D01*
X69570Y1841D01*
X69564Y1854D01*
X69557Y1876D01*
X69555Y1886D01*
X69553Y1895D01*
X69551Y1903D01*
X69550Y1911D01*
X69549Y1916D01*
Y1921D01*
Y1924D01*
Y1925D01*
X69550Y1947D01*
X69554Y1967D01*
X69559Y1985D01*
X69565Y2000D01*
X69571Y2012D01*
X69576Y2021D01*
X69580Y2026D01*
X69581Y2028D01*
X69594Y2042D01*
X69608Y2054D01*
X69622Y2063D01*
X69637Y2071D01*
X69650Y2076D01*
X69660Y2080D01*
X69664Y2081D01*
X69667Y2082D01*
X69669Y2083D01*
X69669D01*
X69654Y2091D01*
X69641Y2099D01*
X69630Y2109D01*
X69620Y2117D01*
X69613Y2124D01*
X69608Y2131D01*
X69605Y2135D01*
X69604Y2136D01*
X69596Y2149D01*
X69591Y2162D01*
X69586Y2175D01*
X69583Y2187D01*
X69582Y2197D01*
X69581Y2205D01*
Y2210D01*
Y2212D01*
X69582Y2228D01*
X69584Y2244D01*
X69588Y2258D01*
X69593Y2270D01*
X69597Y2280D01*
X69601Y2288D01*
X69604Y2293D01*
X69605Y2295D01*
X69614Y2308D01*
X69625Y2320D01*
X69636Y2331D01*
X69647Y2340D01*
X69657Y2346D01*
X69665Y2352D01*
X69670Y2355D01*
X69671Y2356D01*
X69672D01*
X69689Y2363D01*
X69706Y2368D01*
X69722Y2373D01*
X69737Y2376D01*
X69749Y2378D01*
X69759Y2379D01*
X69782D01*
X69795Y2377D01*
D02*
G37*
G36*
X70336Y2385D02*
X70366Y2381D01*
X70392Y2375D01*
X70404Y2371D01*
X70415Y2368D01*
X70425Y2364D01*
X70434Y2360D01*
X70441Y2357D01*
X70449Y2355D01*
X70453Y2352D01*
X70457Y2350D01*
X70460Y2349D01*
X70461Y2348D01*
X70486Y2332D01*
X70507Y2314D01*
X70526Y2295D01*
X70541Y2277D01*
X70553Y2260D01*
X70558Y2253D01*
X70562Y2246D01*
X70565Y2242D01*
X70567Y2238D01*
X70568Y2235D01*
X70569Y2234D01*
X70582Y2206D01*
X70591Y2176D01*
X70598Y2147D01*
X70602Y2120D01*
X70604Y2108D01*
X70605Y2096D01*
X70606Y2086D01*
Y2077D01*
X70607Y2071D01*
Y2065D01*
Y2062D01*
Y2061D01*
X70605Y2027D01*
X70601Y1995D01*
X70597Y1966D01*
X70593Y1952D01*
X70590Y1940D01*
X70588Y1929D01*
X70584Y1919D01*
X70581Y1910D01*
X70579Y1903D01*
X70576Y1897D01*
X70576Y1892D01*
X70574Y1890D01*
Y1889D01*
X70560Y1861D01*
X70544Y1836D01*
X70527Y1815D01*
X70519Y1806D01*
X70512Y1798D01*
X70504Y1791D01*
X70497Y1784D01*
X70490Y1779D01*
X70485Y1775D01*
X70481Y1771D01*
X70478Y1768D01*
X70476Y1768D01*
X70475Y1767D01*
X70462Y1759D01*
X70449Y1753D01*
X70421Y1743D01*
X70393Y1735D01*
X70367Y1731D01*
X70354Y1729D01*
X70343Y1727D01*
X70332Y1726D01*
X70324D01*
X70317Y1725D01*
X70306D01*
X70288Y1726D01*
X70270Y1728D01*
X70254Y1730D01*
X70238Y1733D01*
X70223Y1738D01*
X70209Y1743D01*
X70196Y1747D01*
X70184Y1753D01*
X70174Y1757D01*
X70164Y1762D01*
X70157Y1767D01*
X70149Y1771D01*
X70145Y1775D01*
X70140Y1777D01*
X70138Y1779D01*
X70137Y1780D01*
X70124Y1791D01*
X70113Y1802D01*
X70103Y1815D01*
X70093Y1828D01*
X70076Y1854D01*
X70063Y1879D01*
X70058Y1891D01*
X70053Y1903D01*
X70049Y1913D01*
X70047Y1921D01*
X70044Y1928D01*
X70042Y1934D01*
X70041Y1938D01*
Y1939D01*
X70126Y1960D01*
X70130Y1945D01*
X70135Y1931D01*
X70139Y1918D01*
X70144Y1906D01*
X70149Y1895D01*
X70155Y1886D01*
X70161Y1877D01*
X70167Y1868D01*
X70171Y1861D01*
X70177Y1855D01*
X70182Y1850D01*
X70185Y1845D01*
X70189Y1842D01*
X70192Y1840D01*
X70193Y1839D01*
X70194Y1838D01*
X70203Y1830D01*
X70213Y1825D01*
X70233Y1815D01*
X70253Y1807D01*
X70272Y1803D01*
X70289Y1799D01*
X70295Y1798D01*
X70302D01*
X70307Y1797D01*
X70314D01*
X70335Y1798D01*
X70355Y1802D01*
X70374Y1806D01*
X70391Y1812D01*
X70404Y1817D01*
X70409Y1820D01*
X70414Y1822D01*
X70417Y1824D01*
X70420Y1826D01*
X70422Y1827D01*
X70423D01*
X70441Y1840D01*
X70455Y1854D01*
X70468Y1869D01*
X70478Y1884D01*
X70487Y1897D01*
X70492Y1908D01*
X70494Y1913D01*
X70496Y1915D01*
X70497Y1917D01*
Y1918D01*
X70504Y1942D01*
X70510Y1966D01*
X70515Y1990D01*
X70517Y2013D01*
X70518Y2023D01*
X70519Y2032D01*
Y2040D01*
X70520Y2047D01*
Y2052D01*
Y2057D01*
Y2060D01*
Y2061D01*
X70519Y2085D01*
X70517Y2107D01*
X70514Y2127D01*
X70510Y2146D01*
X70507Y2161D01*
X70505Y2168D01*
X70503Y2173D01*
X70502Y2178D01*
X70502Y2181D01*
X70501Y2183D01*
Y2184D01*
X70491Y2205D01*
X70481Y2224D01*
X70470Y2240D01*
X70458Y2254D01*
X70448Y2265D01*
X70440Y2272D01*
X70433Y2277D01*
X70432Y2279D01*
X70431D01*
X70412Y2291D01*
X70391Y2300D01*
X70370Y2307D01*
X70351Y2310D01*
X70333Y2313D01*
X70326Y2314D01*
X70319D01*
X70315Y2315D01*
X70307D01*
X70284Y2314D01*
X70263Y2310D01*
X70245Y2305D01*
X70230Y2299D01*
X70218Y2293D01*
X70208Y2288D01*
X70203Y2284D01*
X70201Y2283D01*
X70186Y2269D01*
X70172Y2253D01*
X70161Y2236D01*
X70152Y2220D01*
X70145Y2205D01*
X70142Y2197D01*
X70140Y2192D01*
X70138Y2187D01*
X70136Y2184D01*
X70135Y2182D01*
Y2181D01*
X70052Y2200D01*
X70058Y2217D01*
X70063Y2232D01*
X70071Y2246D01*
X70077Y2259D01*
X70085Y2271D01*
X70093Y2283D01*
X70100Y2294D01*
X70108Y2303D01*
X70115Y2310D01*
X70122Y2318D01*
X70128Y2324D01*
X70133Y2329D01*
X70137Y2333D01*
X70141Y2336D01*
X70143Y2337D01*
X70144Y2338D01*
X70157Y2346D01*
X70170Y2355D01*
X70183Y2361D01*
X70196Y2367D01*
X70224Y2375D01*
X70249Y2381D01*
X70261Y2383D01*
X70271Y2384D01*
X70282Y2385D01*
X70290Y2386D01*
X70296Y2387D01*
X70306D01*
X70336Y2385D01*
D02*
G37*
%LPC*%
G36*
X142700Y15577D02*
X142695D01*
X142675Y15575D01*
X142658Y15572D01*
X142642Y15565D01*
X142628Y15558D01*
X142618Y15551D01*
X142610Y15545D01*
X142605Y15541D01*
X142603Y15539D01*
X142591Y15525D01*
X142582Y15508D01*
X142577Y15491D01*
X142572Y15476D01*
X142569Y15462D01*
X142568Y15456D01*
Y15451D01*
X142567Y15446D01*
Y15443D01*
Y15441D01*
Y15440D01*
X142569Y15416D01*
X142573Y15394D01*
X142579Y15375D01*
X142587Y15359D01*
X142593Y15346D01*
X142600Y15337D01*
X142602Y15334D01*
X142603Y15331D01*
X142605Y15330D01*
Y15330D01*
X142613Y15322D01*
X142620Y15315D01*
X142636Y15305D01*
X142651Y15296D01*
X142666Y15292D01*
X142678Y15288D01*
X142688Y15287D01*
X142692Y15286D01*
X142707D01*
X142716Y15288D01*
X142733Y15293D01*
X142748Y15299D01*
X142761Y15305D01*
X142771Y15313D01*
X142778Y15319D01*
X142783Y15324D01*
X142785Y15325D01*
Y15326D01*
X142797Y15342D01*
X142806Y15359D01*
X142812Y15378D01*
X142816Y15395D01*
X142819Y15410D01*
X142820Y15416D01*
Y15423D01*
X142821Y15428D01*
Y15431D01*
Y15433D01*
Y15434D01*
X142819Y15458D01*
X142815Y15479D01*
X142810Y15497D01*
X142803Y15512D01*
X142796Y15524D01*
X142790Y15532D01*
X142786Y15538D01*
X142785Y15539D01*
X142771Y15552D01*
X142756Y15562D01*
X142741Y15568D01*
X142726Y15573D01*
X142714Y15575D01*
X142704Y15576D01*
X142700Y15577D01*
D02*
G37*
G36*
X142702Y13135D02*
X142697D01*
X142684Y13134D01*
X142671Y13133D01*
X142659Y13130D01*
X142649Y13127D01*
X142640Y13124D01*
X142634Y13121D01*
X142630Y13120D01*
X142628Y13119D01*
X142617Y13111D01*
X142608Y13104D01*
X142600Y13096D01*
X142593Y13087D01*
X142588Y13081D01*
X142584Y13075D01*
X142582Y13071D01*
X142581Y13070D01*
X142577Y13058D01*
X142573Y13047D01*
X142570Y13035D01*
X142568Y13025D01*
X142567Y13017D01*
X142566Y13010D01*
Y13007D01*
Y13005D01*
X142568Y12986D01*
X142572Y12968D01*
X142577Y12952D01*
X142585Y12938D01*
X142591Y12928D01*
X142597Y12920D01*
X142601Y12915D01*
X142602Y12913D01*
X142616Y12901D01*
X142632Y12892D01*
X142647Y12886D01*
X142662Y12881D01*
X142675Y12878D01*
X142685Y12877D01*
X142688Y12876D01*
X142694D01*
X142714Y12878D01*
X142733Y12882D01*
X142749Y12888D01*
X142763Y12895D01*
X142774Y12902D01*
X142783Y12909D01*
X142787Y12912D01*
X142789Y12914D01*
X142802Y12929D01*
X142811Y12945D01*
X142818Y12961D01*
X142822Y12974D01*
X142825Y12988D01*
X142826Y12998D01*
X142827Y13002D01*
Y13005D01*
Y13007D01*
Y13008D01*
X142825Y13027D01*
X142822Y13046D01*
X142815Y13061D01*
X142809Y13074D01*
X142802Y13084D01*
X142796Y13093D01*
X142792Y13097D01*
X142790Y13099D01*
X142775Y13111D01*
X142761Y13120D01*
X142745Y13126D01*
X142730Y13131D01*
X142717Y13133D01*
X142706Y13134D01*
X142702Y13135D01*
D02*
G37*
G36*
X142699Y12813D02*
X142697D01*
X142680Y12812D01*
X142665Y12808D01*
X142652Y12803D01*
X142641Y12798D01*
X142633Y12793D01*
X142626Y12789D01*
X142622Y12785D01*
X142621Y12784D01*
X142612Y12773D01*
X142604Y12760D01*
X142600Y12748D01*
X142596Y12736D01*
X142594Y12726D01*
X142593Y12717D01*
X142592Y12712D01*
Y12711D01*
Y12710D01*
X142593Y12695D01*
X142597Y12682D01*
X142602Y12670D01*
X142607Y12660D01*
X142612Y12652D01*
X142616Y12645D01*
X142620Y12642D01*
X142621Y12641D01*
X142633Y12630D01*
X142645Y12623D01*
X142658Y12618D01*
X142670Y12615D01*
X142681Y12613D01*
X142689Y12611D01*
X142697D01*
X142712Y12612D01*
X142727Y12616D01*
X142739Y12620D01*
X142750Y12626D01*
X142759Y12631D01*
X142765Y12636D01*
X142770Y12640D01*
X142771Y12641D01*
X142781Y12653D01*
X142788Y12665D01*
X142794Y12677D01*
X142798Y12688D01*
X142799Y12698D01*
X142801Y12706D01*
Y12712D01*
Y12713D01*
Y12714D01*
X142800Y12728D01*
X142797Y12742D01*
X142792Y12754D01*
X142786Y12765D01*
X142781Y12773D01*
X142776Y12778D01*
X142773Y12783D01*
X142772Y12784D01*
X142761Y12793D01*
X142748Y12801D01*
X142736Y12805D01*
X142724Y12809D01*
X142712Y12811D01*
X142704Y12812D01*
X142699Y12813D01*
D02*
G37*
G36*
X40113Y11125D02*
X40109D01*
X40107D01*
X40085Y11123D01*
X40065Y11120D01*
X40048Y11113D01*
X40034Y11107D01*
X40022Y11100D01*
X40013Y11094D01*
X40009Y11090D01*
X40007Y11088D01*
X39994Y11073D01*
X39985Y11059D01*
X39977Y11043D01*
X39973Y11029D01*
X39970Y11016D01*
X39969Y11007D01*
X39968Y11003D01*
Y10998D01*
X39970Y10978D01*
X39975Y10961D01*
X39980Y10946D01*
X39988Y10933D01*
X39995Y10923D01*
X40000Y10915D01*
X40005Y10911D01*
X40007Y10909D01*
X40023Y10897D01*
X40039Y10888D01*
X40057Y10881D01*
X40074Y10877D01*
X40088Y10875D01*
X40095Y10874D01*
X40100D01*
X40105Y10873D01*
X40109D01*
X40111D01*
X40111D01*
X40136Y10875D01*
X40158Y10878D01*
X40176Y10884D01*
X40192Y10890D01*
X40204Y10898D01*
X40213Y10903D01*
X40219Y10907D01*
X40220Y10909D01*
X40221D01*
X40228Y10915D01*
X40233Y10923D01*
X40244Y10937D01*
X40250Y10952D01*
X40256Y10965D01*
X40258Y10977D01*
X40259Y10986D01*
X40260Y10990D01*
Y10995D01*
X40259Y11008D01*
X40258Y11020D01*
X40254Y11031D01*
X40250Y11040D01*
X40247Y11048D01*
X40244Y11055D01*
X40242Y11059D01*
X40241Y11060D01*
X40233Y11072D01*
X40224Y11081D01*
X40214Y11089D01*
X40206Y11096D01*
X40197Y11101D01*
X40191Y11105D01*
X40186Y11108D01*
X40184Y11109D01*
X40171Y11114D01*
X40157Y11118D01*
X40144Y11121D01*
X40132Y11123D01*
X40122Y11124D01*
X40113Y11125D01*
D02*
G37*
G36*
X114321Y55923D02*
X114312D01*
X114308D01*
X114307D01*
X114306D01*
X114277D01*
X114251Y55921D01*
X114228Y55919D01*
X114206Y55917D01*
X114188Y55914D01*
X114170Y55911D01*
X114155Y55907D01*
X114141Y55904D01*
X114130Y55901D01*
X114121Y55897D01*
X114113Y55894D01*
X114106Y55890D01*
X114102Y55889D01*
X114099Y55887D01*
X114097Y55885D01*
X114096D01*
X114087Y55878D01*
X114079Y55870D01*
X114072Y55863D01*
X114067Y55855D01*
X114057Y55840D01*
X114051Y55826D01*
X114047Y55813D01*
X114045Y55804D01*
X114044Y55800D01*
Y55794D01*
X114045Y55784D01*
X114046Y55775D01*
X114053Y55757D01*
X114061Y55742D01*
X114070Y55728D01*
X114079Y55718D01*
X114088Y55709D01*
X114094Y55705D01*
X114095Y55703D01*
X114096D01*
X114107Y55696D01*
X114120Y55691D01*
X114135Y55685D01*
X114151Y55681D01*
X114167Y55678D01*
X114185Y55675D01*
X114221Y55670D01*
X114238Y55669D01*
X114253Y55668D01*
X114268Y55667D01*
X114280D01*
X114291Y55666D01*
X114300D01*
X114304D01*
X114306D01*
X114335Y55667D01*
X114361Y55668D01*
X114385Y55669D01*
X114407Y55672D01*
X114426Y55675D01*
X114444Y55679D01*
X114459Y55682D01*
X114473Y55686D01*
X114485Y55690D01*
X114496Y55693D01*
X114504Y55696D01*
X114511Y55699D01*
X114516Y55702D01*
X114520Y55704D01*
X114521Y55706D01*
X114522D01*
X114531Y55712D01*
X114538Y55718D01*
X114544Y55726D01*
X114549Y55733D01*
X114557Y55748D01*
X114563Y55762D01*
X114566Y55774D01*
X114568Y55784D01*
X114569Y55788D01*
Y55793D01*
X114568Y55804D01*
X114567Y55814D01*
X114564Y55823D01*
X114560Y55831D01*
X114552Y55847D01*
X114543Y55861D01*
X114533Y55871D01*
X114524Y55879D01*
X114520Y55882D01*
X114518Y55884D01*
X114517Y55886D01*
X114516D01*
X114505Y55892D01*
X114492Y55898D01*
X114477Y55903D01*
X114461Y55907D01*
X114445Y55911D01*
X114427Y55914D01*
X114392Y55918D01*
X114374Y55920D01*
X114359Y55921D01*
X114344Y55922D01*
X114332D01*
X114321Y55923D01*
D02*
G37*
G36*
X69767Y5064D02*
X69759D01*
X69743Y5063D01*
X69729Y5059D01*
X69717Y5055D01*
X69706Y5049D01*
X69697Y5044D01*
X69691Y5039D01*
X69686Y5035D01*
X69685Y5034D01*
X69675Y5022D01*
X69668Y5010D01*
X69662Y4998D01*
X69658Y4987D01*
X69657Y4977D01*
X69655Y4969D01*
Y4963D01*
Y4962D01*
Y4961D01*
X69656Y4947D01*
X69659Y4933D01*
X69664Y4921D01*
X69669Y4910D01*
X69675Y4902D01*
X69680Y4897D01*
X69683Y4892D01*
X69684Y4891D01*
X69695Y4882D01*
X69708Y4874D01*
X69720Y4870D01*
X69732Y4866D01*
X69743Y4864D01*
X69752Y4863D01*
X69757Y4862D01*
X69759D01*
X69776Y4863D01*
X69791Y4867D01*
X69804Y4872D01*
X69815Y4877D01*
X69823Y4882D01*
X69829Y4886D01*
X69834Y4890D01*
X69835Y4891D01*
X69844Y4902D01*
X69852Y4915D01*
X69856Y4927D01*
X69860Y4939D01*
X69862Y4949D01*
X69863Y4958D01*
X69864Y4963D01*
Y4964D01*
Y4965D01*
X69863Y4980D01*
X69859Y4993D01*
X69854Y5005D01*
X69849Y5015D01*
X69844Y5023D01*
X69840Y5030D01*
X69836Y5033D01*
X69835Y5034D01*
X69823Y5045D01*
X69811Y5052D01*
X69798Y5057D01*
X69786Y5060D01*
X69775Y5062D01*
X69767Y5064D01*
D02*
G37*
G36*
X69767Y4799D02*
X69762D01*
X69742Y4797D01*
X69723Y4793D01*
X69706Y4787D01*
X69693Y4780D01*
X69681Y4773D01*
X69673Y4766D01*
X69669Y4763D01*
X69667Y4761D01*
X69654Y4746D01*
X69644Y4730D01*
X69638Y4714D01*
X69633Y4701D01*
X69631Y4687D01*
X69630Y4677D01*
X69629Y4673D01*
Y4670D01*
Y4668D01*
Y4667D01*
X69631Y4648D01*
X69634Y4629D01*
X69641Y4614D01*
X69647Y4601D01*
X69654Y4591D01*
X69660Y4582D01*
X69664Y4578D01*
X69666Y4576D01*
X69681Y4564D01*
X69695Y4555D01*
X69711Y4549D01*
X69726Y4544D01*
X69739Y4542D01*
X69750Y4541D01*
X69754Y4540D01*
X69759D01*
X69772Y4541D01*
X69785Y4542D01*
X69797Y4545D01*
X69807Y4548D01*
X69816Y4551D01*
X69822Y4554D01*
X69826Y4555D01*
X69828Y4556D01*
X69839Y4564D01*
X69848Y4571D01*
X69856Y4579D01*
X69863Y4588D01*
X69868Y4594D01*
X69872Y4600D01*
X69874Y4604D01*
X69875Y4605D01*
X69879Y4617D01*
X69883Y4628D01*
X69886Y4640D01*
X69888Y4650D01*
X69889Y4658D01*
X69890Y4665D01*
Y4668D01*
Y4670D01*
X69888Y4689D01*
X69884Y4707D01*
X69878Y4723D01*
X69871Y4737D01*
X69865Y4747D01*
X69859Y4755D01*
X69855Y4760D01*
X69853Y4762D01*
X69840Y4774D01*
X69824Y4783D01*
X69809Y4789D01*
X69794Y4794D01*
X69781Y4797D01*
X69771Y4798D01*
X69767Y4799D01*
D02*
G37*
%LPD*%
D68*
X128978Y5525D02*
Y10625D01*
X122272Y5525D02*
X128978D01*
X122272D02*
Y10625D01*
X128978D01*
X139198Y14597D02*
Y17153D01*
X143505D01*
Y14597D02*
Y17153D01*
X139198Y14597D02*
X143505D01*
X139198Y11922D02*
Y14478D01*
X143505D01*
Y11922D02*
Y14478D01*
X139198Y11922D02*
X143505D01*
X39047Y14003D02*
X41603D01*
Y9697D02*
Y14003D01*
X39047Y9697D02*
X41603D01*
X39047D02*
Y14003D01*
X60321Y2419D02*
Y4975D01*
X64627D01*
Y2419D02*
Y4975D01*
X60321Y2419D02*
X64627D01*
X112702Y52297D02*
X115258D01*
X112702D02*
Y56603D01*
X115258D01*
Y52297D02*
Y56603D01*
X122022Y11072D02*
Y13628D01*
X126328D01*
Y11072D02*
Y13628D01*
X122022Y11072D02*
X126328D01*
X72760Y3197D02*
Y5753D01*
X68454Y3197D02*
X72760D01*
X68454D02*
Y5753D01*
X72760D01*
X78817Y11898D02*
X81374D01*
X78817D02*
Y16204D01*
X81374D01*
Y11898D02*
Y16204D01*
X72785Y6022D02*
Y8578D01*
X68479Y6022D02*
X72785D01*
X68479D02*
Y8578D01*
X72785D01*
X72760Y447D02*
Y3003D01*
X68454Y447D02*
X72760D01*
X68454D02*
Y3003D01*
X72760D01*
D93*
X71479Y14000D02*
G03*
X72679Y14000I600J0D01*
G01*
X128175Y50568D02*
X136700D01*
X128175Y46468D02*
X136700D01*
Y50568D01*
X128175Y46468D02*
Y50568D01*
X136950Y50550D02*
X145475D01*
X136950Y46450D02*
X145475D01*
Y50550D01*
X136950Y46450D02*
Y50550D01*
X128175Y46250D02*
X136700D01*
X128175Y42150D02*
X136700D01*
Y46250D01*
X128175Y42150D02*
Y46250D01*
X111625Y7325D02*
Y7675D01*
Y9175D02*
Y9450D01*
X116225D01*
X111625Y7325D02*
X116225D01*
Y9450D01*
X111625Y7675D02*
Y9175D01*
X136192Y23525D02*
Y23875D01*
Y21750D02*
Y22025D01*
X131592Y21750D02*
X136192D01*
X131592Y23875D02*
X136192D01*
X131592Y21750D02*
Y23875D01*
X136192Y22025D02*
Y23525D01*
X72679Y14000D02*
X75729D01*
X68429Y8900D02*
X75729D01*
X68429Y14000D02*
X71479D01*
X68429Y8900D02*
Y14000D01*
X75729Y8900D02*
Y14000D01*
X118825Y49863D02*
Y56513D01*
X115825Y49863D02*
Y56513D01*
Y49863D02*
X118825D01*
X115825Y56513D02*
X118825D01*
X136192Y24353D02*
Y25853D01*
X131592Y24078D02*
Y26203D01*
X136192D01*
X131592Y24078D02*
X136192D01*
Y24353D01*
Y25853D02*
Y26203D01*
X111675Y5278D02*
Y6778D01*
X116275Y4928D02*
Y7053D01*
X111675Y4928D02*
X116275D01*
X111675Y7053D02*
X116275D01*
X111675Y6778D02*
Y7053D01*
Y4928D02*
Y5278D01*
X136950Y46250D02*
X145475D01*
X136950Y42150D02*
X145475D01*
Y46250D01*
X136950Y42150D02*
Y46250D01*
X24939Y15171D02*
X29511D01*
X24939Y17203D02*
X29511D01*
X24939Y15171D02*
Y17203D01*
X29511Y15171D02*
Y17203D01*
X58050Y10975D02*
X64700D01*
X58050Y7975D02*
X64700D01*
Y10975D01*
X58050Y7975D02*
Y10975D01*
X22183Y12301D02*
Y16873D01*
X24215Y12301D02*
Y16873D01*
X22183D02*
X24215D01*
X22183Y12301D02*
X24215D01*
X16433Y12276D02*
X18465D01*
X16433Y16848D02*
X18465D01*
Y12276D02*
Y16848D01*
X16433Y12276D02*
Y16848D01*
X21340Y12276D02*
Y16848D01*
X19308Y12276D02*
Y16848D01*
Y12276D02*
X21340D01*
X19308Y16848D02*
X21340D01*
X21075Y3976D02*
Y10576D01*
X12675Y3976D02*
Y10576D01*
X21075D01*
X12675Y3976D02*
X21075D01*
X46250Y52100D02*
Y55100D01*
X52900Y52100D02*
Y55100D01*
X46250Y52100D02*
X52900D01*
X46250Y55100D02*
X52900D01*
X119025Y56500D02*
X122025D01*
X119025Y49850D02*
X122025D01*
X119025D02*
Y56500D01*
X122025Y49850D02*
Y56500D01*
X43350Y7453D02*
X46350D01*
X43350Y14103D02*
X46350D01*
Y7453D02*
Y14103D01*
X43350Y7453D02*
Y14103D01*
X132450Y48518D02*
Y47818D01*
X132800D01*
X132917Y47935D01*
Y48168D01*
X132800Y48285D01*
X132450D01*
X132683D02*
X132917Y48518D01*
X133150Y47935D02*
X133266Y47818D01*
X133500D01*
X133616Y47935D01*
Y48051D01*
X133500Y48168D01*
X133383D01*
X133500D01*
X133616Y48285D01*
Y48401D01*
X133500Y48518D01*
X133266D01*
X133150Y48401D01*
X133850Y47935D02*
X133966Y47818D01*
X134199D01*
X134316Y47935D01*
Y48051D01*
X134199Y48168D01*
X134083D01*
X134199D01*
X134316Y48285D01*
Y48401D01*
X134199Y48518D01*
X133966D01*
X133850Y48401D01*
X141225Y48500D02*
Y47800D01*
X141575D01*
X141692Y47917D01*
Y48150D01*
X141575Y48267D01*
X141225D01*
X141458D02*
X141692Y48500D01*
X141925Y47917D02*
X142041Y47800D01*
X142275D01*
X142391Y47917D01*
Y48033D01*
X142275Y48150D01*
X142158D01*
X142275D01*
X142391Y48267D01*
Y48383D01*
X142275Y48500D01*
X142041D01*
X141925Y48383D01*
X142974Y48500D02*
Y47800D01*
X142625Y48150D01*
X143091D01*
X132450Y44200D02*
Y43500D01*
X132800D01*
X132917Y43617D01*
Y43850D01*
X132800Y43967D01*
X132450D01*
X132683D02*
X132917Y44200D01*
X133150Y43617D02*
X133266Y43500D01*
X133500D01*
X133616Y43617D01*
Y43733D01*
X133500Y43850D01*
X133383D01*
X133500D01*
X133616Y43967D01*
Y44083D01*
X133500Y44200D01*
X133266D01*
X133150Y44083D01*
X134316Y44200D02*
X133850D01*
X134316Y43733D01*
Y43617D01*
X134199Y43500D01*
X133966D01*
X133850Y43617D01*
X113875Y7675D02*
Y8142D01*
X114108Y8375D01*
X114342Y8142D01*
Y7675D01*
X114575D02*
Y8375D01*
X114925D01*
X115041Y8258D01*
Y7792D01*
X114925Y7675D01*
X114575D01*
X115275Y8375D02*
X115508D01*
X115391D01*
Y7675D01*
X115275Y7792D01*
X116324Y7675D02*
X116091Y7792D01*
X115858Y8025D01*
Y8258D01*
X115974Y8375D01*
X116208D01*
X116324Y8258D01*
Y8142D01*
X116208Y8025D01*
X115858D01*
X133942Y23525D02*
Y23058D01*
X133709Y22825D01*
X133476Y23058D01*
Y23525D01*
X133242D02*
Y22825D01*
X132893D01*
X132776Y22942D01*
Y23408D01*
X132893Y23525D01*
X133242D01*
X132543Y22942D02*
X132426Y22825D01*
X132193D01*
X132076Y22942D01*
Y23408D01*
X132193Y23525D01*
X132426D01*
X132543Y23408D01*
Y23292D01*
X132426Y23175D01*
X132076D01*
X73004Y11800D02*
Y11100D01*
X72654D01*
X72538Y11217D01*
Y11683D01*
X72654Y11800D01*
X73004D01*
X72304Y11100D02*
Y11567D01*
X72071Y11800D01*
X71838Y11567D01*
Y11100D01*
Y11450D01*
X72304D01*
X71138Y11100D02*
X71605D01*
X71138Y11567D01*
Y11683D01*
X71255Y11800D01*
X71488D01*
X71605Y11683D01*
X116975Y54163D02*
X117442D01*
X117675Y53930D01*
X117442Y53696D01*
X116975D01*
Y53463D02*
X117675D01*
Y53113D01*
X117558Y52997D01*
X117092D01*
X116975Y53113D01*
Y53463D01*
X117675Y52763D02*
Y52530D01*
Y52647D01*
X116975D01*
X117092Y52763D01*
X117675Y51714D02*
Y52180D01*
X117208Y51714D01*
X117092D01*
X116975Y51830D01*
Y52064D01*
X117092Y52180D01*
X133942Y25853D02*
Y25386D01*
X133709Y25153D01*
X133476Y25386D01*
Y25853D01*
X133242D02*
Y25153D01*
X132893D01*
X132776Y25270D01*
Y25736D01*
X132893Y25853D01*
X133242D01*
X132543Y25153D02*
X132309D01*
X132426D01*
Y25853D01*
X132543Y25736D01*
X131493Y25853D02*
X131959D01*
Y25503D01*
X131726Y25620D01*
X131610D01*
X131493Y25503D01*
Y25270D01*
X131610Y25153D01*
X131843D01*
X131959Y25270D01*
X113925Y5278D02*
Y5745D01*
X114158Y5978D01*
X114392Y5745D01*
Y5278D01*
X114625D02*
Y5978D01*
X114975D01*
X115091Y5861D01*
Y5395D01*
X114975Y5278D01*
X114625D01*
X115325Y5978D02*
X115558D01*
X115441D01*
Y5278D01*
X115325Y5395D01*
X115908Y5278D02*
X116374D01*
Y5395D01*
X115908Y5861D01*
Y5978D01*
X141225Y44200D02*
Y43500D01*
X141575D01*
X141692Y43617D01*
Y43850D01*
X141575Y43967D01*
X141225D01*
X141458D02*
X141692Y44200D01*
X141925Y43617D02*
X142041Y43500D01*
X142275D01*
X142391Y43617D01*
Y43733D01*
X142275Y43850D01*
X142158D01*
X142275D01*
X142391Y43967D01*
Y44083D01*
X142275Y44200D01*
X142041D01*
X141925Y44083D01*
X142625Y44200D02*
X142858D01*
X142741D01*
Y43500D01*
X142625Y43617D01*
X28200Y15837D02*
Y16537D01*
X27850D01*
X27733Y16420D01*
Y16187D01*
X27850Y16070D01*
X28200D01*
X27967D02*
X27733Y15837D01*
X27034D02*
X27500D01*
X27034Y16304D01*
Y16420D01*
X27150Y16537D01*
X27384D01*
X27500Y16420D01*
X26334Y16537D02*
X26800D01*
Y16187D01*
X26567Y16304D01*
X26451D01*
X26334Y16187D01*
Y15954D01*
X26451Y15837D01*
X26684D01*
X26800Y15954D01*
X60400Y9125D02*
Y9592D01*
X60633Y9825D01*
X60867Y9592D01*
Y9125D01*
X61100D02*
Y9825D01*
X61450D01*
X61566Y9708D01*
Y9242D01*
X61450Y9125D01*
X61100D01*
X61800Y9825D02*
X62033D01*
X61916D01*
Y9125D01*
X61800Y9242D01*
X22849Y13612D02*
X23549D01*
Y13962D01*
X23432Y14079D01*
X23199D01*
X23082Y13962D01*
Y13612D01*
Y13845D02*
X22849Y14079D01*
Y14312D02*
Y14545D01*
Y14428D01*
X23549D01*
X23432Y14312D01*
X22849Y14895D02*
Y15128D01*
Y15012D01*
X23549D01*
X23432Y14895D01*
X17099Y13587D02*
X17799D01*
Y13937D01*
X17682Y14054D01*
X17449D01*
X17332Y13937D01*
Y13587D01*
Y13820D02*
X17099Y14054D01*
Y14287D02*
Y14520D01*
Y14403D01*
X17799D01*
X17682Y14287D01*
Y14870D02*
X17799Y14987D01*
Y15220D01*
X17682Y15336D01*
X17566D01*
X17449Y15220D01*
Y15103D01*
Y15220D01*
X17332Y15336D01*
X17216D01*
X17099Y15220D01*
Y14987D01*
X17216Y14870D01*
X20674Y15537D02*
X19974D01*
Y15187D01*
X20091Y15070D01*
X20324D01*
X20441Y15187D01*
Y15537D01*
Y15304D02*
X20674Y15070D01*
Y14837D02*
Y14604D01*
Y14721D01*
X19974D01*
X20091Y14837D01*
X20674Y13788D02*
Y14254D01*
X20208Y13788D01*
X20091D01*
X19974Y13904D01*
Y14137D01*
X20091Y14254D01*
X16175Y7276D02*
X16642D01*
X16875Y7043D01*
X16642Y6809D01*
X16175D01*
Y6576D02*
Y6110D01*
Y6343D01*
X16875D01*
Y5410D02*
Y5876D01*
X16408Y5410D01*
X16292D01*
X16175Y5526D01*
Y5760D01*
X16292Y5876D01*
X48600Y53250D02*
Y53717D01*
X48833Y53950D01*
X49067Y53717D01*
Y53250D01*
X49300D02*
Y53950D01*
X49650D01*
X49766Y53833D01*
Y53367D01*
X49650Y53250D01*
X49300D01*
X50000Y53950D02*
X50233D01*
X50116D01*
Y53250D01*
X50000Y53367D01*
X50583D02*
X50699Y53250D01*
X50933D01*
X51049Y53367D01*
Y53483D01*
X50933Y53600D01*
X50816D01*
X50933D01*
X51049Y53717D01*
Y53833D01*
X50933Y53950D01*
X50699D01*
X50583Y53833D01*
X120175Y54150D02*
X120642D01*
X120875Y53917D01*
X120642Y53683D01*
X120175D01*
Y53450D02*
X120875D01*
Y53100D01*
X120758Y52984D01*
X120292D01*
X120175Y53100D01*
Y53450D01*
X120875Y52750D02*
Y52517D01*
Y52634D01*
X120175D01*
X120292Y52750D01*
X120875Y52167D02*
Y51934D01*
Y52051D01*
X120175D01*
X120292Y52167D01*
X45200Y9803D02*
X44733D01*
X44500Y10036D01*
X44733Y10270D01*
X45200D01*
Y10503D02*
X44500D01*
Y10853D01*
X44617Y10969D01*
X45083D01*
X45200Y10853D01*
Y10503D01*
X45083Y11203D02*
X45200Y11319D01*
Y11553D01*
X45083Y11669D01*
X44967D01*
X44850Y11553D01*
Y11436D01*
Y11553D01*
X44733Y11669D01*
X44617D01*
X44500Y11553D01*
Y11319D01*
X44617Y11203D01*
D100*
X112150Y8400D02*
D03*
X135667Y22800D02*
D03*
X135667Y25128D02*
D03*
X112200Y6003D02*
D03*
D101*
X117325Y55388D02*
D03*
X120525Y55375D02*
D03*
X44850Y8578D02*
D03*
D102*
X59174Y9476D02*
D03*
X47375Y53600D02*
D03*
%TF.MD5,795544741c8c277359b33f276aa685ee*%
M02*
