%TF.GenerationSoftware,Altium Limited,Altium Designer,21.6.4 (81)*%
G04 Layer_Color=16711935*
%FSLAX43Y43*%
%MOMM*%
%TF.SameCoordinates,B74C4539-8C7F-4592-B280-35368C4CFDA8*%
%TF.FilePolarity,Positive*%
%TF.FileFunction,Other,Top_Courtyard*%
%TF.Part,Single*%
G01*
G75*
%TA.AperFunction,NonConductor*%
%ADD68C,0.200*%
%ADD106C,0.050*%
D68*
X122493Y16750D02*
Y18650D01*
Y16750D02*
X131043D01*
Y18650D01*
X122493D02*
X131043D01*
X39641Y21675D02*
X48641D01*
X39641Y10075D02*
Y21675D01*
Y10075D02*
X48641D01*
Y21675D01*
X122493Y18875D02*
Y20775D01*
Y18875D02*
X131043D01*
Y20775D01*
X122493D02*
X131043D01*
D106*
X122758Y22075D02*
Y31975D01*
Y22075D02*
X133158D01*
Y31975D01*
X122758D02*
X133158D01*
X127458Y27025D02*
X128458D01*
X127958Y26525D02*
Y27525D01*
X106625Y54025D02*
X107625D01*
X107125Y53525D02*
Y54525D01*
X102175Y48825D02*
Y59225D01*
X112075D01*
Y48825D02*
Y59225D01*
X102175Y48825D02*
X112075D01*
X10327Y17225D02*
Y28825D01*
X927Y17225D02*
X10327D01*
X927D02*
Y28825D01*
X10327D01*
X138936Y32775D02*
Y44375D01*
X148336D01*
Y32775D02*
Y44375D01*
X138936Y32775D02*
X148336D01*
X138936Y21100D02*
Y32700D01*
X148336D01*
Y21100D02*
Y32700D01*
X138936Y21100D02*
X148336D01*
X10268Y32525D02*
Y44125D01*
X868Y32525D02*
X10268D01*
X868D02*
Y44125D01*
X10268D01*
%TF.MD5,1260c17a078e178f3456da3286614d25*%
M02*
