M48
;Layer_Color=9474304
;FILE_FORMAT=4:3
METRIC,LZ
;TYPE=PLATED
T1F00S00C0.300
T2F00S00C0.400
T3F00S00C0.500
T4F00S00C0.700
T5F00S00C0.711
T6F00S00C0.750
T7F00S00C0.762
T8F00S00C1.000
T9F00S00C1.016
T10F00S00C1.200
T11F00S00C1.300
T12F00S00C1.397
T13F00S00C1.450
T14F00S00C1.500
T15F00S00C1.524
T16F00S00C1.800
T17F00S00C2.000
T18F00S00C2.200
%
T01
X0121844Y00277
X012958Y0027792
X0126584Y0031056
X0132625Y0008
X014565Y00144
X012663Y003226
X01254Y003355
X01185Y0038475
X01202Y0042425
X0113484Y0044456
X0107309Y005405
X01092Y0056585
X0104725Y0056722
X0090655Y005847
X00628Y00578
X004795Y005495
X00493Y0043825
X0040425Y0046925
X0038825Y00479
X0040425Y0049625
X0043103Y005549
X0031728Y0045677
X003925Y003595
T02
X0039146Y0049197
X00384Y0055575
T03
X0040175Y00196
T04
X0115275Y004931
Y005185
Y005439
X0120315
Y005185
Y004931
X012533
Y005185
Y005439
T05
X0103372Y0030144
X0129855Y0035299
X0110199Y0047599
X0111227Y005215
T06
X01092Y003
Y00371
T07
X003375Y0012725
Y0017675
X00456Y0026681
X0066506Y0016092
X0078376Y0016725
X0083326
X00591Y000245
X0111814Y0026575
Y0029448
X0136603Y0029349
X0136684Y0026306
X0142346Y0014546
X0140775Y00091
X0136603Y0032275
X013655Y0035299
X0136603Y0045532
X010925Y0044475
Y003965
X0111814Y00371
Y0032275
X0097125Y0058375
X00728Y005695
X0068458Y00565
X004725Y0038375
X0045825Y0034925
X0043625Y0045451
X0044225Y0058
X00368Y0058075
X00331
X0027675
X002445Y0058125
X000865Y00485
T08
X00033Y00138
X00055Y0021
Y0031
X00185
Y0021
X00257Y00138
X00345Y00079
Y00048
X00375Y0025
Y003
X009685Y0011225
X0095175Y0007205
Y0004665
Y0002125
X0106401Y001885
X0111401
X0122575Y001635
Y002135
X012995Y0013775
X0131825Y0050235
Y0052775
Y0055315
X0029928Y0052467
Y0047467
X0035352Y00383
X0012952
T09
X010421Y000185
X010675
X010929
X005554Y005515
X0053
X005046
X0011925Y0053241
Y0050701
Y0048161
T10
X0123225Y00113
X012945Y0008
Y0003
X01358
Y0008
T11
X0025077Y0020525
X0028928
X00505Y0026375
X014375Y0026625
Y0021625
X0143751Y003165
Y003665
Y0041675
Y0046675
X00505Y0038375
X0028928Y0032525
X0025077
X00053Y00383
Y00433
T12
X0018275Y0050701
T13
X0105Y002653
Y004747
T14
X00135Y0004
X00185
X00235
X00285
X0057025Y0023425
X0068599Y0021632
Y0026839
X0093999
Y0021759
Y0031919
Y0036872
Y0041952
Y0047159
Y0052112
X0068599Y0052239
Y0047032
Y0042079
Y0031919
X0057075Y00434
T15
X00641Y000345
X00691
X00741
Y001095
X00691
X00641
X00891
Y000345
X010675Y00082
X0053Y00488
T16
X0045114Y0015911
X0052186Y0008839
T17
X0063045Y0021632
Y0031919
Y0041952
Y0052112
T18
X0099045Y0021759
Y0031919
Y0041952
Y0052112
M30
