%TF.GenerationSoftware,Altium Limited,Altium Designer,21.6.4 (81)*%
G04 Layer_Color=8388736*
%FSLAX43Y43*%
%MOMM*%
%TF.SameCoordinates,00D99F87-3ADF-4980-A611-A04F0DE90361*%
%TF.FilePolarity,Positive*%
%TF.FileFunction,Other,Bottom_3D_Body*%
%TF.Part,Single*%
G01*
G75*
%TA.AperFunction,NonConductor*%
%ADD66C,0.200*%
D66*
X127575Y5625D02*
Y10525D01*
X123675Y5625D02*
X127575D01*
X123675D02*
Y10525D01*
X127575D01*
X140352Y15250D02*
Y16500D01*
X142352D01*
Y15250D02*
Y16500D01*
X140352Y15250D02*
X142352D01*
X140352Y12575D02*
Y13825D01*
X142352D01*
Y12575D02*
Y13825D01*
X140352Y12575D02*
X142352D01*
X39700Y12850D02*
X40950D01*
Y10850D02*
Y12850D01*
X39700Y10850D02*
X40950D01*
X39700D02*
Y12850D01*
X61474Y3072D02*
Y4322D01*
X63474D01*
Y3072D02*
Y4322D01*
X61474Y3072D02*
X63474D01*
X113355Y53450D02*
X114605D01*
X113355D02*
Y55450D01*
X114605D01*
Y53450D02*
Y55450D01*
X123175Y11725D02*
Y12975D01*
X125175D01*
Y11725D02*
Y12975D01*
X123175Y11725D02*
X125175D01*
X71607Y3850D02*
Y5100D01*
X69607Y3850D02*
X71607D01*
X69607D02*
Y5100D01*
X71607D01*
X79471Y13051D02*
X80721D01*
X79471D02*
Y15051D01*
X80721D01*
Y13051D02*
Y15051D01*
X71632Y6675D02*
Y7925D01*
X69632Y6675D02*
X71632D01*
X69632D02*
Y7925D01*
X71632D01*
X71607Y1100D02*
Y2350D01*
X69607Y1100D02*
X71607D01*
X69607D02*
Y2350D01*
X71607D01*
%TF.MD5,2a3e75792b0479f486f8f863a714d748*%
M02*
