%TF.GenerationSoftware,Altium Limited,Altium Designer,21.6.4 (81)*%
G04 Layer_Color=8388736*
%FSLAX43Y43*%
%MOMM*%
%TF.SameCoordinates,45A01B4D-518A-40F9-B883-98BDF5CD3DE6*%
%TF.FilePolarity,Positive*%
%TF.FileFunction,Other,Bottom_3D_Body*%
%TF.Part,Single*%
G01*
G75*
%TA.AperFunction,NonConductor*%
%ADD102C,0.200*%
D102*
X125305Y42700D02*
Y44100D01*
Y42700D02*
X128305D01*
Y44100D01*
X125305D02*
X128305D01*
X124280Y42425D02*
Y44425D01*
X123030D02*
X124280D01*
X123030Y42425D02*
Y44425D01*
Y42425D02*
X124280D01*
X55050Y26300D02*
X57050D01*
Y27550D01*
X55050D02*
X57050D01*
X55050Y26300D02*
Y27550D01*
X39949Y53874D02*
X41949D01*
X39949Y52624D02*
Y53874D01*
Y52624D02*
X41949D01*
Y53874D01*
X127655Y29175D02*
Y34075D01*
X123755Y29175D02*
X127655D01*
X123755D02*
Y34075D01*
X127655D01*
X134022Y39675D02*
X135272D01*
Y37675D02*
Y39675D01*
X134022Y37675D02*
X135272D01*
X134022D02*
Y39675D01*
X131347D02*
X132597D01*
Y37675D02*
Y39675D01*
X131347Y37675D02*
X132597D01*
X131347D02*
Y39675D01*
X56275Y18875D02*
X57525D01*
X56275D02*
Y20875D01*
X57525D01*
Y18875D02*
Y20875D01*
X32304Y51850D02*
X33554D01*
Y49850D02*
Y51850D01*
X32304Y49850D02*
X33554D01*
X32304D02*
Y51850D01*
X113381Y14899D02*
X114265Y14015D01*
X112851Y12601D02*
X114265Y14015D01*
X111967Y13484D02*
X112851Y12601D01*
X111967Y13484D02*
X113381Y14899D01*
X123480Y35100D02*
Y36350D01*
X125480D01*
Y35100D02*
Y36350D01*
X123480Y35100D02*
X125480D01*
X35043Y45551D02*
X36293D01*
X35043D02*
Y47551D01*
X36293D01*
Y45551D02*
Y47551D01*
X40775Y42149D02*
Y43399D01*
X42775D01*
Y42149D02*
Y43399D01*
X40775Y42149D02*
X42775D01*
X32293Y45551D02*
X33543D01*
X32293D02*
Y47551D01*
X33543D01*
Y45551D02*
Y47551D01*
%TF.MD5,52ef6201d915df0cbe62bb7d9a75d5bb*%
M02*
