%TF.GenerationSoftware,Altium Limited,Altium Designer,21.6.4 (81)*%
G04 Layer_Color=32896*
%FSLAX43Y43*%
%MOMM*%
%TF.SameCoordinates,45A01B4D-518A-40F9-B883-98BDF5CD3DE6*%
%TF.FilePolarity,Positive*%
%TF.FileFunction,Other,Bottom_Component_Center*%
%TF.Part,Single*%
G01*
G75*
%TA.AperFunction,NonConductor*%
%ADD139C,0.100*%
D139*
X126805Y42900D02*
Y43900D01*
X126305Y43400D02*
X127305D01*
X123655Y42925D02*
Y43925D01*
X123155Y43425D02*
X124155D01*
X55550Y26925D02*
X56550D01*
X56050Y26425D02*
Y27425D01*
X40449Y53249D02*
X41449D01*
X40949Y52749D02*
Y53749D01*
X125705Y31125D02*
Y32125D01*
X125205Y31625D02*
X126205D01*
X134147Y38675D02*
X135147D01*
X134647Y38175D02*
Y39175D01*
X131472Y38675D02*
X132472D01*
X131972Y38175D02*
Y39175D01*
X56400Y19875D02*
X57400D01*
X56900Y19375D02*
Y20375D01*
X32429Y50850D02*
X33429D01*
X32929Y50350D02*
Y51350D01*
X112762Y14103D02*
X113469Y13396D01*
X112762D02*
X113469Y14103D01*
X124480Y35225D02*
Y36225D01*
X123980Y35725D02*
X124980D01*
X35168Y46551D02*
X36168D01*
X35668Y46051D02*
Y47051D01*
X41775Y42274D02*
Y43274D01*
X41275Y42774D02*
X42275D01*
X32418Y46551D02*
X33418D01*
X32918Y46051D02*
Y47051D01*
%TF.MD5,a707ed60ee3dd37732e5dda261916be0*%
M02*
