%TF.GenerationSoftware,Altium Limited,Altium Designer,21.6.4 (81)*%
G04 Layer_Color=128*
%FSLAX43Y43*%
%MOMM*%
%TF.SameCoordinates,B74C4539-8C7F-4592-B280-35368C4CFDA8*%
%TF.FilePolarity,Positive*%
%TF.FileFunction,Paste,Bot*%
%TF.Part,Single*%
G01*
G75*
%TA.AperFunction,SMDPad,CuDef*%
%ADD14R,1.600X1.000*%
%ADD42R,1.800X1.450*%
%ADD43R,1.000X0.700*%
G04:AMPARAMS|DCode=44|XSize=1.874mm|YSize=0.543mm|CornerRadius=0.272mm|HoleSize=0mm|Usage=FLASHONLY|Rotation=180.000|XOffset=0mm|YOffset=0mm|HoleType=Round|Shape=RoundedRectangle|*
%AMROUNDEDRECTD44*
21,1,1.874,0.000,0,0,180.0*
21,1,1.331,0.543,0,0,180.0*
1,1,0.543,-0.665,0.000*
1,1,0.543,0.665,0.000*
1,1,0.543,0.665,0.000*
1,1,0.543,-0.665,0.000*
%
%ADD44ROUNDEDRECTD44*%
%ADD45R,1.874X0.543*%
%ADD46R,1.508X1.207*%
%ADD47R,1.500X0.600*%
%ADD48R,2.300X2.000*%
%ADD49R,1.505X1.556*%
%ADD50R,1.207X1.508*%
%ADD51R,1.556X1.505*%
%ADD52R,1.000X1.600*%
%ADD53R,2.000X2.300*%
%ADD54R,1.050X0.600*%
%ADD55R,1.900X0.950*%
%ADD56R,1.900X3.250*%
D14*
X23199Y16187D02*
D03*
Y12987D02*
D03*
X17449Y12962D02*
D03*
Y16162D02*
D03*
X20324Y12962D02*
D03*
Y16162D02*
D03*
D42*
X135725Y47293D02*
D03*
X129175D02*
D03*
X135725Y49743D02*
D03*
X129175D02*
D03*
X144500Y47275D02*
D03*
X137950D02*
D03*
X144500Y49725D02*
D03*
X137950D02*
D03*
X135725Y42975D02*
D03*
X129175D02*
D03*
X135725Y45425D02*
D03*
X129175D02*
D03*
X144500Y42975D02*
D03*
X137950D02*
D03*
X144500Y45425D02*
D03*
X137950D02*
D03*
D43*
X115625Y8375D02*
D03*
X112125D02*
D03*
X132192Y22825D02*
D03*
X135692D02*
D03*
Y25153D02*
D03*
X132192D02*
D03*
X112175Y5978D02*
D03*
X115675D02*
D03*
D44*
X123309Y9980D02*
D03*
Y8710D02*
D03*
Y7440D02*
D03*
Y6170D02*
D03*
X127941D02*
D03*
Y7440D02*
D03*
Y8710D02*
D03*
D45*
Y9980D02*
D03*
D46*
X43350Y2452D02*
D03*
Y4553D02*
D03*
X93675Y4141D02*
D03*
Y6242D02*
D03*
X47400Y46651D02*
D03*
Y44549D02*
D03*
X71530Y35651D02*
D03*
Y33549D02*
D03*
X46025Y4626D02*
D03*
Y2524D02*
D03*
X134600Y11676D02*
D03*
Y9574D02*
D03*
X109550Y5767D02*
D03*
Y3666D02*
D03*
X74382Y5299D02*
D03*
Y7401D02*
D03*
X77321Y15087D02*
D03*
Y12985D02*
D03*
D47*
X74779Y13355D02*
D03*
Y12085D02*
D03*
Y10815D02*
D03*
Y9545D02*
D03*
X69379Y13355D02*
D03*
Y12085D02*
D03*
Y10815D02*
D03*
Y9545D02*
D03*
D48*
X117325Y55363D02*
D03*
Y51063D02*
D03*
X120525Y51050D02*
D03*
Y55350D02*
D03*
X44850Y12903D02*
D03*
Y8603D02*
D03*
D49*
X142252Y15875D02*
D03*
X140451D02*
D03*
X142252Y13200D02*
D03*
X140451D02*
D03*
X63375Y3697D02*
D03*
X61573D02*
D03*
X125076Y12350D02*
D03*
X123274D02*
D03*
X69706Y4475D02*
D03*
X71508D02*
D03*
X69731Y7300D02*
D03*
X71533D02*
D03*
X69706Y1725D02*
D03*
X71508D02*
D03*
D50*
X134725Y16800D02*
D03*
X132623D02*
D03*
X134725Y19450D02*
D03*
X132623D02*
D03*
X142402Y18375D02*
D03*
X140301D02*
D03*
X35112Y7751D02*
D03*
X33010D02*
D03*
X64578Y38651D02*
D03*
X66680D02*
D03*
X107624Y8475D02*
D03*
X109726D02*
D03*
X61423Y6400D02*
D03*
X63525D02*
D03*
X56674Y2425D02*
D03*
X58776D02*
D03*
X22902Y9576D02*
D03*
X25003D02*
D03*
X22974Y4976D02*
D03*
X25076D02*
D03*
X134743Y14289D02*
D03*
X132641D02*
D03*
X142402Y10675D02*
D03*
X140301D02*
D03*
X77624Y10400D02*
D03*
X79726D02*
D03*
X93801Y1600D02*
D03*
X91699D02*
D03*
D51*
X40325Y10949D02*
D03*
Y12751D02*
D03*
X113980Y55351D02*
D03*
Y53549D02*
D03*
X80096Y14952D02*
D03*
Y13150D02*
D03*
D52*
X25625Y16187D02*
D03*
X28825D02*
D03*
D53*
X59200Y9475D02*
D03*
X63500D02*
D03*
X51700Y53600D02*
D03*
X47400D02*
D03*
D54*
X56850Y5000D02*
D03*
Y6900D02*
D03*
X59150Y5950D02*
D03*
X55000Y6900D02*
D03*
Y5000D02*
D03*
X52700Y5950D02*
D03*
D55*
X19925Y9576D02*
D03*
Y7276D02*
D03*
Y4976D02*
D03*
D56*
X13825Y7276D02*
D03*
%TF.MD5,f0a92acdbf2ffc57f63f5b4ad6d782fa*%
M02*
