%TF.GenerationSoftware,Altium Limited,Altium Designer,21.6.4 (81)*%
G04 Layer_Physical_Order=2*
G04 Layer_Color=16711680*
%FSLAX43Y43*%
%MOMM*%
%TF.SameCoordinates,00D99F87-3ADF-4980-A611-A04F0DE90361*%
%TF.FilePolarity,Positive*%
%TF.FileFunction,Copper,L2,Bot,Signal*%
%TF.Part,Single*%
G01*
G75*
%TA.AperFunction,SMDPad,CuDef*%
%ADD14R,1.600X1.000*%
%TA.AperFunction,Conductor*%
%ADD15C,2.000*%
%ADD16C,3.000*%
%ADD17C,1.000*%
%ADD18C,0.700*%
%ADD19C,0.500*%
%ADD20C,1.500*%
%ADD21C,0.800*%
%TA.AperFunction,ComponentPad*%
%ADD25C,2.286*%
%ADD26C,2.000*%
%ADD27R,1.500X1.500*%
%ADD28C,1.500*%
%ADD29R,1.200X1.200*%
%ADD30C,1.200*%
%ADD31C,1.250*%
%ADD32R,1.250X1.250*%
%ADD33O,2.286X1.778*%
%ADD34C,4.572*%
%ADD35C,1.524*%
%ADD36O,3.048X2.794*%
%ADD37C,1.950*%
G04:AMPARAMS|DCode=38|XSize=1.95mm|YSize=1.95mm|CornerRadius=0.488mm|HoleSize=0mm|Usage=FLASHONLY|Rotation=270.000|XOffset=0mm|YOffset=0mm|HoleType=Round|Shape=RoundedRectangle|*
%AMROUNDEDRECTD38*
21,1,1.950,0.975,0,0,270.0*
21,1,0.975,1.950,0,0,270.0*
1,1,0.975,-0.488,-0.488*
1,1,0.975,-0.488,0.488*
1,1,0.975,0.488,0.488*
1,1,0.975,0.488,-0.488*
%
%ADD38ROUNDEDRECTD38*%
%ADD39C,4.000*%
%TA.AperFunction,ViaPad*%
%ADD40C,0.800*%
%TA.AperFunction,SMDPad,CuDef*%
%ADD41R,1.800X1.450*%
%ADD42R,1.000X0.700*%
G04:AMPARAMS|DCode=43|XSize=1.874mm|YSize=0.543mm|CornerRadius=0.272mm|HoleSize=0mm|Usage=FLASHONLY|Rotation=180.000|XOffset=0mm|YOffset=0mm|HoleType=Round|Shape=RoundedRectangle|*
%AMROUNDEDRECTD43*
21,1,1.874,0.000,0,0,180.0*
21,1,1.331,0.543,0,0,180.0*
1,1,0.543,-0.665,0.000*
1,1,0.543,0.665,0.000*
1,1,0.543,0.665,0.000*
1,1,0.543,-0.665,0.000*
%
%ADD43ROUNDEDRECTD43*%
%ADD44R,1.874X0.543*%
%ADD45R,1.508X1.207*%
%ADD46R,1.500X0.600*%
%ADD47R,2.300X2.000*%
%ADD48R,1.505X1.556*%
%ADD49R,1.207X1.508*%
%ADD50R,1.556X1.505*%
%ADD51R,1.000X1.600*%
%ADD52R,2.000X2.300*%
%ADD53R,1.050X0.600*%
%ADD54R,1.900X0.950*%
%ADD55R,1.900X3.250*%
%TA.AperFunction,Conductor*%
%ADD56R,4.075X4.036*%
%ADD57R,4.075X3.975*%
%ADD58R,5.900X2.750*%
%ADD59R,5.357X2.250*%
%ADD60R,5.900X2.250*%
%ADD61R,2.150X11.691*%
%ADD62R,2.875X10.775*%
%ADD63R,20.701X11.557*%
%ADD64R,7.400X4.342*%
G36*
X120161Y21207D02*
X120338Y20900D01*
X120588Y20650D01*
X120894Y20474D01*
X121236Y20382D01*
X121589D01*
X121931Y20474D01*
X122237Y20650D01*
X122286Y20699D01*
X122393Y20626D01*
Y19000D01*
X124043D01*
Y19264D01*
X125085D01*
X127529Y16820D01*
X127464Y16706D01*
X127327Y16743D01*
X126973D01*
X126632Y16651D01*
X126530Y16593D01*
X125027Y18097D01*
X124845Y18218D01*
X124630Y18261D01*
X124043D01*
Y18525D01*
X122393D01*
Y16875D01*
X122657D01*
Y13328D01*
X122322D01*
Y13040D01*
X122265Y13019D01*
X122195Y13018D01*
X122030Y13304D01*
X121780Y13554D01*
X121473Y13731D01*
X121132Y13822D01*
X120778D01*
X120437Y13731D01*
X120152Y13566D01*
X120025Y13609D01*
Y21224D01*
X120152Y21240D01*
X120161Y21207D01*
D02*
G37*
G36*
X140080Y59576D02*
X140020Y53636D01*
X142937Y50822D01*
X142889Y50704D01*
X142725D01*
X142647Y50688D01*
X142581Y50644D01*
X142537Y50578D01*
X142521Y50500D01*
Y47482D01*
Y44732D01*
Y39725D01*
X142537Y39647D01*
X142581Y39581D01*
X142647Y39537D01*
X142725Y39521D01*
X145600D01*
X145678Y39537D01*
X145692Y39546D01*
X146271D01*
Y30754D01*
X143093D01*
X143015Y30738D01*
X142949Y30694D01*
X142905Y30628D01*
X142889Y30550D01*
Y28300D01*
X142905Y28222D01*
X142949Y28156D01*
X143015Y28112D01*
X143093Y28096D01*
X146475D01*
X146475Y28096D01*
X148625D01*
X148703Y28112D01*
X148769Y28156D01*
X148813Y28222D01*
X148829Y28300D01*
Y39658D01*
X148838Y39672D01*
X148854Y39750D01*
Y42000D01*
X148838Y42078D01*
X148794Y42144D01*
X148728Y42188D01*
X148650Y42204D01*
X145804D01*
Y44528D01*
X148625D01*
X148703Y44544D01*
X148769Y44588D01*
X148813Y44654D01*
X148829Y44732D01*
Y47482D01*
X148813Y47560D01*
X148769Y47627D01*
X148703Y47671D01*
X148625Y47686D01*
X145804D01*
Y50175D01*
X149667Y50175D01*
X149667Y10010D01*
X149576Y9920D01*
X143636Y9980D01*
X140175Y6393D01*
X140175Y333D01*
X110177Y333D01*
X110143Y460D01*
X110300Y551D01*
X110550Y801D01*
X110726Y1107D01*
X110818Y1449D01*
Y1802D01*
X110726Y2144D01*
X110550Y2450D01*
X110300Y2700D01*
X110239Y2735D01*
X110242Y2862D01*
X110504D01*
Y4469D01*
X108596D01*
Y2862D01*
X108677D01*
X108711Y2735D01*
X108650Y2700D01*
X108400Y2450D01*
X108224Y2144D01*
X108132Y1802D01*
Y1449D01*
X108224Y1107D01*
X108400Y801D01*
X108650Y551D01*
X108807Y460D01*
X108773Y333D01*
X100725Y333D01*
Y3279D01*
X100784Y3287D01*
X100889Y3289D01*
X100915Y3294D01*
X100942Y3296D01*
X101022Y3319D01*
X101071Y3325D01*
X101126Y3348D01*
X101225Y3375D01*
X101249Y3387D01*
X101274Y3396D01*
X101347Y3439D01*
X101394Y3459D01*
X101440Y3494D01*
X101527Y3545D01*
X101547Y3563D01*
X101569Y3578D01*
X101630Y3640D01*
X101671Y3671D01*
X101706Y3717D01*
X101776Y3787D01*
X101790Y3809D01*
X101808Y3829D01*
X101852Y3907D01*
X101884Y3949D01*
X101906Y4001D01*
X101954Y4085D01*
X101962Y4110D01*
X101974Y4134D01*
X101997Y4222D01*
X102018Y4271D01*
X102025Y4327D01*
X102049Y4418D01*
X102051Y4445D01*
X102056Y4471D01*
Y4564D01*
X102063Y4618D01*
X102058D01*
Y10225D01*
X116710D01*
X116749Y10104D01*
X116749Y10098D01*
X115601Y8949D01*
X115584Y8925D01*
X114925D01*
Y7825D01*
X116325D01*
Y8264D01*
X116349Y8299D01*
X116374Y8425D01*
X117265Y9316D01*
X120990D01*
X121912Y8394D01*
X122061Y8294D01*
X122237Y8259D01*
X122491D01*
X122644Y8229D01*
X123974D01*
X124158Y8266D01*
X124314Y8370D01*
X124419Y8526D01*
X124455Y8710D01*
X124419Y8894D01*
X124314Y9050D01*
X124158Y9154D01*
X123974Y9191D01*
X122644D01*
X122574Y9177D01*
X122427D01*
X121609Y9995D01*
Y11306D01*
X121780Y11404D01*
X122030Y11654D01*
X122195Y11941D01*
X122265Y11939D01*
X122322Y11918D01*
Y11372D01*
X122713D01*
Y10461D01*
X122644D01*
X122460Y10424D01*
X122304Y10320D01*
X122199Y10164D01*
X122163Y9980D01*
X122199Y9796D01*
X122304Y9640D01*
X122460Y9536D01*
X122644Y9499D01*
X123267D01*
X123274Y9498D01*
X123282Y9499D01*
X123974D01*
X124158Y9536D01*
X124314Y9640D01*
X124419Y9796D01*
X124455Y9980D01*
X124419Y10164D01*
X124314Y10320D01*
X124158Y10424D01*
X123974Y10461D01*
X123835D01*
Y11372D01*
X124227D01*
Y11422D01*
X124926D01*
Y12350D01*
Y13278D01*
X124227D01*
Y13328D01*
X123778D01*
Y16875D01*
X124043D01*
Y17139D01*
X124398D01*
X125839Y15698D01*
X125807Y15577D01*
Y15223D01*
X125899Y14882D01*
X126075Y14575D01*
X126325Y14325D01*
X126632Y14149D01*
X126973Y14057D01*
X127327D01*
X127668Y14149D01*
X127689Y14160D01*
X127957Y13893D01*
X128138Y13771D01*
X128353Y13729D01*
X131838D01*
Y13335D01*
X133445D01*
Y15243D01*
X131838D01*
Y14850D01*
X128585D01*
X128434Y15002D01*
X128493Y15223D01*
Y15577D01*
X128436Y15789D01*
X128495Y15844D01*
X128544Y15875D01*
X128747Y15835D01*
X132370D01*
X132424Y15846D01*
X133427D01*
Y17754D01*
X131820D01*
Y16957D01*
X130834D01*
X130798Y17066D01*
X130797Y17084D01*
X130938Y17224D01*
X131040Y17401D01*
X131080Y17550D01*
X129555D01*
X129595Y17401D01*
X129697Y17224D01*
X129838Y17084D01*
X129837Y17066D01*
X129801Y16957D01*
X128979D01*
X125714Y20222D01*
X125532Y20343D01*
X125318Y20386D01*
X124043D01*
Y20650D01*
X124043D01*
X124034Y20777D01*
X125521Y22264D01*
X132192D01*
X132246Y22275D01*
X132892D01*
Y23375D01*
X132753D01*
Y24603D01*
X132892D01*
Y25703D01*
X132246D01*
X132192Y25714D01*
X132138Y25703D01*
X131492D01*
Y24603D01*
X131631D01*
Y23386D01*
X125289D01*
X125074Y23343D01*
X124892Y23222D01*
X123024Y21353D01*
X122902Y21172D01*
X122860Y20957D01*
Y20650D01*
X122416D01*
X122343Y20757D01*
X122487Y20900D01*
X122664Y21207D01*
X122756Y21548D01*
Y21902D01*
X122664Y22243D01*
X122487Y22550D01*
X122237Y22800D01*
X121931Y22976D01*
X121589Y23068D01*
X121236D01*
X120894Y22976D01*
X120588Y22800D01*
X120338Y22550D01*
X120161Y22243D01*
X120152Y22210D01*
X120025Y22226D01*
Y24016D01*
X121231Y25222D01*
X121423Y25473D01*
X121544Y25765D01*
X121585Y26078D01*
Y49850D01*
X121875D01*
Y52250D01*
X119175D01*
Y50879D01*
X119165Y50800D01*
Y47973D01*
X118547D01*
X118501Y48100D01*
X118576Y48232D01*
X118668Y48573D01*
Y48927D01*
X118576Y49268D01*
X118485Y49426D01*
Y49863D01*
X118675D01*
Y52263D01*
X115975D01*
Y49863D01*
X116065D01*
Y49235D01*
X115982Y48927D01*
Y48573D01*
X116065Y48265D01*
Y47973D01*
X100725D01*
Y59667D01*
X139990Y59667D01*
X140080Y59576D01*
D02*
G37*
%LPC*%
G36*
X114908Y56253D02*
X114130D01*
Y55501D01*
X114908D01*
Y56253D01*
D02*
G37*
G36*
X113830D02*
X113052D01*
Y55501D01*
X113830D01*
Y56253D01*
D02*
G37*
G36*
X137620Y55993D02*
X137600D01*
Y54850D01*
X138743D01*
Y54870D01*
X138655Y55199D01*
X138485Y55494D01*
X138244Y55735D01*
X137949Y55905D01*
X137620Y55993D01*
D02*
G37*
G36*
X137300D02*
X137280D01*
X136951Y55905D01*
X136656Y55735D01*
X136415Y55494D01*
X136245Y55199D01*
X136157Y54870D01*
Y54850D01*
X137300D01*
Y55993D01*
D02*
G37*
G36*
X118675Y56563D02*
X115975D01*
Y55485D01*
X115035Y54545D01*
X114908Y54598D01*
Y55201D01*
X113980D01*
X113052D01*
Y54502D01*
X113002D01*
Y53609D01*
X112993Y53547D01*
Y51779D01*
X112800Y51586D01*
X112624Y51280D01*
X112532Y50938D01*
Y50585D01*
X112624Y50243D01*
X112800Y49937D01*
X113050Y49687D01*
X113357Y49510D01*
X113698Y49418D01*
X114052D01*
X114393Y49510D01*
X114700Y49687D01*
X114950Y49937D01*
X115126Y50243D01*
X115218Y50585D01*
Y50938D01*
X115126Y51280D01*
X114950Y51586D01*
X114910Y51626D01*
Y52591D01*
X115394D01*
X115642Y52624D01*
X115873Y52719D01*
X116072Y52872D01*
X117363Y54163D01*
X118675D01*
Y54398D01*
X119175D01*
Y54150D01*
X121875D01*
Y56550D01*
X119175D01*
Y56315D01*
X118675D01*
Y56563D01*
D02*
G37*
G36*
X138743Y54550D02*
X137600D01*
Y53407D01*
X137620D01*
X137949Y53495D01*
X138244Y53665D01*
X138485Y53906D01*
X138655Y54201D01*
X138743Y54530D01*
Y54550D01*
D02*
G37*
G36*
X137300D02*
X136157D01*
Y54530D01*
X136245Y54201D01*
X136415Y53906D01*
X136656Y53665D01*
X136951Y53495D01*
X137280Y53407D01*
X137300D01*
Y54550D01*
D02*
G37*
G36*
X131526Y54100D02*
X131525D01*
Y53100D01*
X132525D01*
Y53101D01*
X132447Y53394D01*
X132295Y53656D01*
X132081Y53870D01*
X131819Y54022D01*
X131526Y54100D01*
D02*
G37*
G36*
X131225D02*
X131224D01*
X130931Y54022D01*
X130669Y53870D01*
X130455Y53656D01*
X130303Y53394D01*
X130225Y53101D01*
Y53100D01*
X131225D01*
Y54100D01*
D02*
G37*
G36*
X132525Y52800D02*
X131525D01*
Y51800D01*
X131526D01*
X131819Y51878D01*
X132081Y52030D01*
X132295Y52244D01*
X132447Y52506D01*
X132525Y52799D01*
Y52800D01*
D02*
G37*
G36*
X131225D02*
X130225D01*
Y52799D01*
X130303Y52506D01*
X130455Y52244D01*
X130669Y52030D01*
X130931Y51878D01*
X131224Y51800D01*
X131225D01*
Y52800D01*
D02*
G37*
G36*
X126533Y54150D02*
X126217D01*
X125912Y54068D01*
X125638Y53910D01*
X125415Y53687D01*
X125257Y53413D01*
X125175Y53108D01*
Y52792D01*
X125257Y52487D01*
X125415Y52213D01*
X125638Y51990D01*
X125912Y51832D01*
X126217Y51750D01*
X126533D01*
X126838Y51832D01*
X127112Y51990D01*
X127335Y52213D01*
X127493Y52487D01*
X127575Y52792D01*
Y53108D01*
X127493Y53413D01*
X127335Y53687D01*
X127112Y53910D01*
X126838Y54068D01*
X126533Y54150D01*
D02*
G37*
G36*
X130225Y50618D02*
X129325D01*
Y49893D01*
X130225D01*
Y50618D01*
D02*
G37*
G36*
X129025D02*
X128125D01*
Y49893D01*
X129025D01*
Y50618D01*
D02*
G37*
G36*
X130225Y49593D02*
X129325D01*
Y48868D01*
X130225D01*
Y49593D01*
D02*
G37*
G36*
X129025D02*
X128125D01*
Y48868D01*
X129025D01*
Y49593D01*
D02*
G37*
G36*
X130225Y48168D02*
X129325D01*
Y47443D01*
X130225D01*
Y48168D01*
D02*
G37*
G36*
X129025D02*
X128125D01*
Y47443D01*
X129025D01*
Y48168D01*
D02*
G37*
G36*
X130225Y47143D02*
X128125D01*
Y46427D01*
X128125Y46418D01*
Y46300D01*
X128125Y46291D01*
Y45575D01*
X130225D01*
Y46291D01*
X130225Y46300D01*
Y46418D01*
X130225Y46427D01*
Y47143D01*
D02*
G37*
G36*
Y45275D02*
X129325D01*
Y44550D01*
X130225D01*
Y45275D01*
D02*
G37*
G36*
X129025D02*
X128125D01*
Y44550D01*
X129025D01*
Y45275D01*
D02*
G37*
G36*
X130225Y43850D02*
X129325D01*
Y43125D01*
X130225D01*
Y43850D01*
D02*
G37*
G36*
X129025D02*
X128125D01*
Y43125D01*
X129025D01*
Y43850D01*
D02*
G37*
G36*
X130225Y42825D02*
X129325D01*
Y42100D01*
X130225D01*
Y42825D01*
D02*
G37*
G36*
X129025D02*
X128125D01*
Y42100D01*
X129025D01*
Y42825D01*
D02*
G37*
G36*
X138825Y50704D02*
X134750D01*
X134672Y50688D01*
X134641Y50668D01*
X134625D01*
Y50657D01*
X134606Y50644D01*
X134562Y50578D01*
X134546Y50500D01*
Y46525D01*
X134562Y46447D01*
X134625Y46350D01*
Y46106D01*
X134621Y46086D01*
Y42050D01*
X134637Y41972D01*
X134681Y41906D01*
X134747Y41862D01*
X134825Y41846D01*
X138900D01*
X138978Y41862D01*
X139044Y41906D01*
X139088Y41972D01*
X139104Y42050D01*
Y46086D01*
X139088Y46164D01*
X139050Y46222D01*
Y46350D01*
X139050D01*
X139050Y46477D01*
Y48200D01*
X139029D01*
Y48800D01*
X139050D01*
Y50650D01*
X138961D01*
X138903Y50688D01*
X138825Y50704D01*
D02*
G37*
G36*
X131431Y40523D02*
X131430D01*
Y39523D01*
X132430D01*
Y39524D01*
X132352Y39817D01*
X132200Y40079D01*
X131986Y40293D01*
X131724Y40445D01*
X131431Y40523D01*
D02*
G37*
G36*
X131130D02*
X131129D01*
X130836Y40445D01*
X130574Y40293D01*
X130360Y40079D01*
X130208Y39817D01*
X130130Y39524D01*
Y39523D01*
X131130D01*
Y40523D01*
D02*
G37*
G36*
X132430Y39223D02*
X131430D01*
Y38223D01*
X131431D01*
X131724Y38301D01*
X131986Y38453D01*
X132200Y38667D01*
X132352Y38929D01*
X132430Y39222D01*
Y39223D01*
D02*
G37*
G36*
X131130D02*
X130130D01*
Y39222D01*
X130208Y38929D01*
X130360Y38667D01*
X130574Y38453D01*
X130836Y38301D01*
X131129Y38223D01*
X131130D01*
Y39223D01*
D02*
G37*
G36*
X126280Y40583D02*
X126201Y40573D01*
X126122D01*
X126045Y40552D01*
X125967Y40542D01*
X125893Y40512D01*
X125817Y40491D01*
X125748Y40452D01*
X125675Y40421D01*
X125612Y40373D01*
X125543Y40333D01*
X125487Y40277D01*
X125424Y40229D01*
X125376Y40166D01*
X125320Y40110D01*
X125280Y40041D01*
X125232Y39978D01*
X125201Y39905D01*
X125162Y39836D01*
X125141Y39760D01*
X125111Y39686D01*
X125101Y39608D01*
X125080Y39531D01*
Y39452D01*
X125070Y39373D01*
X125080Y39294D01*
Y39215D01*
X125101Y39138D01*
X125111Y39060D01*
X125141Y38986D01*
X125162Y38910D01*
X125201Y38841D01*
X125232Y38768D01*
X125280Y38705D01*
X125320Y38636D01*
X125376Y38580D01*
X125424Y38517D01*
X128722Y35219D01*
X128973Y35027D01*
X129265Y34906D01*
X129578Y34865D01*
X139315D01*
Y28003D01*
X139356Y27690D01*
X139477Y27398D01*
X139669Y27147D01*
X142963Y23853D01*
X142979Y23733D01*
X143048Y23566D01*
X143158Y23422D01*
X143302Y23312D01*
X143469Y23243D01*
X143649Y23219D01*
X143777D01*
X143862Y23184D01*
X144175Y23143D01*
X144488Y23184D01*
X144573Y23219D01*
X144624D01*
X144803Y23243D01*
X144971Y23312D01*
X145114Y23422D01*
X145224Y23566D01*
X145294Y23733D01*
X145317Y23913D01*
Y23975D01*
X145344Y24040D01*
X145385Y24353D01*
X145344Y24666D01*
X145317Y24731D01*
Y24888D01*
X145294Y25067D01*
X145224Y25234D01*
X145114Y25378D01*
X144971Y25488D01*
X144803Y25557D01*
X144664Y25576D01*
X141735Y28504D01*
Y34865D01*
X144095D01*
X144317Y34894D01*
X144624D01*
X144803Y34917D01*
X144971Y34987D01*
X145114Y35097D01*
X145224Y35241D01*
X145294Y35408D01*
X145317Y35587D01*
Y36562D01*
X145294Y36742D01*
X145224Y36909D01*
X145114Y37053D01*
X144971Y37163D01*
X144803Y37232D01*
X144624Y37256D01*
X144320D01*
X144095Y37285D01*
X130079D01*
X127136Y40229D01*
X127073Y40277D01*
X127017Y40333D01*
X126948Y40373D01*
X126885Y40421D01*
X126812Y40452D01*
X126743Y40491D01*
X126667Y40512D01*
X126593Y40542D01*
X126515Y40552D01*
X126438Y40573D01*
X126359D01*
X126280Y40583D01*
D02*
G37*
G36*
X130468Y20587D02*
Y19975D01*
X131080D01*
X131040Y20124D01*
X130938Y20301D01*
X130793Y20445D01*
X130617Y20547D01*
X130468Y20587D01*
D02*
G37*
G36*
X130168D02*
X130018Y20547D01*
X129842Y20445D01*
X129697Y20301D01*
X129595Y20124D01*
X129555Y19975D01*
X130168D01*
Y20587D01*
D02*
G37*
G36*
X131080Y19675D02*
X130468D01*
Y19063D01*
X130617Y19103D01*
X130793Y19205D01*
X130938Y19349D01*
X131040Y19526D01*
X131080Y19675D01*
D02*
G37*
G36*
X130168D02*
X129555D01*
X129595Y19526D01*
X129697Y19349D01*
X129842Y19205D01*
X130018Y19103D01*
X130168Y19063D01*
Y19675D01*
D02*
G37*
G36*
X132769Y21125D02*
X132531D01*
X132310Y21034D01*
X132141Y20865D01*
X132050Y20644D01*
Y20406D01*
X132049Y20404D01*
X131820D01*
Y18496D01*
X133427D01*
Y20404D01*
X133251D01*
X133250Y20406D01*
Y20644D01*
X133159Y20865D01*
X132990Y21034D01*
X132769Y21125D01*
D02*
G37*
G36*
X130468Y18462D02*
Y17850D01*
X131080D01*
X131040Y17999D01*
X130938Y18176D01*
X130793Y18320D01*
X130617Y18422D01*
X130468Y18462D01*
D02*
G37*
G36*
X130168D02*
X130018Y18422D01*
X129842Y18320D01*
X129697Y18176D01*
X129595Y17999D01*
X129555Y17850D01*
X130168D01*
Y18462D01*
D02*
G37*
G36*
X136392Y25703D02*
X134992D01*
Y24603D01*
X136392D01*
Y24694D01*
X136757D01*
X139842Y21609D01*
Y19329D01*
X139497D01*
Y17421D01*
X139842D01*
Y16853D01*
X139498D01*
Y16537D01*
X139371Y16452D01*
X139255Y16500D01*
X139017D01*
X138796Y16409D01*
X138627Y16240D01*
X138536Y16019D01*
Y15781D01*
X138627Y15560D01*
X138796Y15391D01*
X139017Y15300D01*
X139255D01*
X139371Y15348D01*
X139498Y15263D01*
Y14897D01*
X141403D01*
Y14947D01*
X142102D01*
Y15875D01*
Y16803D01*
X141403D01*
Y16853D01*
X140759D01*
Y17421D01*
X141104D01*
Y19329D01*
X140759D01*
Y21799D01*
X140725Y21975D01*
X140625Y22124D01*
X137271Y25478D01*
X137122Y25577D01*
X136947Y25612D01*
X136392D01*
Y25703D01*
D02*
G37*
G36*
X143206Y19329D02*
X141599D01*
Y17421D01*
X143206D01*
Y17916D01*
X143924D01*
X144361Y17479D01*
X144324Y17340D01*
Y17090D01*
X144388Y16848D01*
X144513Y16632D01*
X144690Y16455D01*
X144907Y16330D01*
X145149Y16265D01*
X145399D01*
X145640Y16330D01*
X145857Y16455D01*
X146034Y16632D01*
X146159Y16848D01*
X146224Y17090D01*
Y17340D01*
X146159Y17582D01*
X146034Y17798D01*
X145857Y17975D01*
X145640Y18100D01*
X145399Y18165D01*
X145149D01*
X145010Y18128D01*
X144438Y18699D01*
X144289Y18799D01*
X144114Y18834D01*
X143206D01*
Y19329D01*
D02*
G37*
G36*
X143155Y16803D02*
X142402D01*
Y16025D01*
X143155D01*
Y16803D01*
D02*
G37*
G36*
Y15725D02*
X142402D01*
Y14947D01*
X143155D01*
Y15725D01*
D02*
G37*
G36*
X145424Y15567D02*
Y14825D01*
X146165D01*
X146112Y15022D01*
X145994Y15228D01*
X145826Y15395D01*
X145621Y15514D01*
X145424Y15567D01*
D02*
G37*
G36*
X145124Y15567D02*
X144926Y15514D01*
X144721Y15395D01*
X144553Y15228D01*
X144435Y15022D01*
X144382Y14825D01*
X145124D01*
Y15567D01*
D02*
G37*
G36*
Y14525D02*
X144382D01*
X144435Y14328D01*
X144553Y14122D01*
X144721Y13955D01*
X144926Y13836D01*
X145124Y13783D01*
Y14525D01*
D02*
G37*
G36*
X146165D02*
X145424D01*
Y13783D01*
X145621Y13836D01*
X145826Y13955D01*
X145994Y14122D01*
X146112Y14328D01*
X146165Y14525D01*
D02*
G37*
G36*
X143155Y14128D02*
X142402D01*
Y13350D01*
X143155D01*
Y14128D01*
D02*
G37*
G36*
X125978Y13278D02*
X125226D01*
Y12500D01*
X125978D01*
Y13278D01*
D02*
G37*
G36*
X143155Y13050D02*
X142402D01*
Y12272D01*
X143155D01*
Y13050D01*
D02*
G37*
G36*
X125978Y12200D02*
X125226D01*
Y11422D01*
X125978D01*
Y12200D01*
D02*
G37*
G36*
X146224Y13085D02*
X144324D01*
Y11834D01*
X143624Y11134D01*
X143206D01*
Y11629D01*
X141599D01*
Y9721D01*
X143206D01*
Y10216D01*
X143814D01*
X143989Y10251D01*
X144138Y10351D01*
X144972Y11185D01*
X146224D01*
Y13085D01*
D02*
G37*
G36*
X134743Y21581D02*
X134560Y21557D01*
X134390Y21486D01*
X134244Y21374D01*
X134132Y21228D01*
X134061Y21058D01*
X134037Y20875D01*
Y20404D01*
X133922D01*
Y18496D01*
X134028D01*
Y17754D01*
X133922D01*
Y15846D01*
X134028D01*
Y15768D01*
X134037Y15700D01*
Y15243D01*
X133940D01*
Y13335D01*
X134037D01*
Y12479D01*
X133646D01*
Y10873D01*
X135554D01*
Y11357D01*
X135827D01*
X136168Y11449D01*
X136475Y11625D01*
X136725Y11875D01*
X136901Y12182D01*
X136993Y12523D01*
Y12877D01*
X136901Y13218D01*
X136725Y13525D01*
X136475Y13775D01*
X136168Y13951D01*
X135827Y14043D01*
X135546D01*
Y15243D01*
X135449D01*
Y15768D01*
X135528Y15846D01*
X135528D01*
Y17754D01*
X135440D01*
Y18496D01*
X135528D01*
Y20404D01*
X135449D01*
Y20875D01*
X135425Y21058D01*
X135354Y21228D01*
X135242Y21374D01*
X135096Y21486D01*
X134926Y21557D01*
X134743Y21581D01*
D02*
G37*
G36*
X131437Y12643D02*
X131083D01*
X130742Y12551D01*
X130435Y12375D01*
X130185Y12125D01*
X130009Y11818D01*
X129917Y11477D01*
Y11123D01*
X130008Y10782D01*
X129749Y10523D01*
X129649Y10374D01*
X129615Y10198D01*
Y9559D01*
X129224Y9169D01*
X128718D01*
X128606Y9191D01*
X127276D01*
X127092Y9154D01*
X126936Y9050D01*
X126836Y8901D01*
X126826Y8899D01*
X126709Y8952D01*
Y9146D01*
X127063Y9499D01*
X127919D01*
X127964Y9508D01*
X129078D01*
Y10452D01*
X126804D01*
Y10403D01*
X126697Y10382D01*
X126548Y10283D01*
X125926Y9660D01*
X125826Y9511D01*
X125811Y9434D01*
X125684Y9447D01*
Y9603D01*
X127053Y10972D01*
X127123D01*
X127344Y11063D01*
X127513Y11232D01*
X127604Y11453D01*
Y11691D01*
X127513Y11912D01*
X127344Y12081D01*
X127123Y12172D01*
X126885D01*
X126664Y12081D01*
X126495Y11912D01*
X126404Y11691D01*
Y11621D01*
X124901Y10117D01*
X124801Y9968D01*
X124766Y9793D01*
Y7136D01*
X124259Y6629D01*
X124085D01*
X123974Y6651D01*
X122644D01*
X122460Y6614D01*
X122304Y6510D01*
X122199Y6354D01*
X122163Y6170D01*
X122199Y5986D01*
X122304Y5830D01*
X122460Y5726D01*
X122644Y5689D01*
X123974D01*
X124085Y5711D01*
X124449D01*
X124624Y5746D01*
X124773Y5846D01*
X125549Y6622D01*
X125649Y6771D01*
X125664Y6847D01*
X125791Y6835D01*
Y6090D01*
X125085Y5384D01*
X118414D01*
X117823Y5974D01*
X117823Y5974D01*
X117820Y5978D01*
X117967Y6125D01*
X118077D01*
X118418Y6216D01*
X118725Y6393D01*
X118975Y6643D01*
X119151Y6949D01*
X119243Y7291D01*
Y7644D01*
X119151Y7986D01*
X118975Y8292D01*
X118725Y8542D01*
X118418Y8719D01*
X118077Y8811D01*
X117723D01*
X117382Y8719D01*
X117075Y8542D01*
X116825Y8292D01*
X116649Y7986D01*
X116557Y7644D01*
Y7291D01*
X116649Y6949D01*
X116825Y6643D01*
X116905Y6564D01*
X116852Y6437D01*
X116375D01*
Y6528D01*
X114975D01*
Y5428D01*
X116375D01*
Y5519D01*
X116981D01*
X117175Y5326D01*
X117175Y5326D01*
X117900Y4601D01*
X118048Y4501D01*
X118224Y4466D01*
X125275D01*
X125451Y4501D01*
X125599Y4601D01*
X126574Y5576D01*
X126674Y5724D01*
X126709Y5900D01*
Y7198D01*
X126826Y7251D01*
X126836Y7249D01*
X126936Y7100D01*
X127092Y6996D01*
X127276Y6959D01*
X128606D01*
X128718Y6981D01*
X129938D01*
X129965Y6882D01*
X130142Y6575D01*
X130392Y6325D01*
X130698Y6149D01*
X131040Y6057D01*
X131393D01*
X131735Y6149D01*
X132041Y6325D01*
X132291Y6575D01*
X132468Y6882D01*
X132559Y7223D01*
Y7577D01*
X132468Y7918D01*
X132437Y7972D01*
X133286Y8821D01*
X133646D01*
Y8771D01*
X135554D01*
Y10377D01*
X133646D01*
Y9738D01*
X133096D01*
X132920Y9703D01*
X132771Y9604D01*
X131788Y8621D01*
X131735Y8651D01*
X131393Y8743D01*
X131040D01*
X130698Y8651D01*
X130392Y8475D01*
X130142Y8225D01*
X129965Y7918D01*
X129960Y7899D01*
X128718D01*
X128606Y7921D01*
X127276D01*
X127092Y7884D01*
X126936Y7780D01*
X126836Y7631D01*
X126826Y7629D01*
X126709Y7682D01*
Y8468D01*
X126826Y8521D01*
X126836Y8519D01*
X126936Y8370D01*
X127092Y8266D01*
X127276Y8229D01*
X128606D01*
X128718Y8251D01*
X129414D01*
X129590Y8286D01*
X129739Y8386D01*
X130398Y9045D01*
X130497Y9194D01*
X130532Y9369D01*
Y10008D01*
X130634Y10110D01*
X130742Y10049D01*
X131083Y9957D01*
X131437D01*
X131778Y10049D01*
X132085Y10225D01*
X132335Y10475D01*
X132511Y10782D01*
X132603Y11123D01*
Y11477D01*
X132511Y11818D01*
X132335Y12125D01*
X132085Y12375D01*
X131778Y12551D01*
X131437Y12643D01*
D02*
G37*
G36*
X103347Y9134D02*
Y8380D01*
X104101D01*
X104047Y8582D01*
X103927Y8790D01*
X103757Y8959D01*
X103549Y9079D01*
X103347Y9134D01*
D02*
G37*
G36*
X103047D02*
X102845Y9079D01*
X102637Y8959D01*
X102467Y8790D01*
X102347Y8582D01*
X102293Y8380D01*
X103047D01*
Y9134D01*
D02*
G37*
G36*
X136420Y8733D02*
X136400D01*
Y7590D01*
X137543D01*
Y7610D01*
X137455Y7939D01*
X137285Y8234D01*
X137044Y8475D01*
X136749Y8645D01*
X136420Y8733D01*
D02*
G37*
G36*
X136100D02*
X136080D01*
X135751Y8645D01*
X135456Y8475D01*
X135215Y8234D01*
X135045Y7939D01*
X134957Y7610D01*
Y7590D01*
X136100D01*
Y8733D01*
D02*
G37*
G36*
X104101Y8080D02*
X103347D01*
Y7326D01*
X103549Y7380D01*
X103757Y7500D01*
X103927Y7670D01*
X104047Y7878D01*
X104101Y8080D01*
D02*
G37*
G36*
X103047D02*
X102293D01*
X102347Y7878D01*
X102467Y7670D01*
X102637Y7500D01*
X102845Y7380D01*
X103047Y7326D01*
Y8080D01*
D02*
G37*
G36*
X128606Y6600D02*
X128091D01*
Y6320D01*
X129007D01*
X129004Y6335D01*
X128910Y6474D01*
X128771Y6567D01*
X128606Y6600D01*
D02*
G37*
G36*
X127791D02*
X127276D01*
X127111Y6567D01*
X126972Y6474D01*
X126879Y6335D01*
X126876Y6320D01*
X127791D01*
Y6600D01*
D02*
G37*
G36*
X108427Y9429D02*
X106821D01*
Y7521D01*
X106963D01*
Y6875D01*
X106975Y6816D01*
Y6756D01*
X106998Y6700D01*
X107010Y6641D01*
X107043Y6591D01*
X107066Y6535D01*
X107109Y6493D01*
X107142Y6442D01*
X107193Y6409D01*
X107235Y6366D01*
X107291Y6343D01*
X107341Y6310D01*
X107400Y6298D01*
X107456Y6275D01*
X107516D01*
X107575Y6263D01*
X107634Y6275D01*
X107694D01*
X107750Y6298D01*
X107809Y6310D01*
X107859Y6343D01*
X107915Y6366D01*
X107957Y6409D01*
X108008Y6442D01*
X108041Y6493D01*
X108084Y6535D01*
X108107Y6591D01*
X108140Y6641D01*
X108152Y6700D01*
X108175Y6756D01*
Y6816D01*
X108187Y6875D01*
Y7521D01*
X108427D01*
Y9429D01*
D02*
G37*
G36*
X137543Y7290D02*
X136400D01*
Y6147D01*
X136420D01*
X136749Y6235D01*
X137044Y6405D01*
X137285Y6646D01*
X137455Y6941D01*
X137543Y7270D01*
Y7290D01*
D02*
G37*
G36*
X136100D02*
X134957D01*
Y7270D01*
X135045Y6941D01*
X135215Y6646D01*
X135456Y6405D01*
X135751Y6235D01*
X136080Y6147D01*
X136100D01*
Y7290D01*
D02*
G37*
G36*
X120952Y8783D02*
X120598D01*
X120257Y8691D01*
X119950Y8515D01*
X119700Y8265D01*
X119524Y7958D01*
X119432Y7617D01*
Y7263D01*
X119524Y6922D01*
X119700Y6615D01*
X119950Y6365D01*
X120257Y6189D01*
X120598Y6097D01*
X120952D01*
X121293Y6189D01*
X121600Y6365D01*
X121850Y6615D01*
X122002Y6879D01*
X123309D01*
X123524Y6922D01*
X123579Y6959D01*
X123974D01*
X124158Y6996D01*
X124314Y7100D01*
X124419Y7256D01*
X124455Y7440D01*
X124419Y7624D01*
X124314Y7780D01*
X124158Y7884D01*
X123974Y7921D01*
X123579D01*
X123524Y7958D01*
X123309Y8001D01*
X122002D01*
X121850Y8265D01*
X121600Y8515D01*
X121293Y8691D01*
X120952Y8783D01*
D02*
G37*
G36*
X129007Y6020D02*
X128091D01*
Y5740D01*
X128606D01*
X128771Y5773D01*
X128910Y5866D01*
X129004Y6005D01*
X129007Y6020D01*
D02*
G37*
G36*
X127791D02*
X126876D01*
X126879Y6005D01*
X126972Y5866D01*
X127111Y5773D01*
X127276Y5740D01*
X127791D01*
Y6020D01*
D02*
G37*
G36*
X110529Y9429D02*
X108923D01*
Y7521D01*
X108977D01*
Y6571D01*
X108596D01*
Y4964D01*
X110504D01*
Y6571D01*
X110389D01*
Y7521D01*
X110529D01*
Y7669D01*
X111469D01*
Y5978D01*
X111475Y5932D01*
Y5428D01*
X111742D01*
X111822Y5366D01*
X111992Y5296D01*
X112175Y5272D01*
X112358Y5296D01*
X112528Y5366D01*
X112608Y5428D01*
X112875D01*
Y5932D01*
X112881Y5978D01*
Y8375D01*
X112857Y8558D01*
X112825Y8635D01*
Y8925D01*
X112608D01*
X112528Y8986D01*
X112358Y9057D01*
X112175Y9081D01*
X112150Y9078D01*
X112125Y9081D01*
X110529D01*
Y9429D01*
D02*
G37*
G36*
X116110Y4051D02*
Y3465D01*
X116696D01*
X116659Y3604D01*
X116560Y3775D01*
X116421Y3915D01*
X116249Y4014D01*
X116110Y4051D01*
D02*
G37*
G36*
X113570D02*
Y3465D01*
X114156D01*
X114119Y3604D01*
X114020Y3775D01*
X113881Y3915D01*
X113709Y4014D01*
X113570Y4051D01*
D02*
G37*
G36*
X115810Y4051D02*
X115671Y4014D01*
X115499Y3915D01*
X115360Y3775D01*
X115261Y3604D01*
X115224Y3465D01*
X115810D01*
Y4051D01*
D02*
G37*
G36*
X113270D02*
X113131Y4014D01*
X112959Y3915D01*
X112820Y3775D01*
X112721Y3604D01*
X112684Y3465D01*
X113270D01*
Y4051D01*
D02*
G37*
G36*
X133860Y4033D02*
Y3447D01*
X134446D01*
X134409Y3586D01*
X134310Y3757D01*
X134171Y3897D01*
X133999Y3996D01*
X133860Y4033D01*
D02*
G37*
G36*
X133560Y4033D02*
X133421Y3996D01*
X133249Y3897D01*
X133110Y3757D01*
X133011Y3586D01*
X132974Y3447D01*
X133560D01*
Y4033D01*
D02*
G37*
G36*
X123725Y4028D02*
Y3442D01*
X124311D01*
X124274Y3581D01*
X124175Y3752D01*
X124036Y3892D01*
X123864Y3991D01*
X123725Y4028D01*
D02*
G37*
G36*
X123425Y4028D02*
X123286Y3991D01*
X123114Y3892D01*
X122975Y3752D01*
X122876Y3581D01*
X122839Y3442D01*
X123425D01*
Y4028D01*
D02*
G37*
G36*
X113270Y3165D02*
X112684D01*
X112721Y3025D01*
X112820Y2854D01*
X112959Y2715D01*
X113131Y2616D01*
X113270Y2579D01*
Y3165D01*
D02*
G37*
G36*
X115810D02*
X115224D01*
X115261Y3025D01*
X115360Y2854D01*
X115499Y2715D01*
X115671Y2616D01*
X115810Y2579D01*
Y3165D01*
D02*
G37*
G36*
X116696D02*
X116110D01*
Y2579D01*
X116249Y2616D01*
X116421Y2715D01*
X116560Y2854D01*
X116659Y3025D01*
X116696Y3165D01*
D02*
G37*
G36*
X114156D02*
X113570D01*
Y2579D01*
X113709Y2616D01*
X113881Y2715D01*
X114020Y2854D01*
X114119Y3025D01*
X114156Y3165D01*
D02*
G37*
G36*
X133560Y3147D02*
X132974D01*
X133011Y3007D01*
X133110Y2836D01*
X133249Y2697D01*
X133421Y2598D01*
X133560Y2561D01*
Y3147D01*
D02*
G37*
G36*
X134446D02*
X133860D01*
Y2561D01*
X133999Y2598D01*
X134171Y2697D01*
X134310Y2836D01*
X134409Y3007D01*
X134446Y3147D01*
D02*
G37*
G36*
X123425Y3142D02*
X122839D01*
X122876Y3002D01*
X122975Y2831D01*
X123114Y2692D01*
X123286Y2593D01*
X123425Y2556D01*
Y3142D01*
D02*
G37*
G36*
X124311D02*
X123725D01*
Y2556D01*
X123864Y2593D01*
X124036Y2692D01*
X124175Y2831D01*
X124274Y3002D01*
X124311Y3142D01*
D02*
G37*
G36*
X119300Y4115D02*
X117700D01*
Y2515D01*
X119300D01*
Y4115D01*
D02*
G37*
G36*
X136392Y23375D02*
X134992D01*
Y22275D01*
X135601D01*
X135618Y22251D01*
X136550Y21319D01*
Y15020D01*
X136585Y14844D01*
X136684Y14695D01*
X138504Y12876D01*
X138653Y12776D01*
X138828Y12741D01*
X139498D01*
Y12222D01*
X139893D01*
Y11629D01*
X139497D01*
Y9721D01*
X139842D01*
Y9370D01*
X138466Y7994D01*
X138366Y7845D01*
X138331Y7670D01*
Y4097D01*
X137990D01*
Y2497D01*
X139590D01*
Y4097D01*
X139249D01*
Y7480D01*
X140625Y8856D01*
X140725Y9005D01*
X140759Y9180D01*
Y9721D01*
X141104D01*
Y11629D01*
X140810D01*
Y12222D01*
X141403D01*
Y12272D01*
X142102D01*
Y13200D01*
Y14128D01*
X141403D01*
Y14178D01*
X139498D01*
Y13659D01*
X139018D01*
X137467Y15210D01*
Y21509D01*
X137432Y21684D01*
X137333Y21833D01*
X136392Y22774D01*
Y23375D01*
D02*
G37*
G36*
X136355Y4097D02*
X136145D01*
X135941Y4042D01*
X135759Y3937D01*
X135610Y3788D01*
X135505Y3606D01*
X135450Y3402D01*
Y3192D01*
X135505Y2988D01*
X135610Y2806D01*
X135759Y2657D01*
X135941Y2551D01*
X136145Y2497D01*
X136355D01*
X136559Y2551D01*
X136741Y2657D01*
X136890Y2806D01*
X136995Y2988D01*
X137050Y3192D01*
Y3402D01*
X136995Y3606D01*
X136890Y3788D01*
X136741Y3937D01*
X136559Y4042D01*
X136355Y4097D01*
D02*
G37*
G36*
X129455Y4092D02*
X127855D01*
Y2492D01*
X129455D01*
Y4092D01*
D02*
G37*
G36*
X126220D02*
X126010D01*
X125806Y4037D01*
X125624Y3932D01*
X125475Y3783D01*
X125370Y3601D01*
X125315Y3397D01*
Y3187D01*
X125370Y2983D01*
X125475Y2801D01*
X125624Y2652D01*
X125806Y2546D01*
X126010Y2492D01*
X126220D01*
X126424Y2546D01*
X126606Y2652D01*
X126755Y2801D01*
X126860Y2983D01*
X126915Y3187D01*
Y3397D01*
X126860Y3601D01*
X126755Y3783D01*
X126606Y3932D01*
X126424Y4037D01*
X126220Y4092D01*
D02*
G37*
%LPD*%
D14*
X23199Y16187D02*
D03*
Y12987D02*
D03*
X17449Y12962D02*
D03*
Y16162D02*
D03*
X20324Y12962D02*
D03*
Y16162D02*
D03*
D15*
X118600Y18570D02*
Y24303D01*
X113975Y13945D02*
X118600Y18570D01*
Y24303D02*
X120375Y26078D01*
Y50800D01*
X51700Y53700D02*
X60504D01*
X51700Y53600D02*
Y53700D01*
Y53477D02*
Y53600D01*
X117275Y42645D02*
Y50850D01*
X47218Y8603D02*
X47984Y7837D01*
X44850Y8603D02*
X47218D01*
X113975Y39345D02*
X117275Y42645D01*
X126280Y39373D02*
X129578Y36075D01*
X140525D01*
Y28003D02*
Y36075D01*
Y28003D02*
X144175Y24353D01*
X140525Y36075D02*
X144095D01*
X71505Y38650D02*
X78000D01*
X86555Y13970D02*
X88423D01*
X88575Y13818D01*
X60600Y53604D02*
X80793D01*
X79214Y43875D02*
X84650Y49311D01*
Y56118D01*
X75270Y43875D02*
X79214D01*
X80461Y56134D02*
X84690D01*
X47984Y7837D02*
X49641D01*
X59525Y22250D02*
Y38625D01*
Y22250D02*
X65625Y16150D01*
X71505Y38650D02*
X71530Y38625D01*
X47568Y28741D02*
X47594Y28767D01*
Y33008D01*
X43997Y37275D02*
X47594D01*
X42825Y25620D02*
Y36104D01*
Y25620D02*
X43997Y24448D01*
X42825Y36104D02*
X43997Y37275D01*
Y24448D02*
X47568D01*
D16*
X65725Y16150D02*
X69700Y20125D01*
X80400D02*
X86555Y13970D01*
X69700Y20125D02*
X80400D01*
X83441Y34366D02*
X88575D01*
X65725Y26150D02*
X75225D01*
X83441Y34366D01*
D17*
X35155Y7794D02*
X37925D01*
X37968Y7837D02*
Y9743D01*
X46865Y1725D02*
X52250D01*
X46279Y2311D02*
Y2421D01*
Y2311D02*
X46865Y1725D01*
X46025Y2524D02*
X46176D01*
X46279Y2421D01*
X112175Y5978D02*
Y8375D01*
X109683Y5871D02*
Y8331D01*
X109580Y5767D02*
X109683Y5871D01*
Y8331D02*
X109728Y8375D01*
X109550Y5767D02*
X109580D01*
X109728Y8375D02*
X112125D01*
X43386Y2488D02*
X45989D01*
X43350Y2452D02*
X43386Y2488D01*
X45989D02*
X46025Y2524D01*
X134734Y15768D02*
Y19441D01*
X134743Y19468D02*
Y20875D01*
X134725Y19450D02*
X134743Y19468D01*
X134640Y11676D02*
X134743Y11779D01*
X134600Y11676D02*
X134640D01*
X134743Y11779D02*
Y14289D01*
Y15768D01*
X134725Y19450D02*
X134734Y19441D01*
X79726Y10400D02*
X81025D01*
X35028Y7834D02*
Y9175D01*
X30635Y12227D02*
X31976D01*
X35028Y9175D01*
X19925Y7276D02*
X21890D01*
X21915Y7251D01*
X28825Y14038D02*
X30635Y12227D01*
X35028Y7834D02*
X35112Y7751D01*
X28825Y14038D02*
Y16166D01*
X23199Y16187D02*
X25625D01*
Y16187D02*
Y16487D01*
X47400Y48025D02*
Y53350D01*
Y46651D02*
Y48025D01*
X35325Y49975D02*
X42450D01*
X23199Y37849D02*
X35325Y49975D01*
X23199Y16187D02*
Y37849D01*
X42450Y45124D02*
Y49975D01*
X42450Y49975D02*
X42450Y49975D01*
X93675Y6242D02*
Y8845D01*
X88575Y13818D02*
X88702D01*
X47400Y43131D02*
Y44549D01*
X69575Y7456D02*
X69731Y7300D01*
X69575Y7456D02*
Y9349D01*
X63500Y9475D02*
X67650D01*
X63500Y9475D02*
X63500Y9475D01*
X69706Y4475D02*
Y7300D01*
X29340Y9852D02*
X31441Y7751D01*
X33010D01*
X37968Y9743D02*
X38922Y10697D01*
X40073D01*
X40325Y10949D01*
X35929Y12860D02*
X40949D01*
X69706Y1725D02*
Y4475D01*
X17449Y5977D02*
X18475Y4951D01*
X17449Y5977D02*
Y12962D01*
X18475Y4951D02*
X19626D01*
X17379Y16092D02*
X17379D01*
X20337Y12974D02*
X23187D01*
X17449Y16162D02*
X20324D01*
X25076Y4976D02*
X25138Y4914D01*
X25040Y5012D02*
X25076Y4976D01*
X25138Y4914D02*
X29278D01*
X29340Y4852D01*
X19626Y4951D02*
X19900D01*
X19925Y4976D01*
Y9576D02*
X22902D01*
X19925Y4976D02*
X22974D01*
X25040Y5012D02*
Y9540D01*
X109512Y1700D02*
Y3628D01*
X109475Y1663D02*
X109512Y1700D01*
Y3628D02*
X109550Y3666D01*
X40996Y12881D02*
X44828D01*
X40974Y12860D02*
X40996Y12881D01*
X44828D02*
X44850Y12903D01*
X71530Y35651D02*
Y38625D01*
X93675Y6242D02*
X96260D01*
X98247Y8230D01*
X59505Y38650D02*
X64577D01*
X66680D02*
X71505D01*
D18*
X123218Y19825D02*
X123421Y20028D01*
Y20957D02*
X125289Y22825D01*
X132192D01*
X123421Y20028D02*
Y20957D01*
X120775Y7440D02*
X123309D01*
X132637Y19463D02*
Y20512D01*
X132623Y19450D02*
X132637Y19463D01*
Y20512D02*
X132650Y20525D01*
X49641Y5000D02*
X55000D01*
X49968Y7837D02*
X52378Y10247D01*
X54216Y12085D01*
X55000Y6900D02*
X56850D01*
X132192Y22825D02*
Y25153D01*
X128747Y16396D02*
X132370D01*
X125318Y19825D02*
X128747Y16396D01*
X132370D02*
X132623Y16649D01*
Y16800D01*
X123218Y19825D02*
X125318D01*
X128353Y14289D02*
X132641D01*
X127242Y15400D02*
X128353Y14289D01*
X126930Y15400D02*
X127242D01*
X123218Y17700D02*
X124630D01*
X126930Y15400D01*
X76752Y1725D02*
X77714Y2686D01*
X77675Y2725D02*
Y2928D01*
X78675Y3928D01*
Y6786D01*
X71508Y1725D02*
X76752D01*
X75865Y9545D02*
X76275Y9135D01*
Y5804D02*
Y9135D01*
X75770Y5299D02*
X76275Y5804D01*
X74779Y9545D02*
X75865D01*
X74382Y5299D02*
X75770D01*
X74231D02*
X74382D01*
X123218Y12407D02*
X123274Y12350D01*
X123218Y12407D02*
Y17700D01*
X123274Y10058D02*
Y12350D01*
X71531Y31502D02*
Y33548D01*
X71530Y33549D02*
X71531Y33548D01*
Y31502D02*
X71533Y31500D01*
X52700Y5950D02*
X55700D01*
X56625Y5025D01*
Y5000D02*
Y5025D01*
X67742Y10815D02*
X69379D01*
X67675Y10775D02*
X67702D01*
X67742Y10815D01*
X77624Y7836D02*
X78675Y6786D01*
X77624Y7836D02*
Y10400D01*
X59200Y5900D02*
X59200D01*
X58776Y4051D02*
X59200Y4475D01*
X59150Y5950D02*
X59200Y5900D01*
X59200Y4475D02*
Y5900D01*
X61573Y3697D02*
X61573Y3697D01*
Y1525D02*
Y3697D01*
Y1525D02*
X61573Y1525D01*
X61200Y4070D02*
X61573Y3697D01*
X61200Y4070D02*
Y6177D01*
X56575Y2524D02*
Y4950D01*
X56625Y5000D01*
X56575Y2524D02*
X56674Y2425D01*
X54216Y12085D02*
X69379D01*
X59150Y5950D02*
X61070D01*
X59150D02*
X59200Y6000D01*
Y9475D01*
X61423Y6303D02*
Y6400D01*
X61070Y5950D02*
X61423Y6303D01*
X58776Y2425D02*
Y4051D01*
X74779Y10815D02*
X77271D01*
X73407Y4475D02*
X74231Y5299D01*
X71508Y4475D02*
X73407D01*
D19*
X115925Y8625D02*
X117075Y9775D01*
X121180D01*
X121150Y9805D02*
X122237Y8718D01*
X121150Y9805D02*
Y12284D01*
X120955Y12479D02*
X121150Y12284D01*
X117171Y5978D02*
X118000Y6807D01*
Y7125D01*
X117171Y5978D02*
X117499Y5650D01*
X115675Y5978D02*
X117171D01*
X123301Y8718D02*
X123309Y8710D01*
X122237Y8718D02*
X123301D01*
X115825Y8375D02*
X115925Y8475D01*
X115675Y8375D02*
X115825D01*
X115925Y8475D02*
Y8625D01*
X117499Y5650D02*
Y5650D01*
Y5650D02*
X118224Y4925D01*
X125275D01*
X138790Y3297D02*
Y7670D01*
X140301Y9180D02*
Y10675D01*
X138790Y7670D02*
X140301Y9180D01*
X127941Y8710D02*
X129414D01*
X130073Y9369D02*
Y10198D01*
X129414Y8710D02*
X130073Y9369D01*
Y10198D02*
X131175Y11300D01*
X131260D01*
X127941Y7440D02*
X131216D01*
X140301Y16025D02*
X140426Y15900D01*
X140301Y18375D02*
Y21799D01*
Y16025D02*
Y18375D01*
X139136Y15900D02*
X140426D01*
X140451Y15875D01*
X125225Y9793D02*
X127004Y11572D01*
X125225Y6946D02*
Y9793D01*
X127919Y9958D02*
X127941Y9980D01*
X126873Y9958D02*
X127919D01*
X126250Y9336D02*
X126873Y9958D01*
X126250Y5900D02*
Y9336D01*
X123309Y6170D02*
X124449D01*
X125225Y6946D01*
X125275Y4925D02*
X126250Y5900D01*
X137009Y15020D02*
Y21509D01*
Y15020D02*
X138828Y13200D01*
X140451D01*
X136947Y25153D02*
X140301Y21799D01*
X135692Y25153D02*
X136947D01*
X135942Y22575D02*
X137009Y21509D01*
X135842Y22825D02*
X135942Y22725D01*
Y22575D02*
Y22725D01*
X135692Y22825D02*
X135842D01*
X142402Y18375D02*
X144114D01*
X145274Y17215D01*
X143814Y10675D02*
X145274Y12135D01*
X142402Y10675D02*
X143814D01*
X140301D02*
X140352Y10726D01*
Y13101D02*
X140451Y13200D01*
X140352Y10726D02*
Y13101D01*
X133096Y9280D02*
X134305D01*
X131216Y7400D02*
X133096Y9280D01*
X134305D02*
X134600Y9574D01*
X82023Y14952D02*
X89500Y7475D01*
X80096Y14952D02*
X82023D01*
X44725Y8478D02*
X44850Y8603D01*
X77624Y10400D02*
Y10462D01*
X80096Y13150D02*
X80598Y12648D01*
X80802D02*
X91346Y2104D01*
X91346D01*
X80598Y12648D02*
X80802D01*
X91699Y1600D02*
Y1751D01*
X91346Y2104D02*
X91699Y1751D01*
X17274Y15712D02*
X17274Y15712D01*
X20199Y12837D02*
X20212Y12849D01*
X23012Y12524D02*
X23024Y12537D01*
X23037Y12550D01*
X75172Y13405D02*
Y14072D01*
X74779Y13355D02*
X75122D01*
X75172Y13405D01*
Y14072D02*
X76109Y15009D01*
X77243D01*
X77321Y15087D01*
X79960D02*
X80096Y14952D01*
X77321Y15087D02*
X79960D01*
X77321Y12985D02*
X79931D01*
X80096Y13150D01*
X76421Y12085D02*
X76816Y12481D01*
X74779Y12085D02*
X76421D01*
X76816Y12632D02*
X77170Y12985D01*
X76816Y12481D02*
Y12632D01*
X77170Y12985D02*
X77321D01*
X77271Y10815D02*
X77624Y10462D01*
D20*
X113980Y53549D02*
X115394D01*
X116925Y55080D01*
Y55113D01*
X117175Y55363D01*
X117325D01*
X117331Y55356D02*
X120519D01*
X117325Y55363D02*
X117331Y55356D01*
X120519D02*
X120525Y55350D01*
X113800Y50912D02*
X113952Y51063D01*
Y53547D01*
X84690Y56134D02*
X84700Y56125D01*
X80451Y56144D02*
X80461Y56134D01*
X88702Y13818D02*
X93675Y8845D01*
X74961Y43850D02*
X75001Y43810D01*
D21*
X46049Y4602D02*
X48523D01*
X49429Y3697D01*
X49641D01*
Y3925D02*
Y5000D01*
Y3697D02*
Y3925D01*
Y5000D02*
Y7837D01*
X43350Y4553D02*
X46025D01*
X71583Y7350D02*
X74382D01*
X71533Y7300D02*
X71583Y7350D01*
X107575Y6875D02*
Y8426D01*
X107624Y8475D01*
X71064Y13355D02*
X71533Y12886D01*
X69379Y13355D02*
X71064D01*
X71533Y7300D02*
Y12886D01*
X93738Y2998D02*
Y4078D01*
Y1663D02*
Y2998D01*
Y1663D02*
X93801Y1600D01*
X93675Y4141D02*
X93738Y4078D01*
D25*
X121412Y21725D02*
D03*
X117900Y7468D02*
D03*
X52275Y1848D02*
D03*
X120955Y12479D02*
D03*
X135650Y12700D02*
D03*
X113875Y50761D02*
D03*
X117325Y48750D02*
D03*
X120775Y7440D02*
D03*
X147175Y46150D02*
D03*
X77675Y2725D02*
D03*
X109475Y1626D02*
D03*
X82975Y7475D02*
D03*
X89500D02*
D03*
X78022Y38650D02*
D03*
X42450Y49975D02*
D03*
X52400Y10225D02*
D03*
X84700Y56125D02*
D03*
X88625Y53636D02*
D03*
X137450Y54700D02*
D03*
X61573Y1525D02*
D03*
X36215Y12837D02*
D03*
X131216Y7400D02*
D03*
X136250Y7440D02*
D03*
X127150Y15400D02*
D03*
X131260Y11300D02*
D03*
D26*
X131375Y52950D02*
D03*
X126375D02*
D03*
X49641Y3697D02*
D03*
X37641D02*
D03*
X126280Y39373D02*
D03*
X131280D02*
D03*
X29340Y9852D02*
D03*
Y4852D02*
D03*
X42450Y42024D02*
D03*
Y45124D02*
D03*
X59505Y38650D02*
D03*
X71505D02*
D03*
X15340Y25849D02*
D03*
X28340D02*
D03*
X15340Y35849D02*
D03*
X28340D02*
D03*
X34768Y24448D02*
D03*
X47568D02*
D03*
X35553Y18225D02*
D03*
X13153D02*
D03*
X47594Y33008D02*
D03*
X34794D02*
D03*
X47568Y28741D02*
D03*
X34768D02*
D03*
X34794Y37275D02*
D03*
X47594D02*
D03*
X35427Y43524D02*
D03*
X13027D02*
D03*
X74961Y43850D02*
D03*
X55961D02*
D03*
X37641Y7837D02*
D03*
X49641D02*
D03*
D27*
X145274Y12135D02*
D03*
D28*
Y14675D02*
D03*
Y17215D02*
D03*
D29*
X128655Y3292D02*
D03*
X138790Y3297D02*
D03*
X118500Y3315D02*
D03*
D30*
X126115Y3292D02*
D03*
X123575D02*
D03*
X136250Y3297D02*
D03*
X133710D02*
D03*
X115960Y3315D02*
D03*
X113420D02*
D03*
D31*
X130318Y17700D02*
D03*
Y19825D02*
D03*
D32*
X123218Y17700D02*
D03*
Y19825D02*
D03*
D33*
X80793Y56144D02*
D03*
Y53604D02*
D03*
Y51064D02*
D03*
D34*
X60600Y53604D02*
D03*
D35*
X103197Y8230D02*
D03*
X98247D02*
D03*
X47400Y48025D02*
D03*
Y43075D02*
D03*
D36*
X113975Y44298D02*
D03*
Y39345D02*
D03*
Y34138D02*
D03*
Y29058D02*
D03*
Y24105D02*
D03*
Y19025D02*
D03*
Y13945D02*
D03*
X88575Y44425D02*
D03*
Y39218D02*
D03*
Y34265D02*
D03*
Y24105D02*
D03*
Y19025D02*
D03*
Y13818D02*
D03*
D37*
X5127Y20525D02*
D03*
X144136Y41075D02*
D03*
Y29400D02*
D03*
X5068Y35825D02*
D03*
D38*
X5127Y25525D02*
D03*
X144136Y36075D02*
D03*
Y24400D02*
D03*
X5068Y40825D02*
D03*
D39*
X65725Y26150D02*
D03*
Y16150D02*
D03*
D40*
X132650Y20525D02*
D03*
X139136Y15900D02*
D03*
X134743Y20875D02*
D03*
X127004Y11572D02*
D03*
X107575Y6875D02*
D03*
X72950Y7350D02*
D03*
X81025Y10400D02*
D03*
X71533Y31500D02*
D03*
X55950Y6925D02*
D03*
X67675Y10775D02*
D03*
X126280Y13628D02*
D03*
X21915Y7251D02*
D03*
X65725Y5050D02*
D03*
X67675Y9500D02*
D03*
X93738Y2998D02*
D03*
D41*
X135725Y47293D02*
D03*
X129175D02*
D03*
X135725Y49743D02*
D03*
X129175D02*
D03*
X144500Y47275D02*
D03*
X137950D02*
D03*
X144500Y49725D02*
D03*
X137950D02*
D03*
X135725Y42975D02*
D03*
X129175D02*
D03*
X135725Y45425D02*
D03*
X129175D02*
D03*
X144500Y42975D02*
D03*
X137950D02*
D03*
X144500Y45425D02*
D03*
X137950D02*
D03*
D42*
X115625Y8375D02*
D03*
X112125D02*
D03*
X132192Y22825D02*
D03*
X135692D02*
D03*
Y25153D02*
D03*
X132192D02*
D03*
X112175Y5978D02*
D03*
X115675D02*
D03*
D43*
X123309Y9980D02*
D03*
Y8710D02*
D03*
Y7440D02*
D03*
Y6170D02*
D03*
X127941D02*
D03*
Y7440D02*
D03*
Y8710D02*
D03*
D44*
Y9980D02*
D03*
D45*
X43350Y2452D02*
D03*
Y4553D02*
D03*
X93675Y4141D02*
D03*
Y6242D02*
D03*
X47400Y46651D02*
D03*
Y44549D02*
D03*
X71530Y35651D02*
D03*
Y33549D02*
D03*
X46025Y4626D02*
D03*
Y2524D02*
D03*
X134600Y11676D02*
D03*
Y9574D02*
D03*
X109550Y5767D02*
D03*
Y3666D02*
D03*
X74382Y5299D02*
D03*
Y7401D02*
D03*
X77321Y15087D02*
D03*
Y12985D02*
D03*
D46*
X74779Y13355D02*
D03*
Y12085D02*
D03*
Y10815D02*
D03*
Y9545D02*
D03*
X69379Y13355D02*
D03*
Y12085D02*
D03*
Y10815D02*
D03*
Y9545D02*
D03*
D47*
X117325Y55363D02*
D03*
Y51063D02*
D03*
X120525Y51050D02*
D03*
Y55350D02*
D03*
X44850Y12903D02*
D03*
Y8603D02*
D03*
D48*
X142252Y15875D02*
D03*
X140451D02*
D03*
X142252Y13200D02*
D03*
X140451D02*
D03*
X63375Y3697D02*
D03*
X61573D02*
D03*
X125076Y12350D02*
D03*
X123274D02*
D03*
X69706Y4475D02*
D03*
X71508D02*
D03*
X69731Y7300D02*
D03*
X71533D02*
D03*
X69706Y1725D02*
D03*
X71508D02*
D03*
D49*
X134725Y16800D02*
D03*
X132623D02*
D03*
X134725Y19450D02*
D03*
X132623D02*
D03*
X142402Y18375D02*
D03*
X140301D02*
D03*
X35112Y7751D02*
D03*
X33010D02*
D03*
X64578Y38651D02*
D03*
X66680D02*
D03*
X107624Y8475D02*
D03*
X109726D02*
D03*
X61423Y6400D02*
D03*
X63525D02*
D03*
X56674Y2425D02*
D03*
X58776D02*
D03*
X22902Y9576D02*
D03*
X25003D02*
D03*
X22974Y4976D02*
D03*
X25076D02*
D03*
X134743Y14289D02*
D03*
X132641D02*
D03*
X142402Y10675D02*
D03*
X140301D02*
D03*
X77624Y10400D02*
D03*
X79726D02*
D03*
X93801Y1600D02*
D03*
X91699D02*
D03*
D50*
X40325Y10949D02*
D03*
Y12751D02*
D03*
X113980Y55351D02*
D03*
Y53549D02*
D03*
X80096Y14952D02*
D03*
Y13150D02*
D03*
D51*
X25625Y16187D02*
D03*
X28825D02*
D03*
D52*
X59200Y9475D02*
D03*
X63500D02*
D03*
X51700Y53600D02*
D03*
X47400D02*
D03*
D53*
X56850Y5000D02*
D03*
Y6900D02*
D03*
X59150Y5950D02*
D03*
X55000Y6900D02*
D03*
Y5000D02*
D03*
X52700Y5950D02*
D03*
D54*
X19925Y9576D02*
D03*
Y7276D02*
D03*
Y4976D02*
D03*
D55*
X13825Y7276D02*
D03*
D56*
X136863Y44068D02*
D03*
D57*
X136788Y48513D02*
D03*
D58*
X145675Y46107D02*
D03*
D59*
X145772Y29425D02*
D03*
D60*
X145700Y40875D02*
D03*
D61*
X147550Y34146D02*
D03*
D62*
X144163Y45112D02*
D03*
D63*
X67141Y53668D02*
D03*
D64*
X66525Y5079D02*
D03*
%TF.MD5,34318b30aabc2dc85196b7358ae8bbcc*%
M02*
