%TF.GenerationSoftware,Altium Limited,Altium Designer,21.6.4 (81)*%
G04 Layer_Color=32768*
%FSLAX43Y43*%
%MOMM*%
%TF.SameCoordinates,B74C4539-8C7F-4592-B280-35368C4CFDA8*%
%TF.FilePolarity,Positive*%
%TF.FileFunction,Other,Mechanical_15*%
%TF.Part,Single*%
G01*
G75*
%TA.AperFunction,NonConductor*%
%ADD68C,0.200*%
%ADD93C,0.100*%
%ADD106C,0.050*%
D68*
X44604Y1348D02*
Y5656D01*
X42096D02*
X44604D01*
X42096Y1348D02*
Y5656D01*
Y1348D02*
X44604D01*
X131520Y15546D02*
Y18054D01*
X135828D01*
Y15546D02*
Y18054D01*
X131520Y15546D02*
X135828D01*
X121125Y707D02*
Y5867D01*
X131105D01*
Y707D02*
Y5867D01*
X121125Y707D02*
X131105D01*
X131520Y20704D02*
X135828D01*
X131520Y18196D02*
Y20704D01*
Y18196D02*
X135828D01*
Y20704D01*
X131260Y712D02*
Y5872D01*
X141240D01*
Y712D02*
Y5872D01*
X131260Y712D02*
X141240D01*
X139197Y17121D02*
Y19629D01*
X143506D01*
Y17121D02*
Y19629D01*
X139197Y17121D02*
X143506D01*
X92421Y7346D02*
X94929D01*
Y3037D02*
Y7346D01*
X92421Y3037D02*
X94929D01*
X92421D02*
Y7346D01*
X31907Y6497D02*
Y9005D01*
X36215D01*
Y6497D02*
Y9005D01*
X31907Y6497D02*
X36215D01*
X46146Y43446D02*
X48654D01*
X46146D02*
Y47754D01*
X48654D01*
Y43446D02*
Y47754D01*
X67783Y37396D02*
Y39905D01*
X63475Y37396D02*
X67783D01*
X63475D02*
Y39905D01*
X67783D01*
X70276Y32446D02*
X72784D01*
X70276D02*
Y36754D01*
X72784D01*
Y32446D02*
Y36754D01*
X110829Y7221D02*
Y9729D01*
X106521Y7221D02*
X110829D01*
X106521D02*
Y9729D01*
X110829D01*
X64628Y5146D02*
Y7654D01*
X60320Y5146D02*
X64628D01*
X60320D02*
Y7654D01*
X64628D01*
X44771Y1421D02*
X47279D01*
X44771D02*
Y5729D01*
X47279D01*
Y1421D02*
Y5729D01*
X59879Y1171D02*
Y3679D01*
X55571Y1171D02*
X59879D01*
X55571D02*
Y3679D01*
X59879D01*
X26107Y8322D02*
Y10830D01*
X21798Y8322D02*
X26107D01*
X21798D02*
Y10830D01*
X26107D01*
X26179Y3722D02*
Y6230D01*
X21871Y3722D02*
X26179D01*
X21871D02*
Y6230D01*
X26179D01*
X131538Y13035D02*
Y15543D01*
X135846D01*
Y13035D02*
Y15543D01*
X131538Y13035D02*
X135846D01*
X139197Y9421D02*
Y11929D01*
X143506D01*
Y9421D02*
Y11929D01*
X139197Y9421D02*
X143506D01*
X133346Y8471D02*
X135854D01*
X133346D02*
Y12779D01*
X135854D01*
Y8471D02*
Y12779D01*
X110970Y730D02*
Y5890D01*
X120950D01*
Y730D02*
Y5890D01*
X110970Y730D02*
X120950D01*
X108296Y2562D02*
X110804D01*
X108296D02*
Y6871D01*
X110804D01*
Y2562D02*
Y6871D01*
X76521Y9146D02*
X80829D01*
Y11654D01*
X76521D02*
X80829D01*
X76521Y9146D02*
Y11654D01*
X73128Y8504D02*
X75636D01*
Y4196D02*
Y8504D01*
X73128Y4196D02*
X75636D01*
X73128D02*
Y8504D01*
X90596Y346D02*
Y2854D01*
X94904D01*
Y346D02*
Y2854D01*
X90596Y346D02*
X94904D01*
X76066Y11882D02*
Y16190D01*
Y11882D02*
X78575D01*
Y16190D01*
X76066D02*
X78575D01*
D93*
X43350Y3002D02*
Y4002D01*
X42850Y3502D02*
X43850D01*
X133674Y16300D02*
Y17300D01*
X133174Y16800D02*
X134174D01*
X126115Y2787D02*
Y3787D01*
X125615Y3287D02*
X126615D01*
X133174Y19450D02*
X134174D01*
X133674Y18950D02*
Y19950D01*
X136250Y2792D02*
Y3792D01*
X135750Y3292D02*
X136750D01*
X141352Y17875D02*
Y18875D01*
X140852Y18375D02*
X141852D01*
X93175Y5191D02*
X94175D01*
X93675Y4691D02*
Y5691D01*
X34061Y7251D02*
Y8251D01*
X33561Y7751D02*
X34561D01*
X46900Y45600D02*
X47900D01*
X47400Y45100D02*
Y46100D01*
X65629Y38151D02*
Y39151D01*
X65129Y38651D02*
X66129D01*
X71030Y34600D02*
X72030D01*
X71530Y34100D02*
Y35100D01*
X108675Y7975D02*
Y8975D01*
X108175Y8475D02*
X109175D01*
X62474Y5900D02*
Y6900D01*
X61974Y6400D02*
X62974D01*
X57500Y5950D02*
X58500D01*
X58000Y5450D02*
Y6450D01*
X45525Y3575D02*
X46525D01*
X46025Y3075D02*
Y4075D01*
X57725Y1925D02*
Y2925D01*
X57225Y2425D02*
X58225D01*
X53350Y5950D02*
X54350D01*
X53850Y5450D02*
Y6450D01*
X23952Y9076D02*
Y10076D01*
X23452Y9576D02*
X24452D01*
X24025Y4476D02*
Y5476D01*
X23525Y4976D02*
X24525D01*
X133692Y13789D02*
Y14789D01*
X133192Y14289D02*
X134192D01*
X141352Y10175D02*
Y11175D01*
X140852Y10675D02*
X141852D01*
X134100Y10625D02*
X135100D01*
X134600Y10125D02*
Y11125D01*
X115960Y2810D02*
Y3810D01*
X115460Y3310D02*
X116460D01*
X109050Y4716D02*
X110050D01*
X109550Y4216D02*
Y5216D01*
X78175Y10400D02*
X79175D01*
X78675Y9900D02*
Y10900D01*
X73882Y6350D02*
X74882D01*
X74382Y5850D02*
Y6850D01*
X92750Y1100D02*
Y2100D01*
X92250Y1600D02*
X93250D01*
X77321Y13536D02*
Y14536D01*
X76821Y14036D02*
X77821D01*
D106*
X144474Y14675D02*
X145474D01*
X144974Y14175D02*
Y15175D01*
X148149Y10495D02*
Y18855D01*
X141799Y10495D02*
X148149D01*
X141799D02*
Y18855D01*
X148149D01*
X56075Y4200D02*
Y7700D01*
X59925Y4200D02*
Y7700D01*
X56075Y4200D02*
X59925D01*
X56075Y7700D02*
X59925D01*
X55775Y4200D02*
Y7700D01*
X51925Y4200D02*
Y7700D01*
X55775D01*
X51925Y4200D02*
X55775D01*
%TF.MD5,8d81ec4ba06c9f684287719152cb2689*%
M02*
