%TF.GenerationSoftware,Altium Limited,Altium Designer,21.6.4 (81)*%
G04 Layer_Color=32768*
%FSLAX43Y43*%
%MOMM*%
%TF.SameCoordinates,1AC814DF-7433-4E0E-8A45-847F92D72221*%
%TF.FilePolarity,Positive*%
%TF.FileFunction,Other,Top_Assembly*%
%TF.Part,Single*%
G01*
G75*
%TA.AperFunction,NonConductor*%
%ADD52C,0.100*%
%ADD53R,3.000X2.250*%
%ADD54R,2.250X3.000*%
D52*
X60167Y36150D02*
Y42800D01*
X57167D02*
X60167D01*
X57167Y36150D02*
X60167D01*
X57167D02*
Y42800D01*
X18265Y30525D02*
X24915D01*
Y33525D01*
X18265Y30525D02*
Y33525D01*
X24915D01*
X46950Y36150D02*
Y42800D01*
X43950D02*
X46950D01*
X43950Y36150D02*
X46950D01*
X43950D02*
Y42800D01*
X59017Y40450D02*
X58550D01*
X58317Y40217D01*
X58550Y39983D01*
X59017D01*
Y39750D02*
X58317D01*
Y39400D01*
X58433Y39284D01*
X58900D01*
X59017Y39400D01*
Y39750D01*
X58900Y39050D02*
X59017Y38934D01*
Y38701D01*
X58900Y38584D01*
X58783D01*
X58667Y38701D01*
Y38817D01*
Y38701D01*
X58550Y38584D01*
X58433D01*
X58317Y38701D01*
Y38934D01*
X58433Y39050D01*
X22565Y31676D02*
Y32142D01*
X22332Y32375D01*
X22099Y32142D01*
Y31676D01*
X21866D02*
Y32375D01*
X21516D01*
X21399Y32259D01*
Y31792D01*
X21516Y31676D01*
X21866D01*
X20699Y32375D02*
X21166D01*
X20699Y31909D01*
Y31792D01*
X20816Y31676D01*
X21049D01*
X21166Y31792D01*
X45800Y40450D02*
X45333D01*
X45100Y40217D01*
X45333Y39983D01*
X45800D01*
Y39750D02*
X45100D01*
Y39400D01*
X45217Y39284D01*
X45683D01*
X45800Y39400D01*
Y39750D01*
X45100Y39050D02*
Y38817D01*
Y38934D01*
X45800D01*
X45683Y39050D01*
D53*
X58667Y41675D02*
D03*
X45450Y41675D02*
D03*
D54*
X23790Y32025D02*
D03*
%TF.MD5,077525b5f48fcb2650f522b03893a643*%
M02*
