%TF.GenerationSoftware,Altium Limited,Altium Designer,21.6.4 (81)*%
G04 Layer_Color=32896*
%FSLAX43Y43*%
%MOMM*%
%TF.SameCoordinates,1AC814DF-7433-4E0E-8A45-847F92D72221*%
%TF.FilePolarity,Positive*%
%TF.FileFunction,Other,Bottom_Assembly*%
%TF.Part,Single*%
G01*
G75*
%TA.AperFunction,NonConductor*%
%ADD52C,0.100*%
D52*
X38309Y37300D02*
Y48700D01*
X44709Y37300D02*
Y48700D01*
X38309D02*
X44709D01*
X38309Y37300D02*
X44709D01*
X64344D02*
Y48700D01*
X70744Y37300D02*
Y48700D01*
X64344D02*
X70744D01*
X64344Y37300D02*
X70744D01*
X57334D02*
X63734D01*
X57334Y48700D02*
X63734D01*
Y37300D02*
Y48700D01*
X57334Y37300D02*
Y48700D01*
X31299Y37300D02*
X37699D01*
X31299Y48700D02*
X37699D01*
Y37300D02*
Y48700D01*
X31299Y37300D02*
Y48700D01*
X12267Y37300D02*
X18667D01*
X12267Y48700D02*
X18667D01*
Y37300D02*
Y48700D01*
X12267Y37300D02*
Y48700D01*
X5282Y37300D02*
X11682D01*
X5282Y48700D02*
X11682D01*
Y37300D02*
Y48700D01*
X5282Y37300D02*
Y48700D01*
X41509Y43000D02*
X42209D01*
Y43350D01*
X42093Y43467D01*
X41859D01*
X41743Y43350D01*
Y43000D01*
Y43233D02*
X41509Y43467D01*
X42209Y44166D02*
Y43700D01*
X41859D01*
X41976Y43933D01*
Y44050D01*
X41859Y44166D01*
X41626D01*
X41509Y44050D01*
Y43816D01*
X41626Y43700D01*
X67544Y43000D02*
X68244D01*
Y43350D01*
X68128Y43467D01*
X67894D01*
X67778Y43350D01*
Y43000D01*
Y43233D02*
X67544Y43467D01*
X68128Y43700D02*
X68244Y43816D01*
Y44050D01*
X68128Y44166D01*
X68011D01*
X67894Y44050D01*
Y43933D01*
Y44050D01*
X67778Y44166D01*
X67661D01*
X67544Y44050D01*
Y43816D01*
X67661Y43700D01*
X60534Y43000D02*
X61234D01*
Y43350D01*
X61117Y43467D01*
X60884D01*
X60767Y43350D01*
Y43000D01*
Y43233D02*
X60534Y43467D01*
X61234Y44166D02*
X61117Y43933D01*
X60884Y43700D01*
X60651D01*
X60534Y43816D01*
Y44050D01*
X60651Y44166D01*
X60767D01*
X60884Y44050D01*
Y43700D01*
X34499Y43000D02*
X35199D01*
Y43350D01*
X35082Y43467D01*
X34849D01*
X34732Y43350D01*
Y43000D01*
Y43233D02*
X34499Y43467D01*
Y44166D02*
Y43700D01*
X34966Y44166D01*
X35082D01*
X35199Y44050D01*
Y43816D01*
X35082Y43700D01*
X15467Y43000D02*
X16166D01*
Y43350D01*
X16050Y43467D01*
X15816D01*
X15700Y43350D01*
Y43000D01*
Y43233D02*
X15467Y43467D01*
Y44050D02*
X16166D01*
X15816Y43700D01*
Y44166D01*
X8482Y43000D02*
X9181D01*
Y43350D01*
X9065Y43467D01*
X8831D01*
X8715Y43350D01*
Y43000D01*
Y43233D02*
X8482Y43467D01*
Y43700D02*
Y43933D01*
Y43816D01*
X9181D01*
X9065Y43700D01*
%TF.MD5,b729a339b50059a194831108d8d471a1*%
M02*
