%TF.GenerationSoftware,Altium Limited,Altium Designer,21.6.4 (81)*%
G04 Layer_Color=0*
%FSLAX43Y43*%
%MOMM*%
%TF.SameCoordinates,1AC814DF-7433-4E0E-8A45-847F92D72221*%
%TF.FilePolarity,Positive*%
%TF.FileFunction,Profile,NP*%
%TF.Part,Single*%
G01*
G75*
%TA.AperFunction,Profile*%
%ADD55C,0.025*%
G36*
X95000Y20500D02*
Y20352D01*
X95058Y20062D01*
X95171Y19789D01*
X95335Y19544D01*
X95544Y19335D01*
X95789Y19171D01*
X96062Y19058D01*
X96352Y19000D01*
X96500D01*
X96648D01*
X96938Y19058D01*
X97211Y19171D01*
X97456Y19335D01*
X97665Y19544D01*
X97829Y19789D01*
X97942Y20062D01*
X98000Y20352D01*
Y20500D01*
Y20648D01*
X97942Y20938D01*
X97829Y21211D01*
X97665Y21456D01*
X97456Y21665D01*
X97211Y21829D01*
X96938Y21942D01*
X96648Y22000D01*
X96500D01*
X96352D01*
X96062Y21942D01*
X95789Y21829D01*
X95544Y21665D01*
X95335Y21456D01*
X95171Y21211D01*
X95058Y20938D01*
X95000Y20648D01*
Y20500D01*
D01*
D02*
G37*
G36*
Y65500D02*
Y65352D01*
X95058Y65062D01*
X95171Y64789D01*
X95335Y64544D01*
X95544Y64335D01*
X95789Y64171D01*
X96062Y64058D01*
X96352Y64000D01*
X96500D01*
X96648D01*
X96938Y64058D01*
X97211Y64171D01*
X97456Y64335D01*
X97665Y64544D01*
X97829Y64789D01*
X97942Y65062D01*
X98000Y65352D01*
Y65500D01*
Y65648D01*
X97942Y65938D01*
X97829Y66211D01*
X97665Y66456D01*
X97456Y66665D01*
X97211Y66829D01*
X96938Y66942D01*
X96648Y67000D01*
X96500D01*
X96352D01*
X96062Y66942D01*
X95789Y66829D01*
X95544Y66665D01*
X95335Y66456D01*
X95171Y66211D01*
X95058Y65938D01*
X95000Y65648D01*
Y65500D01*
D01*
D02*
G37*
G36*
X4000Y20500D02*
Y20352D01*
X4058Y20062D01*
X4171Y19789D01*
X4335Y19544D01*
X4544Y19335D01*
X4789Y19171D01*
X5062Y19058D01*
X5352Y19000D01*
X5500D01*
X5648D01*
X5938Y19058D01*
X6211Y19171D01*
X6456Y19335D01*
X6665Y19544D01*
X6829Y19789D01*
X6942Y20062D01*
X7000Y20352D01*
Y20500D01*
Y20648D01*
X6942Y20938D01*
X6829Y21211D01*
X6665Y21456D01*
X6456Y21665D01*
X6211Y21829D01*
X5938Y21942D01*
X5648Y22000D01*
X5500D01*
X5352D01*
X5062Y21942D01*
X4789Y21829D01*
X4544Y21665D01*
X4335Y21456D01*
X4171Y21211D01*
X4058Y20938D01*
X4000Y20648D01*
Y20500D01*
D01*
D02*
G37*
G36*
Y65500D02*
Y65352D01*
X4058Y65062D01*
X4171Y64789D01*
X4335Y64544D01*
X4544Y64335D01*
X4789Y64171D01*
X5062Y64058D01*
X5352Y64000D01*
X5500D01*
X5648D01*
X5938Y64058D01*
X6211Y64171D01*
X6456Y64335D01*
X6665Y64544D01*
X6829Y64789D01*
X6942Y65062D01*
X7000Y65352D01*
Y65500D01*
Y65648D01*
X6942Y65938D01*
X6829Y66211D01*
X6665Y66456D01*
X6456Y66665D01*
X6211Y66829D01*
X5938Y66942D01*
X5648Y67000D01*
X5500D01*
X5352D01*
X5062Y66942D01*
X4789Y66829D01*
X4544Y66665D01*
X4335Y66456D01*
X4171Y66211D01*
X4058Y65938D01*
X4000Y65648D01*
Y65500D01*
D01*
D02*
G37*
D55*
X0Y0D02*
Y86000D01*
X102000D01*
Y0D01*
X0D01*
%TF.MD5,a4d64519980ed6e0542ad0926b6a6f19*%
M02*
