%TF.GenerationSoftware,Altium Limited,Altium Designer,21.6.4 (81)*%
G04 Layer_Physical_Order=1*
G04 Layer_Color=255*
%FSLAX43Y43*%
%MOMM*%
%TF.SameCoordinates,1AC814DF-7433-4E0E-8A45-847F92D72221*%
%TF.FilePolarity,Positive*%
%TF.FileFunction,Copper,L1,Top,Signal*%
%TF.Part,Single*%
G01*
G75*
%TA.AperFunction,SMDPad,CuDef*%
%ADD10R,2.300X2.000*%
%ADD11R,2.000X2.300*%
%TA.AperFunction,Conductor*%
%ADD12C,1.000*%
%ADD13R,3.325X0.564*%
%ADD14R,20.123X15.977*%
%ADD15R,20.242X15.815*%
%ADD16R,20.051X15.773*%
%ADD17R,20.269X15.803*%
%ADD18R,20.200X15.826*%
%ADD19R,20.150X15.977*%
%ADD20R,20.179X15.784*%
%ADD21R,20.047X15.795*%
%ADD22R,6.845X1.500*%
%TA.AperFunction,ComponentPad*%
%ADD23O,5.080X5.588*%
%ADD24C,1.500*%
%TA.AperFunction,ViaPad*%
%ADD25C,1.800*%
G36*
X73969Y63811D02*
Y51897D01*
X70739Y48666D01*
X57000D01*
X53700Y51966D01*
Y85325D01*
X57676D01*
X57701Y85198D01*
X57605Y85158D01*
X57244Y84937D01*
X56922Y84662D01*
X56647Y84340D01*
X56426Y83979D01*
X56264Y83588D01*
X56165Y83176D01*
X56132Y82754D01*
Y82650D01*
X58830D01*
X61529D01*
Y82754D01*
X61495Y83176D01*
X61396Y83588D01*
X61234Y83979D01*
X61013Y84340D01*
X60738Y84662D01*
X60416Y84937D01*
X60055Y85158D01*
X59959Y85198D01*
X59985Y85325D01*
X67676D01*
X67701Y85198D01*
X67605Y85158D01*
X67244Y84937D01*
X66922Y84662D01*
X66647Y84340D01*
X66426Y83979D01*
X66264Y83588D01*
X66165Y83176D01*
X66132Y82754D01*
Y82650D01*
X68830D01*
X71529D01*
Y82754D01*
X71495Y83176D01*
X71396Y83588D01*
X71234Y83979D01*
X71013Y84340D01*
X70738Y84662D01*
X70416Y84937D01*
X70055Y85158D01*
X69959Y85198D01*
X69985Y85325D01*
X73969D01*
Y63811D01*
D02*
G37*
G36*
X100080Y21056D02*
X100080Y718D01*
X96250D01*
X96225Y842D01*
X96586Y1063D01*
X96908Y1338D01*
X97183Y1660D01*
X97404Y2021D01*
X97566Y2412D01*
X97665Y2824D01*
X97698Y3246D01*
Y3350D01*
X92302D01*
Y3246D01*
X92335Y2824D01*
X92434Y2412D01*
X92596Y2021D01*
X92817Y1660D01*
X93092Y1338D01*
X93414Y1063D01*
X93775Y842D01*
X93750Y718D01*
X86250D01*
X86225Y842D01*
X86586Y1063D01*
X86908Y1338D01*
X87183Y1660D01*
X87404Y2021D01*
X87566Y2412D01*
X87665Y2824D01*
X87698Y3246D01*
Y3350D01*
X82302D01*
Y3246D01*
X82335Y2824D01*
X82434Y2412D01*
X82596Y2021D01*
X82817Y1660D01*
X83092Y1338D01*
X83414Y1063D01*
X83775Y842D01*
X83750Y718D01*
X79842D01*
Y35999D01*
X81125Y37282D01*
Y46127D01*
X79842Y47410D01*
Y85293D01*
X83775D01*
X83800Y85169D01*
X83775Y85158D01*
X83414Y84937D01*
X83092Y84662D01*
X82817Y84340D01*
X82596Y83979D01*
X82434Y83588D01*
X82335Y83176D01*
X82302Y82754D01*
Y82650D01*
X85000D01*
X87698D01*
Y82754D01*
X87665Y83176D01*
X87566Y83588D01*
X87404Y83979D01*
X87183Y84340D01*
X86908Y84662D01*
X86586Y84937D01*
X86225Y85158D01*
X86200Y85169D01*
X86225Y85293D01*
X93775D01*
X93800Y85169D01*
X93775Y85158D01*
X93414Y84937D01*
X93092Y84662D01*
X92817Y84340D01*
X92596Y83979D01*
X92434Y83588D01*
X92335Y83176D01*
X92302Y82754D01*
Y82650D01*
X95000D01*
X97698D01*
Y82754D01*
X97665Y83176D01*
X97566Y83588D01*
X97404Y83979D01*
X97183Y84340D01*
X96908Y84662D01*
X96586Y84937D01*
X96225Y85158D01*
X96200Y85169D01*
X96225Y85293D01*
X100080D01*
Y21056D01*
D02*
G37*
G36*
X47982Y52023D02*
X45199Y48908D01*
X31139Y48786D01*
X27700Y52225D01*
X27700Y85228D01*
X31646D01*
X31681Y85101D01*
X31414Y84937D01*
X31092Y84662D01*
X30817Y84340D01*
X30596Y83979D01*
X30434Y83588D01*
X30335Y83176D01*
X30302Y82754D01*
Y82650D01*
X33000D01*
X35698D01*
Y82754D01*
X35665Y83176D01*
X35566Y83588D01*
X35404Y83979D01*
X35183Y84340D01*
X34908Y84662D01*
X34586Y84937D01*
X34319Y85101D01*
X34354Y85228D01*
X41646D01*
X41681Y85101D01*
X41414Y84937D01*
X41092Y84662D01*
X40817Y84340D01*
X40596Y83979D01*
X40434Y83588D01*
X40335Y83176D01*
X40302Y82754D01*
Y82650D01*
X43000D01*
X45698D01*
Y82754D01*
X45665Y83176D01*
X45566Y83588D01*
X45404Y83979D01*
X45183Y84340D01*
X44908Y84662D01*
X44586Y84937D01*
X44319Y85101D01*
X44354Y85228D01*
X47938D01*
X47982Y52023D01*
D02*
G37*
G36*
X21969Y63714D02*
Y52234D01*
X20178Y48870D01*
X1700D01*
Y85228D01*
X5646D01*
X5681Y85101D01*
X5414Y84937D01*
X5092Y84662D01*
X4817Y84340D01*
X4596Y83979D01*
X4434Y83588D01*
X4335Y83176D01*
X4302Y82754D01*
Y82650D01*
X7000D01*
X9698D01*
Y82754D01*
X9665Y83176D01*
X9566Y83588D01*
X9404Y83979D01*
X9183Y84340D01*
X8908Y84662D01*
X8586Y84937D01*
X8319Y85101D01*
X8354Y85228D01*
X15646D01*
X15681Y85101D01*
X15414Y84937D01*
X15092Y84662D01*
X14817Y84340D01*
X14596Y83979D01*
X14434Y83588D01*
X14335Y83176D01*
X14302Y82754D01*
Y82650D01*
X17000D01*
X19698D01*
Y82754D01*
X19665Y83176D01*
X19566Y83588D01*
X19404Y83979D01*
X19183Y84340D01*
X18908Y84662D01*
X18586Y84937D01*
X18319Y85101D01*
X18354Y85228D01*
X21969D01*
Y63714D01*
D02*
G37*
G36*
X48005Y27922D02*
X47969Y720D01*
X44298D01*
X44232Y840D01*
X44233Y847D01*
X44586Y1063D01*
X44908Y1338D01*
X45183Y1660D01*
X45404Y2021D01*
X45566Y2412D01*
X45665Y2824D01*
X45698Y3246D01*
Y3350D01*
X40302D01*
Y3246D01*
X40335Y2824D01*
X40434Y2412D01*
X40596Y2021D01*
X40817Y1660D01*
X41092Y1338D01*
X41414Y1063D01*
X41767Y847D01*
X41768Y840D01*
X41702Y720D01*
X34298D01*
X34232Y840D01*
X34233Y847D01*
X34586Y1063D01*
X34908Y1338D01*
X35183Y1660D01*
X35404Y2021D01*
X35566Y2412D01*
X35665Y2824D01*
X35698Y3246D01*
Y3350D01*
X30302D01*
Y3246D01*
X30335Y2824D01*
X30434Y2412D01*
X30596Y2021D01*
X30817Y1660D01*
X31092Y1338D01*
X31414Y1063D01*
X31767Y847D01*
X31768Y840D01*
X31702Y720D01*
X27720D01*
Y28787D01*
X32440Y33507D01*
X32435Y36835D01*
X33775Y38175D01*
X44150D01*
Y37500D01*
X45450D01*
X46750D01*
Y38175D01*
X48005D01*
Y27922D01*
D02*
G37*
G36*
X73969Y20675D02*
X73969Y720D01*
X70234Y716D01*
X70209Y841D01*
X70211Y842D01*
X70572Y1063D01*
X70894Y1338D01*
X71169Y1660D01*
X71391Y2021D01*
X71553Y2412D01*
X71651Y2824D01*
X71685Y3246D01*
Y3350D01*
X66288D01*
Y3246D01*
X66321Y2824D01*
X66420Y2412D01*
X66582Y2021D01*
X66803Y1660D01*
X67078Y1338D01*
X67400Y1063D01*
X67761Y842D01*
X67770Y838D01*
X67745Y714D01*
X60210Y706D01*
X60185Y831D01*
X60211Y842D01*
X60572Y1063D01*
X60894Y1338D01*
X61169Y1660D01*
X61391Y2021D01*
X61553Y2412D01*
X61652Y2824D01*
X61685Y3246D01*
Y3350D01*
X56288D01*
Y3246D01*
X56321Y2824D01*
X56420Y2412D01*
X56582Y2021D01*
X56803Y1660D01*
X57078Y1338D01*
X57400Y1063D01*
X57761Y842D01*
X57793Y829D01*
X57769Y704D01*
X53790Y700D01*
X53700Y790D01*
Y27884D01*
Y37675D01*
X57367D01*
Y37500D01*
X58667D01*
X59967D01*
Y37675D01*
X73969D01*
Y20675D01*
D02*
G37*
G36*
X20275Y33325D02*
X19615D01*
Y32025D01*
Y30725D01*
X20275D01*
Y27837D01*
X21978D01*
Y701D01*
X18211D01*
X18186Y826D01*
X18225Y842D01*
X18586Y1063D01*
X18908Y1338D01*
X19183Y1660D01*
X19404Y2021D01*
X19566Y2412D01*
X19665Y2824D01*
X19698Y3246D01*
Y3350D01*
X14302D01*
Y3246D01*
X14335Y2824D01*
X14434Y2412D01*
X14596Y2021D01*
X14817Y1660D01*
X15092Y1338D01*
X15414Y1063D01*
X15775Y842D01*
X15814Y826D01*
X15789Y701D01*
X8211D01*
X8186Y826D01*
X8225Y842D01*
X8586Y1063D01*
X8908Y1338D01*
X9183Y1660D01*
X9404Y2021D01*
X9566Y2412D01*
X9665Y2824D01*
X9698Y3246D01*
Y3350D01*
X4302D01*
Y3246D01*
X4335Y2824D01*
X4434Y2412D01*
X4596Y2021D01*
X4817Y1660D01*
X5092Y1338D01*
X5414Y1063D01*
X5775Y842D01*
X5814Y826D01*
X5789Y701D01*
X1854D01*
Y37550D01*
X20275D01*
Y33325D01*
D02*
G37*
%LPC*%
G36*
X68680Y82350D02*
X66132D01*
Y82246D01*
X66165Y81824D01*
X66264Y81412D01*
X66426Y81021D01*
X66647Y80660D01*
X66922Y80338D01*
X67244Y80063D01*
X67605Y79842D01*
X67996Y79680D01*
X68408Y79581D01*
X68680Y79559D01*
Y82350D01*
D02*
G37*
G36*
X58680D02*
X56132D01*
Y82246D01*
X56165Y81824D01*
X56264Y81412D01*
X56426Y81021D01*
X56647Y80660D01*
X56922Y80338D01*
X57244Y80063D01*
X57605Y79842D01*
X57996Y79680D01*
X58408Y79581D01*
X58680Y79559D01*
Y82350D01*
D02*
G37*
G36*
X71529D02*
X68980D01*
Y79559D01*
X69252Y79581D01*
X69664Y79680D01*
X70055Y79842D01*
X70416Y80063D01*
X70738Y80338D01*
X71013Y80660D01*
X71234Y81021D01*
X71396Y81412D01*
X71495Y81824D01*
X71529Y82246D01*
Y82350D01*
D02*
G37*
G36*
X61529D02*
X58980D01*
Y79559D01*
X59252Y79581D01*
X59664Y79680D01*
X60055Y79842D01*
X60416Y80063D01*
X60738Y80338D01*
X61013Y80660D01*
X61234Y81021D01*
X61396Y81412D01*
X61495Y81824D01*
X61529Y82246D01*
Y82350D01*
D02*
G37*
G36*
X68980Y75441D02*
Y72650D01*
X71529D01*
Y72754D01*
X71495Y73176D01*
X71396Y73588D01*
X71234Y73979D01*
X71013Y74340D01*
X70738Y74662D01*
X70416Y74937D01*
X70055Y75158D01*
X69664Y75320D01*
X69252Y75419D01*
X68980Y75441D01*
D02*
G37*
G36*
X58980D02*
Y72650D01*
X61529D01*
Y72754D01*
X61495Y73176D01*
X61396Y73588D01*
X61234Y73979D01*
X61013Y74340D01*
X60738Y74662D01*
X60416Y74937D01*
X60055Y75158D01*
X59664Y75320D01*
X59252Y75419D01*
X58980Y75441D01*
D02*
G37*
G36*
X68680Y75441D02*
X68408Y75419D01*
X67996Y75320D01*
X67605Y75158D01*
X67244Y74937D01*
X66922Y74662D01*
X66647Y74340D01*
X66426Y73979D01*
X66264Y73588D01*
X66165Y73176D01*
X66132Y72754D01*
Y72650D01*
X68680D01*
Y75441D01*
D02*
G37*
G36*
X58680D02*
X58408Y75419D01*
X57996Y75320D01*
X57605Y75158D01*
X57244Y74937D01*
X56922Y74662D01*
X56647Y74340D01*
X56426Y73979D01*
X56264Y73588D01*
X56165Y73176D01*
X56132Y72754D01*
Y72650D01*
X58680D01*
Y75441D01*
D02*
G37*
G36*
X68680Y72350D02*
X66132D01*
Y72246D01*
X66165Y71824D01*
X66264Y71412D01*
X66426Y71021D01*
X66647Y70660D01*
X66922Y70338D01*
X67244Y70063D01*
X67605Y69842D01*
X67996Y69680D01*
X68408Y69581D01*
X68680Y69559D01*
Y72350D01*
D02*
G37*
G36*
X58680D02*
X56132D01*
Y72246D01*
X56165Y71824D01*
X56264Y71412D01*
X56426Y71021D01*
X56647Y70660D01*
X56922Y70338D01*
X57244Y70063D01*
X57605Y69842D01*
X57996Y69680D01*
X58408Y69581D01*
X58680Y69559D01*
Y72350D01*
D02*
G37*
G36*
X71529D02*
X68980D01*
Y69559D01*
X69252Y69581D01*
X69664Y69680D01*
X70055Y69842D01*
X70416Y70063D01*
X70738Y70338D01*
X71013Y70660D01*
X71234Y71021D01*
X71396Y71412D01*
X71495Y71824D01*
X71529Y72246D01*
Y72350D01*
D02*
G37*
G36*
X61529D02*
X58980D01*
Y69559D01*
X59252Y69581D01*
X59664Y69680D01*
X60055Y69842D01*
X60416Y70063D01*
X60738Y70338D01*
X61013Y70660D01*
X61234Y71021D01*
X61396Y71412D01*
X61495Y71824D01*
X61529Y72246D01*
Y72350D01*
D02*
G37*
G36*
X94850Y82350D02*
X92302D01*
Y82246D01*
X92335Y81824D01*
X92434Y81412D01*
X92596Y81021D01*
X92817Y80660D01*
X93092Y80338D01*
X93414Y80063D01*
X93775Y79842D01*
X94166Y79680D01*
X94578Y79581D01*
X94850Y79559D01*
Y82350D01*
D02*
G37*
G36*
X84850D02*
X82302D01*
Y82246D01*
X82335Y81824D01*
X82434Y81412D01*
X82596Y81021D01*
X82817Y80660D01*
X83092Y80338D01*
X83414Y80063D01*
X83775Y79842D01*
X84166Y79680D01*
X84578Y79581D01*
X84850Y79559D01*
Y82350D01*
D02*
G37*
G36*
X97698D02*
X95150D01*
Y79559D01*
X95422Y79581D01*
X95834Y79680D01*
X96225Y79842D01*
X96586Y80063D01*
X96908Y80338D01*
X97183Y80660D01*
X97404Y81021D01*
X97566Y81412D01*
X97665Y81824D01*
X97698Y82246D01*
Y82350D01*
D02*
G37*
G36*
X87698D02*
X85150D01*
Y79559D01*
X85422Y79581D01*
X85834Y79680D01*
X86225Y79842D01*
X86586Y80063D01*
X86908Y80338D01*
X87183Y80660D01*
X87404Y81021D01*
X87566Y81412D01*
X87665Y81824D01*
X87698Y82246D01*
Y82350D01*
D02*
G37*
G36*
X85150Y75441D02*
Y72650D01*
X87698D01*
Y72754D01*
X87665Y73176D01*
X87566Y73588D01*
X87404Y73979D01*
X87183Y74340D01*
X86908Y74662D01*
X86586Y74937D01*
X86225Y75158D01*
X85834Y75320D01*
X85422Y75419D01*
X85150Y75441D01*
D02*
G37*
G36*
X95150D02*
Y72650D01*
X97698D01*
Y72754D01*
X97665Y73176D01*
X97566Y73588D01*
X97404Y73979D01*
X97183Y74340D01*
X96908Y74662D01*
X96586Y74937D01*
X96225Y75158D01*
X95834Y75320D01*
X95422Y75419D01*
X95150Y75441D01*
D02*
G37*
G36*
X84850Y75441D02*
X84578Y75419D01*
X84166Y75320D01*
X83775Y75158D01*
X83414Y74937D01*
X83092Y74662D01*
X82817Y74340D01*
X82596Y73979D01*
X82434Y73588D01*
X82335Y73176D01*
X82302Y72754D01*
Y72650D01*
X84850D01*
Y75441D01*
D02*
G37*
G36*
X94850D02*
X94578Y75419D01*
X94166Y75320D01*
X93775Y75158D01*
X93414Y74937D01*
X93092Y74662D01*
X92817Y74340D01*
X92596Y73979D01*
X92434Y73588D01*
X92335Y73176D01*
X92302Y72754D01*
Y72650D01*
X94850D01*
Y75441D01*
D02*
G37*
G36*
Y72350D02*
X92302D01*
Y72246D01*
X92335Y71824D01*
X92434Y71412D01*
X92596Y71021D01*
X92817Y70660D01*
X93092Y70338D01*
X93414Y70063D01*
X93775Y69842D01*
X94166Y69680D01*
X94578Y69581D01*
X94850Y69559D01*
Y72350D01*
D02*
G37*
G36*
X84850D02*
X82302D01*
Y72246D01*
X82335Y71824D01*
X82434Y71412D01*
X82596Y71021D01*
X82817Y70660D01*
X83092Y70338D01*
X83414Y70063D01*
X83775Y69842D01*
X84166Y69680D01*
X84578Y69581D01*
X84850Y69559D01*
Y72350D01*
D02*
G37*
G36*
X97698D02*
X95150D01*
Y69559D01*
X95422Y69581D01*
X95834Y69680D01*
X96225Y69842D01*
X96586Y70063D01*
X96908Y70338D01*
X97183Y70660D01*
X97404Y71021D01*
X97566Y71412D01*
X97665Y71824D01*
X97698Y72246D01*
Y72350D01*
D02*
G37*
G36*
X87698D02*
X85150D01*
Y69559D01*
X85422Y69581D01*
X85834Y69680D01*
X86225Y69842D01*
X86586Y70063D01*
X86908Y70338D01*
X87183Y70660D01*
X87404Y71021D01*
X87566Y71412D01*
X87665Y71824D01*
X87698Y72246D01*
Y72350D01*
D02*
G37*
G36*
X96500Y67336D02*
X96142Y67301D01*
X95797Y67196D01*
X95480Y67026D01*
X95202Y66798D01*
X94974Y66520D01*
X94804Y66203D01*
X94699Y65858D01*
X94664Y65500D01*
X94699Y65142D01*
X94804Y64797D01*
X94974Y64480D01*
X95202Y64202D01*
X95480Y63974D01*
X95797Y63804D01*
X96142Y63699D01*
X96500Y63664D01*
X96858Y63699D01*
X97203Y63804D01*
X97520Y63974D01*
X97798Y64202D01*
X98026Y64480D01*
X98196Y64797D01*
X98301Y65142D01*
X98336Y65500D01*
X98301Y65858D01*
X98196Y66203D01*
X98026Y66520D01*
X97798Y66798D01*
X97520Y67026D01*
X97203Y67196D01*
X96858Y67301D01*
X96500Y67336D01*
D02*
G37*
G36*
Y22336D02*
X96142Y22301D01*
X95797Y22196D01*
X95480Y22026D01*
X95202Y21798D01*
X94974Y21520D01*
X94804Y21203D01*
X94699Y20858D01*
X94664Y20500D01*
X94699Y20142D01*
X94804Y19797D01*
X94974Y19480D01*
X95202Y19202D01*
X95480Y18974D01*
X95797Y18804D01*
X96142Y18699D01*
X96500Y18664D01*
X96858Y18699D01*
X97203Y18804D01*
X97520Y18974D01*
X97798Y19202D01*
X98026Y19480D01*
X98196Y19797D01*
X98301Y20142D01*
X98336Y20500D01*
X98301Y20858D01*
X98196Y21203D01*
X98026Y21520D01*
X97798Y21798D01*
X97520Y22026D01*
X97203Y22196D01*
X96858Y22301D01*
X96500Y22336D01*
D02*
G37*
G36*
X95150Y16441D02*
Y13650D01*
X97698D01*
Y13754D01*
X97665Y14176D01*
X97566Y14588D01*
X97404Y14979D01*
X97183Y15340D01*
X96908Y15662D01*
X96586Y15937D01*
X96225Y16158D01*
X95834Y16320D01*
X95422Y16419D01*
X95150Y16441D01*
D02*
G37*
G36*
X94850D02*
X94578Y16419D01*
X94166Y16320D01*
X93775Y16158D01*
X93414Y15937D01*
X93092Y15662D01*
X92817Y15340D01*
X92596Y14979D01*
X92434Y14588D01*
X92335Y14176D01*
X92302Y13754D01*
Y13650D01*
X94850D01*
Y16441D01*
D02*
G37*
G36*
X85150D02*
Y13650D01*
X87698D01*
Y13754D01*
X87665Y14176D01*
X87566Y14588D01*
X87404Y14979D01*
X87183Y15340D01*
X86908Y15662D01*
X86586Y15937D01*
X86225Y16158D01*
X85834Y16320D01*
X85422Y16419D01*
X85150Y16441D01*
D02*
G37*
G36*
X84850D02*
X84578Y16419D01*
X84166Y16320D01*
X83775Y16158D01*
X83414Y15937D01*
X83092Y15662D01*
X82817Y15340D01*
X82596Y14979D01*
X82434Y14588D01*
X82335Y14176D01*
X82302Y13754D01*
Y13650D01*
X84850D01*
Y16441D01*
D02*
G37*
G36*
X97698Y13350D02*
X95150D01*
Y10559D01*
X95422Y10581D01*
X95834Y10680D01*
X96225Y10842D01*
X96586Y11063D01*
X96908Y11338D01*
X97183Y11660D01*
X97404Y12021D01*
X97566Y12412D01*
X97665Y12824D01*
X97698Y13246D01*
Y13350D01*
D02*
G37*
G36*
X94850D02*
X92302D01*
Y13246D01*
X92335Y12824D01*
X92434Y12412D01*
X92596Y12021D01*
X92817Y11660D01*
X93092Y11338D01*
X93414Y11063D01*
X93775Y10842D01*
X94166Y10680D01*
X94578Y10581D01*
X94850Y10559D01*
Y13350D01*
D02*
G37*
G36*
X87698D02*
X85150D01*
Y10559D01*
X85422Y10581D01*
X85834Y10680D01*
X86225Y10842D01*
X86586Y11063D01*
X86908Y11338D01*
X87183Y11660D01*
X87404Y12021D01*
X87566Y12412D01*
X87665Y12824D01*
X87698Y13246D01*
Y13350D01*
D02*
G37*
G36*
X84850D02*
X82302D01*
Y13246D01*
X82335Y12824D01*
X82434Y12412D01*
X82596Y12021D01*
X82817Y11660D01*
X83092Y11338D01*
X83414Y11063D01*
X83775Y10842D01*
X84166Y10680D01*
X84578Y10581D01*
X84850Y10559D01*
Y13350D01*
D02*
G37*
G36*
X95150Y6441D02*
Y3650D01*
X97698D01*
Y3754D01*
X97665Y4176D01*
X97566Y4588D01*
X97404Y4979D01*
X97183Y5340D01*
X96908Y5662D01*
X96586Y5937D01*
X96225Y6158D01*
X95834Y6320D01*
X95422Y6419D01*
X95150Y6441D01*
D02*
G37*
G36*
X94850D02*
X94578Y6419D01*
X94166Y6320D01*
X93775Y6158D01*
X93414Y5937D01*
X93092Y5662D01*
X92817Y5340D01*
X92596Y4979D01*
X92434Y4588D01*
X92335Y4176D01*
X92302Y3754D01*
Y3650D01*
X94850D01*
Y6441D01*
D02*
G37*
G36*
X85150D02*
Y3650D01*
X87698D01*
Y3754D01*
X87665Y4176D01*
X87566Y4588D01*
X87404Y4979D01*
X87183Y5340D01*
X86908Y5662D01*
X86586Y5937D01*
X86225Y6158D01*
X85834Y6320D01*
X85422Y6419D01*
X85150Y6441D01*
D02*
G37*
G36*
X84850D02*
X84578Y6419D01*
X84166Y6320D01*
X83775Y6158D01*
X83414Y5937D01*
X83092Y5662D01*
X82817Y5340D01*
X82596Y4979D01*
X82434Y4588D01*
X82335Y4176D01*
X82302Y3754D01*
Y3650D01*
X84850D01*
Y6441D01*
D02*
G37*
G36*
X42850Y82350D02*
X40302D01*
Y82246D01*
X40335Y81824D01*
X40434Y81412D01*
X40596Y81021D01*
X40817Y80660D01*
X41092Y80338D01*
X41414Y80063D01*
X41775Y79842D01*
X42166Y79680D01*
X42578Y79581D01*
X42850Y79559D01*
Y82350D01*
D02*
G37*
G36*
X32850D02*
X30302D01*
Y82246D01*
X30335Y81824D01*
X30434Y81412D01*
X30596Y81021D01*
X30817Y80660D01*
X31092Y80338D01*
X31414Y80063D01*
X31775Y79842D01*
X32166Y79680D01*
X32578Y79581D01*
X32850Y79559D01*
Y82350D01*
D02*
G37*
G36*
X45698D02*
X43150D01*
Y79559D01*
X43422Y79581D01*
X43834Y79680D01*
X44225Y79842D01*
X44586Y80063D01*
X44908Y80338D01*
X45183Y80660D01*
X45404Y81021D01*
X45566Y81412D01*
X45665Y81824D01*
X45698Y82246D01*
Y82350D01*
D02*
G37*
G36*
X35698D02*
X33150D01*
Y79559D01*
X33422Y79581D01*
X33834Y79680D01*
X34225Y79842D01*
X34586Y80063D01*
X34908Y80338D01*
X35183Y80660D01*
X35404Y81021D01*
X35566Y81412D01*
X35665Y81824D01*
X35698Y82246D01*
Y82350D01*
D02*
G37*
G36*
X33150Y75441D02*
Y72650D01*
X35698D01*
Y72754D01*
X35665Y73176D01*
X35566Y73588D01*
X35404Y73979D01*
X35183Y74340D01*
X34908Y74662D01*
X34586Y74937D01*
X34225Y75158D01*
X33834Y75320D01*
X33422Y75419D01*
X33150Y75441D01*
D02*
G37*
G36*
X43150D02*
Y72650D01*
X45698D01*
Y72754D01*
X45665Y73176D01*
X45566Y73588D01*
X45404Y73979D01*
X45183Y74340D01*
X44908Y74662D01*
X44586Y74937D01*
X44225Y75158D01*
X43834Y75320D01*
X43422Y75419D01*
X43150Y75441D01*
D02*
G37*
G36*
X32850D02*
X32578Y75419D01*
X32166Y75320D01*
X31775Y75158D01*
X31414Y74937D01*
X31092Y74662D01*
X30817Y74340D01*
X30596Y73979D01*
X30434Y73588D01*
X30335Y73176D01*
X30302Y72754D01*
Y72650D01*
X32850D01*
Y75441D01*
D02*
G37*
G36*
X42850D02*
X42578Y75419D01*
X42166Y75320D01*
X41775Y75158D01*
X41414Y74937D01*
X41092Y74662D01*
X40817Y74340D01*
X40596Y73979D01*
X40434Y73588D01*
X40335Y73176D01*
X40302Y72754D01*
Y72650D01*
X42850D01*
Y75441D01*
D02*
G37*
G36*
Y72350D02*
X40302D01*
Y72246D01*
X40335Y71824D01*
X40434Y71412D01*
X40596Y71021D01*
X40817Y70660D01*
X41092Y70338D01*
X41414Y70063D01*
X41775Y69842D01*
X42166Y69680D01*
X42578Y69581D01*
X42850Y69559D01*
Y72350D01*
D02*
G37*
G36*
X32850D02*
X30302D01*
Y72246D01*
X30335Y71824D01*
X30434Y71412D01*
X30596Y71021D01*
X30817Y70660D01*
X31092Y70338D01*
X31414Y70063D01*
X31775Y69842D01*
X32166Y69680D01*
X32578Y69581D01*
X32850Y69559D01*
Y72350D01*
D02*
G37*
G36*
X45698D02*
X43150D01*
Y69559D01*
X43422Y69581D01*
X43834Y69680D01*
X44225Y69842D01*
X44586Y70063D01*
X44908Y70338D01*
X45183Y70660D01*
X45404Y71021D01*
X45566Y71412D01*
X45665Y71824D01*
X45698Y72246D01*
Y72350D01*
D02*
G37*
G36*
X35698D02*
X33150D01*
Y69559D01*
X33422Y69581D01*
X33834Y69680D01*
X34225Y69842D01*
X34586Y70063D01*
X34908Y70338D01*
X35183Y70660D01*
X35404Y71021D01*
X35566Y71412D01*
X35665Y71824D01*
X35698Y72246D01*
Y72350D01*
D02*
G37*
G36*
X19698Y82350D02*
X17150D01*
Y79559D01*
X17422Y79581D01*
X17834Y79680D01*
X18225Y79842D01*
X18586Y80063D01*
X18908Y80338D01*
X19183Y80660D01*
X19404Y81021D01*
X19566Y81412D01*
X19665Y81824D01*
X19698Y82246D01*
Y82350D01*
D02*
G37*
G36*
X9698D02*
X7150D01*
Y79559D01*
X7422Y79581D01*
X7834Y79680D01*
X8225Y79842D01*
X8586Y80063D01*
X8908Y80338D01*
X9183Y80660D01*
X9404Y81021D01*
X9566Y81412D01*
X9665Y81824D01*
X9698Y82246D01*
Y82350D01*
D02*
G37*
G36*
X16850D02*
X14302D01*
Y82246D01*
X14335Y81824D01*
X14434Y81412D01*
X14596Y81021D01*
X14817Y80660D01*
X15092Y80338D01*
X15414Y80063D01*
X15775Y79842D01*
X16166Y79680D01*
X16578Y79581D01*
X16850Y79559D01*
Y82350D01*
D02*
G37*
G36*
X6850D02*
X4302D01*
Y82246D01*
X4335Y81824D01*
X4434Y81412D01*
X4596Y81021D01*
X4817Y80660D01*
X5092Y80338D01*
X5414Y80063D01*
X5775Y79842D01*
X6166Y79680D01*
X6578Y79581D01*
X6850Y79559D01*
Y82350D01*
D02*
G37*
G36*
X7150Y75441D02*
Y72650D01*
X9698D01*
Y72754D01*
X9665Y73176D01*
X9566Y73588D01*
X9404Y73979D01*
X9183Y74340D01*
X8908Y74662D01*
X8586Y74937D01*
X8225Y75158D01*
X7834Y75320D01*
X7422Y75419D01*
X7150Y75441D01*
D02*
G37*
G36*
X17150D02*
Y72650D01*
X19698D01*
Y72754D01*
X19665Y73176D01*
X19566Y73588D01*
X19404Y73979D01*
X19183Y74340D01*
X18908Y74662D01*
X18586Y74937D01*
X18225Y75158D01*
X17834Y75320D01*
X17422Y75419D01*
X17150Y75441D01*
D02*
G37*
G36*
X6850D02*
X6578Y75419D01*
X6166Y75320D01*
X5775Y75158D01*
X5414Y74937D01*
X5092Y74662D01*
X4817Y74340D01*
X4596Y73979D01*
X4434Y73588D01*
X4335Y73176D01*
X4302Y72754D01*
Y72650D01*
X6850D01*
Y75441D01*
D02*
G37*
G36*
X16850D02*
X16578Y75419D01*
X16166Y75320D01*
X15775Y75158D01*
X15414Y74937D01*
X15092Y74662D01*
X14817Y74340D01*
X14596Y73979D01*
X14434Y73588D01*
X14335Y73176D01*
X14302Y72754D01*
Y72650D01*
X16850D01*
Y75441D01*
D02*
G37*
G36*
X19698Y72350D02*
X17150D01*
Y69559D01*
X17422Y69581D01*
X17834Y69680D01*
X18225Y69842D01*
X18586Y70063D01*
X18908Y70338D01*
X19183Y70660D01*
X19404Y71021D01*
X19566Y71412D01*
X19665Y71824D01*
X19698Y72246D01*
Y72350D01*
D02*
G37*
G36*
X9698D02*
X7150D01*
Y69559D01*
X7422Y69581D01*
X7834Y69680D01*
X8225Y69842D01*
X8586Y70063D01*
X8908Y70338D01*
X9183Y70660D01*
X9404Y71021D01*
X9566Y71412D01*
X9665Y71824D01*
X9698Y72246D01*
Y72350D01*
D02*
G37*
G36*
X16850D02*
X14302D01*
Y72246D01*
X14335Y71824D01*
X14434Y71412D01*
X14596Y71021D01*
X14817Y70660D01*
X15092Y70338D01*
X15414Y70063D01*
X15775Y69842D01*
X16166Y69680D01*
X16578Y69581D01*
X16850Y69559D01*
Y72350D01*
D02*
G37*
G36*
X6850D02*
X4302D01*
Y72246D01*
X4335Y71824D01*
X4434Y71412D01*
X4596Y71021D01*
X4817Y70660D01*
X5092Y70338D01*
X5414Y70063D01*
X5775Y69842D01*
X6166Y69680D01*
X6578Y69581D01*
X6850Y69559D01*
Y72350D01*
D02*
G37*
G36*
X5500Y67336D02*
X5142Y67301D01*
X4797Y67196D01*
X4480Y67026D01*
X4202Y66798D01*
X3974Y66520D01*
X3804Y66203D01*
X3699Y65858D01*
X3664Y65500D01*
X3699Y65142D01*
X3804Y64797D01*
X3974Y64480D01*
X4202Y64202D01*
X4480Y63974D01*
X4797Y63804D01*
X5142Y63699D01*
X5500Y63664D01*
X5858Y63699D01*
X6203Y63804D01*
X6520Y63974D01*
X6798Y64202D01*
X7026Y64480D01*
X7196Y64797D01*
X7301Y65142D01*
X7336Y65500D01*
X7301Y65858D01*
X7196Y66203D01*
X7026Y66520D01*
X6798Y66798D01*
X6520Y67026D01*
X6203Y67196D01*
X5858Y67301D01*
X5500Y67336D01*
D02*
G37*
G36*
X46750Y37200D02*
X45600D01*
Y36200D01*
X46750D01*
Y37200D01*
D02*
G37*
G36*
X45300D02*
X44150D01*
Y36200D01*
X45300D01*
Y37200D01*
D02*
G37*
G36*
X43150Y16441D02*
Y13650D01*
X45698D01*
Y13754D01*
X45665Y14176D01*
X45566Y14588D01*
X45404Y14979D01*
X45183Y15340D01*
X44908Y15662D01*
X44586Y15937D01*
X44225Y16158D01*
X43834Y16320D01*
X43422Y16419D01*
X43150Y16441D01*
D02*
G37*
G36*
X42850D02*
X42578Y16419D01*
X42166Y16320D01*
X41775Y16158D01*
X41414Y15937D01*
X41092Y15662D01*
X40817Y15340D01*
X40596Y14979D01*
X40434Y14588D01*
X40335Y14176D01*
X40302Y13754D01*
Y13650D01*
X42850D01*
Y16441D01*
D02*
G37*
G36*
X33150D02*
Y13650D01*
X35698D01*
Y13754D01*
X35665Y14176D01*
X35566Y14588D01*
X35404Y14979D01*
X35183Y15340D01*
X34908Y15662D01*
X34586Y15937D01*
X34225Y16158D01*
X33834Y16320D01*
X33422Y16419D01*
X33150Y16441D01*
D02*
G37*
G36*
X32850D02*
X32578Y16419D01*
X32166Y16320D01*
X31775Y16158D01*
X31414Y15937D01*
X31092Y15662D01*
X30817Y15340D01*
X30596Y14979D01*
X30434Y14588D01*
X30335Y14176D01*
X30302Y13754D01*
Y13650D01*
X32850D01*
Y16441D01*
D02*
G37*
G36*
X45698Y13350D02*
X43150D01*
Y10559D01*
X43422Y10581D01*
X43834Y10680D01*
X44225Y10842D01*
X44586Y11063D01*
X44908Y11338D01*
X45183Y11660D01*
X45404Y12021D01*
X45566Y12412D01*
X45665Y12824D01*
X45698Y13246D01*
Y13350D01*
D02*
G37*
G36*
X42850D02*
X40302D01*
Y13246D01*
X40335Y12824D01*
X40434Y12412D01*
X40596Y12021D01*
X40817Y11660D01*
X41092Y11338D01*
X41414Y11063D01*
X41775Y10842D01*
X42166Y10680D01*
X42578Y10581D01*
X42850Y10559D01*
Y13350D01*
D02*
G37*
G36*
X35698D02*
X33150D01*
Y10559D01*
X33422Y10581D01*
X33834Y10680D01*
X34225Y10842D01*
X34586Y11063D01*
X34908Y11338D01*
X35183Y11660D01*
X35404Y12021D01*
X35566Y12412D01*
X35665Y12824D01*
X35698Y13246D01*
Y13350D01*
D02*
G37*
G36*
X32850D02*
X30302D01*
Y13246D01*
X30335Y12824D01*
X30434Y12412D01*
X30596Y12021D01*
X30817Y11660D01*
X31092Y11338D01*
X31414Y11063D01*
X31775Y10842D01*
X32166Y10680D01*
X32578Y10581D01*
X32850Y10559D01*
Y13350D01*
D02*
G37*
G36*
X43150Y6441D02*
Y3650D01*
X45698D01*
Y3754D01*
X45665Y4176D01*
X45566Y4588D01*
X45404Y4979D01*
X45183Y5340D01*
X44908Y5662D01*
X44586Y5937D01*
X44225Y6158D01*
X43834Y6320D01*
X43422Y6419D01*
X43150Y6441D01*
D02*
G37*
G36*
X42850D02*
X42578Y6419D01*
X42166Y6320D01*
X41775Y6158D01*
X41414Y5937D01*
X41092Y5662D01*
X40817Y5340D01*
X40596Y4979D01*
X40434Y4588D01*
X40335Y4176D01*
X40302Y3754D01*
Y3650D01*
X42850D01*
Y6441D01*
D02*
G37*
G36*
X33150D02*
Y3650D01*
X35698D01*
Y3754D01*
X35665Y4176D01*
X35566Y4588D01*
X35404Y4979D01*
X35183Y5340D01*
X34908Y5662D01*
X34586Y5937D01*
X34225Y6158D01*
X33834Y6320D01*
X33422Y6419D01*
X33150Y6441D01*
D02*
G37*
G36*
X32850D02*
X32578Y6419D01*
X32166Y6320D01*
X31775Y6158D01*
X31414Y5937D01*
X31092Y5662D01*
X30817Y5340D01*
X30596Y4979D01*
X30434Y4588D01*
X30335Y4176D01*
X30302Y3754D01*
Y3650D01*
X32850D01*
Y6441D01*
D02*
G37*
G36*
X59967Y37200D02*
X58817D01*
Y36200D01*
X59967D01*
Y37200D01*
D02*
G37*
G36*
X58517D02*
X57367D01*
Y36200D01*
X58517D01*
Y37200D01*
D02*
G37*
G36*
X69136Y16441D02*
Y13650D01*
X71685D01*
Y13754D01*
X71651Y14176D01*
X71553Y14588D01*
X71391Y14979D01*
X71169Y15340D01*
X70894Y15662D01*
X70572Y15937D01*
X70211Y16158D01*
X69820Y16320D01*
X69409Y16419D01*
X69136Y16441D01*
D02*
G37*
G36*
X68836D02*
X68564Y16419D01*
X68153Y16320D01*
X67761Y16158D01*
X67400Y15937D01*
X67078Y15662D01*
X66803Y15340D01*
X66582Y14979D01*
X66420Y14588D01*
X66321Y14176D01*
X66288Y13754D01*
Y13650D01*
X68836D01*
Y16441D01*
D02*
G37*
G36*
X59136D02*
Y13650D01*
X61685D01*
Y13754D01*
X61652Y14176D01*
X61553Y14588D01*
X61391Y14979D01*
X61169Y15340D01*
X60894Y15662D01*
X60572Y15937D01*
X60211Y16158D01*
X59820Y16320D01*
X59409Y16419D01*
X59136Y16441D01*
D02*
G37*
G36*
X58836D02*
X58564Y16419D01*
X58153Y16320D01*
X57761Y16158D01*
X57400Y15937D01*
X57078Y15662D01*
X56803Y15340D01*
X56582Y14979D01*
X56420Y14588D01*
X56321Y14176D01*
X56288Y13754D01*
Y13650D01*
X58836D01*
Y16441D01*
D02*
G37*
G36*
X71685Y13350D02*
X69136D01*
Y10559D01*
X69409Y10581D01*
X69820Y10680D01*
X70211Y10842D01*
X70572Y11063D01*
X70894Y11338D01*
X71169Y11660D01*
X71391Y12021D01*
X71553Y12412D01*
X71651Y12824D01*
X71685Y13246D01*
Y13350D01*
D02*
G37*
G36*
X68836D02*
X66288D01*
Y13246D01*
X66321Y12824D01*
X66420Y12412D01*
X66582Y12021D01*
X66803Y11660D01*
X67078Y11338D01*
X67400Y11063D01*
X67761Y10842D01*
X68153Y10680D01*
X68564Y10581D01*
X68836Y10559D01*
Y13350D01*
D02*
G37*
G36*
X61685D02*
X59136D01*
Y10559D01*
X59409Y10581D01*
X59820Y10680D01*
X60211Y10842D01*
X60572Y11063D01*
X60894Y11338D01*
X61169Y11660D01*
X61391Y12021D01*
X61553Y12412D01*
X61652Y12824D01*
X61685Y13246D01*
Y13350D01*
D02*
G37*
G36*
X58836D02*
X56288D01*
Y13246D01*
X56321Y12824D01*
X56420Y12412D01*
X56582Y12021D01*
X56803Y11660D01*
X57078Y11338D01*
X57400Y11063D01*
X57761Y10842D01*
X58153Y10680D01*
X58564Y10581D01*
X58836Y10559D01*
Y13350D01*
D02*
G37*
G36*
X69136Y6441D02*
Y3650D01*
X71685D01*
Y3754D01*
X71651Y4176D01*
X71553Y4588D01*
X71391Y4979D01*
X71169Y5340D01*
X70894Y5662D01*
X70572Y5937D01*
X70211Y6158D01*
X69820Y6320D01*
X69409Y6419D01*
X69136Y6441D01*
D02*
G37*
G36*
X68836D02*
X68564Y6419D01*
X68153Y6320D01*
X67761Y6158D01*
X67400Y5937D01*
X67078Y5662D01*
X66803Y5340D01*
X66582Y4979D01*
X66420Y4588D01*
X66321Y4176D01*
X66288Y3754D01*
Y3650D01*
X68836D01*
Y6441D01*
D02*
G37*
G36*
X59136D02*
Y3650D01*
X61685D01*
Y3754D01*
X61652Y4176D01*
X61553Y4588D01*
X61391Y4979D01*
X61169Y5340D01*
X60894Y5662D01*
X60572Y5937D01*
X60211Y6158D01*
X59820Y6320D01*
X59409Y6419D01*
X59136Y6441D01*
D02*
G37*
G36*
X58836D02*
X58564Y6419D01*
X58153Y6320D01*
X57761Y6158D01*
X57400Y5937D01*
X57078Y5662D01*
X56803Y5340D01*
X56582Y4979D01*
X56420Y4588D01*
X56321Y4176D01*
X56288Y3754D01*
Y3650D01*
X58836D01*
Y6441D01*
D02*
G37*
G36*
X19315Y33325D02*
X18315D01*
Y32175D01*
X19315D01*
Y33325D01*
D02*
G37*
G36*
Y31875D02*
X18315D01*
Y30725D01*
X19315D01*
Y31875D01*
D02*
G37*
G36*
X5500Y22336D02*
X5142Y22301D01*
X4797Y22196D01*
X4480Y22026D01*
X4202Y21798D01*
X3974Y21520D01*
X3804Y21203D01*
X3699Y20858D01*
X3664Y20500D01*
X3699Y20142D01*
X3804Y19797D01*
X3974Y19480D01*
X4202Y19202D01*
X4480Y18974D01*
X4797Y18804D01*
X5142Y18699D01*
X5500Y18664D01*
X5858Y18699D01*
X6203Y18804D01*
X6520Y18974D01*
X6798Y19202D01*
X7026Y19480D01*
X7196Y19797D01*
X7301Y20142D01*
X7336Y20500D01*
X7301Y20858D01*
X7196Y21203D01*
X7026Y21520D01*
X6798Y21798D01*
X6520Y22026D01*
X6203Y22196D01*
X5858Y22301D01*
X5500Y22336D01*
D02*
G37*
G36*
X17150Y16441D02*
Y13650D01*
X19698D01*
Y13754D01*
X19665Y14176D01*
X19566Y14588D01*
X19404Y14979D01*
X19183Y15340D01*
X18908Y15662D01*
X18586Y15937D01*
X18225Y16158D01*
X17834Y16320D01*
X17422Y16419D01*
X17150Y16441D01*
D02*
G37*
G36*
X16850D02*
X16578Y16419D01*
X16166Y16320D01*
X15775Y16158D01*
X15414Y15937D01*
X15092Y15662D01*
X14817Y15340D01*
X14596Y14979D01*
X14434Y14588D01*
X14335Y14176D01*
X14302Y13754D01*
Y13650D01*
X16850D01*
Y16441D01*
D02*
G37*
G36*
X7150D02*
Y13650D01*
X9698D01*
Y13754D01*
X9665Y14176D01*
X9566Y14588D01*
X9404Y14979D01*
X9183Y15340D01*
X8908Y15662D01*
X8586Y15937D01*
X8225Y16158D01*
X7834Y16320D01*
X7422Y16419D01*
X7150Y16441D01*
D02*
G37*
G36*
X6850D02*
X6578Y16419D01*
X6166Y16320D01*
X5775Y16158D01*
X5414Y15937D01*
X5092Y15662D01*
X4817Y15340D01*
X4596Y14979D01*
X4434Y14588D01*
X4335Y14176D01*
X4302Y13754D01*
Y13650D01*
X6850D01*
Y16441D01*
D02*
G37*
G36*
X19698Y13350D02*
X17150D01*
Y10559D01*
X17422Y10581D01*
X17834Y10680D01*
X18225Y10842D01*
X18586Y11063D01*
X18908Y11338D01*
X19183Y11660D01*
X19404Y12021D01*
X19566Y12412D01*
X19665Y12824D01*
X19698Y13246D01*
Y13350D01*
D02*
G37*
G36*
X16850D02*
X14302D01*
Y13246D01*
X14335Y12824D01*
X14434Y12412D01*
X14596Y12021D01*
X14817Y11660D01*
X15092Y11338D01*
X15414Y11063D01*
X15775Y10842D01*
X16166Y10680D01*
X16578Y10581D01*
X16850Y10559D01*
Y13350D01*
D02*
G37*
G36*
X9698D02*
X7150D01*
Y10559D01*
X7422Y10581D01*
X7834Y10680D01*
X8225Y10842D01*
X8586Y11063D01*
X8908Y11338D01*
X9183Y11660D01*
X9404Y12021D01*
X9566Y12412D01*
X9665Y12824D01*
X9698Y13246D01*
Y13350D01*
D02*
G37*
G36*
X6850D02*
X4302D01*
Y13246D01*
X4335Y12824D01*
X4434Y12412D01*
X4596Y12021D01*
X4817Y11660D01*
X5092Y11338D01*
X5414Y11063D01*
X5775Y10842D01*
X6166Y10680D01*
X6578Y10581D01*
X6850Y10559D01*
Y13350D01*
D02*
G37*
G36*
X17150Y6441D02*
Y3650D01*
X19698D01*
Y3754D01*
X19665Y4176D01*
X19566Y4588D01*
X19404Y4979D01*
X19183Y5340D01*
X18908Y5662D01*
X18586Y5937D01*
X18225Y6158D01*
X17834Y6320D01*
X17422Y6419D01*
X17150Y6441D01*
D02*
G37*
G36*
X16850D02*
X16578Y6419D01*
X16166Y6320D01*
X15775Y6158D01*
X15414Y5937D01*
X15092Y5662D01*
X14817Y5340D01*
X14596Y4979D01*
X14434Y4588D01*
X14335Y4176D01*
X14302Y3754D01*
Y3650D01*
X16850D01*
Y6441D01*
D02*
G37*
G36*
X7150D02*
Y3650D01*
X9698D01*
Y3754D01*
X9665Y4176D01*
X9566Y4588D01*
X9404Y4979D01*
X9183Y5340D01*
X8908Y5662D01*
X8586Y5937D01*
X8225Y6158D01*
X7834Y6320D01*
X7422Y6419D01*
X7150Y6441D01*
D02*
G37*
G36*
X6850D02*
X6578Y6419D01*
X6166Y6320D01*
X5775Y6158D01*
X5414Y5937D01*
X5092Y5662D01*
X4817Y5340D01*
X4596Y4979D01*
X4434Y4588D01*
X4335Y4176D01*
X4302Y3754D01*
Y3650D01*
X6850D01*
Y6441D01*
D02*
G37*
%LPD*%
D10*
X58667Y37350D02*
D03*
Y41650D02*
D03*
X45450Y37350D02*
D03*
Y41650D02*
D03*
D11*
X19465Y32025D02*
D03*
X23765D02*
D03*
D12*
X44550Y43100D02*
X50980D01*
X33315D02*
X44550D01*
X51000Y43080D02*
X57153D01*
X57934Y42299D01*
X58167D01*
X58667Y41799D01*
X29000Y38785D02*
X33315Y43100D01*
X29000Y35500D02*
Y38785D01*
X26175Y32675D02*
X29000Y35500D01*
X24265Y32675D02*
X26175D01*
X23765Y32175D02*
X24265Y32675D01*
X23765Y32025D02*
Y32175D01*
X23943Y31318D02*
Y31468D01*
D13*
X44588Y37893D02*
D03*
D14*
X11916Y8573D02*
D03*
D15*
X37848Y8593D02*
D03*
D16*
X63762Y8573D02*
D03*
D17*
X89946Y8600D02*
D03*
D18*
X89940Y77412D02*
D03*
D19*
X63864Y77305D02*
D03*
D20*
X37880Y77402D02*
D03*
D21*
X11946Y77421D02*
D03*
D22*
X80423Y48160D02*
D03*
D23*
X7000Y3500D02*
D03*
X17000D02*
D03*
Y13500D02*
D03*
X7000D02*
D03*
X95000Y72500D02*
D03*
X85000D02*
D03*
Y82500D02*
D03*
X95000D02*
D03*
X68830Y72500D02*
D03*
X58830D02*
D03*
Y82500D02*
D03*
X68830D02*
D03*
X43000Y72500D02*
D03*
X33000D02*
D03*
Y82500D02*
D03*
X43000D02*
D03*
X17000Y72500D02*
D03*
X7000D02*
D03*
Y82500D02*
D03*
X17000D02*
D03*
X33000Y13500D02*
D03*
X43000D02*
D03*
Y3500D02*
D03*
X33000D02*
D03*
X85000Y13500D02*
D03*
X95000D02*
D03*
Y3500D02*
D03*
X85000D02*
D03*
X58986Y13500D02*
D03*
X68986D02*
D03*
Y3500D02*
D03*
X58986D02*
D03*
D24*
X77000Y38000D02*
D03*
Y40540D02*
D03*
Y43080D02*
D03*
Y45620D02*
D03*
Y48160D02*
D03*
X51000Y38000D02*
D03*
Y40540D02*
D03*
Y43080D02*
D03*
Y45620D02*
D03*
Y48160D02*
D03*
X25000Y38000D02*
D03*
Y40540D02*
D03*
Y43080D02*
D03*
Y45620D02*
D03*
Y48160D02*
D03*
D25*
X45513Y30480D02*
D03*
X45462Y32455D02*
D03*
X43567Y34500D02*
D03*
X42062Y50000D02*
D03*
X37500Y36500D02*
D03*
X38062Y50000D02*
D03*
X33500Y36500D02*
D03*
X34062Y50000D02*
D03*
X35500Y34500D02*
D03*
X44062Y50000D02*
D03*
X39500Y36500D02*
D03*
X40062Y50000D02*
D03*
X35500Y36500D02*
D03*
X36062Y50000D02*
D03*
X33500Y34500D02*
D03*
X32062Y50000D02*
D03*
X37500Y34532D02*
D03*
X39500Y34500D02*
D03*
X41500Y36500D02*
D03*
Y34500D02*
D03*
X3086Y32500D02*
D03*
X5086D02*
D03*
X7086D02*
D03*
X9086D02*
D03*
X11086D02*
D03*
X13086D02*
D03*
X15086D02*
D03*
X17086D02*
D03*
X17153Y34500D02*
D03*
X15086D02*
D03*
X13086D02*
D03*
X11086Y34532D02*
D03*
X9086Y34500D02*
D03*
X7086D02*
D03*
X5086D02*
D03*
X3086D02*
D03*
Y36500D02*
D03*
X5086D02*
D03*
X7086D02*
D03*
X9086D02*
D03*
X11086D02*
D03*
X13086D02*
D03*
X15086D02*
D03*
X17086D02*
D03*
Y30500D02*
D03*
X15086D02*
D03*
X13086D02*
D03*
X11086D02*
D03*
X9086D02*
D03*
X7086D02*
D03*
X5086D02*
D03*
X3086D02*
D03*
Y28500D02*
D03*
X5086D02*
D03*
X7086D02*
D03*
X9086D02*
D03*
X11086Y28532D02*
D03*
X13086Y28500D02*
D03*
X15086D02*
D03*
X17153D02*
D03*
X19086D02*
D03*
Y26500D02*
D03*
X17086D02*
D03*
X15086D02*
D03*
X13086D02*
D03*
X11086D02*
D03*
X9086D02*
D03*
X7086D02*
D03*
X5086D02*
D03*
X3086D02*
D03*
X33500Y32500D02*
D03*
X35500D02*
D03*
X37500D02*
D03*
X39500D02*
D03*
X41500D02*
D03*
X43500D02*
D03*
X45500Y34500D02*
D03*
X43500Y30500D02*
D03*
X41500D02*
D03*
X39500D02*
D03*
X37500D02*
D03*
X35500D02*
D03*
X33500D02*
D03*
X31500D02*
D03*
X29500Y28500D02*
D03*
X31500D02*
D03*
X33500D02*
D03*
X35500D02*
D03*
X37500Y28532D02*
D03*
X39500Y28500D02*
D03*
X41500D02*
D03*
X43567D02*
D03*
X45500D02*
D03*
Y26500D02*
D03*
X43500D02*
D03*
X41500D02*
D03*
X39500D02*
D03*
X37500D02*
D03*
X35500D02*
D03*
X33500D02*
D03*
X31500D02*
D03*
X29500D02*
D03*
X56500Y32500D02*
D03*
X58500D02*
D03*
X60500D02*
D03*
X62500D02*
D03*
X64500D02*
D03*
X66500D02*
D03*
X68500D02*
D03*
X70500D02*
D03*
X72500D02*
D03*
Y34500D02*
D03*
X70567D02*
D03*
X68500D02*
D03*
X66500D02*
D03*
X64500Y34532D02*
D03*
X62500Y34500D02*
D03*
X60500D02*
D03*
X58500D02*
D03*
X56500D02*
D03*
X62500Y36500D02*
D03*
X64500D02*
D03*
X66500D02*
D03*
X68500D02*
D03*
X70500D02*
D03*
X72500D02*
D03*
Y30500D02*
D03*
X70500D02*
D03*
X68500D02*
D03*
X66500D02*
D03*
X64500D02*
D03*
X62500D02*
D03*
X60500D02*
D03*
X58500D02*
D03*
X56500D02*
D03*
Y28500D02*
D03*
X58500D02*
D03*
X60500D02*
D03*
X62500D02*
D03*
X64500Y28532D02*
D03*
X66500Y28500D02*
D03*
X68500D02*
D03*
X70567D02*
D03*
X72500D02*
D03*
Y26500D02*
D03*
X70500D02*
D03*
X68500D02*
D03*
X66500D02*
D03*
X64500D02*
D03*
X62500D02*
D03*
X60500D02*
D03*
X58500D02*
D03*
X56500D02*
D03*
X58000Y50000D02*
D03*
X60000D02*
D03*
X62000D02*
D03*
X64000D02*
D03*
X66000D02*
D03*
X68000D02*
D03*
X70000D02*
D03*
X72000Y52000D02*
D03*
X70067D02*
D03*
X68000D02*
D03*
X66000D02*
D03*
X64000Y52032D02*
D03*
X62000Y52000D02*
D03*
X60000D02*
D03*
X58000D02*
D03*
X56000D02*
D03*
Y54000D02*
D03*
X58000D02*
D03*
X60000D02*
D03*
X62000D02*
D03*
X64000D02*
D03*
X66000D02*
D03*
X68000D02*
D03*
X70000D02*
D03*
X72000D02*
D03*
Y60000D02*
D03*
X70000D02*
D03*
X68000D02*
D03*
X66000D02*
D03*
X64000D02*
D03*
X62000D02*
D03*
X60000D02*
D03*
X58000D02*
D03*
X56000D02*
D03*
Y58000D02*
D03*
X58000D02*
D03*
X60000D02*
D03*
X62000D02*
D03*
X64000Y58032D02*
D03*
X66000Y58000D02*
D03*
X68000D02*
D03*
X70067D02*
D03*
X72000D02*
D03*
Y56000D02*
D03*
X70000D02*
D03*
X68000D02*
D03*
X66000D02*
D03*
X64000D02*
D03*
X62000D02*
D03*
X60000D02*
D03*
X58000D02*
D03*
X56000D02*
D03*
X46062Y52000D02*
D03*
X44128D02*
D03*
X42062D02*
D03*
X40062D02*
D03*
X38062Y52032D02*
D03*
X36062Y52000D02*
D03*
X34062D02*
D03*
X32062D02*
D03*
X30062D02*
D03*
Y54000D02*
D03*
X32062D02*
D03*
X34062D02*
D03*
X36062D02*
D03*
X38062D02*
D03*
X40062D02*
D03*
X42062D02*
D03*
X44062D02*
D03*
X46062D02*
D03*
Y60000D02*
D03*
X44062D02*
D03*
X42062D02*
D03*
X40062D02*
D03*
X38062D02*
D03*
X36062D02*
D03*
X34062D02*
D03*
X32062D02*
D03*
X30062D02*
D03*
Y58000D02*
D03*
X32062D02*
D03*
X34062D02*
D03*
X36062D02*
D03*
X38062Y58032D02*
D03*
X40062Y58000D02*
D03*
X42062D02*
D03*
X44128D02*
D03*
X46062D02*
D03*
Y56000D02*
D03*
X44062D02*
D03*
X42062D02*
D03*
X40062D02*
D03*
X38062D02*
D03*
X36062D02*
D03*
X34062D02*
D03*
X32062D02*
D03*
X30062D02*
D03*
X4000D02*
D03*
X6000D02*
D03*
X8000D02*
D03*
X10000D02*
D03*
X12000D02*
D03*
X14000D02*
D03*
X16000D02*
D03*
X18000D02*
D03*
X20000D02*
D03*
Y58000D02*
D03*
X18067D02*
D03*
X16000D02*
D03*
X14000D02*
D03*
X12000Y58032D02*
D03*
X10000Y58000D02*
D03*
X8000D02*
D03*
X6000D02*
D03*
X4000D02*
D03*
Y60000D02*
D03*
X6000D02*
D03*
X8000D02*
D03*
X10000D02*
D03*
X12000D02*
D03*
X14000D02*
D03*
X16000D02*
D03*
X18000D02*
D03*
X20000D02*
D03*
Y54000D02*
D03*
X18000D02*
D03*
X16000D02*
D03*
X14000D02*
D03*
X12000D02*
D03*
X10000D02*
D03*
X8000D02*
D03*
X6000D02*
D03*
X4000D02*
D03*
Y52000D02*
D03*
X6000D02*
D03*
X8000D02*
D03*
X10000D02*
D03*
X12000Y52032D02*
D03*
X14000Y52000D02*
D03*
X16000D02*
D03*
X18067D02*
D03*
X20000D02*
D03*
X18000Y50000D02*
D03*
X16000D02*
D03*
X14000D02*
D03*
X12000D02*
D03*
X10000D02*
D03*
X8000D02*
D03*
X6000D02*
D03*
X4000D02*
D03*
%TF.MD5,ccb9b76545464488346b4dfeda5e2b3b*%
M02*
