%TF.GenerationSoftware,Altium Limited,Altium Designer,21.6.4 (81)*%
G04 Layer_Color=255*
%FSLAX43Y43*%
%MOMM*%
%TF.SameCoordinates,1AC814DF-7433-4E0E-8A45-847F92D72221*%
%TF.FilePolarity,Positive*%
%TF.FileFunction,Pads,Top*%
%TF.Part,Single*%
G01*
G75*
%TA.AperFunction,SMDPad,CuDef*%
%ADD10R,2.300X2.000*%
%ADD11R,2.000X2.300*%
%TA.AperFunction,ComponentPad*%
%ADD23O,5.080X5.588*%
%ADD24C,1.500*%
D10*
X58667Y37350D02*
D03*
Y41650D02*
D03*
X45450Y37350D02*
D03*
Y41650D02*
D03*
D11*
X19465Y32025D02*
D03*
X23765D02*
D03*
D23*
X7000Y3500D02*
D03*
X17000D02*
D03*
Y13500D02*
D03*
X7000D02*
D03*
X95000Y72500D02*
D03*
X85000D02*
D03*
Y82500D02*
D03*
X95000D02*
D03*
X68830Y72500D02*
D03*
X58830D02*
D03*
Y82500D02*
D03*
X68830D02*
D03*
X43000Y72500D02*
D03*
X33000D02*
D03*
Y82500D02*
D03*
X43000D02*
D03*
X17000Y72500D02*
D03*
X7000D02*
D03*
Y82500D02*
D03*
X17000D02*
D03*
X33000Y13500D02*
D03*
X43000D02*
D03*
Y3500D02*
D03*
X33000D02*
D03*
X85000Y13500D02*
D03*
X95000D02*
D03*
Y3500D02*
D03*
X85000D02*
D03*
X58986Y13500D02*
D03*
X68986D02*
D03*
Y3500D02*
D03*
X58986D02*
D03*
D24*
X77000Y38000D02*
D03*
Y40540D02*
D03*
Y43080D02*
D03*
Y45620D02*
D03*
Y48160D02*
D03*
X51000Y38000D02*
D03*
Y40540D02*
D03*
Y43080D02*
D03*
Y45620D02*
D03*
Y48160D02*
D03*
X25000Y38000D02*
D03*
Y40540D02*
D03*
Y43080D02*
D03*
Y45620D02*
D03*
Y48160D02*
D03*
%TF.MD5,97e9df85413b253cddfab9325bf68502*%
M02*
