%TF.GenerationSoftware,Altium Limited,Altium Designer,21.6.4 (81)*%
G04 Layer_Color=32896*
%FSLAX43Y43*%
%MOMM*%
%TF.SameCoordinates,1AC814DF-7433-4E0E-8A45-847F92D72221*%
%TF.FilePolarity,Positive*%
%TF.FileFunction,Legend,Bot*%
%TF.Part,Single*%
G01*
G75*
%TA.AperFunction,NonConductor*%
%ADD42C,1.000*%
%ADD43C,0.254*%
%ADD44C,0.200*%
%ADD45C,2.000*%
D42*
X7696Y65499D02*
G03*
X7696Y65499I-2200J0D01*
G01*
Y20499D02*
G03*
X7696Y20499I-2200J0D01*
G01*
X98696D02*
G03*
X98696Y20499I-2200J0D01*
G01*
Y65499D02*
G03*
X98696Y65499I-2200J0D01*
G01*
D43*
X1586Y-2549D02*
X22160D01*
X1586Y16501D02*
X22160D01*
Y-2549D02*
Y16501D01*
X1586Y-2549D02*
Y16501D01*
X12000D02*
X12125Y-2549D01*
X89875Y88549D02*
X90000Y69499D01*
X100414D02*
Y88549D01*
X79840Y69499D02*
Y88549D01*
Y69499D02*
X100414D01*
X79840Y88549D02*
X100414D01*
X63706Y88549D02*
X63830Y69499D01*
X74244D02*
Y88549D01*
X53670Y69499D02*
Y88549D01*
Y69499D02*
X74244D01*
X53670Y88549D02*
X74244D01*
X37875Y88549D02*
X38000Y69499D01*
X48414D02*
Y88549D01*
X27840Y69499D02*
Y88549D01*
Y69499D02*
X48414D01*
X27840Y88549D02*
X48414D01*
X11875Y88549D02*
X12000Y69499D01*
X22414D02*
Y88549D01*
X1840Y69499D02*
Y88549D01*
Y69499D02*
X22414D01*
X1840Y88549D02*
X22414D01*
X38000Y16501D02*
X38125Y-2549D01*
X27586Y-2549D02*
Y16501D01*
X48160Y-2549D02*
Y16501D01*
X27586D02*
X48160D01*
X27586Y-2549D02*
X48160D01*
X90000Y16501D02*
X90125Y-2549D01*
X79586Y-2549D02*
Y16501D01*
X100160Y-2549D02*
Y16501D01*
X79586D02*
X100160D01*
X79586Y-2549D02*
X100160D01*
X63986Y16501D02*
X64111Y-2549D01*
X53572Y-2549D02*
Y16501D01*
X74146Y-2549D02*
Y16501D01*
X53572D02*
X74146D01*
X53572Y-2549D02*
X74146D01*
X59936Y49673D02*
Y51196D01*
X59175D01*
X58921Y50942D01*
Y50435D01*
X59175Y50181D01*
X59936D01*
X59429D02*
X58921Y49673D01*
X57397Y51196D02*
X57905Y50942D01*
X58413Y50435D01*
Y49927D01*
X58159Y49673D01*
X57651D01*
X57397Y49927D01*
Y50181D01*
X57651Y50435D01*
X58413D01*
X40912Y49673D02*
Y51196D01*
X40150D01*
X39896Y50942D01*
Y50435D01*
X40150Y50181D01*
X40912D01*
X40404D02*
X39896Y49673D01*
X38373Y51196D02*
X39388D01*
Y50435D01*
X38880Y50688D01*
X38627D01*
X38373Y50435D01*
Y49927D01*
X38627Y49673D01*
X39134D01*
X39388Y49927D01*
X14851Y49673D02*
Y51196D01*
X14090D01*
X13836Y50942D01*
Y50435D01*
X14090Y50181D01*
X14851D01*
X14344D02*
X13836Y49673D01*
X12566D02*
Y51196D01*
X13328Y50435D01*
X12312D01*
X66947Y49673D02*
Y51196D01*
X66185D01*
X65931Y50942D01*
Y50435D01*
X66185Y50181D01*
X66947D01*
X66439D02*
X65931Y49673D01*
X65423Y50942D02*
X65169Y51196D01*
X64662D01*
X64408Y50942D01*
Y50688D01*
X64662Y50435D01*
X64915D01*
X64662D01*
X64408Y50181D01*
Y49927D01*
X64662Y49673D01*
X65169D01*
X65423Y49927D01*
X33901Y49673D02*
Y51196D01*
X33140D01*
X32886Y50942D01*
Y50435D01*
X33140Y50181D01*
X33901D01*
X33394D02*
X32886Y49673D01*
X31362D02*
X32378D01*
X31362Y50688D01*
Y50942D01*
X31616Y51196D01*
X32124D01*
X32378Y50942D01*
X7358Y49673D02*
Y51196D01*
X6597D01*
X6343Y50942D01*
Y50435D01*
X6597Y50181D01*
X7358D01*
X6851D02*
X6343Y49673D01*
X5835D02*
X5327D01*
X5581D01*
Y51196D01*
X5835Y50942D01*
D44*
X38209Y37200D02*
Y48800D01*
X44809D01*
X38209Y37200D02*
X44809D01*
Y48800D01*
X64244Y37200D02*
Y48800D01*
X70844D01*
X64244Y37200D02*
X70844D01*
Y48800D01*
X63834Y37200D02*
Y48800D01*
X57234Y37200D02*
X63834D01*
X57234Y48800D02*
X63834D01*
X57234Y37200D02*
Y48800D01*
X37799Y37200D02*
Y48800D01*
X31199Y37200D02*
X37799D01*
X31199Y48800D02*
X37799D01*
X31199Y37200D02*
Y48800D01*
X18767Y37200D02*
Y48800D01*
X12167Y37200D02*
X18767D01*
X12167Y48800D02*
X18767D01*
X12167Y37200D02*
Y48800D01*
X11782Y37200D02*
Y48800D01*
X5182Y37200D02*
X11782D01*
X5182Y48800D02*
X11782D01*
X5182Y37200D02*
Y48800D01*
D45*
X20850Y17825D02*
Y22490D01*
X18517Y24823D01*
X16185Y22490D01*
Y17825D01*
Y21324D01*
X20850D01*
X46975Y24698D02*
Y17700D01*
X43476D01*
X42310Y18866D01*
Y20033D01*
X43476Y21199D01*
X46975D01*
X43476D01*
X42310Y22365D01*
Y23531D01*
X43476Y24698D01*
X46975D01*
X68210Y23831D02*
X69376Y24998D01*
X71709D01*
X72875Y23831D01*
Y19166D01*
X71709Y18000D01*
X69376D01*
X68210Y19166D01*
X99800Y39525D02*
Y46523D01*
X95135Y39525D01*
Y46523D01*
%TF.MD5,c7ef17d591af45a7b9b5117a9c424521*%
M02*
