M48
;Layer_Color=9474304
;FILE_FORMAT=4:3
METRIC,LZ
;TYPE=PLATED
T1F00S00C0.900
T2F00S00C1.000
T3F00S00C2.159
%
T01
X0051Y0038
Y004054
Y004308
Y004562
Y004816
X0077
Y004562
Y004308
Y004054
Y0038
X0025
Y004054
Y004308
Y004562
Y004816
T02
X0003086Y00265
Y00285
Y00305
X0005086
Y00285
Y00265
X0007086
Y00285
Y00305
X0009086
X0011086
Y0028532
X0009086Y00285
Y00265
X0011086
X0013086
Y00285
Y00305
X0015086
X0017086
X0017153Y00285
X0019086
Y00265
X0017086
X0015086
Y00285
X00295
X00315
Y00305
X00335
Y00285
X00355
Y00305
X00375
Y0028532
X00395Y00285
Y00305
X00415
X00435
X0045513Y003048
X00455Y00285
X0043567
X00415
Y00265
X00435
X00455
X00395
X00375
X00355
X00335
X00315
X00295
X00565
Y00285
Y00305
X00585
X00605
Y00285
X00585
Y00265
X00605
X00625
X00645
X00665
Y00285
Y00305
X00685
X00705
X00725
Y00285
X0070567
X00685
Y00265
X00705
X00725
X00645Y0028532
Y00305
X00625
Y00285
Y00325
X00645
X00665
X00685
X00705
X00725
Y00345
X0070567
X00685
Y00365
X00705
X00725
X00665
Y00345
X00645Y0034532
Y00365
X00625
Y00345
X00605
X00585
Y00325
X00605
X00565
Y00345
X0058Y005
X006
X0062
X0064
X0066
X0068
X007
X0070067Y0052
X0072
Y0054
Y0056
Y0058
X0070067
X007Y006
X0068
Y0058
X0066
Y006
X0064
Y0058032
X0062Y0058
Y006
X006
X0058
Y0058
X006
Y0056
Y0054
Y0052
X0058
Y0054
Y0056
X0056
Y0054
Y0052
Y0058
Y006
X0062Y0056
Y0054
Y0052
X0064Y0052032
Y0054
Y0056
X0066
Y0054
Y0052
X0068
Y0054
X007
Y0056
X0068
X0072Y006
X0046062
Y0058
X0044128
X0044062Y006
X0042062
Y0058
X0040062
Y006
X0038062
Y0058032
X0036062Y0058
Y006
X0034062
X0032062
Y0058
X0034062
Y0056
Y0054
Y0052
X0032062
Y0054
Y0056
X0030062
Y0054
Y0052
X0032062Y005
X0034062
X0036062
X0038062
X0040062
X0042062
X0044062
X0044128Y0052
X0046062
Y0054
Y0056
X0044062
Y0054
X0042062
Y0052
X0040062
Y0054
Y0056
X0042062
X0038062
Y0054
Y0052032
X0036062Y0052
Y0054
Y0056
X0030062Y0058
Y006
X002
Y0058
X0018067
X0016
Y006
X0018
Y0056
X0016
Y0054
X0018
X002
Y0056
Y0052
X0018067
X0016
X0014
Y0054
Y0056
X0012
X001
Y0054
X0012
Y0052032
X001Y0052
X0008
Y0054
Y0056
Y0058
Y006
X001
Y0058
X0012Y0058032
Y006
X0014
Y0058
Y005
X0016
X0018
X0012
X001
X0008
X0007086Y00365
Y00345
Y00325
X0009086
X0011086
X0013086
X0015086
X0017086
X0017153Y00345
X0015086
Y00365
X0017086
X0013086
Y00345
X0011086Y0034532
Y00365
X0009086
Y00345
X00335
Y00365
X00355
X00375
Y0034532
X00355Y00345
Y00325
X00375
X00395
Y00345
Y00365
X00415
Y00345
Y00325
X00435
X0045462Y0032455
X00455Y00345
X0043567
X00335Y00325
X0005086
X0003086
Y00345
Y00365
X0005086
Y00345
X0006Y005
Y0052
Y0054
Y0056
X0004
Y0054
Y0052
Y005
Y0058
Y006
X0006
Y0058
T03
X0007Y00035
X0017
Y00135
X0007
X0033
X0043
Y00035
X0033
X0058986
Y00135
X0068986
Y00035
X0085
Y00135
X0095
Y00035
X0043Y00725
X0033
Y00825
X0043
X0017
Y00725
X0007
Y00825
X005883
Y00725
X006883
Y00825
X0085
Y00725
X0095
Y00825
M30
