%TF.GenerationSoftware,Altium Limited,Altium Designer,21.6.4 (81)*%
G04 Layer_Color=65535*
%FSLAX43Y43*%
%MOMM*%
%TF.SameCoordinates,1AC814DF-7433-4E0E-8A45-847F92D72221*%
%TF.FilePolarity,Positive*%
%TF.FileFunction,Legend,Top*%
%TF.Part,Single*%
G01*
G75*
%TA.AperFunction,NonConductor*%
%ADD42C,1.000*%
%ADD43C,0.254*%
%ADD44C,0.200*%
%ADD45C,2.000*%
D42*
X7716Y65525D02*
G03*
X7716Y65525I-2200J0D01*
G01*
Y20525D02*
G03*
X7716Y20525I-2200J0D01*
G01*
X98716D02*
G03*
X98716Y20525I-2200J0D01*
G01*
Y65525D02*
G03*
X98716Y65525I-2200J0D01*
G01*
D43*
X1586Y-2549D02*
X22160D01*
X1586Y16501D02*
X22160D01*
Y-2549D02*
Y16501D01*
X1586Y-2549D02*
Y16501D01*
Y245D02*
X22160D01*
X1586Y16501D02*
X22160D01*
Y245D02*
Y16501D01*
X1586Y245D02*
Y16501D01*
X100414Y69499D02*
Y85755D01*
X79840Y69499D02*
Y85755D01*
Y69499D02*
X100414D01*
X79840Y85755D02*
X100414D01*
Y69499D02*
Y88549D01*
X79840Y69499D02*
Y88549D01*
Y69499D02*
X100414D01*
X79840Y88549D02*
X100414D01*
X74244Y69499D02*
Y85755D01*
X53670Y69499D02*
Y85755D01*
Y69499D02*
X74244D01*
X53670Y85755D02*
X74244D01*
Y69499D02*
Y88549D01*
X53670Y69499D02*
Y88549D01*
Y69499D02*
X74244D01*
X53670Y88549D02*
X74244D01*
X48414Y69499D02*
Y85755D01*
X27840Y69499D02*
Y85755D01*
Y69499D02*
X48414D01*
X27840Y85755D02*
X48414D01*
Y69499D02*
Y88549D01*
X27840Y69499D02*
Y88549D01*
Y69499D02*
X48414D01*
X27840Y88549D02*
X48414D01*
X22414Y69499D02*
Y85755D01*
X1840Y69499D02*
Y85755D01*
Y69499D02*
X22414D01*
X1840Y85755D02*
X22414D01*
Y69499D02*
Y88549D01*
X1840Y69499D02*
Y88549D01*
Y69499D02*
X22414D01*
X1840Y88549D02*
X22414D01*
X27586Y245D02*
Y16501D01*
X48160Y245D02*
Y16501D01*
X27586D02*
X48160D01*
X27586Y245D02*
X48160D01*
X27586Y-2549D02*
Y16501D01*
X48160Y-2549D02*
Y16501D01*
X27586D02*
X48160D01*
X27586Y-2549D02*
X48160D01*
X79586Y245D02*
Y16501D01*
X100160Y245D02*
Y16501D01*
X79586D02*
X100160D01*
X79586Y245D02*
X100160D01*
X79586Y-2549D02*
Y16501D01*
X100160Y-2549D02*
Y16501D01*
X79586D02*
X100160D01*
X79586Y-2549D02*
X100160D01*
X53572Y245D02*
Y16501D01*
X74146Y245D02*
Y16501D01*
X53572D02*
X74146D01*
X53572Y245D02*
X74146D01*
X53572Y-2549D02*
Y16501D01*
X74146Y-2549D02*
Y16501D01*
X53572D02*
X74146D01*
X53572Y-2549D02*
X74146D01*
X73684Y49300D02*
X74217Y48500D01*
Y49300D02*
X73684Y48500D01*
X75016Y49300D02*
X74483D01*
Y48900D01*
X74750Y49033D01*
X74883D01*
X75016Y48900D01*
Y48633D01*
X74883Y48500D01*
X74617D01*
X74483Y48633D01*
X21659Y49400D02*
X22192Y48600D01*
Y49400D02*
X21659Y48600D01*
X22858D02*
Y49400D01*
X22458Y49000D01*
X22991D01*
X47934Y49400D02*
X48467Y48600D01*
Y49400D02*
X47934Y48600D01*
X48733Y49267D02*
X48867Y49400D01*
X49133D01*
X49266Y49267D01*
Y49133D01*
X49133Y49000D01*
X49000D01*
X49133D01*
X49266Y48867D01*
Y48733D01*
X49133Y48600D01*
X48867D01*
X48733Y48733D01*
X84746Y68262D02*
X84238D01*
X84492D01*
Y66992D01*
X84238Y66738D01*
X83984D01*
X83730Y66992D01*
X85254Y68008D02*
X85508Y68262D01*
X86016D01*
X86270Y68008D01*
Y67754D01*
X86016Y67500D01*
X86270Y67246D01*
Y66992D01*
X86016Y66738D01*
X85508D01*
X85254Y66992D01*
Y67246D01*
X85508Y67500D01*
X85254Y67754D01*
Y68008D01*
X85508Y67500D02*
X86016D01*
X58246Y68262D02*
X57738D01*
X57992D01*
Y66992D01*
X57738Y66738D01*
X57484D01*
X57230Y66992D01*
X58754Y68262D02*
X59770D01*
Y68008D01*
X58754Y66992D01*
Y66738D01*
X29746Y68262D02*
X29238D01*
X29492D01*
Y66992D01*
X29238Y66738D01*
X28984D01*
X28730Y66992D01*
X31270Y68262D02*
X30762Y68008D01*
X30254Y67500D01*
Y66992D01*
X30508Y66738D01*
X31016D01*
X31270Y66992D01*
Y67246D01*
X31016Y67500D01*
X30254D01*
X9071Y68837D02*
X8563D01*
X8817D01*
Y67567D01*
X8563Y67313D01*
X8309D01*
X8055Y67567D01*
X10595Y68837D02*
X9579D01*
Y68075D01*
X10087Y68329D01*
X10341D01*
X10595Y68075D01*
Y67567D01*
X10341Y67313D01*
X9833D01*
X9579Y67567D01*
X80739Y18913D02*
X80231D01*
X80485D01*
Y17643D01*
X80231Y17389D01*
X79977D01*
X79723Y17643D01*
X82008Y17389D02*
Y18913D01*
X81246Y18151D01*
X82262D01*
X54704Y18913D02*
X54196D01*
X54450D01*
Y17643D01*
X54196Y17389D01*
X53942D01*
X53688Y17643D01*
X55211Y18659D02*
X55465Y18913D01*
X55973D01*
X56227Y18659D01*
Y18405D01*
X55973Y18151D01*
X55719D01*
X55973D01*
X56227Y17897D01*
Y17643D01*
X55973Y17389D01*
X55465D01*
X55211Y17643D01*
X28719Y18913D02*
X28212D01*
X28466D01*
Y17643D01*
X28212Y17389D01*
X27958D01*
X27704Y17643D01*
X30243Y17389D02*
X29227D01*
X30243Y18405D01*
Y18659D01*
X29989Y18913D01*
X29481D01*
X29227Y18659D01*
X2173Y18649D02*
X1665D01*
X1919D01*
Y17379D01*
X1665Y17125D01*
X1411D01*
X1157Y17379D01*
X2680Y17125D02*
X3188D01*
X2934D01*
Y18649D01*
X2680Y18395D01*
X57469Y45342D02*
Y44326D01*
X57976Y43818D01*
X58484Y44326D01*
Y45342D01*
X58992D02*
Y43818D01*
X59754D01*
X60008Y44072D01*
Y45088D01*
X59754Y45342D01*
X58992D01*
X60516Y45088D02*
X60770Y45342D01*
X61277D01*
X61531Y45088D01*
Y44834D01*
X61277Y44580D01*
X61024D01*
X61277D01*
X61531Y44326D01*
Y44072D01*
X61277Y43818D01*
X60770D01*
X60516Y44072D01*
X43548Y45037D02*
Y44021D01*
X44055Y43513D01*
X44563Y44021D01*
Y45037D01*
X45071D02*
Y43513D01*
X45833D01*
X46087Y43767D01*
Y44783D01*
X45833Y45037D01*
X45071D01*
X46595Y43513D02*
X47102D01*
X46849D01*
Y45037D01*
X46595Y44783D01*
X25738Y29969D02*
X26754D01*
X27262Y30476D01*
X26754Y30984D01*
X25738D01*
Y31492D02*
X27262D01*
Y32254D01*
X27008Y32508D01*
X25992D01*
X25738Y32254D01*
Y31492D01*
X27262Y34031D02*
Y33016D01*
X26246Y34031D01*
X25992D01*
X25738Y33777D01*
Y33270D01*
X25992Y33016D01*
D44*
X75750Y49410D02*
X78250D01*
X75750Y36750D02*
X78250D01*
Y49410D01*
X75750Y36750D02*
Y49410D01*
X49750D02*
X52250D01*
X49750Y36750D02*
X52250D01*
Y49410D01*
X49750Y36750D02*
Y49410D01*
X23750D02*
X26250D01*
X23750Y36750D02*
X26250D01*
Y49410D01*
X23750Y36750D02*
Y49410D01*
X76986Y3117D02*
X76986Y36242D01*
X51066Y2943D02*
X51066Y36068D01*
X24977Y2992D02*
X24977Y36117D01*
X25027Y51592D02*
X25027Y84717D01*
X76861Y51492D02*
X76861Y84617D01*
X53735Y43000D02*
X74500D01*
X29235D02*
X48239D01*
X58667Y39850D02*
Y40450D01*
X57967Y39850D02*
X58667D01*
Y38550D02*
Y39850D01*
X59367D01*
X57960Y39143D02*
X59374D01*
X57960D02*
X58667Y39850D01*
X59374Y39143D01*
X56742Y42850D02*
X60592D01*
X56742Y36150D02*
X60592D01*
X56742D02*
Y42850D01*
X60592Y36150D02*
Y42850D01*
X21965Y32025D02*
X22565D01*
X21965D02*
Y32725D01*
X20665Y32025D02*
X21965D01*
Y31325D02*
Y32025D01*
X21258Y31318D02*
Y32733D01*
X21965Y32025D01*
X21258Y31318D02*
X21965Y32025D01*
X24965Y30100D02*
Y33950D01*
X18265Y30100D02*
Y33950D01*
X24965D01*
X18265Y30100D02*
X24965D01*
X45450Y39850D02*
Y40450D01*
X44750Y39850D02*
X45450D01*
Y38550D02*
Y39850D01*
X46150D01*
X44743Y39143D02*
X46157D01*
X44743D02*
X45450Y39850D01*
X46157Y39143D01*
X43525Y42850D02*
X47375D01*
X43525Y36150D02*
X47375D01*
X43525D02*
Y42850D01*
X47375Y36150D02*
Y42850D01*
X2235Y43000D02*
X23000D01*
X64033Y16459D02*
Y69545D01*
X38000Y16483D02*
Y69499D01*
X12000Y16501D02*
X12000Y69139D01*
X51000Y51000D02*
X51000Y84125D01*
D45*
X95250Y39675D02*
Y46673D01*
X99915Y39675D01*
Y46673D01*
X72840Y23756D02*
X71674Y24923D01*
X69341D01*
X68175Y23756D01*
Y19091D01*
X69341Y17925D01*
X71674D01*
X72840Y19091D01*
X16075Y17875D02*
Y22540D01*
X18408Y24873D01*
X20740Y22540D01*
Y17875D01*
Y21374D01*
X16075D01*
X42335Y24698D02*
Y17700D01*
X45834D01*
X47000Y18866D01*
Y20033D01*
X45834Y21199D01*
X42335D01*
X45834D01*
X47000Y22365D01*
Y23531D01*
X45834Y24698D01*
X42335D01*
%TF.MD5,ddf555a163e2a2b183247d6a044e4007*%
M02*
