%TF.GenerationSoftware,Altium Limited,Altium Designer,21.6.4 (81)*%
G04 Layer_Physical_Order=2*
G04 Layer_Color=36540*
%FSLAX43Y43*%
%MOMM*%
%TF.SameCoordinates,F87848A5-9C76-4C60-8026-6C1C3CCCB256*%
%TF.FilePolarity,Positive*%
%TF.FileFunction,Copper,L2,Inr,Signal*%
%TF.Part,Single*%
G01*
G75*
%TA.AperFunction,Conductor*%
%ADD23C,0.500*%
%TA.AperFunction,NonConductor*%
%ADD27C,0.254*%
%TA.AperFunction,ComponentPad*%
%ADD28C,1.500*%
%ADD29C,2.000*%
%TA.AperFunction,ViaPad*%
%ADD30C,0.600*%
%ADD31C,0.800*%
D23*
X86137Y39486D02*
Y48864D01*
X85369Y49632D02*
X86137Y48864D01*
X6045Y7137D02*
X9957Y3226D01*
X6045Y7137D02*
Y16795D01*
X3574Y19266D02*
X6045Y16795D01*
X88902Y34034D02*
Y36721D01*
X86137Y39486D02*
X88902Y36721D01*
X93926Y23217D02*
Y29010D01*
X88902Y34034D02*
X93926Y29010D01*
X85750Y3730D02*
X88206D01*
X90500Y6024D01*
Y19791D02*
X93926Y23217D01*
X90500Y6024D02*
Y19791D01*
X74371Y13801D02*
Y13818D01*
X72305Y11735D02*
X74371Y13801D01*
X67688Y11735D02*
X72305D01*
X21599Y4936D02*
X24298Y2237D01*
X58190D01*
X11168Y4936D02*
X21599D01*
X23274Y896D02*
X72177D01*
X20943Y3226D02*
X23274Y896D01*
X9957Y3226D02*
X20943D01*
X7948Y8156D02*
X11168Y4936D01*
X7948Y8156D02*
Y17989D01*
X6421Y19516D02*
Y21971D01*
Y19516D02*
X7948Y17989D01*
X58190Y2237D02*
X67688Y11735D01*
X57379Y11951D02*
X57381D01*
X57429Y11998D01*
Y12001D02*
X58963Y13535D01*
X64826D01*
X57429Y11998D02*
Y12001D01*
X64826Y13535D02*
X69446Y18156D01*
Y19424D01*
X72982Y22960D02*
X74500D01*
X69446Y19424D02*
X72982Y22960D01*
X3574Y19266D02*
Y20396D01*
X72177Y896D02*
X72980Y1699D01*
X36748Y40595D02*
X47797D01*
X48895Y39497D02*
X78842D01*
X47797Y40595D02*
X48895Y39497D01*
X79934Y40589D02*
X79934D01*
X78842Y39497D02*
X79934Y40589D01*
X79934D02*
X81636Y42291D01*
X32995Y44348D02*
X36748Y40595D01*
X31580Y34366D02*
X57277D01*
X61417Y30226D02*
X65380D01*
X57277Y34366D02*
X61417Y30226D01*
X66056Y20559D02*
Y23665D01*
X56421Y33299D02*
X66056Y23665D01*
X32563Y33299D02*
X56421D01*
X54976Y32207D02*
X59170Y28013D01*
X46228Y32207D02*
X54976D01*
X63259Y23785D02*
X63313D01*
X46852Y18644D02*
X58117D01*
X63259Y23785D01*
X45486Y20010D02*
X46852Y18644D01*
X43710Y21785D02*
X45486Y20010D01*
X44450Y30429D02*
X46228Y32207D01*
X32301Y28135D02*
X34595Y30429D01*
X44450D01*
X17457Y35595D02*
X17510D01*
X22510Y40595D02*
X31547D01*
X17510Y35595D02*
X22510Y40595D01*
X26746Y42951D02*
Y43028D01*
X28067Y44348D02*
X32995D01*
X26746Y43028D02*
X28067Y44348D01*
X31648Y32385D02*
X32563Y33299D01*
X31648Y30675D02*
Y32385D01*
X33934Y21785D02*
X43710D01*
X26653Y29439D02*
X31580Y34366D01*
X15951Y10592D02*
X28778D01*
X11684Y14859D02*
X15951Y10592D01*
X28550Y28135D02*
X32301D01*
X28829Y8865D02*
X31852Y11887D01*
X13640Y8865D02*
X28829D01*
X11582Y6807D02*
X13640Y8865D01*
X20638Y41885D02*
X31648D01*
X14567Y47955D02*
X20638Y41885D01*
D27*
X91264Y40914D02*
X90249D01*
X91264Y41930D01*
Y42184D01*
X91010Y42438D01*
X90503D01*
X90249Y42184D01*
D28*
X88000Y20000D02*
D03*
Y17460D02*
D03*
Y14920D02*
D03*
Y12380D02*
D03*
Y9840D02*
D03*
X53000Y44000D02*
D03*
X55540D02*
D03*
X58080D02*
D03*
X60620D02*
D03*
X63160D02*
D03*
X53000Y41460D02*
D03*
X55540D02*
D03*
X58080D02*
D03*
X60620D02*
D03*
X63160D02*
D03*
X22500Y20420D02*
D03*
Y22960D02*
D03*
Y25500D02*
D03*
Y28040D02*
D03*
Y30580D02*
D03*
X48500Y20420D02*
D03*
Y22960D02*
D03*
Y25500D02*
D03*
Y28040D02*
D03*
Y30580D02*
D03*
X74500Y20420D02*
D03*
Y22960D02*
D03*
Y25500D02*
D03*
Y28040D02*
D03*
Y30580D02*
D03*
X13665Y29108D02*
D03*
X17457Y35595D02*
D03*
X20045Y30714D02*
D03*
X86657Y23851D02*
D03*
X77470Y25552D02*
D03*
X9119Y19710D02*
D03*
X20015Y22860D02*
D03*
X54045Y11465D02*
D03*
X59673Y35983D02*
D03*
X13503Y49608D02*
D03*
X6756Y39822D02*
D03*
X9703Y49078D02*
D03*
X18466Y49327D02*
D03*
X24130Y34544D02*
D03*
X19916Y34064D02*
D03*
X88986Y29632D02*
D03*
X71984Y17094D02*
D03*
X58858Y28298D02*
D03*
X26604Y25595D02*
D03*
X26441Y19990D02*
D03*
X45466D02*
D03*
X26619Y29405D02*
D03*
X23890Y49682D02*
D03*
X69210Y2821D02*
D03*
X3353Y8331D02*
D03*
X24302Y13558D02*
D03*
X18440Y1346D02*
D03*
X11862Y14667D02*
D03*
X27349Y5162D02*
D03*
X78220Y20447D02*
D03*
X66903Y36000D02*
D03*
X45796Y46952D02*
D03*
D29*
X61610Y36000D02*
D03*
X69210D02*
D03*
X54010Y8000D02*
D03*
X69210D02*
D03*
D30*
X85369Y49632D02*
D03*
X73939Y8730D02*
D03*
X86919Y2480D02*
D03*
X85750Y3730D02*
D03*
X93892Y21666D02*
D03*
X74371Y13818D02*
D03*
X6421Y21971D02*
D03*
X57379Y11921D02*
D03*
X3574Y20396D02*
D03*
X73000Y1718D02*
D03*
X69291Y42460D02*
D03*
X42646Y39170D02*
D03*
X44298Y45675D02*
D03*
D31*
X46327Y41865D02*
D03*
X60620Y46859D02*
D03*
X82396Y32134D02*
D03*
X81636Y42291D02*
D03*
X65380Y30226D02*
D03*
X33020Y31945D02*
D03*
X42621Y31560D02*
D03*
X70612Y48870D02*
D03*
X38583Y41885D02*
D03*
X87670Y29657D02*
D03*
X17780Y37744D02*
D03*
X17678Y7036D02*
D03*
X28869Y13132D02*
D03*
Y14402D02*
D03*
X31852Y11887D02*
D03*
X41237Y7955D02*
D03*
X41250Y39345D02*
D03*
X41257Y24359D02*
D03*
X42360Y10146D02*
D03*
X10109Y12548D02*
D03*
X28550Y26848D02*
D03*
X28778Y10592D02*
D03*
X11582Y6807D02*
D03*
X28550Y28135D02*
D03*
X66056Y20559D02*
D03*
X31648Y30675D02*
D03*
X63313Y23785D02*
D03*
X26746Y42951D02*
D03*
X12423Y39688D02*
D03*
X14567Y47955D02*
D03*
X31648Y41885D02*
D03*
X31547Y40595D02*
D03*
X44856Y38049D02*
D03*
X28869Y15563D02*
D03*
X28653Y45640D02*
D03*
X33934Y21785D02*
D03*
X28442Y24325D02*
D03*
X28697Y23012D02*
D03*
X36673Y44378D02*
D03*
X36646Y29337D02*
D03*
X36627Y14275D02*
D03*
X37620Y43135D02*
D03*
Y28169D02*
D03*
Y13106D02*
D03*
X38594Y26822D02*
D03*
X38583Y11887D02*
D03*
X28626Y43091D02*
D03*
X14783Y28042D02*
D03*
X42636Y16945D02*
D03*
X42621Y46903D02*
D03*
%TF.MD5,7020514fba683327cd3e82b040ab90a9*%
M02*
