M48
;Layer_Color=9474304
;FILE_FORMAT=4:3
METRIC,LZ
;TYPE=PLATED
T1F00S00C0.200
T2F00S00C0.300
T3F00S00C0.900
T4F00S00C1.000
%
T01
X0003574Y0020396
X0006421Y0021971
X0057379Y0011921
X0074371Y0013818
X0073939Y000873
X0073Y0001718
X008575Y000373
X0086919Y000248
X0093892Y0021666
X0085369Y0049632
X0069291Y004246
X0044298Y0045675
X0042646Y003917
T02
X0011582Y0006807
X0017678Y0007036
X0010109Y0012548
X0028869Y0013132
Y0014402
Y0015563
X0028778Y0010592
X0031852Y0011887
X0038583
X003762Y0013106
X0036627Y0014275
X0042636Y0016945
X004236Y0010146
X0041237Y0007955
X0041257Y0024359
X0038594Y0026822
X003762Y0028169
X0036646Y0029337
X0031648Y0030675
X002855Y0028135
Y0026848
X0028442Y0024325
X0028697Y0023012
X0033934Y0021785
X0042621Y003156
X0014783Y0028042
X006538Y0030226
X0063313Y0023785
X0066056Y0020559
X008767Y0029657
X0082396Y0032134
X0081636Y0042291
X0070612Y004887
X006062Y0046859
X0046327Y0041865
X0044856Y0038049
X004125Y0039345
X0038583Y0041885
X003762Y0043135
X0036673Y0044378
X0031648Y0041885
X0031547Y0040595
X0028626Y0043091
X0026746Y0042951
X0028653Y004564
X0042621Y0046903
X003302Y0031945
X001778Y0037744
X0012423Y0039688
X0014567Y0047955
T03
X00225Y002042
Y002296
Y00255
Y002804
Y003058
X00485
Y002804
Y00255
Y002296
Y002042
X00745
Y002296
Y00255
Y002804
Y003058
X0088Y002
Y001746
Y001492
Y001238
Y000984
X006316Y004146
Y0044
X006062
X005808
X005554
X0053
Y004146
X005554
X005808
X006062
T04
X0003353Y0008331
X0011862Y0014667
X0009119Y001971
X0013665Y0029108
X0020045Y0030714
X0020015Y002286
X0026441Y001999
X0026604Y0025595
X0026619Y0029405
X0024302Y0013558
X0027349Y0005162
X001844Y0001346
X0045466Y001999
X0054045Y0011465
X005401Y0008
X006921
Y0002821
X0071984Y0017094
X007822Y0020447
X007747Y0025552
X0058858Y0028298
X0088986Y0029632
X0086657Y0023851
X006921Y0036
X0066903
X006161
X0059673Y0035983
X0045796Y0046952
X002389Y0049682
X0018466Y0049327
X0013503Y0049608
X0009703Y0049078
X0006756Y0039822
X0017457Y0035595
X0019916Y0034064
X002413Y0034544
M30
