%TF.GenerationSoftware,Altium Limited,Altium Designer,21.6.4 (81)*%
G04 Layer_Color=65535*
%FSLAX43Y43*%
%MOMM*%
%TF.SameCoordinates,F87848A5-9C76-4C60-8026-6C1C3CCCB256*%
%TF.FilePolarity,Positive*%
%TF.FileFunction,Legend,Top*%
%TF.Part,Single*%
G01*
G75*
%TA.AperFunction,NonConductor*%
%ADD27C,0.254*%
%ADD33C,1.000*%
%ADD34C,0.200*%
D27*
X30137Y19775D02*
G03*
X30137Y19775I-112J0D01*
G01*
Y49775D02*
G03*
X30137Y49775I-112J0D01*
G01*
Y34775D02*
G03*
X30137Y34775I-112J0D01*
G01*
X83845Y12712D02*
X83712Y12846D01*
X83445D01*
X83312Y12712D01*
Y12179D01*
X83445Y12046D01*
X83712D01*
X83845Y12179D01*
X84112Y12846D02*
X84645D01*
Y12712D01*
X84112Y12179D01*
Y12046D01*
X84645D01*
X84911Y11913D02*
X85445D01*
X86244Y12712D02*
X86111Y12846D01*
X85845D01*
X85711Y12712D01*
Y12179D01*
X85845Y12046D01*
X86111D01*
X86244Y12179D01*
X83845Y15224D02*
X83712Y15358D01*
X83445D01*
X83312Y15224D01*
Y14691D01*
X83445Y14558D01*
X83712D01*
X83845Y14691D01*
X84112Y15358D02*
X84645D01*
Y15224D01*
X84112Y14691D01*
Y14558D01*
X84645D01*
X84911Y14425D02*
X85445D01*
X85711Y15358D02*
Y14558D01*
X86111D01*
X86244Y14691D01*
Y14825D01*
X86111Y14958D01*
X85711D01*
X86111D01*
X86244Y15091D01*
Y15224D01*
X86111Y15358D01*
X85711D01*
X83871Y17801D02*
X83737Y17934D01*
X83471D01*
X83337Y17801D01*
Y17268D01*
X83471Y17134D01*
X83737D01*
X83871Y17268D01*
X84137Y17934D02*
X84670D01*
Y17801D01*
X84137Y17268D01*
Y17134D01*
X84670D01*
X84937Y17001D02*
X85470D01*
X85737Y17134D02*
Y17668D01*
X86003Y17934D01*
X86270Y17668D01*
Y17134D01*
Y17534D01*
X85737D01*
X84785Y19678D02*
Y20478D01*
X85185D01*
X85318Y20345D01*
Y20078D01*
X85185Y19945D01*
X84785D01*
X86118Y20345D02*
X85984Y20478D01*
X85718D01*
X85585Y20345D01*
Y20211D01*
X85718Y20078D01*
X85984D01*
X86118Y19945D01*
Y19811D01*
X85984Y19678D01*
X85718D01*
X85585Y19811D01*
X50037Y49819D02*
X49904Y49952D01*
X49637D01*
X49504Y49819D01*
Y49286D01*
X49637Y49152D01*
X49904D01*
X50037Y49286D01*
X50304Y49952D02*
Y49152D01*
X50837D01*
X51103Y49952D02*
Y49152D01*
Y49419D01*
X51637Y49952D01*
X51237Y49552D01*
X51637Y49152D01*
X51903Y49019D02*
X52436D01*
X52703Y49152D02*
Y49952D01*
X52970Y49685D01*
X53236Y49952D01*
Y49152D01*
X53503Y49952D02*
X53769D01*
X53636D01*
Y49152D01*
X53503D01*
X53769D01*
X54702Y49819D02*
X54569Y49952D01*
X54302D01*
X54169Y49819D01*
Y49685D01*
X54302Y49552D01*
X54569D01*
X54702Y49419D01*
Y49286D01*
X54569Y49152D01*
X54302D01*
X54169Y49286D01*
X55369Y49952D02*
X55102D01*
X54969Y49819D01*
Y49286D01*
X55102Y49152D01*
X55369D01*
X55502Y49286D01*
Y49819D01*
X55369Y49952D01*
X55769Y49019D02*
X56302D01*
X56568Y49152D02*
Y49952D01*
X56835Y49685D01*
X57102Y49952D01*
Y49152D01*
X57768Y49952D02*
X57501D01*
X57368Y49819D01*
Y49286D01*
X57501Y49152D01*
X57768D01*
X57901Y49286D01*
Y49819D01*
X57768Y49952D01*
X58701Y49819D02*
X58568Y49952D01*
X58301D01*
X58168Y49819D01*
Y49685D01*
X58301Y49552D01*
X58568D01*
X58701Y49419D01*
Y49286D01*
X58568Y49152D01*
X58301D01*
X58168Y49286D01*
X58968Y49952D02*
X59234D01*
X59101D01*
Y49152D01*
X58968D01*
X59234D01*
X59634Y49019D02*
X60167D01*
X60434Y49819D02*
X60567Y49952D01*
X60834D01*
X60967Y49819D01*
Y49685D01*
X60834Y49552D01*
X60700D01*
X60834D01*
X60967Y49419D01*
Y49286D01*
X60834Y49152D01*
X60567D01*
X60434Y49286D01*
X61234Y49152D02*
Y49286D01*
X61367D01*
Y49152D01*
X61234D01*
X61900Y49819D02*
X62033Y49952D01*
X62300D01*
X62433Y49819D01*
Y49685D01*
X62300Y49552D01*
X62167D01*
X62300D01*
X62433Y49419D01*
Y49286D01*
X62300Y49152D01*
X62033D01*
X61900Y49286D01*
X62700Y49952D02*
Y49419D01*
X62966Y49152D01*
X63233Y49419D01*
Y49952D01*
X63499Y49019D02*
X64033D01*
X64832Y49819D02*
X64699Y49952D01*
X64433D01*
X64299Y49819D01*
Y49286D01*
X64433Y49152D01*
X64699D01*
X64832Y49286D01*
Y49552D01*
X64566D01*
X65099Y49152D02*
Y49952D01*
X65632Y49152D01*
Y49952D01*
X65899D02*
Y49152D01*
X66299D01*
X66432Y49286D01*
Y49819D01*
X66299Y49952D01*
X65899D01*
X50187Y37839D02*
X50054Y37972D01*
X49787D01*
X49654Y37839D01*
Y37306D01*
X49787Y37172D01*
X50054D01*
X50187Y37306D01*
X50454Y37972D02*
Y37172D01*
X50987D01*
X51254Y37972D02*
Y37172D01*
Y37439D01*
X51787Y37972D01*
X51387Y37572D01*
X51787Y37172D01*
X52453Y37972D02*
X52187D01*
X52053Y37839D01*
Y37306D01*
X52187Y37172D01*
X52453D01*
X52586Y37306D01*
Y37839D01*
X52453Y37972D01*
X52853D02*
Y37306D01*
X52986Y37172D01*
X53253D01*
X53386Y37306D01*
Y37972D01*
X53653D02*
X54186D01*
X53919D01*
Y37172D01*
X54452Y37039D02*
X54986D01*
X55785Y37839D02*
X55652Y37972D01*
X55386D01*
X55252Y37839D01*
Y37306D01*
X55386Y37172D01*
X55652D01*
X55785Y37306D01*
X56585Y37839D02*
X56452Y37972D01*
X56185D01*
X56052Y37839D01*
Y37705D01*
X56185Y37572D01*
X56452D01*
X56585Y37439D01*
Y37306D01*
X56452Y37172D01*
X56185D01*
X56052Y37306D01*
X56852Y37172D02*
Y37705D01*
X57118Y37972D01*
X57385Y37705D01*
Y37172D01*
Y37572D01*
X56852D01*
X57651Y37039D02*
X58185D01*
X58984Y37839D02*
X58851Y37972D01*
X58584D01*
X58451Y37839D01*
Y37306D01*
X58584Y37172D01*
X58851D01*
X58984Y37306D01*
X59784Y37839D02*
X59651Y37972D01*
X59384D01*
X59251Y37839D01*
Y37705D01*
X59384Y37572D01*
X59651D01*
X59784Y37439D01*
Y37306D01*
X59651Y37172D01*
X59384D01*
X59251Y37306D01*
X60584Y37839D02*
X60451Y37972D01*
X60184D01*
X60051Y37839D01*
Y37306D01*
X60184Y37172D01*
X60451D01*
X60584Y37306D01*
X60850Y37039D02*
X61384D01*
X62183Y37839D02*
X62050Y37972D01*
X61783D01*
X61650Y37839D01*
Y37306D01*
X61783Y37172D01*
X62050D01*
X62183Y37306D01*
X62983Y37839D02*
X62850Y37972D01*
X62583D01*
X62450Y37839D01*
Y37705D01*
X62583Y37572D01*
X62850D01*
X62983Y37439D01*
Y37306D01*
X62850Y37172D01*
X62583D01*
X62450Y37306D01*
X63250Y37972D02*
Y37172D01*
X63650D01*
X63783Y37306D01*
Y37439D01*
X63650Y37572D01*
X63250D01*
X63650D01*
X63783Y37705D01*
Y37839D01*
X63650Y37972D01*
X63250D01*
X64049Y37039D02*
X64583D01*
X65382Y37972D02*
X64849D01*
Y37572D01*
X65116Y37705D01*
X65249D01*
X65382Y37572D01*
Y37306D01*
X65249Y37172D01*
X64982D01*
X64849Y37306D01*
X65649Y37972D02*
Y37439D01*
X65915Y37172D01*
X66182Y37439D01*
Y37972D01*
X90522Y25225D02*
Y26025D01*
X90921D01*
X91055Y25891D01*
Y25625D01*
X90921Y25492D01*
X90522D01*
X90788D02*
X91055Y25225D01*
X91854Y26025D02*
X91321D01*
Y25625D01*
X91588Y25758D01*
X91721D01*
X91854Y25625D01*
Y25358D01*
X91721Y25225D01*
X91455D01*
X91321Y25358D01*
X92121Y25891D02*
X92254Y26025D01*
X92521D01*
X92654Y25891D01*
Y25358D01*
X92521Y25225D01*
X92254D01*
X92121Y25358D01*
Y25891D01*
X90502Y21876D02*
Y22676D01*
X90902D01*
X91035Y22542D01*
Y22276D01*
X90902Y22143D01*
X90502D01*
X90769D02*
X91035Y21876D01*
X91702D02*
Y22676D01*
X91302Y22276D01*
X91835D01*
X92101Y22009D02*
X92235Y21876D01*
X92501D01*
X92635Y22009D01*
Y22542D01*
X92501Y22676D01*
X92235D01*
X92101Y22542D01*
Y22409D01*
X92235Y22276D01*
X92635D01*
X90630Y23661D02*
Y24461D01*
X91029D01*
X91163Y24328D01*
Y24061D01*
X91029Y23928D01*
X90630D01*
X90896D02*
X91163Y23661D01*
X91829D02*
Y24461D01*
X91429Y24061D01*
X91963D01*
X92229Y24328D02*
X92362Y24461D01*
X92629D01*
X92762Y24328D01*
Y24194D01*
X92629Y24061D01*
X92762Y23928D01*
Y23794D01*
X92629Y23661D01*
X92362D01*
X92229Y23794D01*
Y23928D01*
X92362Y24061D01*
X92229Y24194D01*
Y24328D01*
X92362Y24061D02*
X92629D01*
X2566Y21317D02*
Y22117D01*
X2966D01*
X3099Y21984D01*
Y21717D01*
X2966Y21584D01*
X2566D01*
X2832D02*
X3099Y21317D01*
X3765D02*
Y22117D01*
X3366Y21717D01*
X3899D01*
X4165Y22117D02*
X4699D01*
Y21984D01*
X4165Y21450D01*
Y21317D01*
X68555Y9632D02*
Y10431D01*
X68955D01*
X69088Y10298D01*
Y10031D01*
X68955Y9898D01*
X68555D01*
X68822D02*
X69088Y9632D01*
X69755D02*
Y10431D01*
X69355Y10031D01*
X69888D01*
X70688Y10431D02*
X70421Y10298D01*
X70155Y10031D01*
Y9765D01*
X70288Y9632D01*
X70554D01*
X70688Y9765D01*
Y9898D01*
X70554Y10031D01*
X70155D01*
X2990Y30877D02*
Y31677D01*
X3389D01*
X3523Y31543D01*
Y31277D01*
X3389Y31143D01*
X2990D01*
X3256D02*
X3523Y30877D01*
X4189D02*
Y31677D01*
X3789Y31277D01*
X4323D01*
X4989Y30877D02*
Y31677D01*
X4589Y31277D01*
X5122D01*
X63701Y9555D02*
Y10355D01*
X64101D01*
X64234Y10222D01*
Y9955D01*
X64101Y9822D01*
X63701D01*
X63968D02*
X64234Y9555D01*
X64901D02*
Y10355D01*
X64501Y9955D01*
X65034D01*
X65301Y10222D02*
X65434Y10355D01*
X65700D01*
X65834Y10222D01*
Y10089D01*
X65700Y9955D01*
X65567D01*
X65700D01*
X65834Y9822D01*
Y9689D01*
X65700Y9555D01*
X65434D01*
X65301Y9689D01*
X9058Y30588D02*
Y31388D01*
X9458D01*
X9591Y31255D01*
Y30988D01*
X9458Y30855D01*
X9058D01*
X9324D02*
X9591Y30588D01*
X10257D02*
Y31388D01*
X9858Y30988D01*
X10391D01*
X10657Y30588D02*
X10924D01*
X10791D01*
Y31388D01*
X10657Y31255D01*
X58878Y9742D02*
Y10542D01*
X59278D01*
X59412Y10409D01*
Y10142D01*
X59278Y10009D01*
X58878D01*
X59145D02*
X59412Y9742D01*
X59678Y10409D02*
X59811Y10542D01*
X60078D01*
X60211Y10409D01*
Y10276D01*
X60078Y10142D01*
X59945D01*
X60078D01*
X60211Y10009D01*
Y9876D01*
X60078Y9742D01*
X59811D01*
X59678Y9876D01*
X60478Y10409D02*
X60611Y10542D01*
X60878D01*
X61011Y10409D01*
Y10276D01*
X60878Y10142D01*
X60744D01*
X60878D01*
X61011Y10009D01*
Y9876D01*
X60878Y9742D01*
X60611D01*
X60478Y9876D01*
X60763Y800D02*
Y1600D01*
X61163D01*
X61296Y1466D01*
Y1200D01*
X61163Y1066D01*
X60763D01*
X61030D02*
X61296Y800D01*
X61563Y1466D02*
X61696Y1600D01*
X61963D01*
X62096Y1466D01*
Y1333D01*
X61963Y1200D01*
X61829D01*
X61963D01*
X62096Y1066D01*
Y933D01*
X61963Y800D01*
X61696D01*
X61563Y933D01*
X62363Y800D02*
X62629D01*
X62496D01*
Y1600D01*
X62363Y1466D01*
X56701Y720D02*
Y1519D01*
X57101D01*
X57234Y1386D01*
Y1119D01*
X57101Y986D01*
X56701D01*
X56968D02*
X57234Y720D01*
X57501Y1386D02*
X57634Y1519D01*
X57901D01*
X58034Y1386D01*
Y1253D01*
X57901Y1119D01*
X57768D01*
X57901D01*
X58034Y986D01*
Y853D01*
X57901Y720D01*
X57634D01*
X57501Y853D01*
X58301Y1386D02*
X58434Y1519D01*
X58701D01*
X58834Y1386D01*
Y853D01*
X58701Y720D01*
X58434D01*
X58301Y853D01*
Y1386D01*
X79274Y39002D02*
X79140Y39135D01*
X78874D01*
X78740Y39002D01*
Y38468D01*
X78874Y38335D01*
X79140D01*
X79274Y38468D01*
X79940Y38335D02*
Y39135D01*
X79540Y38735D01*
X80073D01*
X80873Y38335D02*
X80340D01*
X80873Y38868D01*
Y39002D01*
X80740Y39135D01*
X80473D01*
X80340Y39002D01*
X87334Y7800D02*
X87867Y7000D01*
Y7800D02*
X87334Y7000D01*
X88666D02*
X88133D01*
X88666Y7533D01*
Y7667D01*
X88533Y7800D01*
X88267D01*
X88133Y7667D01*
X90830Y26908D02*
Y27708D01*
X91230D01*
X91363Y27575D01*
Y27308D01*
X91230Y27175D01*
X90830D01*
X91096D02*
X91363Y26908D01*
X92163D02*
X91630D01*
X92163Y27441D01*
Y27575D01*
X92029Y27708D01*
X91763D01*
X91630Y27575D01*
X92429Y27042D02*
X92563Y26908D01*
X92829D01*
X92963Y27042D01*
Y27575D01*
X92829Y27708D01*
X92563D01*
X92429Y27575D01*
Y27441D01*
X92563Y27308D01*
X92963D01*
X53036Y667D02*
Y1467D01*
X53436D01*
X53569Y1333D01*
Y1067D01*
X53436Y934D01*
X53036D01*
X53302D02*
X53569Y667D01*
X54369D02*
X53835D01*
X54369Y1200D01*
Y1333D01*
X54235Y1467D01*
X53969D01*
X53835Y1333D01*
X54635D02*
X54768Y1467D01*
X55035D01*
X55168Y1333D01*
Y1200D01*
X55035Y1067D01*
X55168Y934D01*
Y800D01*
X55035Y667D01*
X54768D01*
X54635Y800D01*
Y934D01*
X54768Y1067D01*
X54635Y1200D01*
Y1333D01*
X54768Y1067D02*
X55035D01*
X74622Y8797D02*
Y7997D01*
X75022D01*
X75155Y8130D01*
Y8663D01*
X75022Y8797D01*
X74622D01*
X75422Y7997D02*
Y8530D01*
X75688Y8797D01*
X75955Y8530D01*
Y7997D01*
Y8397D01*
X75422D01*
X76221Y7997D02*
X76488D01*
X76355D01*
Y8797D01*
X76221Y8663D01*
X65405Y45152D02*
X65938Y44352D01*
Y45152D02*
X65405Y44352D01*
X66205D02*
X66472D01*
X66338D01*
Y45152D01*
X66205Y45019D01*
X17320Y25531D02*
X17853D01*
X17587D01*
Y24732D01*
X18120D02*
Y25531D01*
X18520D01*
X18653Y25398D01*
Y25131D01*
X18520Y24998D01*
X18120D01*
X18919Y25398D02*
X19053Y25531D01*
X19319D01*
X19453Y25398D01*
Y25265D01*
X19319Y25131D01*
X19186D01*
X19319D01*
X19453Y24998D01*
Y24865D01*
X19319Y24732D01*
X19053D01*
X18919Y24865D01*
X20252Y24732D02*
X19719D01*
X20252Y25265D01*
Y25398D01*
X20119Y25531D01*
X19852D01*
X19719Y25398D01*
X5088Y20383D02*
X5621D01*
X5354D01*
Y19583D01*
X5888D02*
Y20383D01*
X6288D01*
X6421Y20250D01*
Y19983D01*
X6288Y19850D01*
X5888D01*
X6687Y20250D02*
X6821Y20383D01*
X7087D01*
X7221Y20250D01*
Y20117D01*
X7087Y19983D01*
X6954D01*
X7087D01*
X7221Y19850D01*
Y19717D01*
X7087Y19583D01*
X6821D01*
X6687Y19717D01*
X7487Y19583D02*
X7754D01*
X7620D01*
Y20383D01*
X7487Y20250D01*
X75902Y27425D02*
X76435D01*
X76169D01*
Y26626D01*
X76702D02*
Y27425D01*
X77102D01*
X77235Y27292D01*
Y27026D01*
X77102Y26892D01*
X76702D01*
X77502Y27292D02*
X77635Y27425D01*
X77902D01*
X78035Y27292D01*
Y27159D01*
X77902Y27026D01*
X77768D01*
X77902D01*
X78035Y26892D01*
Y26759D01*
X77902Y26626D01*
X77635D01*
X77502Y26759D01*
X78301Y27292D02*
X78435Y27425D01*
X78701D01*
X78835Y27292D01*
Y26759D01*
X78701Y26626D01*
X78435D01*
X78301Y26759D01*
Y27292D01*
X84676Y22829D02*
X85209D01*
X84942D01*
Y22030D01*
X85476D02*
Y22829D01*
X85875D01*
X86009Y22696D01*
Y22429D01*
X85875Y22296D01*
X85476D01*
X86808Y22030D02*
X86275D01*
X86808Y22563D01*
Y22696D01*
X86675Y22829D01*
X86409D01*
X86275Y22696D01*
X87075Y22163D02*
X87208Y22030D01*
X87475D01*
X87608Y22163D01*
Y22696D01*
X87475Y22829D01*
X87208D01*
X87075Y22696D01*
Y22563D01*
X87208Y22429D01*
X87608D01*
X17825Y29561D02*
X18359D01*
X18092D01*
Y28761D01*
X18625D02*
Y29561D01*
X19025D01*
X19158Y29427D01*
Y29161D01*
X19025Y29027D01*
X18625D01*
X19958Y28761D02*
X19425D01*
X19958Y29294D01*
Y29427D01*
X19825Y29561D01*
X19558D01*
X19425Y29427D01*
X20225D02*
X20358Y29561D01*
X20625D01*
X20758Y29427D01*
Y29294D01*
X20625Y29161D01*
X20758Y29027D01*
Y28894D01*
X20625Y28761D01*
X20358D01*
X20225Y28894D01*
Y29027D01*
X20358Y29161D01*
X20225Y29294D01*
Y29427D01*
X20358Y29161D02*
X20625D01*
X11476Y31388D02*
X12009D01*
X11742D01*
Y30588D01*
X12276D02*
Y31388D01*
X12675D01*
X12809Y31255D01*
Y30988D01*
X12675Y30855D01*
X12276D01*
X13608Y30588D02*
X13075D01*
X13608Y31121D01*
Y31255D01*
X13475Y31388D01*
X13209D01*
X13075Y31255D01*
X13875Y31388D02*
X14408D01*
Y31255D01*
X13875Y30721D01*
Y30588D01*
X52579Y13535D02*
X53112D01*
X52845D01*
Y12735D01*
X53378D02*
Y13535D01*
X53778D01*
X53912Y13402D01*
Y13135D01*
X53778Y13002D01*
X53378D01*
X54711Y12735D02*
X54178D01*
X54711Y13269D01*
Y13402D01*
X54578Y13535D01*
X54311D01*
X54178Y13402D01*
X55511Y13535D02*
X55244Y13402D01*
X54978Y13135D01*
Y12869D01*
X55111Y12735D01*
X55378D01*
X55511Y12869D01*
Y13002D01*
X55378Y13135D01*
X54978D01*
X55616Y36383D02*
X56149D01*
X55882D01*
Y35583D01*
X56415D02*
Y36383D01*
X56815D01*
X56949Y36249D01*
Y35983D01*
X56815Y35849D01*
X56415D01*
X57748Y35583D02*
X57215D01*
X57748Y36116D01*
Y36249D01*
X57615Y36383D01*
X57348D01*
X57215Y36249D01*
X58548Y36383D02*
X58015D01*
Y35983D01*
X58281Y36116D01*
X58415D01*
X58548Y35983D01*
Y35716D01*
X58415Y35583D01*
X58148D01*
X58015Y35716D01*
X63230Y35317D02*
X63763D01*
X63497D01*
Y34517D01*
X64030D02*
Y35317D01*
X64430D01*
X64563Y35183D01*
Y34917D01*
X64430Y34784D01*
X64030D01*
X65363Y34517D02*
X64829D01*
X65363Y35050D01*
Y35183D01*
X65229Y35317D01*
X64963D01*
X64829Y35183D01*
X66029Y34517D02*
Y35317D01*
X65629Y34917D01*
X66162D01*
X46991Y47187D02*
X47524D01*
X47258D01*
Y46387D01*
X47791D02*
Y47187D01*
X48191D01*
X48324Y47053D01*
Y46787D01*
X48191Y46654D01*
X47791D01*
X49124Y46387D02*
X48591D01*
X49124Y46920D01*
Y47053D01*
X48991Y47187D01*
X48724D01*
X48591Y47053D01*
X49391D02*
X49524Y47187D01*
X49790D01*
X49924Y47053D01*
Y46920D01*
X49790Y46787D01*
X49657D01*
X49790D01*
X49924Y46654D01*
Y46520D01*
X49790Y46387D01*
X49524D01*
X49391Y46520D01*
X24933Y50438D02*
X25466D01*
X25200D01*
Y49638D01*
X25733D02*
Y50438D01*
X26133D01*
X26266Y50305D01*
Y50038D01*
X26133Y49905D01*
X25733D01*
X27066Y49638D02*
X26533D01*
X27066Y50171D01*
Y50305D01*
X26933Y50438D01*
X26666D01*
X26533Y50305D01*
X27866Y49638D02*
X27333D01*
X27866Y50171D01*
Y50305D01*
X27732Y50438D01*
X27466D01*
X27333Y50305D01*
X20994Y33839D02*
X21527D01*
X21260D01*
Y33040D01*
X21793D02*
Y33839D01*
X22193D01*
X22327Y33706D01*
Y33440D01*
X22193Y33306D01*
X21793D01*
X23126Y33040D02*
X22593D01*
X23126Y33573D01*
Y33706D01*
X22993Y33839D01*
X22726D01*
X22593Y33706D01*
X23393Y33040D02*
X23660D01*
X23526D01*
Y33839D01*
X23393Y33706D01*
X24336Y22066D02*
X24869D01*
X24603D01*
Y21266D01*
X25136D02*
Y22066D01*
X25536D01*
X25669Y21933D01*
Y21666D01*
X25536Y21533D01*
X25136D01*
X26469Y21266D02*
X25936D01*
X26469Y21799D01*
Y21933D01*
X26336Y22066D01*
X26069D01*
X25936Y21933D01*
X26735D02*
X26869Y22066D01*
X27135D01*
X27269Y21933D01*
Y21400D01*
X27135Y21266D01*
X26869D01*
X26735Y21400D01*
Y21933D01*
X28445Y5251D02*
X28979D01*
X28712D01*
Y4452D01*
X29245D02*
Y5251D01*
X29645D01*
X29778Y5118D01*
Y4851D01*
X29645Y4718D01*
X29245D01*
X30045Y4452D02*
X30312D01*
X30178D01*
Y5251D01*
X30045Y5118D01*
X30711Y4585D02*
X30845Y4452D01*
X31111D01*
X31245Y4585D01*
Y5118D01*
X31111Y5251D01*
X30845D01*
X30711Y5118D01*
Y4985D01*
X30845Y4851D01*
X31245D01*
X44121Y18862D02*
X44654D01*
X44388D01*
Y18062D01*
X44921D02*
Y18862D01*
X45321D01*
X45454Y18728D01*
Y18462D01*
X45321Y18329D01*
X44921D01*
X45721Y18062D02*
X45987D01*
X45854D01*
Y18862D01*
X45721Y18728D01*
X46387D02*
X46520Y18862D01*
X46787D01*
X46920Y18728D01*
Y18595D01*
X46787Y18462D01*
X46920Y18329D01*
Y18195D01*
X46787Y18062D01*
X46520D01*
X46387Y18195D01*
Y18329D01*
X46520Y18462D01*
X46387Y18595D01*
Y18728D01*
X46520Y18462D02*
X46787D01*
X19632Y49777D02*
X20165D01*
X19898D01*
Y48978D01*
X20431D02*
Y49777D01*
X20831D01*
X20965Y49644D01*
Y49378D01*
X20831Y49244D01*
X20431D01*
X21231Y48978D02*
X21498D01*
X21364D01*
Y49777D01*
X21231Y49644D01*
X21898Y49777D02*
X22431D01*
Y49644D01*
X21898Y49111D01*
Y48978D01*
X90090Y29973D02*
X90623D01*
X90357D01*
Y29174D01*
X90890D02*
Y29973D01*
X91290D01*
X91423Y29840D01*
Y29573D01*
X91290Y29440D01*
X90890D01*
X91690Y29174D02*
X91956D01*
X91823D01*
Y29973D01*
X91690Y29840D01*
X92889Y29973D02*
X92623Y29840D01*
X92356Y29573D01*
Y29307D01*
X92489Y29174D01*
X92756D01*
X92889Y29307D01*
Y29440D01*
X92756Y29573D01*
X92356D01*
X16263Y37294D02*
X16796D01*
X16530D01*
Y36495D01*
X17063D02*
Y37294D01*
X17463D01*
X17596Y37161D01*
Y36894D01*
X17463Y36761D01*
X17063D01*
X17863Y36495D02*
X18129D01*
X17996D01*
Y37294D01*
X17863Y37161D01*
X19062Y37294D02*
X18529D01*
Y36894D01*
X18796Y37028D01*
X18929D01*
X19062Y36894D01*
Y36628D01*
X18929Y36495D01*
X18662D01*
X18529Y36628D01*
X14478Y49947D02*
X15012D01*
X14745D01*
Y49147D01*
X15278D02*
Y49947D01*
X15678D01*
X15811Y49814D01*
Y49547D01*
X15678Y49414D01*
X15278D01*
X16078Y49147D02*
X16345D01*
X16211D01*
Y49947D01*
X16078Y49814D01*
X17144Y49147D02*
Y49947D01*
X16744Y49547D01*
X17278D01*
X7548Y15205D02*
X8082D01*
X7815D01*
Y14405D01*
X8348D02*
Y15205D01*
X8748D01*
X8881Y15072D01*
Y14805D01*
X8748Y14672D01*
X8348D01*
X9148Y14405D02*
X9414D01*
X9281D01*
Y15205D01*
X9148Y15072D01*
X9814D02*
X9948Y15205D01*
X10214D01*
X10347Y15072D01*
Y14939D01*
X10214Y14805D01*
X10081D01*
X10214D01*
X10347Y14672D01*
Y14539D01*
X10214Y14405D01*
X9948D01*
X9814Y14539D01*
X1223Y11321D02*
X1756D01*
X1489D01*
Y10521D01*
X2023D02*
Y11321D01*
X2422D01*
X2556Y11187D01*
Y10921D01*
X2422Y10787D01*
X2023D01*
X2822Y10521D02*
X3089D01*
X2956D01*
Y11321D01*
X2822Y11187D01*
X4022Y10521D02*
X3489D01*
X4022Y11054D01*
Y11187D01*
X3889Y11321D01*
X3622D01*
X3489Y11187D01*
X24972Y24403D02*
X25505D01*
X25239D01*
Y23603D01*
X25772D02*
Y24403D01*
X26172D01*
X26305Y24270D01*
Y24003D01*
X26172Y23870D01*
X25772D01*
X26571Y23603D02*
X26838D01*
X26705D01*
Y24403D01*
X26571Y24270D01*
X27238Y23603D02*
X27504D01*
X27371D01*
Y24403D01*
X27238Y24270D01*
X19708Y1695D02*
X20241D01*
X19974D01*
Y896D01*
X20508D02*
Y1695D01*
X20907D01*
X21041Y1562D01*
Y1295D01*
X20907Y1162D01*
X20508D01*
X21307Y896D02*
X21574D01*
X21441D01*
Y1695D01*
X21307Y1562D01*
X21974D02*
X22107Y1695D01*
X22374D01*
X22507Y1562D01*
Y1029D01*
X22374Y896D01*
X22107D01*
X21974Y1029D01*
Y1562D01*
X3480Y40296D02*
X4013D01*
X3747D01*
Y39497D01*
X4280D02*
Y40296D01*
X4680D01*
X4813Y40163D01*
Y39896D01*
X4680Y39763D01*
X4280D01*
X5080Y39630D02*
X5213Y39497D01*
X5480D01*
X5613Y39630D01*
Y40163D01*
X5480Y40296D01*
X5213D01*
X5080Y40163D01*
Y40030D01*
X5213Y39896D01*
X5613D01*
X55490Y28376D02*
X56023D01*
X55756D01*
Y27576D01*
X56290D02*
Y28376D01*
X56689D01*
X56823Y28243D01*
Y27976D01*
X56689Y27843D01*
X56290D01*
X57089Y28243D02*
X57223Y28376D01*
X57489D01*
X57622Y28243D01*
Y28109D01*
X57489Y27976D01*
X57622Y27843D01*
Y27710D01*
X57489Y27576D01*
X57223D01*
X57089Y27710D01*
Y27843D01*
X57223Y27976D01*
X57089Y28109D01*
Y28243D01*
X57223Y27976D02*
X57489D01*
X70816Y15843D02*
X71349D01*
X71082D01*
Y15043D01*
X71615D02*
Y15843D01*
X72015D01*
X72149Y15710D01*
Y15443D01*
X72015Y15310D01*
X71615D01*
X72415Y15843D02*
X72948D01*
Y15710D01*
X72415Y15177D01*
Y15043D01*
X76531Y19374D02*
X77064D01*
X76797D01*
Y18574D01*
X77330D02*
Y19374D01*
X77730D01*
X77864Y19240D01*
Y18974D01*
X77730Y18841D01*
X77330D01*
X78663Y19374D02*
X78397Y19240D01*
X78130Y18974D01*
Y18707D01*
X78263Y18574D01*
X78530D01*
X78663Y18707D01*
Y18841D01*
X78530Y18974D01*
X78130D01*
X25241Y13521D02*
X25774D01*
X25507D01*
Y12721D01*
X26040D02*
Y13521D01*
X26440D01*
X26574Y13387D01*
Y13121D01*
X26440Y12988D01*
X26040D01*
X27373Y13521D02*
X26840D01*
Y13121D01*
X27107Y13254D01*
X27240D01*
X27373Y13121D01*
Y12854D01*
X27240Y12721D01*
X26973D01*
X26840Y12854D01*
X25272Y28213D02*
X25805D01*
X25539D01*
Y27413D01*
X26072D02*
Y28213D01*
X26472D01*
X26605Y28080D01*
Y27813D01*
X26472Y27680D01*
X26072D01*
X27272Y27413D02*
Y28213D01*
X26872Y27813D01*
X27405D01*
X19910Y35919D02*
X20443D01*
X20177D01*
Y35119D01*
X20710D02*
Y35919D01*
X21110D01*
X21243Y35786D01*
Y35519D01*
X21110Y35386D01*
X20710D01*
X21510Y35786D02*
X21643Y35919D01*
X21910D01*
X22043Y35786D01*
Y35653D01*
X21910Y35519D01*
X21776D01*
X21910D01*
X22043Y35386D01*
Y35253D01*
X21910Y35119D01*
X21643D01*
X21510Y35253D01*
X6325Y49552D02*
X6858D01*
X6592D01*
Y48752D01*
X7125D02*
Y49552D01*
X7525D01*
X7658Y49419D01*
Y49152D01*
X7525Y49019D01*
X7125D01*
X8458Y48752D02*
X7925D01*
X8458Y49285D01*
Y49419D01*
X8324Y49552D01*
X8058D01*
X7925Y49419D01*
X71147Y3297D02*
X71680D01*
X71414D01*
Y2497D01*
X71947D02*
Y3297D01*
X72347D01*
X72480Y3164D01*
Y2897D01*
X72347Y2764D01*
X71947D01*
X72747Y2497D02*
X73013D01*
X72880D01*
Y3297D01*
X72747Y3164D01*
X78740Y50071D02*
Y49271D01*
X79140D01*
X79274Y49404D01*
Y49938D01*
X79140Y50071D01*
X78740D01*
X79540D02*
Y49271D01*
X79940D01*
X80073Y49404D01*
Y49938D01*
X79940Y50071D01*
X79540D01*
X80873D02*
X80340D01*
Y49671D01*
X80607Y49804D01*
X80740D01*
X80873Y49671D01*
Y49404D01*
X80740Y49271D01*
X80473D01*
X80340Y49404D01*
X68745Y46127D02*
X68612Y45993D01*
Y45727D01*
X68745Y45593D01*
X69278D01*
X69412Y45727D01*
Y45993D01*
X69278Y46127D01*
X69412Y46793D02*
X68612D01*
X69012Y46393D01*
Y46926D01*
X68745Y47193D02*
X68612Y47326D01*
Y47593D01*
X68745Y47726D01*
X69278D01*
X69412Y47593D01*
Y47326D01*
X69278Y47193D01*
X68745D01*
X70625Y38786D02*
X70492Y38653D01*
Y38386D01*
X70625Y38253D01*
X71158D01*
X71291Y38386D01*
Y38653D01*
X71158Y38786D01*
X70625Y39053D02*
X70492Y39186D01*
Y39452D01*
X70625Y39586D01*
X70758D01*
X70891Y39452D01*
Y39319D01*
Y39452D01*
X71025Y39586D01*
X71158D01*
X71291Y39452D01*
Y39186D01*
X71158Y39053D01*
Y39852D02*
X71291Y39986D01*
Y40252D01*
X71158Y40386D01*
X70625D01*
X70492Y40252D01*
Y39986D01*
X70625Y39852D01*
X70758D01*
X70891Y39986D01*
Y40386D01*
X41923Y20254D02*
X41790Y20121D01*
Y19854D01*
X41923Y19721D01*
X42456D01*
X42590Y19854D01*
Y20121D01*
X42456Y20254D01*
X41923Y20521D02*
X41790Y20654D01*
Y20921D01*
X41923Y21054D01*
X42056D01*
X42190Y20921D01*
Y20787D01*
Y20921D01*
X42323Y21054D01*
X42456D01*
X42590Y20921D01*
Y20654D01*
X42456Y20521D01*
X41923Y21321D02*
X41790Y21454D01*
Y21721D01*
X41923Y21854D01*
X42056D01*
X42190Y21721D01*
X42323Y21854D01*
X42456D01*
X42590Y21721D01*
Y21454D01*
X42456Y21321D01*
X42323D01*
X42190Y21454D01*
X42056Y21321D01*
X41923D01*
X42190Y21454D02*
Y21721D01*
X43148Y32088D02*
X43015Y31955D01*
Y31688D01*
X43148Y31555D01*
X43681D01*
X43815Y31688D01*
Y31955D01*
X43681Y32088D01*
X43148Y32355D02*
X43015Y32488D01*
Y32755D01*
X43148Y32888D01*
X43281D01*
X43415Y32755D01*
Y32621D01*
Y32755D01*
X43548Y32888D01*
X43681D01*
X43815Y32755D01*
Y32488D01*
X43681Y32355D01*
X43015Y33154D02*
Y33688D01*
X43148D01*
X43681Y33154D01*
X43815D01*
X43300Y47221D02*
X43167Y47088D01*
Y46821D01*
X43300Y46688D01*
X43834D01*
X43967Y46821D01*
Y47088D01*
X43834Y47221D01*
X43300Y47487D02*
X43167Y47621D01*
Y47887D01*
X43300Y48021D01*
X43434D01*
X43567Y47887D01*
Y47754D01*
Y47887D01*
X43700Y48021D01*
X43834D01*
X43967Y47887D01*
Y47621D01*
X43834Y47487D01*
X43167Y48820D02*
X43300Y48554D01*
X43567Y48287D01*
X43834D01*
X43967Y48420D01*
Y48687D01*
X43834Y48820D01*
X43700D01*
X43567Y48687D01*
Y48287D01*
X15908Y40908D02*
X16441D01*
X16708Y41175D01*
X16441Y41441D01*
X15908D01*
Y41708D02*
X16708D01*
Y42108D01*
X16575Y42241D01*
X16041D01*
X15908Y42108D01*
Y41708D01*
X16041Y42508D02*
X15908Y42641D01*
Y42907D01*
X16041Y43041D01*
X16175D01*
X16308Y42907D01*
Y42774D01*
Y42907D01*
X16441Y43041D01*
X16575D01*
X16708Y42907D01*
Y42641D01*
X16575Y42508D01*
X16041Y43307D02*
X15908Y43441D01*
Y43707D01*
X16041Y43840D01*
X16575D01*
X16708Y43707D01*
Y43441D01*
X16575Y43307D01*
X16041D01*
X9735Y10142D02*
X10268D01*
X10534Y10408D01*
X10268Y10675D01*
X9735D01*
Y10941D02*
X10534D01*
Y11341D01*
X10401Y11475D01*
X9868D01*
X9735Y11341D01*
Y10941D01*
X10534Y12274D02*
Y11741D01*
X10001Y12274D01*
X9868D01*
X9735Y12141D01*
Y11874D01*
X9868Y11741D01*
X10401Y12541D02*
X10534Y12674D01*
Y12941D01*
X10401Y13074D01*
X9868D01*
X9735Y12941D01*
Y12674D01*
X9868Y12541D01*
X10001D01*
X10135Y12674D01*
Y13074D01*
X81754Y27603D02*
Y27070D01*
X82020Y26804D01*
X82287Y27070D01*
Y27603D01*
X82554D02*
Y26804D01*
X82953D01*
X83087Y26937D01*
Y27470D01*
X82953Y27603D01*
X82554D01*
X83886Y26804D02*
X83353D01*
X83886Y27337D01*
Y27470D01*
X83753Y27603D01*
X83487D01*
X83353Y27470D01*
X84153D02*
X84286Y27603D01*
X84553D01*
X84686Y27470D01*
Y27337D01*
X84553Y27204D01*
X84686Y27070D01*
Y26937D01*
X84553Y26804D01*
X84286D01*
X84153Y26937D01*
Y27070D01*
X84286Y27204D01*
X84153Y27337D01*
Y27470D01*
X84286Y27204D02*
X84553D01*
X10667Y41024D02*
X11200D01*
X11466Y41291D01*
X11200Y41557D01*
X10667D01*
Y41824D02*
X11466D01*
Y42224D01*
X11333Y42357D01*
X10800D01*
X10667Y42224D01*
Y41824D01*
X11466Y43157D02*
Y42624D01*
X10933Y43157D01*
X10800D01*
X10667Y43023D01*
Y42757D01*
X10800Y42624D01*
X10667Y43423D02*
Y43957D01*
X10800D01*
X11333Y43423D01*
X11466D01*
X14913Y10022D02*
X15446D01*
X15713Y10288D01*
X15446Y10555D01*
X14913D01*
Y10822D02*
X15713D01*
Y11221D01*
X15580Y11355D01*
X15046D01*
X14913Y11221D01*
Y10822D01*
X15713Y12154D02*
Y11621D01*
X15180Y12154D01*
X15046D01*
X14913Y12021D01*
Y11755D01*
X15046Y11621D01*
X14913Y12954D02*
X15046Y12688D01*
X15313Y12421D01*
X15580D01*
X15713Y12554D01*
Y12821D01*
X15580Y12954D01*
X15446D01*
X15313Y12821D01*
Y12421D01*
X81802Y32582D02*
Y32049D01*
X82068Y31782D01*
X82335Y32049D01*
Y32582D01*
X82602D02*
Y31782D01*
X83001D01*
X83135Y31915D01*
Y32448D01*
X83001Y32582D01*
X82602D01*
X83935Y31782D02*
X83401D01*
X83935Y32315D01*
Y32448D01*
X83801Y32582D01*
X83535D01*
X83401Y32448D01*
X84734Y32582D02*
X84201D01*
Y32182D01*
X84468Y32315D01*
X84601D01*
X84734Y32182D01*
Y31915D01*
X84601Y31782D01*
X84334D01*
X84201Y31915D01*
X65529Y30738D02*
Y30205D01*
X65796Y29939D01*
X66062Y30205D01*
Y30738D01*
X66329D02*
Y29939D01*
X66729D01*
X66862Y30072D01*
Y30605D01*
X66729Y30738D01*
X66329D01*
X67662Y29939D02*
X67129D01*
X67662Y30472D01*
Y30605D01*
X67529Y30738D01*
X67262D01*
X67129Y30605D01*
X67929D02*
X68062Y30738D01*
X68328D01*
X68462Y30605D01*
Y30072D01*
X68328Y29939D01*
X68062D01*
X67929Y30072D01*
Y30605D01*
X54584Y30467D02*
Y29934D01*
X54850Y29667D01*
X55117Y29934D01*
Y30467D01*
X55383D02*
Y29667D01*
X55783D01*
X55916Y29801D01*
Y30334D01*
X55783Y30467D01*
X55383D01*
X56183Y29667D02*
X56450D01*
X56316D01*
Y30467D01*
X56183Y30334D01*
X56850Y29801D02*
X56983Y29667D01*
X57249D01*
X57383Y29801D01*
Y30334D01*
X57249Y30467D01*
X56983D01*
X56850Y30334D01*
Y30201D01*
X56983Y30067D01*
X57383D01*
X54953Y19359D02*
Y18826D01*
X55220Y18559D01*
X55487Y18826D01*
Y19359D01*
X55753D02*
Y18559D01*
X56153D01*
X56286Y18693D01*
Y19226D01*
X56153Y19359D01*
X55753D01*
X56553Y18559D02*
X56819D01*
X56686D01*
Y19359D01*
X56553Y19226D01*
X57219D02*
X57353Y19359D01*
X57619D01*
X57752Y19226D01*
Y19092D01*
X57619Y18959D01*
X57752Y18826D01*
Y18693D01*
X57619Y18559D01*
X57353D01*
X57219Y18693D01*
Y18826D01*
X57353Y18959D01*
X57219Y19092D01*
Y19226D01*
X57353Y18959D02*
X57619D01*
X65941Y19209D02*
Y18676D01*
X66208Y18409D01*
X66474Y18676D01*
Y19209D01*
X66741D02*
Y18409D01*
X67141D01*
X67274Y18542D01*
Y19075D01*
X67141Y19209D01*
X66741D01*
X67541Y18409D02*
X67807D01*
X67674D01*
Y19209D01*
X67541Y19075D01*
X68207Y19209D02*
X68740D01*
Y19075D01*
X68207Y18542D01*
Y18409D01*
X65794Y32383D02*
Y31850D01*
X66060Y31583D01*
X66327Y31850D01*
Y32383D01*
X66593D02*
Y31583D01*
X66993D01*
X67127Y31716D01*
Y32249D01*
X66993Y32383D01*
X66593D01*
X67393Y32249D02*
X67526Y32383D01*
X67793D01*
X67926Y32249D01*
Y32116D01*
X67793Y31983D01*
X67926Y31850D01*
Y31716D01*
X67793Y31583D01*
X67526D01*
X67393Y31716D01*
Y31850D01*
X67526Y31983D01*
X67393Y32116D01*
Y32249D01*
X67526Y31983D02*
X67793D01*
X55588Y32408D02*
Y31875D01*
X55855Y31608D01*
X56122Y31875D01*
Y32408D01*
X56388D02*
Y31608D01*
X56788D01*
X56921Y31742D01*
Y32275D01*
X56788Y32408D01*
X56388D01*
X57188D02*
X57721D01*
Y32275D01*
X57188Y31742D01*
Y31608D01*
X55134Y17641D02*
Y17108D01*
X55401Y16842D01*
X55667Y17108D01*
Y17641D01*
X55934D02*
Y16842D01*
X56334D01*
X56467Y16975D01*
Y17508D01*
X56334Y17641D01*
X55934D01*
X57267D02*
X57000Y17508D01*
X56734Y17241D01*
Y16975D01*
X56867Y16842D01*
X57134D01*
X57267Y16975D01*
Y17108D01*
X57134Y17241D01*
X56734D01*
X65751Y17606D02*
Y17073D01*
X66018Y16807D01*
X66285Y17073D01*
Y17606D01*
X66551D02*
Y16807D01*
X66951D01*
X67084Y16940D01*
Y17473D01*
X66951Y17606D01*
X66551D01*
X67884D02*
X67351D01*
Y17207D01*
X67617Y17340D01*
X67751D01*
X67884Y17207D01*
Y16940D01*
X67751Y16807D01*
X67484D01*
X67351Y16940D01*
X45644Y1403D02*
Y1936D01*
X45511Y2069D01*
X45244D01*
X45111Y1936D01*
Y1403D01*
X45244Y1269D01*
X45511D01*
X45377Y1536D02*
X45644Y1269D01*
X45511D02*
X45644Y1403D01*
X45910Y1269D02*
X46177D01*
X46044D01*
Y2069D01*
X45910Y1936D01*
X30938Y20466D02*
Y19666D01*
X31338D01*
X31471Y19799D01*
Y20333D01*
X31338Y20466D01*
X30938D01*
X31737D02*
Y19666D01*
X32137D01*
X32271Y19799D01*
Y20333D01*
X32137Y20466D01*
X31737D01*
X32537Y20333D02*
X32670Y20466D01*
X32937D01*
X33070Y20333D01*
Y20199D01*
X32937Y20066D01*
X32804D01*
X32937D01*
X33070Y19933D01*
Y19799D01*
X32937Y19666D01*
X32670D01*
X32537Y19799D01*
X30861Y35372D02*
Y34572D01*
X31261D01*
X31395Y34706D01*
Y35239D01*
X31261Y35372D01*
X30861D01*
X31661D02*
Y34572D01*
X32061D01*
X32194Y34706D01*
Y35239D01*
X32061Y35372D01*
X31661D01*
X32994Y34572D02*
X32461D01*
X32994Y35106D01*
Y35239D01*
X32861Y35372D01*
X32594D01*
X32461Y35239D01*
X30868Y50347D02*
Y49547D01*
X31268D01*
X31401Y49680D01*
Y50213D01*
X31268Y50347D01*
X30868D01*
X31668D02*
Y49547D01*
X32067D01*
X32201Y49680D01*
Y50213D01*
X32067Y50347D01*
X31668D01*
X32467Y49547D02*
X32734D01*
X32601D01*
Y50347D01*
X32467Y50213D01*
X12427Y17776D02*
X11628D01*
Y18176D01*
X11761Y18309D01*
X12028D01*
X12161Y18176D01*
Y17776D01*
Y18042D02*
X12427Y18309D01*
X11761Y18576D02*
X11628Y18709D01*
Y18976D01*
X11761Y19109D01*
X11894D01*
X12028Y18976D01*
Y18842D01*
Y18976D01*
X12161Y19109D01*
X12294D01*
X12427Y18976D01*
Y18709D01*
X12294Y18576D01*
Y19375D02*
X12427Y19509D01*
Y19775D01*
X12294Y19909D01*
X11761D01*
X11628Y19775D01*
Y19509D01*
X11761Y19375D01*
X11894D01*
X12028Y19509D01*
Y19909D01*
X88699Y26086D02*
X87899D01*
Y26486D01*
X88032Y26619D01*
X88299D01*
X88432Y26486D01*
Y26086D01*
Y26353D02*
X88699Y26619D01*
X88032Y26886D02*
X87899Y27019D01*
Y27286D01*
X88032Y27419D01*
X88166D01*
X88299Y27286D01*
Y27153D01*
Y27286D01*
X88432Y27419D01*
X88565D01*
X88699Y27286D01*
Y27019D01*
X88565Y26886D01*
X87899Y28219D02*
X88032Y27952D01*
X88299Y27686D01*
X88565D01*
X88699Y27819D01*
Y28086D01*
X88565Y28219D01*
X88432D01*
X88299Y28086D01*
Y27686D01*
X81733Y24959D02*
Y25758D01*
X82133D01*
X82266Y25625D01*
Y25359D01*
X82133Y25225D01*
X81733D01*
X82000D02*
X82266Y24959D01*
X82533Y25625D02*
X82666Y25758D01*
X82933D01*
X83066Y25625D01*
Y25492D01*
X82933Y25359D01*
X82799D01*
X82933D01*
X83066Y25225D01*
Y25092D01*
X82933Y24959D01*
X82666D01*
X82533Y25092D01*
X83332Y25758D02*
X83866D01*
Y25625D01*
X83332Y25092D01*
Y24959D01*
X80207Y20466D02*
X79407D01*
Y20866D01*
X79540Y21000D01*
X79807D01*
X79940Y20866D01*
Y20466D01*
Y20733D02*
X80207Y21000D01*
X79407Y21799D02*
Y21266D01*
X79807D01*
X79674Y21533D01*
Y21666D01*
X79807Y21799D01*
X80073D01*
X80207Y21666D01*
Y21399D01*
X80073Y21266D01*
X61154Y28084D02*
Y28884D01*
X61554D01*
X61687Y28751D01*
Y28484D01*
X61554Y28351D01*
X61154D01*
X61421D02*
X61687Y28084D01*
X62487D02*
X61954D01*
X62487Y28617D01*
Y28751D01*
X62354Y28884D01*
X62087D01*
X61954Y28751D01*
X63153Y28084D02*
Y28884D01*
X62753Y28484D01*
X63287D01*
X43980Y39173D02*
Y39973D01*
X44380D01*
X44513Y39840D01*
Y39573D01*
X44380Y39440D01*
X43980D01*
X44246D02*
X44513Y39173D01*
X45179D02*
Y39973D01*
X44780Y39573D01*
X45313D01*
X45579Y39840D02*
X45713Y39973D01*
X45979D01*
X46113Y39840D01*
Y39307D01*
X45979Y39173D01*
X45713D01*
X45579Y39307D01*
Y39840D01*
X55541Y23182D02*
Y23982D01*
X55941D01*
X56074Y23849D01*
Y23582D01*
X55941Y23449D01*
X55541D01*
X55808D02*
X56074Y23182D01*
X56874D02*
X56341D01*
X56874Y23715D01*
Y23849D01*
X56741Y23982D01*
X56474D01*
X56341Y23849D01*
X57674Y23982D02*
X57407Y23849D01*
X57141Y23582D01*
Y23315D01*
X57274Y23182D01*
X57541D01*
X57674Y23315D01*
Y23449D01*
X57541Y23582D01*
X57141D01*
X61179Y20769D02*
Y21569D01*
X61579D01*
X61713Y21436D01*
Y21169D01*
X61579Y21036D01*
X61179D01*
X61446D02*
X61713Y20769D01*
X62512D02*
X61979D01*
X62512Y21302D01*
Y21436D01*
X62379Y21569D01*
X62112D01*
X61979Y21436D01*
X62779D02*
X62912Y21569D01*
X63179D01*
X63312Y21436D01*
Y21302D01*
X63179Y21169D01*
X63045D01*
X63179D01*
X63312Y21036D01*
Y20902D01*
X63179Y20769D01*
X62912D01*
X62779Y20902D01*
X8281Y6120D02*
Y6920D01*
X8681D01*
X8814Y6787D01*
Y6520D01*
X8681Y6387D01*
X8281D01*
X8547D02*
X8814Y6120D01*
X9081Y6787D02*
X9214Y6920D01*
X9480D01*
X9614Y6787D01*
Y6654D01*
X9480Y6520D01*
X9347D01*
X9480D01*
X9614Y6387D01*
Y6254D01*
X9480Y6120D01*
X9214D01*
X9081Y6254D01*
X9880Y6787D02*
X10014Y6920D01*
X10280D01*
X10414Y6787D01*
Y6654D01*
X10280Y6520D01*
X10414Y6387D01*
Y6254D01*
X10280Y6120D01*
X10014D01*
X9880Y6254D01*
Y6387D01*
X10014Y6520D01*
X9880Y6654D01*
Y6787D01*
X10014Y6520D02*
X10280D01*
X13046Y34360D02*
X12247D01*
Y34760D01*
X12380Y34893D01*
X12646D01*
X12780Y34760D01*
Y34360D01*
Y34626D02*
X13046Y34893D01*
X12380Y35160D02*
X12247Y35293D01*
Y35559D01*
X12380Y35693D01*
X12513D01*
X12646Y35559D01*
Y35426D01*
Y35559D01*
X12780Y35693D01*
X12913D01*
X13046Y35559D01*
Y35293D01*
X12913Y35160D01*
X12247Y36492D02*
Y35959D01*
X12646D01*
X12513Y36226D01*
Y36359D01*
X12646Y36492D01*
X12913D01*
X13046Y36359D01*
Y36093D01*
X12913Y35959D01*
X77063Y12224D02*
Y13024D01*
X77463D01*
X77596Y12890D01*
Y12624D01*
X77463Y12491D01*
X77063D01*
X77330D02*
X77596Y12224D01*
X77863D02*
X78129D01*
X77996D01*
Y13024D01*
X77863Y12890D01*
X78529Y13024D02*
X79062D01*
Y12890D01*
X78529Y12357D01*
Y12224D01*
X79930Y16375D02*
X79131D01*
Y16775D01*
X79264Y16908D01*
X79531D01*
X79664Y16775D01*
Y16375D01*
Y16642D02*
X79930Y16908D01*
Y17175D02*
Y17441D01*
Y17308D01*
X79131D01*
X79264Y17175D01*
X79930Y17841D02*
Y18108D01*
Y17975D01*
X79131D01*
X79264Y17841D01*
X10201Y47131D02*
Y47930D01*
X10601D01*
X10735Y47797D01*
Y47530D01*
X10601Y47397D01*
X10201D01*
X10468D02*
X10735Y47131D01*
X11001Y47797D02*
X11135Y47930D01*
X11401D01*
X11534Y47797D01*
Y47664D01*
X11401Y47530D01*
X11268D01*
X11401D01*
X11534Y47397D01*
Y47264D01*
X11401Y47131D01*
X11135D01*
X11001Y47264D01*
X12201Y47131D02*
Y47930D01*
X11801Y47530D01*
X12334D01*
X15939Y16987D02*
X15805Y17120D01*
X15539D01*
X15406Y16987D01*
Y16454D01*
X15539Y16320D01*
X15805D01*
X15939Y16454D01*
X16205Y16320D02*
X16472D01*
X16339D01*
Y17120D01*
X16205Y16987D01*
X17405Y17120D02*
X16872D01*
Y16720D01*
X17138Y16853D01*
X17272D01*
X17405Y16720D01*
Y16454D01*
X17272Y16320D01*
X17005D01*
X16872Y16454D01*
X23786Y46254D02*
X23652Y46120D01*
Y45854D01*
X23786Y45720D01*
X24319D01*
X24452Y45854D01*
Y46120D01*
X24319Y46254D01*
X24452Y47053D02*
Y46520D01*
X23919Y47053D01*
X23786D01*
X23652Y46920D01*
Y46654D01*
X23786Y46520D01*
X24452Y47720D02*
X23652D01*
X24052Y47320D01*
Y47853D01*
X27950Y19962D02*
X27817Y19829D01*
Y19562D01*
X27950Y19429D01*
X28483D01*
X28616Y19562D01*
Y19829D01*
X28483Y19962D01*
X27950Y20228D02*
X27817Y20362D01*
Y20628D01*
X27950Y20762D01*
X28083D01*
X28217Y20628D01*
Y20495D01*
Y20628D01*
X28350Y20762D01*
X28483D01*
X28616Y20628D01*
Y20362D01*
X28483Y20228D01*
X28616Y21561D02*
Y21028D01*
X28083Y21561D01*
X27950D01*
X27817Y21428D01*
Y21161D01*
X27950Y21028D01*
X23111Y40434D02*
X22977Y40301D01*
Y40034D01*
X23111Y39901D01*
X23644D01*
X23777Y40034D01*
Y40301D01*
X23644Y40434D01*
X23777Y40701D02*
Y40967D01*
Y40834D01*
X22977D01*
X23111Y40701D01*
X23644Y41367D02*
X23777Y41501D01*
Y41767D01*
X23644Y41900D01*
X23111D01*
X22977Y41767D01*
Y41501D01*
X23111Y41367D01*
X23244D01*
X23377Y41501D01*
Y41900D01*
X20532Y11732D02*
X20399Y11865D01*
X20133D01*
X19999Y11732D01*
Y11199D01*
X20133Y11065D01*
X20399D01*
X20532Y11199D01*
X20799Y11065D02*
X21066D01*
X20932D01*
Y11865D01*
X20799Y11732D01*
X21465D02*
X21599Y11865D01*
X21865D01*
X21999Y11732D01*
Y11599D01*
X21865Y11465D01*
X21999Y11332D01*
Y11199D01*
X21865Y11065D01*
X21599D01*
X21465Y11199D01*
Y11332D01*
X21599Y11465D01*
X21465Y11599D01*
Y11732D01*
X21599Y11465D02*
X21865D01*
X23914Y15904D02*
X23781Y15770D01*
Y15504D01*
X23914Y15370D01*
X24447D01*
X24581Y15504D01*
Y15770D01*
X24447Y15904D01*
X24581Y16703D02*
Y16170D01*
X24048Y16703D01*
X23914D01*
X23781Y16570D01*
Y16303D01*
X23914Y16170D01*
Y16970D02*
X23781Y17103D01*
Y17370D01*
X23914Y17503D01*
X24048D01*
X24181Y17370D01*
Y17236D01*
Y17370D01*
X24314Y17503D01*
X24447D01*
X24581Y17370D01*
Y17103D01*
X24447Y16970D01*
X69631Y27430D02*
X69498Y27563D01*
X69231D01*
X69098Y27430D01*
Y26897D01*
X69231Y26764D01*
X69498D01*
X69631Y26897D01*
X70431Y27563D02*
X70164Y27430D01*
X69897Y27163D01*
Y26897D01*
X70031Y26764D01*
X70297D01*
X70431Y26897D01*
Y27030D01*
X70297Y27163D01*
X69897D01*
X69555Y22426D02*
X69421Y22559D01*
X69155D01*
X69021Y22426D01*
Y21893D01*
X69155Y21760D01*
X69421D01*
X69555Y21893D01*
X70354Y22559D02*
X69821D01*
Y22160D01*
X70088Y22293D01*
X70221D01*
X70354Y22160D01*
Y21893D01*
X70221Y21760D01*
X69955D01*
X69821Y21893D01*
X56857Y26184D02*
X56724Y26317D01*
X56457D01*
X56324Y26184D01*
Y25650D01*
X56457Y25517D01*
X56724D01*
X56857Y25650D01*
X57124Y26184D02*
X57257Y26317D01*
X57524D01*
X57657Y26184D01*
Y26050D01*
X57524Y25917D01*
X57657Y25784D01*
Y25650D01*
X57524Y25517D01*
X57257D01*
X57124Y25650D01*
Y25784D01*
X57257Y25917D01*
X57124Y26050D01*
Y26184D01*
X57257Y25917D02*
X57524D01*
X42094Y13870D02*
X41961Y13736D01*
Y13470D01*
X42094Y13337D01*
X42627D01*
X42760Y13470D01*
Y13736D01*
X42627Y13870D01*
X42094Y14136D02*
X41961Y14270D01*
Y14536D01*
X42094Y14669D01*
X42227D01*
X42360Y14536D01*
Y14403D01*
Y14536D01*
X42494Y14669D01*
X42627D01*
X42760Y14536D01*
Y14270D01*
X42627Y14136D01*
X41961Y15469D02*
Y14936D01*
X42360D01*
X42227Y15203D01*
Y15336D01*
X42360Y15469D01*
X42627D01*
X42760Y15336D01*
Y15069D01*
X42627Y14936D01*
X20803Y42437D02*
X20669Y42571D01*
X20403D01*
X20269Y42437D01*
Y41904D01*
X20403Y41771D01*
X20669D01*
X20803Y41904D01*
X21069Y41771D02*
X21336D01*
X21202D01*
Y42571D01*
X21069Y42437D01*
X22269Y42571D02*
X22002Y42437D01*
X21736Y42171D01*
Y41904D01*
X21869Y41771D01*
X22135D01*
X22269Y41904D01*
Y42038D01*
X22135Y42171D01*
X21736D01*
X88235Y31741D02*
X88102Y31607D01*
Y31341D01*
X88235Y31208D01*
X88769D01*
X88902Y31341D01*
Y31607D01*
X88769Y31741D01*
X88902Y32007D02*
Y32274D01*
Y32141D01*
X88102D01*
X88235Y32007D01*
X88902Y33207D02*
Y32674D01*
X88369Y33207D01*
X88235D01*
X88102Y33074D01*
Y32807D01*
X88235Y32674D01*
X42170Y5437D02*
X42037Y5304D01*
Y5037D01*
X42170Y4904D01*
X42703D01*
X42836Y5037D01*
Y5304D01*
X42703Y5437D01*
X42170Y5704D02*
X42037Y5837D01*
Y6104D01*
X42170Y6237D01*
X42303D01*
X42437Y6104D01*
Y5970D01*
Y6104D01*
X42570Y6237D01*
X42703D01*
X42836Y6104D01*
Y5837D01*
X42703Y5704D01*
X42836Y6903D02*
X42037D01*
X42437Y6503D01*
Y7037D01*
X27908Y44120D02*
X27775Y43986D01*
Y43720D01*
X27908Y43586D01*
X28441D01*
X28574Y43720D01*
Y43986D01*
X28441Y44120D01*
X28574Y44919D02*
Y44386D01*
X28041Y44919D01*
X27908D01*
X27775Y44786D01*
Y44519D01*
X27908Y44386D01*
Y45186D02*
X27775Y45319D01*
Y45586D01*
X27908Y45719D01*
X28041D01*
X28174Y45586D01*
X28308Y45719D01*
X28441D01*
X28574Y45586D01*
Y45319D01*
X28441Y45186D01*
X28308D01*
X28174Y45319D01*
X28041Y45186D01*
X27908D01*
X28174Y45319D02*
Y45586D01*
X27117Y10012D02*
X26984Y9879D01*
Y9612D01*
X27117Y9479D01*
X27650D01*
X27783Y9612D01*
Y9879D01*
X27650Y10012D01*
X27117Y10279D02*
X26984Y10412D01*
Y10679D01*
X27117Y10812D01*
X27250D01*
X27384Y10679D01*
Y10545D01*
Y10679D01*
X27517Y10812D01*
X27650D01*
X27783Y10679D01*
Y10412D01*
X27650Y10279D01*
X27117Y11078D02*
X26984Y11212D01*
Y11478D01*
X27117Y11612D01*
X27250D01*
X27384Y11478D01*
Y11345D01*
Y11478D01*
X27517Y11612D01*
X27650D01*
X27783Y11478D01*
Y11212D01*
X27650Y11078D01*
X22898Y9938D02*
X22765Y9805D01*
Y9538D01*
X22898Y9405D01*
X23431D01*
X23565Y9538D01*
Y9805D01*
X23431Y9938D01*
X23565Y10738D02*
Y10205D01*
X23032Y10738D01*
X22898D01*
X22765Y10604D01*
Y10338D01*
X22898Y10205D01*
X23565Y11004D02*
Y11271D01*
Y11138D01*
X22765D01*
X22898Y11004D01*
X25295Y42374D02*
X25162Y42241D01*
Y41974D01*
X25295Y41841D01*
X25828D01*
X25962Y41974D01*
Y42241D01*
X25828Y42374D01*
X25962Y43174D02*
Y42641D01*
X25428Y43174D01*
X25295D01*
X25162Y43041D01*
Y42774D01*
X25295Y42641D01*
X25162Y43974D02*
Y43441D01*
X25562D01*
X25428Y43707D01*
Y43840D01*
X25562Y43974D01*
X25828D01*
X25962Y43840D01*
Y43574D01*
X25828Y43441D01*
X19025Y38714D02*
X18892Y38580D01*
Y38314D01*
X19025Y38180D01*
X19558D01*
X19691Y38314D01*
Y38580D01*
X19558Y38714D01*
X19691Y38980D02*
Y39247D01*
Y39114D01*
X18892D01*
X19025Y38980D01*
X19691Y39647D02*
Y39913D01*
Y39780D01*
X18892D01*
X19025Y39647D01*
X27302Y40444D02*
X27168Y40311D01*
Y40044D01*
X27302Y39911D01*
X27835D01*
X27968Y40044D01*
Y40311D01*
X27835Y40444D01*
X27968Y41244D02*
Y40710D01*
X27435Y41244D01*
X27302D01*
X27168Y41110D01*
Y40844D01*
X27302Y40710D01*
X27835Y41510D02*
X27968Y41643D01*
Y41910D01*
X27835Y42043D01*
X27302D01*
X27168Y41910D01*
Y41643D01*
X27302Y41510D01*
X27435D01*
X27568Y41643D01*
Y42043D01*
X15521Y47926D02*
X15388Y48059D01*
X15121D01*
X14988Y47926D01*
Y47393D01*
X15121Y47260D01*
X15388D01*
X15521Y47393D01*
X15788Y47260D02*
X16054D01*
X15921D01*
Y48059D01*
X15788Y47926D01*
X16454D02*
X16587Y48059D01*
X16854D01*
X16987Y47926D01*
Y47393D01*
X16854Y47260D01*
X16587D01*
X16454Y47393D01*
Y47926D01*
X28018Y29404D02*
X27885Y29271D01*
Y29004D01*
X28018Y28871D01*
X28551D01*
X28684Y29004D01*
Y29271D01*
X28551Y29404D01*
X28018Y29670D02*
X27885Y29804D01*
Y30070D01*
X28018Y30204D01*
X28151D01*
X28284Y30070D01*
Y29937D01*
Y30070D01*
X28418Y30204D01*
X28551D01*
X28684Y30070D01*
Y29804D01*
X28551Y29670D01*
X28018Y30470D02*
X27885Y30603D01*
Y30870D01*
X28018Y31003D01*
X28551D01*
X28684Y30870D01*
Y30603D01*
X28551Y30470D01*
X28018D01*
X77796Y31667D02*
X77663Y31534D01*
Y31267D01*
X77796Y31134D01*
X78329D01*
X78463Y31267D01*
Y31534D01*
X78329Y31667D01*
X78463Y31934D02*
Y32200D01*
Y32067D01*
X77663D01*
X77796Y31934D01*
Y32600D02*
X77663Y32733D01*
Y33000D01*
X77796Y33133D01*
X77929D01*
X78063Y33000D01*
Y32867D01*
Y33000D01*
X78196Y33133D01*
X78329D01*
X78463Y33000D01*
Y32733D01*
X78329Y32600D01*
X14939Y6408D02*
X14806Y6541D01*
X14539D01*
X14406Y6408D01*
Y5874D01*
X14539Y5741D01*
X14806D01*
X14939Y5874D01*
X15206Y5741D02*
X15472D01*
X15339D01*
Y6541D01*
X15206Y6408D01*
X16272Y5741D02*
Y6541D01*
X15872Y6141D01*
X16405D01*
X24867Y11797D02*
X24734Y11931D01*
X24467D01*
X24334Y11797D01*
Y11264D01*
X24467Y11131D01*
X24734D01*
X24867Y11264D01*
X25667Y11131D02*
X25133D01*
X25667Y11664D01*
Y11797D01*
X25533Y11931D01*
X25267D01*
X25133Y11797D01*
X25933Y11931D02*
X26466D01*
Y11797D01*
X25933Y11264D01*
Y11131D01*
X24186Y31156D02*
X24052Y31023D01*
Y30756D01*
X24186Y30623D01*
X24719D01*
X24852Y30756D01*
Y31023D01*
X24719Y31156D01*
X24852Y31956D02*
Y31422D01*
X24319Y31956D01*
X24186D01*
X24052Y31822D01*
Y31556D01*
X24186Y31422D01*
X24852Y32755D02*
Y32222D01*
X24319Y32755D01*
X24186D01*
X24052Y32622D01*
Y32355D01*
X24186Y32222D01*
D33*
X96200Y48000D02*
G03*
X96200Y48000I-2200J0D01*
G01*
Y35500D02*
G03*
X96200Y35500I-2200J0D01*
G01*
Y15500D02*
G03*
X96200Y15500I-2200J0D01*
G01*
Y3000D02*
G03*
X96200Y3000I-2200J0D01*
G01*
X5200Y48000D02*
G03*
X5200Y48000I-2200J0D01*
G01*
Y35500D02*
G03*
X5200Y35500I-2200J0D01*
G01*
Y15500D02*
G03*
X5200Y15500I-2200J0D01*
G01*
Y3000D02*
G03*
X5200Y3000I-2200J0D01*
G01*
D34*
X12938Y15863D02*
X17688D01*
Y13463D02*
Y15863D01*
X12938Y13463D02*
X17688D01*
X12938D02*
Y15863D01*
X67259Y10844D02*
X71831D01*
Y12876D01*
X67259Y10844D02*
Y12876D01*
X71831D01*
X93301Y24950D02*
X96151D01*
X93301Y26300D02*
X96151D01*
X93301Y24950D02*
Y26300D01*
X96151Y24950D02*
Y26300D01*
X93294Y23361D02*
X96144D01*
X93294Y24711D02*
X96144D01*
X93294Y23361D02*
Y24711D01*
X96144Y23361D02*
Y24711D01*
X93317Y21779D02*
X96167D01*
X93317Y23129D02*
X96167D01*
X93317Y21779D02*
Y23129D01*
X96167Y21779D02*
Y23129D01*
X75717Y13716D02*
X80289D01*
Y15748D01*
X75717Y13716D02*
Y15748D01*
X80289D01*
X7911Y30021D02*
X12483D01*
X7911Y27989D02*
Y30021D01*
X12483Y27989D02*
Y30021D01*
X7911Y27989D02*
X12483D01*
X2558Y22779D02*
Y27351D01*
Y22779D02*
X4590D01*
X2558Y27351D02*
X4590D01*
Y22779D02*
Y27351D01*
X74400Y7400D02*
X85600D01*
X74400Y2600D02*
Y7400D01*
Y2600D02*
X85600D01*
Y7400D01*
X62520Y10844D02*
X67092D01*
Y12876D01*
X62520Y10844D02*
Y12876D01*
X67092D01*
X57717Y10855D02*
X62289D01*
Y12887D01*
X57717Y10855D02*
Y12887D01*
X62289D01*
X2833Y30021D02*
X7405D01*
X2833Y27989D02*
Y30021D01*
X7405Y27989D02*
Y30021D01*
X2833Y27989D02*
X7405D01*
X86750Y8590D02*
X89250D01*
X86750Y21250D02*
X89250D01*
X86750Y8590D02*
Y21250D01*
X89250Y8590D02*
Y21250D01*
X60587Y2114D02*
Y6686D01*
Y2114D02*
X62619D01*
X60587Y6686D02*
X62619D01*
Y2114D02*
Y6686D01*
X55061Y2032D02*
Y6604D01*
X53029D02*
X55061D01*
X53029Y2032D02*
X55061D01*
X53029D02*
Y6604D01*
X58733Y2085D02*
Y6657D01*
X56701D02*
X58733D01*
X56701Y2085D02*
X58733D01*
X56701D02*
Y6657D01*
X61732Y29497D02*
Y29853D01*
Y30615D02*
Y31021D01*
Y29853D02*
Y30615D01*
X61983Y29497D02*
Y31021D01*
Y29497D02*
X65031D01*
Y31021D01*
X61983D02*
X65031D01*
X93301Y26528D02*
X96151D01*
X93301Y27878D02*
X96151D01*
X93301Y26528D02*
Y27878D01*
X96151Y26528D02*
Y27878D01*
X72078Y39890D02*
Y46965D01*
Y39890D02*
X74828D01*
X77928D02*
X80678D01*
Y46965D01*
X73603Y48490D02*
X74828D01*
X72078Y46965D02*
X73603Y48490D01*
X79153D02*
X80678Y46965D01*
X77928Y48490D02*
X79153D01*
X64410Y40250D02*
Y45250D01*
X51750Y40250D02*
X64410D01*
X51750Y45250D02*
X64410D01*
X51750Y40250D02*
Y45250D01*
X69912Y48059D02*
X71262D01*
X69912Y45209D02*
X71262D01*
X69912D02*
Y48059D01*
X71262Y45209D02*
Y48059D01*
X69988Y40942D02*
X71338D01*
X69988Y43792D02*
X71338D01*
Y40942D02*
Y43792D01*
X69988Y40942D02*
Y43792D01*
X81525Y44071D02*
Y50671D01*
X89925D01*
X81525Y44071D02*
X89925D01*
Y50671D01*
X1470Y25500D02*
X9627Y25478D01*
X24041Y10570D02*
X26441D01*
X24041Y5820D02*
Y10570D01*
Y5820D02*
X26441D01*
Y10570D01*
X48475Y31930D02*
X48475Y41369D01*
X49772Y25511D02*
X53093D01*
X61774Y16419D02*
Y16775D01*
Y17537D02*
Y17943D01*
Y16775D02*
Y17537D01*
X62025Y16419D02*
Y17943D01*
Y16419D02*
X65073D01*
Y17943D01*
X62025D02*
X65073D01*
X58051Y16419D02*
Y16775D01*
Y17537D02*
Y17943D01*
Y16775D02*
Y17537D01*
X58302Y16419D02*
Y17943D01*
Y16419D02*
X61350D01*
Y17943D01*
X58302D02*
X61350D01*
X65273Y19314D02*
Y19670D01*
Y18146D02*
Y18552D01*
Y19314D01*
X65022Y18146D02*
Y19670D01*
X61974D02*
X65022D01*
X61974Y18146D02*
Y19670D01*
Y18146D02*
X65022D01*
X61565Y19314D02*
Y19670D01*
Y18146D02*
Y18552D01*
Y19314D01*
X61314Y18146D02*
Y19670D01*
X58266D02*
X61314D01*
X58266Y18146D02*
Y19670D01*
Y18146D02*
X61314D01*
X85270Y29759D02*
X87670D01*
Y34509D01*
X85270D02*
X87670D01*
X85270Y29759D02*
Y34509D01*
X87486Y24925D02*
Y29497D01*
X85454D02*
X87486D01*
X85454Y24925D02*
X87486D01*
X85454D02*
Y29497D01*
X61659Y32360D02*
Y32716D01*
Y31192D02*
Y31598D01*
Y32360D01*
X61408Y31192D02*
Y32716D01*
X58360D02*
X61408D01*
X58360Y31192D02*
Y32716D01*
Y31192D02*
X61408D01*
X58252Y24674D02*
X62824D01*
X58252Y22642D02*
Y24674D01*
X62824Y22642D02*
Y24674D01*
X58252Y22642D02*
X62824D01*
X14052Y9799D02*
X14408D01*
X12884D02*
X13290D01*
X14052D01*
X12884Y10050D02*
X14408D01*
Y13098D01*
X12884D02*
X14408D01*
X12884Y10050D02*
Y13098D01*
X11029Y13263D02*
X11385D01*
X12147D02*
X12553D01*
X11385D02*
X12147D01*
X11029Y13012D02*
X12553D01*
X11029Y9964D02*
Y13012D01*
Y9964D02*
X12553D01*
Y13012D01*
X14974Y16533D02*
Y21105D01*
X12942D02*
X14974D01*
X12942Y16533D02*
X14974D01*
X12942D02*
Y21105D01*
X7762Y7417D02*
X12334D01*
Y9449D01*
X7762Y7417D02*
Y9449D01*
X12334D01*
X13613Y46734D02*
X18363D01*
Y44334D02*
Y46734D01*
X13613Y44334D02*
X18363D01*
X13613D02*
Y46734D01*
X11979Y44149D02*
X12335D01*
X13097D02*
X13503D01*
X12335D02*
X13097D01*
X11979Y43898D02*
X13503D01*
X11979Y40850D02*
Y43898D01*
Y40850D02*
X13503D01*
Y43898D01*
X14900Y40599D02*
X15256D01*
X13732D02*
X14138D01*
X14900D01*
X13732Y40850D02*
X15256D01*
Y43898D01*
X13732D02*
X15256D01*
X13732Y40850D02*
Y43898D01*
X8804Y46591D02*
X13376D01*
X8804Y44559D02*
Y46591D01*
X13376Y44559D02*
Y46591D01*
X8804Y44559D02*
X13376D01*
X13541Y40221D02*
X18291D01*
Y37821D02*
Y40221D01*
X13541Y37821D02*
X18291D01*
X13541D02*
Y40221D01*
X24277Y41399D02*
X26677D01*
X24277Y36649D02*
Y41399D01*
Y36649D02*
X26677D01*
Y41399D01*
X41685Y10146D02*
X43035D01*
X41685Y12996D02*
X43035D01*
Y10146D02*
Y12996D01*
X41685Y10146D02*
Y12996D01*
X40800Y5850D02*
Y19125D01*
X29200Y5850D02*
X40800D01*
X29200D02*
Y19125D01*
X40800D01*
X44000Y25500D02*
X47320D01*
X42022Y42020D02*
X43372D01*
X42022Y39170D02*
X43372D01*
X42022D02*
Y42020D01*
X43372Y39170D02*
Y42020D01*
X22199Y5846D02*
Y10596D01*
X19799Y5846D02*
X22199D01*
X19799D02*
Y10596D01*
X22199D01*
X26674Y6141D02*
X28024D01*
X26674Y8991D02*
X28024D01*
Y6141D02*
Y8991D01*
X26674Y6141D02*
Y8991D01*
X22458Y6151D02*
X23808D01*
X22458Y9001D02*
X23808D01*
Y6151D02*
Y9001D01*
X22458Y6151D02*
Y9001D01*
X40800Y35850D02*
Y49125D01*
X29200Y35850D02*
X40800D01*
X29200D02*
Y49125D01*
X40800D01*
X47994Y2821D02*
Y17321D01*
X43294Y2821D02*
Y17321D01*
X47994D01*
X43294Y2821D02*
X47994D01*
X41286Y16279D02*
X42636D01*
X41286Y19129D02*
X42636D01*
Y16279D02*
Y19129D01*
X41286Y16279D02*
Y19129D01*
X41216Y31214D02*
X42566D01*
X41216Y34064D02*
X42566D01*
Y31214D02*
Y34064D01*
X41216Y31214D02*
Y34064D01*
Y46253D02*
X42566D01*
X41216Y49103D02*
X42566D01*
Y46253D02*
Y49103D01*
X41216Y46253D02*
Y49103D01*
X48500Y1829D02*
X48500Y18847D01*
X26893Y36644D02*
Y39494D01*
X28243Y36644D02*
Y39494D01*
X26893D02*
X28243D01*
X26893Y36644D02*
X28243D01*
X20069Y41422D02*
X22469D01*
X20069Y36672D02*
Y41422D01*
Y36672D02*
X22469D01*
Y41422D01*
X22702Y36669D02*
Y39519D01*
X24052Y36669D02*
Y39519D01*
X22702D02*
X24052D01*
X22702Y36669D02*
X24052D01*
X25216Y36063D02*
X27616D01*
X25216Y31313D02*
Y36063D01*
Y31313D02*
X27616D01*
Y36063D01*
X27634Y31390D02*
Y34240D01*
X28984Y31390D02*
Y34240D01*
X27634D02*
X28984D01*
X27634Y31390D02*
X28984D01*
X24922Y49103D02*
X27322D01*
X24922Y44353D02*
Y49103D01*
Y44353D02*
X27322D01*
Y49103D01*
X27519Y46253D02*
Y49103D01*
X28869Y46253D02*
Y49103D01*
X27519D02*
X28869D01*
X27519Y46253D02*
X28869D01*
X25199Y18961D02*
X27600D01*
X25199Y14211D02*
Y18961D01*
Y14211D02*
X27600D01*
Y18961D01*
X27592Y16025D02*
Y18875D01*
X28942Y16025D02*
Y18875D01*
X27592D02*
X28942D01*
X27592Y16025D02*
X28942D01*
X58118Y24744D02*
Y27144D01*
Y24744D02*
X62868D01*
Y27144D01*
X58118D02*
X62868D01*
X12836Y7087D02*
Y9487D01*
Y7087D02*
X17586D01*
Y9487D01*
X12836D02*
X17586D01*
X78895Y29632D02*
X81295D01*
Y34382D01*
X78895D02*
X81295D01*
X78895Y29632D02*
Y34382D01*
X81111Y24816D02*
Y29388D01*
X79079D02*
X81111D01*
X79079Y24816D02*
X81111D01*
X79079D02*
Y29388D01*
X81699Y29820D02*
X84747D01*
X81699D02*
Y31344D01*
X84747D01*
Y29820D02*
Y31344D01*
X84998Y30226D02*
Y30988D01*
Y29820D02*
Y30226D01*
Y30988D02*
Y31344D01*
X81737Y29573D02*
X84785D01*
Y28049D02*
Y29573D01*
X81737Y28049D02*
X84785D01*
X81737D02*
Y29573D01*
X81486Y28405D02*
Y29167D01*
Y29573D01*
Y28049D02*
Y28405D01*
X15579Y33002D02*
Y37574D01*
X13547D02*
X15579D01*
X13547Y33002D02*
X15579D01*
X13547D02*
Y37574D01*
X29200Y34125D02*
X40800D01*
X29200Y20850D02*
Y34125D01*
Y20850D02*
X40800D01*
Y34125D01*
X58360Y30978D02*
X61408D01*
Y29454D02*
Y30978D01*
X58360Y29454D02*
X61408D01*
X58360D02*
Y30978D01*
X58109Y29810D02*
Y30572D01*
Y30978D01*
Y29454D02*
Y29810D01*
X61974Y31192D02*
X65022D01*
X61974D02*
Y32716D01*
X65022D01*
Y31192D02*
Y32716D01*
X65273Y31598D02*
Y32360D01*
Y31192D02*
Y31598D01*
Y32360D02*
Y32716D01*
X65918Y24673D02*
Y29245D01*
X63886D02*
X65918D01*
X63886Y24673D02*
X65918D01*
X63886D02*
Y29245D01*
X66141Y29412D02*
X68541D01*
X66141Y24662D02*
Y29412D01*
Y24662D02*
X68541D01*
Y29412D01*
X66109Y19699D02*
X68509D01*
Y24449D01*
X66109D02*
X68509D01*
X66109Y19699D02*
Y24449D01*
X63855Y19889D02*
Y24461D01*
Y19889D02*
X65887D01*
X63855Y24461D02*
X65887D01*
Y19889D02*
Y24461D01*
X80580Y14335D02*
Y18907D01*
Y14335D02*
X82612D01*
X80580Y18907D02*
X82612D01*
Y14335D02*
Y18907D01*
X80605Y19103D02*
Y23675D01*
Y19103D02*
X82637D01*
X80605Y23675D02*
X82637D01*
Y19103D02*
Y23675D01*
X43035Y7376D02*
Y10226D01*
X41685Y7376D02*
Y10226D01*
Y7376D02*
X43035D01*
X41685Y10226D02*
X43035D01*
%TF.MD5,fe8f2a6c05239c8e11a5b92be2387d61*%
M02*
