%TF.GenerationSoftware,Altium Limited,Altium Designer,21.6.4 (81)*%
G04 Layer_Color=255*
%FSLAX43Y43*%
%MOMM*%
%TF.SameCoordinates,F87848A5-9C76-4C60-8026-6C1C3CCCB256*%
%TF.FilePolarity,Positive*%
%TF.FileFunction,Pads,Bot*%
%TF.Part,Single*%
G01*
G75*
%TA.AperFunction,SMDPad,CuDef*%
%ADD10R,1.300X1.800*%
%ADD11R,1.000X1.600*%
%ADD12R,0.850X0.900*%
%ADD13R,1.600X1.000*%
%ADD15R,2.500X4.450*%
%ADD19R,1.800X1.300*%
%ADD20R,1.250X0.800*%
%TA.AperFunction,ComponentPad*%
%ADD28C,1.500*%
%ADD29C,2.000*%
D10*
X18758Y11495D02*
D03*
X15908D02*
D03*
X30134Y22060D02*
D03*
X32984D02*
D03*
X33038Y27961D02*
D03*
X30188D02*
D03*
X13766Y11495D02*
D03*
X10916D02*
D03*
X17446Y41027D02*
D03*
X20296D02*
D03*
X12459Y41039D02*
D03*
X15309D02*
D03*
D11*
X6466Y23925D02*
D03*
X9666D02*
D03*
X11202D02*
D03*
X14402D02*
D03*
X83312Y21031D02*
D03*
X80112D02*
D03*
X19243Y17170D02*
D03*
X16043D02*
D03*
X15629Y9084D02*
D03*
X18829D02*
D03*
X14054D02*
D03*
X10854D02*
D03*
X10710Y33103D02*
D03*
X13910D02*
D03*
X12386Y38582D02*
D03*
X15586D02*
D03*
X17196Y38582D02*
D03*
X20396D02*
D03*
D12*
X33259Y25806D02*
D03*
X31709D02*
D03*
X33286Y24169D02*
D03*
X31736D02*
D03*
D13*
X16386Y23571D02*
D03*
Y20371D02*
D03*
X75425Y2480D02*
D03*
X84575Y5020D02*
D03*
X75425D02*
D03*
X84575Y2480D02*
D03*
X75425Y8730D02*
D03*
X84575Y11270D02*
D03*
X75425D02*
D03*
X84575Y8730D02*
D03*
X75425Y14480D02*
D03*
X84575Y17020D02*
D03*
X75425D02*
D03*
X84575Y14480D02*
D03*
X77648Y40031D02*
D03*
Y43231D02*
D03*
Y35458D02*
D03*
Y38658D02*
D03*
Y30709D02*
D03*
Y33909D02*
D03*
X83372Y22987D02*
D03*
Y26187D02*
D03*
X80330Y25390D02*
D03*
Y28590D02*
D03*
X80391Y33952D02*
D03*
Y30752D02*
D03*
X16277Y31293D02*
D03*
Y28093D02*
D03*
X14148Y17145D02*
D03*
Y20345D02*
D03*
X20989Y11929D02*
D03*
Y15129D02*
D03*
X15959Y3877D02*
D03*
Y7077D02*
D03*
X10379Y38227D02*
D03*
Y35027D02*
D03*
X80391Y38651D02*
D03*
Y35451D02*
D03*
Y43223D02*
D03*
Y40023D02*
D03*
X17339Y43285D02*
D03*
Y46485D02*
D03*
D15*
X70002Y47542D02*
D03*
Y40742D02*
D03*
D19*
X13516Y4027D02*
D03*
Y6877D02*
D03*
X14951Y43491D02*
D03*
Y46341D02*
D03*
D20*
X22294Y8745D02*
D03*
Y6745D02*
D03*
X20541Y6685D02*
D03*
Y8685D02*
D03*
X7341Y6636D02*
D03*
Y8636D02*
D03*
X9119Y8661D02*
D03*
Y6661D02*
D03*
X9118Y5064D02*
D03*
Y3064D02*
D03*
X7391Y3038D02*
D03*
Y5038D02*
D03*
X20541Y2961D02*
D03*
Y4961D02*
D03*
X22295Y5012D02*
D03*
Y3012D02*
D03*
X10547Y43522D02*
D03*
Y41522D02*
D03*
X24002Y43646D02*
D03*
Y41646D02*
D03*
X8743Y45132D02*
D03*
Y47132D02*
D03*
X23952Y47256D02*
D03*
Y45256D02*
D03*
X22143D02*
D03*
Y47256D02*
D03*
X22198Y41563D02*
D03*
Y43563D02*
D03*
X8743Y41497D02*
D03*
Y43497D02*
D03*
X10547Y47133D02*
D03*
Y45133D02*
D03*
D28*
X88000Y20000D02*
D03*
Y17460D02*
D03*
Y14920D02*
D03*
Y12380D02*
D03*
Y9840D02*
D03*
X53000Y44000D02*
D03*
X55540D02*
D03*
X58080D02*
D03*
X60620D02*
D03*
X63160D02*
D03*
X53000Y41460D02*
D03*
X55540D02*
D03*
X58080D02*
D03*
X60620D02*
D03*
X63160D02*
D03*
X22500Y20420D02*
D03*
Y22960D02*
D03*
Y25500D02*
D03*
Y28040D02*
D03*
Y30580D02*
D03*
X48500Y20420D02*
D03*
Y22960D02*
D03*
Y25500D02*
D03*
Y28040D02*
D03*
Y30580D02*
D03*
X74500Y20420D02*
D03*
Y22960D02*
D03*
Y25500D02*
D03*
Y28040D02*
D03*
Y30580D02*
D03*
X13665Y29108D02*
D03*
X17457Y35595D02*
D03*
X20045Y30714D02*
D03*
X86657Y23851D02*
D03*
X77470Y25552D02*
D03*
X9119Y19710D02*
D03*
X20015Y22860D02*
D03*
X54045Y11465D02*
D03*
X59673Y35983D02*
D03*
X13503Y49608D02*
D03*
X6756Y39822D02*
D03*
X9703Y49078D02*
D03*
X18466Y49327D02*
D03*
X24130Y34544D02*
D03*
X19916Y34064D02*
D03*
X88986Y29632D02*
D03*
X71984Y17094D02*
D03*
X58858Y28298D02*
D03*
X26604Y25595D02*
D03*
X26441Y19990D02*
D03*
X45466D02*
D03*
X26619Y29405D02*
D03*
X23890Y49682D02*
D03*
X69210Y2821D02*
D03*
X3353Y8331D02*
D03*
X24302Y13558D02*
D03*
X18440Y1346D02*
D03*
X11862Y14667D02*
D03*
X27349Y5162D02*
D03*
X78220Y20447D02*
D03*
X66903Y36000D02*
D03*
X45796Y46952D02*
D03*
D29*
X61610Y36000D02*
D03*
X69210D02*
D03*
X54010Y8000D02*
D03*
X69210D02*
D03*
%TF.MD5,f8869b936b73853bbfccc91512700317*%
M02*
