%TF.GenerationSoftware,Altium Limited,Altium Designer,21.6.4 (81)*%
G04 Layer_Physical_Order=3*
G04 Layer_Color=16440176*
%FSLAX43Y43*%
%MOMM*%
%TF.SameCoordinates,F87848A5-9C76-4C60-8026-6C1C3CCCB256*%
%TF.FilePolarity,Positive*%
%TF.FileFunction,Copper,L3,Inr,Signal*%
%TF.Part,Single*%
G01*
G75*
%TA.AperFunction,Conductor*%
%ADD23C,0.500*%
%TA.AperFunction,NonConductor*%
%ADD27C,0.254*%
%TA.AperFunction,ComponentPad*%
%ADD28C,1.500*%
%ADD29C,2.000*%
%TA.AperFunction,ViaPad*%
%ADD30C,0.600*%
%ADD31C,0.800*%
D23*
X72323Y14335D02*
X78334Y20345D01*
Y20536D01*
X41063Y14335D02*
X72323D01*
X38049Y17348D02*
X40916Y14481D01*
X41063Y14335D01*
X79186Y32134D02*
X82396D01*
X78630Y32690D02*
X79186Y32134D01*
X37440Y32690D02*
X78630D01*
X26663Y25654D02*
X30404D01*
X37440Y32690D01*
X37186Y33655D02*
X83672D01*
X28550Y26848D02*
X30378D01*
X37186Y33655D01*
X83672D02*
X87683Y29644D01*
X88973D02*
X88986Y29632D01*
X87683Y29644D02*
X88973D01*
X26604Y25595D02*
X26663Y25654D01*
X10871Y11786D02*
X25197D01*
X27813Y14402D02*
X28869D01*
X25197Y11786D02*
X27813Y14402D01*
X10109Y12548D02*
X10871Y11786D01*
X10109Y12548D02*
Y15758D01*
X11699Y17348D02*
X38049D01*
X10109Y15758D02*
X11699Y17348D01*
X12423Y39688D02*
X18375Y45640D01*
X28653D01*
D27*
X92249Y42184D02*
X92503Y42438D01*
X93010D01*
X93264Y42184D01*
Y41930D01*
X93010Y41676D01*
X92756D01*
X93010D01*
X93264Y41422D01*
Y41168D01*
X93010Y40914D01*
X92503D01*
X92249Y41168D01*
D28*
X88000Y20000D02*
D03*
Y17460D02*
D03*
Y14920D02*
D03*
Y12380D02*
D03*
Y9840D02*
D03*
X53000Y44000D02*
D03*
X55540D02*
D03*
X58080D02*
D03*
X60620D02*
D03*
X63160D02*
D03*
X53000Y41460D02*
D03*
X55540D02*
D03*
X58080D02*
D03*
X60620D02*
D03*
X63160D02*
D03*
X22500Y20420D02*
D03*
Y22960D02*
D03*
Y25500D02*
D03*
Y28040D02*
D03*
Y30580D02*
D03*
X48500Y20420D02*
D03*
Y22960D02*
D03*
Y25500D02*
D03*
Y28040D02*
D03*
Y30580D02*
D03*
X74500Y20420D02*
D03*
Y22960D02*
D03*
Y25500D02*
D03*
Y28040D02*
D03*
Y30580D02*
D03*
X13665Y29108D02*
D03*
X17457Y35595D02*
D03*
X20045Y30714D02*
D03*
X86657Y23851D02*
D03*
X77470Y25552D02*
D03*
X9119Y19710D02*
D03*
X20015Y22860D02*
D03*
X54045Y11465D02*
D03*
X59673Y35983D02*
D03*
X13503Y49608D02*
D03*
X6756Y39822D02*
D03*
X9703Y49078D02*
D03*
X18466Y49327D02*
D03*
X24130Y34544D02*
D03*
X19916Y34064D02*
D03*
X88986Y29632D02*
D03*
X71984Y17094D02*
D03*
X58858Y28298D02*
D03*
X26604Y25595D02*
D03*
X26441Y19990D02*
D03*
X45466D02*
D03*
X26619Y29405D02*
D03*
X23890Y49682D02*
D03*
X69210Y2821D02*
D03*
X3353Y8331D02*
D03*
X24302Y13558D02*
D03*
X18440Y1346D02*
D03*
X11862Y14667D02*
D03*
X27349Y5162D02*
D03*
X78220Y20447D02*
D03*
X66903Y36000D02*
D03*
X45796Y46952D02*
D03*
D29*
X61610Y36000D02*
D03*
X69210D02*
D03*
X54010Y8000D02*
D03*
X69210D02*
D03*
D30*
X85369Y49632D02*
D03*
X73939Y8730D02*
D03*
X86919Y2480D02*
D03*
X85750Y3730D02*
D03*
X93892Y21666D02*
D03*
X74371Y13818D02*
D03*
X6421Y21971D02*
D03*
X57379Y11921D02*
D03*
X3574Y20396D02*
D03*
X73000Y1718D02*
D03*
X69291Y42460D02*
D03*
X42646Y39170D02*
D03*
X44298Y45675D02*
D03*
D31*
X46327Y41865D02*
D03*
X60620Y46859D02*
D03*
X82396Y32134D02*
D03*
X81636Y42291D02*
D03*
X65380Y30226D02*
D03*
X33020Y31945D02*
D03*
X42621Y31560D02*
D03*
X70612Y48870D02*
D03*
X38583Y41885D02*
D03*
X87670Y29657D02*
D03*
X17780Y37744D02*
D03*
X17678Y7036D02*
D03*
X28869Y13132D02*
D03*
Y14402D02*
D03*
X31852Y11887D02*
D03*
X41237Y7955D02*
D03*
X41250Y39345D02*
D03*
X41257Y24359D02*
D03*
X42360Y10146D02*
D03*
X10109Y12548D02*
D03*
X28550Y26848D02*
D03*
X28778Y10592D02*
D03*
X11582Y6807D02*
D03*
X28550Y28135D02*
D03*
X66056Y20559D02*
D03*
X31648Y30675D02*
D03*
X63313Y23785D02*
D03*
X26746Y42951D02*
D03*
X12423Y39688D02*
D03*
X14567Y47955D02*
D03*
X31648Y41885D02*
D03*
X31547Y40595D02*
D03*
X44856Y38049D02*
D03*
X28869Y15563D02*
D03*
X28653Y45640D02*
D03*
X33934Y21785D02*
D03*
X28442Y24325D02*
D03*
X28697Y23012D02*
D03*
X36673Y44378D02*
D03*
X36646Y29337D02*
D03*
X36627Y14275D02*
D03*
X37620Y43135D02*
D03*
Y28169D02*
D03*
Y13106D02*
D03*
X38594Y26822D02*
D03*
X38583Y11887D02*
D03*
X28626Y43091D02*
D03*
X14783Y28042D02*
D03*
X42636Y16945D02*
D03*
X42621Y46903D02*
D03*
%TF.MD5,878d1212fcea197f19667bd02f032797*%
M02*
