%TF.GenerationSoftware,Altium Limited,Altium Designer,21.6.4 (81)*%
G04 Layer_Physical_Order=1*
G04 Layer_Color=255*
%FSLAX43Y43*%
%MOMM*%
%TF.SameCoordinates,F87848A5-9C76-4C60-8026-6C1C3CCCB256*%
%TF.FilePolarity,Positive*%
%TF.FileFunction,Copper,L1,Top,Signal*%
%TF.Part,Single*%
G01*
G75*
%TA.AperFunction,SMDPad,CuDef*%
%ADD10R,1.300X1.800*%
%ADD11R,1.000X1.600*%
%ADD12R,0.850X0.900*%
%ADD13R,1.600X1.000*%
%ADD14R,0.800X1.250*%
%ADD15R,2.500X4.450*%
%ADD16R,0.900X0.850*%
%ADD17R,1.900X0.950*%
%ADD18R,1.900X3.250*%
%ADD19R,1.800X1.300*%
%ADD20R,1.250X0.800*%
%ADD21R,1.800X0.800*%
%ADD22R,1.800X5.500*%
%TA.AperFunction,Conductor*%
%ADD23C,0.500*%
%ADD24C,0.800*%
%ADD25C,1.000*%
%ADD26C,0.400*%
%TA.AperFunction,NonConductor*%
%ADD27C,0.254*%
%TA.AperFunction,ComponentPad*%
%ADD28C,1.500*%
%ADD29C,2.000*%
%TA.AperFunction,ViaPad*%
%ADD30C,0.600*%
%ADD31C,0.800*%
G36*
X84353Y47748D02*
X83825D01*
Y48046D01*
X81525D01*
Y47830D01*
X77828D01*
Y50015D01*
X74928D01*
Y46318D01*
X71237D01*
Y46484D01*
X69937D01*
Y46318D01*
X66825D01*
X65916Y47227D01*
X65767Y47327D01*
X65591Y47362D01*
X60966D01*
X60960Y47368D01*
X60739Y47459D01*
X60501D01*
X60280Y47368D01*
X60111Y47199D01*
X60020Y46979D01*
Y46740D01*
X60111Y46520D01*
X60280Y46351D01*
X60501Y46259D01*
X60739D01*
X60960Y46351D01*
X61053Y46444D01*
X65401D01*
X66310Y45535D01*
X66459Y45436D01*
X66635Y45401D01*
X69937D01*
Y45234D01*
X71237D01*
Y45401D01*
X74928D01*
Y45165D01*
X77828D01*
Y46912D01*
X81525D01*
Y46696D01*
X83825D01*
Y46831D01*
X84353D01*
Y44071D01*
X80721D01*
Y37998D01*
X70866D01*
Y34392D01*
X50267D01*
X44577Y28702D01*
Y21590D01*
X43957Y21590D01*
X43956Y21717D01*
Y28838D01*
X45867Y30749D01*
X45966Y30898D01*
X46001Y31073D01*
Y33033D01*
X49294Y36326D01*
X57578D01*
X57754Y36361D01*
X57903Y36461D01*
X60944Y39502D01*
X61044Y39651D01*
X61079Y39827D01*
Y40628D01*
X61203Y40700D01*
X61380Y40877D01*
X61505Y41093D01*
X61570Y41335D01*
Y41585D01*
X61505Y41827D01*
X61380Y42043D01*
X61203Y42220D01*
X60987Y42345D01*
X60745Y42410D01*
X60495D01*
X60253Y42345D01*
X60037Y42220D01*
X59860Y42043D01*
X59735Y41827D01*
X59670Y41585D01*
Y41335D01*
X59735Y41093D01*
X59860Y40877D01*
X60037Y40700D01*
X60161Y40628D01*
Y40017D01*
X57388Y37244D01*
X49104D01*
X48928Y37209D01*
X48780Y37109D01*
X45218Y33548D01*
X45118Y33399D01*
X45083Y33223D01*
Y31263D01*
X43173Y29353D01*
X43073Y29204D01*
X43038Y29028D01*
Y17557D01*
X42911Y17481D01*
X42755Y17545D01*
X42611D01*
Y17554D01*
X41311D01*
Y17404D01*
X40900D01*
Y17545D01*
X40867D01*
X40850Y17665D01*
X40850Y17672D01*
Y18065D01*
X39800D01*
X38750D01*
Y17672D01*
X38750Y17665D01*
X38733Y17545D01*
X38700D01*
Y16345D01*
X38700D01*
Y16275D01*
X38700D01*
Y15132D01*
X38700Y15040D01*
X38700Y14948D01*
Y14753D01*
X36997D01*
X36967Y14783D01*
X36746Y14875D01*
X36507D01*
X36287Y14783D01*
X36118Y14615D01*
X36027Y14394D01*
Y14155D01*
X36118Y13935D01*
X36287Y13766D01*
X36507Y13675D01*
X36746D01*
X36967Y13766D01*
X37036Y13835D01*
X38634D01*
X38700Y13735D01*
X38700Y13707D01*
X38632Y13580D01*
X37995D01*
X37960Y13615D01*
X37739Y13706D01*
X37501D01*
X37280Y13615D01*
X37111Y13446D01*
X37020Y13226D01*
Y12987D01*
X37111Y12767D01*
X37280Y12598D01*
X37501Y12506D01*
X37739D01*
X37960Y12598D01*
X38024Y12662D01*
X38610D01*
X38629Y12643D01*
X38602Y12491D01*
X38593Y12487D01*
X38463D01*
X38243Y12396D01*
X38074Y12227D01*
X37983Y12007D01*
Y11768D01*
X38074Y11547D01*
X38243Y11379D01*
X38463Y11287D01*
X38615D01*
X38700Y11195D01*
Y10052D01*
X38700Y9960D01*
X38700Y9868D01*
Y8782D01*
X38700Y8725D01*
X38700D01*
Y8655D01*
X38700D01*
Y7455D01*
X38733D01*
X38750Y7335D01*
X38750Y7328D01*
Y6935D01*
X39800D01*
X40850D01*
Y7328D01*
X40850Y7335D01*
X40989Y7409D01*
X41118Y7355D01*
X41357D01*
X41577Y7446D01*
X41593Y7462D01*
X41710Y7413D01*
Y7401D01*
X43010D01*
Y7466D01*
X44544D01*
Y2871D01*
X46744D01*
Y8771D01*
X44544D01*
Y8282D01*
X43010D01*
Y8651D01*
X42287D01*
X42054Y8883D01*
X42103Y9001D01*
X42210D01*
Y9576D01*
X42360D01*
Y9726D01*
X42960D01*
Y10094D01*
X42960Y10221D01*
X42960Y10278D01*
Y10646D01*
X42360D01*
Y10796D01*
X42210D01*
Y11371D01*
X42066D01*
X42018Y11488D01*
X42250Y11721D01*
X43010D01*
Y11938D01*
X44544D01*
Y11371D01*
X46744D01*
Y17271D01*
X44544D01*
Y12754D01*
X43010D01*
Y12971D01*
X41710D01*
Y12335D01*
X41017Y11641D01*
X40900Y11690D01*
X40900Y12500D01*
X40900Y12592D01*
Y13678D01*
X40900Y13770D01*
X40900Y13862D01*
Y15127D01*
X40990Y15217D01*
X42752D01*
X42927Y15251D01*
X43076Y15351D01*
X43821Y16096D01*
X43921Y16245D01*
X43956Y16421D01*
Y18009D01*
X43957Y18136D01*
X44083Y18136D01*
X46860D01*
X49003Y15993D01*
Y333D01*
X35695D01*
X35605Y423D01*
X35610Y6145D01*
Y50667D01*
X84353D01*
Y47748D01*
D02*
G37*
%LPC*%
G36*
X83775Y50296D02*
X82825D01*
Y49821D01*
X83775D01*
Y50296D01*
D02*
G37*
G36*
X82525D02*
X81575D01*
Y49821D01*
X82525D01*
Y50296D01*
D02*
G37*
G36*
X83775Y49521D02*
X82825D01*
Y49046D01*
X83775D01*
Y49521D01*
D02*
G37*
G36*
X82525D02*
X81575D01*
Y49046D01*
X82525D01*
Y49521D01*
D02*
G37*
G36*
X42491Y49028D02*
X42041D01*
Y48603D01*
X42491D01*
Y49028D01*
D02*
G37*
G36*
X41741D02*
X41291D01*
Y48603D01*
X41741D01*
Y49028D01*
D02*
G37*
G36*
X40850Y48765D02*
X39950D01*
Y48365D01*
X40850D01*
Y48765D01*
D02*
G37*
G36*
X39650D02*
X38750D01*
Y48365D01*
X39650D01*
Y48765D01*
D02*
G37*
G36*
X42491Y48303D02*
X42041D01*
Y47878D01*
X42491D01*
Y48303D01*
D02*
G37*
G36*
X41741D02*
X41291D01*
Y47878D01*
X41741D01*
Y48303D01*
D02*
G37*
G36*
X71187Y47984D02*
X70737D01*
Y47559D01*
X71187D01*
Y47984D01*
D02*
G37*
G36*
X70437D02*
X69987D01*
Y47559D01*
X70437D01*
Y47984D01*
D02*
G37*
G36*
X71187Y47259D02*
X70737D01*
Y46834D01*
X71187D01*
Y47259D01*
D02*
G37*
G36*
X70437D02*
X69987D01*
Y46834D01*
X70437D01*
Y47259D01*
D02*
G37*
G36*
X40850Y48065D02*
X39800D01*
X38750D01*
Y47672D01*
X38750Y47665D01*
X38733Y47545D01*
X38700D01*
Y46402D01*
X38700Y46310D01*
X38700Y46218D01*
Y44940D01*
X38610Y44850D01*
X37049D01*
X37013Y44886D01*
X36792Y44978D01*
X36554D01*
X36333Y44886D01*
X36164Y44718D01*
X36073Y44497D01*
Y44258D01*
X36164Y44038D01*
X36333Y43869D01*
X36554Y43778D01*
X36792D01*
X37013Y43869D01*
X37076Y43933D01*
X38700D01*
Y43805D01*
X38700D01*
Y43735D01*
X38700D01*
Y43594D01*
X38010D01*
X37960Y43644D01*
X37739Y43735D01*
X37501D01*
X37280Y43644D01*
X37111Y43475D01*
X37020Y43254D01*
Y43016D01*
X37111Y42795D01*
X37280Y42626D01*
X37501Y42535D01*
X37739D01*
X37960Y42626D01*
X38010Y42676D01*
X38610D01*
X38640Y42647D01*
X38615Y42495D01*
X38594Y42485D01*
X38463D01*
X38243Y42393D01*
X38074Y42224D01*
X37983Y42004D01*
Y41765D01*
X38074Y41545D01*
X38243Y41376D01*
X38463Y41285D01*
X38610D01*
X38700Y41195D01*
X38700Y41138D01*
Y40052D01*
X38700Y39960D01*
X38700Y39868D01*
Y38782D01*
X38700Y38690D01*
X38700Y38598D01*
Y37455D01*
X38733D01*
X38750Y37335D01*
X38750Y37328D01*
Y36935D01*
X39800D01*
X40850D01*
Y37328D01*
X40850Y37335D01*
X40867Y37455D01*
X40900D01*
Y37593D01*
X44464D01*
X44517Y37541D01*
X44737Y37449D01*
X44976D01*
X45196Y37541D01*
X45365Y37709D01*
X45456Y37930D01*
Y38169D01*
X45365Y38389D01*
X45196Y38558D01*
X44976Y38649D01*
X44737D01*
X44517Y38558D01*
X44470Y38511D01*
X40990D01*
X40900Y38601D01*
X40900Y38725D01*
X41027Y38787D01*
X41130Y38745D01*
X41369D01*
X41589Y38836D01*
X41758Y39005D01*
X41850Y39225D01*
Y39464D01*
X41758Y39684D01*
X41589Y39853D01*
X41369Y39945D01*
X41130D01*
X41027Y39902D01*
X40900Y39925D01*
X40900Y40052D01*
Y41316D01*
X40990Y41406D01*
X41987D01*
X42047Y41346D01*
Y40745D01*
X43347D01*
Y40911D01*
X44030D01*
X45801Y39140D01*
X45950Y39040D01*
X46126Y39005D01*
X55407D01*
X55582Y39040D01*
X55731Y39140D01*
X57144Y40553D01*
X57244Y40702D01*
X57256Y40761D01*
X57393Y40803D01*
X57497Y40700D01*
X57679Y40595D01*
Y40471D01*
X55792Y38584D01*
X48633D01*
X48457Y38549D01*
X48309Y38450D01*
X43973Y34114D01*
X43874Y33966D01*
X43839Y33790D01*
Y31887D01*
X43335Y31383D01*
X43243Y31430D01*
X43221Y31449D01*
Y31680D01*
X43130Y31900D01*
X42961Y32069D01*
X42741Y32160D01*
X42541D01*
Y32489D01*
X41241D01*
Y32363D01*
X40900D01*
Y32545D01*
X40867D01*
X40850Y32665D01*
X40850Y32672D01*
Y33065D01*
X39800D01*
X38750D01*
Y32672D01*
X38750Y32665D01*
X38733Y32545D01*
X38700D01*
Y31345D01*
X38700D01*
Y31275D01*
X38700D01*
Y29948D01*
X38610Y29858D01*
X36956D01*
X36765Y29937D01*
X36527D01*
X36306Y29846D01*
X36137Y29677D01*
X36046Y29456D01*
Y29218D01*
X36137Y28997D01*
X36306Y28828D01*
X36527Y28737D01*
X36765D01*
X36986Y28828D01*
X37098Y28940D01*
X38610D01*
X38700Y28851D01*
Y28684D01*
X38610Y28594D01*
X38043D01*
X37960Y28677D01*
X37739Y28769D01*
X37501D01*
X37280Y28677D01*
X37111Y28508D01*
X37020Y28288D01*
Y28049D01*
X37111Y27829D01*
X37280Y27660D01*
X37501Y27569D01*
X37739D01*
X37960Y27660D01*
X37976Y27676D01*
X38610D01*
X38700Y27586D01*
Y27535D01*
X38665Y27422D01*
X38474D01*
X38254Y27331D01*
X38085Y27162D01*
X37994Y26942D01*
Y26703D01*
X38085Y26483D01*
X38254Y26314D01*
X38474Y26222D01*
X38584D01*
X38700Y26195D01*
X38700Y26095D01*
Y25052D01*
X38700Y24960D01*
X38700Y24868D01*
Y23782D01*
X38700Y23690D01*
X38700Y23598D01*
Y22455D01*
X38733D01*
X38750Y22335D01*
X38750Y22328D01*
Y21935D01*
X39800D01*
X40850D01*
Y22328D01*
X40850Y22335D01*
X40867Y22455D01*
X40900D01*
Y23598D01*
X40900Y23725D01*
X41027Y23804D01*
X41137Y23759D01*
X41376D01*
X41596Y23850D01*
X41765Y24019D01*
X41857Y24239D01*
Y24478D01*
X41765Y24698D01*
X41596Y24867D01*
X41376Y24959D01*
X41137D01*
X41027Y24913D01*
X40900Y24925D01*
X40900Y25052D01*
Y26138D01*
X40900Y26230D01*
X40900Y26322D01*
Y27408D01*
X40900Y27500D01*
X40900Y27592D01*
Y28678D01*
X40900Y28770D01*
X40900Y28862D01*
Y30126D01*
X40990Y30216D01*
X43276D01*
X43451Y30251D01*
X43600Y30351D01*
X44622Y31373D01*
X44721Y31521D01*
X44756Y31697D01*
Y33600D01*
X48823Y37667D01*
X55982D01*
X56157Y37702D01*
X56306Y37801D01*
X58462Y39957D01*
X58561Y40106D01*
X58596Y40281D01*
Y40661D01*
X58663Y40700D01*
X58840Y40877D01*
X58965Y41093D01*
X59030Y41335D01*
Y41585D01*
X58965Y41827D01*
X58840Y42043D01*
X58663Y42220D01*
X58447Y42345D01*
X58205Y42410D01*
X57955D01*
X57713Y42345D01*
X57497Y42220D01*
X57406Y42129D01*
X57279Y42182D01*
Y42549D01*
X57817Y43087D01*
X57955Y43050D01*
X58205D01*
X58447Y43115D01*
X58663Y43240D01*
X58840Y43417D01*
X58965Y43633D01*
X59030Y43875D01*
Y44125D01*
X58965Y44367D01*
X58840Y44583D01*
X58663Y44760D01*
X58447Y44885D01*
X58205Y44950D01*
X57955D01*
X57713Y44885D01*
X57497Y44760D01*
X57320Y44583D01*
X57195Y44367D01*
X57130Y44125D01*
Y43875D01*
X57167Y43735D01*
X56495Y43063D01*
X56396Y42914D01*
X56361Y42739D01*
Y42162D01*
X56234Y42110D01*
X56123Y42220D01*
X55907Y42345D01*
X55665Y42410D01*
X55415D01*
X55173Y42345D01*
X54957Y42220D01*
X54780Y42043D01*
X54655Y41827D01*
X54590Y41585D01*
Y41335D01*
X54655Y41093D01*
X54780Y40877D01*
X54957Y40700D01*
X55173Y40575D01*
X55415Y40510D01*
X55624D01*
X55685Y40391D01*
X55217Y39923D01*
X46316D01*
X44544Y41694D01*
X44395Y41794D01*
X44220Y41829D01*
X43347D01*
Y41995D01*
X42696D01*
X42502Y42189D01*
X42353Y42289D01*
X42177Y42324D01*
X40990D01*
X40900Y42414D01*
Y42586D01*
X40990Y42676D01*
X44407D01*
X44692Y42391D01*
X44841Y42291D01*
X45017Y42256D01*
X52273D01*
X52326Y42129D01*
X52240Y42043D01*
X52115Y41827D01*
X52050Y41585D01*
Y41335D01*
X52115Y41093D01*
X52240Y40877D01*
X52417Y40700D01*
X52633Y40575D01*
X52875Y40510D01*
X53125D01*
X53367Y40575D01*
X53583Y40700D01*
X53760Y40877D01*
X53885Y41093D01*
X53950Y41335D01*
Y41585D01*
X53885Y41827D01*
X53760Y42043D01*
X53674Y42129D01*
X53727Y42256D01*
X54374D01*
X54549Y42291D01*
X54698Y42391D01*
X55370Y43062D01*
X55415Y43050D01*
X55665D01*
X55907Y43115D01*
X56123Y43240D01*
X56300Y43417D01*
X56425Y43633D01*
X56490Y43875D01*
Y44125D01*
X56425Y44367D01*
X56300Y44583D01*
X56123Y44760D01*
X55907Y44885D01*
X55665Y44950D01*
X55415D01*
X55173Y44885D01*
X54957Y44760D01*
X54780Y44583D01*
X54655Y44367D01*
X54590Y44125D01*
Y43875D01*
X54652Y43643D01*
X54184Y43174D01*
X53697D01*
X53644Y43301D01*
X53760Y43417D01*
X53885Y43633D01*
X53950Y43875D01*
Y44125D01*
X53885Y44367D01*
X53760Y44583D01*
X53583Y44760D01*
X53367Y44885D01*
X53125Y44950D01*
X52875D01*
X52633Y44885D01*
X52417Y44760D01*
X52240Y44583D01*
X52149Y44426D01*
X48383D01*
X48093Y44716D01*
X47944Y44815D01*
X47769Y44850D01*
X40990D01*
X40900Y44940D01*
Y45126D01*
X40990Y45216D01*
X44099D01*
X44198Y45175D01*
X44397D01*
X44581Y45251D01*
X44721Y45392D01*
X44798Y45576D01*
Y45774D01*
X44721Y45958D01*
X44581Y46099D01*
X44397Y46175D01*
X44198D01*
X44099Y46134D01*
X40990D01*
X40900Y46224D01*
Y46375D01*
X40990Y46465D01*
X41241D01*
Y46278D01*
X42541D01*
Y46303D01*
X42741D01*
X42961Y46394D01*
X43130Y46563D01*
X43221Y46783D01*
Y47022D01*
X43130Y47243D01*
X42961Y47411D01*
X42741Y47503D01*
X42541D01*
Y47528D01*
X41241D01*
Y47383D01*
X40900D01*
Y47545D01*
X40867D01*
X40850Y47665D01*
X40850Y47672D01*
Y48065D01*
D02*
G37*
G36*
X45921Y47902D02*
X45671D01*
X45430Y47838D01*
X45213Y47713D01*
X45036Y47536D01*
X44911Y47319D01*
X44846Y47077D01*
Y46827D01*
X44911Y46586D01*
X45036Y46369D01*
X45213Y46192D01*
X45430Y46067D01*
X45671Y46002D01*
X45921D01*
X46163Y46067D01*
X46380Y46192D01*
X46556Y46369D01*
X46681Y46586D01*
X46746Y46827D01*
Y47077D01*
X46681Y47319D01*
X46556Y47536D01*
X46380Y47713D01*
X46163Y47838D01*
X45921Y47902D01*
D02*
G37*
G36*
X83825Y45746D02*
X81525D01*
Y45374D01*
X80007D01*
X79832Y45339D01*
X79683Y45240D01*
X79149Y44706D01*
X73875D01*
X73700Y44671D01*
X73551Y44571D01*
X72604Y43625D01*
X71313D01*
Y43767D01*
X70013D01*
Y43478D01*
X69850D01*
X69675Y43443D01*
X69526Y43343D01*
X69107Y42925D01*
X69008Y42884D01*
X68867Y42743D01*
X68791Y42559D01*
Y42361D01*
X68867Y42177D01*
X69008Y42036D01*
X69192Y41960D01*
X69391D01*
X69574Y42036D01*
X69715Y42177D01*
X69756Y42276D01*
X69922Y42442D01*
X70013Y42517D01*
Y42517D01*
X70013Y42517D01*
X71313D01*
Y42707D01*
X72794D01*
X72970Y42742D01*
X73119Y42842D01*
X74065Y43788D01*
X79339D01*
X79514Y43823D01*
X79663Y43922D01*
X80197Y44457D01*
X81525D01*
Y44396D01*
X83825D01*
Y45746D01*
D02*
G37*
G36*
X63310Y44892D02*
Y44150D01*
X64052D01*
X63999Y44347D01*
X63880Y44553D01*
X63713Y44720D01*
X63507Y44839D01*
X63310Y44892D01*
D02*
G37*
G36*
X63010D02*
X62813Y44839D01*
X62607Y44720D01*
X62440Y44553D01*
X62321Y44347D01*
X62268Y44150D01*
X63010D01*
Y44892D01*
D02*
G37*
G36*
X64052Y43850D02*
X63310D01*
Y43108D01*
X63507Y43161D01*
X63713Y43280D01*
X63880Y43447D01*
X63999Y43653D01*
X64052Y43850D01*
D02*
G37*
G36*
X63010D02*
X62268D01*
X62321Y43653D01*
X62440Y43447D01*
X62607Y43280D01*
X62813Y43161D01*
X63010Y43108D01*
Y43850D01*
D02*
G37*
G36*
X60745Y44950D02*
X60495D01*
X60253Y44885D01*
X60037Y44760D01*
X59860Y44583D01*
X59735Y44367D01*
X59670Y44125D01*
Y43875D01*
X59735Y43633D01*
X59860Y43417D01*
X60037Y43240D01*
X60253Y43115D01*
X60495Y43050D01*
X60745D01*
X60987Y43115D01*
X61203Y43240D01*
X61380Y43417D01*
X61505Y43633D01*
X61570Y43875D01*
Y44125D01*
X61505Y44367D01*
X61380Y44583D01*
X61203Y44760D01*
X60987Y44885D01*
X60745Y44950D01*
D02*
G37*
G36*
X71263Y42167D02*
X70813D01*
Y41742D01*
X71263D01*
Y42167D01*
D02*
G37*
G36*
X70513D02*
X70063D01*
Y41742D01*
X70513D01*
Y42167D01*
D02*
G37*
G36*
X71263Y41442D02*
X70813D01*
Y41017D01*
X71263D01*
Y41442D01*
D02*
G37*
G36*
X70513D02*
X70063D01*
Y41017D01*
X70513D01*
Y41442D01*
D02*
G37*
G36*
X77778Y43165D02*
X76528D01*
Y40940D01*
X77778D01*
Y43165D01*
D02*
G37*
G36*
X76228D02*
X74978D01*
Y40940D01*
X76228D01*
Y43165D01*
D02*
G37*
G36*
X43347Y40445D02*
X42047D01*
Y39195D01*
X42146D01*
Y39071D01*
X42222Y38887D01*
X42363Y38746D01*
X42547Y38670D01*
X42745D01*
X42929Y38746D01*
X43070Y38887D01*
X43146Y39071D01*
Y39195D01*
X43347D01*
Y40445D01*
D02*
G37*
G36*
X77778Y40640D02*
X76528D01*
Y38415D01*
X77778D01*
Y40640D01*
D02*
G37*
G36*
X76228D02*
X74978D01*
Y38415D01*
X76228D01*
Y40640D01*
D02*
G37*
G36*
X63285Y42410D02*
X63035D01*
X62793Y42345D01*
X62577Y42220D01*
X62400Y42043D01*
X62275Y41827D01*
X62210Y41585D01*
Y41335D01*
X62275Y41093D01*
X62400Y40877D01*
X62577Y40700D01*
X62660Y40652D01*
Y37699D01*
X62077Y37116D01*
X62073Y37118D01*
X61768Y37200D01*
X61452D01*
X61147Y37118D01*
X60873Y36960D01*
X60650Y36737D01*
X60556Y36575D01*
X60415Y36584D01*
X60256Y36743D01*
X60039Y36868D01*
X59798Y36933D01*
X59548D01*
X59306Y36868D01*
X59089Y36743D01*
X58912Y36566D01*
X58787Y36349D01*
X58723Y36108D01*
Y35858D01*
X58787Y35616D01*
X58912Y35399D01*
X59089Y35223D01*
X59306Y35097D01*
X59548Y35033D01*
X59798D01*
X60039Y35097D01*
X60256Y35223D01*
X60428Y35394D01*
X60447Y35409D01*
X60572Y35399D01*
X60650Y35263D01*
X60873Y35040D01*
X61147Y34882D01*
X61452Y34800D01*
X61768D01*
X62073Y34882D01*
X62347Y35040D01*
X62570Y35263D01*
X62728Y35537D01*
X62810Y35842D01*
Y36158D01*
X62728Y36463D01*
X62726Y36467D01*
X63443Y37184D01*
X63543Y37333D01*
X63578Y37509D01*
Y40604D01*
X63743Y40700D01*
X63920Y40877D01*
X64045Y41093D01*
X64110Y41335D01*
Y41585D01*
X64045Y41827D01*
X63920Y42043D01*
X63743Y42220D01*
X63527Y42345D01*
X63285Y42410D01*
D02*
G37*
G36*
X40850Y36635D02*
X39950D01*
Y36235D01*
X40850D01*
Y36635D01*
D02*
G37*
G36*
X39650D02*
X38750D01*
Y36235D01*
X39650D01*
Y36635D01*
D02*
G37*
G36*
X67053Y36892D02*
Y36150D01*
X67795D01*
X67742Y36347D01*
X67624Y36553D01*
X67456Y36720D01*
X67251Y36839D01*
X67053Y36892D01*
D02*
G37*
G36*
X66753Y36892D02*
X66556Y36839D01*
X66351Y36720D01*
X66183Y36553D01*
X66065Y36347D01*
X66012Y36150D01*
X66753D01*
Y36892D01*
D02*
G37*
G36*
X69362Y37150D02*
X69360D01*
Y36150D01*
X70360D01*
Y36151D01*
X70282Y36444D01*
X70130Y36706D01*
X69916Y36920D01*
X69654Y37072D01*
X69362Y37150D01*
D02*
G37*
G36*
X69060D02*
X69059D01*
X68766Y37072D01*
X68504Y36920D01*
X68290Y36706D01*
X68139Y36444D01*
X68060Y36151D01*
Y36150D01*
X69060D01*
Y37150D01*
D02*
G37*
G36*
X66753Y35850D02*
X66012D01*
X66065Y35653D01*
X66183Y35447D01*
X66351Y35280D01*
X66556Y35161D01*
X66753Y35108D01*
Y35850D01*
D02*
G37*
G36*
X67795D02*
X67053D01*
Y35108D01*
X67251Y35161D01*
X67456Y35280D01*
X67624Y35447D01*
X67742Y35653D01*
X67795Y35850D01*
D02*
G37*
G36*
X70360Y35850D02*
X69360D01*
Y34850D01*
X69362D01*
X69654Y34928D01*
X69916Y35080D01*
X70130Y35294D01*
X70282Y35556D01*
X70360Y35849D01*
Y35850D01*
D02*
G37*
G36*
X69060D02*
X68060D01*
Y35849D01*
X68139Y35556D01*
X68290Y35294D01*
X68504Y35080D01*
X68766Y34928D01*
X69059Y34850D01*
X69060D01*
Y35850D01*
D02*
G37*
G36*
X42491Y33989D02*
X42041D01*
Y33564D01*
X42491D01*
Y33989D01*
D02*
G37*
G36*
X41741D02*
X41291D01*
Y33564D01*
X41741D01*
Y33989D01*
D02*
G37*
G36*
X40850Y33765D02*
X39950D01*
Y33365D01*
X40850D01*
Y33765D01*
D02*
G37*
G36*
X39650D02*
X38750D01*
Y33365D01*
X39650D01*
Y33765D01*
D02*
G37*
G36*
X42491Y33264D02*
X42041D01*
Y32839D01*
X42491D01*
Y33264D01*
D02*
G37*
G36*
X41741D02*
X41291D01*
Y32839D01*
X41741D01*
Y33264D01*
D02*
G37*
G36*
X40850Y21635D02*
X39950D01*
Y21235D01*
X40850D01*
Y21635D01*
D02*
G37*
G36*
X39650D02*
X38750D01*
Y21235D01*
X39650D01*
Y21635D01*
D02*
G37*
G36*
X42561Y19054D02*
X42111D01*
Y18629D01*
X42561D01*
Y19054D01*
D02*
G37*
G36*
X41811D02*
X41361D01*
Y18629D01*
X41811D01*
Y19054D01*
D02*
G37*
G36*
X40850Y18765D02*
X39950D01*
Y18365D01*
X40850D01*
Y18765D01*
D02*
G37*
G36*
X39650D02*
X38750D01*
Y18365D01*
X39650D01*
Y18765D01*
D02*
G37*
G36*
X42561Y18329D02*
X42111D01*
Y17904D01*
X42561D01*
Y18329D01*
D02*
G37*
G36*
X41811D02*
X41361D01*
Y17904D01*
X41811D01*
Y18329D01*
D02*
G37*
G36*
X42960Y11371D02*
X42510D01*
Y10946D01*
X42960D01*
Y11371D01*
D02*
G37*
G36*
X42960Y9426D02*
X42510D01*
Y9001D01*
X42960D01*
Y9426D01*
D02*
G37*
G36*
X40850Y6635D02*
X39950D01*
Y6235D01*
X40850D01*
Y6635D01*
D02*
G37*
G36*
X39650D02*
X38750D01*
Y6235D01*
X39650D01*
Y6635D01*
D02*
G37*
%LPD*%
G36*
X47868Y43643D02*
X48017Y43544D01*
X48193Y43509D01*
X52187D01*
X52240Y43417D01*
X52356Y43301D01*
X52303Y43174D01*
X45207D01*
X44921Y43459D01*
X44772Y43559D01*
X44597Y43594D01*
X40900D01*
Y43735D01*
X40900D01*
Y43805D01*
X40900D01*
Y43933D01*
X47579D01*
X47868Y43643D01*
D02*
G37*
D10*
X16738Y14663D02*
D03*
X13888D02*
D03*
X17413Y45534D02*
D03*
X14563D02*
D03*
X17341Y39021D02*
D03*
X14491D02*
D03*
X59068Y25944D02*
D03*
X61918D02*
D03*
X13786Y8287D02*
D03*
X16636D02*
D03*
D11*
X71145Y11860D02*
D03*
X67945D02*
D03*
X79603Y14732D02*
D03*
X76403D02*
D03*
X8597Y29005D02*
D03*
X11797D02*
D03*
X66406Y11860D02*
D03*
X63206D02*
D03*
X61603Y11871D02*
D03*
X58403D02*
D03*
X3519Y29005D02*
D03*
X6719D02*
D03*
X58938Y23658D02*
D03*
X62138D02*
D03*
X11648Y8433D02*
D03*
X8448D02*
D03*
X9490Y45575D02*
D03*
X12690D02*
D03*
D12*
X93951Y25625D02*
D03*
X95501D02*
D03*
X93944Y24036D02*
D03*
X95494D02*
D03*
X93967Y22454D02*
D03*
X95517D02*
D03*
X93951Y27203D02*
D03*
X95501D02*
D03*
D13*
X3574Y23465D02*
D03*
Y26665D02*
D03*
X84575Y6270D02*
D03*
X75425Y3730D02*
D03*
X84575D02*
D03*
X75425Y6270D02*
D03*
X61603Y2800D02*
D03*
Y6000D02*
D03*
X54045Y5918D02*
D03*
Y2718D02*
D03*
X57717Y5971D02*
D03*
Y2771D02*
D03*
X86470Y28811D02*
D03*
Y25611D02*
D03*
X13958Y20419D02*
D03*
Y17219D02*
D03*
X80095Y28702D02*
D03*
Y25502D02*
D03*
X14563Y36888D02*
D03*
Y33688D02*
D03*
X64902Y28559D02*
D03*
Y25359D02*
D03*
X64871Y20575D02*
D03*
Y23775D02*
D03*
X81596Y15021D02*
D03*
Y18221D02*
D03*
X81621Y19789D02*
D03*
Y22989D02*
D03*
D14*
X64507Y30259D02*
D03*
X62507D02*
D03*
X64549Y17181D02*
D03*
X62549D02*
D03*
X60826D02*
D03*
X58826D02*
D03*
X62498Y18908D02*
D03*
X64498D02*
D03*
X58790D02*
D03*
X60790D02*
D03*
X58884Y31954D02*
D03*
X60884D02*
D03*
X84223Y30581D02*
D03*
X82223D02*
D03*
X82261Y28812D02*
D03*
X84261D02*
D03*
X58884Y30216D02*
D03*
X60884D02*
D03*
X64498Y31954D02*
D03*
X62498D02*
D03*
D15*
X76378Y40790D02*
D03*
Y47590D02*
D03*
D16*
X70587Y47409D02*
D03*
Y45859D02*
D03*
X70663Y41592D02*
D03*
Y43142D02*
D03*
X42360Y10796D02*
D03*
Y12346D02*
D03*
X42697Y41370D02*
D03*
Y39820D02*
D03*
X27349Y6791D02*
D03*
Y8341D02*
D03*
X23133Y6801D02*
D03*
Y8351D02*
D03*
X41961Y16929D02*
D03*
Y18479D02*
D03*
X41891Y31864D02*
D03*
Y33414D02*
D03*
Y46903D02*
D03*
Y48453D02*
D03*
X27568Y38844D02*
D03*
Y37294D02*
D03*
X23377Y38869D02*
D03*
Y37319D02*
D03*
X28309Y33590D02*
D03*
Y32040D02*
D03*
X28194Y48453D02*
D03*
Y46903D02*
D03*
X28267Y18225D02*
D03*
Y16675D02*
D03*
X42360Y8026D02*
D03*
Y9576D02*
D03*
D17*
X82675Y49671D02*
D03*
Y47371D02*
D03*
Y45071D02*
D03*
D18*
X88775Y47371D02*
D03*
D19*
X25241Y9620D02*
D03*
Y6770D02*
D03*
X86470Y30709D02*
D03*
Y33559D02*
D03*
X25477Y40449D02*
D03*
Y37599D02*
D03*
X20999Y6796D02*
D03*
Y9646D02*
D03*
X21269Y40472D02*
D03*
Y37622D02*
D03*
X26416Y35113D02*
D03*
Y32263D02*
D03*
X26122Y48153D02*
D03*
Y45303D02*
D03*
X26399Y18011D02*
D03*
Y15161D02*
D03*
X80095Y30582D02*
D03*
Y33432D02*
D03*
X67341Y28462D02*
D03*
Y25612D02*
D03*
X67309Y20649D02*
D03*
Y23499D02*
D03*
D20*
X13646Y12574D02*
D03*
Y10574D02*
D03*
X11791Y10488D02*
D03*
Y12488D02*
D03*
X12741Y41374D02*
D03*
Y43374D02*
D03*
X14493D02*
D03*
Y41374D02*
D03*
D21*
X39800Y18215D02*
D03*
Y16945D02*
D03*
Y15675D02*
D03*
Y14405D02*
D03*
Y11865D02*
D03*
Y13135D02*
D03*
Y8055D02*
D03*
Y6785D02*
D03*
Y9325D02*
D03*
Y10595D02*
D03*
X30200Y18215D02*
D03*
Y16945D02*
D03*
Y15675D02*
D03*
Y14405D02*
D03*
Y11865D02*
D03*
Y13135D02*
D03*
Y8055D02*
D03*
Y6785D02*
D03*
Y9325D02*
D03*
Y10595D02*
D03*
X39800Y48215D02*
D03*
Y46945D02*
D03*
Y45675D02*
D03*
Y44405D02*
D03*
Y41865D02*
D03*
Y43135D02*
D03*
Y38055D02*
D03*
Y36785D02*
D03*
Y39325D02*
D03*
Y40595D02*
D03*
X30200Y48215D02*
D03*
Y46945D02*
D03*
Y45675D02*
D03*
Y44405D02*
D03*
Y41865D02*
D03*
Y43135D02*
D03*
Y38055D02*
D03*
Y36785D02*
D03*
Y39325D02*
D03*
Y40595D02*
D03*
Y25595D02*
D03*
Y24325D02*
D03*
Y21785D02*
D03*
Y23055D02*
D03*
Y28135D02*
D03*
Y26865D02*
D03*
Y29405D02*
D03*
Y30675D02*
D03*
Y31945D02*
D03*
Y33215D02*
D03*
X39800Y25595D02*
D03*
Y24325D02*
D03*
Y21785D02*
D03*
Y23055D02*
D03*
Y28135D02*
D03*
Y26865D02*
D03*
Y29405D02*
D03*
Y30675D02*
D03*
Y31945D02*
D03*
Y33215D02*
D03*
D22*
X45644Y14321D02*
D03*
X45644Y5821D02*
D03*
D23*
X85303Y49671D02*
X85342Y49632D01*
X82675Y49671D02*
X85303D01*
X85342Y49632D02*
X85369D01*
X23133Y6629D02*
X25241D01*
X27349D01*
X84568Y47289D02*
X85454Y46404D01*
Y38691D02*
Y46404D01*
Y38691D02*
X95501Y28645D01*
X86258Y7584D02*
X86919Y6924D01*
X86258Y7584D02*
Y15718D01*
X88000Y17460D01*
X85125Y6520D02*
Y17125D01*
X88000Y20000D01*
X84875Y6270D02*
X85125Y6520D01*
X71145Y11560D02*
X71395Y11310D01*
X71145Y11560D02*
Y11860D01*
X71395Y11310D02*
X71395D01*
X73920Y8785D01*
Y8749D02*
Y8785D01*
Y8749D02*
X73939Y8730D01*
X82757Y47289D02*
X84568D01*
X95509Y25625D02*
Y27195D01*
Y22462D02*
Y24036D01*
X95501Y27203D02*
Y28645D01*
X76378Y46859D02*
Y47371D01*
Y47590D01*
X95509Y24036D02*
Y25625D01*
Y22462D02*
X95517Y22454D01*
X95501Y27203D02*
X95509Y27195D01*
X86919Y2480D02*
Y6924D01*
X84575Y3730D02*
X85750D01*
X88000Y20000D02*
X89484Y21484D01*
X93911Y21685D02*
Y22398D01*
X93892Y21666D02*
X93911Y21685D01*
Y22398D02*
X93967Y22454D01*
X89484Y21484D02*
Y24905D01*
X88000Y14920D02*
X91923Y18843D01*
Y22946D02*
X93012Y24036D01*
X91923Y18843D02*
Y22946D01*
X88000Y17460D02*
X90678Y20138D01*
Y24055D02*
X92248Y25625D01*
X90678Y20138D02*
Y24055D01*
X89484Y24905D02*
X91783Y27203D01*
X93012Y24036D02*
X93944D01*
X92248Y25625D02*
X93951D01*
X91783Y27203D02*
X93951D01*
X63195Y11871D02*
X63206Y11860D01*
X3574Y23465D02*
X3574Y23465D01*
Y20396D02*
Y23465D01*
X79603Y14732D02*
Y14771D01*
X79853Y15021D01*
X37620Y43135D02*
X44597D01*
X45017Y42715D02*
X54374D01*
X44597Y43135D02*
X45017Y42715D01*
X42547Y41545D02*
X42666Y41427D01*
X42497Y41545D02*
X42547D01*
X42177Y41865D02*
X42497Y41545D01*
X54374Y42715D02*
X55584Y43926D01*
X39800Y41875D02*
X39810Y41865D01*
X38592Y41875D02*
X39800D01*
X39810Y41865D02*
X42177D01*
X44220Y41370D02*
X46126Y39464D01*
X55407D02*
X56820Y40877D01*
X46126Y39464D02*
X55407D01*
X58137Y40281D02*
Y41403D01*
X58080Y41460D02*
X58137Y41403D01*
X55982Y38125D02*
X58137Y40281D01*
X48633Y38125D02*
X55982D01*
X56820Y40877D02*
Y42739D01*
X58081Y44000D01*
X36687Y44391D02*
X39800D01*
X47769D01*
X48193Y43967D01*
X52967D01*
X63119Y37509D02*
Y41460D01*
X70663Y43166D02*
X72794D01*
X60620Y39827D02*
Y41460D01*
X49104Y36785D02*
X57578D01*
X60620Y39827D01*
Y46903D02*
X65591D01*
X66635Y45859D01*
X82223Y30581D02*
X82372Y30730D01*
Y32110D01*
X45542Y33223D02*
X49104Y36785D01*
X43497Y29028D02*
X45542Y31073D01*
Y33223D01*
X26035Y32357D02*
X26399Y31993D01*
X30200Y31945D02*
X33020D01*
X42411Y31689D02*
X42540Y31560D01*
X42091Y31689D02*
X42411D01*
X42540Y31560D02*
X42621D01*
X66635Y45859D02*
X70587D01*
X59681Y35991D02*
X61602D01*
X61610Y36000D01*
X59673Y35983D02*
X59681Y35991D01*
X69850Y43019D02*
X70540D01*
X70663Y43142D01*
X69310Y42479D02*
X69850Y43019D01*
X61610Y36000D02*
X63119Y37509D01*
X82675Y47371D02*
X82757Y47289D01*
X72794Y43166D02*
X73875Y44247D01*
X79339D02*
X80007Y44915D01*
X73875Y44247D02*
X79339D01*
X42665Y39189D02*
Y39788D01*
X42697Y39820D01*
X42646Y39170D02*
X42665Y39189D01*
X41930Y31850D02*
Y31904D01*
Y31850D02*
X42091Y31689D01*
X80007Y44915D02*
X82519D01*
X82675Y45071D01*
X76378Y47590D02*
X76597Y47371D01*
X82675D01*
X70612Y45859D02*
X75378D01*
X76378Y46859D01*
X42697Y41370D02*
X44220D01*
X39800Y45675D02*
X44298D01*
X38583Y41885D02*
X38592Y41875D01*
X44298Y33790D02*
X48633Y38125D01*
X44298Y31697D02*
Y33790D01*
X13503Y49608D02*
X13665D01*
X14510Y48013D02*
Y48763D01*
X13665Y49608D02*
X14510Y48763D01*
Y48013D02*
X14567Y47955D01*
X14813Y36638D02*
X16143D01*
X16995Y35786D02*
X16995D01*
X16143Y36638D02*
X16995Y35786D01*
X16995D02*
X17127Y35654D01*
X17180Y35595D02*
X17457D01*
X17127Y35648D02*
X17180Y35595D01*
X17127Y35648D02*
Y35654D01*
X14563Y36888D02*
X14813Y36638D01*
X24486Y34735D02*
X24796D01*
X24923Y34863D02*
X26166D01*
X24796Y34735D02*
X24923Y34863D01*
X24277Y34527D02*
X24486Y34735D01*
X26166Y34863D02*
X26416Y35113D01*
X28139Y33444D02*
X28480D01*
X26273Y34969D02*
X26450Y34792D01*
X28309Y31993D02*
X30153D01*
X26518Y25629D02*
X30166D01*
X26441Y18253D02*
X28092D01*
X26441D02*
Y19990D01*
Y18052D02*
Y18253D01*
X26399Y18011D02*
X26441Y18052D01*
X26562Y29439D02*
X26604Y29396D01*
X26613Y29405D02*
X30200D01*
X26604Y29396D02*
X26613Y29405D01*
X25019Y48553D02*
X25722D01*
X23890Y49682D02*
X25019Y48553D01*
X25722D02*
X26122Y48153D01*
X11862Y14667D02*
X13642D01*
X13767Y14541D01*
X21165Y6629D02*
X23133D01*
X27349D02*
Y6791D01*
Y5162D02*
Y6629D01*
X43497Y16421D02*
Y29028D01*
X28871Y13134D02*
X30198D01*
X30200Y13135D01*
X28869Y13132D02*
X28871Y13134D01*
X30198Y14404D02*
X30200Y14405D01*
X28869Y14402D02*
X28871Y14404D01*
X30198D01*
X30200Y11865D02*
X30211Y11876D01*
X31841D02*
X31852Y11887D01*
X30211Y11876D02*
X31841D01*
X39810Y39335D02*
X41240D01*
X41250Y39345D01*
X39800Y39325D02*
X39810Y39335D01*
X41196Y24325D02*
X41229Y24359D01*
X39800Y24325D02*
X41196D01*
X41229Y24359D02*
X41257D01*
X28558Y26856D02*
X30191D01*
X30200Y26865D01*
X28550Y26848D02*
X28558Y26856D01*
X30198Y10594D02*
X30200Y10595D01*
X28778Y10592D02*
X28780Y10594D01*
X30198D01*
X11582Y8367D02*
X11648Y8433D01*
X28550Y28135D02*
X30200D01*
X26399Y31993D02*
X28309D01*
X30153D02*
X30200Y31945D01*
X26746Y42951D02*
Y42977D01*
X28174Y44405D01*
X30200D01*
X24079Y41885D02*
X26670D01*
X29080Y39475D01*
X23377Y41183D02*
X24079Y41885D01*
X14565Y45537D02*
Y47953D01*
X14563Y45534D02*
X14565Y45537D01*
Y47953D02*
X14567Y47955D01*
X30210Y41875D02*
X31639D01*
X30200Y41865D02*
X30210Y41875D01*
X31639D02*
X31648Y41885D01*
X30200Y40595D02*
X31547D01*
X39803Y38052D02*
X44854D01*
X39800Y38055D02*
X39803Y38052D01*
X44854D02*
X44856Y38049D01*
X86407Y33495D02*
X86470Y33559D01*
X80095Y33432D02*
X80158Y33495D01*
X39800Y30675D02*
X43276D01*
X44298Y31697D01*
X28480Y33444D02*
X28676Y33249D01*
X30166D01*
X27202Y34792D02*
X28109Y33884D01*
Y33765D02*
X28284Y33590D01*
X28109Y33765D02*
Y33884D01*
X26450Y34792D02*
X27202D01*
X28284Y33590D02*
X28309D01*
X30107Y15582D02*
X30200Y15675D01*
X28869Y15563D02*
X28888Y15582D01*
X30107D01*
X28653Y45640D02*
X28670Y45658D01*
X30183D02*
X30200Y45675D01*
X28670Y45658D02*
X30183D01*
X30200Y21785D02*
X33934D01*
X30050Y39475D02*
X30200Y39325D01*
X29080Y39475D02*
X30050D01*
X28442Y24325D02*
X30200D01*
X28697Y23012D02*
X28716Y23032D01*
X30177D02*
X30200Y23055D01*
X28716Y23032D02*
X30177D01*
X36673Y44378D02*
X36687Y44391D01*
X36646Y29337D02*
X36673D01*
X36735Y29399D02*
X39794D01*
X36673Y29337D02*
X36735Y29399D01*
X39794D02*
X39800Y29405D01*
X36627Y14275D02*
X36646Y14294D01*
X39689D02*
X39800Y14405D01*
X36646Y14294D02*
X39689D01*
X37681Y28135D02*
X39800D01*
X37620Y28169D02*
X37647D01*
X37681Y28135D01*
X39786Y13121D02*
X39800Y13135D01*
X37620Y13106D02*
X37634Y13121D01*
X39786D01*
X38594Y26822D02*
X38613Y26842D01*
X39777D02*
X39800Y26865D01*
X38613Y26842D02*
X39777D01*
X38594Y11876D02*
X39789D01*
X39800Y11865D01*
X38583Y11887D02*
X38594Y11876D01*
X28626Y43091D02*
X28653D01*
X28697Y43135D02*
X30200D01*
X28653Y43091D02*
X28697Y43135D01*
X27384Y6756D02*
X30171D01*
X27074Y10947D02*
X28618Y9403D01*
X24009Y10947D02*
X27074D01*
X28618Y9403D02*
X30122D01*
X23133Y10071D02*
X24009Y10947D01*
X23133Y8351D02*
Y10071D01*
X30122Y9403D02*
X30200Y9325D01*
X23377Y38869D02*
Y41183D01*
X25491Y9620D02*
X25891Y9220D01*
Y9161D02*
X26562Y8490D01*
X27200D01*
X25241Y9620D02*
X25491D01*
X25891Y9161D02*
Y9220D01*
X27200Y8490D02*
X27495Y8195D01*
X30060D02*
X30200Y8055D01*
X27495Y8195D02*
X30060D01*
X21669Y40072D02*
X21955D01*
X22982Y39044D02*
X23202D01*
X21269Y40472D02*
X21669Y40072D01*
X21955D02*
X22982Y39044D01*
X23202D02*
X23377Y38869D01*
X26338Y40049D02*
X27543Y38844D01*
X25477Y40449D02*
X25877Y40049D01*
X27543Y38844D02*
X27568D01*
X25877Y40049D02*
X26338D01*
X27593Y38844D02*
X28382Y38055D01*
X30200D01*
X27568Y38844D02*
X27593D01*
X27618Y37267D02*
X28100Y36785D01*
X30200D01*
X27917Y16528D02*
X28267Y16878D01*
X28194Y46903D02*
X28215Y46924D01*
X28019Y46728D02*
X28194Y46903D01*
X26781Y15503D02*
X27806Y16528D01*
X26384Y15503D02*
X26781D01*
X27806Y16528D02*
X27917D01*
X25984Y15103D02*
X26384Y15503D01*
X28267Y16878D02*
X28572D01*
X28585Y16891D02*
X30146D01*
X30200Y16945D01*
X28572Y16878D02*
X28585Y16891D01*
X22369Y8526D02*
X22958D01*
X20999Y9646D02*
X21249D01*
X22369Y8526D01*
X22958D02*
X23133Y8351D01*
X20999Y6796D02*
X21165Y6629D01*
X28194Y48453D02*
X28369Y48278D01*
X30137D02*
X30200Y48215D01*
X28369Y48278D02*
X30137D01*
X26272Y48303D02*
X28044D01*
X28194Y48453D01*
X26122Y48153D02*
X26272Y48303D01*
X27881Y46728D02*
X28019D01*
X26522Y45703D02*
X26856D01*
X27881Y46728D01*
X26122Y45303D02*
X26522Y45703D01*
X28215Y46924D02*
X30179D01*
X30200Y46945D01*
X28130Y18215D02*
X30200D01*
X28092Y18253D02*
X28130Y18215D01*
X42752Y15675D02*
X43497Y16421D01*
X39800Y16945D02*
X42636D01*
X39800Y15675D02*
X42752D01*
X39840Y31904D02*
X41930D01*
X39800Y31945D02*
X39840Y31904D01*
X41891Y46903D02*
X42621D01*
X39821Y46924D02*
X41870D01*
X41891Y46903D01*
X39800Y46945D02*
X39821Y46924D01*
D24*
X61610Y2800D02*
X63701D01*
X66319Y5418D02*
X71839D01*
X63701Y2800D02*
X66319Y5418D01*
X4300Y8197D02*
X6683Y5813D01*
X10589D01*
X11582Y6807D01*
X3487Y8197D02*
X4300D01*
X3353Y8331D02*
X3487Y8197D01*
X9144Y19666D02*
X9149D01*
X8448Y18970D02*
X9144Y19666D01*
X13976Y20419D02*
X14076Y20519D01*
X13958Y20419D02*
X13976D01*
X13958D02*
X17686D01*
X72691Y6270D02*
X75425D01*
X71839Y5418D02*
X72691Y6270D01*
X54008Y5955D02*
X54045Y5918D01*
X54008Y7998D02*
X54010Y8000D01*
X54008Y5955D02*
Y7998D01*
X3519Y29005D02*
X3546Y28977D01*
Y26692D02*
X3574Y26665D01*
X3546Y26692D02*
Y28977D01*
X6719Y29005D02*
X8597D01*
X9490Y33334D02*
X14783Y28042D01*
X11848Y29057D02*
X13613D01*
X11797Y29005D02*
X11848Y29057D01*
X13613D02*
X13665Y29108D01*
X64549Y18136D02*
Y20325D01*
X64907Y20612D02*
X67273D01*
X73870Y15132D02*
X76303D01*
X71984Y17017D02*
X73870Y15132D01*
X70942Y18136D02*
X71984Y17094D01*
X82223Y30356D02*
X82261Y30318D01*
X82223Y30356D02*
Y30543D01*
X82261Y28812D02*
Y30318D01*
X86470Y30459D02*
Y30709D01*
Y29657D02*
Y30271D01*
Y30459D02*
X86657D01*
X86470Y29657D02*
X87670D01*
X86657Y30459D02*
X86741Y30542D01*
X86470Y29657D02*
X86470Y29657D01*
X86470Y28811D02*
Y29657D01*
X86574Y30709D02*
X86741Y30542D01*
X84350Y30709D02*
X86574D01*
X81741Y33495D02*
X86407D01*
X73381Y33477D02*
X80158D01*
X70612Y30709D02*
X73381Y33477D01*
X80158Y33495D02*
X81741D01*
X70612Y27246D02*
Y30709D01*
X80095Y30582D02*
X82223D01*
X64498Y30493D02*
Y31954D01*
X64507Y30226D02*
X65380D01*
X64498Y30493D02*
X64507Y30484D01*
Y28659D02*
X64607Y28559D01*
X64507Y28659D02*
Y30259D01*
Y30484D01*
X64607Y28559D02*
X64902D01*
X64507Y30226D02*
Y30259D01*
X69023Y25657D02*
X70612Y27246D01*
X64902Y28559D02*
X64950Y28510D01*
X64549Y18136D02*
X70942D01*
X64432D02*
X64549D01*
Y17181D02*
Y18136D01*
X67385Y25657D02*
X69023D01*
X67341Y25612D02*
X67385Y25657D01*
X87695Y29632D02*
X88986D01*
X60884Y31913D02*
X62498D01*
X60884D02*
Y32062D01*
Y30216D02*
X62464D01*
X64950Y28510D02*
X67293D01*
X58826Y23658D02*
Y25944D01*
Y18890D02*
Y23658D01*
X86470Y28811D02*
X86470Y28811D01*
X14884Y33615D02*
X17098D01*
X19999Y30714D01*
X8448Y8433D02*
Y18970D01*
X17413Y45534D02*
Y48274D01*
X18466Y49327D01*
X25477Y37294D02*
X27568D01*
X21269Y37622D02*
X21519D01*
X17903D02*
X21269D01*
X23377Y37294D02*
X25477D01*
X17780Y37744D02*
X17903Y37622D01*
X17591Y37933D02*
X17780Y37744D01*
X16988Y15163D02*
X17412D01*
X17457Y15207D02*
X26353D01*
X16738Y14913D02*
X16988Y15163D01*
X17412D02*
X17457Y15207D01*
X16738Y7936D02*
Y14913D01*
X11862Y14629D02*
X13854D01*
X13767Y12695D02*
Y14291D01*
X17341Y45463D02*
X17413Y45534D01*
X17341Y39021D02*
Y45463D01*
X17663Y45275D02*
X26095D01*
X17591Y37933D02*
Y38521D01*
X17341Y39021D02*
X17591Y38521D01*
X16886Y7787D02*
X16901D01*
X17653Y7036D01*
X17638D02*
X20759D01*
X16636Y8037D02*
X16886Y7787D01*
X11582Y6834D02*
Y8367D01*
X16636Y8037D02*
Y8287D01*
X20759Y7036D02*
X20999Y6796D01*
X58858Y30260D02*
Y32062D01*
Y26154D02*
Y28462D01*
Y30260D01*
X30200Y30675D02*
X31648D01*
X62138Y23685D02*
X62238Y23785D01*
X62138Y23658D02*
Y23685D01*
X63313Y23785D02*
X63322Y23775D01*
X64871D01*
X62238Y23785D02*
X63313D01*
X14563Y43374D02*
Y45534D01*
X11791Y12488D02*
X13335D01*
X13420Y12574D02*
X13646D01*
X13335Y12488D02*
X13420Y12574D01*
X9490Y33334D02*
Y45575D01*
X76303Y15132D02*
X76403Y15032D01*
Y14732D02*
Y15032D01*
X64549Y20325D02*
X64799Y20575D01*
X64871D01*
X67273Y20612D02*
X67309Y20649D01*
X64871Y20575D02*
X64907Y20612D01*
X65009Y23637D02*
X67171D01*
X64871Y23775D02*
X65009Y23637D01*
X67171D02*
X67309Y23499D01*
X62028Y23768D02*
Y25834D01*
X61918Y25944D02*
X62028Y25834D01*
Y23768D02*
X62138Y23658D01*
X64871Y23775D02*
X64902Y23807D01*
Y25359D01*
X67309Y23499D02*
X67341Y23530D01*
Y25612D01*
X67293Y28510D02*
X67341Y28462D01*
X58858Y26154D02*
X59068Y25944D01*
X58872Y26194D02*
X59122Y25944D01*
X58826Y17181D02*
Y18890D01*
X58808Y17199D02*
Y18890D01*
X60826Y17181D02*
X62549D01*
X60790Y18908D02*
X62498D01*
X79853Y15021D02*
X81596D01*
X81609Y18221D02*
Y19789D01*
X84223Y30606D02*
X84323Y30706D01*
X84348D02*
X84350Y30709D01*
X84323Y30706D02*
X84348D01*
X80095Y30582D02*
X80095Y30582D01*
X82223D02*
X82223Y30581D01*
X80095Y28702D02*
Y30582D01*
X84266Y28854D02*
Y30538D01*
X84223Y30581D02*
X84266Y30538D01*
X27593Y37294D02*
X27618Y37269D01*
Y37267D02*
Y37269D01*
X27568Y37294D02*
X27593D01*
X21519Y37622D02*
X21769Y37372D01*
X22220D02*
X22238Y37354D01*
X23033D02*
X23043Y37344D01*
X21769Y37372D02*
X22220D01*
X22238Y37354D02*
X23033D01*
X23043Y37344D02*
X23343D01*
X19883Y30714D02*
X22366D01*
X20227Y22960D02*
X22500D01*
X17686Y20419D02*
X20227Y22960D01*
X13923Y14698D02*
Y17184D01*
X13958Y17219D01*
X13646Y12574D02*
X13767Y12695D01*
X11794Y8287D02*
X13786D01*
X13716Y8358D02*
X13786Y8287D01*
X11648Y8433D02*
X11794Y8287D01*
X13646Y10574D02*
X13716Y10503D01*
X11648Y8433D02*
X11720Y8505D01*
Y10416D01*
X11791Y10488D01*
X13716Y8358D02*
Y10503D01*
X14563Y33688D02*
X14663Y33588D01*
X22366Y30714D02*
X22500Y30580D01*
X14663Y33588D02*
X14978D01*
X12690Y43374D02*
X12741D01*
X14493D02*
X14563D01*
X12741D02*
X14493D01*
X12690D02*
Y45575D01*
X14491Y39021D02*
X14492Y39023D01*
X14491Y36959D02*
Y39021D01*
X14492Y39023D02*
Y41373D01*
X12741Y41374D02*
X14493D01*
X14492Y41373D02*
X14493Y41374D01*
X12690Y45575D02*
X12710Y45555D01*
D25*
X57717Y5971D02*
X61189D01*
X57328Y2718D02*
X57328Y2718D01*
X54045Y2718D02*
X57328D01*
X81645Y22989D02*
X82214D01*
X82238Y23012D02*
X85822D01*
X86657Y23848D02*
Y23851D01*
X85822Y23012D02*
X86657Y23848D01*
X82214Y22989D02*
X82238Y23012D01*
X86701Y23530D02*
Y25611D01*
X86470D02*
X86701D01*
X77828Y22960D02*
X81293D01*
X57379Y11921D02*
X58403D01*
Y11871D02*
Y11921D01*
X61603Y11871D02*
X63195D01*
X66406Y11860D02*
X67945D01*
X54045Y2718D02*
X54045Y2718D01*
X75125Y3730D02*
X75425D01*
X74464Y2769D02*
X75125Y3430D01*
X69193Y2769D02*
X74464D01*
X75125Y3430D02*
Y3730D01*
X74500Y22960D02*
X77828D01*
X81321Y22989D02*
X81593D01*
X81293Y22960D02*
X81321Y22989D01*
X80095Y25502D02*
X80239D01*
X74502D02*
X80095D01*
X54126Y20742D02*
Y35373D01*
X47724Y14340D02*
X54126Y20742D01*
X81609Y19789D02*
X81621D01*
X81596Y18221D02*
X81609D01*
X74500Y25500D02*
X74502Y25502D01*
D26*
X41199Y7993D02*
X41237Y7955D01*
X39800Y8055D02*
X39862Y7993D01*
X41199D01*
X41236Y9125D02*
X42335Y8026D01*
X42360D01*
X40000Y9125D02*
X41236D01*
X39800Y9325D02*
X40000Y9125D01*
X40748Y10795D02*
X42073Y12121D01*
X42135D01*
X40000Y10795D02*
X40748D01*
X39800Y10595D02*
X40000Y10795D01*
X42135Y12121D02*
X42360Y12346D01*
X42335D02*
X44994D01*
X45644Y12996D01*
Y14321D01*
X42437Y7874D02*
X45349D01*
X46152Y7071D01*
Y5783D02*
Y7071D01*
D27*
X88249Y40914D02*
X88756D01*
X88503D01*
Y42438D01*
X88249Y42184D01*
D28*
X88000Y20000D02*
D03*
Y17460D02*
D03*
Y14920D02*
D03*
Y12380D02*
D03*
Y9840D02*
D03*
X53000Y44000D02*
D03*
X55540D02*
D03*
X58080D02*
D03*
X60620D02*
D03*
X63160D02*
D03*
X53000Y41460D02*
D03*
X55540D02*
D03*
X58080D02*
D03*
X60620D02*
D03*
X63160D02*
D03*
X22500Y20420D02*
D03*
Y22960D02*
D03*
Y25500D02*
D03*
Y28040D02*
D03*
Y30580D02*
D03*
X48500Y20420D02*
D03*
Y22960D02*
D03*
Y25500D02*
D03*
Y28040D02*
D03*
Y30580D02*
D03*
X74500Y20420D02*
D03*
Y22960D02*
D03*
Y25500D02*
D03*
Y28040D02*
D03*
Y30580D02*
D03*
X13665Y29108D02*
D03*
X17457Y35595D02*
D03*
X20045Y30714D02*
D03*
X86657Y23851D02*
D03*
X77470Y25552D02*
D03*
X9119Y19710D02*
D03*
X20015Y22860D02*
D03*
X54045Y11465D02*
D03*
X59673Y35983D02*
D03*
X13503Y49608D02*
D03*
X6756Y39822D02*
D03*
X9703Y49078D02*
D03*
X18466Y49327D02*
D03*
X24130Y34544D02*
D03*
X19916Y34064D02*
D03*
X88986Y29632D02*
D03*
X71984Y17094D02*
D03*
X58858Y28298D02*
D03*
X26604Y25595D02*
D03*
X26441Y19990D02*
D03*
X45466D02*
D03*
X26619Y29405D02*
D03*
X23890Y49682D02*
D03*
X69210Y2821D02*
D03*
X3353Y8331D02*
D03*
X24302Y13558D02*
D03*
X18440Y1346D02*
D03*
X11862Y14667D02*
D03*
X27349Y5162D02*
D03*
X78220Y20447D02*
D03*
X66903Y36000D02*
D03*
X45796Y46952D02*
D03*
D29*
X61610Y36000D02*
D03*
X69210D02*
D03*
X54010Y8000D02*
D03*
X69210D02*
D03*
D30*
X85369Y49632D02*
D03*
X73939Y8730D02*
D03*
X86919Y2480D02*
D03*
X85750Y3730D02*
D03*
X93892Y21666D02*
D03*
X74371Y13818D02*
D03*
X6421Y21971D02*
D03*
X57379Y11921D02*
D03*
X3574Y20396D02*
D03*
X73000Y1718D02*
D03*
X69291Y42460D02*
D03*
X42646Y39170D02*
D03*
X44298Y45675D02*
D03*
D31*
X46327Y41865D02*
D03*
X60620Y46859D02*
D03*
X82396Y32134D02*
D03*
X81636Y42291D02*
D03*
X65380Y30226D02*
D03*
X33020Y31945D02*
D03*
X42621Y31560D02*
D03*
X70612Y48870D02*
D03*
X38583Y41885D02*
D03*
X87670Y29657D02*
D03*
X17780Y37744D02*
D03*
X17678Y7036D02*
D03*
X28869Y13132D02*
D03*
Y14402D02*
D03*
X31852Y11887D02*
D03*
X41237Y7955D02*
D03*
X41250Y39345D02*
D03*
X41257Y24359D02*
D03*
X42360Y10146D02*
D03*
X10109Y12548D02*
D03*
X28550Y26848D02*
D03*
X28778Y10592D02*
D03*
X11582Y6807D02*
D03*
X28550Y28135D02*
D03*
X66056Y20559D02*
D03*
X31648Y30675D02*
D03*
X63313Y23785D02*
D03*
X26746Y42951D02*
D03*
X12423Y39688D02*
D03*
X14567Y47955D02*
D03*
X31648Y41885D02*
D03*
X31547Y40595D02*
D03*
X44856Y38049D02*
D03*
X28869Y15563D02*
D03*
X28653Y45640D02*
D03*
X33934Y21785D02*
D03*
X28442Y24325D02*
D03*
X28697Y23012D02*
D03*
X36673Y44378D02*
D03*
X36646Y29337D02*
D03*
X36627Y14275D02*
D03*
X37620Y43135D02*
D03*
Y28169D02*
D03*
Y13106D02*
D03*
X38594Y26822D02*
D03*
X38583Y11887D02*
D03*
X28626Y43091D02*
D03*
X14783Y28042D02*
D03*
X42636Y16945D02*
D03*
X42621Y46903D02*
D03*
%TF.MD5,31ba87fc95023d70dc53cf73634255fe*%
M02*
