%TF.GenerationSoftware,Altium Limited,Altium Designer,21.6.4 (81)*%
G04 Layer_Physical_Order=4*
G04 Layer_Color=16711680*
%FSLAX43Y43*%
%MOMM*%
%TF.SameCoordinates,F87848A5-9C76-4C60-8026-6C1C3CCCB256*%
%TF.FilePolarity,Positive*%
%TF.FileFunction,Copper,L4,Bot,Signal*%
%TF.Part,Single*%
G01*
G75*
%TA.AperFunction,SMDPad,CuDef*%
%ADD10R,1.300X1.800*%
%ADD11R,1.000X1.600*%
%ADD12R,0.850X0.900*%
%ADD13R,1.600X1.000*%
%ADD15R,2.500X4.450*%
%ADD19R,1.800X1.300*%
%ADD20R,1.250X0.800*%
%TA.AperFunction,Conductor*%
%ADD23C,0.500*%
%ADD24C,0.800*%
%ADD25C,1.000*%
%TA.AperFunction,NonConductor*%
%ADD27C,0.254*%
%TA.AperFunction,ComponentPad*%
%ADD28C,1.500*%
%ADD29C,2.000*%
%TA.AperFunction,ViaPad*%
%ADD30C,0.600*%
%ADD31C,0.800*%
%TA.AperFunction,Conductor*%
%ADD32C,0.980*%
G36*
X70942Y49917D02*
X70152D01*
Y47542D01*
Y45167D01*
X70942D01*
Y43167D01*
X68552D01*
Y41937D01*
X63982D01*
X63920Y42043D01*
X63743Y42220D01*
X63527Y42345D01*
X63285Y42410D01*
X63035D01*
X62793Y42345D01*
X62577Y42220D01*
X62400Y42043D01*
X62275Y41827D01*
X62210Y41585D01*
Y41335D01*
X62275Y41093D01*
X62400Y40877D01*
X62577Y40700D01*
X62793Y40575D01*
X63035Y40510D01*
X63285D01*
X63527Y40575D01*
X63743Y40700D01*
X63920Y40877D01*
X64003Y41019D01*
X68552D01*
Y38317D01*
X70942D01*
Y35366D01*
X69643Y34067D01*
X48976D01*
X43917Y29007D01*
Y17221D01*
X49003Y12135D01*
Y333D01*
X35657D01*
X35567Y423D01*
X35578Y13377D01*
X35610Y13409D01*
Y50667D01*
X70942D01*
Y49917D01*
D02*
G37*
%LPC*%
G36*
X69852D02*
X68602D01*
Y47692D01*
X69852D01*
Y49917D01*
D02*
G37*
G36*
X45921Y47902D02*
X45671D01*
X45430Y47838D01*
X45213Y47713D01*
X45036Y47536D01*
X44950Y47386D01*
X42986D01*
X42961Y47411D01*
X42741Y47503D01*
X42502D01*
X42281Y47411D01*
X42113Y47243D01*
X42021Y47022D01*
Y46783D01*
X42113Y46563D01*
X42175Y46501D01*
Y39339D01*
X42146Y39269D01*
Y39071D01*
X42162Y39031D01*
Y31950D01*
X42112Y31900D01*
X42021Y31680D01*
Y31441D01*
X42112Y31221D01*
X42162Y31171D01*
Y17320D01*
X42127Y17285D01*
X42036Y17065D01*
Y16826D01*
X42127Y16605D01*
X42296Y16437D01*
X42516Y16345D01*
X42755D01*
X42976Y16437D01*
X43144Y16605D01*
X43236Y16826D01*
Y17065D01*
X43144Y17285D01*
X43080Y17350D01*
Y31171D01*
X43130Y31221D01*
X43221Y31441D01*
Y31680D01*
X43130Y31900D01*
X43080Y31950D01*
Y38911D01*
X43146Y39071D01*
Y39269D01*
X43092Y39399D01*
Y46469D01*
X44978D01*
X45036Y46369D01*
X45213Y46192D01*
X45430Y46067D01*
X45671Y46002D01*
X45921D01*
X46163Y46067D01*
X46380Y46192D01*
X46556Y46369D01*
X46601Y46447D01*
X60161D01*
Y44832D01*
X60037Y44760D01*
X59860Y44583D01*
X59735Y44367D01*
X59670Y44125D01*
Y43875D01*
X59735Y43633D01*
X59860Y43417D01*
X60037Y43240D01*
X60253Y43115D01*
X60495Y43050D01*
X60745D01*
X60987Y43115D01*
X61203Y43240D01*
X61380Y43417D01*
X61505Y43633D01*
X61570Y43875D01*
Y44125D01*
X61505Y44367D01*
X61380Y44583D01*
X61203Y44760D01*
X61079Y44832D01*
Y46470D01*
X61129Y46520D01*
X61220Y46740D01*
Y46979D01*
X61129Y47199D01*
X60960Y47368D01*
X60739Y47459D01*
X60501D01*
X60280Y47368D01*
X60277Y47365D01*
X46655D01*
X46556Y47536D01*
X46380Y47713D01*
X46163Y47838D01*
X45921Y47902D01*
D02*
G37*
G36*
X69852Y47392D02*
X68602D01*
Y45167D01*
X69852D01*
Y47392D01*
D02*
G37*
G36*
X63310Y44892D02*
Y44150D01*
X64052D01*
X63999Y44347D01*
X63880Y44553D01*
X63713Y44720D01*
X63507Y44839D01*
X63310Y44892D01*
D02*
G37*
G36*
X63010D02*
X62813Y44839D01*
X62607Y44720D01*
X62440Y44553D01*
X62321Y44347D01*
X62268Y44150D01*
X63010D01*
Y44892D01*
D02*
G37*
G36*
X64052Y43850D02*
X63310D01*
Y43108D01*
X63507Y43161D01*
X63713Y43280D01*
X63880Y43447D01*
X63999Y43653D01*
X64052Y43850D01*
D02*
G37*
G36*
X63010D02*
X62268D01*
X62321Y43653D01*
X62440Y43447D01*
X62607Y43280D01*
X62813Y43161D01*
X63010Y43108D01*
Y43850D01*
D02*
G37*
G36*
X58205Y44950D02*
X57955D01*
X57713Y44885D01*
X57497Y44760D01*
X57320Y44583D01*
X57195Y44367D01*
X57130Y44125D01*
Y43875D01*
X57195Y43633D01*
X57320Y43417D01*
X57497Y43240D01*
X57713Y43115D01*
X57955Y43050D01*
X58205D01*
X58447Y43115D01*
X58663Y43240D01*
X58840Y43417D01*
X58965Y43633D01*
X59030Y43875D01*
Y44125D01*
X58965Y44367D01*
X58840Y44583D01*
X58663Y44760D01*
X58447Y44885D01*
X58205Y44950D01*
D02*
G37*
G36*
X55665D02*
X55415D01*
X55173Y44885D01*
X54957Y44760D01*
X54780Y44583D01*
X54655Y44367D01*
X54590Y44125D01*
Y43875D01*
X54655Y43633D01*
X54780Y43417D01*
X54957Y43240D01*
X55173Y43115D01*
X55415Y43050D01*
X55665D01*
X55907Y43115D01*
X56123Y43240D01*
X56300Y43417D01*
X56425Y43633D01*
X56490Y43875D01*
Y44125D01*
X56425Y44367D01*
X56300Y44583D01*
X56123Y44760D01*
X55907Y44885D01*
X55665Y44950D01*
D02*
G37*
G36*
X60745Y42410D02*
X60495D01*
X60253Y42345D01*
X60037Y42220D01*
X59860Y42043D01*
X59735Y41827D01*
X59670Y41585D01*
Y41335D01*
X59735Y41093D01*
X59860Y40877D01*
X60037Y40700D01*
X60253Y40575D01*
X60495Y40510D01*
X60745D01*
X60987Y40575D01*
X61203Y40700D01*
X61380Y40877D01*
X61505Y41093D01*
X61570Y41335D01*
Y41585D01*
X61505Y41827D01*
X61380Y42043D01*
X61203Y42220D01*
X60987Y42345D01*
X60745Y42410D01*
D02*
G37*
G36*
X58205D02*
X57955D01*
X57713Y42345D01*
X57497Y42220D01*
X57320Y42043D01*
X57195Y41827D01*
X57130Y41585D01*
Y41335D01*
X57195Y41093D01*
X57320Y40877D01*
X57497Y40700D01*
X57713Y40575D01*
X57955Y40510D01*
X58205D01*
X58447Y40575D01*
X58663Y40700D01*
X58840Y40877D01*
X58965Y41093D01*
X59030Y41335D01*
Y41585D01*
X58965Y41827D01*
X58840Y42043D01*
X58663Y42220D01*
X58447Y42345D01*
X58205Y42410D01*
D02*
G37*
G36*
X44397Y46175D02*
X44198D01*
X44014Y46099D01*
X43874Y45958D01*
X43798Y45774D01*
Y45576D01*
X43874Y45392D01*
X44014Y45251D01*
X44114Y45210D01*
X45918Y43406D01*
X46066Y43307D01*
X46242Y43272D01*
X51060D01*
X51926Y42406D01*
X52075Y42306D01*
X52251Y42271D01*
X52288D01*
X52341Y42144D01*
X52240Y42043D01*
X52149Y41886D01*
X48235D01*
X48059Y41851D01*
X47910Y41752D01*
X44808Y38649D01*
X44737D01*
X44517Y38558D01*
X44348Y38389D01*
X44256Y38169D01*
Y37930D01*
X44348Y37709D01*
X44517Y37541D01*
X44737Y37449D01*
X44976D01*
X45196Y37541D01*
X45365Y37709D01*
X45456Y37930D01*
Y38000D01*
X48425Y40969D01*
X52187D01*
X52240Y40877D01*
X52417Y40700D01*
X52633Y40575D01*
X52875Y40510D01*
X53125D01*
X53367Y40575D01*
X53583Y40700D01*
X53760Y40877D01*
X53885Y41093D01*
X53926Y41244D01*
X53931Y41252D01*
X53940Y41299D01*
X53950Y41335D01*
Y41348D01*
X53966Y41427D01*
X53950Y41507D01*
Y41585D01*
X53885Y41827D01*
X53760Y42043D01*
X53659Y42144D01*
X53712Y42271D01*
X54083D01*
X54628Y41726D01*
X54590Y41585D01*
Y41335D01*
X54655Y41093D01*
X54780Y40877D01*
X54957Y40700D01*
X55173Y40575D01*
X55415Y40510D01*
X55665D01*
X55907Y40575D01*
X56123Y40700D01*
X56300Y40877D01*
X56425Y41093D01*
X56490Y41335D01*
Y41585D01*
X56425Y41827D01*
X56300Y42043D01*
X56123Y42220D01*
X55907Y42345D01*
X55665Y42410D01*
X55415D01*
X55278Y42373D01*
X54597Y43054D01*
X54448Y43154D01*
X54273Y43189D01*
X53712D01*
X53659Y43316D01*
X53760Y43417D01*
X53885Y43633D01*
X53950Y43875D01*
Y44125D01*
X53885Y44367D01*
X53760Y44583D01*
X53583Y44760D01*
X53367Y44885D01*
X53125Y44950D01*
X52875D01*
X52633Y44885D01*
X52417Y44760D01*
X52240Y44583D01*
X52115Y44367D01*
X52050Y44125D01*
Y43875D01*
X52092Y43717D01*
X51979Y43651D01*
X51574Y44055D01*
X51426Y44154D01*
X51250Y44189D01*
X46432D01*
X44763Y45859D01*
X44721Y45958D01*
X44581Y46099D01*
X44397Y46175D01*
D02*
G37*
G36*
X61768Y37200D02*
X61452D01*
X61147Y37118D01*
X60873Y36960D01*
X60650Y36737D01*
X60556Y36575D01*
X60415Y36584D01*
X60256Y36743D01*
X60039Y36868D01*
X59798Y36933D01*
X59548D01*
X59306Y36868D01*
X59089Y36743D01*
X58912Y36566D01*
X58787Y36349D01*
X58723Y36108D01*
Y35858D01*
X58787Y35616D01*
X58912Y35399D01*
X59089Y35223D01*
X59306Y35097D01*
X59548Y35033D01*
X59798D01*
X60039Y35097D01*
X60256Y35223D01*
X60428Y35394D01*
X60447Y35409D01*
X60572Y35399D01*
X60650Y35263D01*
X60873Y35040D01*
X61147Y34882D01*
X61452Y34800D01*
X61768D01*
X62073Y34882D01*
X62347Y35040D01*
X62570Y35263D01*
X62728Y35537D01*
X62810Y35842D01*
Y36158D01*
X62728Y36463D01*
X62570Y36737D01*
X62347Y36960D01*
X62073Y37118D01*
X61768Y37200D01*
D02*
G37*
G36*
X67053Y36892D02*
Y36150D01*
X67795D01*
X67742Y36347D01*
X67624Y36553D01*
X67456Y36720D01*
X67251Y36839D01*
X67053Y36892D01*
D02*
G37*
G36*
X66753Y36892D02*
X66556Y36839D01*
X66351Y36720D01*
X66183Y36553D01*
X66065Y36347D01*
X66012Y36150D01*
X66753D01*
Y36892D01*
D02*
G37*
G36*
X69362Y37150D02*
X69360D01*
Y36150D01*
X70360D01*
Y36151D01*
X70282Y36444D01*
X70130Y36706D01*
X69916Y36920D01*
X69654Y37072D01*
X69362Y37150D01*
D02*
G37*
G36*
X69060D02*
X69059D01*
X68766Y37072D01*
X68504Y36920D01*
X68290Y36706D01*
X68139Y36444D01*
X68060Y36151D01*
Y36150D01*
X69060D01*
Y37150D01*
D02*
G37*
G36*
X66753Y35850D02*
X66012D01*
X66065Y35653D01*
X66183Y35447D01*
X66351Y35280D01*
X66556Y35161D01*
X66753Y35108D01*
Y35850D01*
D02*
G37*
G36*
X67795D02*
X67053D01*
Y35108D01*
X67251Y35161D01*
X67456Y35280D01*
X67624Y35447D01*
X67742Y35653D01*
X67795Y35850D01*
D02*
G37*
G36*
X70360Y35850D02*
X69360D01*
Y34850D01*
X69362D01*
X69654Y34928D01*
X69916Y35080D01*
X70130Y35294D01*
X70282Y35556D01*
X70360Y35849D01*
Y35850D01*
D02*
G37*
G36*
X69060D02*
X68060D01*
Y35849D01*
X68139Y35556D01*
X68290Y35294D01*
X68504Y35080D01*
X68766Y34928D01*
X69059Y34850D01*
X69060D01*
Y35850D01*
D02*
G37*
G36*
X36792Y44978D02*
X36554D01*
X36333Y44886D01*
X36164Y44718D01*
X36073Y44497D01*
Y44258D01*
X36164Y44038D01*
X36201Y44002D01*
Y29740D01*
X36137Y29677D01*
X36046Y29456D01*
Y29218D01*
X36137Y28997D01*
X36168Y28966D01*
Y14665D01*
X36118Y14615D01*
X36027Y14394D01*
Y14155D01*
X36118Y13935D01*
X36287Y13766D01*
X36507Y13675D01*
X36746D01*
X36967Y13766D01*
X37034Y13834D01*
X37161Y13781D01*
Y13496D01*
X37111Y13446D01*
X37020Y13226D01*
Y12987D01*
X37111Y12767D01*
X37280Y12598D01*
X37501Y12506D01*
X37739D01*
X37960Y12598D01*
X38006Y12644D01*
X38124Y12596D01*
Y12277D01*
X38074Y12227D01*
X37983Y12007D01*
Y11768D01*
X38074Y11547D01*
X38243Y11379D01*
X38463Y11287D01*
X38702D01*
X38922Y11379D01*
X39091Y11547D01*
X39183Y11768D01*
Y12007D01*
X39091Y12227D01*
X39041Y12277D01*
Y26422D01*
X39102Y26483D01*
X39194Y26703D01*
Y26942D01*
X39102Y27162D01*
X39047Y27218D01*
Y41500D01*
X39091Y41545D01*
X39183Y41765D01*
Y42004D01*
X39091Y42224D01*
X38922Y42393D01*
X38702Y42485D01*
X38463D01*
X38243Y42393D01*
X38196Y42347D01*
X38079Y42395D01*
Y42745D01*
X38129Y42795D01*
X38220Y43016D01*
Y43254D01*
X38129Y43475D01*
X37960Y43644D01*
X37739Y43735D01*
X37501D01*
X37280Y43644D01*
X37236Y43599D01*
X37118Y43648D01*
Y43974D01*
X37182Y44038D01*
X37273Y44258D01*
Y44497D01*
X37182Y44718D01*
X37013Y44886D01*
X36792Y44978D01*
D02*
G37*
G36*
X41369Y39945D02*
X41130D01*
X40910Y39853D01*
X40741Y39684D01*
X40650Y39464D01*
Y39225D01*
X40741Y39005D01*
X40794Y38951D01*
Y24745D01*
X40748Y24698D01*
X40657Y24478D01*
Y24239D01*
X40748Y24019D01*
X40788Y23978D01*
Y8354D01*
X40729Y8295D01*
X40637Y8074D01*
Y7836D01*
X40729Y7615D01*
X40898Y7446D01*
X41118Y7355D01*
X41357D01*
X41577Y7446D01*
X41746Y7615D01*
X41837Y7836D01*
Y8074D01*
X41746Y8295D01*
X41706Y8335D01*
Y23959D01*
X41765Y24019D01*
X41857Y24239D01*
Y24478D01*
X41765Y24698D01*
X41712Y24752D01*
Y38958D01*
X41758Y39005D01*
X41850Y39225D01*
Y39464D01*
X41758Y39684D01*
X41589Y39853D01*
X41369Y39945D01*
D02*
G37*
%LPD*%
D10*
X18758Y11495D02*
D03*
X15908D02*
D03*
X30134Y22060D02*
D03*
X32984D02*
D03*
X33038Y27961D02*
D03*
X30188D02*
D03*
X13766Y11495D02*
D03*
X10916D02*
D03*
X17446Y41027D02*
D03*
X20296D02*
D03*
X12459Y41039D02*
D03*
X15309D02*
D03*
D11*
X6466Y23925D02*
D03*
X9666D02*
D03*
X11202D02*
D03*
X14402D02*
D03*
X83312Y21031D02*
D03*
X80112D02*
D03*
X19243Y17170D02*
D03*
X16043D02*
D03*
X15629Y9084D02*
D03*
X18829D02*
D03*
X14054D02*
D03*
X10854D02*
D03*
X10710Y33103D02*
D03*
X13910D02*
D03*
X12386Y38582D02*
D03*
X15586D02*
D03*
X17196Y38582D02*
D03*
X20396D02*
D03*
D12*
X33259Y25806D02*
D03*
X31709D02*
D03*
X33286Y24169D02*
D03*
X31736D02*
D03*
D13*
X16386Y23571D02*
D03*
Y20371D02*
D03*
X75425Y2480D02*
D03*
X84575Y5020D02*
D03*
X75425D02*
D03*
X84575Y2480D02*
D03*
X75425Y8730D02*
D03*
X84575Y11270D02*
D03*
X75425D02*
D03*
X84575Y8730D02*
D03*
X75425Y14480D02*
D03*
X84575Y17020D02*
D03*
X75425D02*
D03*
X84575Y14480D02*
D03*
X77648Y40031D02*
D03*
Y43231D02*
D03*
Y35458D02*
D03*
Y38658D02*
D03*
Y30709D02*
D03*
Y33909D02*
D03*
X83372Y22987D02*
D03*
Y26187D02*
D03*
X80330Y25390D02*
D03*
Y28590D02*
D03*
X80391Y33952D02*
D03*
Y30752D02*
D03*
X16277Y31293D02*
D03*
Y28093D02*
D03*
X14148Y17145D02*
D03*
Y20345D02*
D03*
X20989Y11929D02*
D03*
Y15129D02*
D03*
X15959Y3877D02*
D03*
Y7077D02*
D03*
X10379Y38227D02*
D03*
Y35027D02*
D03*
X80391Y38651D02*
D03*
Y35451D02*
D03*
Y43223D02*
D03*
Y40023D02*
D03*
X17339Y43285D02*
D03*
Y46485D02*
D03*
D15*
X70002Y47542D02*
D03*
Y40742D02*
D03*
D19*
X13516Y4027D02*
D03*
Y6877D02*
D03*
X14951Y43491D02*
D03*
Y46341D02*
D03*
D20*
X22294Y8745D02*
D03*
Y6745D02*
D03*
X20541Y6685D02*
D03*
Y8685D02*
D03*
X7341Y6636D02*
D03*
Y8636D02*
D03*
X9119Y8661D02*
D03*
Y6661D02*
D03*
X9118Y5064D02*
D03*
Y3064D02*
D03*
X7391Y3038D02*
D03*
Y5038D02*
D03*
X20541Y2961D02*
D03*
Y4961D02*
D03*
X22295Y5012D02*
D03*
Y3012D02*
D03*
X10547Y43522D02*
D03*
Y41522D02*
D03*
X24002Y43646D02*
D03*
Y41646D02*
D03*
X8743Y45132D02*
D03*
Y47132D02*
D03*
X23952Y47256D02*
D03*
Y45256D02*
D03*
X22143D02*
D03*
Y47256D02*
D03*
X22198Y41563D02*
D03*
Y43563D02*
D03*
X8743Y41497D02*
D03*
Y43497D02*
D03*
X10547Y47133D02*
D03*
Y45133D02*
D03*
D23*
X84575Y2480D02*
X86919D01*
X85125Y4770D02*
X85731Y4164D01*
Y3749D02*
X85750Y3730D01*
X85125Y4770D02*
Y4770D01*
X84875Y5020D02*
X85125Y4770D01*
X85731Y3749D02*
Y4164D01*
X84575Y5020D02*
X84875D01*
X84531Y5124D02*
X84575Y5080D01*
X83319Y5124D02*
X84531D01*
X90249Y18023D02*
X93892Y21666D01*
X90249Y14629D02*
Y18023D01*
X88000Y12380D02*
X90249Y14629D01*
X74482Y13837D02*
X75125Y14480D01*
X74371Y13818D02*
X74390Y13837D01*
X74482D01*
X75125Y14480D02*
X75425D01*
X6421Y21998D02*
X6466Y22044D01*
Y23925D01*
X6421Y21971D02*
Y21998D01*
X73939Y8730D02*
X75425D01*
X24260Y2986D02*
X25349Y4075D01*
X22320Y2986D02*
X24260D01*
X25349Y4075D02*
Y10846D01*
X73000Y1718D02*
Y1726D01*
X73754Y2480D01*
X69240Y5150D02*
X69370Y5020D01*
X75425D01*
X73754Y2480D02*
X75425D01*
X84825Y8980D02*
X85188D01*
X86208Y10000D02*
Y10588D01*
X85188Y8980D02*
X86208Y10000D01*
X86275Y14920D02*
X88000D01*
X85835Y14480D02*
X86275Y14920D01*
X84575Y14480D02*
X85835D01*
X84575Y8730D02*
X84825Y8980D01*
X86208Y10588D02*
X88000Y12380D01*
X82855Y16459D02*
X83318Y16922D01*
X84477D02*
X84575Y17020D01*
X82855Y11270D02*
Y16459D01*
X83318Y16922D02*
X84477D01*
X82855Y5588D02*
X83319Y5124D01*
X82855Y5588D02*
Y11270D01*
X84575D01*
X77470D02*
Y16481D01*
Y5886D02*
Y11270D01*
X75425D02*
X77470D01*
X76931Y17020D02*
X77470Y16481D01*
X76604Y5020D02*
X77470Y5886D01*
X75425Y5020D02*
X76604D01*
X75425Y17020D02*
X76931D01*
X10854Y11495D02*
X10916Y11557D01*
X51250Y43731D02*
X52251Y42730D01*
X54273D02*
X55540Y41463D01*
X52251Y42730D02*
X54273D01*
X69291Y41767D02*
Y42460D01*
X69002Y41478D02*
X69291Y41767D01*
X69446Y41972D02*
X70002Y41416D01*
X63178Y41478D02*
X69002D01*
X44856Y38049D02*
X48235Y41427D01*
X53507D01*
X55540Y41460D02*
Y41463D01*
X46242Y43731D02*
X51250D01*
X45843Y46906D02*
X60574D01*
X45796Y46952D02*
X45843Y46906D01*
X60620Y44628D02*
Y46859D01*
X60574Y46906D02*
X60620Y46859D01*
X45771Y46928D02*
X45796Y46952D01*
X68629Y30199D02*
X74981Y36551D01*
Y41554D01*
X65407Y30199D02*
X68629D01*
X80691Y43223D02*
X81623Y42291D01*
X80391Y43223D02*
X80691D01*
X81623Y42291D02*
X81636D01*
X65380Y30226D02*
X65407Y30199D01*
X42627Y39080D02*
Y39139D01*
X42621Y39145D02*
X42627Y39139D01*
X42621Y31560D02*
Y39074D01*
X42627Y39080D01*
X42621Y16945D02*
Y31560D01*
X33029Y27970D02*
Y31936D01*
X33020Y31945D02*
X33029Y31936D01*
X33182Y22258D02*
Y27961D01*
X44298Y45675D02*
X46242Y43731D01*
X70002Y40742D02*
Y41416D01*
X74981Y41554D02*
X76472Y43046D01*
X77463D01*
X77648Y43231D01*
X42634Y39182D02*
Y46890D01*
Y39182D02*
X42646Y39170D01*
X42621Y46903D02*
X42634Y46890D01*
X38583Y41885D02*
X38588Y41879D01*
Y26828D02*
Y41879D01*
X8282Y41347D02*
X8593D01*
X8743Y41497D01*
X6756Y39822D02*
X8282Y41347D01*
X9703Y47301D02*
X9872Y47132D01*
X9703Y47301D02*
Y49078D01*
X18440Y1346D02*
Y2961D01*
X42646Y46928D02*
X45771D01*
X42621Y46903D02*
X42646Y46928D01*
X36627Y14275D02*
Y29318D01*
X37620Y13106D02*
Y28169D01*
X38583Y11887D02*
Y26811D01*
X25349Y10846D02*
X27635Y13132D01*
X28869D01*
X37620Y28169D02*
Y43135D01*
X41247Y7964D02*
Y24349D01*
X41237Y7955D02*
X41247Y7964D01*
Y24349D02*
X41257Y24359D01*
X41253Y24362D02*
X41257Y24359D01*
X41250Y39345D02*
X41253Y39341D01*
Y24362D02*
Y39341D01*
X10109Y12548D02*
X10113D01*
X10916Y11745D01*
Y11557D02*
Y11745D01*
X23989Y47106D02*
X24611D01*
X28626Y43091D01*
X23890Y47205D02*
X23989Y47106D01*
X23694Y41595D02*
X23745Y41646D01*
X25440D02*
X26746Y42951D01*
X23745Y41646D02*
X25440D01*
X33029Y27970D02*
X33038Y27961D01*
X22295Y3012D02*
X22320Y2986D01*
X21793D02*
X22295D01*
X20989Y11980D02*
X22724D01*
X26307Y15563D01*
X28869D01*
X20989Y11980D02*
X21039Y11929D01*
X32984Y22060D02*
X33260Y21785D01*
X33934D01*
X31534Y25981D02*
Y26073D01*
X30588Y27020D02*
Y27561D01*
Y27020D02*
X31534Y26073D01*
X29924Y25806D02*
X31709D01*
X31534Y25981D02*
X31709Y25806D01*
X30188Y27961D02*
X30588Y27561D01*
X28442Y24325D02*
X29924Y25806D01*
X29853Y24169D02*
X31736D01*
X28697Y23012D02*
X29853Y24169D01*
X30134Y22310D02*
X31561Y23738D01*
Y23994D02*
X31736Y24169D01*
X30134Y22060D02*
Y22310D01*
X31561Y23738D02*
Y23994D01*
X32984Y22060D02*
X33182Y22258D01*
X36646Y29337D02*
X36659Y29351D01*
Y44364D01*
X36673Y44378D01*
X38588Y26828D02*
X38594Y26822D01*
X20989Y15129D02*
X21224Y15364D01*
X16277Y28093D02*
X16278Y28092D01*
X23952Y45256D02*
X23977Y45231D01*
Y43670D02*
X24002Y43646D01*
X22143Y45256D02*
X22171Y45228D01*
Y43590D02*
X22198Y43563D01*
X22499Y28041D02*
X22500Y28040D01*
X15793Y17450D02*
X16043Y17200D01*
Y17170D02*
Y17200D01*
D24*
X82628Y26087D02*
X83272D01*
X83372Y26187D01*
X82031Y25490D02*
X82628Y26087D01*
X14199Y20396D02*
X14248Y20445D01*
X14148Y20345D02*
X14199Y20396D01*
X14497D01*
X9968D02*
X14199D01*
X83372Y21091D02*
Y22813D01*
X83471Y22913D02*
X83728D01*
X83312Y21031D02*
X83372Y21091D01*
Y22813D02*
X83471Y22913D01*
X80430Y25490D02*
X82031D01*
X80330Y25390D02*
X80430Y25490D01*
X10854Y9084D02*
Y11495D01*
X7341Y8636D02*
X10604D01*
X14982Y20445D02*
X15009Y20472D01*
X22448D01*
X14248Y20445D02*
X14982D01*
X9238Y19666D02*
X9968Y20396D01*
X9149Y19666D02*
X9238D01*
X19916Y34064D02*
Y36374D01*
X20396Y36854D01*
X17196Y38582D02*
Y43142D01*
Y38282D02*
Y38582D01*
X20396Y36854D02*
Y38582D01*
X20354D02*
Y40969D01*
X18440Y2961D02*
X20541D01*
X17176D02*
X18440D01*
X17734Y37744D02*
X17780D01*
X17196Y38282D02*
X17734Y37744D01*
X15629Y10966D02*
X15908Y11245D01*
X13985Y7207D02*
Y9015D01*
X16099Y7036D02*
X17678D01*
X13754Y6977D02*
X13985Y7207D01*
X13716Y7077D02*
X15959D01*
X15729D02*
X15959D01*
X15908Y11245D02*
Y11495D01*
X15629Y9084D02*
Y10966D01*
X13985Y9015D02*
X14054Y9084D01*
X20541Y8745D02*
X22294D01*
X19079D02*
X20541D01*
X13516Y6877D02*
X13716Y7077D01*
X12423Y39688D02*
Y41002D01*
Y38619D02*
Y39688D01*
X15877Y31393D02*
X16177D01*
X14010Y32703D02*
X14567D01*
X15877Y31393D01*
X16177D02*
X16277Y31293D01*
Y28041D02*
X22499D01*
X14783Y28042D02*
X16228D01*
X20566Y2986D02*
X21793D01*
X19158Y11929D02*
X20989D01*
X77648Y38658D02*
Y40031D01*
Y33909D02*
Y35458D01*
X80391Y38651D02*
Y40023D01*
Y33901D02*
Y35451D01*
X22171Y43590D02*
Y45228D01*
X23977Y43670D02*
Y45231D01*
X19343Y16770D02*
Y17070D01*
X19243Y17170D02*
X19343Y17070D01*
X20589Y15229D02*
Y15525D01*
X19343Y16770D02*
X20589Y15525D01*
Y15229D02*
X20679Y15138D01*
X21031D01*
X16228Y28042D02*
X16278Y28092D01*
X15629Y7177D02*
Y9084D01*
X15309Y41039D02*
X15519Y40829D01*
X15054Y41294D02*
X15309Y41039D01*
X13910Y32803D02*
X14010Y32703D01*
X22198Y41563D02*
X23694D01*
X23777Y41646D02*
X24002D01*
X23694Y41563D02*
X23777Y41646D01*
X20296Y41272D02*
X20546Y41522D01*
X21933D02*
X21973Y41563D01*
X20546Y41522D02*
X21933D01*
X21973Y41563D02*
X22158D01*
X20296Y41027D02*
X20354Y40969D01*
X15519Y38649D02*
X15586Y38582D01*
X15519Y38649D02*
Y40829D01*
X14951Y43491D02*
X15054Y43388D01*
Y41294D02*
Y43388D01*
X17196Y43142D02*
X17339Y43285D01*
X15054Y43388D02*
X17236D01*
X17339Y43285D01*
X10710Y33103D02*
Y34696D01*
X10379Y35027D02*
X10710Y34696D01*
X10479Y38327D02*
X12286D01*
X12386Y38427D02*
Y38582D01*
X12286Y38327D02*
X12386Y38427D01*
X10379Y38227D02*
X10479Y38327D01*
X12423Y41002D02*
X12459Y41039D01*
X12386Y38582D02*
X12423Y38619D01*
X12209Y41522D02*
X12459Y41272D01*
X10547Y41522D02*
X12209D01*
X12459Y41039D02*
Y41272D01*
X10297Y41497D02*
X10322Y41522D01*
X8743Y41497D02*
X10297D01*
X10322Y41522D02*
X10547D01*
X10547Y43522D02*
X10547D01*
X10547D02*
Y45133D01*
X8743Y43497D02*
Y45132D01*
X14160Y17158D02*
X15943D01*
X15992Y17207D02*
Y17221D01*
X14148Y17145D02*
X14160Y17158D01*
X15943D02*
X15992Y17207D01*
X13766Y11495D02*
X13995Y11265D01*
Y9143D02*
X14054Y9084D01*
X13995Y9143D02*
Y11265D01*
X15629Y7177D02*
X15729Y7077D01*
X13766Y11495D02*
X15908D01*
X18829Y8995D02*
X19079Y8745D01*
X18829Y8995D02*
Y9084D01*
X18794Y9120D02*
Y11459D01*
X18758Y11495D02*
X18794Y11459D01*
Y9120D02*
X18829Y9084D01*
X18758Y11495D02*
Y11529D01*
X19158Y11929D01*
X15908Y11495D02*
X15908Y11495D01*
X22294Y6661D02*
X22295Y6661D01*
Y5012D02*
Y6661D01*
X20541Y4961D02*
Y6685D01*
X10604Y8636D02*
X10854Y8886D01*
Y9084D01*
X16259Y3877D02*
X17176Y2961D01*
X15959Y3877D02*
X16259D01*
X7391Y3038D02*
X12277D01*
X13266Y4027D01*
X13516D01*
X7366Y5064D02*
Y6610D01*
Y5064D02*
X7391Y5038D01*
X7341Y6636D02*
X7366Y6610D01*
X9118Y5064D02*
Y6661D01*
X9118Y5064D02*
X9118Y5064D01*
Y6661D02*
X9119Y6661D01*
X13516Y4027D02*
X13665Y3877D01*
X15959D01*
X20541Y2961D02*
X20566Y2986D01*
D25*
X9666Y23925D02*
X11202D01*
X15794Y23571D02*
X16386D01*
X14402Y23733D02*
X15631D01*
X15794Y23571D01*
X14402Y23733D02*
Y23925D01*
X54010Y8055D02*
Y22520D01*
X69240Y2580D02*
Y5150D01*
X69210Y8000D02*
X69401Y8191D01*
Y8898D02*
X69418Y8915D01*
Y26975D02*
X73023Y30580D01*
X69401Y8191D02*
Y8898D01*
X69418Y8915D02*
Y26975D01*
X69240Y5150D02*
Y7970D01*
X79528Y20447D02*
X79812Y20731D01*
X80112D02*
Y21031D01*
X78220Y20447D02*
X79528D01*
X79812Y20731D02*
X80112D01*
X77648Y30709D02*
X80048D01*
X80091Y30752D01*
X73023Y30580D02*
X74500D01*
X77648D01*
X80091Y30752D02*
X80518D01*
X48500Y25500D02*
X51030D01*
X54010Y22520D01*
X80330Y28590D02*
Y30597D01*
D27*
X95010Y40914D02*
Y42438D01*
X94249Y41676D01*
X95264D01*
D28*
X88000Y20000D02*
D03*
Y17460D02*
D03*
Y14920D02*
D03*
Y12380D02*
D03*
Y9840D02*
D03*
X53000Y44000D02*
D03*
X55540D02*
D03*
X58080D02*
D03*
X60620D02*
D03*
X63160D02*
D03*
X53000Y41460D02*
D03*
X55540D02*
D03*
X58080D02*
D03*
X60620D02*
D03*
X63160D02*
D03*
X22500Y20420D02*
D03*
Y22960D02*
D03*
Y25500D02*
D03*
Y28040D02*
D03*
Y30580D02*
D03*
X48500Y20420D02*
D03*
Y22960D02*
D03*
Y25500D02*
D03*
Y28040D02*
D03*
Y30580D02*
D03*
X74500Y20420D02*
D03*
Y22960D02*
D03*
Y25500D02*
D03*
Y28040D02*
D03*
Y30580D02*
D03*
X13665Y29108D02*
D03*
X17457Y35595D02*
D03*
X20045Y30714D02*
D03*
X86657Y23851D02*
D03*
X77470Y25552D02*
D03*
X9119Y19710D02*
D03*
X20015Y22860D02*
D03*
X54045Y11465D02*
D03*
X59673Y35983D02*
D03*
X13503Y49608D02*
D03*
X6756Y39822D02*
D03*
X9703Y49078D02*
D03*
X18466Y49327D02*
D03*
X24130Y34544D02*
D03*
X19916Y34064D02*
D03*
X88986Y29632D02*
D03*
X71984Y17094D02*
D03*
X58858Y28298D02*
D03*
X26604Y25595D02*
D03*
X26441Y19990D02*
D03*
X45466D02*
D03*
X26619Y29405D02*
D03*
X23890Y49682D02*
D03*
X69210Y2821D02*
D03*
X3353Y8331D02*
D03*
X24302Y13558D02*
D03*
X18440Y1346D02*
D03*
X11862Y14667D02*
D03*
X27349Y5162D02*
D03*
X78220Y20447D02*
D03*
X66903Y36000D02*
D03*
X45796Y46952D02*
D03*
D29*
X61610Y36000D02*
D03*
X69210D02*
D03*
X54010Y8000D02*
D03*
X69210D02*
D03*
D30*
X85369Y49632D02*
D03*
X73939Y8730D02*
D03*
X86919Y2480D02*
D03*
X85750Y3730D02*
D03*
X93892Y21666D02*
D03*
X74371Y13818D02*
D03*
X6421Y21971D02*
D03*
X57379Y11921D02*
D03*
X3574Y20396D02*
D03*
X73000Y1718D02*
D03*
X69291Y42460D02*
D03*
X42646Y39170D02*
D03*
X44298Y45675D02*
D03*
D31*
X46327Y41865D02*
D03*
X60620Y46859D02*
D03*
X82396Y32134D02*
D03*
X81636Y42291D02*
D03*
X65380Y30226D02*
D03*
X33020Y31945D02*
D03*
X42621Y31560D02*
D03*
X70612Y48870D02*
D03*
X38583Y41885D02*
D03*
X87670Y29657D02*
D03*
X17780Y37744D02*
D03*
X17678Y7036D02*
D03*
X28869Y13132D02*
D03*
Y14402D02*
D03*
X31852Y11887D02*
D03*
X41237Y7955D02*
D03*
X41250Y39345D02*
D03*
X41257Y24359D02*
D03*
X42360Y10146D02*
D03*
X10109Y12548D02*
D03*
X28550Y26848D02*
D03*
X28778Y10592D02*
D03*
X11582Y6807D02*
D03*
X28550Y28135D02*
D03*
X66056Y20559D02*
D03*
X31648Y30675D02*
D03*
X63313Y23785D02*
D03*
X26746Y42951D02*
D03*
X12423Y39688D02*
D03*
X14567Y47955D02*
D03*
X31648Y41885D02*
D03*
X31547Y40595D02*
D03*
X44856Y38049D02*
D03*
X28869Y15563D02*
D03*
X28653Y45640D02*
D03*
X33934Y21785D02*
D03*
X28442Y24325D02*
D03*
X28697Y23012D02*
D03*
X36673Y44378D02*
D03*
X36646Y29337D02*
D03*
X36627Y14275D02*
D03*
X37620Y43135D02*
D03*
Y28169D02*
D03*
Y13106D02*
D03*
X38594Y26822D02*
D03*
X38583Y11887D02*
D03*
X28626Y43091D02*
D03*
X14783Y28042D02*
D03*
X42636Y16945D02*
D03*
X42621Y46903D02*
D03*
D32*
X9872Y47132D02*
X10547D01*
X8743D02*
X9872D01*
X22143Y47256D02*
X23952D01*
X19671D02*
X22143D01*
X17339Y46485D02*
X17411Y46413D01*
X18829D01*
X19671Y47256D01*
X10547Y47133D02*
X12329D01*
X13120Y46341D02*
X14951D01*
X12329Y47133D02*
X13120Y46341D01*
X15023Y46413D02*
X17267D01*
X14951Y46341D02*
X15023Y46413D01*
X17267D02*
X17339Y46485D01*
X8743Y47132D02*
X8743Y47132D01*
X10547D02*
X10547Y47133D01*
%TF.MD5,1eb9f4ac3d62439162e39dcfb371fe02*%
M02*
