%TF.GenerationSoftware,Altium Limited,Altium Designer,21.6.4 (81)*%
G04 Layer_Color=8388736*
%FSLAX43Y43*%
%MOMM*%
%TF.SameCoordinates,F87848A5-9C76-4C60-8026-6C1C3CCCB256*%
%TF.FilePolarity,Negative*%
%TF.FileFunction,Soldermask,Top*%
%TF.Part,Single*%
G01*
G75*
%TA.AperFunction,NonConductor*%
%ADD35R,8.204X2.515*%
%TA.AperFunction,SMDPad,CuDef*%
%ADD36R,1.020X1.620*%
%ADD37R,1.620X1.020*%
%ADD38R,2.520X4.470*%
%ADD39R,1.320X1.820*%
%ADD40R,0.870X0.920*%
%ADD41R,1.280X0.830*%
%ADD42R,1.820X1.320*%
%TA.AperFunction,ComponentPad*%
%ADD43C,1.520*%
%ADD44C,2.020*%
%ADD45C,1.703*%
%TA.AperFunction,SMDPad,CuDef*%
%ADD46R,0.830X1.280*%
%ADD47R,0.920X0.870*%
%ADD48R,1.920X0.970*%
%ADD49R,1.920X3.270*%
%ADD50R,1.820X0.820*%
%ADD51R,1.820X5.520*%
D35*
X91742Y41627D02*
D03*
D36*
X71145Y11860D02*
D03*
X67945D02*
D03*
X79603Y14732D02*
D03*
X76403D02*
D03*
X8597Y29005D02*
D03*
X11797D02*
D03*
X66406Y11860D02*
D03*
X63206D02*
D03*
X61603Y11871D02*
D03*
X58403D02*
D03*
X3519Y29005D02*
D03*
X6719D02*
D03*
X58938Y23658D02*
D03*
X62138D02*
D03*
X11648Y8433D02*
D03*
X8448D02*
D03*
X9490Y45575D02*
D03*
X12690D02*
D03*
D37*
X3574Y23465D02*
D03*
Y26665D02*
D03*
X84575Y6270D02*
D03*
X75425Y3730D02*
D03*
X84575D02*
D03*
X75425Y6270D02*
D03*
X61603Y2800D02*
D03*
Y6000D02*
D03*
X54045Y5918D02*
D03*
Y2718D02*
D03*
X57717Y5971D02*
D03*
Y2771D02*
D03*
X86470Y28811D02*
D03*
Y25611D02*
D03*
X13958Y20419D02*
D03*
Y17219D02*
D03*
X80095Y28702D02*
D03*
Y25502D02*
D03*
X14563Y36888D02*
D03*
Y33688D02*
D03*
X64902Y28559D02*
D03*
Y25359D02*
D03*
X64871Y20575D02*
D03*
Y23775D02*
D03*
X81596Y15021D02*
D03*
Y18221D02*
D03*
X81621Y19789D02*
D03*
Y22989D02*
D03*
D38*
X76378Y40790D02*
D03*
Y47590D02*
D03*
D39*
X16738Y14663D02*
D03*
X13888D02*
D03*
X17413Y45534D02*
D03*
X14563D02*
D03*
X17341Y39021D02*
D03*
X14491D02*
D03*
X59068Y25944D02*
D03*
X61918D02*
D03*
X13786Y8287D02*
D03*
X16636D02*
D03*
D40*
X93951Y25625D02*
D03*
X95501D02*
D03*
X93944Y24036D02*
D03*
X95494D02*
D03*
X93967Y22454D02*
D03*
X95517D02*
D03*
X93951Y27203D02*
D03*
X95501D02*
D03*
D41*
X13646Y12574D02*
D03*
Y10574D02*
D03*
X11791Y10488D02*
D03*
Y12488D02*
D03*
X12741Y41374D02*
D03*
Y43374D02*
D03*
X14493D02*
D03*
Y41374D02*
D03*
D42*
X25241Y9620D02*
D03*
Y6770D02*
D03*
X86470Y30709D02*
D03*
Y33559D02*
D03*
X25477Y40449D02*
D03*
Y37599D02*
D03*
X20999Y6796D02*
D03*
Y9646D02*
D03*
X21269Y40472D02*
D03*
Y37622D02*
D03*
X26416Y35113D02*
D03*
Y32263D02*
D03*
X26122Y48153D02*
D03*
Y45303D02*
D03*
X26399Y18011D02*
D03*
Y15161D02*
D03*
X80095Y30582D02*
D03*
Y33432D02*
D03*
X67341Y28462D02*
D03*
Y25612D02*
D03*
X67309Y20649D02*
D03*
Y23499D02*
D03*
D43*
X88000Y20000D02*
D03*
Y17460D02*
D03*
Y14920D02*
D03*
Y12380D02*
D03*
Y9840D02*
D03*
X53000Y44000D02*
D03*
X55540D02*
D03*
X58080D02*
D03*
X60620D02*
D03*
X63160D02*
D03*
X53000Y41460D02*
D03*
X55540D02*
D03*
X58080D02*
D03*
X60620D02*
D03*
X63160D02*
D03*
X22500Y20420D02*
D03*
Y22960D02*
D03*
Y25500D02*
D03*
Y28040D02*
D03*
Y30580D02*
D03*
X48500Y20420D02*
D03*
Y22960D02*
D03*
Y25500D02*
D03*
Y28040D02*
D03*
Y30580D02*
D03*
X74500Y20420D02*
D03*
Y22960D02*
D03*
Y25500D02*
D03*
Y28040D02*
D03*
Y30580D02*
D03*
D44*
X61610Y36000D02*
D03*
X69210D02*
D03*
X54010Y8000D02*
D03*
X69210D02*
D03*
D45*
X13665Y29108D02*
D03*
X17457Y35595D02*
D03*
X20045Y30714D02*
D03*
X86657Y23851D02*
D03*
X77470Y25552D02*
D03*
X9119Y19710D02*
D03*
X20015Y22860D02*
D03*
X54045Y11465D02*
D03*
X59673Y35983D02*
D03*
X13503Y49608D02*
D03*
X6756Y39822D02*
D03*
X9703Y49078D02*
D03*
X18466Y49327D02*
D03*
X24130Y34544D02*
D03*
X19916Y34064D02*
D03*
X88986Y29632D02*
D03*
X71984Y17094D02*
D03*
X58858Y28298D02*
D03*
X26604Y25595D02*
D03*
X26441Y19990D02*
D03*
X45466D02*
D03*
X26619Y29405D02*
D03*
X23890Y49682D02*
D03*
X69210Y2821D02*
D03*
X3353Y8331D02*
D03*
X24302Y13558D02*
D03*
X18440Y1346D02*
D03*
X11862Y14667D02*
D03*
X27349Y5162D02*
D03*
X78220Y20447D02*
D03*
X66903Y36000D02*
D03*
X45796Y46952D02*
D03*
D46*
X64507Y30259D02*
D03*
X62507D02*
D03*
X64549Y17181D02*
D03*
X62549D02*
D03*
X60826D02*
D03*
X58826D02*
D03*
X62498Y18908D02*
D03*
X64498D02*
D03*
X58790D02*
D03*
X60790D02*
D03*
X58884Y31954D02*
D03*
X60884D02*
D03*
X84223Y30581D02*
D03*
X82223D02*
D03*
X82261Y28812D02*
D03*
X84261D02*
D03*
X58884Y30216D02*
D03*
X60884D02*
D03*
X64498Y31954D02*
D03*
X62498D02*
D03*
D47*
X70587Y47409D02*
D03*
Y45859D02*
D03*
X70663Y41592D02*
D03*
Y43142D02*
D03*
X42360Y10796D02*
D03*
Y12346D02*
D03*
X42697Y41370D02*
D03*
Y39820D02*
D03*
X27349Y6791D02*
D03*
Y8341D02*
D03*
X23133Y6801D02*
D03*
Y8351D02*
D03*
X41961Y16929D02*
D03*
Y18479D02*
D03*
X41891Y31864D02*
D03*
Y33414D02*
D03*
Y46903D02*
D03*
Y48453D02*
D03*
X27568Y38844D02*
D03*
Y37294D02*
D03*
X23377Y38869D02*
D03*
Y37319D02*
D03*
X28309Y33590D02*
D03*
Y32040D02*
D03*
X28194Y48453D02*
D03*
Y46903D02*
D03*
X28267Y18225D02*
D03*
Y16675D02*
D03*
X42360Y8026D02*
D03*
Y9576D02*
D03*
D48*
X82675Y49671D02*
D03*
Y47371D02*
D03*
Y45071D02*
D03*
D49*
X88775Y47371D02*
D03*
D50*
X39800Y18215D02*
D03*
Y16945D02*
D03*
Y15675D02*
D03*
Y14405D02*
D03*
Y11865D02*
D03*
Y13135D02*
D03*
Y8055D02*
D03*
Y6785D02*
D03*
Y9325D02*
D03*
Y10595D02*
D03*
X30200Y18215D02*
D03*
Y16945D02*
D03*
Y15675D02*
D03*
Y14405D02*
D03*
Y11865D02*
D03*
Y13135D02*
D03*
Y8055D02*
D03*
Y6785D02*
D03*
Y9325D02*
D03*
Y10595D02*
D03*
X39800Y48215D02*
D03*
Y46945D02*
D03*
Y45675D02*
D03*
Y44405D02*
D03*
Y41865D02*
D03*
Y43135D02*
D03*
Y38055D02*
D03*
Y36785D02*
D03*
Y39325D02*
D03*
Y40595D02*
D03*
X30200Y48215D02*
D03*
Y46945D02*
D03*
Y45675D02*
D03*
Y44405D02*
D03*
Y41865D02*
D03*
Y43135D02*
D03*
Y38055D02*
D03*
Y36785D02*
D03*
Y39325D02*
D03*
Y40595D02*
D03*
Y25595D02*
D03*
Y24325D02*
D03*
Y21785D02*
D03*
Y23055D02*
D03*
Y28135D02*
D03*
Y26865D02*
D03*
Y29405D02*
D03*
Y30675D02*
D03*
Y31945D02*
D03*
Y33215D02*
D03*
X39800Y25595D02*
D03*
Y24325D02*
D03*
Y21785D02*
D03*
Y23055D02*
D03*
Y28135D02*
D03*
Y26865D02*
D03*
Y29405D02*
D03*
Y30675D02*
D03*
Y31945D02*
D03*
Y33215D02*
D03*
D51*
X45644Y14321D02*
D03*
X45644Y5821D02*
D03*
%TF.MD5,1144d669fa2daaa757d151593da651d0*%
M02*
