%TF.GenerationSoftware,Altium Limited,Altium Designer,21.6.4 (81)*%
G04 Layer_Color=16711935*
%FSLAX43Y43*%
%MOMM*%
%TF.SameCoordinates,100B324C-8CEB-4A13-B8D1-7C84912F4746*%
%TF.FilePolarity,Positive*%
%TF.FileFunction,Other,Top_Courtyard*%
%TF.Part,Single*%
G01*
G75*
%TA.AperFunction,NonConductor*%
%ADD77C,0.200*%
%ADD154C,0.050*%
D77*
X87086Y8044D02*
Y16594D01*
X88986D01*
Y8044D02*
Y16594D01*
X87086Y8044D02*
X88986D01*
D154*
X31153Y819D02*
Y9219D01*
X39053D01*
Y819D02*
Y9219D01*
X31153Y819D02*
X39053D01*
X34603Y5019D02*
X35603D01*
X35103Y4519D02*
Y5519D01*
X81077Y11667D02*
Y12667D01*
X80577Y12167D02*
X81577D01*
X77127Y16367D02*
X85027D01*
X77127Y7967D02*
Y16367D01*
Y7967D02*
X85027D01*
Y16367D01*
X1300Y28471D02*
X10700D01*
X1300Y16871D02*
Y28471D01*
Y16871D02*
X10700D01*
Y28471D01*
X1300Y38475D02*
X10700D01*
X1300Y26875D02*
Y38475D01*
Y26875D02*
X10700D01*
Y38475D01*
X80034Y31197D02*
Y42797D01*
X89434D01*
Y31197D02*
Y42797D01*
X80034Y31197D02*
X89434D01*
X80034Y21215D02*
Y32815D01*
X89434D01*
Y21215D02*
Y32815D01*
X80034Y21215D02*
X89434D01*
%TF.MD5,d6d99054eb7e54575397c5ec620b382b*%
M02*
