%TF.GenerationSoftware,Altium Limited,Altium Designer,21.6.4 (81)*%
G04 Layer_Color=255*
%FSLAX43Y43*%
%MOMM*%
%TF.SameCoordinates,100B324C-8CEB-4A13-B8D1-7C84912F4746*%
%TF.FilePolarity,Positive*%
%TF.FileFunction,Pads,Bot*%
%TF.Part,Single*%
G01*
G75*
%TA.AperFunction,ComponentPad*%
%ADD29C,2.000*%
%TA.AperFunction,TestPad*%
%ADD30C,2.000*%
%ADD31C,2.286*%
%TA.AperFunction,ComponentPad*%
%ADD32C,3.000*%
%TA.AperFunction,TestPad*%
%ADD33C,1.524*%
%TA.AperFunction,ComponentPad*%
%ADD34C,2.286*%
%ADD35O,3.000X3.100*%
%TA.AperFunction,TestPad*%
G04:AMPARAMS|DCode=36|XSize=1.95mm|YSize=1.95mm|CornerRadius=0.488mm|HoleSize=0mm|Usage=FLASHONLY|Rotation=270.000|XOffset=0mm|YOffset=0mm|HoleType=Round|Shape=RoundedRectangle|*
%AMROUNDEDRECTD36*
21,1,1.950,0.975,0,0,270.0*
21,1,0.975,1.950,0,0,270.0*
1,1,0.975,-0.488,-0.488*
1,1,0.975,-0.488,0.488*
1,1,0.975,0.488,0.488*
1,1,0.975,0.488,-0.488*
%
%ADD36ROUNDEDRECTD36*%
%ADD37C,1.950*%
%ADD38O,2.286X1.778*%
%ADD39C,4.572*%
%TA.AperFunction,ComponentPad*%
%ADD40C,2.794*%
%ADD41O,2.286X1.778*%
%TA.AperFunction,TestPad*%
%ADD42R,1.200X1.200*%
%ADD43C,1.200*%
%ADD44R,1.250X1.250*%
%ADD45C,1.250*%
%TA.AperFunction,SMDPad,CuDef*%
%ADD49R,0.800X0.900*%
%ADD50R,0.800X1.250*%
%ADD51R,0.600X1.500*%
%ADD52R,2.200X2.500*%
%ADD53R,1.250X0.800*%
%TA.AperFunction,TestPad*%
%ADD54R,2.000X2.300*%
%TA.AperFunction,SMDPad,CuDef*%
%ADD55R,2.300X2.000*%
%ADD56R,1.800X1.450*%
%ADD57R,1.600X1.000*%
%TA.AperFunction,ConnectorPad*%
%ADD58R,3.250X1.900*%
%ADD59R,0.950X1.900*%
%TA.AperFunction,SMDPad,CuDef*%
%ADD60R,0.543X1.874*%
G04:AMPARAMS|DCode=61|XSize=1.874mm|YSize=0.543mm|CornerRadius=0.272mm|HoleSize=0mm|Usage=FLASHONLY|Rotation=90.000|XOffset=0mm|YOffset=0mm|HoleType=Round|Shape=RoundedRectangle|*
%AMROUNDEDRECTD61*
21,1,1.874,0.000,0,0,90.0*
21,1,1.331,0.543,0,0,90.0*
1,1,0.543,0.000,0.665*
1,1,0.543,0.000,-0.665*
1,1,0.543,0.000,-0.665*
1,1,0.543,0.000,0.665*
%
%ADD61ROUNDEDRECTD61*%
%ADD62R,1.556X1.505*%
%ADD63R,1.207X1.508*%
%ADD64R,2.000X2.300*%
%ADD65R,1.505X1.556*%
D29*
X28194Y10693D02*
D03*
X24194D02*
D03*
X29486Y22384D02*
D03*
X24486D02*
D03*
X17868Y10744D02*
D03*
X13868D02*
D03*
X7417Y10947D02*
D03*
X3417D02*
D03*
X24486Y35738D02*
D03*
X29486D02*
D03*
D30*
X67500Y10500D02*
D03*
X72500D02*
D03*
Y24000D02*
D03*
X67500D02*
D03*
D31*
X61722Y12294D02*
D03*
X47158Y28198D02*
D03*
X42062Y17404D02*
D03*
X48946Y11049D02*
D03*
X52603Y16789D02*
D03*
X3226Y44475D02*
D03*
X32741Y13792D02*
D03*
X49454Y21311D02*
D03*
X78613Y5159D02*
D03*
X64237Y1614D02*
D03*
X74371Y39065D02*
D03*
X8382Y4695D02*
D03*
X3293Y41097D02*
D03*
X61747Y18236D02*
D03*
X43025Y1602D02*
D03*
D32*
X37059Y17811D02*
D03*
X37109Y37786D02*
D03*
D33*
X11693Y19694D02*
D03*
X19193Y19669D02*
D03*
X53061Y28423D02*
D03*
X60561Y28398D02*
D03*
D34*
X50241Y53111D02*
D03*
X43580Y53238D02*
D03*
X42674Y36624D02*
D03*
X61722Y15265D02*
D03*
D35*
X42570Y21788D02*
D03*
Y33788D02*
D03*
X17678Y24886D02*
D03*
Y36886D02*
D03*
X13335Y36963D02*
D03*
Y24963D02*
D03*
D36*
X5500Y25171D02*
D03*
X5500Y35175D02*
D03*
X85234Y34497D02*
D03*
X85234Y24515D02*
D03*
D37*
X5500Y20171D02*
D03*
X5500Y30175D02*
D03*
X85234Y39497D02*
D03*
X85234Y29515D02*
D03*
D38*
X43557Y51232D02*
D03*
Y48692D02*
D03*
Y46152D02*
D03*
D39*
X23364Y48692D02*
D03*
D40*
X15037Y47015D02*
D03*
D41*
X8687Y44475D02*
D03*
Y47015D02*
D03*
Y49555D02*
D03*
D42*
X60286Y3119D02*
D03*
D43*
Y5659D02*
D03*
Y8199D02*
D03*
D44*
X88036Y8769D02*
D03*
D45*
Y15869D02*
D03*
D49*
X66553Y14173D02*
D03*
X68453D02*
D03*
X67503Y12173D02*
D03*
D50*
X50274Y23597D02*
D03*
X48274D02*
D03*
X70447Y12487D02*
D03*
X72447D02*
D03*
X42180Y15214D02*
D03*
X44180D02*
D03*
Y13644D02*
D03*
X42180D02*
D03*
X78800Y1274D02*
D03*
X76800D02*
D03*
X72447Y14173D02*
D03*
X70447D02*
D03*
X85023Y19456D02*
D03*
X83023D02*
D03*
X14469Y19787D02*
D03*
X16469D02*
D03*
X5318Y16332D02*
D03*
X3318D02*
D03*
X47431Y4179D02*
D03*
X45431D02*
D03*
X5500Y14071D02*
D03*
X3500D02*
D03*
X38268Y33738D02*
D03*
X40268D02*
D03*
X41488Y4154D02*
D03*
X39488D02*
D03*
X24679Y26848D02*
D03*
X26679D02*
D03*
D51*
X42901Y11467D02*
D03*
X44171D02*
D03*
X45441D02*
D03*
X46711D02*
D03*
X42901Y6067D02*
D03*
X44171D02*
D03*
X45441D02*
D03*
X46711D02*
D03*
D52*
X84781Y8915D02*
D03*
X77881D02*
D03*
D53*
X64338Y18200D02*
D03*
Y16200D02*
D03*
X47396Y13406D02*
D03*
Y15406D02*
D03*
X39725Y7655D02*
D03*
Y5655D02*
D03*
X41300Y7659D02*
D03*
Y5659D02*
D03*
X3400Y9193D02*
D03*
Y7193D02*
D03*
X88074Y13243D02*
D03*
Y11243D02*
D03*
X72543Y6235D02*
D03*
Y4235D02*
D03*
X45669Y15406D02*
D03*
Y13406D02*
D03*
X50274Y27162D02*
D03*
Y25162D02*
D03*
D54*
X67929Y26543D02*
D03*
X72229D02*
D03*
D55*
X9906Y32588D02*
D03*
Y36888D02*
D03*
X15443Y39735D02*
D03*
Y44035D02*
D03*
D56*
X19328Y1467D02*
D03*
X12778D02*
D03*
X19328Y3917D02*
D03*
X12778D02*
D03*
X28116Y1467D02*
D03*
X21566D02*
D03*
X28116Y3917D02*
D03*
X21566D02*
D03*
X36955Y1520D02*
D03*
X30405D02*
D03*
X36955Y3970D02*
D03*
X30405D02*
D03*
D57*
X11430Y47066D02*
D03*
Y50266D02*
D03*
D58*
X8255Y1301D02*
D03*
D59*
X10555Y7401D02*
D03*
X8255D02*
D03*
X5955D02*
D03*
D60*
X69799Y3293D02*
D03*
D61*
X68529D02*
D03*
X67259D02*
D03*
X65989D02*
D03*
Y7925D02*
D03*
X67259D02*
D03*
X68529D02*
D03*
X69799D02*
D03*
D62*
X63491Y6119D02*
D03*
Y4317D02*
D03*
X9982Y29882D02*
D03*
Y28081D02*
D03*
X38710Y14261D02*
D03*
Y12460D02*
D03*
D63*
X25289Y8357D02*
D03*
X27391D02*
D03*
D64*
X23428Y39853D02*
D03*
X27728D02*
D03*
X40287Y28256D02*
D03*
X44587D02*
D03*
D65*
X69051Y20269D02*
D03*
X70852D02*
D03*
X26428Y24587D02*
D03*
X24626D02*
D03*
%TF.MD5,152b13acc13cfd545a754f1935a05b12*%
M02*
