%TF.GenerationSoftware,Altium Limited,Altium Designer,21.6.4 (81)*%
G04 Layer_Color=128*
%FSLAX43Y43*%
%MOMM*%
%TF.SameCoordinates,100B324C-8CEB-4A13-B8D1-7C84912F4746*%
%TF.FilePolarity,Positive*%
%TF.FileFunction,Paste,Bot*%
%TF.Part,Single*%
G01*
G75*
%TA.AperFunction,SMDPad,CuDef*%
%ADD49R,0.800X0.900*%
%ADD50R,0.800X1.250*%
%ADD51R,0.600X1.500*%
%ADD52R,2.200X2.500*%
%ADD53R,1.250X0.800*%
%TA.AperFunction,TestPad*%
%ADD54R,2.000X2.300*%
%TA.AperFunction,SMDPad,CuDef*%
%ADD55R,2.300X2.000*%
%ADD56R,1.800X1.450*%
%ADD57R,1.600X1.000*%
%TA.AperFunction,ConnectorPad*%
%ADD58R,3.250X1.900*%
%ADD59R,0.950X1.900*%
%TA.AperFunction,SMDPad,CuDef*%
%ADD60R,0.543X1.874*%
G04:AMPARAMS|DCode=61|XSize=1.874mm|YSize=0.543mm|CornerRadius=0.272mm|HoleSize=0mm|Usage=FLASHONLY|Rotation=90.000|XOffset=0mm|YOffset=0mm|HoleType=Round|Shape=RoundedRectangle|*
%AMROUNDEDRECTD61*
21,1,1.874,0.000,0,0,90.0*
21,1,1.331,0.543,0,0,90.0*
1,1,0.543,0.000,0.665*
1,1,0.543,0.000,-0.665*
1,1,0.543,0.000,-0.665*
1,1,0.543,0.000,0.665*
%
%ADD61ROUNDEDRECTD61*%
%ADD62R,1.556X1.505*%
%ADD63R,1.207X1.508*%
%ADD64R,2.000X2.300*%
%ADD65R,1.505X1.556*%
D49*
X66553Y14173D02*
D03*
X68453D02*
D03*
X67503Y12173D02*
D03*
D50*
X50274Y23597D02*
D03*
X48274D02*
D03*
X70447Y12487D02*
D03*
X72447D02*
D03*
X42180Y15214D02*
D03*
X44180D02*
D03*
Y13644D02*
D03*
X42180D02*
D03*
X78800Y1274D02*
D03*
X76800D02*
D03*
X72447Y14173D02*
D03*
X70447D02*
D03*
X85023Y19456D02*
D03*
X83023D02*
D03*
X14469Y19787D02*
D03*
X16469D02*
D03*
X5318Y16332D02*
D03*
X3318D02*
D03*
X47431Y4179D02*
D03*
X45431D02*
D03*
X5500Y14071D02*
D03*
X3500D02*
D03*
X38268Y33738D02*
D03*
X40268D02*
D03*
X41488Y4154D02*
D03*
X39488D02*
D03*
X24679Y26848D02*
D03*
X26679D02*
D03*
D51*
X42901Y11467D02*
D03*
X44171D02*
D03*
X45441D02*
D03*
X46711D02*
D03*
X42901Y6067D02*
D03*
X44171D02*
D03*
X45441D02*
D03*
X46711D02*
D03*
D52*
X84781Y8915D02*
D03*
X77881D02*
D03*
D53*
X64338Y18200D02*
D03*
Y16200D02*
D03*
X47396Y13406D02*
D03*
Y15406D02*
D03*
X39725Y7655D02*
D03*
Y5655D02*
D03*
X41300Y7659D02*
D03*
Y5659D02*
D03*
X3400Y9193D02*
D03*
Y7193D02*
D03*
X88074Y13243D02*
D03*
Y11243D02*
D03*
X72543Y6235D02*
D03*
Y4235D02*
D03*
X45669Y15406D02*
D03*
Y13406D02*
D03*
X50274Y27162D02*
D03*
Y25162D02*
D03*
D54*
X67929Y26543D02*
D03*
X72229D02*
D03*
D55*
X9906Y32588D02*
D03*
Y36888D02*
D03*
X15443Y39735D02*
D03*
Y44035D02*
D03*
D56*
X19328Y1467D02*
D03*
X12778D02*
D03*
X19328Y3917D02*
D03*
X12778D02*
D03*
X28116Y1467D02*
D03*
X21566D02*
D03*
X28116Y3917D02*
D03*
X21566D02*
D03*
X36955Y1520D02*
D03*
X30405D02*
D03*
X36955Y3970D02*
D03*
X30405D02*
D03*
D57*
X11430Y47066D02*
D03*
Y50266D02*
D03*
D58*
X8255Y1301D02*
D03*
D59*
X10555Y7401D02*
D03*
X8255D02*
D03*
X5955D02*
D03*
D60*
X69799Y3293D02*
D03*
D61*
X68529D02*
D03*
X67259D02*
D03*
X65989D02*
D03*
Y7925D02*
D03*
X67259D02*
D03*
X68529D02*
D03*
X69799D02*
D03*
D62*
X63491Y6119D02*
D03*
Y4317D02*
D03*
X9982Y29882D02*
D03*
Y28081D02*
D03*
X38710Y14261D02*
D03*
Y12460D02*
D03*
D63*
X25289Y8357D02*
D03*
X27391D02*
D03*
D64*
X23428Y39853D02*
D03*
X27728D02*
D03*
X40287Y28256D02*
D03*
X44587D02*
D03*
D65*
X69051Y20269D02*
D03*
X70852D02*
D03*
X26428Y24587D02*
D03*
X24626D02*
D03*
%TF.MD5,f726b9ed9ec560a03a7b5522afc35514*%
M02*
